G04 #@! TF.GenerationSoftware,KiCad,Pcbnew,(5.99.0-12936-g328d3d0d77)*
G04 #@! TF.CreationDate,2021-10-24T19:14:53+02:00*
G04 #@! TF.ProjectId,FSP-Display6S,4653502d-4469-4737-906c-617936532e6b,v1.0*
G04 #@! TF.SameCoordinates,Original*
G04 #@! TF.FileFunction,Legend,Top*
G04 #@! TF.FilePolarity,Positive*
%FSLAX46Y46*%
G04 Gerber Fmt 4.6, Leading zero omitted, Abs format (unit mm)*
G04 Created by KiCad (PCBNEW (5.99.0-12936-g328d3d0d77)) date 2021-10-24 19:14:53*
%MOMM*%
%LPD*%
G01*
G04 APERTURE LIST*
G04 Aperture macros list*
%AMRoundRect*
0 Rectangle with rounded corners*
0 $1 Rounding radius*
0 $2 $3 $4 $5 $6 $7 $8 $9 X,Y pos of 4 corners*
0 Add a 4 corners polygon primitive as box body*
4,1,4,$2,$3,$4,$5,$6,$7,$8,$9,$2,$3,0*
0 Add four circle primitives for the rounded corners*
1,1,$1+$1,$2,$3*
1,1,$1+$1,$4,$5*
1,1,$1+$1,$6,$7*
1,1,$1+$1,$8,$9*
0 Add four rect primitives between the rounded corners*
20,1,$1+$1,$2,$3,$4,$5,0*
20,1,$1+$1,$4,$5,$6,$7,0*
20,1,$1+$1,$6,$7,$8,$9,0*
20,1,$1+$1,$8,$9,$2,$3,0*%
G04 Aperture macros list end*
%ADD10C,0.149860*%
%ADD11C,0.203200*%
%ADD12C,0.254000*%
%ADD13C,0.889000*%
%ADD14C,0.508000*%
%ADD15C,3.708000*%
%ADD16RoundRect,0.254000X0.750570X-1.099820X0.750570X1.099820X-0.750570X1.099820X-0.750570X-1.099820X0*%
%ADD17O,2.009140X2.707640*%
%ADD18C,2.108000*%
%ADD19O,2.108000X2.108000*%
%ADD20RoundRect,0.254000X0.889000X0.889000X-0.889000X0.889000X-0.889000X-0.889000X0.889000X-0.889000X0*%
%ADD21O,2.286000X2.286000*%
%ADD22RoundRect,0.254000X-0.600000X-0.600000X0.600000X-0.600000X0.600000X0.600000X-0.600000X0.600000X0*%
%ADD23C,1.708000*%
%ADD24RoundRect,0.254000X0.800000X-0.800000X0.800000X0.800000X-0.800000X0.800000X-0.800000X-0.800000X0*%
%ADD25RoundRect,0.254000X0.850000X-0.850000X0.850000X0.850000X-0.850000X0.850000X-0.850000X-0.850000X0*%
%ADD26O,2.208000X2.208000*%
%ADD27RoundRect,0.254000X-1.016000X1.016000X-1.016000X-1.016000X1.016000X-1.016000X1.016000X1.016000X0*%
%ADD28O,2.540000X3.048000*%
G04 APERTURE END LIST*
D10*
X41147996Y-52324001D02*
X41147996Y-28067001D01*
X90931996Y-28067001D02*
X90931996Y-52324001D01*
X41147996Y-28067001D02*
X90931996Y-28067001D01*
X90931996Y-52324001D02*
X41147996Y-52324001D01*
D11*
X60669714Y-49412071D02*
X60185904Y-49412071D01*
X60185904Y-48269071D01*
X61008380Y-49412071D02*
X61008380Y-48269071D01*
X61250285Y-48269071D01*
X61395428Y-48323500D01*
X61492190Y-48432357D01*
X61540571Y-48541214D01*
X61588952Y-48758928D01*
X61588952Y-48922214D01*
X61540571Y-49139928D01*
X61492190Y-49248785D01*
X61395428Y-49357642D01*
X61250285Y-49412071D01*
X61008380Y-49412071D01*
X63379047Y-49303214D02*
X63330666Y-49357642D01*
X63185523Y-49412071D01*
X63088761Y-49412071D01*
X62943619Y-49357642D01*
X62846857Y-49248785D01*
X62798476Y-49139928D01*
X62750095Y-48922214D01*
X62750095Y-48758928D01*
X62798476Y-48541214D01*
X62846857Y-48432357D01*
X62943619Y-48323500D01*
X63088761Y-48269071D01*
X63185523Y-48269071D01*
X63330666Y-48323500D01*
X63379047Y-48377928D01*
X63814476Y-49412071D02*
X63814476Y-48269071D01*
X64395047Y-49412071D02*
X63959619Y-48758928D01*
X64395047Y-48269071D02*
X63814476Y-48922214D01*
X65604571Y-49412071D02*
X65604571Y-48269071D01*
X65846476Y-48269071D01*
X65991619Y-48323500D01*
X66088380Y-48432357D01*
X66136761Y-48541214D01*
X66185142Y-48758928D01*
X66185142Y-48922214D01*
X66136761Y-49139928D01*
X66088380Y-49248785D01*
X65991619Y-49357642D01*
X65846476Y-49412071D01*
X65604571Y-49412071D01*
X66620571Y-49412071D02*
X66620571Y-48269071D01*
X67878476Y-49412071D02*
X67878476Y-48269071D01*
X68120380Y-48269071D01*
X68265523Y-48323500D01*
X68362285Y-48432357D01*
X68410666Y-48541214D01*
X68459047Y-48758928D01*
X68459047Y-48922214D01*
X68410666Y-49139928D01*
X68362285Y-49248785D01*
X68265523Y-49357642D01*
X68120380Y-49412071D01*
X67878476Y-49412071D01*
X69088000Y-48269071D02*
X69281523Y-48269071D01*
X69378285Y-48323500D01*
X69475047Y-48432357D01*
X69523428Y-48650071D01*
X69523428Y-49031071D01*
X69475047Y-49248785D01*
X69378285Y-49357642D01*
X69281523Y-49412071D01*
X69088000Y-49412071D01*
X68991238Y-49357642D01*
X68894476Y-49248785D01*
X68846095Y-49031071D01*
X68846095Y-48650071D01*
X68894476Y-48432357D01*
X68991238Y-48323500D01*
X69088000Y-48269071D01*
X71216761Y-48269071D02*
X70732952Y-48269071D01*
X70684571Y-48813357D01*
X70732952Y-48758928D01*
X70829714Y-48704500D01*
X71071619Y-48704500D01*
X71168380Y-48758928D01*
X71216761Y-48813357D01*
X71265142Y-48922214D01*
X71265142Y-49194357D01*
X71216761Y-49303214D01*
X71168380Y-49357642D01*
X71071619Y-49412071D01*
X70829714Y-49412071D01*
X70732952Y-49357642D01*
X70684571Y-49303214D01*
X71555428Y-48269071D02*
X71894095Y-49412071D01*
X72232761Y-48269071D01*
X73877714Y-48323500D02*
X73780952Y-48269071D01*
X73635809Y-48269071D01*
X73490666Y-48323500D01*
X73393904Y-48432357D01*
X73345523Y-48541214D01*
X73297142Y-48758928D01*
X73297142Y-48922214D01*
X73345523Y-49139928D01*
X73393904Y-49248785D01*
X73490666Y-49357642D01*
X73635809Y-49412071D01*
X73732571Y-49412071D01*
X73877714Y-49357642D01*
X73926095Y-49303214D01*
X73926095Y-48922214D01*
X73732571Y-48922214D01*
X74361523Y-49412071D02*
X74361523Y-48269071D01*
X74942095Y-49412071D01*
X74942095Y-48269071D01*
X75425904Y-49412071D02*
X75425904Y-48269071D01*
X75667809Y-48269071D01*
X75812952Y-48323500D01*
X75909714Y-48432357D01*
X75958095Y-48541214D01*
X76006476Y-48758928D01*
X76006476Y-48922214D01*
X75958095Y-49139928D01*
X75909714Y-49248785D01*
X75812952Y-49357642D01*
X75667809Y-49412071D01*
X75425904Y-49412071D01*
D12*
X42347242Y-30292523D02*
X42347242Y-29022523D01*
X42619385Y-29022523D01*
X42782671Y-29083000D01*
X42891528Y-29203952D01*
X42945957Y-29324904D01*
X43000385Y-29566809D01*
X43000385Y-29748238D01*
X42945957Y-29990142D01*
X42891528Y-30111095D01*
X42782671Y-30232047D01*
X42619385Y-30292523D01*
X42347242Y-30292523D01*
X43490242Y-30292523D02*
X43490242Y-29445857D01*
X43490242Y-29022523D02*
X43435814Y-29083000D01*
X43490242Y-29143476D01*
X43544671Y-29083000D01*
X43490242Y-29022523D01*
X43490242Y-29143476D01*
X43980100Y-30232047D02*
X44088957Y-30292523D01*
X44306671Y-30292523D01*
X44415528Y-30232047D01*
X44469957Y-30111095D01*
X44469957Y-30050619D01*
X44415528Y-29929666D01*
X44306671Y-29869190D01*
X44143385Y-29869190D01*
X44034528Y-29808714D01*
X43980100Y-29687761D01*
X43980100Y-29627285D01*
X44034528Y-29506333D01*
X44143385Y-29445857D01*
X44306671Y-29445857D01*
X44415528Y-29506333D01*
X44959814Y-29445857D02*
X44959814Y-30715857D01*
X44959814Y-29506333D02*
X45068671Y-29445857D01*
X45286385Y-29445857D01*
X45395242Y-29506333D01*
X45449671Y-29566809D01*
X45504100Y-29687761D01*
X45504100Y-30050619D01*
X45449671Y-30171571D01*
X45395242Y-30232047D01*
X45286385Y-30292523D01*
X45068671Y-30292523D01*
X44959814Y-30232047D01*
X46483814Y-29022523D02*
X46266100Y-29022523D01*
X46157242Y-29083000D01*
X46102814Y-29143476D01*
X45993957Y-29324904D01*
X45939528Y-29566809D01*
X45939528Y-30050619D01*
X45993957Y-30171571D01*
X46048385Y-30232047D01*
X46157242Y-30292523D01*
X46374957Y-30292523D01*
X46483814Y-30232047D01*
X46538242Y-30171571D01*
X46592671Y-30050619D01*
X46592671Y-29748238D01*
X46538242Y-29627285D01*
X46483814Y-29566809D01*
X46374957Y-29506333D01*
X46157242Y-29506333D01*
X46048385Y-29566809D01*
X45993957Y-29627285D01*
X45939528Y-29748238D01*
X47028100Y-30232047D02*
X47191385Y-30292523D01*
X47463528Y-30292523D01*
X47572385Y-30232047D01*
X47626814Y-30171571D01*
X47681242Y-30050619D01*
X47681242Y-29929666D01*
X47626814Y-29808714D01*
X47572385Y-29748238D01*
X47463528Y-29687761D01*
X47245814Y-29627285D01*
X47136957Y-29566809D01*
X47082528Y-29506333D01*
X47028100Y-29385380D01*
X47028100Y-29264428D01*
X47082528Y-29143476D01*
X47136957Y-29083000D01*
X47245814Y-29022523D01*
X47517957Y-29022523D01*
X47681242Y-29083000D01*
X48933100Y-29445857D02*
X49205242Y-30292523D01*
X49477385Y-29445857D01*
X50511528Y-30292523D02*
X49858385Y-30292523D01*
X50184957Y-30292523D02*
X50184957Y-29022523D01*
X50076100Y-29203952D01*
X49967242Y-29324904D01*
X49858385Y-29385380D01*
X51001385Y-30171571D02*
X51055814Y-30232047D01*
X51001385Y-30292523D01*
X50946957Y-30232047D01*
X51001385Y-30171571D01*
X51001385Y-30292523D01*
X51763385Y-29022523D02*
X51872242Y-29022523D01*
X51981100Y-29083000D01*
X52035528Y-29143476D01*
X52089957Y-29264428D01*
X52144385Y-29506333D01*
X52144385Y-29808714D01*
X52089957Y-30050619D01*
X52035528Y-30171571D01*
X51981100Y-30232047D01*
X51872242Y-30292523D01*
X51763385Y-30292523D01*
X51654528Y-30232047D01*
X51600100Y-30171571D01*
X51545671Y-30050619D01*
X51491242Y-29808714D01*
X51491242Y-29506333D01*
X51545671Y-29264428D01*
X51600100Y-29143476D01*
X51654528Y-29083000D01*
X51763385Y-29022523D01*
X53505100Y-29808714D02*
X54375957Y-29808714D01*
X56389814Y-29083000D02*
X56280957Y-29022523D01*
X56117671Y-29022523D01*
X55954385Y-29083000D01*
X55845528Y-29203952D01*
X55791100Y-29324904D01*
X55736671Y-29566809D01*
X55736671Y-29748238D01*
X55791100Y-29990142D01*
X55845528Y-30111095D01*
X55954385Y-30232047D01*
X56117671Y-30292523D01*
X56226528Y-30292523D01*
X56389814Y-30232047D01*
X56444242Y-30171571D01*
X56444242Y-29748238D01*
X56226528Y-29748238D01*
X57587242Y-30171571D02*
X57532814Y-30232047D01*
X57369528Y-30292523D01*
X57260671Y-30292523D01*
X57097385Y-30232047D01*
X56988528Y-30111095D01*
X56934100Y-29990142D01*
X56879671Y-29748238D01*
X56879671Y-29566809D01*
X56934100Y-29324904D01*
X56988528Y-29203952D01*
X57097385Y-29083000D01*
X57260671Y-29022523D01*
X57369528Y-29022523D01*
X57532814Y-29083000D01*
X57587242Y-29143476D01*
X58730242Y-30171571D02*
X58675814Y-30232047D01*
X58512528Y-30292523D01*
X58403671Y-30292523D01*
X58240385Y-30232047D01*
X58131528Y-30111095D01*
X58077100Y-29990142D01*
X58022671Y-29748238D01*
X58022671Y-29566809D01*
X58077100Y-29324904D01*
X58131528Y-29203952D01*
X58240385Y-29083000D01*
X58403671Y-29022523D01*
X58512528Y-29022523D01*
X58675814Y-29083000D01*
X58730242Y-29143476D01*
X60036528Y-29143476D02*
X60090957Y-29083000D01*
X60199814Y-29022523D01*
X60471957Y-29022523D01*
X60580814Y-29083000D01*
X60635242Y-29143476D01*
X60689671Y-29264428D01*
X60689671Y-29385380D01*
X60635242Y-29566809D01*
X59982100Y-30292523D01*
X60689671Y-30292523D01*
X61397242Y-29022523D02*
X61506100Y-29022523D01*
X61614957Y-29083000D01*
X61669385Y-29143476D01*
X61723814Y-29264428D01*
X61778242Y-29506333D01*
X61778242Y-29808714D01*
X61723814Y-30050619D01*
X61669385Y-30171571D01*
X61614957Y-30232047D01*
X61506100Y-30292523D01*
X61397242Y-30292523D01*
X61288385Y-30232047D01*
X61233957Y-30171571D01*
X61179528Y-30050619D01*
X61125100Y-29808714D01*
X61125100Y-29506333D01*
X61179528Y-29264428D01*
X61233957Y-29143476D01*
X61288385Y-29083000D01*
X61397242Y-29022523D01*
X62213671Y-29143476D02*
X62268100Y-29083000D01*
X62376957Y-29022523D01*
X62649100Y-29022523D01*
X62757957Y-29083000D01*
X62812385Y-29143476D01*
X62866814Y-29264428D01*
X62866814Y-29385380D01*
X62812385Y-29566809D01*
X62159242Y-30292523D01*
X62866814Y-30292523D01*
X63955385Y-30292523D02*
X63302242Y-30292523D01*
X63628814Y-30292523D02*
X63628814Y-29022523D01*
X63519957Y-29203952D01*
X63411100Y-29324904D01*
X63302242Y-29385380D01*
X64445242Y-29808714D02*
X65316100Y-29808714D01*
X66459100Y-30292523D02*
X65805957Y-30292523D01*
X66132528Y-30292523D02*
X66132528Y-29022523D01*
X66023671Y-29203952D01*
X65914814Y-29324904D01*
X65805957Y-29385380D01*
X67166671Y-29022523D02*
X67275528Y-29022523D01*
X67384385Y-29083000D01*
X67438814Y-29143476D01*
X67493242Y-29264428D01*
X67547671Y-29506333D01*
X67547671Y-29808714D01*
X67493242Y-30050619D01*
X67438814Y-30171571D01*
X67384385Y-30232047D01*
X67275528Y-30292523D01*
X67166671Y-30292523D01*
X67057814Y-30232047D01*
X67003385Y-30171571D01*
X66948957Y-30050619D01*
X66894528Y-29808714D01*
X66894528Y-29506333D01*
X66948957Y-29264428D01*
X67003385Y-29143476D01*
X67057814Y-29083000D01*
X67166671Y-29022523D01*
D13*
X60706000Y-38735000D02*
X60198000Y-42034460D01*
D12*
X87884000Y-45212000D02*
X44196000Y-45212000D01*
D13*
X84582000Y-38100000D02*
X82537300Y-38100000D01*
X46736000Y-38735000D02*
X46228000Y-42034460D01*
X57528460Y-38735000D02*
X57020460Y-42034460D01*
X67945000Y-42669460D02*
X70228460Y-42669460D01*
X74676000Y-38735000D02*
X74168000Y-42034460D01*
X48252380Y-33530540D02*
X50419000Y-33530540D01*
X55237380Y-33530540D02*
X57404000Y-33530540D01*
X65151000Y-34292540D02*
X64643000Y-37592000D01*
X49657000Y-38100000D02*
X47612300Y-38100000D01*
X68318380Y-34292540D02*
X67818000Y-37592000D01*
X69207380Y-33530540D02*
X71374000Y-33530540D01*
X86106000Y-34292540D02*
X85598000Y-37592000D01*
X62222380Y-33530540D02*
X64389000Y-33530540D01*
D12*
X87884000Y-30988000D02*
X87884000Y-45212000D01*
D13*
X60960000Y-42669460D02*
X63243460Y-42669460D01*
X63627000Y-38100000D02*
X61582300Y-38100000D01*
X53721000Y-38735000D02*
X53213000Y-42034460D01*
X72136000Y-34292540D02*
X71628000Y-37592000D01*
X53975000Y-42669460D02*
X56258460Y-42669460D01*
D12*
X44196000Y-45212000D02*
X44196000Y-30988000D01*
D13*
X83177380Y-33530540D02*
X85344000Y-33530540D01*
X58166000Y-34292540D02*
X57658000Y-37592000D01*
X46990000Y-42669460D02*
X49273460Y-42669460D01*
X77597000Y-38100000D02*
X75552300Y-38100000D01*
X50543460Y-38735000D02*
X50035460Y-42034460D01*
X78483460Y-38735000D02*
X77975460Y-42034460D01*
X81915000Y-42669460D02*
X84198460Y-42669460D01*
D12*
X44196000Y-30988000D02*
X87884000Y-30988000D01*
D13*
X71498460Y-38735000D02*
X70990460Y-42034460D01*
X51181000Y-34292540D02*
X50673000Y-37592000D01*
X76192380Y-33530540D02*
X78359000Y-33530540D01*
X61333380Y-34292540D02*
X60833000Y-37592000D01*
X70612000Y-38100000D02*
X68567300Y-38100000D01*
X64513460Y-38735000D02*
X64005460Y-42034460D01*
X67691000Y-38735000D02*
X67183000Y-42034460D01*
X74930000Y-42669460D02*
X77213460Y-42669460D01*
X56642000Y-38100000D02*
X54597300Y-38100000D01*
X54348380Y-34292540D02*
X53848000Y-37592000D01*
X82288380Y-34292540D02*
X81788000Y-37592000D01*
X85468460Y-38735000D02*
X84960460Y-42034460D01*
X81661000Y-38735000D02*
X81153000Y-42034460D01*
X47363380Y-34292540D02*
X46863000Y-37592000D01*
X79121000Y-34292540D02*
X78613000Y-37592000D01*
X75303380Y-34292540D02*
X74803000Y-37592000D01*
D14*
X72624011Y-42545000D02*
G75*
G03*
X72624011Y-42545000I-361011J0D01*
G01*
X51669011Y-42545000D02*
G75*
G03*
X51669011Y-42545000I-361011J0D01*
G01*
X58654011Y-42545000D02*
G75*
G03*
X58654011Y-42545000I-361011J0D01*
G01*
X86594011Y-42545000D02*
G75*
G03*
X86594011Y-42545000I-361011J0D01*
G01*
X79609011Y-42545000D02*
G75*
G03*
X79609011Y-42545000I-361011J0D01*
G01*
X65639011Y-42545000D02*
G75*
G03*
X65639011Y-42545000I-361011J0D01*
G01*
%LPC*%
D15*
X86359998Y-49403001D03*
X45719998Y-49403001D03*
D16*
X58420000Y-43180000D03*
D17*
X60960000Y-43180000D03*
X63500000Y-43180000D03*
X66040000Y-43180000D03*
X68580000Y-43180000D03*
X71120000Y-43180000D03*
X73660000Y-43180000D03*
X73660000Y-33020000D03*
X71120000Y-33020000D03*
X68580000Y-33020000D03*
X66040000Y-33020000D03*
X63500000Y-33020000D03*
X60960000Y-33020000D03*
X58420000Y-33020000D03*
D18*
X60960000Y-36576000D03*
D19*
X50800000Y-36576000D03*
D20*
X42418000Y-35687000D03*
D21*
X42418000Y-38227000D03*
D22*
X86784409Y-34163000D03*
D23*
X88784409Y-34163000D03*
D24*
X80015000Y-46980000D03*
D19*
X77475000Y-46980000D03*
X74935000Y-46980000D03*
X72395000Y-46980000D03*
X69855000Y-46980000D03*
X67315000Y-46980000D03*
X64775000Y-46980000D03*
X62235000Y-46980000D03*
X59695000Y-46980000D03*
X57155000Y-46980000D03*
X54615000Y-46980000D03*
X52075000Y-46980000D03*
X52075000Y-39360000D03*
X54615000Y-39360000D03*
X57155000Y-39360000D03*
X59695000Y-39360000D03*
X62235000Y-39360000D03*
X64775000Y-39360000D03*
X67315000Y-39360000D03*
X69855000Y-39360000D03*
X72395000Y-39360000D03*
X74935000Y-39360000D03*
X77475000Y-39360000D03*
X80015000Y-39360000D03*
D25*
X73660000Y-50800000D03*
D26*
X71120000Y-50800000D03*
X68580000Y-50800000D03*
X66040000Y-50800000D03*
X63500000Y-50800000D03*
X60960000Y-50800000D03*
D27*
X44577000Y-35204400D03*
D28*
X44577000Y-38777000D03*
M02*
