G04 #@! TF.GenerationSoftware,KiCad,Pcbnew,(5.99.0-12936-g328d3d0d77)*
G04 #@! TF.CreationDate,2021-10-24T19:14:53+02:00*
G04 #@! TF.ProjectId,FSP-Display6S,4653502d-4469-4737-906c-617936532e6b,v1.0*
G04 #@! TF.SameCoordinates,Original*
G04 #@! TF.FileFunction,Soldermask,Bot*
G04 #@! TF.FilePolarity,Negative*
%FSLAX46Y46*%
G04 Gerber Fmt 4.6, Leading zero omitted, Abs format (unit mm)*
G04 Created by KiCad (PCBNEW (5.99.0-12936-g328d3d0d77)) date 2021-10-24 19:14:53*
%MOMM*%
%LPD*%
G01*
G04 APERTURE LIST*
G04 Aperture macros list*
%AMRoundRect*
0 Rectangle with rounded corners*
0 $1 Rounding radius*
0 $2 $3 $4 $5 $6 $7 $8 $9 X,Y pos of 4 corners*
0 Add a 4 corners polygon primitive as box body*
4,1,4,$2,$3,$4,$5,$6,$7,$8,$9,$2,$3,0*
0 Add four circle primitives for the rounded corners*
1,1,$1+$1,$2,$3*
1,1,$1+$1,$4,$5*
1,1,$1+$1,$6,$7*
1,1,$1+$1,$8,$9*
0 Add four rect primitives between the rounded corners*
20,1,$1+$1,$2,$3,$4,$5,0*
20,1,$1+$1,$4,$5,$6,$7,0*
20,1,$1+$1,$6,$7,$8,$9,0*
20,1,$1+$1,$8,$9,$2,$3,0*%
%AMFreePoly0*
4,1,41,0.597202,0.984665,0.679605,0.929605,0.734665,0.847202,0.754000,0.750000,0.754000,-0.750000,0.734665,-0.847202,0.679605,-0.929605,0.597202,-0.984665,0.500000,-1.004000,0.000000,-1.004000,-0.027270,-0.998576,-0.084595,-0.997525,-0.155685,-0.986011,-0.291000,-0.943736,-0.356003,-0.912732,-0.474013,-0.834177,-0.527699,-0.786176,-0.618919,-0.677657,-0.656975,-0.616516,-0.714070,-0.486757,
-0.733437,-0.417395,-0.751020,-0.282935,-0.747539,-0.282480,-0.754000,-0.250000,-0.754000,0.250000,-0.751326,0.263440,-0.750939,0.295188,-0.729128,0.435265,-0.708073,0.504133,-0.647825,0.632458,-0.608286,0.692650,-0.514442,0.798908,-0.459598,0.845584,-0.339703,0.921232,-0.273964,0.950638,-0.137657,0.989595,-0.066305,0.999369,-0.024565,0.999114,0.000000,1.004000,0.500000,1.004000,
0.597202,0.984665,0.597202,0.984665,$1*%
%AMFreePoly1*
4,1,41,0.026121,0.998804,0.075455,0.998503,0.146682,0.987859,0.282503,0.947240,0.347878,0.917032,0.466840,0.839925,0.521111,0.792582,0.613649,0.685185,0.652448,0.624516,0.711125,0.495464,0.731338,0.426341,0.751435,0.286008,0.754000,0.250000,0.754000,-0.250000,0.753981,-0.253098,0.753832,-0.265314,0.750331,-0.304357,0.726811,-0.444158,0.704915,-0.512766,0.643103,-0.640345,
0.602833,-0.700048,0.507698,-0.805152,0.452287,-0.851155,0.331477,-0.925332,0.265385,-0.953933,0.128612,-0.991222,0.057145,-1.000123,0.022668,-0.999491,0.000000,-1.004000,-0.500000,-1.004000,-0.597202,-0.984665,-0.679605,-0.929605,-0.734665,-0.847202,-0.754000,-0.750000,-0.754000,0.750000,-0.734665,0.847202,-0.679605,0.929605,-0.597202,0.984665,-0.500000,1.004000,0.000000,1.004000,
0.026121,0.998804,0.026121,0.998804,$1*%
G04 Aperture macros list end*
%ADD10C,3.708000*%
%ADD11RoundRect,0.254000X0.750570X-1.099820X0.750570X1.099820X-0.750570X1.099820X-0.750570X-1.099820X0*%
%ADD12O,2.009140X2.707640*%
%ADD13C,2.108000*%
%ADD14O,2.108000X2.108000*%
%ADD15RoundRect,0.254000X0.889000X0.889000X-0.889000X0.889000X-0.889000X-0.889000X0.889000X-0.889000X0*%
%ADD16O,2.286000X2.286000*%
%ADD17RoundRect,0.254000X-0.600000X-0.600000X0.600000X-0.600000X0.600000X0.600000X-0.600000X0.600000X0*%
%ADD18C,1.708000*%
%ADD19RoundRect,0.254000X0.800000X-0.800000X0.800000X0.800000X-0.800000X0.800000X-0.800000X-0.800000X0*%
%ADD20RoundRect,0.254000X1.750000X0.900000X-1.750000X0.900000X-1.750000X-0.900000X1.750000X-0.900000X0*%
%ADD21RoundRect,0.504000X-0.412500X-0.650000X0.412500X-0.650000X0.412500X0.650000X-0.412500X0.650000X0*%
%ADD22RoundRect,0.254000X0.850000X-0.850000X0.850000X0.850000X-0.850000X0.850000X-0.850000X-0.850000X0*%
%ADD23O,2.208000X2.208000*%
%ADD24FreePoly0,90.000000*%
%ADD25FreePoly1,90.000000*%
%ADD26RoundRect,0.254000X-1.016000X1.016000X-1.016000X-1.016000X1.016000X-1.016000X1.016000X1.016000X0*%
%ADD27O,2.540000X3.048000*%
G04 APERTURE END LIST*
D10*
X86359998Y-49403001D03*
X45719998Y-49403001D03*
D11*
X58420000Y-43180000D03*
D12*
X60960000Y-43180000D03*
X63500000Y-43180000D03*
X66040000Y-43180000D03*
X68580000Y-43180000D03*
X71120000Y-43180000D03*
X73660000Y-43180000D03*
X73660000Y-33020000D03*
X71120000Y-33020000D03*
X68580000Y-33020000D03*
X66040000Y-33020000D03*
X63500000Y-33020000D03*
X60960000Y-33020000D03*
X58420000Y-33020000D03*
D13*
X60960000Y-36576000D03*
D14*
X50800000Y-36576000D03*
D15*
X42418000Y-35687000D03*
D16*
X42418000Y-38227000D03*
D17*
X86784409Y-34163000D03*
D18*
X88784409Y-34163000D03*
D19*
X80015000Y-46980000D03*
D14*
X77475000Y-46980000D03*
X74935000Y-46980000D03*
X72395000Y-46980000D03*
X69855000Y-46980000D03*
X67315000Y-46980000D03*
X64775000Y-46980000D03*
X62235000Y-46980000D03*
X59695000Y-46980000D03*
X57155000Y-46980000D03*
X54615000Y-46980000D03*
X52075000Y-46980000D03*
X52075000Y-39360000D03*
X54615000Y-39360000D03*
X57155000Y-39360000D03*
X59695000Y-39360000D03*
X62235000Y-39360000D03*
X64775000Y-39360000D03*
X67315000Y-39360000D03*
X69855000Y-39360000D03*
X72395000Y-39360000D03*
X74935000Y-39360000D03*
X77475000Y-39360000D03*
X80015000Y-39360000D03*
D20*
X48982000Y-30226000D03*
X43982000Y-30226000D03*
D21*
X85940500Y-30226000D03*
X89065500Y-30226000D03*
D22*
X73660000Y-50800000D03*
D23*
X71120000Y-50800000D03*
X68580000Y-50800000D03*
X66040000Y-50800000D03*
X63500000Y-50800000D03*
X60960000Y-50800000D03*
D24*
X48768000Y-43830000D03*
D25*
X48768000Y-42530000D03*
D26*
X44577000Y-35204400D03*
D27*
X44577000Y-38777000D03*
M02*
