G04 #@! TF.GenerationSoftware,KiCad,Pcbnew,(5.99.0-12936-g328d3d0d77)*
G04 #@! TF.CreationDate,2021-10-24T19:14:53+02:00*
G04 #@! TF.ProjectId,FSP-Display6S,4653502d-4469-4737-906c-617936532e6b,v1.0*
G04 #@! TF.SameCoordinates,Original*
G04 #@! TF.FileFunction,Legend,Bot*
G04 #@! TF.FilePolarity,Positive*
%FSLAX46Y46*%
G04 Gerber Fmt 4.6, Leading zero omitted, Abs format (unit mm)*
G04 Created by KiCad (PCBNEW (5.99.0-12936-g328d3d0d77)) date 2021-10-24 19:14:53*
%MOMM*%
%LPD*%
G01*
G04 APERTURE LIST*
G04 Aperture macros list*
%AMRoundRect*
0 Rectangle with rounded corners*
0 $1 Rounding radius*
0 $2 $3 $4 $5 $6 $7 $8 $9 X,Y pos of 4 corners*
0 Add a 4 corners polygon primitive as box body*
4,1,4,$2,$3,$4,$5,$6,$7,$8,$9,$2,$3,0*
0 Add four circle primitives for the rounded corners*
1,1,$1+$1,$2,$3*
1,1,$1+$1,$4,$5*
1,1,$1+$1,$6,$7*
1,1,$1+$1,$8,$9*
0 Add four rect primitives between the rounded corners*
20,1,$1+$1,$2,$3,$4,$5,0*
20,1,$1+$1,$4,$5,$6,$7,0*
20,1,$1+$1,$6,$7,$8,$9,0*
20,1,$1+$1,$8,$9,$2,$3,0*%
%AMFreePoly0*
4,1,41,0.597202,0.984665,0.679605,0.929605,0.734665,0.847202,0.754000,0.750000,0.754000,-0.750000,0.734665,-0.847202,0.679605,-0.929605,0.597202,-0.984665,0.500000,-1.004000,0.000000,-1.004000,-0.027270,-0.998576,-0.084595,-0.997525,-0.155685,-0.986011,-0.291000,-0.943736,-0.356003,-0.912732,-0.474013,-0.834177,-0.527699,-0.786176,-0.618919,-0.677657,-0.656975,-0.616516,-0.714070,-0.486757,
-0.733437,-0.417395,-0.751020,-0.282935,-0.747539,-0.282480,-0.754000,-0.250000,-0.754000,0.250000,-0.751326,0.263440,-0.750939,0.295188,-0.729128,0.435265,-0.708073,0.504133,-0.647825,0.632458,-0.608286,0.692650,-0.514442,0.798908,-0.459598,0.845584,-0.339703,0.921232,-0.273964,0.950638,-0.137657,0.989595,-0.066305,0.999369,-0.024565,0.999114,0.000000,1.004000,0.500000,1.004000,
0.597202,0.984665,0.597202,0.984665,$1*%
%AMFreePoly1*
4,1,41,0.026121,0.998804,0.075455,0.998503,0.146682,0.987859,0.282503,0.947240,0.347878,0.917032,0.466840,0.839925,0.521111,0.792582,0.613649,0.685185,0.652448,0.624516,0.711125,0.495464,0.731338,0.426341,0.751435,0.286008,0.754000,0.250000,0.754000,-0.250000,0.753981,-0.253098,0.753832,-0.265314,0.750331,-0.304357,0.726811,-0.444158,0.704915,-0.512766,0.643103,-0.640345,
0.602833,-0.700048,0.507698,-0.805152,0.452287,-0.851155,0.331477,-0.925332,0.265385,-0.953933,0.128612,-0.991222,0.057145,-1.000123,0.022668,-0.999491,0.000000,-1.004000,-0.500000,-1.004000,-0.597202,-0.984665,-0.679605,-0.929605,-0.734665,-0.847202,-0.754000,-0.750000,-0.754000,0.750000,-0.734665,0.847202,-0.679605,0.929605,-0.597202,0.984665,-0.500000,1.004000,0.000000,1.004000,
0.026121,0.998804,0.026121,0.998804,$1*%
G04 Aperture macros list end*
%ADD10C,0.149860*%
%ADD11C,0.203200*%
%ADD12C,0.254000*%
%ADD13C,0.120000*%
%ADD14C,0.304800*%
%ADD15C,3.708000*%
%ADD16RoundRect,0.254000X0.750570X-1.099820X0.750570X1.099820X-0.750570X1.099820X-0.750570X-1.099820X0*%
%ADD17O,2.009140X2.707640*%
%ADD18C,2.108000*%
%ADD19O,2.108000X2.108000*%
%ADD20RoundRect,0.254000X0.889000X0.889000X-0.889000X0.889000X-0.889000X-0.889000X0.889000X-0.889000X0*%
%ADD21O,2.286000X2.286000*%
%ADD22RoundRect,0.254000X-0.600000X-0.600000X0.600000X-0.600000X0.600000X0.600000X-0.600000X0.600000X0*%
%ADD23C,1.708000*%
%ADD24RoundRect,0.254000X0.800000X-0.800000X0.800000X0.800000X-0.800000X0.800000X-0.800000X-0.800000X0*%
%ADD25RoundRect,0.254000X1.750000X0.900000X-1.750000X0.900000X-1.750000X-0.900000X1.750000X-0.900000X0*%
%ADD26RoundRect,0.504000X-0.412500X-0.650000X0.412500X-0.650000X0.412500X0.650000X-0.412500X0.650000X0*%
%ADD27RoundRect,0.254000X0.850000X-0.850000X0.850000X0.850000X-0.850000X0.850000X-0.850000X-0.850000X0*%
%ADD28O,2.208000X2.208000*%
%ADD29FreePoly0,90.000000*%
%ADD30FreePoly1,90.000000*%
%ADD31RoundRect,0.254000X-1.016000X1.016000X-1.016000X-1.016000X1.016000X-1.016000X1.016000X1.016000X0*%
%ADD32O,2.540000X3.048000*%
G04 APERTURE END LIST*
D10*
X41147996Y-28067001D02*
X41147996Y-52324001D01*
X90931996Y-28067001D02*
X41147996Y-28067001D01*
X90931996Y-52324001D02*
X90931996Y-28067001D01*
X41147996Y-52324001D02*
X90931996Y-52324001D01*
D11*
X82159928Y-47171428D02*
X83302928Y-47171428D01*
X82486500Y-46748095D01*
X83302928Y-46324761D01*
X82159928Y-46324761D01*
X82486500Y-45780476D02*
X82486500Y-45175714D01*
X82159928Y-45901428D02*
X83302928Y-45478095D01*
X82159928Y-45054761D01*
X83302928Y-44752380D02*
X82159928Y-43905714D01*
X83302928Y-43905714D02*
X82159928Y-44752380D01*
X83302928Y-43542857D02*
X83302928Y-42696190D01*
X82159928Y-43240476D01*
X83194071Y-42272857D02*
X83248500Y-42212380D01*
X83302928Y-42091428D01*
X83302928Y-41789047D01*
X83248500Y-41668095D01*
X83194071Y-41607619D01*
X83085214Y-41547142D01*
X82976357Y-41547142D01*
X82813071Y-41607619D01*
X82159928Y-42333333D01*
X82159928Y-41547142D01*
X82159928Y-40337619D02*
X82159928Y-41063333D01*
X82159928Y-40700476D02*
X83302928Y-40700476D01*
X83139642Y-40821428D01*
X83030785Y-40942380D01*
X82976357Y-41063333D01*
X82159928Y-39732857D02*
X82159928Y-39490952D01*
X82214357Y-39370000D01*
X82268785Y-39309523D01*
X82432071Y-39188571D01*
X82649785Y-39128095D01*
X83085214Y-39128095D01*
X83194071Y-39188571D01*
X83248500Y-39249047D01*
X83302928Y-39370000D01*
X83302928Y-39611904D01*
X83248500Y-39732857D01*
X83194071Y-39793333D01*
X83085214Y-39853809D01*
X82813071Y-39853809D01*
X82704214Y-39793333D01*
X82649785Y-39732857D01*
X82595357Y-39611904D01*
X82595357Y-39370000D01*
X82649785Y-39249047D01*
X82704214Y-39188571D01*
X82813071Y-39128095D01*
X47244000Y-42808071D02*
X46905333Y-43951071D01*
X46566666Y-42808071D01*
X46228000Y-43352357D02*
X45453904Y-43352357D01*
X45453904Y-43678928D02*
X46228000Y-43678928D01*
X45115238Y-42808071D02*
X44776571Y-43951071D01*
X44437904Y-42808071D01*
X43712190Y-43896642D02*
X43808952Y-43951071D01*
X44002476Y-43951071D01*
X44099238Y-43896642D01*
X44147619Y-43787785D01*
X44147619Y-43352357D01*
X44099238Y-43243500D01*
X44002476Y-43189071D01*
X43808952Y-43189071D01*
X43712190Y-43243500D01*
X43663809Y-43352357D01*
X43663809Y-43461214D01*
X44147619Y-43570071D01*
X43325142Y-43951071D02*
X42792952Y-43189071D01*
X43325142Y-43189071D02*
X42792952Y-43951071D01*
X42551047Y-43189071D02*
X42164000Y-43189071D01*
X42405904Y-42808071D02*
X42405904Y-43787785D01*
X42357523Y-43896642D01*
X42260761Y-43951071D01*
X42164000Y-43951071D01*
D12*
X84144757Y-30292523D02*
X84144757Y-29022523D01*
X83872614Y-29022523D01*
X83709328Y-29083000D01*
X83600471Y-29203952D01*
X83546042Y-29324904D01*
X83491614Y-29566809D01*
X83491614Y-29748238D01*
X83546042Y-29990142D01*
X83600471Y-30111095D01*
X83709328Y-30232047D01*
X83872614Y-30292523D01*
X84144757Y-30292523D01*
X83001757Y-30292523D02*
X83001757Y-29445857D01*
X83001757Y-29022523D02*
X83056185Y-29083000D01*
X83001757Y-29143476D01*
X82947328Y-29083000D01*
X83001757Y-29022523D01*
X83001757Y-29143476D01*
X82511900Y-30232047D02*
X82403042Y-30292523D01*
X82185328Y-30292523D01*
X82076471Y-30232047D01*
X82022042Y-30111095D01*
X82022042Y-30050619D01*
X82076471Y-29929666D01*
X82185328Y-29869190D01*
X82348614Y-29869190D01*
X82457471Y-29808714D01*
X82511900Y-29687761D01*
X82511900Y-29627285D01*
X82457471Y-29506333D01*
X82348614Y-29445857D01*
X82185328Y-29445857D01*
X82076471Y-29506333D01*
X81532185Y-29445857D02*
X81532185Y-30715857D01*
X81532185Y-29506333D02*
X81423328Y-29445857D01*
X81205614Y-29445857D01*
X81096757Y-29506333D01*
X81042328Y-29566809D01*
X80987900Y-29687761D01*
X80987900Y-30050619D01*
X81042328Y-30171571D01*
X81096757Y-30232047D01*
X81205614Y-30292523D01*
X81423328Y-30292523D01*
X81532185Y-30232047D01*
X80008185Y-29022523D02*
X80225900Y-29022523D01*
X80334757Y-29083000D01*
X80389185Y-29143476D01*
X80498042Y-29324904D01*
X80552471Y-29566809D01*
X80552471Y-30050619D01*
X80498042Y-30171571D01*
X80443614Y-30232047D01*
X80334757Y-30292523D01*
X80117042Y-30292523D01*
X80008185Y-30232047D01*
X79953757Y-30171571D01*
X79899328Y-30050619D01*
X79899328Y-29748238D01*
X79953757Y-29627285D01*
X80008185Y-29566809D01*
X80117042Y-29506333D01*
X80334757Y-29506333D01*
X80443614Y-29566809D01*
X80498042Y-29627285D01*
X80552471Y-29748238D01*
X79463900Y-30232047D02*
X79300614Y-30292523D01*
X79028471Y-30292523D01*
X78919614Y-30232047D01*
X78865185Y-30171571D01*
X78810757Y-30050619D01*
X78810757Y-29929666D01*
X78865185Y-29808714D01*
X78919614Y-29748238D01*
X79028471Y-29687761D01*
X79246185Y-29627285D01*
X79355042Y-29566809D01*
X79409471Y-29506333D01*
X79463900Y-29385380D01*
X79463900Y-29264428D01*
X79409471Y-29143476D01*
X79355042Y-29083000D01*
X79246185Y-29022523D01*
X78974042Y-29022523D01*
X78810757Y-29083000D01*
X77558900Y-29445857D02*
X77286757Y-30292523D01*
X77014614Y-29445857D01*
X75980471Y-30292523D02*
X76633614Y-30292523D01*
X76307042Y-30292523D02*
X76307042Y-29022523D01*
X76415900Y-29203952D01*
X76524757Y-29324904D01*
X76633614Y-29385380D01*
X75490614Y-30171571D02*
X75436185Y-30232047D01*
X75490614Y-30292523D01*
X75545042Y-30232047D01*
X75490614Y-30171571D01*
X75490614Y-30292523D01*
X74728614Y-29022523D02*
X74619757Y-29022523D01*
X74510900Y-29083000D01*
X74456471Y-29143476D01*
X74402042Y-29264428D01*
X74347614Y-29506333D01*
X74347614Y-29808714D01*
X74402042Y-30050619D01*
X74456471Y-30171571D01*
X74510900Y-30232047D01*
X74619757Y-30292523D01*
X74728614Y-30292523D01*
X74837471Y-30232047D01*
X74891900Y-30171571D01*
X74946328Y-30050619D01*
X75000757Y-29808714D01*
X75000757Y-29506333D01*
X74946328Y-29264428D01*
X74891900Y-29143476D01*
X74837471Y-29083000D01*
X74728614Y-29022523D01*
X72986900Y-29808714D02*
X72116042Y-29808714D01*
X70755328Y-29143476D02*
X70700900Y-29083000D01*
X70592042Y-29022523D01*
X70319900Y-29022523D01*
X70211042Y-29083000D01*
X70156614Y-29143476D01*
X70102185Y-29264428D01*
X70102185Y-29385380D01*
X70156614Y-29566809D01*
X70809757Y-30292523D01*
X70102185Y-30292523D01*
X69394614Y-29022523D02*
X69285757Y-29022523D01*
X69176900Y-29083000D01*
X69122471Y-29143476D01*
X69068042Y-29264428D01*
X69013614Y-29506333D01*
X69013614Y-29808714D01*
X69068042Y-30050619D01*
X69122471Y-30171571D01*
X69176900Y-30232047D01*
X69285757Y-30292523D01*
X69394614Y-30292523D01*
X69503471Y-30232047D01*
X69557900Y-30171571D01*
X69612328Y-30050619D01*
X69666757Y-29808714D01*
X69666757Y-29506333D01*
X69612328Y-29264428D01*
X69557900Y-29143476D01*
X69503471Y-29083000D01*
X69394614Y-29022523D01*
X68578185Y-29143476D02*
X68523757Y-29083000D01*
X68414900Y-29022523D01*
X68142757Y-29022523D01*
X68033900Y-29083000D01*
X67979471Y-29143476D01*
X67925042Y-29264428D01*
X67925042Y-29385380D01*
X67979471Y-29566809D01*
X68632614Y-30292523D01*
X67925042Y-30292523D01*
X66836471Y-30292523D02*
X67489614Y-30292523D01*
X67163042Y-30292523D02*
X67163042Y-29022523D01*
X67271900Y-29203952D01*
X67380757Y-29324904D01*
X67489614Y-29385380D01*
X66346614Y-29808714D02*
X65475757Y-29808714D01*
X64332757Y-30292523D02*
X64985900Y-30292523D01*
X64659328Y-30292523D02*
X64659328Y-29022523D01*
X64768185Y-29203952D01*
X64877042Y-29324904D01*
X64985900Y-29385380D01*
X63625185Y-29022523D02*
X63516328Y-29022523D01*
X63407471Y-29083000D01*
X63353042Y-29143476D01*
X63298614Y-29264428D01*
X63244185Y-29506333D01*
X63244185Y-29808714D01*
X63298614Y-30050619D01*
X63353042Y-30171571D01*
X63407471Y-30232047D01*
X63516328Y-30292523D01*
X63625185Y-30292523D01*
X63734042Y-30232047D01*
X63788471Y-30171571D01*
X63842900Y-30050619D01*
X63897328Y-29808714D01*
X63897328Y-29506333D01*
X63842900Y-29264428D01*
X63788471Y-29143476D01*
X63734042Y-29083000D01*
X63625185Y-29022523D01*
X61284757Y-29083000D02*
X61393614Y-29022523D01*
X61556900Y-29022523D01*
X61720185Y-29083000D01*
X61829042Y-29203952D01*
X61883471Y-29324904D01*
X61937900Y-29566809D01*
X61937900Y-29748238D01*
X61883471Y-29990142D01*
X61829042Y-30111095D01*
X61720185Y-30232047D01*
X61556900Y-30292523D01*
X61448042Y-30292523D01*
X61284757Y-30232047D01*
X61230328Y-30171571D01*
X61230328Y-29748238D01*
X61448042Y-29748238D01*
X60087328Y-30171571D02*
X60141757Y-30232047D01*
X60305042Y-30292523D01*
X60413900Y-30292523D01*
X60577185Y-30232047D01*
X60686042Y-30111095D01*
X60740471Y-29990142D01*
X60794900Y-29748238D01*
X60794900Y-29566809D01*
X60740471Y-29324904D01*
X60686042Y-29203952D01*
X60577185Y-29083000D01*
X60413900Y-29022523D01*
X60305042Y-29022523D01*
X60141757Y-29083000D01*
X60087328Y-29143476D01*
X58944328Y-30171571D02*
X58998757Y-30232047D01*
X59162042Y-30292523D01*
X59270900Y-30292523D01*
X59434185Y-30232047D01*
X59543042Y-30111095D01*
X59597471Y-29990142D01*
X59651900Y-29748238D01*
X59651900Y-29566809D01*
X59597471Y-29324904D01*
X59543042Y-29203952D01*
X59434185Y-29083000D01*
X59270900Y-29022523D01*
X59162042Y-29022523D01*
X58998757Y-29083000D01*
X58944328Y-29143476D01*
D11*
X50164998Y-39890096D02*
X50225474Y-39986858D01*
X50225474Y-40132001D01*
X50164998Y-40277143D01*
X50044045Y-40373905D01*
X49923093Y-40422286D01*
X49681188Y-40470667D01*
X49499759Y-40470667D01*
X49257855Y-40422286D01*
X49136902Y-40373905D01*
X49015950Y-40277143D01*
X48955474Y-40132001D01*
X48955474Y-40035239D01*
X49015950Y-39890096D01*
X49076426Y-39841715D01*
X49499759Y-39841715D01*
X49499759Y-40035239D01*
X48955474Y-39406286D02*
X50225474Y-39406286D01*
X48955474Y-38825715D01*
X50225474Y-38825715D01*
X48955474Y-38341905D02*
X50225474Y-38341905D01*
X50225474Y-38100001D01*
X50164998Y-37954858D01*
X50044045Y-37858096D01*
X49923093Y-37809715D01*
X49681188Y-37761334D01*
X49499759Y-37761334D01*
X49257855Y-37809715D01*
X49136902Y-37858096D01*
X49015950Y-37954858D01*
X48955474Y-38100001D01*
X48955474Y-38341905D01*
X49439283Y-36739286D02*
X49439283Y-35965191D01*
X48955474Y-36352239D02*
X49923093Y-36352239D01*
X50225474Y-34997572D02*
X50225474Y-35481381D01*
X49620712Y-35529762D01*
X49681188Y-35481381D01*
X49741664Y-35384620D01*
X49741664Y-35142715D01*
X49681188Y-35045953D01*
X49620712Y-34997572D01*
X49499759Y-34949191D01*
X49197378Y-34949191D01*
X49076426Y-34997572D01*
X49015950Y-35045953D01*
X48955474Y-35142715D01*
X48955474Y-35384620D01*
X49015950Y-35481381D01*
X49076426Y-35529762D01*
X50225474Y-34658905D02*
X48955474Y-34320239D01*
X50225474Y-33981572D01*
X75044904Y-48323500D02*
X75141666Y-48269071D01*
X75286809Y-48269071D01*
X75431952Y-48323500D01*
X75528714Y-48432357D01*
X75577095Y-48541214D01*
X75625476Y-48758928D01*
X75625476Y-48922214D01*
X75577095Y-49139928D01*
X75528714Y-49248785D01*
X75431952Y-49357642D01*
X75286809Y-49412071D01*
X75190047Y-49412071D01*
X75044904Y-49357642D01*
X74996523Y-49303214D01*
X74996523Y-48922214D01*
X75190047Y-48922214D01*
X74561095Y-49412071D02*
X74561095Y-48269071D01*
X73980523Y-49412071D01*
X73980523Y-48269071D01*
X73496714Y-49412071D02*
X73496714Y-48269071D01*
X73254809Y-48269071D01*
X73109666Y-48323500D01*
X73012904Y-48432357D01*
X72964523Y-48541214D01*
X72916142Y-48758928D01*
X72916142Y-48922214D01*
X72964523Y-49139928D01*
X73012904Y-49248785D01*
X73109666Y-49357642D01*
X73254809Y-49412071D01*
X73496714Y-49412071D01*
X71222809Y-48269071D02*
X71706619Y-48269071D01*
X71755000Y-48813357D01*
X71706619Y-48758928D01*
X71609857Y-48704500D01*
X71367952Y-48704500D01*
X71271190Y-48758928D01*
X71222809Y-48813357D01*
X71174428Y-48922214D01*
X71174428Y-49194357D01*
X71222809Y-49303214D01*
X71271190Y-49357642D01*
X71367952Y-49412071D01*
X71609857Y-49412071D01*
X71706619Y-49357642D01*
X71755000Y-49303214D01*
X70884142Y-48269071D02*
X70545476Y-49412071D01*
X70206809Y-48269071D01*
X69094047Y-49412071D02*
X69094047Y-48269071D01*
X68852142Y-48269071D01*
X68707000Y-48323500D01*
X68610238Y-48432357D01*
X68561857Y-48541214D01*
X68513476Y-48758928D01*
X68513476Y-48922214D01*
X68561857Y-49139928D01*
X68610238Y-49248785D01*
X68707000Y-49357642D01*
X68852142Y-49412071D01*
X69094047Y-49412071D01*
X67884523Y-48269071D02*
X67691000Y-48269071D01*
X67594238Y-48323500D01*
X67497476Y-48432357D01*
X67449095Y-48650071D01*
X67449095Y-49031071D01*
X67497476Y-49248785D01*
X67594238Y-49357642D01*
X67691000Y-49412071D01*
X67884523Y-49412071D01*
X67981285Y-49357642D01*
X68078047Y-49248785D01*
X68126428Y-49031071D01*
X68126428Y-48650071D01*
X68078047Y-48432357D01*
X67981285Y-48323500D01*
X67884523Y-48269071D01*
X66239571Y-49412071D02*
X66239571Y-48269071D01*
X65997666Y-48269071D01*
X65852523Y-48323500D01*
X65755761Y-48432357D01*
X65707380Y-48541214D01*
X65659000Y-48758928D01*
X65659000Y-48922214D01*
X65707380Y-49139928D01*
X65755761Y-49248785D01*
X65852523Y-49357642D01*
X65997666Y-49412071D01*
X66239571Y-49412071D01*
X65223571Y-49412071D02*
X65223571Y-48269071D01*
X63385095Y-49303214D02*
X63433476Y-49357642D01*
X63578619Y-49412071D01*
X63675380Y-49412071D01*
X63820523Y-49357642D01*
X63917285Y-49248785D01*
X63965666Y-49139928D01*
X64014047Y-48922214D01*
X64014047Y-48758928D01*
X63965666Y-48541214D01*
X63917285Y-48432357D01*
X63820523Y-48323500D01*
X63675380Y-48269071D01*
X63578619Y-48269071D01*
X63433476Y-48323500D01*
X63385095Y-48377928D01*
X62949666Y-49412071D02*
X62949666Y-48269071D01*
X62369095Y-49412071D02*
X62804523Y-48758928D01*
X62369095Y-48269071D02*
X62949666Y-48922214D01*
X60675761Y-49412071D02*
X61159571Y-49412071D01*
X61159571Y-48269071D01*
X60337095Y-49412071D02*
X60337095Y-48269071D01*
X60095190Y-48269071D01*
X59950047Y-48323500D01*
X59853285Y-48432357D01*
X59804904Y-48541214D01*
X59756523Y-48758928D01*
X59756523Y-48922214D01*
X59804904Y-49139928D01*
X59853285Y-49248785D01*
X59950047Y-49357642D01*
X60095190Y-49412071D01*
X60337095Y-49412071D01*
D13*
X59150000Y-37946000D02*
X52610000Y-37946000D01*
X52610000Y-37946000D02*
X52610000Y-35206000D01*
X59920000Y-36576000D02*
X59150000Y-36576000D01*
X59150000Y-35206000D02*
X59150000Y-37946000D01*
X51840000Y-36576000D02*
X52610000Y-36576000D01*
X52610000Y-35206000D02*
X59150000Y-35206000D01*
X41088000Y-36957000D02*
X41088000Y-39557000D01*
X43748000Y-34357000D02*
X42418000Y-34357000D01*
X43748000Y-35687000D02*
X43748000Y-34357000D01*
X43748000Y-36957000D02*
X43748000Y-39557000D01*
X43748000Y-36957000D02*
X41088000Y-36957000D01*
X43748000Y-39557000D02*
X41088000Y-39557000D01*
X89345409Y-33323000D02*
X89345409Y-32767000D01*
X89785409Y-34827000D02*
X89785409Y-33499000D01*
X89665409Y-35103000D02*
X89665409Y-33223000D01*
X88144409Y-33323000D02*
X88144409Y-32113000D01*
X88625409Y-36070000D02*
X88625409Y-35003000D01*
X88985409Y-35871000D02*
X88985409Y-35003000D01*
X88264409Y-33323000D02*
X88264409Y-32138000D01*
X89065409Y-35813000D02*
X89065409Y-35003000D01*
X89705409Y-35022000D02*
X89705409Y-33304000D01*
X89105409Y-33323000D02*
X89105409Y-32544000D01*
X88745409Y-36014000D02*
X88745409Y-35003000D01*
X89345409Y-35559000D02*
X89345409Y-35003000D01*
X87944409Y-36237000D02*
X87944409Y-32089000D01*
X89505409Y-33323000D02*
X89505409Y-32963000D01*
X88304409Y-33323000D02*
X88304409Y-32147000D01*
X88344409Y-33323000D02*
X88344409Y-32158000D01*
X88705409Y-33323000D02*
X88705409Y-32293000D01*
X89745409Y-34931000D02*
X89745409Y-33395000D01*
X89265409Y-33323000D02*
X89265409Y-32685000D01*
X88264409Y-36188000D02*
X88264409Y-35003000D01*
X89825409Y-34700000D02*
X89825409Y-33626000D01*
X89865409Y-34533000D02*
X89865409Y-33793000D01*
X88905409Y-35923000D02*
X88905409Y-35003000D01*
X89625409Y-35176000D02*
X89625409Y-33150000D01*
X89025409Y-33323000D02*
X89025409Y-32483000D01*
X88224409Y-36197000D02*
X88224409Y-35003000D01*
X89065409Y-33323000D02*
X89065409Y-32513000D01*
X89465409Y-33323000D02*
X89465409Y-32909000D01*
X88545409Y-36103000D02*
X88545409Y-35003000D01*
X88464409Y-36131000D02*
X88464409Y-35003000D01*
X88384409Y-33323000D02*
X88384409Y-32169000D01*
X88384409Y-36157000D02*
X88384409Y-35003000D01*
X89505409Y-35363000D02*
X89505409Y-35003000D01*
X88585409Y-36087000D02*
X88585409Y-35003000D01*
X87984409Y-33323000D02*
X87984409Y-32092000D01*
X89305409Y-33323000D02*
X89305409Y-32725000D01*
X88304409Y-36179000D02*
X88304409Y-35003000D01*
X88024409Y-36230000D02*
X88024409Y-35003000D01*
X89305409Y-35601000D02*
X89305409Y-35003000D01*
X88064409Y-36225000D02*
X88064409Y-35003000D01*
X88064409Y-33323000D02*
X88064409Y-32101000D01*
X89185409Y-33323000D02*
X89185409Y-32611000D01*
X88505409Y-33323000D02*
X88505409Y-32209000D01*
X88825409Y-35971000D02*
X88825409Y-35003000D01*
X88945409Y-35898000D02*
X88945409Y-35003000D01*
X88184409Y-33323000D02*
X88184409Y-32121000D01*
X88625409Y-33323000D02*
X88625409Y-32256000D01*
X87784409Y-36243000D02*
X87784409Y-32083000D01*
X89585409Y-33323000D02*
X89585409Y-33083000D01*
X88665409Y-36052000D02*
X88665409Y-35003000D01*
X87984409Y-36234000D02*
X87984409Y-35003000D01*
X89225409Y-35679000D02*
X89225409Y-35003000D01*
X88825409Y-33323000D02*
X88825409Y-32355000D01*
X88585409Y-33323000D02*
X88585409Y-32239000D01*
X88505409Y-36117000D02*
X88505409Y-35003000D01*
X89585409Y-35243000D02*
X89585409Y-35003000D01*
X87824409Y-36243000D02*
X87824409Y-32083000D01*
X88224409Y-33323000D02*
X88224409Y-32129000D01*
X88985409Y-33323000D02*
X88985409Y-32455000D01*
X89185409Y-35715000D02*
X89185409Y-35003000D01*
X89265409Y-35641000D02*
X89265409Y-35003000D01*
X88785409Y-35993000D02*
X88785409Y-35003000D01*
X88024409Y-33323000D02*
X88024409Y-32096000D01*
X88545409Y-33323000D02*
X88545409Y-32223000D01*
X85714608Y-35558000D02*
X85714608Y-35158000D01*
X88865409Y-33323000D02*
X88865409Y-32378000D01*
X88785409Y-33323000D02*
X88785409Y-32333000D01*
X88424409Y-33323000D02*
X88424409Y-32181000D01*
X89385409Y-33323000D02*
X89385409Y-32812000D01*
X88865409Y-35948000D02*
X88865409Y-35003000D01*
X88905409Y-33323000D02*
X88905409Y-32403000D01*
X87904409Y-36240000D02*
X87904409Y-32086000D01*
X87864409Y-36242000D02*
X87864409Y-32084000D01*
X88184409Y-36205000D02*
X88184409Y-35003000D01*
X88705409Y-36033000D02*
X88705409Y-35003000D01*
X89465409Y-35417000D02*
X89465409Y-35003000D01*
X89105409Y-35782000D02*
X89105409Y-35003000D01*
X88665409Y-33323000D02*
X88665409Y-32274000D01*
X88945409Y-33323000D02*
X88945409Y-32428000D01*
X89545409Y-33323000D02*
X89545409Y-33021000D01*
X88745409Y-33323000D02*
X88745409Y-32312000D01*
X88104409Y-33323000D02*
X88104409Y-32107000D01*
X88464409Y-33323000D02*
X88464409Y-32195000D01*
X88424409Y-36145000D02*
X88424409Y-35003000D01*
X89425409Y-35467000D02*
X89425409Y-35003000D01*
X89145409Y-35750000D02*
X89145409Y-35003000D01*
X88144409Y-36213000D02*
X88144409Y-35003000D01*
X89225409Y-33323000D02*
X89225409Y-32647000D01*
X89385409Y-35514000D02*
X89385409Y-35003000D01*
X85514608Y-35358000D02*
X85914608Y-35358000D01*
X88344409Y-36168000D02*
X88344409Y-35003000D01*
X88104409Y-36219000D02*
X88104409Y-35003000D01*
X89545409Y-35305000D02*
X89545409Y-35003000D01*
X89025409Y-35843000D02*
X89025409Y-35003000D01*
X89425409Y-33323000D02*
X89425409Y-32859000D01*
X89145409Y-33323000D02*
X89145409Y-32576000D01*
X89904409Y-34163000D02*
G75*
G03*
X89904409Y-34163000I-2120000J0D01*
G01*
X81345000Y-45820000D02*
X50745000Y-45820000D01*
X50745000Y-40520000D02*
X81345000Y-40520000D01*
X81345000Y-44170000D02*
X81345000Y-45820000D01*
X50745000Y-45820000D02*
X50745000Y-40520000D01*
X81345000Y-40520000D02*
X81345000Y-42170000D01*
X81345000Y-42170000D02*
G75*
G03*
X81345000Y-44170000I0J-1000000D01*
G01*
X50882000Y-28576000D02*
X43982000Y-28576000D01*
X50882000Y-28576000D02*
X50882000Y-31876000D01*
X50882000Y-31876000D02*
X43982000Y-31876000D01*
X86791748Y-31136000D02*
X88214252Y-31136000D01*
X86791748Y-29316000D02*
X88214252Y-29316000D01*
X72390000Y-52130000D02*
X72390000Y-49470000D01*
X72390000Y-52130000D02*
X59630000Y-52130000D01*
X59630000Y-52130000D02*
X59630000Y-49470000D01*
X73660000Y-52130000D02*
X74990000Y-52130000D01*
X74990000Y-52130000D02*
X74990000Y-50800000D01*
X72390000Y-49470000D02*
X59630000Y-49470000D01*
X47768000Y-42480000D02*
X47768000Y-43880000D01*
X49068000Y-41780000D02*
X48468000Y-41780000D01*
X48468000Y-44580000D02*
X49068000Y-44580000D01*
X49768000Y-43880000D02*
X49768000Y-42480000D01*
X48468000Y-41780000D02*
G75*
G03*
X47768000Y-42480000I-1J-699999D01*
G01*
X47768000Y-43880000D02*
G75*
G03*
X48468000Y-44580000I699999J-1D01*
G01*
X49768000Y-42480000D02*
G75*
G03*
X49068000Y-41780000I-699999J1D01*
G01*
X49068000Y-44580000D02*
G75*
G03*
X49768000Y-43880000I1J699999D01*
G01*
D14*
X48133000Y-40513000D02*
X48133000Y-33401000D01*
X47625000Y-37846000D02*
X47625000Y-39624000D01*
X48133000Y-33401000D02*
X41021000Y-33401000D01*
X41021000Y-33401000D02*
X41021000Y-40513000D01*
X41021000Y-40513000D02*
X48133000Y-40513000D01*
X47625000Y-34290000D02*
X47625000Y-36068000D01*
G36*
X86938928Y-41877647D02*
G01*
X87033330Y-41877766D01*
X87141293Y-41877984D01*
X87263832Y-41878283D01*
X87401959Y-41878648D01*
X88260019Y-41880947D01*
X88332270Y-41908572D01*
X88360500Y-41920171D01*
X88446365Y-41966546D01*
X88522196Y-42025186D01*
X88586766Y-42094834D01*
X88638848Y-42174234D01*
X88677216Y-42262126D01*
X88699954Y-42329183D01*
X88702182Y-43179473D01*
X88702250Y-43205437D01*
X88702593Y-43340076D01*
X88702867Y-43459320D01*
X88703054Y-43564191D01*
X88703139Y-43655710D01*
X88703105Y-43734899D01*
X88702934Y-43802780D01*
X88702612Y-43860376D01*
X88702121Y-43908707D01*
X88701446Y-43948796D01*
X88700568Y-43981665D01*
X88699472Y-44008336D01*
X88698142Y-44029829D01*
X88696560Y-44047168D01*
X88694711Y-44061375D01*
X88692578Y-44073470D01*
X88690144Y-44084476D01*
X88687393Y-44095415D01*
X88661936Y-44171679D01*
X88618801Y-44255880D01*
X88563232Y-44330797D01*
X88496568Y-44395170D01*
X88420151Y-44447741D01*
X88335320Y-44487250D01*
X88243418Y-44512437D01*
X88238973Y-44513169D01*
X88222568Y-44514996D01*
X88199052Y-44516616D01*
X88167562Y-44518041D01*
X88127234Y-44519281D01*
X88077207Y-44520348D01*
X88016617Y-44521254D01*
X87944601Y-44522011D01*
X87860298Y-44522630D01*
X87762845Y-44523122D01*
X87651378Y-44523500D01*
X87525036Y-44523774D01*
X87382955Y-44523956D01*
X87320715Y-44524017D01*
X87187522Y-44524140D01*
X87069426Y-44524190D01*
X86965378Y-44524100D01*
X86874327Y-44523808D01*
X86795221Y-44523250D01*
X86727010Y-44522361D01*
X86668643Y-44521078D01*
X86619069Y-44519336D01*
X86577237Y-44517071D01*
X86542097Y-44514221D01*
X86512598Y-44510719D01*
X86487688Y-44506503D01*
X86466317Y-44501509D01*
X86447435Y-44495672D01*
X86429990Y-44488929D01*
X86412932Y-44481215D01*
X86395209Y-44472467D01*
X86375771Y-44462621D01*
X86338459Y-44442327D01*
X86258234Y-44386424D01*
X86191211Y-44320526D01*
X86137560Y-44244902D01*
X86097449Y-44159818D01*
X86071047Y-44065540D01*
X86058525Y-43962336D01*
X86053729Y-43868954D01*
X86444193Y-43868954D01*
X86448019Y-43935041D01*
X86449903Y-43960583D01*
X86454568Y-43991322D01*
X86462804Y-44015905D01*
X86476321Y-44040718D01*
X86506968Y-44080058D01*
X86546524Y-44108621D01*
X86596450Y-44125651D01*
X86601413Y-44126415D01*
X86624722Y-44128138D01*
X86663953Y-44129654D01*
X86719190Y-44130965D01*
X86790519Y-44132072D01*
X86878025Y-44132976D01*
X86981791Y-44133677D01*
X87101903Y-44134176D01*
X87238445Y-44134475D01*
X87391503Y-44134575D01*
X87493523Y-44134581D01*
X87615723Y-44134574D01*
X87723123Y-44134488D01*
X87816751Y-44134259D01*
X87897637Y-44133819D01*
X87966808Y-44133102D01*
X88025295Y-44132043D01*
X88074125Y-44130574D01*
X88114328Y-44128629D01*
X88146932Y-44126143D01*
X88172967Y-44123048D01*
X88193460Y-44119280D01*
X88209442Y-44114770D01*
X88221941Y-44109454D01*
X88231986Y-44103265D01*
X88240605Y-44096137D01*
X88248828Y-44088003D01*
X88257684Y-44078797D01*
X88261097Y-44075346D01*
X88269937Y-44066680D01*
X88277737Y-44058719D01*
X88284561Y-44050446D01*
X88290474Y-44040842D01*
X88295541Y-44028891D01*
X88299827Y-44013573D01*
X88303396Y-43993870D01*
X88306315Y-43968765D01*
X88308647Y-43937239D01*
X88310458Y-43898275D01*
X88311812Y-43850854D01*
X88312775Y-43793958D01*
X88313412Y-43726569D01*
X88313787Y-43647669D01*
X88313966Y-43556241D01*
X88314014Y-43451265D01*
X88313994Y-43331725D01*
X88313973Y-43196601D01*
X88313969Y-43148142D01*
X88313906Y-43017107D01*
X88313755Y-42901441D01*
X88313506Y-42800225D01*
X88313144Y-42712541D01*
X88312659Y-42637471D01*
X88312036Y-42574096D01*
X88311263Y-42521499D01*
X88310328Y-42478759D01*
X88309219Y-42444960D01*
X88307922Y-42419182D01*
X88306425Y-42400508D01*
X88304715Y-42388018D01*
X88302780Y-42380795D01*
X88281030Y-42342934D01*
X88248101Y-42307212D01*
X88210559Y-42282530D01*
X88204300Y-42279981D01*
X88196750Y-42277730D01*
X88186895Y-42275762D01*
X88173711Y-42274057D01*
X88156179Y-42272597D01*
X88133278Y-42271362D01*
X88103985Y-42270335D01*
X88067282Y-42269495D01*
X88022145Y-42268825D01*
X87967554Y-42268306D01*
X87902489Y-42267917D01*
X87825927Y-42267642D01*
X87736849Y-42267461D01*
X87634232Y-42267355D01*
X87517056Y-42267305D01*
X87384300Y-42267292D01*
X87300873Y-42267280D01*
X87174540Y-42267239D01*
X87063191Y-42267232D01*
X86965817Y-42267334D01*
X86881405Y-42267615D01*
X86808947Y-42268150D01*
X86747431Y-42269010D01*
X86695847Y-42270267D01*
X86653185Y-42271994D01*
X86618434Y-42274265D01*
X86590583Y-42277150D01*
X86568623Y-42280722D01*
X86551543Y-42285055D01*
X86538332Y-42290220D01*
X86527979Y-42296290D01*
X86519476Y-42303338D01*
X86511810Y-42311435D01*
X86503971Y-42320654D01*
X86494950Y-42331068D01*
X86493318Y-42332908D01*
X86466986Y-42374443D01*
X86451435Y-42426920D01*
X86446326Y-42491454D01*
X86446326Y-42532549D01*
X86056196Y-42532549D01*
X86056196Y-42462536D01*
X86056201Y-42459888D01*
X86064263Y-42360253D01*
X86087028Y-42266402D01*
X86123578Y-42179564D01*
X86172994Y-42100970D01*
X86234358Y-42031848D01*
X86306753Y-41973428D01*
X86389260Y-41926941D01*
X86480961Y-41893615D01*
X86484909Y-41892538D01*
X86495193Y-41889881D01*
X86505869Y-41887536D01*
X86517950Y-41885487D01*
X86532450Y-41883717D01*
X86550381Y-41882210D01*
X86572756Y-41880950D01*
X86600589Y-41879920D01*
X86634893Y-41879103D01*
X86676680Y-41878483D01*
X86726964Y-41878044D01*
X86786758Y-41877770D01*
X86857075Y-41877643D01*
X86938928Y-41877647D01*
G37*
G36*
X87877295Y-41122365D02*
G01*
X87965176Y-41122631D01*
X88042076Y-41123158D01*
X88109029Y-41123981D01*
X88167064Y-41125135D01*
X88217214Y-41126655D01*
X88260509Y-41128576D01*
X88297982Y-41130933D01*
X88330663Y-41133760D01*
X88359585Y-41137092D01*
X88385777Y-41140965D01*
X88410273Y-41145412D01*
X88434104Y-41150469D01*
X88458300Y-41156171D01*
X88483893Y-41162552D01*
X88591747Y-41195085D01*
X88723178Y-41249763D01*
X88847619Y-41318558D01*
X88963838Y-41400473D01*
X89070604Y-41494514D01*
X89166683Y-41599687D01*
X89250846Y-41714995D01*
X89321859Y-41839444D01*
X89330729Y-41857519D01*
X89361476Y-41925477D01*
X89387451Y-41993283D01*
X89410641Y-42066506D01*
X89433036Y-42150718D01*
X89454607Y-42237875D01*
X89457572Y-43146797D01*
X89457894Y-43246747D01*
X89458308Y-43385549D01*
X89458600Y-43509455D01*
X89458733Y-43619491D01*
X89458673Y-43716686D01*
X89458385Y-43802068D01*
X89457833Y-43876665D01*
X89456981Y-43941504D01*
X89455794Y-43997614D01*
X89454238Y-44046023D01*
X89452276Y-44087758D01*
X89449873Y-44123847D01*
X89446994Y-44155319D01*
X89443603Y-44183200D01*
X89439666Y-44208520D01*
X89435147Y-44232306D01*
X89430010Y-44255585D01*
X89424220Y-44279387D01*
X89417741Y-44304738D01*
X89417696Y-44304915D01*
X89374646Y-44441894D01*
X89318256Y-44570176D01*
X89247828Y-44690961D01*
X89162661Y-44805448D01*
X89062057Y-44914836D01*
X89007987Y-44965292D01*
X88894405Y-45054452D01*
X88772119Y-45129638D01*
X88641787Y-45190519D01*
X88504071Y-45236762D01*
X88359627Y-45268037D01*
X88351928Y-45269079D01*
X88333940Y-45270692D01*
X88309097Y-45272110D01*
X88276586Y-45273342D01*
X88235596Y-45274393D01*
X88185314Y-45275272D01*
X88124928Y-45275985D01*
X88053626Y-45276539D01*
X87970596Y-45276942D01*
X87875025Y-45277200D01*
X87766102Y-45277322D01*
X87643015Y-45277313D01*
X87504951Y-45277182D01*
X87351098Y-45276936D01*
X87309337Y-45276858D01*
X87168663Y-45276587D01*
X87043348Y-45276321D01*
X86932418Y-45276040D01*
X86834899Y-45275725D01*
X86749817Y-45275357D01*
X86676200Y-45274918D01*
X86613074Y-45274389D01*
X86559466Y-45273751D01*
X86514401Y-45272986D01*
X86476906Y-45272073D01*
X86446008Y-45270995D01*
X86420733Y-45269732D01*
X86400108Y-45268267D01*
X86383159Y-45266579D01*
X86368913Y-45264650D01*
X86356396Y-45262462D01*
X86344634Y-45259995D01*
X86332655Y-45257231D01*
X86274686Y-45242367D01*
X86131653Y-45194439D01*
X85997594Y-45133001D01*
X85873147Y-45058701D01*
X85758951Y-44972191D01*
X85655646Y-44874119D01*
X85563871Y-44765135D01*
X85484266Y-44645889D01*
X85417469Y-44517031D01*
X85364121Y-44379209D01*
X85324860Y-44233075D01*
X85315388Y-44175886D01*
X85308028Y-44101151D01*
X85303355Y-44012140D01*
X85298430Y-43868954D01*
X85688416Y-43868954D01*
X85693845Y-43983088D01*
X85694833Y-44002038D01*
X85702970Y-44095747D01*
X85716668Y-44178567D01*
X85737048Y-44254853D01*
X85765226Y-44328959D01*
X85802324Y-44405240D01*
X85819461Y-44435981D01*
X85886926Y-44535588D01*
X85966426Y-44624714D01*
X86056635Y-44702453D01*
X86156227Y-44767896D01*
X86263878Y-44820137D01*
X86378261Y-44858268D01*
X86498051Y-44881383D01*
X86501465Y-44881747D01*
X86525455Y-44883178D01*
X86564197Y-44884474D01*
X86616265Y-44885636D01*
X86680235Y-44886664D01*
X86754680Y-44887559D01*
X86838177Y-44888320D01*
X86929299Y-44888948D01*
X87026622Y-44889444D01*
X87128721Y-44889806D01*
X87234170Y-44890037D01*
X87341545Y-44890135D01*
X87449420Y-44890101D01*
X87556371Y-44889935D01*
X87660971Y-44889638D01*
X87761797Y-44889210D01*
X87857423Y-44888650D01*
X87946423Y-44887960D01*
X88027374Y-44887140D01*
X88098849Y-44886189D01*
X88159423Y-44885108D01*
X88207672Y-44883897D01*
X88242171Y-44882557D01*
X88261494Y-44881088D01*
X88379652Y-44858192D01*
X88496560Y-44820146D01*
X88605235Y-44767759D01*
X88706014Y-44700867D01*
X88799233Y-44619307D01*
X88807049Y-44611446D01*
X88885655Y-44519644D01*
X88951466Y-44417714D01*
X89003841Y-44306797D01*
X89042135Y-44188035D01*
X89065183Y-44097222D01*
X89065183Y-43209052D01*
X89065184Y-43092813D01*
X89065169Y-42961219D01*
X89065095Y-42844379D01*
X89064921Y-42741265D01*
X89064607Y-42650851D01*
X89064109Y-42572108D01*
X89063387Y-42504009D01*
X89062399Y-42445527D01*
X89061103Y-42395634D01*
X89059459Y-42353302D01*
X89057424Y-42317505D01*
X89054958Y-42287214D01*
X89052017Y-42261401D01*
X89048562Y-42239041D01*
X89044551Y-42219104D01*
X89039941Y-42200564D01*
X89034692Y-42182392D01*
X89028761Y-42163562D01*
X89022108Y-42143046D01*
X89017313Y-42128670D01*
X88971139Y-42019021D01*
X88910991Y-41916622D01*
X88838239Y-41822860D01*
X88754250Y-41739120D01*
X88660393Y-41666790D01*
X88558037Y-41607256D01*
X88448549Y-41561905D01*
X88433844Y-41556932D01*
X88414395Y-41550362D01*
X88396348Y-41544550D01*
X88378643Y-41539448D01*
X88360223Y-41535003D01*
X88340027Y-41531167D01*
X88316997Y-41527888D01*
X88290074Y-41525116D01*
X88258199Y-41522801D01*
X88220313Y-41520893D01*
X88175357Y-41519342D01*
X88122272Y-41518097D01*
X88059998Y-41517107D01*
X87987478Y-41516323D01*
X87903651Y-41515695D01*
X87807459Y-41515171D01*
X87697844Y-41514702D01*
X87573745Y-41514238D01*
X87434104Y-41513728D01*
X87290979Y-41513268D01*
X87142069Y-41512972D01*
X87008198Y-41512919D01*
X86889562Y-41513106D01*
X86786354Y-41513532D01*
X86698771Y-41514197D01*
X86627007Y-41515098D01*
X86571257Y-41516236D01*
X86531717Y-41517608D01*
X86508581Y-41519214D01*
X86442436Y-41529102D01*
X86322542Y-41559189D01*
X86210186Y-41603683D01*
X86106192Y-41662006D01*
X86011385Y-41733581D01*
X85926588Y-41817833D01*
X85852626Y-41914185D01*
X85790321Y-42022058D01*
X85761372Y-42084902D01*
X85733466Y-42160535D01*
X85713711Y-42237353D01*
X85700896Y-42320286D01*
X85693806Y-42414264D01*
X85688389Y-42532549D01*
X85298430Y-42532549D01*
X85303362Y-42389362D01*
X85307635Y-42305659D01*
X85315082Y-42228226D01*
X85325507Y-42165151D01*
X85342175Y-42095384D01*
X85387863Y-41954467D01*
X85447416Y-41821957D01*
X85520164Y-41698525D01*
X85605436Y-41584843D01*
X85702563Y-41481584D01*
X85810874Y-41389419D01*
X85929701Y-41309020D01*
X86058372Y-41241060D01*
X86196218Y-41186209D01*
X86342568Y-41145141D01*
X86342851Y-41145077D01*
X86356046Y-41142136D01*
X86368754Y-41139518D01*
X86381982Y-41137201D01*
X86396734Y-41135162D01*
X86414016Y-41133380D01*
X86434833Y-41131832D01*
X86460189Y-41130495D01*
X86491090Y-41129349D01*
X86528541Y-41128370D01*
X86573547Y-41127536D01*
X86627113Y-41126826D01*
X86690245Y-41126217D01*
X86763948Y-41125687D01*
X86849225Y-41125213D01*
X86947084Y-41124774D01*
X87058529Y-41124348D01*
X87184564Y-41123912D01*
X87326196Y-41123444D01*
X87395344Y-41123219D01*
X87537459Y-41122788D01*
X87664468Y-41122478D01*
X87777403Y-41122326D01*
X87877295Y-41122365D01*
G37*
G36*
X87380150Y-40370228D02*
G01*
X87526462Y-40370239D01*
X87665126Y-40370280D01*
X87789010Y-40370365D01*
X87899050Y-40370507D01*
X87996178Y-40370717D01*
X88081330Y-40371009D01*
X88155440Y-40371395D01*
X88219441Y-40371888D01*
X88274269Y-40372500D01*
X88320857Y-40373244D01*
X88360139Y-40374132D01*
X88393050Y-40375177D01*
X88420524Y-40376392D01*
X88443496Y-40377790D01*
X88462899Y-40379382D01*
X88479667Y-40381182D01*
X88494736Y-40383202D01*
X88509039Y-40385455D01*
X88586484Y-40399451D01*
X88724908Y-40430898D01*
X88854645Y-40469756D01*
X88980352Y-40517505D01*
X89106686Y-40575628D01*
X89199443Y-40624959D01*
X89350139Y-40719675D01*
X89491111Y-40827087D01*
X89621661Y-40946251D01*
X89741090Y-41076227D01*
X89848700Y-41216072D01*
X89943792Y-41364844D01*
X90025669Y-41521600D01*
X90093632Y-41685400D01*
X90146982Y-41855300D01*
X90185022Y-42030359D01*
X90187092Y-42042738D01*
X90191493Y-42070948D01*
X90195419Y-42099667D01*
X90198893Y-42129901D01*
X90201937Y-42162656D01*
X90204574Y-42198937D01*
X90206825Y-42239750D01*
X90208712Y-42286102D01*
X90210259Y-42338996D01*
X90211486Y-42399441D01*
X90212417Y-42468440D01*
X90213073Y-42547000D01*
X90213476Y-42636126D01*
X90213649Y-42736825D01*
X90213614Y-42850102D01*
X90213393Y-42976962D01*
X90213009Y-43118412D01*
X90212482Y-43275457D01*
X90212090Y-43384202D01*
X90211583Y-43518462D01*
X90211089Y-43637850D01*
X90210588Y-43743361D01*
X90210062Y-43835991D01*
X90209490Y-43916737D01*
X90208853Y-43986595D01*
X90208131Y-44046561D01*
X90207305Y-44097632D01*
X90206356Y-44140803D01*
X90205263Y-44177072D01*
X90204008Y-44207433D01*
X90202570Y-44232883D01*
X90200930Y-44254419D01*
X90199069Y-44273036D01*
X90196967Y-44289731D01*
X90194604Y-44305500D01*
X90191962Y-44321339D01*
X90180929Y-44381336D01*
X90137985Y-44563525D01*
X90082426Y-44735328D01*
X90013875Y-44897475D01*
X89931957Y-45050694D01*
X89836295Y-45195716D01*
X89726512Y-45333268D01*
X89602233Y-45464079D01*
X89535474Y-45526061D01*
X89394369Y-45640549D01*
X89245175Y-45740624D01*
X89088319Y-45826089D01*
X88924229Y-45896748D01*
X88753332Y-45952405D01*
X88576057Y-45992865D01*
X88392830Y-46017932D01*
X88390295Y-46018132D01*
X88368699Y-46019062D01*
X88331912Y-46019971D01*
X88281097Y-46020851D01*
X88217416Y-46021692D01*
X88142032Y-46022485D01*
X88056108Y-46023221D01*
X87960805Y-46023890D01*
X87857286Y-46024485D01*
X87746714Y-46024994D01*
X87630251Y-46025410D01*
X87509058Y-46025722D01*
X87384300Y-46025922D01*
X87266171Y-46026049D01*
X87121342Y-46026161D01*
X86991288Y-46026157D01*
X86874964Y-46025983D01*
X86771322Y-46025585D01*
X86679317Y-46024911D01*
X86597902Y-46023905D01*
X86526030Y-46022516D01*
X86462657Y-46020688D01*
X86406735Y-46018368D01*
X86357217Y-46015504D01*
X86313059Y-46012040D01*
X86273212Y-46007923D01*
X86236632Y-46003100D01*
X86202271Y-45997518D01*
X86169084Y-45991121D01*
X86136024Y-45983857D01*
X86102045Y-45975673D01*
X86066100Y-45966513D01*
X86027143Y-45956326D01*
X85963686Y-45938575D01*
X85798881Y-45881784D01*
X85642954Y-45812073D01*
X85497370Y-45730068D01*
X85434100Y-45688746D01*
X85286036Y-45578585D01*
X85150210Y-45457519D01*
X85027020Y-45326141D01*
X84916863Y-45185042D01*
X84820135Y-45034815D01*
X84737232Y-44876050D01*
X84668552Y-44709340D01*
X84614490Y-44535277D01*
X84575445Y-44354453D01*
X84569673Y-44318299D01*
X84564633Y-44280942D01*
X84560320Y-44241238D01*
X84556681Y-44197764D01*
X84553665Y-44149093D01*
X84551218Y-44093800D01*
X84549289Y-44030459D01*
X84547824Y-43957645D01*
X84546772Y-43873933D01*
X84546079Y-43777898D01*
X84545693Y-43668113D01*
X84545562Y-43543153D01*
X84545477Y-43005686D01*
X88073254Y-43005686D01*
X88073254Y-43395817D01*
X84943908Y-43395817D01*
X84944060Y-43775571D01*
X84944197Y-43864392D01*
X84944676Y-43953450D01*
X84945617Y-44029447D01*
X84947145Y-44094280D01*
X84949385Y-44149850D01*
X84952463Y-44198055D01*
X84956501Y-44240795D01*
X84961626Y-44279967D01*
X84967963Y-44317472D01*
X84975635Y-44355208D01*
X84984768Y-44395074D01*
X85023618Y-44530080D01*
X85080805Y-44676021D01*
X85151811Y-44816711D01*
X85235377Y-44949940D01*
X85330242Y-45073498D01*
X85435149Y-45185178D01*
X85544435Y-45281149D01*
X85674021Y-45374734D01*
X85812394Y-45454589D01*
X85959977Y-45520926D01*
X86117193Y-45573960D01*
X86284464Y-45613904D01*
X86284671Y-45613944D01*
X86299080Y-45616673D01*
X86313270Y-45619110D01*
X86328230Y-45621276D01*
X86344951Y-45623191D01*
X86364420Y-45624875D01*
X86387628Y-45626347D01*
X86415565Y-45627629D01*
X86449218Y-45628739D01*
X86489579Y-45629699D01*
X86537636Y-45630528D01*
X86594379Y-45631247D01*
X86660798Y-45631874D01*
X86737880Y-45632431D01*
X86826617Y-45632937D01*
X86927998Y-45633413D01*
X87043011Y-45633878D01*
X87172647Y-45634353D01*
X87317895Y-45634858D01*
X87401596Y-45635129D01*
X87559634Y-45635540D01*
X87701837Y-45635760D01*
X87828717Y-45635785D01*
X87940788Y-45635613D01*
X88038561Y-45635240D01*
X88122551Y-45634663D01*
X88193269Y-45633880D01*
X88251229Y-45632887D01*
X88296943Y-45631680D01*
X88330925Y-45630258D01*
X88353686Y-45628617D01*
X88397846Y-45623594D01*
X88561401Y-45594939D01*
X88718441Y-45551435D01*
X88868251Y-45493575D01*
X89010119Y-45421853D01*
X89143331Y-45336763D01*
X89267175Y-45238798D01*
X89380936Y-45128453D01*
X89483901Y-45006221D01*
X89575358Y-44872596D01*
X89654592Y-44728071D01*
X89688438Y-44655180D01*
X89730903Y-44549292D01*
X89763823Y-44444866D01*
X89788305Y-44337588D01*
X89805456Y-44223144D01*
X89816381Y-44097222D01*
X89817300Y-44078250D01*
X89818584Y-44036731D01*
X89819735Y-43981162D01*
X89820755Y-43913078D01*
X89821644Y-43834010D01*
X89822400Y-43745492D01*
X89823025Y-43649054D01*
X89823517Y-43546230D01*
X89823877Y-43438553D01*
X89824105Y-43327554D01*
X89824201Y-43214767D01*
X89824164Y-43101723D01*
X89823995Y-42989956D01*
X89823693Y-42880997D01*
X89823259Y-42776379D01*
X89822691Y-42677634D01*
X89821991Y-42586296D01*
X89821157Y-42503896D01*
X89820191Y-42431967D01*
X89819091Y-42372041D01*
X89817858Y-42325652D01*
X89816492Y-42294330D01*
X89814467Y-42264364D01*
X89799757Y-42126408D01*
X89776247Y-41998628D01*
X89742930Y-41877212D01*
X89698797Y-41758351D01*
X89642839Y-41638235D01*
X89627893Y-41609596D01*
X89543619Y-41468895D01*
X89447225Y-41339250D01*
X89339320Y-41221111D01*
X89220510Y-41114928D01*
X89091403Y-41021152D01*
X88952605Y-40940232D01*
X88804723Y-40872618D01*
X88648365Y-40818761D01*
X88484137Y-40779111D01*
X88482522Y-40778800D01*
X88468249Y-40776134D01*
X88454067Y-40773751D01*
X88438993Y-40771633D01*
X88422046Y-40769761D01*
X88402244Y-40768115D01*
X88378605Y-40766676D01*
X88350147Y-40765424D01*
X88315888Y-40764340D01*
X88274847Y-40763405D01*
X88226042Y-40762600D01*
X88168490Y-40761904D01*
X88101210Y-40761298D01*
X88023220Y-40760764D01*
X87933538Y-40760282D01*
X87831183Y-40759833D01*
X87715171Y-40759396D01*
X87584523Y-40758953D01*
X87438254Y-40758485D01*
X87327797Y-40758171D01*
X87169653Y-40757860D01*
X87025112Y-40757753D01*
X86894509Y-40757847D01*
X86778175Y-40758141D01*
X86676444Y-40758634D01*
X86589648Y-40759323D01*
X86518121Y-40760206D01*
X86462196Y-40761283D01*
X86422204Y-40762550D01*
X86398480Y-40764007D01*
X86319518Y-40773863D01*
X86161352Y-40805604D01*
X86008734Y-40852285D01*
X85862570Y-40913198D01*
X85723769Y-40987635D01*
X85593236Y-41074888D01*
X85471881Y-41174250D01*
X85360611Y-41285013D01*
X85260332Y-41406469D01*
X85171953Y-41537909D01*
X85096381Y-41678627D01*
X85034524Y-41827914D01*
X85020455Y-41868447D01*
X84996914Y-41943926D01*
X84978745Y-42015823D01*
X84965266Y-42088151D01*
X84955795Y-42164924D01*
X84949650Y-42250156D01*
X84946149Y-42347859D01*
X84941927Y-42532549D01*
X84556107Y-42532549D01*
X84550377Y-42418415D01*
X84549823Y-42406427D01*
X84550825Y-42249312D01*
X84566538Y-42088461D01*
X84596406Y-41926361D01*
X84639872Y-41765499D01*
X84696379Y-41608364D01*
X84765371Y-41457441D01*
X84828531Y-41343139D01*
X84927415Y-41193038D01*
X85038738Y-41053138D01*
X85161633Y-40924115D01*
X85295235Y-40806651D01*
X85438677Y-40701422D01*
X85591092Y-40609109D01*
X85751616Y-40530390D01*
X85919381Y-40465945D01*
X86093521Y-40416451D01*
X86109835Y-40412586D01*
X86136223Y-40406346D01*
X86160660Y-40400750D01*
X86184124Y-40395763D01*
X86207591Y-40391351D01*
X86232036Y-40387478D01*
X86258437Y-40384109D01*
X86287770Y-40381208D01*
X86321011Y-40378742D01*
X86359137Y-40376675D01*
X86403123Y-40374972D01*
X86453947Y-40373597D01*
X86512585Y-40372516D01*
X86580013Y-40371693D01*
X86657207Y-40371094D01*
X86745145Y-40370683D01*
X86844802Y-40370426D01*
X86957154Y-40370287D01*
X87083179Y-40370231D01*
X87223852Y-40370223D01*
X87380150Y-40370228D01*
G37*
%LPC*%
D15*
X86359998Y-49403001D03*
X45719998Y-49403001D03*
D16*
X58420000Y-43180000D03*
D17*
X60960000Y-43180000D03*
X63500000Y-43180000D03*
X66040000Y-43180000D03*
X68580000Y-43180000D03*
X71120000Y-43180000D03*
X73660000Y-43180000D03*
X73660000Y-33020000D03*
X71120000Y-33020000D03*
X68580000Y-33020000D03*
X66040000Y-33020000D03*
X63500000Y-33020000D03*
X60960000Y-33020000D03*
X58420000Y-33020000D03*
D18*
X60960000Y-36576000D03*
D19*
X50800000Y-36576000D03*
D20*
X42418000Y-35687000D03*
D21*
X42418000Y-38227000D03*
D22*
X86784409Y-34163000D03*
D23*
X88784409Y-34163000D03*
D24*
X80015000Y-46980000D03*
D19*
X77475000Y-46980000D03*
X74935000Y-46980000D03*
X72395000Y-46980000D03*
X69855000Y-46980000D03*
X67315000Y-46980000D03*
X64775000Y-46980000D03*
X62235000Y-46980000D03*
X59695000Y-46980000D03*
X57155000Y-46980000D03*
X54615000Y-46980000D03*
X52075000Y-46980000D03*
X52075000Y-39360000D03*
X54615000Y-39360000D03*
X57155000Y-39360000D03*
X59695000Y-39360000D03*
X62235000Y-39360000D03*
X64775000Y-39360000D03*
X67315000Y-39360000D03*
X69855000Y-39360000D03*
X72395000Y-39360000D03*
X74935000Y-39360000D03*
X77475000Y-39360000D03*
X80015000Y-39360000D03*
D25*
X48982000Y-30226000D03*
X43982000Y-30226000D03*
D26*
X85940500Y-30226000D03*
X89065500Y-30226000D03*
D27*
X73660000Y-50800000D03*
D28*
X71120000Y-50800000D03*
X68580000Y-50800000D03*
X66040000Y-50800000D03*
X63500000Y-50800000D03*
X60960000Y-50800000D03*
D29*
X48768000Y-43830000D03*
D30*
X48768000Y-42530000D03*
D31*
X44577000Y-35204400D03*
D32*
X44577000Y-38777000D03*
M02*
