M48
; DRILL file {KiCad (5.99.0-12936-g328d3d0d77)} date Sun Oct 24 19:14:53 2021
; FORMAT={-:-/ absolute / inch / decimal}
; #@! TF.CreationDate,2021-10-24T19:14:53+02:00
; #@! TF.GenerationSoftware,Kicad,Pcbnew,(5.99.0-12936-g328d3d0d77)
; #@! TF.FileFunction,Plated,1,2,PTH
FMAT,2
INCH
; #@! TA.AperFunction,Plated,PTH,ViaDrill
T1C0.0200
; #@! TA.AperFunction,Plated,PTH,ComponentDrill
T2C0.0236
; #@! TA.AperFunction,Plated,PTH,ComponentDrill
T3C0.0315
; #@! TA.AperFunction,Plated,PTH,ComponentDrill
T4C0.0315
; #@! TA.AperFunction,Plated,PTH,ComponentDrill
T5C0.0340
; #@! TA.AperFunction,Plated,PTH,ComponentDrill
T6C0.0354
%
G90
G05
T1
X2.01Y-1.295
X2.02Y-2.0
X2.15Y-1.635
X3.115Y-1.745
X3.26Y-1.275
T2
X3.4167Y-1.345
X3.4954Y-1.345
T3
X2.0Y-1.44
X2.0502Y-1.5496
X2.0502Y-1.8496
X2.1502Y-1.5496
X2.1502Y-1.8496
X2.2502Y-1.5496
X2.2502Y-1.8496
X2.3502Y-1.5496
X2.3502Y-1.8496
X2.4Y-1.44
X2.4502Y-1.5496
X2.4502Y-1.8496
X2.5502Y-1.5496
X2.5502Y-1.8496
X2.6502Y-1.5496
X2.6502Y-1.8496
X2.7502Y-1.5496
X2.7502Y-1.8496
X2.8502Y-1.5496
X2.8502Y-1.8496
X2.9502Y-1.5496
X2.9502Y-1.8496
X3.0502Y-1.5496
X3.0502Y-1.8496
X3.1502Y-1.5496
X3.1502Y-1.8496
T4
X2.3Y-1.3
X2.3Y-1.7
X2.4Y-1.3
X2.4Y-1.7
X2.5Y-1.3
X2.5Y-1.7
X2.6Y-1.3
X2.6Y-1.7
X2.7Y-1.3
X2.7Y-1.7
X2.8Y-1.3
X2.8Y-1.7
X2.9Y-1.3
X2.9Y-1.7
T5
X1.67Y-1.405
X1.67Y-1.505
X2.4Y-2.0
X2.5Y-2.0
X2.6Y-2.0
X2.7Y-2.0
X2.8Y-2.0
X2.9Y-2.0
T6
X1.755Y-1.386
T6
G00X1.755Y-1.5198
M15
G01X1.755Y-1.5335
M16
G05
T0
M30
