G04 #@! TF.GenerationSoftware,KiCad,Pcbnew,(5.99.0-12936-g328d3d0d77)*
G04 #@! TF.CreationDate,2021-10-24T19:14:53+02:00*
G04 #@! TF.ProjectId,FSP-Display6S,4653502d-4469-4737-906c-617936532e6b,v1.0*
G04 #@! TF.SameCoordinates,Original*
G04 #@! TF.FileFunction,Copper,L1,Top*
G04 #@! TF.FilePolarity,Positive*
%FSLAX46Y46*%
G04 Gerber Fmt 4.6, Leading zero omitted, Abs format (unit mm)*
G04 Created by KiCad (PCBNEW (5.99.0-12936-g328d3d0d77)) date 2021-10-24 19:14:53*
%MOMM*%
%LPD*%
G01*
G04 APERTURE LIST*
G04 #@! TA.AperFunction,ComponentPad*
%ADD10R,1.501140X2.199640*%
G04 #@! TD*
G04 #@! TA.AperFunction,ComponentPad*
%ADD11O,1.501140X2.199640*%
G04 #@! TD*
G04 #@! TA.AperFunction,ComponentPad*
%ADD12C,1.600000*%
G04 #@! TD*
G04 #@! TA.AperFunction,ComponentPad*
%ADD13O,1.600000X1.600000*%
G04 #@! TD*
G04 #@! TA.AperFunction,ComponentPad*
%ADD14R,1.778000X1.778000*%
G04 #@! TD*
G04 #@! TA.AperFunction,ComponentPad*
%ADD15O,1.778000X1.778000*%
G04 #@! TD*
G04 #@! TA.AperFunction,ComponentPad*
%ADD16R,1.200000X1.200000*%
G04 #@! TD*
G04 #@! TA.AperFunction,ComponentPad*
%ADD17C,1.200000*%
G04 #@! TD*
G04 #@! TA.AperFunction,ComponentPad*
%ADD18R,1.600000X1.600000*%
G04 #@! TD*
G04 #@! TA.AperFunction,ComponentPad*
%ADD19R,1.700000X1.700000*%
G04 #@! TD*
G04 #@! TA.AperFunction,ComponentPad*
%ADD20O,1.700000X1.700000*%
G04 #@! TD*
G04 #@! TA.AperFunction,ComponentPad*
%ADD21R,2.032000X2.032000*%
G04 #@! TD*
G04 #@! TA.AperFunction,ComponentPad*
%ADD22O,2.032000X2.540000*%
G04 #@! TD*
G04 #@! TA.AperFunction,ViaPad*
%ADD23C,1.016000*%
G04 #@! TD*
G04 #@! TA.AperFunction,ViaPad*
%ADD24C,1.270000*%
G04 #@! TD*
G04 #@! TA.AperFunction,Conductor*
%ADD25C,0.381000*%
G04 #@! TD*
G04 #@! TA.AperFunction,Conductor*
%ADD26C,0.635000*%
G04 #@! TD*
G04 APERTURE END LIST*
D10*
X58420000Y-43180000D03*
D11*
X60960000Y-43180000D03*
X63500000Y-43180000D03*
X66040000Y-43180000D03*
X68580000Y-43180000D03*
X71120000Y-43180000D03*
X73660000Y-43180000D03*
X73660000Y-33020000D03*
X71120000Y-33020000D03*
X68580000Y-33020000D03*
X66040000Y-33020000D03*
X63500000Y-33020000D03*
X60960000Y-33020000D03*
X58420000Y-33020000D03*
D12*
X60960000Y-36576000D03*
D13*
X50800000Y-36576000D03*
D14*
X42418000Y-35687000D03*
D15*
X42418000Y-38227000D03*
D16*
X86784409Y-34163000D03*
D17*
X88784409Y-34163000D03*
D18*
X80015000Y-46980000D03*
D13*
X77475000Y-46980000D03*
X74935000Y-46980000D03*
X72395000Y-46980000D03*
X69855000Y-46980000D03*
X67315000Y-46980000D03*
X64775000Y-46980000D03*
X62235000Y-46980000D03*
X59695000Y-46980000D03*
X57155000Y-46980000D03*
X54615000Y-46980000D03*
X52075000Y-46980000D03*
X52075000Y-39360000D03*
X54615000Y-39360000D03*
X57155000Y-39360000D03*
X59695000Y-39360000D03*
X62235000Y-39360000D03*
X64775000Y-39360000D03*
X67315000Y-39360000D03*
X69855000Y-39360000D03*
X72395000Y-39360000D03*
X74935000Y-39360000D03*
X77475000Y-39360000D03*
X80015000Y-39360000D03*
D19*
X73660000Y-50800000D03*
D20*
X71120000Y-50800000D03*
X68580000Y-50800000D03*
X66040000Y-50800000D03*
X63500000Y-50800000D03*
X60960000Y-50800000D03*
D21*
X44577000Y-35204400D03*
D22*
X44577000Y-38777000D03*
D23*
X54610000Y-41529000D03*
X79121000Y-44323000D03*
X51054000Y-32893000D03*
X82804000Y-32385000D03*
D24*
X51308000Y-50800000D03*
D25*
X73660000Y-33020000D02*
X73660000Y-40513000D01*
X75565000Y-42418000D02*
X75565000Y-45070000D01*
X73660000Y-40513000D02*
X75565000Y-42418000D01*
X75565000Y-45070000D02*
X77475000Y-46980000D01*
X70358000Y-41148000D02*
X71120000Y-40386000D01*
X54610000Y-41529000D02*
X55753000Y-41529000D01*
X55753000Y-41529000D02*
X56134000Y-41148000D01*
X71120000Y-40386000D02*
X71120000Y-33020000D01*
X56134000Y-41148000D02*
X70358000Y-41148000D01*
X73279000Y-45339000D02*
X61595000Y-45339000D01*
X61595000Y-45339000D02*
X60960000Y-44704000D01*
X60960000Y-44704000D02*
X60960000Y-43180000D01*
X74920000Y-46980000D02*
X73279000Y-45339000D01*
D26*
X72395000Y-48265000D02*
X72395000Y-46980000D01*
X59680000Y-46980000D02*
X57912000Y-45212000D01*
X88784401Y-39993599D02*
X88784401Y-34163000D01*
X79502000Y-50800000D02*
X82042000Y-48260000D01*
X57912000Y-45212000D02*
X53848000Y-45212000D01*
X82042000Y-48260000D02*
X82042000Y-46736000D01*
X73660000Y-50800000D02*
X73660000Y-49530000D01*
X47413000Y-38777000D02*
X44577000Y-38777000D01*
X53848000Y-45212000D02*
X47413000Y-38777000D01*
X82042000Y-46736000D02*
X88784401Y-39993599D01*
X73660000Y-49530000D02*
X72395000Y-48265000D01*
X73660000Y-50800000D02*
X79502000Y-50800000D01*
D25*
X61991001Y-36576001D02*
X64775000Y-39360000D01*
X60959998Y-36576001D02*
X61991001Y-36576001D01*
D26*
X69342000Y-49022000D02*
X59690000Y-49022000D01*
X59690000Y-49022000D02*
X57912000Y-50800000D01*
X71120000Y-50800000D02*
X69342000Y-49022000D01*
X57912000Y-50800000D02*
X51308000Y-50800000D01*
G04 #@! TA.AperFunction,Conductor*
G36*
X90013819Y-28848258D02*
G01*
X90095898Y-28903102D01*
X90150742Y-28985181D01*
X90170000Y-29082000D01*
X90170000Y-33297792D01*
X90150742Y-33394611D01*
X90095898Y-33476690D01*
X90013819Y-33531534D01*
X89917000Y-33550792D01*
X89884008Y-33544601D01*
X89857148Y-33545184D01*
X89846596Y-33549826D01*
X89251041Y-34145381D01*
X89239268Y-34163000D01*
X89251041Y-34180619D01*
X89838458Y-34768036D01*
X89857103Y-34780494D01*
X89867643Y-34778398D01*
X89966359Y-34778399D01*
X90057560Y-34816176D01*
X90127363Y-34885979D01*
X90165139Y-34977180D01*
X90170000Y-35026537D01*
X90170000Y-51309000D01*
X90150742Y-51405819D01*
X90095898Y-51487898D01*
X90013819Y-51542742D01*
X89917000Y-51562000D01*
X88153433Y-51562000D01*
X88056614Y-51542742D01*
X87974535Y-51487898D01*
X87919691Y-51405819D01*
X87900433Y-51309000D01*
X87919691Y-51212181D01*
X87974535Y-51130102D01*
X87986618Y-51118785D01*
X88027895Y-51082586D01*
X88034122Y-51077125D01*
X88115087Y-50984802D01*
X88232857Y-50850512D01*
X88232858Y-50850511D01*
X88238317Y-50844286D01*
X88242913Y-50837407D01*
X88242918Y-50837401D01*
X88405771Y-50593673D01*
X88405774Y-50593669D01*
X88410373Y-50586785D01*
X88474486Y-50456776D01*
X88543685Y-50316456D01*
X88543686Y-50316455D01*
X88547347Y-50309030D01*
X88615808Y-50107350D01*
X88644231Y-50023619D01*
X88644232Y-50023614D01*
X88646894Y-50015773D01*
X88707312Y-49712031D01*
X88709274Y-49682108D01*
X88727025Y-49411270D01*
X88727567Y-49403001D01*
X88725011Y-49364004D01*
X88707854Y-49102234D01*
X88707853Y-49102228D01*
X88707312Y-49093971D01*
X88646894Y-48790229D01*
X88562573Y-48541825D01*
X88550010Y-48504816D01*
X88550008Y-48504812D01*
X88547347Y-48496972D01*
X88487154Y-48374912D01*
X88421384Y-48241546D01*
X88410373Y-48219217D01*
X88404752Y-48210804D01*
X88242918Y-47968601D01*
X88242913Y-47968595D01*
X88238317Y-47961716D01*
X88221027Y-47942000D01*
X88039583Y-47735104D01*
X88034122Y-47728877D01*
X87801283Y-47524682D01*
X87543783Y-47352626D01*
X87285358Y-47225185D01*
X87273453Y-47219314D01*
X87273452Y-47219314D01*
X87266027Y-47215652D01*
X87258187Y-47212991D01*
X87258183Y-47212989D01*
X86980616Y-47118768D01*
X86980611Y-47118767D01*
X86972770Y-47116105D01*
X86669028Y-47055687D01*
X86660771Y-47055146D01*
X86660765Y-47055145D01*
X86368267Y-47035974D01*
X86359998Y-47035432D01*
X86351729Y-47035974D01*
X86059231Y-47055145D01*
X86059225Y-47055146D01*
X86050968Y-47055687D01*
X85747226Y-47116105D01*
X85739385Y-47118767D01*
X85739380Y-47118768D01*
X85461813Y-47212989D01*
X85461809Y-47212991D01*
X85453969Y-47215652D01*
X85176214Y-47352626D01*
X85169330Y-47357225D01*
X85169326Y-47357228D01*
X84925598Y-47520081D01*
X84925592Y-47520086D01*
X84918713Y-47524682D01*
X84685874Y-47728877D01*
X84680413Y-47735104D01*
X84498970Y-47942000D01*
X84481679Y-47961716D01*
X84477083Y-47968595D01*
X84477078Y-47968601D01*
X84315244Y-48210804D01*
X84309623Y-48219217D01*
X84298612Y-48241546D01*
X84232843Y-48374912D01*
X84172649Y-48496972D01*
X84169988Y-48504812D01*
X84169986Y-48504816D01*
X84157424Y-48541825D01*
X84073102Y-48790229D01*
X84012684Y-49093971D01*
X84012143Y-49102228D01*
X84012142Y-49102234D01*
X83994985Y-49364004D01*
X83992429Y-49403001D01*
X83992971Y-49411270D01*
X84010723Y-49682108D01*
X84012684Y-49712031D01*
X84073102Y-50015773D01*
X84075764Y-50023614D01*
X84075765Y-50023619D01*
X84104188Y-50107350D01*
X84172649Y-50309030D01*
X84176310Y-50316455D01*
X84176311Y-50316456D01*
X84245510Y-50456776D01*
X84309623Y-50586785D01*
X84314222Y-50593669D01*
X84314225Y-50593673D01*
X84477078Y-50837401D01*
X84477083Y-50837407D01*
X84481679Y-50844286D01*
X84487138Y-50850511D01*
X84487139Y-50850512D01*
X84604909Y-50984802D01*
X84685874Y-51077125D01*
X84692101Y-51082586D01*
X84733378Y-51118785D01*
X84793472Y-51197101D01*
X84819021Y-51292453D01*
X84806136Y-51390324D01*
X84756778Y-51475815D01*
X84678462Y-51535909D01*
X84583110Y-51561458D01*
X84566563Y-51562000D01*
X75398000Y-51562000D01*
X75301181Y-51542742D01*
X75219102Y-51487898D01*
X75164258Y-51405819D01*
X75145000Y-51309000D01*
X75145000Y-51142418D01*
X75140866Y-51121634D01*
X75120082Y-51117500D01*
X73595500Y-51117500D01*
X73498681Y-51098242D01*
X73416602Y-51043398D01*
X73361758Y-50961319D01*
X73342500Y-50864500D01*
X73342500Y-50457582D01*
X73977500Y-50457582D01*
X73981634Y-50478366D01*
X74002418Y-50482500D01*
X75120082Y-50482500D01*
X75140866Y-50478366D01*
X75145000Y-50457582D01*
X75145000Y-49890844D01*
X75144610Y-49880915D01*
X75143181Y-49862762D01*
X75138560Y-49837461D01*
X75101847Y-49711093D01*
X75089305Y-49682108D01*
X75023837Y-49571409D01*
X75004482Y-49546457D01*
X74913543Y-49455518D01*
X74888591Y-49436163D01*
X74777892Y-49370695D01*
X74748907Y-49358153D01*
X74622539Y-49321440D01*
X74597238Y-49316819D01*
X74579085Y-49315390D01*
X74569156Y-49315000D01*
X74002418Y-49315000D01*
X73981634Y-49319134D01*
X73977500Y-49339918D01*
X73977500Y-50457582D01*
X73342500Y-50457582D01*
X73342500Y-49339918D01*
X73338366Y-49319134D01*
X73317582Y-49315000D01*
X72750844Y-49315000D01*
X72740915Y-49315390D01*
X72722762Y-49316819D01*
X72697461Y-49321440D01*
X72571093Y-49358153D01*
X72542108Y-49370695D01*
X72431409Y-49436163D01*
X72406457Y-49455518D01*
X72396619Y-49465356D01*
X72314540Y-49520200D01*
X72217721Y-49539458D01*
X72120902Y-49520200D01*
X72073036Y-49493392D01*
X72070734Y-49491426D01*
X72062258Y-49486232D01*
X72062254Y-49486229D01*
X71862800Y-49364004D01*
X71854323Y-49358809D01*
X71808717Y-49339918D01*
X71629017Y-49265484D01*
X71619831Y-49261679D01*
X71373031Y-49202428D01*
X71120000Y-49182514D01*
X71120178Y-49180258D01*
X71038622Y-49164036D01*
X70956543Y-49109192D01*
X70580998Y-48733647D01*
X70526154Y-48651568D01*
X70506896Y-48554749D01*
X70526154Y-48457930D01*
X70580998Y-48375851D01*
X70627703Y-48339032D01*
X70767777Y-48253194D01*
X70767783Y-48253190D01*
X70776255Y-48247998D01*
X70783805Y-48241549D01*
X70783810Y-48241546D01*
X70955719Y-48094721D01*
X70963271Y-48088271D01*
X70969721Y-48080719D01*
X70969727Y-48080713D01*
X71018135Y-48024034D01*
X71095658Y-47962920D01*
X71190667Y-47936124D01*
X71288698Y-47947726D01*
X71374828Y-47995961D01*
X71387530Y-48007580D01*
X71395529Y-48015413D01*
X71561107Y-48152878D01*
X71578064Y-48164752D01*
X71763865Y-48273325D01*
X71782533Y-48282269D01*
X71983577Y-48359040D01*
X72003449Y-48364814D01*
X72053081Y-48374912D01*
X72074274Y-48375004D01*
X72077482Y-48367353D01*
X72077500Y-48367176D01*
X72077500Y-46915500D01*
X72096758Y-46818681D01*
X72151602Y-46736602D01*
X72233681Y-46681758D01*
X72330500Y-46662500D01*
X72459500Y-46662500D01*
X72556319Y-46681758D01*
X72638398Y-46736602D01*
X72693242Y-46818681D01*
X72712500Y-46915500D01*
X72712500Y-48358097D01*
X72716634Y-48378881D01*
X72718996Y-48379351D01*
X72730190Y-48377708D01*
X72910447Y-48323628D01*
X72929719Y-48316075D01*
X73122977Y-48221399D01*
X73140751Y-48210804D01*
X73315955Y-48085832D01*
X73331760Y-48072475D01*
X73398334Y-48006134D01*
X73480509Y-47951434D01*
X73577361Y-47932344D01*
X73674146Y-47951772D01*
X73756129Y-48006759D01*
X73769301Y-48021033D01*
X73820272Y-48080712D01*
X73820279Y-48080719D01*
X73826729Y-48088271D01*
X73834281Y-48094721D01*
X74006190Y-48241546D01*
X74006195Y-48241549D01*
X74013745Y-48247998D01*
X74223446Y-48376503D01*
X74450668Y-48470621D01*
X74460333Y-48472941D01*
X74460338Y-48472943D01*
X74560426Y-48496972D01*
X74689815Y-48528036D01*
X74935000Y-48547332D01*
X75180185Y-48528036D01*
X75309574Y-48496972D01*
X75409662Y-48472943D01*
X75409667Y-48472941D01*
X75419332Y-48470621D01*
X75646554Y-48376503D01*
X75856255Y-48247998D01*
X75863813Y-48241543D01*
X75863817Y-48241540D01*
X76040689Y-48090477D01*
X76126818Y-48042242D01*
X76224850Y-48030639D01*
X76319859Y-48057434D01*
X76369311Y-48090477D01*
X76546183Y-48241540D01*
X76546187Y-48241543D01*
X76553745Y-48247998D01*
X76763446Y-48376503D01*
X76990668Y-48470621D01*
X77000333Y-48472941D01*
X77000338Y-48472943D01*
X77100426Y-48496972D01*
X77229815Y-48528036D01*
X77475000Y-48547332D01*
X77720185Y-48528036D01*
X77849574Y-48496972D01*
X77949662Y-48472943D01*
X77949667Y-48472941D01*
X77959332Y-48470621D01*
X78186554Y-48376503D01*
X78195159Y-48371230D01*
X78355383Y-48273045D01*
X78447998Y-48238878D01*
X78546637Y-48242754D01*
X78636285Y-48284082D01*
X78666317Y-48309709D01*
X78739201Y-48382466D01*
X78751705Y-48390174D01*
X78751707Y-48390175D01*
X78878054Y-48468056D01*
X78878059Y-48468058D01*
X78890560Y-48475764D01*
X79059322Y-48531741D01*
X79164334Y-48542500D01*
X80865666Y-48542500D01*
X80872172Y-48541825D01*
X80958219Y-48532897D01*
X80958220Y-48532897D01*
X80971990Y-48531468D01*
X80985120Y-48527087D01*
X80985122Y-48527087D01*
X81097645Y-48489546D01*
X81140654Y-48475197D01*
X81291850Y-48381634D01*
X81417466Y-48255799D01*
X81426252Y-48241546D01*
X81503056Y-48116946D01*
X81503058Y-48116941D01*
X81510764Y-48104440D01*
X81566741Y-47935678D01*
X81577500Y-47830666D01*
X81577500Y-46129334D01*
X81566468Y-46023010D01*
X81510197Y-45854346D01*
X81426108Y-45718460D01*
X81424370Y-45715651D01*
X81424369Y-45715650D01*
X81416634Y-45703150D01*
X81290799Y-45577534D01*
X81267730Y-45563314D01*
X81151946Y-45491944D01*
X81151941Y-45491942D01*
X81139440Y-45484236D01*
X80970678Y-45428259D01*
X80865666Y-45417500D01*
X79164334Y-45417500D01*
X79157829Y-45418175D01*
X79157828Y-45418175D01*
X79071781Y-45427103D01*
X79071780Y-45427103D01*
X79058010Y-45428532D01*
X79044880Y-45432913D01*
X79044878Y-45432913D01*
X79040763Y-45434286D01*
X78889346Y-45484803D01*
X78738150Y-45578366D01*
X78714835Y-45601722D01*
X78666649Y-45649992D01*
X78584618Y-45704907D01*
X78487816Y-45724250D01*
X78390980Y-45705076D01*
X78355403Y-45686968D01*
X78307133Y-45657388D01*
X78186554Y-45583497D01*
X77959332Y-45489379D01*
X77949667Y-45487059D01*
X77949662Y-45487057D01*
X77793071Y-45449463D01*
X77720185Y-45431964D01*
X77475000Y-45412668D01*
X77387709Y-45419538D01*
X77289678Y-45407935D01*
X77203549Y-45359701D01*
X77188961Y-45346216D01*
X76592102Y-44749357D01*
X76537258Y-44667278D01*
X76518000Y-44570459D01*
X76518000Y-42435219D01*
X76518099Y-42428156D01*
X76519984Y-42360658D01*
X76520342Y-42347844D01*
X76511213Y-42296068D01*
X76508664Y-42277700D01*
X76504646Y-42238138D01*
X76504645Y-42238133D01*
X76503350Y-42225384D01*
X76499516Y-42213150D01*
X76499515Y-42213145D01*
X76497722Y-42207422D01*
X76489990Y-42175705D01*
X76488949Y-42169802D01*
X76488948Y-42169799D01*
X76486723Y-42157179D01*
X76467372Y-42108303D01*
X76461184Y-42090829D01*
X76449290Y-42052876D01*
X76449288Y-42052871D01*
X76445454Y-42040637D01*
X76436333Y-42024182D01*
X76422379Y-41994662D01*
X76420174Y-41989093D01*
X76420172Y-41989088D01*
X76415452Y-41977168D01*
X76386666Y-41933179D01*
X76377089Y-41917303D01*
X76357804Y-41882512D01*
X76357800Y-41882506D01*
X76351591Y-41871305D01*
X76339343Y-41857015D01*
X76319740Y-41830906D01*
X76314755Y-41823288D01*
X76314752Y-41823285D01*
X76309439Y-41815165D01*
X76305183Y-41810437D01*
X76271736Y-41776990D01*
X76258538Y-41762738D01*
X76233935Y-41734033D01*
X76233934Y-41734032D01*
X76225597Y-41724305D01*
X76208991Y-41711424D01*
X76185159Y-41690413D01*
X75915184Y-41420438D01*
X75628379Y-41133634D01*
X75573537Y-41051556D01*
X75554278Y-40954737D01*
X75573536Y-40857918D01*
X75628380Y-40775839D01*
X75675085Y-40739019D01*
X75723714Y-40709219D01*
X75856255Y-40627998D01*
X75863813Y-40621543D01*
X75863817Y-40621540D01*
X76040689Y-40470477D01*
X76126818Y-40422242D01*
X76224850Y-40410639D01*
X76319859Y-40437434D01*
X76369311Y-40470477D01*
X76546183Y-40621540D01*
X76546187Y-40621543D01*
X76553745Y-40627998D01*
X76763446Y-40756503D01*
X76990668Y-40850621D01*
X77000333Y-40852941D01*
X77000338Y-40852943D01*
X77122510Y-40882274D01*
X77229815Y-40908036D01*
X77475000Y-40927332D01*
X77720185Y-40908036D01*
X77827490Y-40882274D01*
X77949662Y-40852943D01*
X77949667Y-40852941D01*
X77959332Y-40850621D01*
X78186554Y-40756503D01*
X78396255Y-40627998D01*
X78403813Y-40621543D01*
X78403817Y-40621540D01*
X78580689Y-40470477D01*
X78666818Y-40422242D01*
X78764850Y-40410639D01*
X78859859Y-40437434D01*
X78909311Y-40470477D01*
X79086183Y-40621540D01*
X79086187Y-40621543D01*
X79093745Y-40627998D01*
X79303446Y-40756503D01*
X79530668Y-40850621D01*
X79540333Y-40852941D01*
X79540338Y-40852943D01*
X79662510Y-40882274D01*
X79769815Y-40908036D01*
X80015000Y-40927332D01*
X80260185Y-40908036D01*
X80367490Y-40882274D01*
X80489662Y-40852943D01*
X80489667Y-40852941D01*
X80499332Y-40850621D01*
X80726554Y-40756503D01*
X80936255Y-40627998D01*
X80943805Y-40621549D01*
X80943810Y-40621546D01*
X81115719Y-40474721D01*
X81123271Y-40468271D01*
X81162584Y-40422242D01*
X81276546Y-40288810D01*
X81276549Y-40288805D01*
X81282998Y-40281255D01*
X81411503Y-40071554D01*
X81505621Y-39844332D01*
X81563036Y-39605185D01*
X81582332Y-39360000D01*
X81563036Y-39114815D01*
X81505621Y-38875668D01*
X81411503Y-38648446D01*
X81282998Y-38438745D01*
X81276549Y-38431195D01*
X81276546Y-38431190D01*
X81129721Y-38259281D01*
X81123271Y-38251729D01*
X81108113Y-38238783D01*
X80943810Y-38098454D01*
X80943805Y-38098451D01*
X80936255Y-38092002D01*
X80726554Y-37963497D01*
X80499332Y-37869379D01*
X80489667Y-37867059D01*
X80489662Y-37867057D01*
X80333071Y-37829463D01*
X80260185Y-37811964D01*
X80015000Y-37792668D01*
X79769815Y-37811964D01*
X79696929Y-37829463D01*
X79540338Y-37867057D01*
X79540333Y-37867059D01*
X79530668Y-37869379D01*
X79303446Y-37963497D01*
X79093745Y-38092002D01*
X79086191Y-38098454D01*
X79086183Y-38098460D01*
X78909311Y-38249523D01*
X78823182Y-38297758D01*
X78725150Y-38309361D01*
X78630141Y-38282566D01*
X78580689Y-38249523D01*
X78403817Y-38098460D01*
X78403809Y-38098454D01*
X78396255Y-38092002D01*
X78186554Y-37963497D01*
X77959332Y-37869379D01*
X77949667Y-37867059D01*
X77949662Y-37867057D01*
X77793071Y-37829463D01*
X77720185Y-37811964D01*
X77475000Y-37792668D01*
X77229815Y-37811964D01*
X77156929Y-37829463D01*
X77000338Y-37867057D01*
X77000333Y-37867059D01*
X76990668Y-37869379D01*
X76763446Y-37963497D01*
X76553745Y-38092002D01*
X76546191Y-38098454D01*
X76546183Y-38098460D01*
X76369311Y-38249523D01*
X76283182Y-38297758D01*
X76185150Y-38309361D01*
X76090141Y-38282566D01*
X76040689Y-38249523D01*
X75863817Y-38098460D01*
X75863809Y-38098454D01*
X75856255Y-38092002D01*
X75646554Y-37963497D01*
X75419332Y-37869379D01*
X75409667Y-37867059D01*
X75409662Y-37867057D01*
X75253071Y-37829463D01*
X75180185Y-37811964D01*
X74935000Y-37792668D01*
X74925089Y-37793448D01*
X74925088Y-37793448D01*
X74885849Y-37796536D01*
X74787818Y-37784933D01*
X74701689Y-37736698D01*
X74640575Y-37659175D01*
X74613780Y-37564165D01*
X74613000Y-37544316D01*
X74613000Y-34813666D01*
X85421909Y-34813666D01*
X85422584Y-34820171D01*
X85422584Y-34820172D01*
X85428086Y-34873194D01*
X85432941Y-34919990D01*
X85437322Y-34933120D01*
X85437322Y-34933122D01*
X85452021Y-34977180D01*
X85489212Y-35088654D01*
X85582775Y-35239850D01*
X85708610Y-35365466D01*
X85721114Y-35373174D01*
X85721116Y-35373175D01*
X85847463Y-35451056D01*
X85847468Y-35451058D01*
X85859969Y-35458764D01*
X86028731Y-35514741D01*
X86133743Y-35525500D01*
X87435075Y-35525500D01*
X87441581Y-35524825D01*
X87527628Y-35515897D01*
X87527629Y-35515897D01*
X87541399Y-35514468D01*
X87554529Y-35510087D01*
X87554531Y-35510087D01*
X87681492Y-35467729D01*
X87710063Y-35458197D01*
X87861259Y-35364634D01*
X87871644Y-35354231D01*
X87871649Y-35354227D01*
X87919518Y-35306274D01*
X88001549Y-35251358D01*
X88098351Y-35232015D01*
X88195186Y-35251189D01*
X88205495Y-35255719D01*
X88350395Y-35323287D01*
X88371069Y-35330811D01*
X88558465Y-35381024D01*
X88580138Y-35384846D01*
X88773402Y-35401754D01*
X88795416Y-35401754D01*
X88988680Y-35384846D01*
X89010353Y-35381024D01*
X89197749Y-35330811D01*
X89218423Y-35323287D01*
X89393778Y-35241518D01*
X89401306Y-35233653D01*
X89397579Y-35225183D01*
X88514294Y-34341898D01*
X88459450Y-34259819D01*
X88440192Y-34163000D01*
X88459450Y-34066181D01*
X88514294Y-33984102D01*
X89389445Y-33108951D01*
X89401218Y-33091332D01*
X89398382Y-33087087D01*
X89394257Y-33084706D01*
X89218423Y-33002713D01*
X89197749Y-32995189D01*
X89010353Y-32944976D01*
X88988680Y-32941154D01*
X88795416Y-32924246D01*
X88773402Y-32924246D01*
X88580138Y-32941154D01*
X88558465Y-32944976D01*
X88371069Y-32995189D01*
X88350390Y-33002715D01*
X88205485Y-33070285D01*
X88109599Y-33093748D01*
X88012032Y-33078731D01*
X87927639Y-33027520D01*
X87919821Y-33020043D01*
X87884261Y-32984545D01*
X87860208Y-32960534D01*
X87847702Y-32952825D01*
X87721355Y-32874944D01*
X87721350Y-32874942D01*
X87708849Y-32867236D01*
X87540087Y-32811259D01*
X87435075Y-32800500D01*
X86133743Y-32800500D01*
X86127238Y-32801175D01*
X86127237Y-32801175D01*
X86041190Y-32810103D01*
X86041189Y-32810103D01*
X86027419Y-32811532D01*
X86014289Y-32815913D01*
X86014287Y-32815913D01*
X85921455Y-32846884D01*
X85858755Y-32867803D01*
X85707559Y-32961366D01*
X85581943Y-33087201D01*
X85574235Y-33099705D01*
X85574234Y-33099707D01*
X85496353Y-33226054D01*
X85496351Y-33226059D01*
X85488645Y-33238560D01*
X85432668Y-33407322D01*
X85421909Y-33512334D01*
X85421909Y-34813666D01*
X74613000Y-34813666D01*
X74613000Y-34659516D01*
X74632258Y-34562697D01*
X74692167Y-34475693D01*
X74692544Y-34475337D01*
X74788088Y-34384985D01*
X74935973Y-34191559D01*
X75051031Y-33976977D01*
X75056396Y-33961398D01*
X75126991Y-33756371D01*
X75130301Y-33746759D01*
X75171745Y-33506830D01*
X75172390Y-33492636D01*
X75172941Y-33480498D01*
X75172941Y-33480482D01*
X75173070Y-33477649D01*
X75173070Y-32609575D01*
X75158465Y-32428052D01*
X75156040Y-32418179D01*
X75102810Y-32201464D01*
X75102808Y-32201459D01*
X75100386Y-32191597D01*
X75096417Y-32182246D01*
X75009222Y-31976826D01*
X75009219Y-31976820D01*
X75005250Y-31967470D01*
X74930294Y-31848441D01*
X74880916Y-31770031D01*
X74880916Y-31770030D01*
X74875504Y-31761437D01*
X74714486Y-31578798D01*
X74706635Y-31572349D01*
X74534194Y-31430704D01*
X74534193Y-31430703D01*
X74526339Y-31424252D01*
X74517557Y-31419141D01*
X74517553Y-31419138D01*
X74324689Y-31306888D01*
X74324683Y-31306885D01*
X74315903Y-31301775D01*
X74168509Y-31245196D01*
X74098083Y-31218162D01*
X74098080Y-31218161D01*
X74088592Y-31214519D01*
X74078641Y-31212440D01*
X74078637Y-31212439D01*
X73942194Y-31183935D01*
X73850255Y-31164728D01*
X73840114Y-31164268D01*
X73840110Y-31164267D01*
X73647094Y-31155503D01*
X73607023Y-31153683D01*
X73429606Y-31174211D01*
X73375256Y-31180499D01*
X73375254Y-31180499D01*
X73365154Y-31181668D01*
X73130870Y-31247963D01*
X73121667Y-31252255D01*
X73121663Y-31252256D01*
X72919401Y-31346573D01*
X72919396Y-31346576D01*
X72910200Y-31350864D01*
X72708820Y-31487721D01*
X72563987Y-31624683D01*
X72480414Y-31677210D01*
X72383095Y-31693758D01*
X72286851Y-31671804D01*
X72200380Y-31608169D01*
X72181204Y-31586418D01*
X72174486Y-31578798D01*
X72166635Y-31572349D01*
X71994194Y-31430704D01*
X71994193Y-31430703D01*
X71986339Y-31424252D01*
X71977557Y-31419141D01*
X71977553Y-31419138D01*
X71784689Y-31306888D01*
X71784683Y-31306885D01*
X71775903Y-31301775D01*
X71628509Y-31245196D01*
X71558083Y-31218162D01*
X71558080Y-31218161D01*
X71548592Y-31214519D01*
X71538641Y-31212440D01*
X71538637Y-31212439D01*
X71402194Y-31183935D01*
X71310255Y-31164728D01*
X71300114Y-31164268D01*
X71300110Y-31164267D01*
X71107094Y-31155503D01*
X71067023Y-31153683D01*
X70889606Y-31174211D01*
X70835256Y-31180499D01*
X70835254Y-31180499D01*
X70825154Y-31181668D01*
X70590870Y-31247963D01*
X70581667Y-31252255D01*
X70581663Y-31252256D01*
X70379401Y-31346573D01*
X70379396Y-31346576D01*
X70370200Y-31350864D01*
X70168820Y-31487721D01*
X70023987Y-31624683D01*
X69940414Y-31677210D01*
X69843095Y-31693758D01*
X69746851Y-31671804D01*
X69660380Y-31608169D01*
X69641204Y-31586418D01*
X69634486Y-31578798D01*
X69626635Y-31572349D01*
X69454194Y-31430704D01*
X69454193Y-31430703D01*
X69446339Y-31424252D01*
X69437557Y-31419141D01*
X69437553Y-31419138D01*
X69244689Y-31306888D01*
X69244683Y-31306885D01*
X69235903Y-31301775D01*
X69088509Y-31245196D01*
X69018083Y-31218162D01*
X69018080Y-31218161D01*
X69008592Y-31214519D01*
X68998641Y-31212440D01*
X68998637Y-31212439D01*
X68862194Y-31183935D01*
X68770255Y-31164728D01*
X68760114Y-31164268D01*
X68760110Y-31164267D01*
X68567094Y-31155503D01*
X68527023Y-31153683D01*
X68349606Y-31174211D01*
X68295256Y-31180499D01*
X68295254Y-31180499D01*
X68285154Y-31181668D01*
X68050870Y-31247963D01*
X68041667Y-31252255D01*
X68041663Y-31252256D01*
X67839401Y-31346573D01*
X67839396Y-31346576D01*
X67830200Y-31350864D01*
X67628820Y-31487721D01*
X67483987Y-31624683D01*
X67400414Y-31677210D01*
X67303095Y-31693758D01*
X67206851Y-31671804D01*
X67120380Y-31608169D01*
X67101204Y-31586418D01*
X67094486Y-31578798D01*
X67086635Y-31572349D01*
X66914194Y-31430704D01*
X66914193Y-31430703D01*
X66906339Y-31424252D01*
X66897557Y-31419141D01*
X66897553Y-31419138D01*
X66704689Y-31306888D01*
X66704683Y-31306885D01*
X66695903Y-31301775D01*
X66548509Y-31245196D01*
X66478083Y-31218162D01*
X66478080Y-31218161D01*
X66468592Y-31214519D01*
X66458641Y-31212440D01*
X66458637Y-31212439D01*
X66322194Y-31183935D01*
X66230255Y-31164728D01*
X66220114Y-31164268D01*
X66220110Y-31164267D01*
X66027094Y-31155503D01*
X65987023Y-31153683D01*
X65809606Y-31174211D01*
X65755256Y-31180499D01*
X65755254Y-31180499D01*
X65745154Y-31181668D01*
X65510870Y-31247963D01*
X65501667Y-31252255D01*
X65501663Y-31252256D01*
X65299401Y-31346573D01*
X65299396Y-31346576D01*
X65290200Y-31350864D01*
X65088820Y-31487721D01*
X64943987Y-31624683D01*
X64860414Y-31677210D01*
X64763095Y-31693758D01*
X64666851Y-31671804D01*
X64580380Y-31608169D01*
X64561204Y-31586418D01*
X64554486Y-31578798D01*
X64546635Y-31572349D01*
X64374194Y-31430704D01*
X64374193Y-31430703D01*
X64366339Y-31424252D01*
X64357557Y-31419141D01*
X64357553Y-31419138D01*
X64164689Y-31306888D01*
X64164683Y-31306885D01*
X64155903Y-31301775D01*
X64008509Y-31245196D01*
X63938083Y-31218162D01*
X63938080Y-31218161D01*
X63928592Y-31214519D01*
X63918641Y-31212440D01*
X63918637Y-31212439D01*
X63782194Y-31183935D01*
X63690255Y-31164728D01*
X63680114Y-31164268D01*
X63680110Y-31164267D01*
X63487094Y-31155503D01*
X63447023Y-31153683D01*
X63269606Y-31174211D01*
X63215256Y-31180499D01*
X63215254Y-31180499D01*
X63205154Y-31181668D01*
X62970870Y-31247963D01*
X62961667Y-31252255D01*
X62961663Y-31252256D01*
X62759401Y-31346573D01*
X62759396Y-31346576D01*
X62750200Y-31350864D01*
X62548820Y-31487721D01*
X62403987Y-31624683D01*
X62320414Y-31677210D01*
X62223095Y-31693758D01*
X62126851Y-31671804D01*
X62040380Y-31608169D01*
X62021204Y-31586418D01*
X62014486Y-31578798D01*
X62006635Y-31572349D01*
X61834194Y-31430704D01*
X61834193Y-31430703D01*
X61826339Y-31424252D01*
X61817557Y-31419141D01*
X61817553Y-31419138D01*
X61624689Y-31306888D01*
X61624683Y-31306885D01*
X61615903Y-31301775D01*
X61468509Y-31245196D01*
X61398083Y-31218162D01*
X61398080Y-31218161D01*
X61388592Y-31214519D01*
X61378641Y-31212440D01*
X61378637Y-31212439D01*
X61242194Y-31183935D01*
X61150255Y-31164728D01*
X61140114Y-31164268D01*
X61140110Y-31164267D01*
X60947094Y-31155503D01*
X60907023Y-31153683D01*
X60729606Y-31174211D01*
X60675256Y-31180499D01*
X60675254Y-31180499D01*
X60665154Y-31181668D01*
X60430870Y-31247963D01*
X60421667Y-31252255D01*
X60421663Y-31252256D01*
X60219401Y-31346573D01*
X60219396Y-31346576D01*
X60210200Y-31350864D01*
X60008820Y-31487721D01*
X59863987Y-31624683D01*
X59780414Y-31677210D01*
X59683095Y-31693758D01*
X59586851Y-31671804D01*
X59500380Y-31608169D01*
X59481204Y-31586418D01*
X59474486Y-31578798D01*
X59466635Y-31572349D01*
X59294194Y-31430704D01*
X59294193Y-31430703D01*
X59286339Y-31424252D01*
X59277557Y-31419141D01*
X59277553Y-31419138D01*
X59084689Y-31306888D01*
X59084683Y-31306885D01*
X59075903Y-31301775D01*
X58928509Y-31245196D01*
X58858083Y-31218162D01*
X58858080Y-31218161D01*
X58848592Y-31214519D01*
X58838641Y-31212440D01*
X58838637Y-31212439D01*
X58702194Y-31183935D01*
X58610255Y-31164728D01*
X58600114Y-31164268D01*
X58600110Y-31164267D01*
X58407094Y-31155503D01*
X58367023Y-31153683D01*
X58189606Y-31174211D01*
X58135256Y-31180499D01*
X58135254Y-31180499D01*
X58125154Y-31181668D01*
X57890870Y-31247963D01*
X57881667Y-31252255D01*
X57881663Y-31252256D01*
X57679401Y-31346573D01*
X57679396Y-31346576D01*
X57670200Y-31350864D01*
X57468820Y-31487721D01*
X57291912Y-31655015D01*
X57144027Y-31848441D01*
X57028969Y-32063023D01*
X56949699Y-32293241D01*
X56908255Y-32533170D01*
X56906930Y-32562351D01*
X56906930Y-33430425D01*
X56907337Y-33435482D01*
X56907337Y-33435485D01*
X56907806Y-33441313D01*
X56921535Y-33611948D01*
X56923960Y-33621820D01*
X56923960Y-33621821D01*
X56963427Y-33782500D01*
X56979614Y-33848403D01*
X56983582Y-33857751D01*
X56983583Y-33857754D01*
X57070778Y-34063174D01*
X57070781Y-34063180D01*
X57074750Y-34072530D01*
X57080164Y-34081128D01*
X57080166Y-34081131D01*
X57154787Y-34199627D01*
X57204496Y-34278563D01*
X57365514Y-34461202D01*
X57373364Y-34467650D01*
X57373365Y-34467651D01*
X57474298Y-34550558D01*
X57553661Y-34615748D01*
X57562443Y-34620859D01*
X57562447Y-34620862D01*
X57755311Y-34733112D01*
X57755317Y-34733115D01*
X57764097Y-34738225D01*
X57874212Y-34780494D01*
X57981917Y-34821838D01*
X57981920Y-34821839D01*
X57991408Y-34825481D01*
X58001359Y-34827560D01*
X58001363Y-34827561D01*
X58135403Y-34855563D01*
X58229745Y-34875272D01*
X58239886Y-34875732D01*
X58239890Y-34875733D01*
X58432906Y-34884497D01*
X58472977Y-34886317D01*
X58650394Y-34865789D01*
X58704744Y-34859501D01*
X58704746Y-34859501D01*
X58714846Y-34858332D01*
X58949130Y-34792037D01*
X58958333Y-34787745D01*
X58958337Y-34787744D01*
X59160599Y-34693427D01*
X59160604Y-34693424D01*
X59169800Y-34689136D01*
X59371180Y-34552279D01*
X59516013Y-34415317D01*
X59599586Y-34362790D01*
X59696905Y-34346242D01*
X59793149Y-34368196D01*
X59879620Y-34431831D01*
X59905514Y-34461202D01*
X59913364Y-34467650D01*
X59913365Y-34467651D01*
X60014298Y-34550558D01*
X60093661Y-34615748D01*
X60282449Y-34725626D01*
X60356435Y-34790968D01*
X60399786Y-34879655D01*
X60405899Y-34978181D01*
X60373842Y-35071547D01*
X60308495Y-35145538D01*
X60265905Y-35170031D01*
X60266489Y-35171178D01*
X60257623Y-35175696D01*
X60248446Y-35179497D01*
X60038745Y-35308002D01*
X60031195Y-35314451D01*
X60031190Y-35314454D01*
X59871945Y-35450463D01*
X59851729Y-35467729D01*
X59845279Y-35475281D01*
X59698454Y-35647190D01*
X59698451Y-35647195D01*
X59692002Y-35654745D01*
X59563497Y-35864446D01*
X59469379Y-36091668D01*
X59411964Y-36330815D01*
X59392668Y-36576000D01*
X59411964Y-36821185D01*
X59469379Y-37060332D01*
X59563497Y-37287554D01*
X59648662Y-37426531D01*
X59649122Y-37427281D01*
X59683289Y-37519895D01*
X59679414Y-37618534D01*
X59638085Y-37708182D01*
X59565596Y-37775191D01*
X59472982Y-37809358D01*
X59466144Y-37810168D01*
X59459732Y-37811184D01*
X59449815Y-37811964D01*
X59376929Y-37829463D01*
X59220338Y-37867057D01*
X59220333Y-37867059D01*
X59210668Y-37869379D01*
X58983446Y-37963497D01*
X58773745Y-38092002D01*
X58766191Y-38098454D01*
X58766183Y-38098460D01*
X58589311Y-38249523D01*
X58503182Y-38297758D01*
X58405150Y-38309361D01*
X58310141Y-38282566D01*
X58260689Y-38249523D01*
X58083817Y-38098460D01*
X58083809Y-38098454D01*
X58076255Y-38092002D01*
X57866554Y-37963497D01*
X57639332Y-37869379D01*
X57629667Y-37867059D01*
X57629662Y-37867057D01*
X57473071Y-37829463D01*
X57400185Y-37811964D01*
X57155000Y-37792668D01*
X56909815Y-37811964D01*
X56836929Y-37829463D01*
X56680338Y-37867057D01*
X56680333Y-37867059D01*
X56670668Y-37869379D01*
X56443446Y-37963497D01*
X56233745Y-38092002D01*
X56226191Y-38098454D01*
X56226183Y-38098460D01*
X56049311Y-38249523D01*
X55963182Y-38297758D01*
X55865150Y-38309361D01*
X55770141Y-38282566D01*
X55720689Y-38249523D01*
X55543817Y-38098460D01*
X55543809Y-38098454D01*
X55536255Y-38092002D01*
X55326554Y-37963497D01*
X55099332Y-37869379D01*
X55089667Y-37867059D01*
X55089662Y-37867057D01*
X54933071Y-37829463D01*
X54860185Y-37811964D01*
X54615000Y-37792668D01*
X54369815Y-37811964D01*
X54296929Y-37829463D01*
X54140338Y-37867057D01*
X54140333Y-37867059D01*
X54130668Y-37869379D01*
X53903446Y-37963497D01*
X53693745Y-38092002D01*
X53686191Y-38098454D01*
X53686183Y-38098460D01*
X53509311Y-38249523D01*
X53423182Y-38297758D01*
X53325150Y-38309361D01*
X53230141Y-38282566D01*
X53180689Y-38249523D01*
X53003817Y-38098460D01*
X53003809Y-38098454D01*
X52996255Y-38092002D01*
X52786554Y-37963497D01*
X52559332Y-37869379D01*
X52549667Y-37867059D01*
X52549662Y-37867057D01*
X52393071Y-37829463D01*
X52320185Y-37811964D01*
X52307211Y-37810943D01*
X52305239Y-37810387D01*
X52300455Y-37809629D01*
X52300545Y-37809063D01*
X52212205Y-37784152D01*
X52134679Y-37723040D01*
X52086442Y-37636913D01*
X52074835Y-37538882D01*
X52101627Y-37443872D01*
X52111338Y-37426531D01*
X52191312Y-37296025D01*
X52191313Y-37296024D01*
X52196503Y-37287554D01*
X52290621Y-37060332D01*
X52348036Y-36821185D01*
X52367332Y-36576000D01*
X52348036Y-36330815D01*
X52290621Y-36091668D01*
X52196503Y-35864446D01*
X52067998Y-35654745D01*
X52061549Y-35647195D01*
X52061546Y-35647190D01*
X51914721Y-35475281D01*
X51908271Y-35467729D01*
X51888055Y-35450463D01*
X51728810Y-35314454D01*
X51728805Y-35314451D01*
X51721255Y-35308002D01*
X51511554Y-35179497D01*
X51284332Y-35085379D01*
X51274667Y-35083059D01*
X51274662Y-35083057D01*
X51096696Y-35040331D01*
X51045185Y-35027964D01*
X50800000Y-35008668D01*
X50554815Y-35027964D01*
X50503304Y-35040331D01*
X50325338Y-35083057D01*
X50325333Y-35083059D01*
X50315668Y-35085379D01*
X50088446Y-35179497D01*
X49878745Y-35308002D01*
X49871195Y-35314451D01*
X49871190Y-35314454D01*
X49711945Y-35450463D01*
X49691729Y-35467729D01*
X49685279Y-35475281D01*
X49538454Y-35647190D01*
X49538451Y-35647195D01*
X49532002Y-35654745D01*
X49403497Y-35864446D01*
X49309379Y-36091668D01*
X49251964Y-36330815D01*
X49232668Y-36576000D01*
X49251964Y-36821185D01*
X49309379Y-37060332D01*
X49403497Y-37287554D01*
X49532002Y-37497255D01*
X49538451Y-37504805D01*
X49538454Y-37504810D01*
X49635584Y-37618534D01*
X49691729Y-37684271D01*
X49699281Y-37690721D01*
X49871190Y-37837546D01*
X49871195Y-37837549D01*
X49878745Y-37843998D01*
X50088446Y-37972503D01*
X50315668Y-38066621D01*
X50325333Y-38068941D01*
X50325338Y-38068943D01*
X50448260Y-38098454D01*
X50554815Y-38124036D01*
X50567789Y-38125057D01*
X50569761Y-38125613D01*
X50574545Y-38126371D01*
X50574455Y-38126937D01*
X50662795Y-38151848D01*
X50740321Y-38212960D01*
X50788558Y-38299087D01*
X50800165Y-38397118D01*
X50773373Y-38492128D01*
X50763662Y-38509469D01*
X50698575Y-38615681D01*
X50678497Y-38648446D01*
X50584379Y-38875668D01*
X50526964Y-39114815D01*
X50507668Y-39360000D01*
X50526964Y-39605185D01*
X50584379Y-39844332D01*
X50678497Y-40071554D01*
X50807002Y-40281255D01*
X50813451Y-40288805D01*
X50813454Y-40288810D01*
X50927416Y-40422242D01*
X50966729Y-40468271D01*
X50974281Y-40474721D01*
X51146190Y-40621546D01*
X51146195Y-40621549D01*
X51153745Y-40627998D01*
X51363446Y-40756503D01*
X51590668Y-40850621D01*
X51600333Y-40852941D01*
X51600338Y-40852943D01*
X51722510Y-40882274D01*
X51829815Y-40908036D01*
X52075000Y-40927332D01*
X52320185Y-40908036D01*
X52427490Y-40882274D01*
X52549662Y-40852943D01*
X52549667Y-40852941D01*
X52559332Y-40850621D01*
X52786554Y-40756503D01*
X52996255Y-40627998D01*
X53003813Y-40621543D01*
X53003817Y-40621540D01*
X53180689Y-40470477D01*
X53266818Y-40422242D01*
X53364850Y-40410639D01*
X53459859Y-40437434D01*
X53509321Y-40470486D01*
X53516597Y-40476701D01*
X53577707Y-40554227D01*
X53604497Y-40649238D01*
X53592889Y-40747269D01*
X53559522Y-40814188D01*
X53511848Y-40882274D01*
X53511844Y-40882281D01*
X53505512Y-40891324D01*
X53411560Y-41092804D01*
X53408701Y-41103475D01*
X53408700Y-41103477D01*
X53393319Y-41160879D01*
X53354022Y-41307537D01*
X53334647Y-41529000D01*
X53354022Y-41750463D01*
X53411560Y-41965196D01*
X53505512Y-42166676D01*
X53527402Y-42197938D01*
X53626689Y-42339736D01*
X53626693Y-42339741D01*
X53633023Y-42348781D01*
X53790219Y-42505977D01*
X53799263Y-42512310D01*
X53799267Y-42512313D01*
X53963271Y-42627150D01*
X53972323Y-42633488D01*
X53982333Y-42638156D01*
X53982337Y-42638158D01*
X54163795Y-42722773D01*
X54163798Y-42722774D01*
X54173804Y-42727440D01*
X54388537Y-42784978D01*
X54610000Y-42804353D01*
X54831463Y-42784978D01*
X55046196Y-42727440D01*
X55056202Y-42722774D01*
X55056205Y-42722773D01*
X55237663Y-42638158D01*
X55237667Y-42638156D01*
X55247677Y-42633488D01*
X55398679Y-42527755D01*
X55489034Y-42487997D01*
X55543794Y-42482000D01*
X55735794Y-42482000D01*
X55742858Y-42482099D01*
X55823156Y-42484342D01*
X55835780Y-42482116D01*
X55835782Y-42482116D01*
X55874932Y-42475213D01*
X55893296Y-42472664D01*
X55901944Y-42471786D01*
X55932862Y-42468646D01*
X55932867Y-42468645D01*
X55945616Y-42467350D01*
X55957850Y-42463516D01*
X55957855Y-42463515D01*
X55963578Y-42461722D01*
X55995295Y-42453990D01*
X56001198Y-42452949D01*
X56001201Y-42452948D01*
X56013821Y-42450723D01*
X56025736Y-42446006D01*
X56025738Y-42446005D01*
X56062697Y-42431372D01*
X56080171Y-42425184D01*
X56118124Y-42413290D01*
X56118129Y-42413288D01*
X56130363Y-42409454D01*
X56146818Y-42400333D01*
X56176338Y-42386379D01*
X56181907Y-42384174D01*
X56181912Y-42384172D01*
X56193832Y-42379452D01*
X56237820Y-42350666D01*
X56253697Y-42341089D01*
X56288488Y-42321804D01*
X56288494Y-42321800D01*
X56299695Y-42315591D01*
X56313985Y-42303343D01*
X56340094Y-42283740D01*
X56347705Y-42278759D01*
X56355835Y-42273439D01*
X56360563Y-42269182D01*
X56394010Y-42235735D01*
X56408263Y-42222537D01*
X56436963Y-42197938D01*
X56446695Y-42189597D01*
X56454519Y-42179510D01*
X56535213Y-42122693D01*
X56637712Y-42101000D01*
X56653930Y-42101000D01*
X56750749Y-42120258D01*
X56832828Y-42175102D01*
X56887672Y-42257181D01*
X56906930Y-42354000D01*
X56906930Y-44330486D01*
X56917962Y-44436810D01*
X56974233Y-44605474D01*
X56981967Y-44617972D01*
X57012479Y-44667278D01*
X57067796Y-44756670D01*
X57193631Y-44882286D01*
X57206140Y-44889996D01*
X57206143Y-44889999D01*
X57295496Y-44945077D01*
X57367810Y-45012274D01*
X57408903Y-45102030D01*
X57412521Y-45200679D01*
X57378111Y-45293204D01*
X57310914Y-45365518D01*
X57221158Y-45406611D01*
X57163613Y-45413346D01*
X57155000Y-45412668D01*
X56909815Y-45431964D01*
X56836929Y-45449463D01*
X56680338Y-45487057D01*
X56680333Y-45487059D01*
X56670668Y-45489379D01*
X56443446Y-45583497D01*
X56233745Y-45712002D01*
X56226191Y-45718454D01*
X56226183Y-45718460D01*
X56049311Y-45869523D01*
X55963182Y-45917758D01*
X55865150Y-45929361D01*
X55770141Y-45902566D01*
X55720689Y-45869523D01*
X55543817Y-45718460D01*
X55543809Y-45718454D01*
X55536255Y-45712002D01*
X55326554Y-45583497D01*
X55099332Y-45489379D01*
X55089667Y-45487059D01*
X55089662Y-45487057D01*
X54933071Y-45449463D01*
X54860185Y-45431964D01*
X54615000Y-45412668D01*
X54369815Y-45431964D01*
X54296929Y-45449463D01*
X54140338Y-45487057D01*
X54140333Y-45487059D01*
X54130668Y-45489379D01*
X53903446Y-45583497D01*
X53693745Y-45712002D01*
X53686191Y-45718454D01*
X53686183Y-45718460D01*
X53509311Y-45869523D01*
X53423182Y-45917758D01*
X53325150Y-45929361D01*
X53230141Y-45902566D01*
X53180689Y-45869523D01*
X53003817Y-45718460D01*
X53003809Y-45718454D01*
X52996255Y-45712002D01*
X52786554Y-45583497D01*
X52559332Y-45489379D01*
X52549667Y-45487059D01*
X52549662Y-45487057D01*
X52393071Y-45449463D01*
X52320185Y-45431964D01*
X52075000Y-45412668D01*
X51829815Y-45431964D01*
X51756929Y-45449463D01*
X51600338Y-45487057D01*
X51600333Y-45487059D01*
X51590668Y-45489379D01*
X51363446Y-45583497D01*
X51153745Y-45712002D01*
X51146195Y-45718451D01*
X51146190Y-45718454D01*
X51139404Y-45724250D01*
X50966729Y-45871729D01*
X50960279Y-45879281D01*
X50813454Y-46051190D01*
X50813451Y-46051195D01*
X50807002Y-46058745D01*
X50678497Y-46268446D01*
X50584379Y-46495668D01*
X50526964Y-46734815D01*
X50507668Y-46980000D01*
X50526964Y-47225185D01*
X50584379Y-47464332D01*
X50678497Y-47691554D01*
X50807002Y-47901255D01*
X50813451Y-47908805D01*
X50813454Y-47908810D01*
X50927416Y-48042242D01*
X50966729Y-48088271D01*
X50974281Y-48094721D01*
X51146190Y-48241546D01*
X51146195Y-48241549D01*
X51153745Y-48247998D01*
X51363446Y-48376503D01*
X51590668Y-48470621D01*
X51600333Y-48472941D01*
X51600338Y-48472943D01*
X51700426Y-48496972D01*
X51829815Y-48528036D01*
X52075000Y-48547332D01*
X52320185Y-48528036D01*
X52449574Y-48496972D01*
X52549662Y-48472943D01*
X52549667Y-48472941D01*
X52559332Y-48470621D01*
X52786554Y-48376503D01*
X52996255Y-48247998D01*
X53003813Y-48241543D01*
X53003817Y-48241540D01*
X53180689Y-48090477D01*
X53266818Y-48042242D01*
X53364850Y-48030639D01*
X53459859Y-48057434D01*
X53509311Y-48090477D01*
X53686183Y-48241540D01*
X53686187Y-48241543D01*
X53693745Y-48247998D01*
X53903446Y-48376503D01*
X54130668Y-48470621D01*
X54140333Y-48472941D01*
X54140338Y-48472943D01*
X54240426Y-48496972D01*
X54369815Y-48528036D01*
X54615000Y-48547332D01*
X54860185Y-48528036D01*
X54989574Y-48496972D01*
X55089662Y-48472943D01*
X55089667Y-48472941D01*
X55099332Y-48470621D01*
X55326554Y-48376503D01*
X55536255Y-48247998D01*
X55543813Y-48241543D01*
X55543817Y-48241540D01*
X55720689Y-48090477D01*
X55806818Y-48042242D01*
X55904850Y-48030639D01*
X55999859Y-48057434D01*
X56049311Y-48090477D01*
X56226183Y-48241540D01*
X56226187Y-48241543D01*
X56233745Y-48247998D01*
X56443446Y-48376503D01*
X56670668Y-48470621D01*
X56680333Y-48472941D01*
X56680338Y-48472943D01*
X56780426Y-48496972D01*
X56909815Y-48528036D01*
X57155000Y-48547332D01*
X57400185Y-48528036D01*
X57529574Y-48496972D01*
X57629662Y-48472943D01*
X57629667Y-48472941D01*
X57639332Y-48470621D01*
X57866554Y-48376503D01*
X58076255Y-48247998D01*
X58083805Y-48241549D01*
X58083810Y-48241546D01*
X58255719Y-48094721D01*
X58263271Y-48088271D01*
X58269721Y-48080719D01*
X58269727Y-48080713D01*
X58318135Y-48024034D01*
X58395658Y-47962920D01*
X58490667Y-47936124D01*
X58588698Y-47947726D01*
X58674828Y-47995961D01*
X58687530Y-48007580D01*
X58695529Y-48015413D01*
X58740803Y-48053000D01*
X58802994Y-48129662D01*
X58831113Y-48224288D01*
X58820881Y-48322472D01*
X58773853Y-48409266D01*
X58758093Y-48426556D01*
X57538751Y-49645898D01*
X57456672Y-49700742D01*
X57359853Y-49720000D01*
X52283296Y-49720000D01*
X52186477Y-49700742D01*
X52126493Y-49665549D01*
X52092166Y-49638440D01*
X52092164Y-49638439D01*
X52084015Y-49632003D01*
X51965714Y-49566697D01*
X51891927Y-49525964D01*
X51891924Y-49525963D01*
X51882831Y-49520943D01*
X51666209Y-49444233D01*
X51655989Y-49442413D01*
X51655987Y-49442412D01*
X51450190Y-49405754D01*
X51439967Y-49403933D01*
X51429586Y-49403806D01*
X51429584Y-49403806D01*
X51311952Y-49402369D01*
X51210181Y-49401126D01*
X51179937Y-49405754D01*
X50993287Y-49434315D01*
X50993284Y-49434316D01*
X50983022Y-49435886D01*
X50764591Y-49507281D01*
X50560753Y-49613392D01*
X50376983Y-49751370D01*
X50369806Y-49758881D01*
X50369803Y-49758883D01*
X50283431Y-49849266D01*
X50218216Y-49917510D01*
X50088716Y-50107350D01*
X49991961Y-50315792D01*
X49930548Y-50537237D01*
X49906129Y-50765739D01*
X49919357Y-50995161D01*
X49921639Y-51005286D01*
X49921639Y-51005288D01*
X49932398Y-51053031D01*
X49969878Y-51219342D01*
X49973784Y-51228961D01*
X49975158Y-51233346D01*
X49985732Y-51331494D01*
X49957942Y-51426217D01*
X49896018Y-51503095D01*
X49809388Y-51550424D01*
X49733734Y-51562000D01*
X47513433Y-51562000D01*
X47416614Y-51542742D01*
X47334535Y-51487898D01*
X47279691Y-51405819D01*
X47260433Y-51309000D01*
X47279691Y-51212181D01*
X47334535Y-51130102D01*
X47346618Y-51118785D01*
X47387895Y-51082586D01*
X47394122Y-51077125D01*
X47475087Y-50984802D01*
X47592857Y-50850512D01*
X47592858Y-50850511D01*
X47598317Y-50844286D01*
X47602913Y-50837407D01*
X47602918Y-50837401D01*
X47765771Y-50593673D01*
X47765774Y-50593669D01*
X47770373Y-50586785D01*
X47834486Y-50456776D01*
X47903685Y-50316456D01*
X47903686Y-50316455D01*
X47907347Y-50309030D01*
X47975808Y-50107350D01*
X48004231Y-50023619D01*
X48004232Y-50023614D01*
X48006894Y-50015773D01*
X48067312Y-49712031D01*
X48069274Y-49682108D01*
X48087025Y-49411270D01*
X48087567Y-49403001D01*
X48085011Y-49364004D01*
X48067854Y-49102234D01*
X48067853Y-49102228D01*
X48067312Y-49093971D01*
X48006894Y-48790229D01*
X47922573Y-48541825D01*
X47910010Y-48504816D01*
X47910008Y-48504812D01*
X47907347Y-48496972D01*
X47847154Y-48374912D01*
X47781384Y-48241546D01*
X47770373Y-48219217D01*
X47764752Y-48210804D01*
X47602918Y-47968601D01*
X47602913Y-47968595D01*
X47598317Y-47961716D01*
X47581027Y-47942000D01*
X47399583Y-47735104D01*
X47394122Y-47728877D01*
X47161283Y-47524682D01*
X46903783Y-47352626D01*
X46645358Y-47225185D01*
X46633453Y-47219314D01*
X46633452Y-47219314D01*
X46626027Y-47215652D01*
X46618187Y-47212991D01*
X46618183Y-47212989D01*
X46340616Y-47118768D01*
X46340611Y-47118767D01*
X46332770Y-47116105D01*
X46029028Y-47055687D01*
X46020771Y-47055146D01*
X46020765Y-47055145D01*
X45728267Y-47035974D01*
X45719998Y-47035432D01*
X45711729Y-47035974D01*
X45419231Y-47055145D01*
X45419225Y-47055146D01*
X45410968Y-47055687D01*
X45107226Y-47116105D01*
X45099385Y-47118767D01*
X45099380Y-47118768D01*
X44821813Y-47212989D01*
X44821809Y-47212991D01*
X44813969Y-47215652D01*
X44536214Y-47352626D01*
X44529330Y-47357225D01*
X44529326Y-47357228D01*
X44285598Y-47520081D01*
X44285592Y-47520086D01*
X44278713Y-47524682D01*
X44045874Y-47728877D01*
X44040413Y-47735104D01*
X43858970Y-47942000D01*
X43841679Y-47961716D01*
X43837083Y-47968595D01*
X43837078Y-47968601D01*
X43675244Y-48210804D01*
X43669623Y-48219217D01*
X43658612Y-48241546D01*
X43592843Y-48374912D01*
X43532649Y-48496972D01*
X43529988Y-48504812D01*
X43529986Y-48504816D01*
X43517424Y-48541825D01*
X43433102Y-48790229D01*
X43372684Y-49093971D01*
X43372143Y-49102228D01*
X43372142Y-49102234D01*
X43354985Y-49364004D01*
X43352429Y-49403001D01*
X43352971Y-49411270D01*
X43370723Y-49682108D01*
X43372684Y-49712031D01*
X43433102Y-50015773D01*
X43435764Y-50023614D01*
X43435765Y-50023619D01*
X43464188Y-50107350D01*
X43532649Y-50309030D01*
X43536310Y-50316455D01*
X43536311Y-50316456D01*
X43605510Y-50456776D01*
X43669623Y-50586785D01*
X43674222Y-50593669D01*
X43674225Y-50593673D01*
X43837078Y-50837401D01*
X43837083Y-50837407D01*
X43841679Y-50844286D01*
X43847138Y-50850511D01*
X43847139Y-50850512D01*
X43964909Y-50984802D01*
X44045874Y-51077125D01*
X44052101Y-51082586D01*
X44093378Y-51118785D01*
X44153472Y-51197101D01*
X44179021Y-51292453D01*
X44166136Y-51390324D01*
X44116778Y-51475815D01*
X44038462Y-51535909D01*
X43943110Y-51561458D01*
X43926563Y-51562000D01*
X42163000Y-51562000D01*
X42066181Y-51542742D01*
X41984102Y-51487898D01*
X41929258Y-51405819D01*
X41910000Y-51309000D01*
X41910000Y-39959508D01*
X41929258Y-39862689D01*
X41984102Y-39780610D01*
X42066181Y-39725766D01*
X42075435Y-39722145D01*
X42096928Y-39714216D01*
X42099973Y-39707610D01*
X42100500Y-39703159D01*
X42100500Y-38162500D01*
X42119758Y-38065681D01*
X42174602Y-37983602D01*
X42256681Y-37928758D01*
X42353500Y-37909500D01*
X42482500Y-37909500D01*
X42579319Y-37928758D01*
X42661398Y-37983602D01*
X42716242Y-38065681D01*
X42735500Y-38162500D01*
X42735500Y-39693162D01*
X42739634Y-39713946D01*
X42745555Y-39715124D01*
X42750002Y-39714597D01*
X42841132Y-39692719D01*
X42939772Y-39688844D01*
X43032386Y-39723011D01*
X43104875Y-39790019D01*
X43115912Y-39806537D01*
X43231988Y-39995956D01*
X43243640Y-40011994D01*
X43399501Y-40194484D01*
X43413516Y-40208499D01*
X43596006Y-40364360D01*
X43612044Y-40376012D01*
X43816674Y-40501409D01*
X43834319Y-40510401D01*
X44056061Y-40602249D01*
X44074890Y-40608367D01*
X44235272Y-40646871D01*
X44256445Y-40647703D01*
X44258973Y-40642220D01*
X44259500Y-40637765D01*
X44259500Y-40627770D01*
X44894500Y-40627770D01*
X44898634Y-40648554D01*
X44904556Y-40649732D01*
X44909009Y-40649205D01*
X45079110Y-40608367D01*
X45097939Y-40602249D01*
X45319681Y-40510401D01*
X45337326Y-40501409D01*
X45541956Y-40376012D01*
X45557994Y-40364360D01*
X45740484Y-40208499D01*
X45754499Y-40194484D01*
X45910360Y-40011994D01*
X45922012Y-39995956D01*
X46047409Y-39791326D01*
X46056401Y-39773681D01*
X46148246Y-39551946D01*
X46154370Y-39533096D01*
X46210393Y-39299747D01*
X46213496Y-39280156D01*
X46226672Y-39112741D01*
X46223866Y-39098634D01*
X46203082Y-39094500D01*
X44919418Y-39094500D01*
X44898634Y-39098634D01*
X44894500Y-39119418D01*
X44894500Y-40627770D01*
X44259500Y-40627770D01*
X44259500Y-38712500D01*
X44278758Y-38615681D01*
X44333602Y-38533602D01*
X44415681Y-38478758D01*
X44512500Y-38459500D01*
X46203082Y-38459500D01*
X46223866Y-38455366D01*
X46226672Y-38441259D01*
X46213496Y-38273844D01*
X46210393Y-38254253D01*
X46154370Y-38020904D01*
X46148246Y-38002054D01*
X46056401Y-37780319D01*
X46047409Y-37762674D01*
X45922012Y-37558044D01*
X45910360Y-37542006D01*
X45754499Y-37359516D01*
X45752077Y-37357094D01*
X45750807Y-37355193D01*
X45748043Y-37351957D01*
X45748426Y-37351630D01*
X45697233Y-37275015D01*
X45677975Y-37178196D01*
X45697233Y-37081377D01*
X45752077Y-36999298D01*
X45834156Y-36944454D01*
X45850905Y-36938201D01*
X45904708Y-36920251D01*
X45904717Y-36920247D01*
X45918654Y-36915597D01*
X46069850Y-36822034D01*
X46195466Y-36696199D01*
X46263448Y-36585911D01*
X46281056Y-36557346D01*
X46281058Y-36557341D01*
X46288764Y-36544840D01*
X46344741Y-36376078D01*
X46355500Y-36271066D01*
X46355500Y-34137734D01*
X46344468Y-34031410D01*
X46288197Y-33862746D01*
X46194634Y-33711550D01*
X46068799Y-33585934D01*
X46011788Y-33550792D01*
X45929946Y-33500344D01*
X45929941Y-33500342D01*
X45917440Y-33492636D01*
X45748678Y-33436659D01*
X45643666Y-33425900D01*
X43510334Y-33425900D01*
X43503829Y-33426575D01*
X43503828Y-33426575D01*
X43417781Y-33435503D01*
X43417780Y-33435503D01*
X43404010Y-33436932D01*
X43390880Y-33441313D01*
X43390878Y-33441313D01*
X43298046Y-33472284D01*
X43235346Y-33493203D01*
X43084150Y-33586766D01*
X42958534Y-33712601D01*
X42865236Y-33863960D01*
X42860609Y-33877911D01*
X42855242Y-33889420D01*
X42796871Y-33969029D01*
X42712479Y-34020241D01*
X42625945Y-34035500D01*
X42163000Y-34035500D01*
X42066181Y-34016242D01*
X41984102Y-33961398D01*
X41929258Y-33879319D01*
X41910000Y-33782500D01*
X41910000Y-29082000D01*
X41929258Y-28985181D01*
X41984102Y-28903102D01*
X42066181Y-28848258D01*
X42163000Y-28829000D01*
X89917000Y-28829000D01*
X90013819Y-28848258D01*
G37*
G04 #@! TD.AperFunction*
G04 #@! TA.AperFunction,Conductor*
G36*
X59932359Y-44852732D02*
G01*
X60007590Y-44916647D01*
X60044547Y-44980658D01*
X60057065Y-45012274D01*
X60057628Y-45013695D01*
X60063816Y-45031171D01*
X60075710Y-45069124D01*
X60075712Y-45069129D01*
X60079546Y-45081363D01*
X60085762Y-45092578D01*
X60085763Y-45092579D01*
X60088667Y-45097818D01*
X60102621Y-45127338D01*
X60104826Y-45132907D01*
X60104828Y-45132912D01*
X60109548Y-45144832D01*
X60137373Y-45187353D01*
X60138334Y-45188821D01*
X60147908Y-45204692D01*
X60156048Y-45219376D01*
X60186146Y-45313392D01*
X60177974Y-45411769D01*
X60132777Y-45499530D01*
X60057436Y-45563314D01*
X60036261Y-45573791D01*
X60016296Y-45582534D01*
X60012500Y-45592244D01*
X60012500Y-47044500D01*
X59993242Y-47141319D01*
X59938398Y-47223398D01*
X59856319Y-47278242D01*
X59759500Y-47297500D01*
X59630500Y-47297500D01*
X59533681Y-47278242D01*
X59451602Y-47223398D01*
X59396758Y-47141319D01*
X59377500Y-47044500D01*
X59377500Y-45601722D01*
X59373366Y-45580938D01*
X59365006Y-45579275D01*
X59351433Y-45582509D01*
X59146877Y-45649368D01*
X59127798Y-45657388D01*
X58936908Y-45756759D01*
X58919403Y-45767782D01*
X58747306Y-45896996D01*
X58731825Y-45910741D01*
X58695446Y-45948810D01*
X58614633Y-46005501D01*
X58518276Y-46026952D01*
X58421045Y-46009895D01*
X58337742Y-45956928D01*
X58320152Y-45938327D01*
X58269727Y-45879287D01*
X58269721Y-45879281D01*
X58263271Y-45871729D01*
X58090596Y-45724250D01*
X58083810Y-45718454D01*
X58083805Y-45718451D01*
X58076255Y-45712002D01*
X57866554Y-45583497D01*
X57735137Y-45529062D01*
X57653057Y-45474218D01*
X57598214Y-45392139D01*
X57578955Y-45295320D01*
X57598213Y-45198501D01*
X57653057Y-45116422D01*
X57735136Y-45061579D01*
X57831955Y-45042320D01*
X59221236Y-45042320D01*
X59227742Y-45041645D01*
X59313789Y-45032717D01*
X59313790Y-45032717D01*
X59327560Y-45031288D01*
X59340690Y-45026907D01*
X59340692Y-45026907D01*
X59482283Y-44979668D01*
X59482282Y-44979668D01*
X59496224Y-44975017D01*
X59647420Y-44881454D01*
X59654577Y-44874285D01*
X59740005Y-44830475D01*
X59838396Y-44822473D01*
X59932359Y-44852732D01*
G37*
G04 #@! TD.AperFunction*
M02*
