<?xml version="1.0" encoding="UTF-8" standalone="no"?>
<!-- Created with Inkscape (http://www.inkscape.org/) -->

<svg
   width="95mm"
   height="75mm"
   viewBox="0 0 95 75"
   version="1.1"
   id="svg1"
   inkscape:version="1.3-dev (326437285, 2022-12-31)"
   sodipodi:docname="apu-egt.svg"
   xmlns:inkscape="http://www.inkscape.org/namespaces/inkscape"
   xmlns:sodipodi="http://sodipodi.sourceforge.net/DTD/sodipodi-0.dtd"
   xmlns:xlink="http://www.w3.org/1999/xlink"
   xmlns="http://www.w3.org/2000/svg"
   xmlns:svg="http://www.w3.org/2000/svg">
  <sodipodi:namedview
     id="namedview1"
     pagecolor="#ffffff"
     bordercolor="#666666"
     borderopacity="1.0"
     inkscape:showpageshadow="2"
     inkscape:pageopacity="0.0"
     inkscape:pagecheckerboard="0"
     inkscape:deskcolor="#d1d1d1"
     inkscape:document-units="mm"
     inkscape:zoom="2"
     inkscape:cx="173"
     inkscape:cy="148.5"
     inkscape:window-width="2344"
     inkscape:window-height="1120"
     inkscape:window-x="-7"
     inkscape:window-y="0"
     inkscape:window-maximized="0"
     inkscape:current-layer="layer1"
     inkscape:pageshadow="2"
     showgrid="false" />
  <defs
     id="defs1">
    <radialGradient
       inkscape:collect="always"
       xlink:href="#linearGradient142"
       id="radialGradient491"
       gradientUnits="userSpaceOnUse"
       gradientTransform="matrix(0.78762984,0.78762984,-0.78762984,0.78762984,1053.703,-311.9939)"
       cx="-294.09793"
       cy="892.78717"
       fx="-294.09793"
       fy="892.78717"
       r="25.819487" />
    <linearGradient
       inkscape:collect="always"
       id="linearGradient142">
      <stop
         style="stop-color:#262626;stop-opacity:1;"
         offset="0"
         id="stop141" />
      <stop
         style="stop-color:#070707;stop-opacity:1;"
         offset="1"
         id="stop142" />
    </linearGradient>
  </defs>
  <g
     inkscape:label="Layer 1"
     inkscape:groupmode="layer"
     id="layer1"
     transform="translate(-78.633899,-122.05129)">
    <g
       id="g9621">
      <path
         d="m 98.81672,139.49077 a 28.369868,28.369868 0 0 0 40.12105,40.12105 28.369868,28.369868 0 0 0 -40.12105,-40.12105 z"
         style="font-variation-settings:normal;display:inline;vector-effect:none;fill:url(#radialGradient491);fill-opacity:1;stroke:#1a1a1a;stroke-width:0.700001;stroke-linecap:butt;stroke-linejoin:miter;stroke-miterlimit:4;stroke-dasharray:none;stroke-dashoffset:0;stroke-opacity:1;-inkscape-stroke:none;stop-color:#000000"
         id="path324" />
      <path
         d="m 116.75368,157.42805 a 3.0031552,3.002749 0 0 0 4.2471,4.24653 3.0031552,3.002749 0 0 0 -4.2471,-4.24653 z"
         style="font-variation-settings:normal;display:inline;vector-effect:none;fill:#ffffff;fill-opacity:1;stroke:none;stroke-width:0.699999;stroke-linecap:butt;stroke-linejoin:miter;stroke-miterlimit:4;stroke-dasharray:none;stroke-dashoffset:0;stroke-opacity:1;-inkscape-stroke:none;stop-color:#000000"
         id="path9517" />
    </g>
    <g
       aria-label="°C X 100"
       id="text284-0"
       style="font-size:3.20279px;line-height:1;-inkscape-font-specification:'sans-serif, Normal';display:inline;fill:#0088aa;stroke-width:0.264583">
      <path
         d="m 112.88061,167.8255 q -0.11416,0 -0.19548,0.0797 -0.0798,0.0798 -0.0798,0.19236 0,0.11573 0.0798,0.19548 0.0798,0.0798 0.19548,0.0798 0.1126,0 0.19236,-0.0813 0.0798,-0.0813 0.0798,-0.19392 0,-0.1126 -0.0798,-0.19236 -0.0798,-0.0797 -0.19236,-0.0797 z m 0,-0.20174 q 0.19705,0 0.33467,0.14075 0.13918,0.13918 0.13918,0.33623 0,0.19548 -0.13918,0.33466 -0.13918,0.13919 -0.33779,0.13919 -0.19705,0 -0.33467,-0.13762 -0.13606,-0.13762 -0.13606,-0.33623 0,-0.19861 0.13762,-0.3378 0.13919,-0.13918 0.33623,-0.13918 z"
         style="font-family:'Futura Hv BT';-inkscape-font-specification:'Futura Hv BT'"
         id="path32870" />
      <path
         d="m 115.50634,168.21959 q -0.14857,-0.13293 -0.30495,-0.19392 -0.15639,-0.0625 -0.33467,-0.0625 -0.36595,0 -0.58332,0.21894 -0.21738,0.21894 -0.21738,0.58801 0,0.36125 0.20174,0.57394 0.20174,0.21112 0.55048,0.21112 0.19861,0 0.36907,-0.0657 0.17046,-0.0673 0.3159,-0.20018 l -0.003,0.502 q -0.15638,0.0923 -0.32841,0.13762 -0.17046,0.0454 -0.35969,0.0454 -0.54735,0 -0.89922,-0.33935 -0.3503,-0.34093 -0.3503,-0.86482 0,-0.52233 0.35187,-0.86169 0.35187,-0.33936 0.90704,-0.33936 0.1861,0 0.35968,0.0391 0.17359,0.0391 0.34249,0.12042 z"
         style="font-family:'Futura Hv BT';-inkscape-font-specification:'Futura Hv BT'"
         id="path32872" />
      <path
         d="m 117.54718,168.22272 q 0.0375,0.0641 0.0594,0.11416 0.0219,0.0485 0.0391,0.10322 0.0203,-0.0563 0.0453,-0.11104 0.025,-0.0547 0.061,-0.11572 l 0.32372,-0.58958 h 0.51921 l -0.68341,1.09158 0.7053,1.19791 h -0.52859 l -0.33935,-0.63492 q -0.0313,-0.0579 -0.0563,-0.12042 -0.0235,-0.0626 -0.0438,-0.13137 -0.0266,0.0813 -0.0532,0.14544 -0.0266,0.0641 -0.0516,0.11104 l -0.33936,0.63023 h -0.52545 l 0.70686,-1.19791 -0.6881,-1.09158 h 0.52233 z"
         style="font-family:'Futura Hv BT';-inkscape-font-specification:'Futura Hv BT'"
         id="path32874" />
      <path
         d="m 120.39497,169.91325 v -1.88289 h -0.45821 l 0.19236,-0.38471 h 0.72719 v 2.2676 z"
         style="font-family:'Futura Hv BT';-inkscape-font-specification:'Futura Hv BT'"
         id="path32876" />
      <path
         d="m 123.38508,168.78571 q 0,0.55986 -0.22364,0.8742 -0.22363,0.31433 -0.62085,0.31433 -0.40035,0 -0.62398,-0.3112 -0.22207,-0.31278 -0.22207,-0.87733 0,-0.55674 0.22363,-0.87107 0.2252,-0.31434 0.62242,-0.31434 0.40191,0 0.62242,0.31121 0.22207,0.30964 0.22207,0.8742 z m -1.21669,0.003 q 0,0.36907 0.0954,0.56611 0.0954,0.19705 0.27367,0.19705 0.18298,0 0.27681,-0.19548 0.0938,-0.19548 0.0938,-0.57394 0,-0.37376 -0.0938,-0.56768 -0.0938,-0.19392 -0.27368,-0.19392 -0.18141,0 -0.2768,0.19705 -0.0954,0.19704 -0.0954,0.57081 z"
         style="font-family:'Futura Hv BT';-inkscape-font-specification:'Futura Hv BT'"
         id="path32878" />
      <path
         d="m 125.34772,168.78571 q 0,0.55986 -0.22363,0.8742 -0.22363,0.31433 -0.62085,0.31433 -0.40035,0 -0.62398,-0.3112 -0.22207,-0.31278 -0.22207,-0.87733 0,-0.55674 0.22363,-0.87107 0.2252,-0.31434 0.62242,-0.31434 0.40191,0 0.62242,0.31121 0.22206,0.30964 0.22206,0.8742 z m -1.21668,0.003 q 0,0.36907 0.0954,0.56611 0.0954,0.19705 0.27368,0.19705 0.18297,0 0.2768,-0.19548 0.0938,-0.19548 0.0938,-0.57394 0,-0.37376 -0.0938,-0.56768 -0.0938,-0.19392 -0.27367,-0.19392 -0.18141,0 -0.27681,0.19705 -0.0954,0.19704 -0.0954,0.57081 z"
         style="font-family:'Futura Hv BT';-inkscape-font-specification:'Futura Hv BT'"
         id="path32880" />
    </g>
    <g
       id="g9515"
       transform="translate(726.78548,-607.59138)">
      <g
         id="g1"
         inkscape:transform-center-x="-3.1982944e-05"
         inkscape:transform-center-y="-6.0201822"
         transform="rotate(180,-563.35228,767.14244)">
        <path
           id="path328"
           style="fill:#ffffff;stroke:#999999;stroke-width:0.264583px;stroke-linecap:butt;stroke-linejoin:miter;stroke-opacity:1"
           d="m -568.10802,780.34245 1.62874,4.35956 c 0.12152,0.27857 0.33347,0.17663 0.39285,-0.002 l 0.36965,-1.05267 v 0 l 1.12219,-3.31644 4e-5,-3.93856 10e-6,-4.77223 -1.75672,-0.91383 -1.75672,0.92606 10e-6,4.77224 z"
           sodipodi:nodetypes="cccccccccccc"
           inkscape:transform-center-x="-0.070021983"
           inkscape:transform-center-y="10.648014" />
        <path
           d="m -570.44914,763.11489 a 5.6961865,5.6961865 0 0 0 8.05562,8.05562 5.6961865,5.6961865 0 0 0 -8.05562,-8.05562 z"
           style="font-variation-settings:normal;display:inline;vector-effect:none;fill:#333333;fill-opacity:1;stroke:#1a1a1a;stroke-width:0.7;stroke-linecap:butt;stroke-linejoin:miter;stroke-miterlimit:4;stroke-dasharray:none;stroke-dashoffset:0;stroke-opacity:1;-inkscape-stroke:none;stop-color:#000000"
           id="path329" />
      </g>
    </g>
    <g
       aria-label="EGT"
       id="text330"
       style="font-size:4.91992px;line-height:1;-inkscape-font-specification:'sans-serif, Normal';fill:#ffffff;stroke-width:0.264583">
      <path
         d="m 114.60236,152.12389 v -3.51698 h 1.96268 v 0.48527 h -1.39094 v 0.88164 h 1.39094 v 0.50209 h -1.39094 v 1.13629 h 1.39094 v 0.51169 z"
         style="font-family:'Futura Md BT';-inkscape-font-specification:'Futura Md BT'"
         id="path32883" />
      <path
         d="m 119.16914,150.32216 h 1.39333 q 0,0.036 0.002,0.10089 0.007,0.17057 0.007,0.23063 0,0.74231 -0.4252,1.1531 -0.42521,0.4108 -1.19875,0.4108 -0.43242,0 -0.77114,-0.12733 -0.33873,-0.12732 -0.59337,-0.38436 -0.24984,-0.25465 -0.38437,-0.59818 -0.13213,-0.34353 -0.13213,-0.7351 0,-0.39879 0.13453,-0.73511 0.13693,-0.33632 0.40359,-0.59337 0.25704,-0.25224 0.60298,-0.38437 0.34593,-0.13212 0.73991,-0.13212 0.41559,0 0.74231,0.15134 0.32911,0.15135 0.58616,0.46365 l -0.418,0.3147 q -0.17777,-0.2066 -0.40119,-0.3075 -0.22341,-0.10089 -0.49968,-0.10089 -0.57174,0 -0.93449,0.36755 -0.36035,0.36515 -0.36035,0.95131 0,0.59577 0.36035,0.96813 0.36275,0.36996 0.9393,0.36996 0.49007,0 0.77114,-0.22822 0.28107,-0.22822 0.28107,-0.6222 v -0.0504 h -0.84561 z"
         style="font-family:'Futura Md BT';-inkscape-font-specification:'Futura Md BT'"
         id="path32885" />
      <path
         d="m 122.22247,149.09218 v 3.03171 h -0.57175 v -3.03171 h -0.9345 v -0.48527 h 2.43594 v 0.48527 z"
         style="font-family:'Futura Md BT';-inkscape-font-specification:'Futura Md BT'"
         id="path32887" />
    </g>
    <rect
       style="display:inline;vector-effect:none;fill:#ffffff;fill-opacity:1;stroke:none;stroke-width:0.7;stroke-linecap:butt;stroke-linejoin:miter;stroke-miterlimit:4;stroke-dasharray:none;stroke-dashoffset:0;stroke-opacity:1;-inkscape-stroke:none;paint-order:fill markers stroke;stop-color:#000000"
       id="use338"
       width="5.6816177"
       height="0.78347296"
       x="-206.66814"
       y="77.992836"
       inkscape:transform-center-x="1.6785326e-05"
       inkscape:transform-center-y="-20.949577"
       transform="matrix(-0.86506029,-0.50166792,-0.50166792,0.86506029,0,0)" />
    <g
       aria-label="0"
       id="text347"
       style="font-size:5.64444px;line-height:1.25;-inkscape-font-specification:'sans-serif, Normal';display:inline;stroke-width:0.264583">
      <path
         d="m 133.57016,166.72266 q 0,0.96187 -0.3886,1.50758 -0.38585,0.54294 -1.06385,0.54294 -0.68626,0 -1.06935,-0.54846 -0.38034,-0.55121 -0.38034,-1.54615 0,-0.98668 0.38585,-1.53789 0.38585,-0.55122 1.07211,-0.55122 0.69453,0 1.06936,0.55397 0.37482,0.55122 0.37482,1.57923 z m -1.46347,1.48553 q 0.40239,0 0.60358,-0.3831 0.20395,-0.38585 0.20395,-1.15204 0,-0.74414 -0.20119,-1.13274 -0.19844,-0.39137 -0.58154,-0.39137 -0.39963,0 -0.60358,0.38861 -0.20395,0.38861 -0.20395,1.14653 0,0.73587 0.2012,1.12999 0.20395,0.39412 0.58153,0.39412 z"
         style="font-family:'Futura Md BT';-inkscape-font-specification:'Futura Md BT';fill:#ffffff"
         id="path32890" />
    </g>
    <rect
       style="display:inline;vector-effect:none;fill:#ffffff;fill-opacity:1;stroke:none;stroke-width:0.7;stroke-linecap:butt;stroke-linejoin:miter;stroke-miterlimit:4;stroke-dasharray:none;stroke-dashoffset:0;stroke-opacity:1;-inkscape-stroke:none;paint-order:fill markers stroke;stop-color:#000000"
       id="use349"
       width="5.6816177"
       height="0.78347296"
       x="-208.53079"
       y="-74.279579"
       inkscape:transform-center-x="1.6785326e-05"
       inkscape:transform-center-y="-20.949577"
       transform="matrix(-0.25695721,-0.96642278,-0.96642278,0.25695721,0,0)" />
    <rect
       style="display:inline;vector-effect:none;fill:#ffffff;fill-opacity:1;stroke:none;stroke-width:0.7;stroke-linecap:butt;stroke-linejoin:miter;stroke-miterlimit:4;stroke-dasharray:none;stroke-dashoffset:0;stroke-opacity:1;-inkscape-stroke:none;paint-order:fill markers stroke;stop-color:#000000"
       id="use350"
       width="5.6816177"
       height="0.78347296"
       x="-102.17503"
       y="-183.26952"
       inkscape:transform-center-x="1.6785326e-05"
       inkscape:transform-center-y="-20.949577"
       transform="matrix(0.50166792,-0.86506029,-0.86506029,-0.50166792,0,0)" />
    <rect
       style="display:inline;vector-effect:none;fill:#ffffff;fill-opacity:1;stroke:none;stroke-width:0.7;stroke-linecap:butt;stroke-linejoin:miter;stroke-miterlimit:4;stroke-dasharray:none;stroke-dashoffset:0;stroke-opacity:1;-inkscape-stroke:none;paint-order:fill markers stroke;stop-color:#000000"
       id="use351"
       width="5.6816177"
       height="0.78347296"
       x="50.097454"
       y="-185.13217"
       inkscape:transform-center-x="1.6785326e-05"
       inkscape:transform-center-y="-20.949577"
       transform="matrix(0.96642278,-0.25695721,-0.25695721,-0.96642278,0,0)" />
    <rect
       style="display:inline;vector-effect:none;fill:#ffffff;fill-opacity:1;stroke:none;stroke-width:0.7;stroke-linecap:butt;stroke-linejoin:miter;stroke-miterlimit:4;stroke-dasharray:none;stroke-dashoffset:0;stroke-opacity:1;-inkscape-stroke:none;paint-order:fill markers stroke;stop-color:#000000"
       id="use352"
       width="5.6816177"
       height="0.78347296"
       x="159.0874"
       y="-78.776344"
       inkscape:transform-center-x="1.6785326e-05"
       inkscape:transform-center-y="-20.949577"
       transform="matrix(0.86506029,0.50166792,0.50166792,-0.86506029,0,0)" />
    <rect
       style="display:inline;vector-effect:none;fill:#ffffff;fill-opacity:1;stroke:none;stroke-width:0.7;stroke-linecap:butt;stroke-linejoin:miter;stroke-miterlimit:4;stroke-dasharray:none;stroke-dashoffset:0;stroke-opacity:1;-inkscape-stroke:none;paint-order:fill markers stroke;stop-color:#000000"
       id="use353"
       width="5.6816177"
       height="0.78347296"
       x="160.94998"
       y="73.49601"
       inkscape:transform-center-x="1.6785326e-05"
       inkscape:transform-center-y="-20.949577"
       transform="matrix(0.25695721,0.96642278,0.96642278,-0.25695721,0,0)" />
    <g
       aria-label="2"
       id="text354"
       style="font-size:5.64444px;line-height:1.25;-inkscape-font-specification:'sans-serif, Normal';display:inline;stroke-width:0.264583">
      <path
         d="m 124.27972,175.26222 v 0.52365 h -2.70371 l 1.50757,-1.80523 q 0.28112,-0.33899 0.41066,-0.59531 0.12953,-0.25631 0.12953,-0.46577 0,-0.30042 -0.17914,-0.47129 -0.17639,-0.17364 -0.48507,-0.17364 -0.27561,0 -0.45476,0.17364 -0.17914,0.17087 -0.20119,0.45199 h -0.63114 q 0,-0.54294 0.3638,-0.8654 0.3638,-0.32522 0.97841,-0.32522 0.58429,0 0.92053,0.30041 0.33899,0.30041 0.33899,0.81856 0,0.36931 -0.19568,0.74689 -0.19292,0.37483 -0.82131,1.09141 l -0.51263,0.59531 z"
         style="font-family:'Futura Md BT';-inkscape-font-specification:'Futura Md BT';fill:#ffffff"
         id="path32893" />
    </g>
    <g
       aria-label="4"
       id="text355"
       style="font-size:5.64444px;line-height:1.25;-inkscape-font-specification:'sans-serif, Normal';display:inline;stroke-width:0.264583">
      <path
         d="m 112.0708,171.18921 -1.02802,1.44969 h 1.01148 v -1.05006 q 0,-0.0827 0.003,-0.18466 0.006,-0.10198 0.0138,-0.21497 z m -0.0165,2.72575 v -0.81855 h -1.93476 l 2.34817,-3.25768 h 0.18466 v 2.80017 h 0.49058 v 0.45751 h -0.49058 v 0.81855 z"
         style="font-family:'Futura Md BT';-inkscape-font-specification:'Futura Md BT';fill:#ffffff"
         id="path32896" />
    </g>
    <g
       aria-label="6"
       id="text356"
       style="font-size:5.64444px;line-height:1.25;-inkscape-font-specification:'sans-serif, Normal';display:inline;stroke-width:0.264583">
      <path
         d="m 103.68569,164.07141 q 0,0.36104 0.2012,0.58153 0.20119,0.22048 0.52089,0.22048 0.36105,0 0.56775,-0.21497 0.20671,-0.21497 0.20671,-0.58704 0,-0.37759 -0.20395,-0.5898 -0.20395,-0.21498 -0.56499,-0.21498 -0.32247,0 -0.52641,0.22324 -0.2012,0.22325 -0.2012,0.58154 z m 0.36656,-1.21268 q 0.13505,-0.0634 0.26458,-0.0965 0.13229,-0.0331 0.26183,-0.0331 0.54019,0 0.89021,0.36656 0.35002,0.36655 0.35002,0.93706 0,0.62287 -0.39412,1.00321 -0.39136,0.38034 -1.03352,0.38034 -0.60083,0 -0.96739,-0.37207 -0.3638,-0.37207 -0.3638,-0.97841 0,-0.64767 0.88195,-1.88791 l 0.0717,-0.0965 0.70556,-1.00045 0.50161,0.25355 z"
         style="font-family:'Futura Md BT';-inkscape-font-specification:'Futura Md BT';fill:#ffffff"
         id="path32899" />
    </g>
    <g
       aria-label="8"
       id="text357"
       style="font-size:5.64444px;line-height:1.25;-inkscape-font-specification:'sans-serif, Normal';display:inline;stroke-width:0.264583">
      <path
         d="m 104.90472,151.95034 q -0.30041,-0.12954 -0.44097,-0.339 -0.14056,-0.20946 -0.14056,-0.52365 0,-0.48507 0.34175,-0.78273 0.34176,-0.29765 0.90399,-0.29765 0.57602,0 0.91502,0.30317 0.339,0.30041 0.339,0.80477 0,0.29766 -0.14883,0.51263 -0.14607,0.21222 -0.4327,0.32246 0.33624,0.11024 0.52641,0.39136 0.19017,0.27837 0.19017,0.6587 0,0.55673 -0.36932,0.87368 -0.36656,0.31695 -1.01975,0.31695 -0.64216,0 -1.01147,-0.31695 -0.36932,-0.31695 -0.36932,-0.86265 0,-0.39688 0.18741,-0.67248 0.18742,-0.27837 0.52917,-0.38861 z m 0.678,-1.41111 q -0.28664,0 -0.452,0.15158 -0.16537,0.14883 -0.16537,0.4079 0,0.25356 0.15986,0.39688 0.16261,0.14331 0.44372,0.14331 0.28939,0 0.44924,-0.14056 0.16261,-0.14331 0.16261,-0.39963 0,-0.26182 -0.15985,-0.41065 -0.15985,-0.14883 -0.43821,-0.14883 z m -0.0138,3.11436 q 0.35554,0 0.55673,-0.18465 0.2012,-0.18742 0.2012,-0.51539 0,-0.33073 -0.2012,-0.51814 -0.20119,-0.18741 -0.55673,-0.18741 -0.34726,0 -0.54845,0.19017 -0.2012,0.19016 -0.2012,0.51538 0,0.32797 0.19844,0.51539 0.19844,0.18465 0.55121,0.18465 z"
         style="font-family:'Futura Md BT';-inkscape-font-specification:'Futura Md BT';fill:#ffffff"
         id="path32902" />
    </g>
    <g
       aria-label="10"
       id="text358"
       style="font-size:5.64444px;line-height:1.25;-inkscape-font-specification:'sans-serif, Normal';display:inline;stroke-width:0.264583">
      <path
         d="m 113.9362,147.34831 v -3.47816 h -0.83509 l 0.25355,-0.51815 h 1.1796 v 3.99631 z"
         style="font-family:'Futura Md BT';-inkscape-font-specification:'Futura Md BT';fill:#ffffff"
         id="path32905" />
      <path
         d="m 118.48096,145.40528 q 0,0.96187 -0.3886,1.50757 -0.38585,0.54295 -1.06385,0.54295 -0.68626,0 -1.06936,-0.54846 -0.38033,-0.55121 -0.38033,-1.54616 0,-0.98667 0.38585,-1.53789 0.38585,-0.55121 1.07211,-0.55121 0.69453,0 1.06936,0.55397 0.37482,0.55121 0.37482,1.57923 z m -1.46347,1.48552 q 0.40238,0 0.60358,-0.38309 0.20395,-0.38585 0.20395,-1.15204 0,-0.74414 -0.2012,-1.13275 -0.19843,-0.39136 -0.58153,-0.39136 -0.39963,0 -0.60358,0.38861 -0.20395,0.3886 -0.20395,1.14652 0,0.73588 0.2012,1.13 0.20394,0.39411 0.58153,0.39411 z"
         style="font-family:'Futura Md BT';-inkscape-font-specification:'Futura Md BT';fill:#ffffff"
         id="path32907" />
    </g>
    <rect
       style="display:inline;vector-effect:none;fill:#ffffff;fill-opacity:1;stroke:none;stroke-width:0.7;stroke-linecap:butt;stroke-linejoin:miter;stroke-miterlimit:4;stroke-dasharray:none;stroke-dashoffset:0;stroke-opacity:1;-inkscape-stroke:none;paint-order:fill markers stroke;stop-color:#000000"
       id="use359"
       width="5.6816177"
       height="0.78347296"
       x="-222.74388"
       y="2.0418599"
       inkscape:transform-center-x="1.6785326e-05"
       inkscape:transform-center-y="-20.949577"
       transform="matrix(-0.60723149,-0.79452496,-0.79452496,0.60723149,0,0)" />
    <rect
       style="display:inline;vector-effect:none;fill:#ffffff;fill-opacity:1;stroke:none;stroke-width:0.7;stroke-linecap:butt;stroke-linejoin:miter;stroke-miterlimit:4;stroke-dasharray:none;stroke-dashoffset:0;stroke-opacity:1;-inkscape-stroke:none;paint-order:fill markers stroke;stop-color:#000000"
       id="use360"
       width="5.6816177"
       height="0.78347296"
       x="-166.19261"
       y="-139.35228"
       inkscape:transform-center-x="1.6785326e-05"
       inkscape:transform-center-y="-20.949577"
       transform="matrix(0.13243648,-0.99119149,-0.99119149,-0.13243648,0,0)" />
    <rect
       style="display:inline;vector-effect:none;fill:#ffffff;fill-opacity:1;stroke:none;stroke-width:0.7;stroke-linecap:butt;stroke-linejoin:miter;stroke-miterlimit:4;stroke-dasharray:none;stroke-dashoffset:0;stroke-opacity:1;-inkscape-stroke:none;paint-order:fill markers stroke;stop-color:#000000"
       id="use361"
       width="5.6816177"
       height="0.78347296"
       x="-26.224051"
       y="-199.34526"
       inkscape:transform-center-x="1.6785326e-05"
       inkscape:transform-center-y="-20.949577"
       transform="matrix(0.79452496,-0.60723149,-0.60723149,-0.79452496,0,0)" />
    <rect
       style="display:inline;vector-effect:none;fill:#ffffff;fill-opacity:1;stroke:none;stroke-width:0.7;stroke-linecap:butt;stroke-linejoin:miter;stroke-miterlimit:4;stroke-dasharray:none;stroke-dashoffset:0;stroke-opacity:1;-inkscape-stroke:none;paint-order:fill markers stroke;stop-color:#000000"
       id="use362"
       width="5.6816177"
       height="0.78347296"
       x="115.17015"
       y="-142.79399"
       inkscape:transform-center-x="1.6785326e-05"
       inkscape:transform-center-y="-20.949577"
       transform="matrix(0.99119149,0.13243648,0.13243648,-0.99119149,0,0)" />
    <rect
       style="display:inline;vector-effect:none;fill:#ffffff;fill-opacity:1;stroke:none;stroke-width:0.7;stroke-linecap:butt;stroke-linejoin:miter;stroke-miterlimit:4;stroke-dasharray:none;stroke-dashoffset:0;stroke-opacity:1;-inkscape-stroke:none;paint-order:fill markers stroke;stop-color:#000000"
       id="use363"
       width="5.6816177"
       height="0.78347296"
       x="175.16313"
       y="-2.8254292"
       inkscape:transform-center-x="1.6785326e-05"
       inkscape:transform-center-y="-20.949577"
       transform="matrix(0.60723149,0.79452496,0.79452496,-0.60723149,0,0)" />
    <rect
       style="display:inline;vector-effect:none;fill:#ffffff;fill-opacity:1;stroke:none;stroke-width:0.7;stroke-linecap:butt;stroke-linejoin:miter;stroke-miterlimit:4;stroke-dasharray:none;stroke-dashoffset:0;stroke-opacity:1;-inkscape-stroke:none;paint-order:fill markers stroke;stop-color:#000000"
       id="use364"
       width="5.6816177"
       height="0.78347296"
       x="118.61186"
       y="138.56874"
       inkscape:transform-center-x="1.6785326e-05"
       inkscape:transform-center-y="-20.949577"
       transform="matrix(-0.13243648,0.99119149,0.99119149,0.13243648,0,0)" />
    <rect
       style="display:inline;vector-effect:none;fill:#ffffff;fill-opacity:1;stroke:none;stroke-width:0.392062;stroke-linecap:butt;stroke-linejoin:miter;stroke-miterlimit:4;stroke-dasharray:none;stroke-dashoffset:0;stroke-opacity:1;-inkscape-stroke:none;paint-order:fill markers stroke;stop-color:#000000"
       id="use358"
       width="2.9203663"
       height="0.47815835"
       x="206.65057"
       y="-64.154366"
       inkscape:transform-center-x="-16.108103"
       inkscape:transform-center-y="11.129297"
       transform="matrix(0.82333448,0.56755646,0.5688685,-0.8224285,0,0)" />
    <rect
       style="display:inline;vector-effect:none;fill:#ffffff;fill-opacity:1;stroke:none;stroke-width:0.392062;stroke-linecap:butt;stroke-linejoin:miter;stroke-miterlimit:4;stroke-dasharray:none;stroke-dashoffset:0;stroke-opacity:1;-inkscape-stroke:none;paint-order:fill markers stroke;stop-color:#000000"
       id="rect408"
       width="2.9203663"
       height="0.47815835"
       x="211.05891"
       y="-49.17334"
       inkscape:transform-center-x="-15.185253"
       inkscape:transform-center-y="12.35882"
       transform="matrix(0.77626645,0.63040495,0.63164186,-0.77526032,0,0)" />
    <rect
       style="display:inline;vector-effect:none;fill:#ffffff;fill-opacity:1;stroke:none;stroke-width:0.392062;stroke-linecap:butt;stroke-linejoin:miter;stroke-miterlimit:4;stroke-dasharray:none;stroke-dashoffset:0;stroke-opacity:1;-inkscape-stroke:none;paint-order:fill markers stroke;stop-color:#000000"
       id="rect409"
       width="2.9203663"
       height="0.47815835"
       x="214.27771"
       y="-33.890751"
       inkscape:transform-center-x="-14.168773"
       inkscape:transform-center-y="13.512149"
       transform="matrix(0.72441247,0.68936679,0.69052094,-0.7233124,0,0)" />
    <rect
       style="display:inline;vector-effect:none;fill:#ffffff;fill-opacity:1;stroke:none;stroke-width:0.392062;stroke-linecap:butt;stroke-linejoin:miter;stroke-miterlimit:4;stroke-dasharray:none;stroke-dashoffset:0;stroke-opacity:1;-inkscape-stroke:none;paint-order:fill markers stroke;stop-color:#000000"
       id="rect410"
       width="2.9203663"
       height="0.47815835"
       x="216.28712"
       y="-18.400782"
       inkscape:transform-center-x="-13.064969"
       inkscape:transform-center-y="14.58215"
       transform="matrix(0.66809226,0.74407845,0.74514273,-0.66690502,0,0)" />
    <rect
       style="display:inline;vector-effect:none;fill:#ffffff;fill-opacity:1;stroke:none;stroke-width:0.392062;stroke-linecap:butt;stroke-linejoin:miter;stroke-miterlimit:4;stroke-dasharray:none;stroke-dashoffset:0;stroke-opacity:1;-inkscape-stroke:none;paint-order:fill markers stroke;stop-color:#000000"
       id="rect411"
       width="2.9203663"
       height="0.47815835"
       x="216.63579"
       y="12.818444"
       inkscape:transform-center-x="-10.622973"
       inkscape:transform-center-y="16.446442"
       transform="matrix(0.54346742,0.83943026,0.84029571,-0.54212832,0,0)" />
    <rect
       style="display:inline;vector-effect:none;fill:#ffffff;fill-opacity:1;stroke:none;stroke-width:0.392062;stroke-linecap:butt;stroke-linejoin:miter;stroke-miterlimit:4;stroke-dasharray:none;stroke-dashoffset:0;stroke-opacity:1;-inkscape-stroke:none;paint-order:fill markers stroke;stop-color:#000000"
       id="rect412"
       width="2.9203663"
       height="0.47815835"
       x="214.97287"
       y="28.355286"
       inkscape:transform-center-x="-9.2998803"
       inkscape:transform-center-y="17.229196"
       transform="matrix(0.47593115,0.87948254,0.88024026,-0.47452827,0,0)" />
    <rect
       style="display:inline;vector-effect:none;fill:#ffffff;fill-opacity:1;stroke:none;stroke-width:0.392062;stroke-linecap:butt;stroke-linejoin:miter;stroke-miterlimit:4;stroke-dasharray:none;stroke-dashoffset:0;stroke-opacity:1;-inkscape-stroke:none;paint-order:fill markers stroke;stop-color:#000000"
       id="rect413"
       width="2.9203663"
       height="0.47815835"
       x="212.09628"
       y="43.715641"
       inkscape:transform-center-x="-7.9193984"
       inkscape:transform-center-y="17.905761"
       transform="matrix(0.40546061,0.91411252,0.91475783,-0.40400261,0,0)" />
    <rect
       style="display:inline;vector-effect:none;fill:#ffffff;fill-opacity:1;stroke:none;stroke-width:0.392062;stroke-linecap:butt;stroke-linejoin:miter;stroke-miterlimit:4;stroke-dasharray:none;stroke-dashoffset:0;stroke-opacity:1;-inkscape-stroke:none;paint-order:fill markers stroke;stop-color:#000000"
       id="rect414"
       width="2.9203663"
       height="0.47815835"
       x="208.02376"
       y="58.804897"
       inkscape:transform-center-x="-6.4901101"
       inkscape:transform-center-y="18.471909"
       transform="matrix(0.33249026,0.94310669,0.94363562,-0.33098614,0,0)" />
    <rect
       style="display:inline;vector-effect:none;fill:#ffffff;fill-opacity:1;stroke:none;stroke-width:0.392062;stroke-linecap:butt;stroke-linejoin:miter;stroke-miterlimit:4;stroke-dasharray:none;stroke-dashoffset:0;stroke-opacity:1;-inkscape-stroke:none;paint-order:fill markers stroke;stop-color:#000000"
       id="rect415"
       width="2.9203663"
       height="0.47815835"
       x="196.39854"
       y="87.800117"
       inkscape:transform-center-x="-3.5205044"
       inkscape:transform-center-y="19.259769"
       transform="matrix(0.18086237,0.98350842,0.98379554,-0.17929402,0,0)" />
    <rect
       style="display:inline;vector-effect:none;fill:#ffffff;fill-opacity:1;stroke:none;stroke-width:0.392062;stroke-linecap:butt;stroke-linejoin:miter;stroke-miterlimit:4;stroke-dasharray:none;stroke-dashoffset:0;stroke-opacity:1;-inkscape-stroke:none;paint-order:fill markers stroke;stop-color:#000000"
       id="rect416"
       width="2.9203663"
       height="0.47815835"
       x="188.91756"
       y="101.52737"
       inkscape:transform-center-x="-1.9985591"
       inkscape:transform-center-y="19.476625"
       transform="matrix(0.10313965,0.99466689,0.99483007,-0.10155361,0,0)" />
    <rect
       style="display:inline;vector-effect:none;fill:#ffffff;fill-opacity:1;stroke:none;stroke-width:0.392062;stroke-linecap:butt;stroke-linejoin:miter;stroke-miterlimit:4;stroke-dasharray:none;stroke-dashoffset:0;stroke-opacity:1;-inkscape-stroke:none;paint-order:fill markers stroke;stop-color:#000000"
       id="rect417"
       width="2.9203663"
       height="0.47815835"
       x="180.38354"
       y="114.62707"
       inkscape:transform-center-x="-0.46428132"
       inkscape:transform-center-y="19.573411"
       transform="matrix(0.02478104,0.9996929,0.99973114,-0.02318709,0,0)" />
    <rect
       style="display:inline;vector-effect:none;fill:#ffffff;fill-opacity:1;stroke:none;stroke-width:0.392062;stroke-linecap:butt;stroke-linejoin:miter;stroke-miterlimit:4;stroke-dasharray:none;stroke-dashoffset:0;stroke-opacity:1;-inkscape-stroke:none;paint-order:fill markers stroke;stop-color:#000000"
       id="rect418"
       width="2.9203663"
       height="0.47815835"
       x="170.84904"
       y="127.01841"
       inkscape:transform-center-x="1.0728973"
       inkscape:transform-center-y="19.54945"
       transform="matrix(-0.05373035,0.99855548,0.99846854,0.05532239,0,0)" />
    <rect
       style="display:inline;vector-effect:none;fill:#ffffff;fill-opacity:1;stroke:none;stroke-width:0.392062;stroke-linecap:butt;stroke-linejoin:miter;stroke-miterlimit:4;stroke-dasharray:none;stroke-dashoffset:0;stroke-opacity:1;-inkscape-stroke:none;paint-order:fill markers stroke;stop-color:#000000"
       id="rect419"
       width="2.9203663"
       height="0.47815835"
       x="149.01988"
       y="149.37549"
       inkscape:transform-center-x="4.1178763"
       inkscape:transform-center-y="19.140984"
       transform="matrix(-0.20927733,0.97785633,0.97752141,0.21083618,0,0)" />
    <rect
       style="display:inline;vector-effect:none;fill:#ffffff;fill-opacity:1;stroke:none;stroke-width:0.392062;stroke-linecap:butt;stroke-linejoin:miter;stroke-miterlimit:4;stroke-dasharray:none;stroke-dashoffset:0;stroke-opacity:1;-inkscape-stroke:none;paint-order:fill markers stroke;stop-color:#000000"
       id="rect420"
       width="2.9203663"
       height="0.47815835"
       x="136.85973"
       y="159.20331"
       inkscape:transform-center-x="5.6069981"
       inkscape:transform-center-y="18.758912"
       transform="matrix(-0.28535392,0.95842221,0.95796602,0.28688168,0,0)" />
    <rect
       style="display:inline;vector-effect:none;fill:#ffffff;fill-opacity:1;stroke:none;stroke-width:0.392062;stroke-linecap:butt;stroke-linejoin:miter;stroke-miterlimit:4;stroke-dasharray:none;stroke-dashoffset:0;stroke-opacity:1;-inkscape-stroke:none;paint-order:fill markers stroke;stop-color:#000000"
       id="rect421"
       width="2.9203663"
       height="0.47815835"
       x="123.96749"
       y="168.048"
       inkscape:transform-center-x="7.061532"
       inkscape:transform-center-y="18.261192"
       transform="matrix(-0.35967121,0.93307911,0.93250445,0.36115847,0,0)" />
    <rect
       style="display:inline;vector-effect:none;fill:#ffffff;fill-opacity:1;stroke:none;stroke-width:0.392062;stroke-linecap:butt;stroke-linejoin:miter;stroke-miterlimit:4;stroke-dasharray:none;stroke-dashoffset:0;stroke-opacity:1;-inkscape-stroke:none;paint-order:fill markers stroke;stop-color:#000000"
       id="rect422"
       width="2.9203663"
       height="0.47815835"
       x="110.42262"
       y="175.85501"
       inkscape:transform-center-x="8.4725148"
       inkscape:transform-center-y="17.650831"
       transform="matrix(-0.43177101,0.90198326,0.90129369,0.43320859,0,0)" />
    <rect
       style="display:inline;vector-effect:none;fill:#ffffff;fill-opacity:1;stroke:none;stroke-width:0.392062;stroke-linecap:butt;stroke-linejoin:miter;stroke-miterlimit:4;stroke-dasharray:none;stroke-dashoffset:0;stroke-opacity:1;-inkscape-stroke:none;paint-order:fill markers stroke;stop-color:#000000"
       id="rect423"
       width="2.9203663"
       height="0.47815835"
       x="81.712685"
       y="188.1702"
       inkscape:transform-center-x="11.129402"
       inkscape:transform-center-y="16.108124"
       transform="matrix(-0.56755646,0.82333448,0.82242852,0.56886847,0,0)" />
    <rect
       style="display:inline;vector-effect:none;fill:#ffffff;fill-opacity:1;stroke:none;stroke-width:0.392062;stroke-linecap:butt;stroke-linejoin:miter;stroke-miterlimit:4;stroke-dasharray:none;stroke-dashoffset:0;stroke-opacity:1;-inkscape-stroke:none;paint-order:fill markers stroke;stop-color:#000000"
       id="rect424"
       width="2.9203663"
       height="0.47815835"
       x="66.724609"
       y="192.60242"
       inkscape:transform-center-x="12.358921"
       inkscape:transform-center-y="15.185267"
       transform="matrix(-0.63040495,0.77626645,0.77526034,0.63164183,0,0)" />
    <rect
       style="display:inline;vector-effect:none;fill:#ffffff;fill-opacity:1;stroke:none;stroke-width:0.392062;stroke-linecap:butt;stroke-linejoin:miter;stroke-miterlimit:4;stroke-dasharray:none;stroke-dashoffset:0;stroke-opacity:1;-inkscape-stroke:none;paint-order:fill markers stroke;stop-color:#000000"
       id="rect425"
       width="2.9203663"
       height="0.47815835"
       x="51.436848"
       y="195.8456"
       inkscape:transform-center-x="13.512242"
       inkscape:transform-center-y="14.168778"
       transform="matrix(-0.68936679,0.72441247,0.72331242,0.69052092,0,0)" />
    <rect
       style="display:inline;vector-effect:none;fill:#ffffff;fill-opacity:1;stroke:none;stroke-width:0.392062;stroke-linecap:butt;stroke-linejoin:miter;stroke-miterlimit:4;stroke-dasharray:none;stroke-dashoffset:0;stroke-opacity:1;-inkscape-stroke:none;paint-order:fill markers stroke;stop-color:#000000"
       id="rect426"
       width="2.9203663"
       height="0.47815835"
       x="35.943691"
       y="197.87971"
       inkscape:transform-center-x="14.58226"
       inkscape:transform-center-y="13.064954"
       transform="matrix(-0.74407845,0.66809226,0.66690504,0.74514271,0,0)" />
    <rect
       style="display:inline;vector-effect:none;fill:#ffffff;fill-opacity:1;stroke:none;stroke-width:0.392062;stroke-linecap:butt;stroke-linejoin:miter;stroke-miterlimit:4;stroke-dasharray:none;stroke-dashoffset:0;stroke-opacity:1;-inkscape-stroke:none;paint-order:fill markers stroke;stop-color:#000000"
       id="rect427"
       width="2.9203663"
       height="0.47815835"
       x="4.7238564"
       y="198.27814"
       inkscape:transform-center-x="16.446522"
       inkscape:transform-center-y="10.622929"
       transform="matrix(-0.83943026,0.54346742,0.54212834,0.8402957,0,0)" />
    <rect
       style="display:inline;vector-effect:none;fill:#ffffff;fill-opacity:1;stroke:none;stroke-width:0.392062;stroke-linecap:butt;stroke-linejoin:miter;stroke-miterlimit:4;stroke-dasharray:none;stroke-dashoffset:0;stroke-opacity:1;-inkscape-stroke:none;paint-order:fill markers stroke;stop-color:#000000"
       id="rect428"
       width="2.9203663"
       height="0.47815835"
       x="-10.810325"
       y="196.63997"
       inkscape:transform-center-x="17.229291"
       inkscape:transform-center-y="9.2997881"
       transform="matrix(-0.87948254,0.47593115,0.4745283,0.88024025,0,0)" />
    <rect
       style="display:inline;vector-effect:none;fill:#ffffff;fill-opacity:1;stroke:none;stroke-width:0.392062;stroke-linecap:butt;stroke-linejoin:miter;stroke-miterlimit:4;stroke-dasharray:none;stroke-dashoffset:0;stroke-opacity:1;-inkscape-stroke:none;paint-order:fill markers stroke;stop-color:#000000"
       id="rect429"
       width="2.9203663"
       height="0.47815835"
       x="-26.166111"
       y="193.78786"
       inkscape:transform-center-x="17.905869"
       inkscape:transform-center-y="7.9193211"
       transform="matrix(-0.91411252,0.40546061,0.40400263,0.91475782,0,0)" />
    <rect
       style="display:inline;vector-effect:none;fill:#ffffff;fill-opacity:1;stroke:none;stroke-width:0.392062;stroke-linecap:butt;stroke-linejoin:miter;stroke-miterlimit:4;stroke-dasharray:none;stroke-dashoffset:0;stroke-opacity:1;-inkscape-stroke:none;paint-order:fill markers stroke;stop-color:#000000"
       id="rect430"
       width="2.9203663"
       height="0.47815835"
       x="-41.248913"
       y="189.73936"
       inkscape:transform-center-x="18.472007"
       inkscape:transform-center-y="6.4900045"
       transform="matrix(-0.94310669,0.33249026,0.33098616,0.94363561,0,0)" />
    <rect
       style="display:inline;vector-effect:none;fill:#ffffff;fill-opacity:1;stroke:none;stroke-width:0.392062;stroke-linecap:butt;stroke-linejoin:miter;stroke-miterlimit:4;stroke-dasharray:none;stroke-dashoffset:0;stroke-opacity:1;-inkscape-stroke:none;paint-order:fill markers stroke;stop-color:#000000"
       id="rect431"
       width="2.9203663"
       height="0.47815835"
       x="-70.225731"
       y="178.16042"
       inkscape:transform-center-x="19.259796"
       inkscape:transform-center-y="3.5204726"
       transform="matrix(-0.98350842,0.18086237,0.17929404,0.98379553,0,0)" />
    <rect
       style="display:inline;vector-effect:none;fill:#ffffff;fill-opacity:1;stroke:none;stroke-width:0.392062;stroke-linecap:butt;stroke-linejoin:miter;stroke-miterlimit:4;stroke-dasharray:none;stroke-dashoffset:0;stroke-opacity:1;-inkscape-stroke:none;paint-order:fill markers stroke;stop-color:#000000"
       id="rect432"
       width="2.9203663"
       height="0.47815835"
       x="-83.941109"
       y="170.70128"
       inkscape:transform-center-x="19.476602"
       inkscape:transform-center-y="1.9984916"
       transform="matrix(-0.99466689,0.10313965,0.10155363,0.99483007,0,0)" />
    <rect
       style="display:inline;vector-effect:none;fill:#ffffff;fill-opacity:1;stroke:none;stroke-width:0.392062;stroke-linecap:butt;stroke-linejoin:miter;stroke-miterlimit:4;stroke-dasharray:none;stroke-dashoffset:0;stroke-opacity:1;-inkscape-stroke:none;paint-order:fill markers stroke;stop-color:#000000"
       id="rect433"
       width="2.9203663"
       height="0.47815835"
       x="-97.027222"
       y="162.18808"
       inkscape:transform-center-x="19.573354"
       inkscape:transform-center-y="0.46417622"
       transform="matrix(-0.9996929,0.02478104,0.02318711,0.99973114,0,0)" />
    <rect
       style="display:inline;vector-effect:none;fill:#ffffff;fill-opacity:1;stroke:none;stroke-width:0.392062;stroke-linecap:butt;stroke-linejoin:miter;stroke-miterlimit:4;stroke-dasharray:none;stroke-dashoffset:0;stroke-opacity:1;-inkscape-stroke:none;paint-order:fill markers stroke;stop-color:#000000"
       id="rect434"
       width="2.9203663"
       height="0.47815835"
       x="-109.40346"
       y="152.67337"
       inkscape:transform-center-x="19.549393"
       inkscape:transform-center-y="-1.0729542"
       transform="matrix(-0.99855548,-0.05373035,-0.05532237,0.99846854,0,0)" />
    <rect
       style="display:inline;vector-effect:none;fill:#ffffff;fill-opacity:1;stroke:none;stroke-width:0.392062;stroke-linecap:butt;stroke-linejoin:miter;stroke-miterlimit:4;stroke-dasharray:none;stroke-dashoffset:0;stroke-opacity:1;-inkscape-stroke:none;paint-order:fill markers stroke;stop-color:#000000"
       id="rect435"
       width="2.9203663"
       height="0.47815835"
       x="-131.72572"
       y="130.87978"
       inkscape:transform-center-x="19.140867"
       inkscape:transform-center-y="-4.1179459"
       transform="matrix(-0.97785633,-0.20927733,-0.21083616,0.97752141,0,0)" />
    <rect
       style="display:inline;vector-effect:none;fill:#ffffff;fill-opacity:1;stroke:none;stroke-width:0.392062;stroke-linecap:butt;stroke-linejoin:miter;stroke-miterlimit:4;stroke-dasharray:none;stroke-dashoffset:0;stroke-opacity:1;-inkscape-stroke:none;paint-order:fill markers stroke;stop-color:#000000"
       id="rect436"
       width="2.9203663"
       height="0.47815835"
       x="-141.53421"
       y="118.73523"
       inkscape:transform-center-x="18.758752"
       inkscape:transform-center-y="-5.6070398"
       transform="matrix(-0.95842221,-0.28535392,-0.28688167,0.95796603,0,0)" />
    <rect
       style="display:inline;vector-effect:none;fill:#ffffff;fill-opacity:1;stroke:none;stroke-width:0.392062;stroke-linecap:butt;stroke-linejoin:miter;stroke-miterlimit:4;stroke-dasharray:none;stroke-dashoffset:0;stroke-opacity:1;-inkscape-stroke:none;paint-order:fill markers stroke;stop-color:#000000"
       id="rect437"
       width="2.9203663"
       height="0.47815835"
       x="-150.35838"
       y="105.85703"
       inkscape:transform-center-x="18.260974"
       inkscape:transform-center-y="-7.0615623"
       transform="matrix(-0.93307911,-0.35967121,-0.36115845,0.93250446,0,0)" />
    <rect
       style="display:inline;vector-effect:none;fill:#ffffff;fill-opacity:1;stroke:none;stroke-width:0.392062;stroke-linecap:butt;stroke-linejoin:miter;stroke-miterlimit:4;stroke-dasharray:none;stroke-dashoffset:0;stroke-opacity:1;-inkscape-stroke:none;paint-order:fill markers stroke;stop-color:#000000"
       id="rect438"
       width="2.9203663"
       height="0.47815835"
       x="-158.1438"
       y="92.324631"
       inkscape:transform-center-x="17.650647"
       inkscape:transform-center-y="-8.4725237"
       transform="matrix(-0.90198326,-0.43177101,-0.43320857,0.9012937,0,0)" />
    <rect
       style="display:inline;vector-effect:none;fill:#ffffff;fill-opacity:1;stroke:none;stroke-width:0.392062;stroke-linecap:butt;stroke-linejoin:miter;stroke-miterlimit:4;stroke-dasharray:none;stroke-dashoffset:0;stroke-opacity:1;-inkscape-stroke:none;paint-order:fill markers stroke;stop-color:#000000"
       id="rect439"
       width="2.9203663"
       height="0.47815835"
       x="-170.41324"
       y="63.634346"
       inkscape:transform-center-x="16.107963"
       inkscape:transform-center-y="-11.129336"
       transform="matrix(-0.82333448,-0.56755646,-0.56886845,0.82242853,0,0)" />
    <rect
       style="display:inline;vector-effect:none;fill:#ffffff;fill-opacity:1;stroke:none;stroke-width:0.392062;stroke-linecap:butt;stroke-linejoin:miter;stroke-miterlimit:4;stroke-dasharray:none;stroke-dashoffset:0;stroke-opacity:1;-inkscape-stroke:none;paint-order:fill markers stroke;stop-color:#000000"
       id="rect440"
       width="2.9203663"
       height="0.47815835"
       x="-174.82156"
       y="48.65332"
       inkscape:transform-center-x="15.185116"
       inkscape:transform-center-y="-12.358842"
       transform="matrix(-0.77626645,-0.63040495,-0.63164182,0.77526035,0,0)" />
    <rect
       style="display:inline;vector-effect:none;fill:#ffffff;fill-opacity:1;stroke:none;stroke-width:0.392062;stroke-linecap:butt;stroke-linejoin:miter;stroke-miterlimit:4;stroke-dasharray:none;stroke-dashoffset:0;stroke-opacity:1;-inkscape-stroke:none;paint-order:fill markers stroke;stop-color:#000000"
       id="rect441"
       width="2.9203663"
       height="0.47815835"
       x="-178.04036"
       y="33.370731"
       inkscape:transform-center-x="14.168654"
       inkscape:transform-center-y="-13.512151"
       transform="matrix(-0.72441247,-0.68936679,-0.69052091,0.72331243,0,0)" />
    <rect
       style="display:inline;vector-effect:none;fill:#ffffff;fill-opacity:1;stroke:none;stroke-width:0.392062;stroke-linecap:butt;stroke-linejoin:miter;stroke-miterlimit:4;stroke-dasharray:none;stroke-dashoffset:0;stroke-opacity:1;-inkscape-stroke:none;paint-order:fill markers stroke;stop-color:#000000"
       id="rect442"
       width="2.9203663"
       height="0.47815835"
       x="-180.04977"
       y="17.880768"
       inkscape:transform-center-x="13.064809"
       inkscape:transform-center-y="-14.582174"
       transform="matrix(-0.66809226,-0.74407845,-0.74514271,0.66690505,0,0)" />
    <rect
       style="display:inline;vector-effect:none;fill:#ffffff;fill-opacity:1;stroke:none;stroke-width:0.392062;stroke-linecap:butt;stroke-linejoin:miter;stroke-miterlimit:4;stroke-dasharray:none;stroke-dashoffset:0;stroke-opacity:1;-inkscape-stroke:none;paint-order:fill markers stroke;stop-color:#000000"
       id="rect443"
       width="2.9203663"
       height="0.47815835"
       x="-180.39844"
       y="-13.33847"
       inkscape:transform-center-x="10.622787"
       inkscape:transform-center-y="-16.446418"
       transform="matrix(-0.54346742,-0.83943026,-0.8402957,0.54212834,0,0)" />
    <rect
       style="display:inline;vector-effect:none;fill:#ffffff;fill-opacity:1;stroke:none;stroke-width:0.392062;stroke-linecap:butt;stroke-linejoin:miter;stroke-miterlimit:4;stroke-dasharray:none;stroke-dashoffset:0;stroke-opacity:1;-inkscape-stroke:none;paint-order:fill markers stroke;stop-color:#000000"
       id="rect444"
       width="2.9203663"
       height="0.47815835"
       x="-178.73553"
       y="-28.875299"
       inkscape:transform-center-x="9.2996496"
       inkscape:transform-center-y="-17.229183"
       transform="matrix(-0.47593115,-0.87948254,-0.88024025,0.4745283,0,0)" />
    <rect
       style="display:inline;vector-effect:none;fill:#ffffff;fill-opacity:1;stroke:none;stroke-width:0.392062;stroke-linecap:butt;stroke-linejoin:miter;stroke-miterlimit:4;stroke-dasharray:none;stroke-dashoffset:0;stroke-opacity:1;-inkscape-stroke:none;paint-order:fill markers stroke;stop-color:#000000"
       id="rect445"
       width="2.9203663"
       height="0.47815835"
       x="-175.85893"
       y="-44.235661"
       inkscape:transform-center-x="7.9192204"
       inkscape:transform-center-y="-17.905707"
       transform="matrix(-0.40546061,-0.91411252,-0.91475782,0.40400263,0,0)" />
    <rect
       style="display:inline;vector-effect:none;fill:#ffffff;fill-opacity:1;stroke:none;stroke-width:0.392062;stroke-linecap:butt;stroke-linejoin:miter;stroke-miterlimit:4;stroke-dasharray:none;stroke-dashoffset:0;stroke-opacity:1;-inkscape-stroke:none;paint-order:fill markers stroke;stop-color:#000000"
       id="rect446"
       width="2.9203663"
       height="0.47815835"
       x="-171.78641"
       y="-59.324921"
       inkscape:transform-center-x="6.4899468"
       inkscape:transform-center-y="-18.471849"
       transform="matrix(-0.33249026,-0.94310669,-0.94363561,0.33098616,0,0)" />
    <rect
       style="display:inline;vector-effect:none;fill:#ffffff;fill-opacity:1;stroke:none;stroke-width:0.392062;stroke-linecap:butt;stroke-linejoin:miter;stroke-miterlimit:4;stroke-dasharray:none;stroke-dashoffset:0;stroke-opacity:1;-inkscape-stroke:none;paint-order:fill markers stroke;stop-color:#000000"
       id="rect447"
       width="2.9203663"
       height="0.47815835"
       x="-160.16119"
       y="-88.320137"
       inkscape:transform-center-x="3.520468"
       inkscape:transform-center-y="-19.259681"
       transform="matrix(-0.18086237,-0.98350842,-0.98379553,0.17929404,0,0)" />
    <rect
       style="display:inline;vector-effect:none;fill:#ffffff;fill-opacity:1;stroke:none;stroke-width:0.392062;stroke-linecap:butt;stroke-linejoin:miter;stroke-miterlimit:4;stroke-dasharray:none;stroke-dashoffset:0;stroke-opacity:1;-inkscape-stroke:none;paint-order:fill markers stroke;stop-color:#000000"
       id="rect448"
       width="2.9203663"
       height="0.47815835"
       x="-152.68021"
       y="-102.04739"
       inkscape:transform-center-x="1.9985128"
       inkscape:transform-center-y="-19.476511"
       transform="matrix(-0.10313965,-0.99466689,-0.99483007,0.10155363,0,0)" />
    <rect
       style="display:inline;vector-effect:none;fill:#ffffff;fill-opacity:1;stroke:none;stroke-width:0.392062;stroke-linecap:butt;stroke-linejoin:miter;stroke-miterlimit:4;stroke-dasharray:none;stroke-dashoffset:0;stroke-opacity:1;-inkscape-stroke:none;paint-order:fill markers stroke;stop-color:#000000"
       id="rect449"
       width="2.9203663"
       height="0.47815835"
       x="-144.14619"
       y="-115.14709"
       inkscape:transform-center-x="0.46423999"
       inkscape:transform-center-y="-19.573253"
       transform="matrix(-0.02478104,-0.9996929,-0.99973114,0.02318711,0,0)" />
    <rect
       style="display:inline;vector-effect:none;fill:#ffffff;fill-opacity:1;stroke:none;stroke-width:0.392062;stroke-linecap:butt;stroke-linejoin:miter;stroke-miterlimit:4;stroke-dasharray:none;stroke-dashoffset:0;stroke-opacity:1;-inkscape-stroke:none;paint-order:fill markers stroke;stop-color:#000000"
       id="rect450"
       width="2.9203663"
       height="0.47815835"
       x="-134.61169"
       y="-127.53843"
       inkscape:transform-center-x="-1.0728565"
       inkscape:transform-center-y="-19.54939"
       transform="matrix(0.05373035,-0.99855548,-0.99846854,-0.05532237,0,0)" />
  </g>
</svg>
