<?xml version="1.0" encoding="UTF-8" standalone="no"?>
<!-- Created with Inkscape (http://www.inkscape.org/) -->

<svg
   width="75mm"
   height="75mm"
   viewBox="0 0 75 75"
   version="1.1"
   id="svg1"
   inkscape:version="1.2.2 (732a01da63, 2022-12-09)"
   sodipodi:docname="flaps-gauge.svg"
   xmlns:inkscape="http://www.inkscape.org/namespaces/inkscape"
   xmlns:sodipodi="http://sodipodi.sourceforge.net/DTD/sodipodi-0.dtd"
   xmlns="http://www.w3.org/2000/svg"
   xmlns:svg="http://www.w3.org/2000/svg">
  <sodipodi:namedview
     id="namedview1"
     pagecolor="#ffffff"
     bordercolor="#666666"
     borderopacity="1.0"
     inkscape:showpageshadow="2"
     inkscape:pageopacity="0.0"
     inkscape:pagecheckerboard="0"
     inkscape:deskcolor="#d1d1d1"
     inkscape:document-units="mm"
     inkscape:zoom="2"
     inkscape:cx="74.5"
     inkscape:cy="178.25"
     inkscape:window-width="1918"
     inkscape:window-height="1120"
     inkscape:window-x="1913"
     inkscape:window-y="0"
     inkscape:window-maximized="0"
     inkscape:current-layer="layer1"
     inkscape:pageshadow="2"
     showgrid="false" />
  <defs
     id="defs1" />
  <g
     inkscape:label="Layer 1"
     inkscape:groupmode="layer"
     id="layer1"
     transform="translate(-78.633899,-122.05129)">
    <path
       id="rect14"
       style="fill:#1a1a1a;stroke:#ff0000;stroke-width:0.300003;stroke-linecap:round;stroke-linejoin:round;stroke-miterlimit:5.77902;paint-order:markers stroke fill;shape-rendering:crispEdges;stop-color:#000000"
       d="m 116.25465,186.33069 v 0 c 8e-5,0 -5e-5,-0.003 0,-0.003 14.6778,-0.0646 26.48897,-11.81943 26.65056,-26.47332 0.002,0.003 0.007,0.006 0.008,0.008 v -0.3113 -22.49939 c 0,-2.37093 -1.90892,-4.27985 -4.27985,-4.27985 h -22.49888 -0.002 v 0 c -14.83454,0 -26.777078,11.94276 -26.778195,26.77718 v 0.003 0 22.4989 c 0,2.37088 1.908394,4.27983 4.279319,4.27983 h 22.499876 v 0 z" />
    <circle
       style="fill:#000000;fill-opacity:1;stroke:#4d4d4d;stroke-width:0.575;stroke-linecap:round;stroke-miterlimit:5.77902;stroke-dasharray:none;paint-order:markers stroke fill;shape-rendering:crispEdges;stop-color:#000000"
       id="path45-0"
       cx="116.13422"
       cy="159.55128"
       r="24.591871" />
    <text
       xml:space="preserve"
       style="font-style:normal;font-variant:normal;font-weight:normal;font-stretch:normal;font-size:3.53444px;line-height:1.25;font-family:'Futura MdCn BT';-inkscape-font-specification:'Futura MdCn BT';fill:#ffffff;stroke-width:0.574563"
       x="98.557716"
       y="174.60324"
       id="text48"><tspan
         sodipodi:role="line"
         id="tspan48"
         style="font-style:normal;font-variant:normal;font-weight:normal;font-stretch:normal;font-size:3.53444px;font-family:'Futura MdCn BT';-inkscape-font-specification:'Futura MdCn BT';fill:#ffffff;stroke-width:0.574563"
         x="98.557716"
         y="174.60324">FLAPS</tspan></text>
    <text
       xml:space="preserve"
       style="font-style:normal;font-variant:normal;font-weight:normal;font-stretch:normal;font-size:4.49842px;line-height:1.25;font-family:'Futura Hv BT';-inkscape-font-specification:'Futura Hv BT';fill:#ffffff;stroke-width:0.574563"
       x="113.22453"
       y="182.10092"
       id="text49"><tspan
         sodipodi:role="line"
         id="tspan49"
         style="font-style:normal;font-variant:normal;font-weight:normal;font-stretch:normal;font-size:4.49842px;font-family:'Futura Md BT';-inkscape-font-specification:'Futura Md BT';fill:#ffffff;stroke-width:0.574563"
         x="113.22453"
         y="182.10092">40</tspan></text>
    <text
       xml:space="preserve"
       style="font-style:normal;font-variant:normal;font-weight:normal;font-stretch:normal;font-size:4.49842px;line-height:1.25;font-family:'Futura Md BT';-inkscape-font-specification:'Futura Md BT';fill:#ffffff;stroke-width:0.574563"
       x="123.57448"
       y="179.62915"
       id="text50"><tspan
         sodipodi:role="line"
         id="tspan50"
         style="font-style:normal;font-variant:normal;font-weight:normal;font-stretch:normal;font-size:4.49842px;font-family:'Futura Md BT';-inkscape-font-specification:'Futura Md BT';fill:#ffffff;stroke-width:0.574563"
         x="123.57448"
         y="179.62915">30</tspan></text>
    <text
       xml:space="preserve"
       style="font-style:normal;font-variant:normal;font-weight:normal;font-stretch:normal;font-size:4.49842px;line-height:1.25;font-family:'Futura Md BT';-inkscape-font-specification:'Futura Md BT';fill:#ffffff;stroke-width:0.574563"
       x="131.73891"
       y="172.09123"
       id="text51"><tspan
         sodipodi:role="line"
         id="tspan51"
         style="font-style:normal;font-variant:normal;font-weight:normal;font-stretch:normal;font-size:4.49842px;font-family:'Futura Md BT';-inkscape-font-specification:'Futura Md BT';fill:#ffffff;stroke-width:0.574563"
         x="131.73891"
         y="172.09123">25</tspan></text>
    <text
       xml:space="preserve"
       style="font-style:normal;font-variant:normal;font-weight:normal;font-stretch:normal;font-size:4.49842px;line-height:1.25;font-family:'Futura Md BT';-inkscape-font-specification:'Futura Md BT';fill:#ffffff;stroke-width:0.574563"
       x="134.62392"
       y="161.99409"
       id="text52"><tspan
         sodipodi:role="line"
         id="tspan52"
         style="font-style:normal;font-variant:normal;font-weight:normal;font-stretch:normal;font-size:4.49842px;font-family:'Futura Md BT';-inkscape-font-specification:'Futura Md BT';fill:#ffffff;stroke-width:0.574563"
         x="134.62392"
         y="161.99409"
         dx="0 -0.90369439">15</tspan></text>
    <text
       xml:space="preserve"
       style="font-style:normal;font-variant:normal;font-weight:normal;font-stretch:normal;font-size:4.49842px;line-height:1.25;font-family:'Futura Md BT';-inkscape-font-specification:'Futura Md BT';fill:#ffffff;stroke-width:0.574563"
       x="131.68048"
       y="151.04703"
       id="text53"><tspan
         sodipodi:role="line"
         id="tspan53"
         style="font-style:normal;font-variant:normal;font-weight:normal;font-stretch:normal;font-size:4.49842px;font-family:'Futura Md BT';-inkscape-font-specification:'Futura Md BT';fill:#ffffff;stroke-width:0.574563"
         x="131.68048"
         y="151.04703"
         dx="0.030123159 -0.72295564">10</tspan></text>
    <text
       xml:space="preserve"
       style="font-style:normal;font-variant:normal;font-weight:normal;font-stretch:normal;font-size:4.49842px;line-height:1.25;font-family:'Futura Md BT';-inkscape-font-specification:'Futura Md BT';fill:#ffffff;stroke-width:0.574563"
       x="123.3521"
       y="142.17265"
       id="text54"><tspan
         sodipodi:role="line"
         id="tspan54"
         style="font-style:normal;font-variant:normal;font-weight:normal;font-stretch:normal;font-size:4.49842px;font-family:'Futura Md BT';-inkscape-font-specification:'Futura Md BT';fill:#ffffff;stroke-width:0.574563"
         x="123.3521"
         y="142.17265">5</tspan></text>
    <text
       xml:space="preserve"
       style="font-style:normal;font-variant:normal;font-weight:normal;font-stretch:normal;font-size:4.49842px;line-height:1.25;font-family:'Futura Md BT';-inkscape-font-specification:'Futura Md BT';fill:#ffffff;stroke-width:0.574563"
       x="110.74606"
       y="140.83246"
       id="text55"><tspan
         sodipodi:role="line"
         id="tspan55"
         style="font-style:normal;font-variant:normal;font-weight:normal;font-stretch:normal;font-size:4.49842px;font-family:'Futura Md BT';-inkscape-font-specification:'Futura Md BT';fill:#ffffff;stroke-width:0.574563"
         x="110.74606"
         y="140.83246">2</tspan></text>
    <text
       xml:space="preserve"
       style="font-style:normal;font-variant:normal;font-weight:normal;font-stretch:normal;font-size:4.49842px;line-height:1.25;font-family:'Futura Md BT';-inkscape-font-specification:'Futura Md BT';fill:#ffffff;stroke-width:0.574563"
       x="98.272957"
       y="148.76253"
       id="text56"><tspan
         sodipodi:role="line"
         id="tspan56"
         style="font-style:normal;font-variant:normal;font-weight:normal;font-stretch:normal;font-size:4.49842px;font-family:'Futura Md BT';-inkscape-font-specification:'Futura Md BT';fill:#ffffff;stroke-width:0.574563"
         x="98.272957"
         y="148.76253">1</tspan></text>
    <text
       xml:space="preserve"
       style="font-style:normal;font-variant:normal;font-weight:normal;font-stretch:normal;font-size:4.49842px;line-height:1.25;font-family:'Futura MdCn BT';-inkscape-font-specification:'Futura MdCn BT';fill:#ffffff;stroke-width:0.574563"
       x="93.586998"
       y="160.87071"
       id="text57"><tspan
         sodipodi:role="line"
         id="tspan57"
         style="font-style:normal;font-variant:normal;font-weight:normal;font-stretch:normal;font-size:4.49842px;font-family:'Futura MdCn BT';-inkscape-font-specification:'Futura MdCn BT';fill:#ffffff;stroke-width:0.574563"
         x="93.586998"
         y="160.87071">UP</tspan></text>
    <path
       id="path113"
       style="color:#000000;fill:#ffffff;stroke-width:0.253997;stroke-linecap:round;stroke-linejoin:bevel;stroke-miterlimit:5.77902;-inkscape-stroke:none;paint-order:markers stroke fill;shape-rendering:crispEdges"
       d="m 114.75372,141.85189 c -1.42489,0.11006 -2.83211,0.39038 -4.19045,0.83406 l 0.009,2.35076 a 15.613053,15.613053 0 0 1 2.21744,-0.65732 c -0.0957,-1.13804 -0.14408,-1.95853 -0.076,-1.97249 0.0679,-0.0139 0.34903,0.76678 0.70693,1.84123 a 15.613053,15.613053 0 0 1 2.20762,-0.26459 z m 5.98103,0.54519 -1.22474,1.89652 a 15.613053,15.613053 0 0 1 2.85203,0.9524 c 0.58604,-0.96847 1.03193,-1.66727 1.09502,-1.63866 0.0631,0.0286 -0.16764,0.82394 -0.50953,1.90479 a 15.613053,15.613053 0 0 1 2.56005,1.50586 l 0.61702,-2.18592 c -1.6497,-1.10382 -3.47092,-1.92689 -5.38985,-2.43499 z m -17.76274,5.14594 c -0.88354,0.95222 -1.66064,1.99753 -2.31872,3.11764 l 1.62884,1.82676 a 15.613053,15.613053 0 0 1 1.17408,-1.92443 c -0.80415,-0.75341 -1.37053,-1.31187 -1.33015,-1.36684 0.0407,-0.0554 0.74426,0.31776 1.71773,0.86713 a 15.613053,15.613053 0 0 1 1.28622,-1.51308 z m 27.32494,1.16789 -2.15283,0.78393 a 15.613053,15.613053 0 0 1 1.56631,2.28926 c 1.05506,-0.42552 1.83418,-0.71822 1.86758,-0.65732 0.0333,0.0607 -0.63583,0.56306 -1.55391,1.22008 a 15.613053,15.613053 0 0 1 1.00563,2.31872 l 1.81487,-1.49448 c -0.63108,-1.60095 -1.48916,-3.10323 -2.54765,-4.46019 z m 1.32809,8.42274 a 15.613053,15.613053 0 0 1 0.1912,2.41742 15.613053,15.613053 0 0 1 -0.0496,0.63563 c 1.11767,0.20396 1.94373,0.37408 1.93942,0.44338 -0.004,0.0694 -0.85298,0.13659 -1.98954,0.20154 a 15.613053,15.613053 0 0 1 -0.56379,3.12642 l 2.56831,-0.55035 c 0.39695,-1.91256 0.47927,-3.87654 0.24392,-5.81567 z m -30.85755,0.16382 -2.482536,0.51004 c -0.141935,1.29976 -0.141155,2.61217 0.0026,3.91191 l 2.554886,0.52296 a 15.613053,15.613053 0 0 1 -0.22584,-2.16731 c -1.154671,-0.12213 -1.880153,-0.22734 -1.881021,-0.29765 -8.2e-4,-0.068 0.778081,-0.19241 1.863971,-0.33745 a 15.613053,15.613053 0 0 1 0.16795,-2.1425 z m 29.97181,7.83363 a 15.613053,15.613053 0 0 1 -1.41025,2.76003 c 0.86942,0.74244 1.50785,1.31252 1.46917,1.37046 -0.0385,0.0577 -0.80738,-0.31131 -1.82005,-0.82475 a 15.613053,15.613053 0 0 1 -1.76785,2.18281 l 2.38022,1.04438 c 1.20842,-1.3574 2.20441,-2.89055 2.95279,-4.54649 z m -4.80745,6.58047 a 15.613053,15.613053 0 0 1 -2.13269,1.40974 c 0.40901,1.05848 0.69895,1.85994 0.63769,1.89239 -0.0614,0.0325 -0.56317,-0.6583 -1.2113,-1.59267 a 15.613053,15.613053 0 0 1 -2.6417,1.08572 l 1.66088,2.13837 c 1.61508,-0.58402 3.13838,-1.39715 4.52272,-2.4138 z m -12.84832,3.09801 0.46044,2.71817 c 1.53334,0.22388 3.0891,0.24794 4.62866,0.0724 l 0.5333,-2.64221 a 15.613053,15.613053 0 0 1 -2.34818,0.19947 c -0.14481,1.08858 -0.27095,1.89585 -0.33899,1.89497 -0.071,-7.9e-4 -0.17765,-0.74516 -0.30179,-1.91875 a 15.613053,15.613053 0 0 1 -2.63344,-0.324 z" />
    <circle
       style="fill:#000000;fill-opacity:1;stroke:#1a1a1a;stroke-width:0.57456;stroke-linecap:round;stroke-miterlimit:5.77902;stroke-dasharray:none;paint-order:markers stroke fill;shape-rendering:crispEdges;stop-color:#000000"
       id="circle58"
       cx="116.20368"
       cy="159.55135"
       r="15.613051" />
    <g
       id="g112"
       inkscape:transform-center-x="-41.980869"
       inkscape:transform-center-y="-2.5671998"
       transform="matrix(0.23060601,-0.01847163,0.01847163,0.23060601,-933.65777,-612.20497)"
       style="stroke-width:1.09792">
      <path
         id="rect101"
         style="fill:#ffffff;stroke-width:2.48547;stroke-linecap:round;stroke-miterlimit:5.77902;paint-order:markers stroke fill;shape-rendering:crispEdges;stop-color:#000000"
         d="m 4281.7611,3677.4981 h 20.9585 l 22.5255,8.1355 c 0,1.3283 0,2.6565 0,3.9848 l -22.5255,8.1355 h -20.9585 v -10.1279 z"
         sodipodi:nodetypes="cccccccc" />
      <text
         xml:space="preserve"
         style="font-style:normal;font-variant:normal;font-weight:normal;font-stretch:normal;font-size:13.889px;line-height:1.25;font-family:'Futura MdCn BT';-inkscape-font-specification:'Futura MdCn BT';fill:#000000;stroke-width:2.48361"
         x="3684.7944"
         y="-4288.3672"
         id="text57-5"
         transform="rotate(90)"><tspan
           sodipodi:role="line"
           id="tspan57-1"
           style="font-style:normal;font-variant:normal;font-weight:normal;font-stretch:normal;font-size:13.889px;font-family:'Futura MdCn BT';-inkscape-font-specification:'Futura MdCn BT';fill:#000000;stroke-width:2.48361"
           x="3684.7944"
           y="-4288.3672">L</tspan></text>
      <rect
         style="fill:#000000;fill-opacity:1;stroke:none;stroke-width:2.16128;stroke-linecap:round;stroke-miterlimit:5.77902;stroke-dasharray:none;paint-order:markers stroke fill;stop-color:#000000"
         id="rect111"
         width="24.09857"
         height="1.7290223"
         x="4301.1626"
         y="3686.7847" />
    </g>
    <g
       id="g113"
       inkscape:transform-center-x="13.401717"
       inkscape:transform-center-y="-36.619357"
       transform="matrix(-0.09620478,-0.21039242,0.21039242,-0.09620478,-250.07855,1410.009)"
       style="stroke-width:1.09792">
      <g
         id="g114"
         style="stroke-width:1.09792">
        <path
           id="path112"
           style="fill:#ffffff;stroke-width:2.48547;stroke-linecap:round;stroke-miterlimit:5.77902;paint-order:markers stroke fill;shape-rendering:crispEdges;stop-color:#000000"
           d="m 4281.7613,3677.4981 h 19.7033 l 21.1765,8.1355 c 0,1.3283 0,2.6565 0,3.9848 l -21.1765,8.1355 h -19.7033 v -10.1279 z"
           sodipodi:nodetypes="cccccccc" />
        <text
           xml:space="preserve"
           style="font-style:normal;font-variant:normal;font-weight:normal;font-stretch:normal;font-size:13.889px;line-height:1.25;font-family:'Futura MdCn BT';-inkscape-font-specification:'Futura MdCn BT';text-align:center;text-anchor:middle;fill:#000000;stroke-width:2.48361"
           x="3687.3308"
           y="-4288.3672"
           id="text112"
           transform="rotate(90)"><tspan
             sodipodi:role="line"
             id="tspan112"
             style="font-style:normal;font-variant:normal;font-weight:normal;font-stretch:normal;font-size:13.889px;font-family:'Futura MdCn BT';-inkscape-font-specification:'Futura MdCn BT';text-align:center;text-anchor:middle;fill:#000000;stroke-width:2.48361"
             x="3687.3308"
             y="-4288.3672">R</tspan></text>
        <rect
           style="fill:#000000;fill-opacity:1;stroke:none;stroke-width:2.16128;stroke-linecap:round;stroke-miterlimit:5.77902;stroke-dasharray:none;paint-order:markers stroke fill;stop-color:#000000"
           id="rect112"
           width="21.494389"
           height="1.7290223"
           x="4301.3145"
           y="3686.6184" />
      </g>
    </g>
    <circle
       style="fill:#000000;fill-opacity:1;stroke:#333333;stroke-width:0.499999;stroke-linecap:round;stroke-miterlimit:5.77902;stroke-dasharray:none;paint-order:markers stroke fill;shape-rendering:crispEdges;stop-color:#000000"
       id="circle101"
       cx="116.13422"
       cy="159.55128"
       r="6.2770023" />
    <g
       id="g44"
       transform="matrix(0.22928797,0,0,0.22568745,-749.29558,-599.02747)"
       style="stroke-width:2.52579">
      <path
         d="m 3886.876,3361.1907 a 112.45295,114.24696 0 0 0 -224.9059,0 112.45295,114.24696 0 0 0 224.9059,0 z"
         style="fill:none;stroke:#666666;stroke-width:10.5503;stroke-dasharray:none"
         id="path1576" />
    </g>
    <g
       id="g12"
       transform="matrix(0.2223152,0,0,0.21882421,-722.97738,-575.9586)"
       style="stroke:#0000ff;stroke-width:1.36014;stroke-dasharray:none">
      <path
         d="m 3886.876,3361.1907 a 112.45295,114.24696 0 0 0 -224.9059,0 112.45295,114.24696 0 0 0 224.9059,0 z"
         style="fill:none;stroke:#0000ff;stroke-width:1.36014;stroke-dasharray:none"
         id="path12" />
    </g>
    <ellipse
       style="fill:#ffffff;fill-opacity:1;stroke:#ff0000;stroke-width:0.574565;stroke-linecap:round;stroke-miterlimit:5.77902;stroke-dasharray:none;paint-order:markers stroke fill;shape-rendering:crispEdges;stop-color:#000000"
       id="ellipse12"
       cx="146.49356"
       cy="128.61644"
       rx="2.1000001"
       ry="2.1150002"
       transform="rotate(3.3889627)" />
    <ellipse
       style="fill:#ffffff;fill-opacity:1;stroke:#ff0000;stroke-width:0.574565;stroke-linecap:round;stroke-miterlimit:5.77902;stroke-dasharray:none;paint-order:markers stroke fill;shape-rendering:crispEdges;stop-color:#000000"
       id="ellipse13"
       cx="104.23228"
       cy="176.1976"
       rx="2.1000001"
       ry="2.1150002"
       transform="rotate(3.3889627)" />
  </g>
</svg>
