<?xml version="1.0" encoding="UTF-8" standalone="no"?>
<svg
   xmlns:dc="http://purl.org/dc/elements/1.1/"
   xmlns:cc="http://creativecommons.org/ns#"
   xmlns:rdf="http://www.w3.org/1999/02/22-rdf-syntax-ns#"
   xmlns:svg="http://www.w3.org/2000/svg"
   xmlns="http://www.w3.org/2000/svg"
   xmlns:sodipodi="http://sodipodi.sourceforge.net/DTD/sodipodi-0.dtd"
   xmlns:inkscape="http://www.inkscape.org/namespaces/inkscape"
   version="1.1"
   x="0px"
   y="0px"
   width="210mm"
   height="297mm"
   viewBox="0 0 793.70075 1122.5197"
   enable-background="new 0 0 595.275 841.891"
   xml:space="preserve"
   id="svg122"
   sodipodi:docname="cessna172-attitude-v2b.svg"
   inkscape:version="1.0.1 (3bc2e813f5, 2020-09-07)"><metadata
   id="metadata128"><rdf:RDF><cc:Work
       rdf:about=""><dc:format>image/svg+xml</dc:format><dc:type
         rdf:resource="http://purl.org/dc/dcmitype/StillImage" /><dc:title></dc:title></cc:Work></rdf:RDF></metadata><defs
   id="defs126">
	
	
	
		<sodipodi:namedview
   id="namedview7"
   inkscape:showpageshadow="2"
   inkscape:pageopacity="0.0"
   inkscape:window-width="1920"
   inkscape:current-layer="g441"
   inkscape:window-y="-8"
   inkscape:document-units="mm"
   inkscape:window-height="1017"
   inkscape:window-x="-8"
   inkscape:deskcolor="#d1d1d1"
   inkscape:window-maximized="1"
   inkscape:pagecheckerboard="0"
   showgrid="false"
   inkscape:zoom="1.1893044"
   pagecolor="#ffffff"
   bordercolor="#666666"
   borderopacity="1.0"
   inkscape:cy="261.49739"
   inkscape:cx="559.15037">
		</sodipodi:namedview>
	<defs
   id="defs23">
		
		
			<inkscape:path-effect
   id="path-effect16073"
   discard_orig_path="false"
   effect="mirror_symmetry"
   oposite_fuse="false"
   end_point="97.834346,131.98253"
   start_point="97.834346,105.09049"
   fuse_paths="false"
   link_styles="false"
   split_items="false"
   lpesatellites=""
   lpeversion="1.2"
   is_visible="true"
   split_open="false"
   center_point="97.834346,118.53651"
   mode="free">
			</inkscape:path-effect>
		
			<inkscape:path-effect
   id="path-effect16065"
   discard_orig_path="false"
   effect="mirror_symmetry"
   oposite_fuse="false"
   end_point="97.834346,131.98253"
   start_point="97.834346,101.36243"
   fuse_paths="false"
   link_styles="false"
   split_items="false"
   lpesatellites=""
   lpeversion="1.2"
   is_visible="true"
   split_open="false"
   center_point="97.834346,116.67248"
   mode="free">
			</inkscape:path-effect>
		
			<inkscape:path-effect
   id="path-effect11385"
   discard_orig_path="false"
   effect="mirror_symmetry"
   oposite_fuse="false"
   end_point="143.74993,34.023125"
   start_point="147.05219,34.013397"
   fuse_paths="false"
   link_styles="false"
   split_items="false"
   lpesatellites=""
   lpeversion="1.2"
   is_visible="true"
   split_open="false"
   center_point="145.40106,34.015803"
   mode="free">
			</inkscape:path-effect>
		
			<inkscape:path-effect
   id="path-effect7643"
   discard_orig_path="false"
   effect="mirror_symmetry"
   oposite_fuse="false"
   end_point="142.55906,48.275516"
   start_point="142.55906,46.82946"
   fuse_paths="false"
   link_styles="false"
   split_items="false"
   lpesatellites=""
   lpeversion="1.2"
   is_visible="true"
   split_open="false"
   center_point="142.55906,47.552488"
   mode="free">
			</inkscape:path-effect>
		
			<inkscape:path-effect
   id="path-effect4281"
   discard_orig_path="false"
   effect="mirror_symmetry"
   oposite_fuse="false"
   end_point="145.44841,43.966297"
   start_point="145.44841,43.654461"
   fuse_paths="false"
   link_styles="false"
   split_items="false"
   lpesatellites=""
   lpeversion="1.2"
   is_visible="true"
   split_open="false"
   center_point="145.44841,43.810379"
   mode="free">
			</inkscape:path-effect>
		
			<inkscape:path-effect
   id="path-effect4239"
   discard_orig_path="false"
   effect="mirror_symmetry"
   oposite_fuse="false"
   end_point="128.99364,47.552488"
   start_point="128.99364,47.552488"
   fuse_paths="false"
   link_styles="false"
   split_items="false"
   lpesatellites=""
   lpeversion="1.2"
   is_visible="true"
   split_open="false"
   center_point="128.99364,47.552488"
   mode="free">
			</inkscape:path-effect>
		
			<inkscape:path-effect
   id="path-effect4231"
   discard_orig_path="false"
   effect="mirror_symmetry"
   oposite_fuse="false"
   end_point="145.44841,59.804654"
   start_point="145.44841,39.148644"
   fuse_paths="false"
   link_styles="false"
   split_items="false"
   lpesatellites=""
   lpeversion="1.2"
   is_visible="true"
   split_open="false"
   center_point="145.44841,49.476649"
   mode="free">
			</inkscape:path-effect>
		
			<inkscape:path-effect
   id="path-effect4083"
   discard_orig_path="false"
   effect="mirror_symmetry"
   oposite_fuse="false"
   end_point="128.99364,47.552488"
   start_point="128.99364,47.552488"
   fuse_paths="false"
   link_styles="false"
   split_items="false"
   lpesatellites=""
   lpeversion="1.2"
   is_visible="true"
   split_open="false"
   center_point="128.99364,47.552488"
   mode="free">
			</inkscape:path-effect>
		
			<inkscape:path-effect
   id="path-effect4075"
   discard_orig_path="false"
   effect="mirror_symmetry"
   oposite_fuse="false"
   end_point="145.88863,47.528151"
   start_point="145.88863,47.312243"
   fuse_paths="false"
   link_styles="false"
   split_items="false"
   lpesatellites=""
   lpeversion="1.2"
   is_visible="true"
   split_open="false"
   center_point="145.88863,47.420197"
   mode="free">
			</inkscape:path-effect>
		<inkscape:path-effect
   id="path-effect3908"
   effect="spiro"
   lpeversion="1"
   is_visible="true" />
		<inkscape:path-effect
   id="path-effect3898"
   effect="spiro"
   lpeversion="1"
   is_visible="true" />
		<inkscape:path-effect
   id="path-effect3888"
   effect="spiro"
   lpeversion="1"
   is_visible="true" />
		
			<inkscape:path-effect
   id="path-effect1251"
   discard_orig_path="false"
   effect="mirror_symmetry"
   oposite_fuse="false"
   end_point="97.340166,305.71866"
   start_point="97.340166,207.95562"
   fuse_paths="false"
   link_styles="false"
   split_items="false"
   lpesatellites=""
   lpeversion="1.2"
   is_visible="true"
   split_open="false"
   center_point="97.340166,256.83714"
   mode="free">
			</inkscape:path-effect>
		
			<inkscape:path-effect
   id="path-effect4231-2"
   discard_orig_path="false"
   effect="mirror_symmetry"
   oposite_fuse="false"
   end_point="145.44841,59.804654"
   start_point="145.44841,39.148644"
   fuse_paths="false"
   link_styles="false"
   split_items="false"
   lpesatellites=""
   lpeversion="1.2"
   is_visible="true"
   split_open="false"
   center_point="145.44841,49.476649"
   mode="free">
			</inkscape:path-effect>
		<inkscape:path-effect
   id="path-effect3888-5"
   effect="spiro"
   lpeversion="1"
   is_visible="true" />
		
			<inkscape:path-effect
   id="path-effect7643-1"
   discard_orig_path="false"
   effect="mirror_symmetry"
   oposite_fuse="false"
   end_point="142.55906,48.275516"
   start_point="142.55906,46.82946"
   fuse_paths="false"
   link_styles="false"
   split_items="false"
   lpesatellites=""
   lpeversion="1.2"
   is_visible="true"
   split_open="false"
   center_point="142.55906,47.552488"
   mode="free">
			</inkscape:path-effect>
		
			<inkscape:path-effect
   id="path-effect4281-7"
   discard_orig_path="false"
   effect="mirror_symmetry"
   oposite_fuse="false"
   end_point="145.44841,43.966297"
   start_point="145.44841,43.654461"
   fuse_paths="false"
   link_styles="false"
   split_items="false"
   lpesatellites=""
   lpeversion="1.2"
   is_visible="true"
   split_open="false"
   center_point="145.44841,43.810379"
   mode="free">
			</inkscape:path-effect>
		
			<inkscape:path-effect
   id="path-effect11385-2"
   discard_orig_path="false"
   effect="mirror_symmetry"
   oposite_fuse="false"
   end_point="143.74993,34.023125"
   start_point="147.05219,34.013397"
   fuse_paths="false"
   link_styles="false"
   split_items="false"
   lpesatellites=""
   lpeversion="1.2"
   is_visible="true"
   split_open="false"
   center_point="145.40106,34.015803"
   mode="free">
			</inkscape:path-effect>
	</defs>
	
		
</defs><sodipodi:namedview
   pagecolor="#ffffff"
   bordercolor="#666666"
   borderopacity="1"
   objecttolerance="10"
   gridtolerance="10"
   guidetolerance="10"
   inkscape:pageopacity="0"
   inkscape:pageshadow="2"
   inkscape:window-width="1920"
   inkscape:window-height="1017"
   id="namedview124"
   showgrid="false"
   units="mm"
   inkscape:zoom="0.9569547"
   inkscape:cx="245.37468"
   inkscape:cy="224.11431"
   inkscape:window-x="-8"
   inkscape:window-y="-8"
   inkscape:window-maximized="1"
   inkscape:current-layer="Layer_7"
   inkscape:document-rotation="0" />
<path
   id="rect2579_3_"
   fill="#6c5446"
   stroke="#ffffff"
   stroke-width="0.066792"
   stroke-linejoin="bevel"
   d="M 37.500576,429.15265 H 595.55697 v 0 88.15752 0 H 37.500576 v 0 z" /><path
   id="path988_1_"
   fill="#5eb8e6"
   stroke="#ffffff"
   stroke-width="0.066528"
   stroke-linejoin="bevel"
   d="M 595.55697,430.59805 H 38.051016 v 0 -87.64272 0 H 595.55697 v 0 z" /><rect
   x="647.33398"
   y="354.24924"
   fill="none"
   stroke="#45ff00"
   stroke-width="0.37422"
   stroke-linejoin="round"
   width="37.416721"
   height="37.418041"
   id="rect25" />
<g
   id="Layer_7"
   transform="matrix(1.32,0,0,1.32,1.3748156,0.43381583)">
	<polyline
   fill="none"
   stroke="#ffffff"
   stroke-width="0.65"
   stroke-linejoin="round"
   points="257.004,349.594 346.034,326.281    297.484,376.715  "
   id="polyline28" />
	<polyline
   fill="none"
   stroke="#ffffff"
   stroke-width="0.65"
   stroke-linejoin="round"
   points="435.064,349.594 346.034,326.281    394.584,376.715  "
   id="polyline30" />
	
		<path
   id="path3886"
   inkscape:path-effect="#path-effect3888"
   inkscape:original-d="M 72.050436,35.058602 H 140.1689"
   fill="none"
   stroke="#ffffff"
   d="M 72.050436,35.058602 H 140.1689" />
	
		<path
   id="path3965"
   inkscape:path-effect="#path-effect7643"
   sodipodi:nodetypes="cc"
   inkscape:original-d="m 116.36913,47.552488 h 12.62451"
   fill="none"
   stroke="#ffffff"
   stroke-width="0.5936"
   d="m 116.36913,47.552488 h 12.62451 m 39.75535,0 h -12.62451" />
	<g
   aria-label="20"
   transform="translate(300.5715,353.0984)"
   id="text34"
   style="font-size:7px;font-family:MS-33558-Regular;fill:#ffffff"><path
     d="M 3.9956055,0 H 0.55029297 V -0.71435547 Q 0.90917969,-1.0219727 1.2680664,-1.3295898 1.6303711,-1.637207 1.9414062,-1.9414062 2.5976563,-2.5771484 2.840332,-2.949707 q 0.2426758,-0.3759766 0.2426758,-0.8100586 0,-0.3964844 -0.2631836,-0.6186524 -0.2597656,-0.2255859 -0.7280273,-0.2255859 -0.3110352,0 -0.6733399,0.109375 -0.3623047,0.109375 -0.7075195,0.3349609 H 0.6767578 v -0.7177734 q 0.24267578,-0.1196289 0.6459961,-0.21875 0.4067383,-0.099121 0.7861328,-0.099121 0.7827149,0 1.2270508,0.3793945 0.4443359,0.3759766 0.4443359,1.0219727 0,0.2905273 -0.075195,0.543457 -0.071777,0.2495117 -0.215332,0.4750977 -0.1333008,0.211914 -0.3144531,0.4169922 -0.1777344,0.2050781 -0.4340821,0.4545898 -0.3657226,0.3588867 -0.7553711,0.6972656 -0.3896484,0.33496097 -0.7280273,0.62207034 h 2.737793 z"
     style="font-size:7px;font-family:MS-33558-Regular;fill:#ffffff"
     id="path951" /><path
     d="m 8.4389648,-2.5463867 q 0,1.3706055 -0.430664,2.01318358 -0.4272461,0.63916015 -1.3295899,0.63916015 -0.9160156,0 -1.3398437,-0.64941406 Q 4.918457,-1.1928711 4.918457,-2.5395508 q 0,-1.3569336 0.4272461,-2.0029297 0.4272461,-0.649414 1.3330078,-0.649414 0.9160157,0 1.3364258,0.6596679 0.4238281,0.65625 0.4238281,1.9858399 z M 7.5400391,-0.99462891 Q 7.659668,-1.2714844 7.7006836,-1.644043 q 0.044434,-0.3759765 0.044434,-0.9023437 0,-0.5195313 -0.044434,-0.9023438 Q 7.659668,-3.831543 7.5366211,-4.0981445 7.4169922,-4.3613281 7.2084961,-4.4946289 7.003418,-4.6279297 6.6787109,-4.6279297 q -0.321289,0 -0.5332031,0.1333008 -0.2084961,0.1333008 -0.331543,0.4033203 -0.1162109,0.2529297 -0.1606445,0.659668 -0.041016,0.4067383 -0.041016,0.8920898 0,0.5332031 0.037598,0.8920899 0.037598,0.3588867 0.1606446,0.6425781 0.1127929,0.26660155 0.3178711,0.40673827 0.2084961,0.14013672 0.5502929,0.14013672 0.3212891,0 0.5332032,-0.13330078 0.211914,-0.13330078 0.328125,-0.40332032 z"
     style="font-size:7px;font-family:MS-33558-Regular;fill:#ffffff"
     id="path953" /></g>
	<path
   id="path4229"
   fill="none"
   stroke="#ffffff"
   stroke-width="0.65"
   d="m 310.343,349.594 h 71.382" />
	<path
   id="path4265"
   fill="none"
   stroke="#ffffff"
   stroke-width="0.65"
   d="m 328.764,339.496 h 34.541" />
	
		<path
   id="path4267"
   inkscape:path-effect="#path-effect4281"
   sodipodi:nodetypes="cc"
   inkscape:original-d="m 109.85341,43.810378 h 24.92773"
   fill="none"
   stroke="#ffffff"
   stroke-width="0.65"
   d="m 109.85341,43.810378 h 24.92773 m 46.26227,0 h -24.92773" />
	<g
   aria-label="10"
   transform="translate(320.4094,342.9958)"
   id="text39"
   style="font-size:7px;font-family:MS-33558-Regular;fill:#ffffff"><path
     d="M 3.7050781,0 H 0.95019531 V -0.51953125 H 2.0097656 V -3.9306641 H 0.95019531 v -0.4648437 q 0.21533199,0 0.46142579,-0.03418 0.2460937,-0.037598 0.3725586,-0.105957 0.1572265,-0.085449 0.2460937,-0.2153321 0.092285,-0.1333007 0.1059571,-0.3554687 h 0.5297851 v 4.58691405 h 1.0390625 z"
     style="font-size:7px;font-family:MS-33558-Regular;fill:#ffffff"
     id="path946" /><path
     d="m 8.4389648,-2.5463867 q 0,1.3706055 -0.430664,2.01318358 -0.4272461,0.63916015 -1.3295899,0.63916015 -0.9160156,0 -1.3398437,-0.64941406 Q 4.918457,-1.1928711 4.918457,-2.5395508 q 0,-1.3569336 0.4272461,-2.0029297 0.4272461,-0.649414 1.3330078,-0.649414 0.9160157,0 1.3364258,0.6596679 0.4238281,0.65625 0.4238281,1.9858399 z M 7.5400391,-0.99462891 Q 7.659668,-1.2714844 7.7006836,-1.644043 q 0.044434,-0.3759765 0.044434,-0.9023437 0,-0.5195313 -0.044434,-0.9023438 Q 7.659668,-3.831543 7.5366211,-4.0981445 7.4169922,-4.3613281 7.2084961,-4.4946289 7.003418,-4.6279297 6.6787109,-4.6279297 q -0.321289,0 -0.5332031,0.1333008 -0.2084961,0.1333008 -0.331543,0.4033203 -0.1162109,0.2529297 -0.1606445,0.659668 -0.041016,0.4067383 -0.041016,0.8920898 0,0.5332031 0.037598,0.8920899 0.037598,0.3588867 0.1606446,0.6425781 0.1127929,0.26660155 0.3178711,0.40673827 0.2084961,0.14013672 0.5502929,0.14013672 0.3212891,0 0.5332032,-0.13330078 0.211914,-0.13330078 0.328125,-0.40332032 z"
     style="font-size:7px;font-family:MS-33558-Regular;fill:#ffffff"
     id="path948" /></g>
	<g
   aria-label="20"
   transform="translate(382.3411,353.0984)"
   id="text41"
   style="font-size:7px;font-family:MS-33558-Regular;fill:#ffffff"><path
     d="M 3.9956055,0 H 0.55029297 V -0.71435547 Q 0.90917969,-1.0219727 1.2680664,-1.3295898 1.6303711,-1.637207 1.9414062,-1.9414062 2.5976563,-2.5771484 2.840332,-2.949707 q 0.2426758,-0.3759766 0.2426758,-0.8100586 0,-0.3964844 -0.2631836,-0.6186524 -0.2597656,-0.2255859 -0.7280273,-0.2255859 -0.3110352,0 -0.6733399,0.109375 -0.3623047,0.109375 -0.7075195,0.3349609 H 0.6767578 v -0.7177734 q 0.24267578,-0.1196289 0.6459961,-0.21875 0.4067383,-0.099121 0.7861328,-0.099121 0.7827149,0 1.2270508,0.3793945 0.4443359,0.3759766 0.4443359,1.0219727 0,0.2905273 -0.075195,0.543457 -0.071777,0.2495117 -0.215332,0.4750977 -0.1333008,0.211914 -0.3144531,0.4169922 -0.1777344,0.2050781 -0.4340821,0.4545898 -0.3657226,0.3588867 -0.7553711,0.6972656 -0.3896484,0.33496097 -0.7280273,0.62207034 h 2.737793 z"
     style="font-size:7px;font-family:MS-33558-Regular;fill:#ffffff"
     id="path941" /><path
     d="m 8.4389648,-2.5463867 q 0,1.3706055 -0.430664,2.01318358 -0.4272461,0.63916015 -1.3295899,0.63916015 -0.9160156,0 -1.3398437,-0.64941406 Q 4.918457,-1.1928711 4.918457,-2.5395508 q 0,-1.3569336 0.4272461,-2.0029297 0.4272461,-0.649414 1.3330078,-0.649414 0.9160157,0 1.3364258,0.6596679 0.4238281,0.65625 0.4238281,1.9858399 z M 7.5400391,-0.99462891 Q 7.659668,-1.2714844 7.7006836,-1.644043 q 0.044434,-0.3759765 0.044434,-0.9023437 0,-0.5195313 -0.044434,-0.9023438 Q 7.659668,-3.831543 7.5366211,-4.0981445 7.4169922,-4.3613281 7.2084961,-4.4946289 7.003418,-4.6279297 6.6787109,-4.6279297 q -0.321289,0 -0.5332031,0.1333008 -0.2084961,0.1333008 -0.331543,0.4033203 -0.1162109,0.2529297 -0.1606445,0.659668 -0.041016,0.4067383 -0.041016,0.8920898 0,0.5332031 0.037598,0.8920899 0.037598,0.3588867 0.1606446,0.6425781 0.1127929,0.26660155 0.3178711,0.40673827 0.2084961,0.14013672 0.5502929,0.14013672 0.3212891,0 0.5332032,-0.13330078 0.211914,-0.13330078 0.328125,-0.40332032 z"
     style="font-size:7px;font-family:MS-33558-Regular;fill:#ffffff"
     id="path943" /></g>
	<g
   aria-label="10"
   transform="translate(365.4797,342.9958)"
   id="text43"
   style="font-size:7px;font-family:MS-33558-Regular;fill:#ffffff"><path
     d="M 3.7050781,0 H 0.95019531 V -0.51953125 H 2.0097656 V -3.9306641 H 0.95019531 v -0.4648437 q 0.21533199,0 0.46142579,-0.03418 0.2460937,-0.037598 0.3725586,-0.105957 0.1572265,-0.085449 0.2460937,-0.2153321 0.092285,-0.1333007 0.1059571,-0.3554687 h 0.5297851 v 4.58691405 h 1.0390625 z"
     style="font-size:7px;font-family:MS-33558-Regular;fill:#ffffff"
     id="path936" /><path
     d="m 8.4389648,-2.5463867 q 0,1.3706055 -0.430664,2.01318358 -0.4272461,0.63916015 -1.3295899,0.63916015 -0.9160156,0 -1.3398437,-0.64941406 Q 4.918457,-1.1928711 4.918457,-2.5395508 q 0,-1.3569336 0.4272461,-2.0029297 0.4272461,-0.649414 1.3330078,-0.649414 0.9160157,0 1.3364258,0.6596679 0.4238281,0.65625 0.4238281,1.9858399 z M 7.5400391,-0.99462891 Q 7.659668,-1.2714844 7.7006836,-1.644043 q 0.044434,-0.3759765 0.044434,-0.9023437 0,-0.5195313 -0.044434,-0.9023438 Q 7.659668,-3.831543 7.5366211,-4.0981445 7.4169922,-4.3613281 7.2084961,-4.4946289 7.003418,-4.6279297 6.6787109,-4.6279297 q -0.321289,0 -0.5332031,0.1333008 -0.2084961,0.1333008 -0.331543,0.4033203 -0.1162109,0.2529297 -0.1606445,0.659668 -0.041016,0.4067383 -0.041016,0.8920898 0,0.5332031 0.037598,0.8920899 0.037598,0.3588867 0.1606446,0.6425781 0.1127929,0.26660155 0.3178711,0.40673827 0.2084961,0.14013672 0.5502929,0.14013672 0.3212891,0 0.5332032,-0.13330078 0.211914,-0.13330078 0.328125,-0.40332032 z"
     style="font-size:7px;font-family:MS-33558-Regular;fill:#ffffff"
     id="path938" /></g>
	<line
   fill="none"
   stroke="#000000"
   stroke-width="0.5"
   x1="341.54099"
   y1="318.07001"
   x2="350.52802"
   y2="318.07001"
   id="line45" />
	<line
   fill="none"
   stroke="#000000"
   stroke-width="0.5"
   x1="341.504"
   y1="305.418"
   x2="350.48999"
   y2="305.36499"
   id="line47" />
	<g
   aria-label="10"
   transform="translate(329.8684,316.0359)"
   id="text49"
   style="font-size:7px;font-family:MS-33558-Regular"><path
     d="M 3.7050781,0 H 0.95019531 V -0.51953125 H 2.0097656 V -3.9306641 H 0.95019531 v -0.4648437 q 0.21533199,0 0.46142579,-0.03418 0.2460937,-0.037598 0.3725586,-0.105957 0.1572265,-0.085449 0.2460937,-0.2153321 0.092285,-0.1333007 0.1059571,-0.3554687 h 0.5297851 v 4.58691405 h 1.0390625 z"
     style="font-size:7px;font-family:MS-33558-Regular"
     id="path931" /><path
     d="m 8.4389648,-2.5463867 q 0,1.3706055 -0.430664,2.01318358 -0.4272461,0.63916015 -1.3295899,0.63916015 -0.9160156,0 -1.3398437,-0.64941406 Q 4.918457,-1.1928711 4.918457,-2.5395508 q 0,-1.3569336 0.4272461,-2.0029297 0.4272461,-0.649414 1.3330078,-0.649414 0.9160157,0 1.3364258,0.6596679 0.4238281,0.65625 0.4238281,1.9858399 z M 7.5400391,-0.99462891 Q 7.659668,-1.2714844 7.7006836,-1.644043 q 0.044434,-0.3759765 0.044434,-0.9023437 0,-0.5195313 -0.044434,-0.9023438 Q 7.659668,-3.831543 7.5366211,-4.0981445 7.4169922,-4.3613281 7.2084961,-4.4946289 7.003418,-4.6279297 6.6787109,-4.6279297 q -0.321289,0 -0.5332031,0.1333008 -0.2084961,0.1333008 -0.331543,0.4033203 -0.1162109,0.2529297 -0.1606445,0.659668 -0.041016,0.4067383 -0.041016,0.8920898 0,0.5332031 0.037598,0.8920899 0.037598,0.3588867 0.1606446,0.6425781 0.1127929,0.26660155 0.3178711,0.40673827 0.2084961,0.14013672 0.5502929,0.14013672 0.3212891,0 0.5332032,-0.13330078 0.211914,-0.13330078 0.328125,-0.40332032 z"
     style="font-size:7px;font-family:MS-33558-Regular"
     id="path933" /></g>
	<g
   aria-label="10"
   transform="translate(355.7239,316.0359)"
   id="text51"
   style="font-size:7px;font-family:MS-33558-Regular"><path
     d="M 3.7050781,0 H 0.95019531 V -0.51953125 H 2.0097656 V -3.9306641 H 0.95019531 v -0.4648437 q 0.21533199,0 0.46142579,-0.03418 0.2460937,-0.037598 0.3725586,-0.105957 0.1572265,-0.085449 0.2460937,-0.2153321 0.092285,-0.1333007 0.1059571,-0.3554687 h 0.5297851 v 4.58691405 h 1.0390625 z"
     style="font-size:7px;font-family:MS-33558-Regular"
     id="path926" /><path
     d="m 8.4389648,-2.5463867 q 0,1.3706055 -0.430664,2.01318358 -0.4272461,0.63916015 -1.3295899,0.63916015 -0.9160156,0 -1.3398437,-0.64941406 Q 4.918457,-1.1928711 4.918457,-2.5395508 q 0,-1.3569336 0.4272461,-2.0029297 0.4272461,-0.649414 1.3330078,-0.649414 0.9160157,0 1.3364258,0.6596679 0.4238281,0.65625 0.4238281,1.9858399 z M 7.5400391,-0.99462891 Q 7.659668,-1.2714844 7.7006836,-1.644043 q 0.044434,-0.3759765 0.044434,-0.9023437 0,-0.5195313 -0.044434,-0.9023438 Q 7.659668,-3.831543 7.5366211,-4.0981445 7.4169922,-4.3613281 7.2084961,-4.4946289 7.003418,-4.6279297 6.6787109,-4.6279297 q -0.321289,0 -0.5332031,0.1333008 -0.2084961,0.1333008 -0.331543,0.4033203 -0.1162109,0.2529297 -0.1606445,0.659668 -0.041016,0.4067383 -0.041016,0.8920898 0,0.5332031 0.037598,0.8920899 0.037598,0.3588867 0.1606446,0.6425781 0.1127929,0.26660155 0.3178711,0.40673827 0.2084961,0.14013672 0.5502929,0.14013672 0.3212891,0 0.5332032,-0.13330078 0.211914,-0.13330078 0.328125,-0.40332032 z"
     style="font-size:7px;font-family:MS-33558-Regular"
     id="path928" /></g>
	<path
   id="path14510"
   fill="none"
   stroke="#000000"
   stroke-width="0.65"
   d="M 352.99,311.718 H 339.038" />
	
		<ellipse
   id="ellipse419"
   fill="none"
   stroke="#ffffff"
   stroke-width="0.2128"
   stroke-linejoin="bevel"
   cx="346.034"
   cy="326.28101"
   rx="97.082001"
   ry="58.238998" />
</g>
<g
   id="Layer_5"
   transform="matrix(1.32,0,0,1.32,1.3748156,0.43381583)">
	<g
   id="g66">
		<path
   id="rect2579_4_"
   fill="#6c5446"
   stroke="#ffffff"
   stroke-width="0.0381"
   stroke-linejoin="bevel"
   d="m 493.961,237.144 v -202.462 0 h 79.183 v 0 202.461 0 h -79.183 z" />
		<path
   id="path5263_2_"
   fill="#5eb8e6"
   stroke="#ffffff"
   stroke-width="0.0273"
   stroke-linejoin="bevel"
   d="m 469.084,237.144 v -202.475 0 h 40.556 v 0 202.475 0 z" />
		<polygon
   id="rect17517_1_"
   inkscape:label="Lil Nub"
   points="528.56,45.467 528.56,226.666 474.523,226.666 474.523,45.467 "
   style="display:inline">
		</polygon>
		<g
   aria-label="VACUUM"
   transform="rotate(-90,332.2568,-177.3772)"
   id="text59"
   style="font-size:9px;font-family:Arial-BoldMT;display:inline;fill:#ffffff"><path
     d="M 6.0380859,-6.543457 3.65625,0 H 2.4960938 L 0.11425781,-6.543457 H 1.0458984 L 3.0981445,-0.78662109 5.1503906,-6.543457 Z"
     style="font-size:9px;font-family:Arial-BoldMT;display:inline;fill:#ffffff"
     id="path913" /><path
     d="M 11.926758,0 H 10.999512 L 10.35791,-1.8237305 H 7.527832 L 6.8862305,0 H 6.0029297 L 8.3847656,-6.543457 H 9.5449219 Z M 10.089844,-2.5708008 8.9428711,-5.7832031 7.7915039,-2.5708008 Z"
     style="font-size:9px;font-family:Arial-BoldMT;display:inline;fill:#ffffff"
     id="path915" /><path
     d="m 17.973633,-0.47460938 q -0.241699,0.10546875 -0.439453,0.19775391 -0.19336,0.0922852 -0.509766,0.19335938 Q 16.756348,0 16.439941,0.05712891 16.12793,0.11865234 15.75,0.11865234 q -0.711914,0 -1.296387,-0.1977539 Q 13.873535,-0.28125 13.442871,-0.70751953 13.020996,-1.125 12.783691,-1.7666016 q -0.237304,-0.6459961 -0.237304,-1.4985351 0,-0.8085938 0.228515,-1.4458008 0.228516,-0.637207 0.65918,-1.0766602 0.417481,-0.4262695 1.006348,-0.6503906 0.593261,-0.2241211 1.313965,-0.2241211 0.527343,0 1.050292,0.1274414 0.527344,0.1274414 1.168946,0.4482422 v 1.0327149 h -0.06592 q -0.540528,-0.4526368 -1.072266,-0.6591797 -0.531738,-0.206543 -1.138183,-0.206543 -0.496582,0 -0.896485,0.1625977 -0.395508,0.1582031 -0.707519,0.496582 -0.303223,0.3295898 -0.47461,0.8349609 -0.166992,0.5009766 -0.166992,1.1601563 0,0.6899414 0.18457,1.1865234 0.188965,0.4965821 0.483399,0.8085938 0.307617,0.32519528 0.716309,0.48339841 0.413085,0.15380859 0.870117,0.15380859 0.628418,0 1.177734,-0.21533203 0.549316,-0.21533207 1.02832,-0.64599607 h 0.06152 z"
     style="font-size:9px;font-family:Arial-BoldMT;display:inline;fill:#ffffff"
     id="path917" /><path
     d="m 24.130371,-2.6279297 q 0,0.7119141 -0.158203,1.2436524 -0.153809,0.52734371 -0.509766,0.87890621 -0.338379,0.33398437 -0.791015,0.48779296 -0.452637,0.1538086 -1.054688,0.1538086 -0.615234,0 -1.072265,-0.16259766 -0.457032,-0.16259765 -0.769043,-0.4790039 Q 19.419434,-0.86572266 19.26123,-1.3754883 19.107422,-1.8852539 19.107422,-2.6279297 V -6.543457 h 0.870117 v 3.9594726 q 0,0.5317383 0.07031,0.8393555 0.07471,0.3076172 0.246093,0.5581055 0.19336,0.28564449 0.52295,0.43066403 0.333984,0.14501953 0.799804,0.14501953 0.470215,0 0.799805,-0.140625 0.32959,-0.14501954 0.527344,-0.43505856 0.171386,-0.2504883 0.241699,-0.5712891 0.07471,-0.3251953 0.07471,-0.8041992 V -6.543457 h 0.870117 z"
     style="font-size:9px;font-family:Arial-BoldMT;display:inline;fill:#ffffff"
     id="path919" /><path
     d="m 30.717773,-2.6279297 q 0,0.7119141 -0.158203,1.2436524 -0.153808,0.52734371 -0.509765,0.87890621 -0.338379,0.33398437 -0.791016,0.48779296 -0.452637,0.1538086 -1.054687,0.1538086 -0.615235,0 -1.072266,-0.16259766 -0.457031,-0.16259765 -0.769043,-0.4790039 -0.355957,-0.36035157 -0.51416,-0.87011721 -0.153809,-0.5097656 -0.153809,-1.2524414 V -6.543457 h 0.870117 v 3.9594726 q 0,0.5317383 0.07031,0.8393555 0.07471,0.3076172 0.246094,0.5581055 0.193359,0.28564449 0.522949,0.43066403 0.333984,0.14501953 0.799805,0.14501953 0.470214,0 0.799804,-0.140625 0.32959,-0.14501954 0.527344,-0.43505856 0.171387,-0.2504883 0.241699,-0.5712891 0.07471,-0.3251953 0.07471,-0.8041992 V -6.543457 h 0.870117 z"
     style="font-size:9px;font-family:Arial-BoldMT;display:inline;fill:#ffffff"
     id="path921" /><path
     d="m 38.206055,0 h -0.870118 v -5.6381836 l -1.819335,3.8364258 H 34.998047 L 33.191895,-5.6381836 V 0 h -0.812989 v -6.543457 h 1.186524 l 1.744629,3.6430664 1.6875,-3.6430664 h 1.208496 z"
     style="font-size:9px;font-family:Arial-BoldMT;display:inline;fill:#ffffff"
     id="path923" /></g>
		<path
   id="path427_1_"
   sodipodi:nodetypes="cccccc"
   fill="none"
   stroke="#ffffff"
   d="m 509.949,234.21 c 28.907,-21.458 48.093,-55.41 49.412,-94.121 h 5.161 v -8.33 h -5.161 C 558.109,95.001 540.747,62.536 514.251,40.982" />
		<path
   id="path429_1_"
   sodipodi:nodetypes="ccccc"
   fill="none"
   stroke="#ffffff"
   d="m 510.372,165.337 -34.403,-17.906 v -23.012 l 34.396,-17.906 V 49.802" />
		<path
   id="path431_1_"
   sodipodi:nodetypes="cc"
   fill="none"
   stroke="#ffffff"
   stroke-width="1.1057"
   d="m 510.372,165.337 v 69.331" />
		<path
   id="path433_1_"
   sodipodi:nodetypes="cc"
   fill="none"
   stroke="#ffffff"
   stroke-width="1.0775"
   d="M 510.372,106.513 V 40.666" />
		<path
   id="path435_1_"
   fill="none"
   stroke="#ffffff"
   d="m 528.887,126.669 c -5.112,0.004 -9.252,4.152 -9.247,9.266 0.006,5.104 4.143,9.24 9.247,9.246 5.112,-0.006 9.252,-4.154 9.247,-9.266 -0.005,-5.105 -4.143,-9.242 -9.247,-9.246 z" />
	</g>
</g>
<g
   id="Layer_3"
   transform="matrix(1.32,0,0,1.32,1.3748156,0.43381583)">
	<g
   id="g95">
		<path
   id="rect2579_2_"
   fill="#6c5446"
   stroke="#ffffff"
   stroke-width="0.0485"
   stroke-linejoin="bevel"
   d="m 230.811,135.906 h 229.073 v 0 113.182 0 H 230.811 v 0 z" />
		<path
   id="path988"
   fill="#5eb8e6"
   stroke="#ffffff"
   stroke-width="0.0494"
   stroke-linejoin="bevel"
   d="M 459.884,137.001 H 231.036 v 0 -117.643 0 h 228.848 v 0 z" />
		<path
   id="path394-5"
   fill="none"
   stroke="#ffffff"
   stroke-width="0.9522"
   d="m 268.944,135.906 c 0,42.013 34.058,76.071 76.07,76.071 42.014,0 76.072,-34.059 76.072,-76.071 0,-42.014 -34.059,-76.072 -76.072,-76.072 -42.013,0 -76.07,34.059 -76.07,76.072 z" />
		<path
   id="path396-7"
   fill="none"
   stroke="#ffffff"
   stroke-width="1.0658"
   d="m 236.775,135.906 c 0,59.779 48.461,108.24 108.239,108.24 59.779,0 108.24,-48.461 108.24,-108.24 0,-59.779 -48.461,-108.24 -108.24,-108.24 -59.778,0 -108.239,48.461 -108.239,108.24 z" />
		
			<line
   fill="none"
   stroke="#ffffff"
   stroke-width="4.252"
   stroke-linejoin="round"
   x1="278.25601"
   y1="99.403"
   x2="255.77699"
   y2="86.733002"
   id="line73" />
		
			<line
   fill="none"
   stroke="#ffffff"
   stroke-width="4.252"
   stroke-linejoin="round"
   x1="305.979"
   y1="70.605003"
   x2="293.14001"
   y2="48.719002"
   id="line75" />
		
			<line
   fill="none"
   stroke="#ffffff"
   stroke-width="4.252"
   stroke-linejoin="round"
   x1="411.772"
   y1="99.404999"
   x2="434.12701"
   y2="86.805"
   id="line77" />
		
			<line
   fill="none"
   stroke="#ffffff"
   stroke-width="4.252"
   stroke-linejoin="round"
   x1="383.94501"
   y1="70.788002"
   x2="396.79999"
   y2="48.827"
   id="line79" />
		
			<line
   fill="none"
   stroke="#ffffff"
   stroke-width="2.126"
   stroke-linejoin="round"
   x1="372.07401"
   y1="64.793999"
   x2="380.953"
   y2="41.198002"
   id="line81" />
		
			<line
   fill="none"
   stroke="#ffffff"
   stroke-width="2.126"
   stroke-linejoin="round"
   x1="359.36099"
   y1="61.189999"
   x2="364.06601"
   y2="36.493999"
   id="line83" />
		
			<line
   fill="none"
   stroke="#ffffff"
   stroke-width="2.126"
   stroke-linejoin="round"
   x1="330.535"
   y1="61.216"
   x2="325.82401"
   y2="36.458"
   id="line85" />
		
			<line
   fill="none"
   stroke="#ffffff"
   stroke-width="2.126"
   stroke-linejoin="round"
   x1="317.87299"
   y1="64.825996"
   x2="308.98199"
   y2="41.198002"
   id="line87" />
		
			<line
   fill="none"
   stroke="#ffffff"
   stroke-width="4.252"
   stroke-linejoin="round"
   x1="447.22198"
   y1="136.97301"
   x2="421.086"
   y2="136.97301"
   id="line89" />
		
			<line
   fill="none"
   stroke="#ffffff"
   stroke-width="4.252"
   stroke-linejoin="round"
   x1="268.944"
   y1="137.00101"
   x2="242.61"
   y2="137.00101"
   id="line91" />
		<polygon
   fill="#f7f7f7"
   points="347.14,59.834 350.584,25.98 339.246,25.98 342.888,59.834 "
   id="polygon93" />
	</g>
</g>
<g
   id="Layer_4"
   transform="matrix(1.32,0,0,1.32,1.3748156,0.43381583)">
	<polyline
   fill="none"
   stroke="#ffffff"
   stroke-width="2.126"
   stroke-linejoin="round"
   points="47.193,358.18 131.002,325.868    81.888,376.929  "
   id="polyline98" />
	<polyline
   fill="none"
   stroke="#ffffff"
   stroke-width="2.126"
   stroke-linejoin="round"
   points="213.425,357.6 131.002,325.868    180.258,377.039  "
   id="polyline100" />
	
		<ellipse
   id="ellipse439"
   fill="none"
   stroke="#ffffff"
   stroke-width="0.2133"
   stroke-linejoin="bevel"
   cx="131.002"
   cy="325.86801"
   rx="97.282997"
   ry="58.360001" />
	<polygon
   points="117.203,305.487 115.224,302.737 147.099,302.737 145.263,305.487 "
   id="polygon103" />
	<polygon
   points="124.895,316.289 122.915,313.47 139.987,313.47 138.115,316.289 "
   id="polygon105" />
	<polygon
   fill="#ffffff"
   points="122.488,339.136 123.712,337.341 138.281,337.341 139.541,339.136 "
   id="polygon107" />
	<polygon
   fill="#ffffff"
   points="114.863,349.726 116.627,347.175 145.365,347.175 147.094,349.726 "
   id="polygon109" />
	<polygon
   fill="#ffffff"
   points="105.302,363.57 107.211,360.82 154.856,360.82 156.726,363.57 "
   id="polygon111" />
	<line
   fill="none"
   stroke="#ffffff"
   stroke-width="4.252"
   x1="33.417"
   y1="325.86801"
   x2="228.588"
   y2="325.86801"
   id="line113" />
</g>
<g
   id="Layer_6"
   transform="matrix(1.32,0,0,1.32,1.3748156,0.43381583)">
	<g
   id="g119">
		<path
   id="rect2579"
   fill="#6c5446"
   stroke="#ffffff"
   stroke-width="0.0454"
   stroke-linejoin="bevel"
   d="m 20.747,121.246 h 200.97 v 0 113.182 0 H 20.747 v 0 z" />
		<path
   id="path5263"
   fill="#5eb8e6"
   stroke="#ffffff"
   stroke-width="0.0426"
   stroke-linejoin="bevel"
   d="M 20.809,37.384 H 221.73 v 0 99.541 0 H 20.809 v 0 z" />
		
			<circle
   id="circle417"
   fill="none"
   stroke="#ffffff"
   stroke-width="0.2607"
   stroke-linejoin="bevel"
   cx="123.771"
   cy="137.028"
   r="94.417" />
	</g>
</g>
</svg>
