<?xml version="1.0" encoding="utf-8"?>
<!-- Generator: Fusion 360, Shaper Origin Export Add-In, Version 1.7.0  -->
<svg xmlns="http://www.w3.org/2000/svg" xmlns:xlink="http://www.w3.org/1999/xlink" xmlns:shaper="http://www.shapertools.com/namespaces/shaper" shaper:fusionaddin="version:1.7.0" width="14.605cm" height="5.715cm" version="1.1" x="0cm" y="0cm" viewBox="0 0 14.605 5.715" enable-background="new 0 0 14.605 5.715" xml:space="preserve"><path d="M7.3025,2.7825 A0.075,0.075 0 0,1 7.2275,2.8575 L-7.2275,2.8575 A0.075,0.075 90 0,1 -7.3025,2.7825 L-7.3025,-2.7825 A0.075,0.075 180 0,1 -7.2275,-2.8575 L7.2275,-2.8575 A0.075,0.075 270 0,1 7.3025,-2.7825 L7.3025,2.7825z" transform="matrix(1,0,0,-1,7.3025,2.8575)" fill="rgb(0,0,0)" stroke-linecap="round" stroke-linejoin="round" /><path d="M5.5137497,-2.3712567 a0.16,0.16 0 1,1 0.32,0 a0.16,0.16 0 1,1 -0.32,0z" transform="matrix(1,0,0,-1,7.3025,2.8575)" fill="rgb(255,255,255)" stroke="rgb(0,0,0)" stroke-width="0.0010cm" stroke-linecap="round" stroke-linejoin="round" /><path d="M5.5137497,2.3912528 a0.16,0.16 0 1,1 0.32,0 a0.16,0.16 0 1,1 -0.32,0z" transform="matrix(1,0,0,-1,7.3025,2.8575)" fill="rgb(255,255,255)" stroke="rgb(0,0,0)" stroke-width="0.0010cm" stroke-linecap="round" stroke-linejoin="round" /><path d="M-5.8337484,-2.3712567 a0.16,0.16 0 1,1 0.32,0 a0.16,0.16 0 1,1 -0.32,0z" transform="matrix(1,0,0,-1,7.3025,2.8575)" fill="rgb(255,255,255)" stroke="rgb(0,0,0)" stroke-width="0.0010cm" stroke-linecap="round" stroke-linejoin="round" /><path d="M-5.8337484,2.3912528 a0.16,0.16 0 1,1 0.32,0 a0.16,0.16 0 1,1 -0.32,0z" transform="matrix(1,0,0,-1,7.3025,2.8575)" fill="rgb(255,255,255)" stroke="rgb(0,0,0)" stroke-width="0.0010cm" stroke-linecap="round" stroke-linejoin="round" /><path d="M2.735,2.465 L2.735,-2.455 A0.05,0.05 0 0,0 2.685,-2.505 L0.2299999,-2.5049999 A0.05,0.05 269.9999325 0,0 0.18,-2.455 L0.18,2.465 A0.05,0.05 180 0,0 0.23,2.515 L2.6850001,2.5149999 A0.05,0.05 89.9999325 0,0 2.735,2.465z" transform="matrix(1,0,0,-1,7.3025,2.8575)" fill="rgb(255,255,255)" stroke="rgb(0,0,0)" stroke-width="0.0010cm" stroke-linecap="round" stroke-linejoin="round" /><path d="M-3.095,1.22 L-3.095,-1.21 A0.05,0.05 0 0,0 -3.145,-1.26 L-5.6000001,-1.2599999 A0.05,0.05 269.9999325 0,0 -5.65,-1.21 L-5.65,1.22 A0.05,0.05 180 0,0 -5.6,1.27 L-3.1449999,1.2699999 A0.05,0.05 89.9999325 0,0 -3.095,1.22z" transform="matrix(1,0,0,-1,7.3025,2.8575)" fill="rgb(255,255,255)" stroke="rgb(0,0,0)" stroke-width="0.0010cm" stroke-linecap="round" stroke-linejoin="round" /><path d="M-0.18,2.465 L-0.18,-2.455 A0.05,0.05 0 0,0 -0.23,-2.505 L-2.6850001,-2.5049999 A0.05,0.05 269.9999325 0,0 -2.735,-2.455 L-2.735,2.465 A0.05,0.05 180 0,0 -2.685,2.515 L-0.2299999,2.5149999 A0.05,0.05 89.9999325 0,0 -0.18,2.465z" transform="matrix(1,0,0,-1,7.3025,2.8575)" fill="rgb(255,255,255)" stroke="rgb(0,0,0)" stroke-width="0.0010cm" stroke-linecap="round" stroke-linejoin="round" /><path d="M5.65,1.22 L5.65,-1.21 A0.05,0.05 0 0,0 5.6,-1.26 L3.1449999,-1.2599999 A0.05,0.05 269.9999325 0,0 3.095,-1.21 L3.095,1.22 A0.05,0.05 180 0,0 3.145,1.27 L5.6000001,1.2699999 A0.05,0.05 89.9999325 0,0 5.65,1.22z" transform="matrix(1,0,0,-1,7.3025,2.8575)" fill="rgb(255,255,255)" stroke="rgb(0,0,0)" stroke-width="0.0010cm" stroke-linecap="round" stroke-linejoin="round" /><path d="M6.50225,-1.42875 a0.324,0.324 0 1,1 0.648,0 a0.324,0.324 0 1,1 -0.648,0z" transform="matrix(1,0,0,-1,7.3025,2.8575)" fill="rgb(255,255,255)" stroke="rgb(0,0,0)" stroke-width="0.0010cm" stroke-linecap="round" stroke-linejoin="round" /><path d="M-7.15025,1.42875 a0.324,0.324 0 1,1 0.648,0 a0.324,0.324 0 1,1 -0.648,0z" transform="matrix(1,0,0,-1,7.3025,2.8575)" fill="rgb(255,255,255)" stroke="rgb(0,0,0)" stroke-width="0.0010cm" stroke-linecap="round" stroke-linejoin="round" /><path d="M-7.15025,-1.42875 a0.324,0.324 0 1,1 0.648,0 a0.324,0.324 0 1,1 -0.648,0z" transform="matrix(1,0,0,-1,7.3025,2.8575)" fill="rgb(255,255,255)" stroke="rgb(0,0,0)" stroke-width="0.0010cm" stroke-linecap="round" stroke-linejoin="round" /><path d="M6.50225,1.42875 a0.324,0.324 0 1,1 0.648,0 a0.324,0.324 0 1,1 -0.648,0z" transform="matrix(1,0,0,-1,7.3025,2.8575)" fill="rgb(255,255,255)" stroke="rgb(0,0,0)" stroke-width="0.0010cm" stroke-linecap="round" stroke-linejoin="round" /></svg>