<?xml version="1.0" encoding="UTF-8" standalone="no"?>
<!-- Created with Inkscape (http://www.inkscape.org/) -->

<svg
   width="210mm"
   height="297mm"
   viewBox="0 0 210 297"
   version="1.1"
   id="svg17516"
   xml:space="preserve"
   inkscape:version="1.3 (0e150ed6c4, 2023-07-21)"
   sodipodi:docname="OH_03_Marek.svg"
   inkscape:export-filename="OH_03_Combined.pdf"
   inkscape:export-xdpi="96"
   inkscape:export-ydpi="96"
   xmlns:inkscape="http://www.inkscape.org/namespaces/inkscape"
   xmlns:sodipodi="http://sodipodi.sourceforge.net/DTD/sodipodi-0.dtd"
   xmlns="http://www.w3.org/2000/svg"
   xmlns:svg="http://www.w3.org/2000/svg"><sodipodi:namedview
     id="namedview17518"
     pagecolor="#505050"
     bordercolor="#ffffff"
     borderopacity="1"
     inkscape:showpageshadow="0"
     inkscape:pageopacity="0"
     inkscape:pagecheckerboard="1"
     inkscape:deskcolor="#505050"
     inkscape:document-units="mm"
     showgrid="false"
     showguides="false"
     inkscape:zoom="0.70710678"
     inkscape:cx="129.40054"
     inkscape:cy="536.69405"
     inkscape:current-layer="layer1"
     inkscape:window-width="2455"
     inkscape:window-height="987"
     inkscape:window-x="-7"
     inkscape:window-y="0"
     inkscape:window-maximized="0"><sodipodi:guide
       position="109.20339,175.23909"
       orientation="0,-1"
       id="guide22499"
       inkscape:locked="false" /><sodipodi:guide
       position="104.45339,175.23909"
       orientation="1,0"
       id="guide22501"
       inkscape:locked="false" /><sodipodi:guide
       position="86.284161,182.79898"
       orientation="0,-1"
       id="guide22805"
       inkscape:locked="false" /><sodipodi:guide
       position="99.653388,124.29644"
       orientation="0,-1"
       id="guide23774"
       inkscape:locked="false" /><sodipodi:guide
       position="125.36539,77.633689"
       orientation="1,0"
       id="guide23908"
       inkscape:locked="false" /><sodipodi:guide
       position="149.36539,71.683692"
       orientation="1,0"
       id="guide23910"
       inkscape:locked="false" /><sodipodi:guide
       position="83.552388,71.683689"
       orientation="1,0"
       id="guide23912"
       inkscape:locked="false" /><sodipodi:guide
       position="59.552389,71.683692"
       orientation="1,0"
       id="guide23914"
       inkscape:locked="false" /><sodipodi:guide
       position="63.069954,83.349182"
       orientation="0,-1"
       id="guide23993"
       inkscape:locked="false" /><sodipodi:guide
       position="137.41697,78.391777"
       orientation="0,-1"
       id="guide24112"
       inkscape:locked="false" /><sodipodi:guide
       position="74.536809,60.110767"
       orientation="1,0"
       id="guide24163"
       inkscape:locked="false" /><sodipodi:guide
       position="71.551388,103.57119"
       orientation="1,0"
       id="guide25617"
       inkscape:locked="false" /><sodipodi:guide
       position="76.29502,188.57455"
       orientation="0,-1"
       id="guide26453"
       inkscape:locked="false" /><sodipodi:guide
       position="67.686185,113.20313"
       orientation="0,-1"
       id="guide26767"
       inkscape:locked="false" /><sodipodi:guide
       position="63.770925,174.48909"
       orientation="0,-1"
       id="guide1151"
       inkscape:locked="false" /><sodipodi:guide
       position="147.86538,103.57117"
       orientation="0,-1"
       id="guide1153"
       inkscape:locked="false" /><sodipodi:guide
       position="90.597686,188.26438"
       orientation="0,-1"
       id="guide1461"
       inkscape:locked="false" /><sodipodi:guide
       position="126.00422,89.015104"
       orientation="0,-1"
       id="guide1605"
       inkscape:locked="false" /><sodipodi:guide
       position="137.36538,59.809991"
       orientation="0,-1"
       id="guide1895"
       inkscape:locked="false" /><sodipodi:guide
       position="72.209544,60.266652"
       orientation="0,-1"
       id="guide1897"
       inkscape:locked="false" /><sodipodi:guide
       position="137.18996,56.562526"
       orientation="0,-1"
       id="guide1946"
       inkscape:locked="false" /></sodipodi:namedview><defs
     id="defs17513"><rect
       x="250.98705"
       y="498.61078"
       width="71.007971"
       height="58.587661"
       id="rect27065" /><rect
       x="241.68657"
       y="416.18844"
       width="91.858735"
       height="36.565128"
       id="rect22559" /><rect
       x="241.68657"
       y="416.18845"
       width="91.858734"
       height="36.565128"
       id="rect22559-6" /><rect
       x="241.68657"
       y="416.18845"
       width="196.96219"
       height="36.144714"
       id="rect22559-2" /><rect
       x="241.68657"
       y="416.18845"
       width="196.96219"
       height="36.144714"
       id="rect22559-2-5" /><rect
       x="241.68657"
       y="416.18845"
       width="196.96219"
       height="36.144714"
       id="rect22559-2-5-6" /><rect
       x="241.68657"
       y="416.18845"
       width="196.96219"
       height="36.144714"
       id="rect22559-2-0" /><rect
       x="241.68657"
       y="416.18845"
       width="196.96219"
       height="36.144714"
       id="rect22559-2-0-3" /><rect
       x="241.68657"
       y="416.18845"
       width="196.96219"
       height="36.144714"
       id="rect22559-2-0-0" /><rect
       x="241.68657"
       y="416.18845"
       width="196.96219"
       height="36.144714"
       id="rect22559-2-0-0-3" /><rect
       x="241.68657"
       y="416.18845"
       width="196.96219"
       height="36.144714"
       id="rect22559-2-0-0-3-2" /><rect
       x="241.68657"
       y="416.18845"
       width="196.96219"
       height="36.144714"
       id="rect22559-2-5-8" /><rect
       x="241.68657"
       y="416.18845"
       width="196.96219"
       height="36.144714"
       id="rect22559-2-5-88" /><rect
       x="241.68657"
       y="416.18845"
       width="196.96219"
       height="36.144714"
       id="rect22559-2-5-5" /><rect
       x="241.68657"
       y="416.18845"
       width="196.96219"
       height="36.144714"
       id="rect22559-2-5-5-9" /><rect
       x="241.68657"
       y="416.18845"
       width="196.96219"
       height="36.144714"
       id="rect22559-2-0-0-3-6" /><rect
       x="241.68657"
       y="416.18845"
       width="196.96219"
       height="36.144714"
       id="rect22559-2-0-0-38" /><rect
       x="241.68657"
       y="416.18845"
       width="196.96219"
       height="36.144714"
       id="rect22559-2-0-0-3-8" /><rect
       x="241.68657"
       y="416.18845"
       width="196.96219"
       height="36.144714"
       id="rect22559-2-0-0-8" /><rect
       x="241.68657"
       y="416.18845"
       width="196.96219"
       height="36.144714"
       id="rect22559-2-0-0-3-6-8" /><rect
       x="241.68657"
       y="416.18845"
       width="196.96219"
       height="36.144714"
       id="rect22559-2-0-0-3-8-3" /></defs><g
     inkscape:label="Layer 1"
     inkscape:groupmode="layer"
     id="layer1"><g
       id="g20630"
       transform="matrix(-10,0,0,-10,176.67839,258.85381)"
       style="display:inline;fill:none;stroke:#ff0000;stroke-width:0.05;stroke-dasharray:none;stroke-opacity:1"><path
         d="M -6.82625,-3.9288 H -7.0637 A 0.1588,0.1588 90 0 1 -7.2225,-4.0876 V -7.4212 A 0.1588,0.1588 -180 0 1 -7.0637,-7.58 H 7.0637 a 0.1588,0.1588 -90 0 1 0.1588,0.1588 v 2.3811 A 0.1588,0.1588 0 0 1 7.0637,-4.8813 H 6.82625 a 0.63505,0.63505 -90 0 0 0,1.2701 H 7.0637 a 0.1588,0.1588 -90 0 1 0.1588,0.1588 V 5.4374 A 0.1588,0.1588 0 0 1 7.0637,5.5962 H 6.82625 A 0.63505,0.63505 -90 0 0 6.1912,6.23125 V 7.4212 A 0.1588,0.1588 0 0 1 6.0324,7.58 H -6.0324 A 0.1588,0.1588 90 0 1 -6.1912,7.4212 V 6.23125 A 0.63505,0.63505 0 0 0 -6.82625,5.5962 H -7.0637 A 0.1588,0.1588 90 0 1 -7.2225,5.4374 v -7.9373 a 0.1588,0.1588 -180 0 1 0.1588,-0.1588 h 0.23745 a 0.63505,0.63505 90 0 0 0,-1.2701 z"
         transform="matrix(1,0,0,-1,7.2225,7.58)"
         fill="#000000"
         stroke-linecap="round"
         stroke-linejoin="round"
         id="path20579"
         style="fill:none;stroke:#ff0000;stroke-width:0.05;stroke-dasharray:none;stroke-opacity:1" /><path
         d="m 0.48,-1.0350249 a 0.72,0.72 0 1 1 1.44,0 0.72,0.72 0 1 1 -1.44,0 z"
         transform="matrix(1,0,0,-1,7.2225,7.58)"
         fill="#ffffff"
         stroke="#000000"
         stroke-width="0.001cm"
         stroke-linecap="round"
         stroke-linejoin="round"
         id="path20581"
         style="fill:none;stroke:#ff0000;stroke-width:0.05;stroke-dasharray:none;stroke-opacity:1" /><path
         d="m -1.92,-1.0350249 a 0.72,0.72 0 1 1 1.44,0 0.72,0.72 0 1 1 -1.44,0 z"
         transform="matrix(1,0,0,-1,7.2225,7.58)"
         fill="#ffffff"
         stroke="#000000"
         stroke-width="0.001cm"
         stroke-linecap="round"
         stroke-linejoin="round"
         id="path20583"
         style="fill:none;stroke:#ff0000;stroke-width:0.05;stroke-dasharray:none;stroke-opacity:1" /><path
         d="m -2.5353,-3.0275 a 0.05,0.05 -180 0 0 0.05,0.05 h 4.97 a 0.05,0.05 90 0 0 0.05,-0.05 v -1.185 a 0.05,0.05 0 0 0 -0.05,-0.05 h -4.97 a 0.05,0.05 -90 0 0 -0.05,0.05 z"
         transform="matrix(1,0,0,-1,7.2225,7.58)"
         fill="#ffffff"
         stroke="#000000"
         stroke-width="0.001cm"
         stroke-linecap="round"
         stroke-linejoin="round"
         id="path20585"
         style="fill:none;stroke:#ff0000;stroke-width:0.05;stroke-dasharray:none;stroke-opacity:1" /><path
         d="m -5.8253,2.2725 a 0.05,0.05 -180 0 0 0.05,0.05 h 4.97 a 0.05,0.05 90 0 0 0.05,-0.05 v -1.185 a 0.05,0.05 0 0 0 -0.05,-0.05 h -4.97 a 0.05,0.05 -90 0 0 -0.05,0.05 z"
         transform="matrix(1,0,0,-1,7.2225,7.58)"
         fill="#ffffff"
         stroke="#000000"
         stroke-width="0.001cm"
         stroke-linecap="round"
         stroke-linejoin="round"
         id="path20587"
         style="fill:none;stroke:#ff0000;stroke-width:0.05;stroke-dasharray:none;stroke-opacity:1" /><path
         d="m 0.7552,2.2725 a 0.05,0.05 -180 0 0 0.05,0.05 h 4.97 a 0.05,0.05 90 0 0 0.05,-0.05 v -1.185 a 0.05,0.05 0 0 0 -0.05,-0.05 h -4.97 a 0.05,0.05 -90 0 0 -0.05,0.05 z"
         transform="matrix(1,0,0,-1,7.2225,7.58)"
         fill="#ffffff"
         stroke="#000000"
         stroke-width="0.001cm"
         stroke-linecap="round"
         stroke-linejoin="round"
         id="path20589"
         style="fill:none;stroke:#ff0000;stroke-width:0.05;stroke-dasharray:none;stroke-opacity:1" /><path
         d="m -0.475,-6.12929 a 0.475,0.475 0 1 1 0.95,0 0.475,0.475 0 1 1 -0.95,0 z"
         transform="matrix(1,0,0,-1,7.2225,7.58)"
         fill="#ffffff"
         stroke="#000000"
         stroke-width="0.001cm"
         stroke-linecap="round"
         stroke-linejoin="round"
         id="path20591"
         style="fill:none;stroke:#ff0000;stroke-width:0.05;stroke-dasharray:none;stroke-opacity:1" /><path
         d="m -5.2412,4.22625 a 0.75,0.75 0 1 1 1.5,0 0.75,0.75 0 1 1 -1.5,0 z"
         transform="matrix(1,0,0,-1,7.2225,7.58)"
         fill="#ffffff"
         stroke="#000000"
         stroke-width="0.001cm"
         stroke-linecap="round"
         stroke-linejoin="round"
         id="path20593"
         style="fill:none;stroke:#ff0000;stroke-width:0.05;stroke-dasharray:none;stroke-opacity:1" /><path
         d="m -2.8412,4.22625 a 0.75,0.75 0 1 1 1.5,0 0.75,0.75 0 1 1 -1.5,0 z"
         transform="matrix(1,0,0,-1,7.2225,7.58)"
         fill="#ffffff"
         stroke="#000000"
         stroke-width="0.001cm"
         stroke-linecap="round"
         stroke-linejoin="round"
         id="path20595"
         style="fill:none;stroke:#ff0000;stroke-width:0.05;stroke-dasharray:none;stroke-opacity:1" /><path
         d="m 1.3401,4.22625 a 0.75,0.75 0 1 1 1.5,0 0.75,0.75 0 1 1 -1.5,0 z"
         transform="matrix(1,0,0,-1,7.2225,7.58)"
         fill="#ffffff"
         stroke="#000000"
         stroke-width="0.001cm"
         stroke-linecap="round"
         stroke-linejoin="round"
         id="path20597"
         style="fill:none;stroke:#ff0000;stroke-width:0.05;stroke-dasharray:none;stroke-opacity:1" /><path
         d="m 3.7401,4.22625 a 0.75,0.75 0 1 1 1.5,0 0.75,0.75 0 1 1 -1.5,0 z"
         transform="matrix(1,0,0,-1,7.2225,7.58)"
         fill="#ffffff"
         stroke="#000000"
         stroke-width="0.001cm"
         stroke-linecap="round"
         stroke-linejoin="round"
         id="path20599"
         style="fill:none;stroke:#ff0000;stroke-width:0.05;stroke-dasharray:none;stroke-opacity:1" /><path
         d="m 5.55495,7.18375 a 0.16,0.16 0 1 1 0.32,0 0.16,0.16 0 1 1 -0.32,0 z"
         transform="matrix(1,0,0,-1,7.2225,7.58)"
         fill="#ffffff"
         stroke="#000000"
         stroke-width="0.001cm"
         stroke-linecap="round"
         stroke-linejoin="round"
         id="path20601"
         style="fill:none;stroke:#ff0000;stroke-width:0.05;stroke-dasharray:none;stroke-opacity:1" /><path
         d="m -5.87495,-7.10375 a 0.16,0.16 0 1 1 0.32,0 0.16,0.16 0 1 1 -0.32,0 z"
         transform="matrix(1,0,0,-1,7.2225,7.58)"
         fill="#ffffff"
         stroke="#000000"
         stroke-width="0.001cm"
         stroke-linecap="round"
         stroke-linejoin="round"
         id="path20603"
         style="fill:none;stroke:#ff0000;stroke-width:0.05;stroke-dasharray:none;stroke-opacity:1" /><path
         d="m -5.87495,7.18375 a 0.16,0.16 0 1 1 0.32,0 0.16,0.16 0 1 1 -0.32,0 z"
         transform="matrix(1,0,0,-1,7.2225,7.58)"
         fill="#ffffff"
         stroke="#000000"
         stroke-width="0.001cm"
         stroke-linecap="round"
         stroke-linejoin="round"
         id="path20605"
         style="fill:none;stroke:#ff0000;stroke-width:0.05;stroke-dasharray:none;stroke-opacity:1" /><path
         d="m 5.55495,-7.10375 a 0.16,0.16 0 1 1 0.32,0 0.16,0.16 0 1 1 -0.32,0 z"
         transform="matrix(1,0,0,-1,7.2225,7.58)"
         fill="#ffffff"
         stroke="#000000"
         stroke-width="0.001cm"
         stroke-linecap="round"
         stroke-linejoin="round"
         id="path20607"
         style="fill:none;stroke:#ff0000;stroke-width:0.05;stroke-dasharray:none;stroke-opacity:1" /></g><circle
       style="display:inline;fill:none;stroke:#00767a;stroke-width:0.499999;stroke-miterlimit:2.7;stroke-dasharray:none;stroke-opacity:1"
       id="path22503"
       cx="104.45339"
       cy="121.76091"
       r="12.15" /></g><g
     id="g1"
     transform="matrix(0,-10,10,0,31.42839,259.65381)"
     style="fill:none;fill-opacity:1;stroke:#00ffc8;stroke-width:0.02;stroke-dasharray:none;stroke-opacity:1"><path
       d="m 8.418075,7.3025 h -22.71 a 0.075,0.075 90 0 1 -0.075,-0.075 v -14.455 a 0.075,0.075 -180 0 1 0.075,-0.075 h 22.71 a 0.075,0.075 -90 0 1 0.075,0.075 v 14.455 a 0.075,0.075 0 0 1 -0.075,0.075 z"
       transform="matrix(1,0,0,-1,14.366925,7.3025)"
       fill="#000000"
       stroke-linecap="round"
       stroke-linejoin="round"
       id="path1"
       style="fill:none;fill-opacity:1;stroke:#00ffc8;stroke-width:0.02;stroke-dasharray:none;stroke-opacity:1" /><path
       d="m 2.444425,0 a 2.75,2.75 0 1 1 5.5,0 2.75,2.75 0 1 1 -5.5,0 z"
       transform="matrix(1,0,0,-1,14.366925,7.3025)"
       fill="#ffffff"
       stroke="#000000"
       stroke-width="0.001cm"
       stroke-linecap="round"
       stroke-linejoin="round"
       id="path2"
       style="fill:none;fill-opacity:1;stroke:#00ffc8;stroke-width:0.02;stroke-dasharray:none;stroke-opacity:1" /><path
       d="m -3.679425,-2.5353 a 0.05,0.05 -90 0 0 -0.05,0.05 v 4.97 a 0.05,0.05 -180 0 0 0.05,0.05 h 1.185 a 0.05,0.05 90 0 0 0.05,-0.05 v -4.97 a 0.05,0.05 0 0 0 -0.05,-0.05 z"
       transform="matrix(1,0,0,-1,14.366925,7.3025)"
       fill="#ffffff"
       stroke="#000000"
       stroke-width="0.001cm"
       stroke-linecap="round"
       stroke-linejoin="round"
       id="path3"
       style="fill:none;fill-opacity:1;stroke:#00ffc8;stroke-width:0.02;stroke-dasharray:none;stroke-opacity:1" /><path
       d="m -8.979425,-5.8253 a 0.05,0.05 -90 0 0 -0.05,0.05 v 4.97 a 0.05,0.05 -180 0 0 0.05,0.05 h 1.185 a 0.05,0.05 90 0 0 0.05,-0.05 v -4.97 a 0.05,0.05 0 0 0 -0.05,-0.05 z"
       transform="matrix(1,0,0,-1,14.366925,7.3025)"
       fill="#ffffff"
       stroke="#000000"
       stroke-width="0.001cm"
       stroke-linecap="round"
       stroke-linejoin="round"
       id="path4"
       style="fill:none;fill-opacity:1;stroke:#00ffc8;stroke-width:0.02;stroke-dasharray:none;stroke-opacity:1" /><path
       d="m -8.979425,0.7552 a 0.05,0.05 -90 0 0 -0.05,0.05 v 4.97 a 0.05,0.05 -180 0 0 0.05,0.05 h 1.185 a 0.05,0.05 90 0 0 0.05,-0.05 v -4.97 a 0.05,0.05 0 0 0 -0.05,-0.05 z"
       transform="matrix(1,0,0,-1,14.366925,7.3025)"
       fill="#ffffff"
       stroke="#000000"
       stroke-width="0.001cm"
       stroke-linecap="round"
       stroke-linejoin="round"
       id="path5"
       style="fill:none;fill-opacity:1;stroke:#00ffc8;stroke-width:0.02;stroke-dasharray:none;stroke-opacity:1" /><path
       d="m 1.110575,-3.1133 h 1.185 a 0.05,0.05 90 0 0 0.05,-0.05 v -2.455 a 0.05,0.05 0 0 0 -0.05,-0.05 h -1.185 a 0.05,0.05 -90 0 0 -0.05,0.05 v 2.4550001 a 0.05,0.05 179.99985 0 0 0.05,0.05 z"
       transform="matrix(1,0,0,-1,14.366925,7.3025)"
       fill="#ffffff"
       stroke="#000000"
       stroke-width="0.001cm"
       stroke-linecap="round"
       stroke-linejoin="round"
       id="path6"
       style="fill:none;fill-opacity:1;stroke:#00ffc8;stroke-width:0.02;stroke-dasharray:none;stroke-opacity:1" /><path
       d="m 1.110575,1.2777 h 1.185 a 0.05,0.05 90 0 0 0.05,-0.05 v -2.455 a 0.05,0.05 0 0 0 -0.05,-0.05 h -1.185 a 0.05,0.05 -90 0 0 -0.05,0.05 v 2.4550001 a 0.05,0.05 179.99985 0 0 0.05,0.05 z"
       transform="matrix(1,0,0,-1,14.366925,7.3025)"
       fill="#ffffff"
       stroke="#000000"
       stroke-width="0.001cm"
       stroke-linecap="round"
       stroke-linejoin="round"
       id="path7"
       style="fill:none;fill-opacity:1;stroke:#00ffc8;stroke-width:0.02;stroke-dasharray:none;stroke-opacity:1" /><path
       d="m 1.110575,5.6687 h 1.185 a 0.05,0.05 90 0 0 0.05,-0.05 v -2.455 a 0.05,0.05 0 0 0 -0.05,-0.05 h -1.185 a 0.05,0.05 -90 0 0 -0.05,0.05 v 2.4550001 a 0.05,0.05 179.99985 0 0 0.05,0.05 z"
       transform="matrix(1,0,0,-1,14.366925,7.3025)"
       fill="#ffffff"
       stroke="#000000"
       stroke-width="0.001cm"
       stroke-linecap="round"
       stroke-linejoin="round"
       id="path8"
       style="fill:none;fill-opacity:1;stroke:#00ffc8;stroke-width:0.02;stroke-dasharray:none;stroke-opacity:1" /><path
       d="M 5.3455751,-3.1263 H 7.775575 a 0.05,0.05 90 0 0 0.05,-0.05 v -2.455 a 0.05,0.05 0 0 0 -0.05,-0.05 H 5.3455751 a 0.05,0.05 -90 0 0 -0.05,0.05 v 2.4550001 a 0.05,0.05 179.99985 0 0 0.05,0.05 z"
       transform="matrix(1,0,0,-1,14.366925,7.3025)"
       fill="#ffffff"
       stroke="#000000"
       stroke-width="0.001cm"
       stroke-linecap="round"
       stroke-linejoin="round"
       id="path9"
       style="fill:none;fill-opacity:1;stroke:#00ffc8;stroke-width:0.02;stroke-dasharray:none;stroke-opacity:1" /><path
       d="M 5.3455751,5.6687 H 7.775575 a 0.05,0.05 90 0 0 0.05,-0.05 v -2.455 a 0.05,0.05 0 0 0 -0.05,-0.05 H 5.3455751 a 0.05,0.05 -90 0 0 -0.05,0.05 v 2.4550001 a 0.05,0.05 179.99985 0 0 0.05,0.05 z"
       transform="matrix(1,0,0,-1,14.366925,7.3025)"
       fill="#ffffff"
       stroke="#000000"
       stroke-width="0.001cm"
       stroke-linecap="round"
       stroke-linejoin="round"
       id="path10"
       style="fill:none;fill-opacity:1;stroke:#00ffc8;stroke-width:0.02;stroke-dasharray:none;stroke-opacity:1" /><path
       d="m -1.052635,0 a 0.475,0.475 0 1 1 0.95,0 0.475,0.475 0 1 1 -0.95,0 z"
       transform="matrix(1,0,0,-1,14.366925,7.3025)"
       fill="#ffffff"
       stroke="#000000"
       stroke-width="0.001cm"
       stroke-linecap="round"
       stroke-linejoin="round"
       id="path11"
       style="fill:none;fill-opacity:1;stroke:#00ffc8;stroke-width:0.02;stroke-dasharray:none;stroke-opacity:1" /><path
       d="m -3.737175,-6.82625 a 0.324,0.324 0 1 1 0.648,0 0.324,0.324 0 1 1 -0.648,0 z"
       transform="matrix(1,0,0,-1,14.366925,7.3025)"
       fill="#ffffff"
       stroke="#000000"
       stroke-width="0.001cm"
       stroke-linecap="round"
       stroke-linejoin="round"
       id="path12"
       style="fill:none;fill-opacity:1;stroke:#00ffc8;stroke-width:0.02;stroke-dasharray:none;stroke-opacity:1" /><path
       d="m -13.262175,6.82625 a 0.324,0.324 0 1 1 0.648,0 0.324,0.324 0 1 1 -0.648,0 z"
       transform="matrix(1,0,0,-1,14.366925,7.3025)"
       fill="#ffffff"
       stroke="#000000"
       stroke-width="0.001cm"
       stroke-linecap="round"
       stroke-linejoin="round"
       id="path13"
       style="fill:none;fill-opacity:1;stroke:#00ffc8;stroke-width:0.02;stroke-dasharray:none;stroke-opacity:1" /><path
       d="m 6.740325,6.82625 a 0.324,0.324 0 1 1 0.648,0 0.324,0.324 0 1 1 -0.648,0 z"
       transform="matrix(1,0,0,-1,14.366925,7.3025)"
       fill="#ffffff"
       stroke="#000000"
       stroke-width="0.001cm"
       stroke-linecap="round"
       stroke-linejoin="round"
       id="path14"
       style="fill:none;fill-opacity:1;stroke:#00ffc8;stroke-width:0.02;stroke-dasharray:none;stroke-opacity:1" /><path
       d="m -13.262175,-6.82625 a 0.324,0.324 0 1 1 0.648,0 0.324,0.324 0 1 1 -0.648,0 z"
       transform="matrix(1,0,0,-1,14.366925,7.3025)"
       fill="#ffffff"
       stroke="#000000"
       stroke-width="0.001cm"
       stroke-linecap="round"
       stroke-linejoin="round"
       id="path15"
       style="fill:none;fill-opacity:1;stroke:#00ffc8;stroke-width:0.02;stroke-dasharray:none;stroke-opacity:1" /><path
       d="m 6.740325,-6.82625 a 0.324,0.324 0 1 1 0.648,0 0.324,0.324 0 1 1 -0.648,0 z"
       transform="matrix(1,0,0,-1,14.366925,7.3025)"
       fill="#ffffff"
       stroke="#000000"
       stroke-width="0.001cm"
       stroke-linecap="round"
       stroke-linejoin="round"
       id="path16"
       style="fill:none;fill-opacity:1;stroke:#00ffc8;stroke-width:0.02;stroke-dasharray:none;stroke-opacity:1" /><path
       d="m -2.784675,6.82625 a 0.324,0.324 0 1 1 0.648,0 0.324,0.324 0 1 1 -0.648,0 z"
       transform="matrix(1,0,0,-1,14.366925,7.3025)"
       fill="#ffffff"
       stroke="#000000"
       stroke-width="0.001cm"
       stroke-linecap="round"
       stroke-linejoin="round"
       id="path17"
       style="fill:none;fill-opacity:1;stroke:#00ffc8;stroke-width:0.02;stroke-dasharray:none;stroke-opacity:1" /><path
       d="m -14.050675,5.71495 a 0.16,0.16 0 1 1 0.32,0 0.16,0.16 0 1 1 -0.32,0 z"
       transform="matrix(1,0,0,-1,14.366925,7.3025)"
       fill="#ffffff"
       stroke="#000000"
       stroke-width="0.001cm"
       stroke-linecap="round"
       stroke-linejoin="round"
       id="path18"
       style="fill:none;fill-opacity:1;stroke:#00ffc8;stroke-width:0.02;stroke-dasharray:none;stroke-opacity:1" /><path
       d="m 7.956825,-5.7412 a 0.16,0.16 0 1 1 0.32,0 0.16,0.16 0 1 1 -0.32,0 z"
       transform="matrix(1,0,0,-1,14.366925,7.3025)"
       fill="#ffffff"
       stroke="#000000"
       stroke-width="0.001cm"
       stroke-linecap="round"
       stroke-linejoin="round"
       id="path19"
       style="fill:none;fill-opacity:1;stroke:#00ffc8;stroke-width:0.02;stroke-dasharray:none;stroke-opacity:1" /><path
       d="m 7.956825,5.7412 a 0.16,0.16 0 1 1 0.32,0 0.16,0.16 0 1 1 -0.32,0 z"
       transform="matrix(1,0,0,-1,14.366925,7.3025)"
       fill="#ffffff"
       stroke="#000000"
       stroke-width="0.001cm"
       stroke-linecap="round"
       stroke-linejoin="round"
       id="path20"
       style="fill:none;fill-opacity:1;stroke:#00ffc8;stroke-width:0.02;stroke-dasharray:none;stroke-opacity:1" /><path
       d="m 0.236825,-5.71495 a 0.16,0.16 0 1 1 0.32,0 0.16,0.16 0 1 1 -0.32,0 z"
       transform="matrix(1,0,0,-1,14.366925,7.3025)"
       fill="#ffffff"
       stroke="#000000"
       stroke-width="0.001cm"
       stroke-linecap="round"
       stroke-linejoin="round"
       id="path21"
       style="fill:none;fill-opacity:1;stroke:#00ffc8;stroke-width:0.02;stroke-dasharray:none;stroke-opacity:1" /><path
       d="m -14.050675,-5.71495 a 0.16,0.16 0 1 1 0.32,0 0.16,0.16 0 1 1 -0.32,0 z"
       transform="matrix(1,0,0,-1,14.366925,7.3025)"
       fill="#ffffff"
       stroke="#000000"
       stroke-width="0.001cm"
       stroke-linecap="round"
       stroke-linejoin="round"
       id="path22"
       style="fill:none;fill-opacity:1;stroke:#00ffc8;stroke-width:0.02;stroke-dasharray:none;stroke-opacity:1" /><path
       d="m 2.6245495,-1.95 a 0.16,0.16 0 1 1 0.32,0 0.16,0.16 0 1 1 -0.32,0 z"
       transform="matrix(1,0,0,-1,14.366925,7.3025)"
       fill="#ffffff"
       stroke="#000000"
       stroke-width="0.001cm"
       stroke-linecap="round"
       stroke-linejoin="round"
       id="path23"
       style="fill:none;fill-opacity:1;stroke:#00ffc8;stroke-width:0.02;stroke-dasharray:none;stroke-opacity:1" /><path
       d="m 7.4443005,1.95 a 0.16,0.16 0 1 1 0.32,0 0.16,0.16 0 1 1 -0.32,0 z"
       transform="matrix(1,0,0,-1,14.366925,7.3025)"
       fill="#ffffff"
       stroke="#000000"
       stroke-width="0.001cm"
       stroke-linecap="round"
       stroke-linejoin="round"
       id="path24"
       style="fill:none;fill-opacity:1;stroke:#00ffc8;stroke-width:0.02;stroke-dasharray:none;stroke-opacity:1" /><path
       d="m 0.236825,5.71495 a 0.16,0.16 0 1 1 0.32,0 0.16,0.16 0 1 1 -0.32,0 z"
       transform="matrix(1,0,0,-1,14.366925,7.3025)"
       fill="#ffffff"
       stroke="#000000"
       stroke-width="0.001cm"
       stroke-linecap="round"
       stroke-linejoin="round"
       id="path25"
       style="fill:none;fill-opacity:1;stroke:#00ffc8;stroke-width:0.02;stroke-dasharray:none;stroke-opacity:1" /><path
       d="m -11.528175,-4.4912 a 0.595,0.595 0 1 1 1.19,0 0.595,0.595 0 1 1 -1.19,0 z"
       transform="matrix(1,0,0,-1,14.366925,7.3025)"
       fill="#ffffff"
       stroke="#000000"
       stroke-width="0.001cm"
       stroke-linecap="round"
       stroke-linejoin="round"
       id="path26"
       style="fill:none;fill-opacity:1;stroke:#00ffc8;stroke-width:0.02;stroke-dasharray:none;stroke-opacity:1" /><path
       d="m -6.2669001,-1.2 a 0.595,0.595 0 1 1 1.19,0 0.595,0.595 0 1 1 -1.19,0 z"
       transform="matrix(1,0,0,-1,14.366925,7.3025)"
       fill="#ffffff"
       stroke="#000000"
       stroke-width="0.001cm"
       stroke-linecap="round"
       stroke-linejoin="round"
       id="path27"
       style="fill:none;fill-opacity:1;stroke:#00ffc8;stroke-width:0.02;stroke-dasharray:none;stroke-opacity:1" /><path
       d="m -11.528175,2.0901 a 0.595,0.595 0 1 1 1.19,0 0.595,0.595 0 1 1 -1.19,0 z"
       transform="matrix(1,0,0,-1,14.366925,7.3025)"
       fill="#ffffff"
       stroke="#000000"
       stroke-width="0.001cm"
       stroke-linecap="round"
       stroke-linejoin="round"
       id="path28"
       style="fill:none;fill-opacity:1;stroke:#00ffc8;stroke-width:0.02;stroke-dasharray:none;stroke-opacity:1" /><path
       d="m -11.528175,-2.0912 a 0.595,0.595 0 1 1 1.19,0 0.595,0.595 0 1 1 -1.19,0 z"
       transform="matrix(1,0,0,-1,14.366925,7.3025)"
       fill="#ffffff"
       stroke="#000000"
       stroke-width="0.001cm"
       stroke-linecap="round"
       stroke-linejoin="round"
       id="path29"
       style="fill:none;fill-opacity:1;stroke:#00ffc8;stroke-width:0.02;stroke-dasharray:none;stroke-opacity:1" /><path
       d="m -6.2669001,1.2 a 0.595,0.595 0 1 1 1.19,0 0.595,0.595 0 1 1 -1.19,0 z"
       transform="matrix(1,0,0,-1,14.366925,7.3025)"
       fill="#ffffff"
       stroke="#000000"
       stroke-width="0.001cm"
       stroke-linecap="round"
       stroke-linejoin="round"
       id="path30"
       style="fill:none;fill-opacity:1;stroke:#00ffc8;stroke-width:0.02;stroke-dasharray:none;stroke-opacity:1" /><path
       d="m -11.528175,4.4901 a 0.595,0.595 0 1 1 1.19,0 0.595,0.595 0 1 1 -1.19,0 z"
       transform="matrix(1,0,0,-1,14.366925,7.3025)"
       fill="#ffffff"
       stroke="#000000"
       stroke-width="0.001cm"
       stroke-linecap="round"
       stroke-linejoin="round"
       id="path31"
       style="fill:none;fill-opacity:1;stroke:#00ffc8;stroke-width:0.02;stroke-dasharray:none;stroke-opacity:1" /></g><g
     inkscape:groupmode="layer"
     id="layer2"
     inkscape:label="Black backround"
     style="display:inline"><rect
       style="fill:#2e2e2e;fill-opacity:1;stroke:none;stroke-width:0.310071;stroke-miterlimit:2.7;stroke-dasharray:none;stroke-opacity:1"
       id="rect25619-1-3-2-3"
       width="1.5000882"
       height="22.499956"
       x="185.29683"
       y="126.11543"
       transform="matrix(0,1,1,0,0,0)" /><rect
       style="display:inline;fill:#000000;fill-opacity:1;stroke:#000000;stroke-width:0.346573;stroke-opacity:1"
       id="rect41500-9-4-2-5-4-5-0"
       width="21.655001"
       height="5.823308"
       x="71.724678"
       y="108.59874"
       rx="0.51931876"
       ry="0.38638893" /><rect
       style="display:inline;fill:#000000;fill-opacity:1;stroke:#000000;stroke-width:0.459684;stroke-opacity:1"
       id="rect41500-9-4-2-5-4-5-0-6"
       width="38.851303"
       height="5.7101974"
       x="85.02774"
       y="155.28008"
       rx="0.65107626"
       ry="0.6361379" /><rect
       style="display:inline;fill:#000000;fill-opacity:1;stroke:#000000;stroke-width:0.29965;stroke-opacity:1"
       id="rect41500-9-4-2-5-4-5-0-6-3"
       width="16.058735"
       height="5.8702312"
       x="96.424019"
       y="218.52821"
       rx="0.49127942"
       ry="0.47206014" /><rect
       style="display:inline;fill:#000000;fill-opacity:1;stroke:#000000;stroke-width:0.348179;stroke-opacity:1"
       id="rect41500-9-4-2-5-4-5-0-6-3-7"
       width="21.862152"
       height="5.8217025"
       x="93.574928"
       y="224.72237"
       rx="0.59730875"
       ry="0.64855999" /><rect
       style="display:inline;fill:#000000;fill-opacity:1;stroke:#000000;stroke-width:0.271574;stroke-opacity:1"
       id="rect41500-9-4-2-5-4-5-0-6-2"
       width="13.127622"
       height="5.8983078"
       x="97.88958"
       y="183.80203"
       rx="0.54739875"
       ry="0.58400774" /><rect
       style="display:inline;fill:#000000;fill-opacity:1;stroke:#000000;stroke-width:0.292655;stroke-opacity:1"
       id="rect41500-9-4-2-5-4-5-0-6-2-3"
       width="15.27371"
       height="5.8871436"
       x="117.36189"
       y="208.13123"
       rx="0.7189911"
       ry="0.68892312" /><rect
       style="display:inline;fill:#000000;fill-opacity:1;stroke:#000000;stroke-width:0.269008;stroke-opacity:1"
       id="rect41500-9-4-2-5-4-5-0-6-2-3-8"
       width="12.853523"
       height="5.9107904"
       x="142.93863"
       y="208.1194"
       rx="0.6050638"
       ry="0.69169033" /><rect
       style="display:inline;fill:#000000;fill-opacity:1;stroke:#000000;stroke-width:0.285778;stroke-opacity:1"
       id="rect41500-9-4-2-5-4-5-0-6-2-3-88"
       width="14.547318"
       height="5.8940206"
       x="-90.82605"
       y="208.12779"
       rx="0.68479705"
       ry="0.6897279"
       transform="scale(-1,1)" /><rect
       style="display:inline;fill:#000000;fill-opacity:1;stroke:#000000;stroke-width:0.269008;stroke-opacity:1"
       id="rect41500-9-4-2-5-4-5-0-6-2-3-8-2"
       width="12.853523"
       height="5.9107904"
       x="-65.979149"
       y="208.1194"
       rx="0.6050638"
       ry="0.69169033"
       transform="scale(-1,1)" /><rect
       style="display:inline;fill:#000000;fill-opacity:1;stroke:#000000;stroke-width:0.293856;stroke-opacity:1"
       id="rect41500-9-4-2-5-4-5-0-2"
       width="15.428554"
       height="5.8760247"
       x="118.72326"
       y="108.58909"
       rx="0.35391223"
       ry="0.38822848" /><rect
       style="display:inline;fill:#000000;fill-opacity:1;stroke:#000000;stroke-width:0.193809;stroke-opacity:1"
       id="rect41500-9-4-2-5-4-5-0-5-0-3"
       width="9.8260002"
       height="4.0133724"
       x="99.54039"
       y="161.60504"
       rx="0.17663193"
       ry="0.22606659" /><rect
       style="display:inline;fill:#000000;fill-opacity:1;stroke:#000000;stroke-width:0.193809;stroke-opacity:1"
       id="rect41500-9-4-2-5-4-5-0-5-0-3-2"
       width="9.8260002"
       height="4.0133724"
       x="66.414551"
       y="214.59486"
       rx="0.17663193"
       ry="0.22606659" /><rect
       style="display:inline;fill:#000000;fill-opacity:1;stroke:#000000;stroke-width:0.193809;stroke-opacity:1"
       id="rect41500-9-4-2-5-4-5-0-5-0-3-2-9"
       width="9.8260002"
       height="4.0133724"
       x="132.43881"
       y="214.74236"
       rx="0.17663193"
       ry="0.22606659" /><rect
       style="display:inline;fill:#000000;fill-opacity:1;stroke:#000000;stroke-width:0.178689;stroke-opacity:1"
       id="rect41500-9-4-2-5-4-5-0-5-0-3-2-9-3"
       width="8.3213053"
       height="4.028492"
       x="133.20473"
       y="233.07217"
       rx="0.22606303"
       ry="0.25585225" /><rect
       style="display:inline;fill:#000000;fill-opacity:1;stroke:#000000;stroke-width:0.178689;stroke-opacity:1"
       id="rect41500-9-4-2-5-4-5-0-5-0-3-2-9-3-8"
       width="8.3213053"
       height="4.028492"
       x="100.29274"
       y="179.76839"
       rx="0.22606303"
       ry="0.25585225" /><rect
       style="display:inline;fill:#000000;fill-opacity:1;stroke:#000000;stroke-width:0.178689;stroke-opacity:1"
       id="rect41500-9-4-2-5-4-5-0-5-0-3-2-9-3-1"
       width="8.3213053"
       height="4.028492"
       x="67.097206"
       y="232.92599"
       rx="0.22606303"
       ry="0.25585225" /><rect
       style="display:inline;fill:#000000;fill-opacity:1;stroke:#000000;stroke-width:0.0972497;stroke-opacity:1"
       id="rect41500-9-4-2-5-4-5-0-5-0-3-2-9-3-1-4"
       width="2.4159071"
       height="4.1099315"
       x="69.79805"
       y="240.34178"
       rx="0.16210376"
       ry="0.18941775" /><rect
       style="display:inline;fill:#000000;fill-opacity:1;stroke:#000000;stroke-width:0.101489;stroke-opacity:1"
       id="rect41500-9-4-2-5-4-5-0-5-0-3-2-9-3-1-4-3"
       width="2.6338358"
       height="4.1056924"
       x="135.87305"
       y="240.48822"
       rx="0.17672645"
       ry="0.18922238" /><rect
       style="display:inline;fill:#000000;fill-opacity:1;stroke:#000000;stroke-width:0.107426;stroke-opacity:1"
       id="rect41500-9-4-2-5-4-5-0-5-0-3-2-9-3-1-4-3-0"
       width="2.9553034"
       height="4.0997548"
       x="130.67073"
       y="170.32014"
       rx="0.19829644"
       ry="0.18894874" /><rect
       style="display:inline;fill:#000000;fill-opacity:1;stroke:#000000;stroke-width:0.0982868;stroke-opacity:1"
       id="rect41500-9-4-2-5-4-5-0-5-0-3-2-9-3-1-4-3-0-3"
       width="2.468349"
       height="4.1088939"
       x="76.536789"
       y="170.35609"
       rx="0.16562252"
       ry="0.18936995" /><rect
       style="fill:#2e2e2e;fill-opacity:1;stroke:none;stroke-width:0.602663;stroke-miterlimit:2.7;stroke-dasharray:none;stroke-opacity:1"
       id="rect25619-1"
       width="1.5"
       height="85.003357"
       x="148.61539"
       y="108.42546" /><rect
       style="fill:#2e2e2e;fill-opacity:1;stroke:none;stroke-width:0.186138;stroke-miterlimit:2.7;stroke-dasharray:none;stroke-opacity:1"
       id="rect25619-1-3-2-5-0"
       width="1.5000882"
       height="8.1082878"
       x="124.61534"
       y="-193.40512"
       transform="scale(1,-1)" /><rect
       style="fill:#2e2e2e;fill-opacity:1;stroke:none;stroke-width:0.614283;stroke-miterlimit:2.7;stroke-dasharray:none;stroke-opacity:1"
       id="rect25619-1-3"
       width="1.5"
       height="88.313004"
       x="121.01091"
       y="-148.61539"
       transform="rotate(90)" /><rect
       style="fill:#2e2e2e;fill-opacity:1;stroke:none;stroke-width:0.602663;stroke-miterlimit:2.7;stroke-dasharray:none;stroke-opacity:1"
       id="rect25619"
       width="1.5"
       height="85.003357"
       x="58.802387"
       y="108.42545" /><rect
       style="fill:#2e2e2e;fill-opacity:1;stroke:none;stroke-width:0.186138;stroke-miterlimit:2.7;stroke-dasharray:none;stroke-opacity:1"
       id="rect25619-1-3-2-5"
       width="1.5000882"
       height="8.1082878"
       x="-84.302437"
       y="-193.40512"
       transform="scale(-1)" /><rect
       style="fill:#2e2e2e;fill-opacity:1;stroke:none;stroke-width:0.310071;stroke-miterlimit:2.7;stroke-dasharray:none;stroke-opacity:1"
       id="rect25619-1-3-2"
       width="1.5000882"
       height="22.499956"
       x="185.29683"
       y="-82.802345"
       transform="rotate(90)" /></g><g
     inkscape:groupmode="layer"
     id="layer8"
     inkscape:label="Text"
     style="display:inline"><path
       id="path17021"
       style="font-size:25.3333px;font-family:'Futura Md BT';-inkscape-font-specification:'Futura Md BT, Normal';text-align:center;letter-spacing:-0.2px;white-space:pre;display:inline;fill:#ffffff;stroke:none;stroke-width:0.499999;stroke-miterlimit:2.7"
       d="m 74.737557,109.05174 c -0.355647,0 -0.68856,0.0613 -0.998389,0.18345 -0.309828,0.12 -0.583313,0.29674 -0.821138,0.5302 -0.235645,0.23346 -0.417088,0.50603 -0.543636,0.81804 -0.124368,0.31201 -0.186552,0.64165 -0.186552,0.98857 0,0.35129 0.06218,0.68277 0.186552,0.99477 0.126548,0.30984 0.307991,0.58148 0.543636,0.81494 0.237825,0.23128 0.510391,0.40709 0.818038,0.5271 0.309829,0.11782 0.647851,0.17673 1.014408,0.17673 0.141823,0 0.280719,-0.01 0.415995,-0.0294 0.13746,-0.0196 0.266019,-0.0472 0.386023,-0.0822 0.246553,-0.0742 0.474734,-0.18638 0.684196,-0.33693 v -0.88057 c -0.237825,0.2051 -0.484724,0.35709 -0.740006,0.45527 -0.135277,0.0524 -0.268028,0.0902 -0.398942,0.11421 -0.128732,0.024 -0.265274,0.0362 -0.409278,0.0362 -0.484378,0 -0.88694,-0.16692 -1.207678,-0.50074 -0.320738,-0.33601 -0.481107,-0.76384 -0.481107,-1.28313 0,-0.53674 0.163641,-0.97203 0.490926,-1.30586 0.329465,-0.33601 0.755856,-0.50385 1.279508,-0.50385 0.13746,0 0.26981,0.0122 0.396358,0.0362 0.128733,0.024 0.254019,0.0586 0.376205,0.10438 0.246552,0.0938 0.479844,0.23455 0.700215,0.4222 l 0.04289,-0.78548 c -0.237827,-0.16801 -0.485645,-0.29094 -0.743107,-0.36949 -0.130914,-0.0436 -0.261829,-0.0754 -0.392741,-0.0951 -0.130914,-0.0196 -0.268372,-0.0295 -0.412378,-0.0295 z m 8.472351,0.007 c -0.349101,0 -0.678741,0.0631 -0.98857,0.18965 -0.309828,0.12437 -0.586587,0.30529 -0.830957,0.54312 -0.242191,0.23564 -0.426906,0.50637 -0.553455,0.81184 -0.12655,0.30546 -0.189652,0.62856 -0.189652,0.96893 0,0.34037 0.06454,0.66295 0.19327,0.96842 0.128729,0.30546 0.312928,0.57619 0.552937,0.81183 0.240007,0.23347 0.515847,0.41439 0.827857,0.54312 0.314193,0.12655 0.643833,0.19017 0.98857,0.19017 0.338194,0 0.663123,-0.0645 0.975134,-0.19327 0.314191,-0.13091 0.59382,-0.31419 0.838192,-0.54983 0.24437,-0.23564 0.429488,-0.5031 0.556038,-0.80202 0.12655,-0.3011 0.19017,-0.62368 0.19017,-0.96842 0,-0.33819 -0.06546,-0.66037 -0.196371,-0.96583 -0.128732,-0.30546 -0.315284,-0.57711 -0.559655,-0.81494 -0.244373,-0.24001 -0.521648,-0.42185 -0.831474,-0.54622 -0.307647,-0.12437 -0.631658,-0.18655 -0.972034,-0.18655 z m 4.698938,0 c -0.429833,0 -0.777674,0.12201 -1.043864,0.36639 -0.264008,0.24219 -0.395841,0.5573 -0.395841,0.94567 0,0.29892 0.08837,0.55421 0.2651,0.76585 0.178915,0.21165 0.530029,0.44401 1.053682,0.69711 l 0.150379,0.0724 c 0.466923,0.22255 0.700732,0.47313 0.700732,0.75241 0,0.21601 -0.06873,0.38855 -0.206189,0.51728 -0.135276,0.12873 -0.318557,0.19327 -0.549837,0.19327 -0.244371,0 -0.44545,-0.0571 -0.602547,-0.17053 -0.157094,-0.11346 -0.265098,-0.27567 -0.324012,-0.48731 l -0.621667,0.28784 c 0.08291,0.3491 0.254019,0.61748 0.513664,0.80512 0.259644,0.18764 0.593475,0.28163 1.001489,0.28163 0.486561,0 0.872758,-0.13418 1.158586,-0.40256 0.285827,-0.26837 0.428914,-0.62839 0.428914,-1.08003 0,-0.31202 -0.08929,-0.57293 -0.268201,-0.78239 -0.176732,-0.20946 -0.500745,-0.42219 -0.972033,-0.6382 l -0.09819,-0.046 c -0.541109,-0.24873 -0.811836,-0.51711 -0.811836,-0.80512 0,-0.18328 0.06126,-0.32912 0.183451,-0.43822 0.122186,-0.1091 0.289103,-0.16381 0.500745,-0.16381 0.148369,0 0.2802,0.036 0.395841,0.108 0.115639,0.0698 0.220369,0.17875 0.314193,0.32712 l 0.608748,-0.3142 c -0.09382,-0.25746 -0.259819,-0.45384 -0.497644,-0.58911 -0.237827,-0.13528 -0.532384,-0.20257 -0.883667,-0.20257 z m 3.626135,0 c -0.429833,0 -0.778191,0.12201 -1.04438,0.36639 -0.264009,0.24219 -0.395842,0.5573 -0.395842,0.94567 0,0.29892 0.08837,0.55421 0.2651,0.76585 0.178915,0.21165 0.530031,0.44401 1.053683,0.69711 l 0.150895,0.0724 c 0.466925,0.22255 0.700216,0.47313 0.700216,0.75241 0,0.21601 -0.06873,0.38855 -0.206189,0.51728 -0.135278,0.12873 -0.318559,0.19327 -0.549838,0.19327 -0.244372,0 -0.444934,-0.0571 -0.60203,-0.17053 -0.157094,-0.11346 -0.265098,-0.27567 -0.324011,-0.48731 l -0.622185,0.28784 c 0.08291,0.3491 0.254537,0.61748 0.514181,0.80512 0.259644,0.18764 0.593476,0.28163 1.001489,0.28163 0.486561,0 0.872758,-0.13418 1.158586,-0.40256 0.285827,-0.26837 0.428397,-0.62839 0.428397,-1.08003 0,-0.31202 -0.08929,-0.57293 -0.2682,-0.78239 -0.176733,-0.20946 -0.500746,-0.42219 -0.972034,-0.6382 l -0.09819,-0.046 c -0.541108,-0.24873 -0.811837,-0.51711 -0.811837,-0.80512 0,-0.18328 0.06127,-0.32912 0.183451,-0.43822 0.122185,-0.1091 0.289102,-0.16381 0.500745,-0.16381 0.14837,0 0.280202,0.036 0.395841,0.108 0.11564,0.0698 0.220373,0.17875 0.314193,0.32712 l 0.608749,-0.3142 c -0.09382,-0.25746 -0.259303,-0.45384 -0.497128,-0.58911 -0.237826,-0.13528 -0.532383,-0.20257 -0.883667,-0.20257 z m -14.379484,0.108 v 4.79144 h 0.730188 v -2.14405 h 0.08837 l 1.593701,2.14405 h 0.880566 l -1.649511,-2.17971 c 0.366557,-0.0458 0.641477,-0.17673 0.824756,-0.39274 0.183278,-0.21601 0.274918,-0.51619 0.274918,-0.9002 0,-0.10692 -0.01125,-0.21165 -0.03307,-0.3142 -0.02182,-0.10473 -0.05127,-0.20056 -0.08837,-0.28783 -0.08073,-0.18328 -0.195281,-0.33292 -0.343649,-0.44856 -0.124368,-0.0982 -0.273484,-0.16692 -0.448034,-0.20619 -0.174553,-0.0415 -0.422371,-0.062 -0.743107,-0.062 z m 42.023793,0 v 4.79144 h 0.77876 v -2.25206 h 1.89498 v -0.68368 h -1.89498 v -1.19476 h 1.89498 v -0.66094 z m 3.46542,0 v 4.79144 h 2.67374 v -0.69711 h -1.89498 v -1.54823 h 1.89498 v -0.68419 h -1.89498 v -1.20097 h 1.89498 v -0.66094 z m 3.514,0 v 4.79144 h 2.67425 v -0.69711 h -1.89497 v -1.54823 h 1.89497 v -0.68419 h -1.89497 v -1.20097 h 1.89497 v -0.66094 z m 3.51451,0 v 4.79144 h 1.05058 0.20981 c 0.28365,0 0.52911,-0.009 0.73639,-0.0263 0.20728,-0.0175 0.37747,-0.0427 0.51056,-0.0755 0.27056,-0.072 0.50947,-0.18747 0.71675,-0.34675 0.27928,-0.21819 0.48966,-0.49075 0.63149,-0.81804 0.14182,-0.32728 0.21291,-0.70275 0.21291,-1.12603 0,-0.42547 -0.072,-0.8042 -0.21601,-1.13584 -0.14401,-0.33383 -0.35347,-0.60548 -0.62839,-0.81494 -0.21382,-0.16364 -0.45836,-0.27911 -0.73328,-0.34675 -0.27274,-0.0676 -0.75293,-0.10129 -1.44023,-0.10129 z m -46.463312,0.60875 c 0.237827,0 0.462734,0.0458 0.674377,0.13746 0.213826,0.0916 0.402216,0.22112 0.565857,0.38912 0.163642,0.16801 0.289446,0.36019 0.376722,0.5762 0.08728,0.216 0.130741,0.44746 0.130741,0.69401 0,0.24001 -0.04582,0.47003 -0.137459,0.6904 -0.09164,0.21818 -0.219282,0.41128 -0.382923,0.57929 -0.161459,0.16801 -0.348012,0.29656 -0.559655,0.38602 -0.209462,0.0895 -0.432015,0.13436 -0.66766,0.13436 -0.237824,0 -0.463652,-0.0449 -0.677478,-0.13436 -0.213825,-0.0916 -0.401297,-0.22111 -0.562756,-0.38912 -0.08728,-0.0873 -0.161632,-0.17799 -0.222726,-0.27182 -0.06109,-0.0938 -0.113456,-0.1962 -0.157096,-0.30747 -0.08727,-0.21383 -0.130741,-0.44293 -0.130741,-0.6873 0,-0.12873 0.01074,-0.24891 0.03256,-0.36018 0.02181,-0.11128 0.05454,-0.22256 0.09818,-0.33383 0.09382,-0.22256 0.220544,-0.41566 0.379822,-0.5793 0.168004,-0.17237 0.356395,-0.30236 0.565857,-0.38964 0.211643,-0.0895 0.436553,-0.13384 0.674378,-0.13384 z m -5.27513,0.0589 h 0.14056 c 0.390557,0 0.658933,0.0556 0.805119,0.16692 0.146187,0.10909 0.219108,0.29329 0.219108,0.55294 0,0.24437 -0.0673,0.41456 -0.202572,0.51056 -0.135277,0.096 -0.409278,0.14418 -0.821655,0.14418 h -0.14056 z m 52.517722,0.0295 h 0.28112 0.28164 c 0.39274,0 0.68638,0.0252 0.88057,0.0755 0.19637,0.0502 0.36001,0.12965 0.49092,0.23874 0.18109,0.15492 0.3162,0.34893 0.40566,0.58239 0.0916,0.23128 0.13746,0.49782 0.13746,0.79892 0,0.30765 -0.0458,0.57694 -0.13746,0.80822 -0.0916,0.2291 -0.22675,0.41984 -0.40566,0.57258 -0.13091,0.11564 -0.28709,0.19746 -0.46819,0.24546 -0.17891,0.0458 -0.44964,0.0687 -0.81183,0.0687 h -0.65423 z m -58.991229,22.15007 v 0.66352 h -0.638204 v 0.16898 h 0.638204 v 0.66921 h 0.180351 v -0.66921 h 0.637687 v -0.16898 h -0.637687 v -0.66352 z m 40.493649,23.54275 -1.13223,4.99401 h 0.71675 l 0.51367,-2.35955 c 0.0284,-0.11127 0.0489,-0.22583 0.062,-0.34365 0.0111,-0.0654 0.0176,-0.11454 0.0196,-0.14728 0.005,-0.0349 0.007,-0.0915 0.007,-0.17001 l 0.0982,0.29766 c 0.0371,0.096 0.0829,0.19981 0.13746,0.31109 l 1.25315,2.60501 1.25367,-2.55282 c 0.0545,-0.10473 0.0994,-0.21182 0.13436,-0.32091 0.0349,-0.1091 0.063,-0.22221 0.0847,-0.34003 l 0.046,0.34675 0.0424,0.30747 0.5302,2.36627 h 0.72295 l -1.15859,-4.99401 -1.38079,3.02048 -0.0589,0.13126 c -0.10034,0.21601 -0.17234,0.39038 -0.21601,0.52348 l -0.16381,-0.41237 -0.0982,-0.23875 z m 9.8733,0.0946 c -0.42983,0 -0.77767,0.12253 -1.04386,0.36691 -0.26401,0.24219 -0.39584,0.5573 -0.39584,0.94568 0,0.29892 0.0884,0.55419 0.2651,0.76584 0.17891,0.21164 0.53003,0.44402 1.05368,0.69712 l 0.15038,0.0718 c 0.46692,0.22255 0.70021,0.47364 0.70021,0.75292 0,0.21601 -0.0687,0.38855 -0.20619,0.51728 -0.13527,0.12874 -0.31804,0.19276 -0.54932,0.19276 -0.24437,0 -0.44544,-0.0566 -0.60254,-0.17002 -0.15708,-0.11346 -0.26508,-0.27619 -0.32401,-0.48783 l -0.62167,0.28836 c 0.0829,0.3491 0.25402,0.61748 0.51366,0.80512 0.25965,0.18764 0.59348,0.28112 1.00149,0.28112 0.48656,0 0.87276,-0.13419 1.15859,-0.40256 0.28582,-0.26837 0.42891,-0.62839 0.42891,-1.08004 0,-0.31201 -0.0893,-0.5724 -0.2682,-0.78186 -0.17673,-0.20947 -0.50075,-0.4222 -0.97203,-0.63821 l -0.0987,-0.046 c -0.54111,-0.24874 -0.81132,-0.51711 -0.81132,-0.80512 0,-0.18328 0.0613,-0.32964 0.18345,-0.43873 0.12218,-0.1091 0.28858,-0.1633 0.50022,-0.1633 0.14837,0 0.28072,0.036 0.39636,0.108 0.11564,0.0698 0.22038,0.17875 0.3142,0.32712 l 0.60874,-0.3142 c -0.0938,-0.25746 -0.25981,-0.45383 -0.49764,-0.58911 -0.23782,-0.13528 -0.53238,-0.20309 -0.88367,-0.20309 z m -35.976613,0.10801 v 4.79144 h 0.779281 v -2.25155 h 1.894975 v -0.68419 h -1.894975 v -1.19424 h 1.894975 v -0.66146 z m 3.445785,0 v 2.98173 c 0,0.6502 0.162724,1.13551 0.487825,1.45624 0.327283,0.32074 0.819131,0.48111 1.475879,0.48111 0.658932,0 1.152215,-0.16129 1.479496,-0.48421 0.327285,-0.32292 0.490927,-0.8073 0.490927,-1.45314 v -2.98173 h -0.779281 v 2.9099 c 0,0.43201 -0.101458,0.75695 -0.304374,0.97513 -0.200734,0.21601 -0.49621,0.32401 -0.886768,0.32401 -0.397102,0 -0.695852,-0.108 -0.896586,-0.32401 -0.198552,-0.21818 -0.298173,-0.54312 -0.298173,-0.97513 v -2.9099 z m 4.954736,0 v 4.79144 h 2.673739 v -0.69712 h -1.894975 v -1.54771 h 1.894975 v -0.68419 h -1.894975 v -1.20096 h 1.894975 v -0.66146 z m 3.514514,0 v 4.79144 h 2.519748 v -0.69712 h -1.740984 v -4.09432 z m 5.068428,0 v 4.79144 h 0.72967 v -2.15026 h 0.29455 0.154 c 0.34474,0 0.60094,-0.0182 0.76894,-0.0553 0.16801,-0.0393 0.31202,-0.10146 0.43202,-0.18656 0.15055,-0.11128 0.26837,-0.26326 0.35347,-0.45526 0.0851,-0.19201 0.12764,-0.40004 0.12764,-0.62477 0,-0.22692 -0.0425,-0.43455 -0.12764,-0.62219 -0.0851,-0.18982 -0.20292,-0.34038 -0.35347,-0.45165 -0.12437,-0.0895 -0.2693,-0.15258 -0.43512,-0.18965 -0.16582,-0.0371 -0.4211,-0.0558 -0.76584,-0.0558 z m 3.49487,0 v 2.98173 c 0,0.6502 0.16221,1.13551 0.48731,1.45624 0.32729,0.32074 0.81965,0.48111 1.4764,0.48111 0.65893,0 1.15169,-0.16129 1.47898,-0.48421 0.32728,-0.32292 0.49092,-0.8073 0.49092,-1.45314 v -2.98173 h -0.77876 v 2.9099 c 0,0.43201 -0.10145,0.75695 -0.30437,0.97513 -0.20074,0.21601 -0.49621,0.32401 -0.88677,0.32401 -0.3971,0 -0.69637,-0.108 -0.8971,-0.32401 -0.19856,-0.21818 -0.29766,-0.54312 -0.29766,-0.97513 v -2.9099 z m 10.68462,0 v 4.79144 h 0.72967 v -2.15026 h 0.29456 0.154 c 0.34474,0 0.60093,-0.0182 0.76894,-0.0553 0.16801,-0.0393 0.31202,-0.10146 0.43202,-0.18656 0.15055,-0.11128 0.26837,-0.26326 0.35346,-0.45526 0.0851,-0.19201 0.12764,-0.40004 0.12764,-0.62477 0,-0.22692 -0.0425,-0.43455 -0.12764,-0.62219 -0.0851,-0.18982 -0.20291,-0.34038 -0.35346,-0.45165 -0.12437,-0.0895 -0.26929,-0.15258 -0.43512,-0.18965 -0.16582,-0.0371 -0.4211,-0.0558 -0.76584,-0.0558 z m -13.40073,0.66766 h 0.19947 c 0.41456,0 0.69838,0.0524 0.85111,0.15709 0.15274,0.10255 0.22893,0.28256 0.22893,0.54002 0,0.24001 -0.072,0.40693 -0.21601,0.50075 -0.14182,0.0916 -0.42984,0.13746 -0.86403,0.13746 h -0.19947 z m 14.1795,0 h 0.19998 c 0.41456,0 0.69787,0.0524 0.8506,0.15709 0.15273,0.10255 0.22944,0.28256 0.22944,0.54002 0,0.24001 -0.072,0.40693 -0.21601,0.50075 -0.14182,0.0916 -0.42983,0.13746 -0.86403,0.13746 h -0.19998 z m -15.89619,5.34024 c -0.25723,0 -0.50034,0.0463 -0.72864,0.13953 -0.22829,0.0916 -0.4323,0.22525 -0.61236,0.40049 -0.17846,0.17363 -0.31448,0.37282 -0.40773,0.5979 -0.0932,0.22507 -0.13953,0.46336 -0.13953,0.71416 0,0.25081 0.0473,0.48858 0.14211,0.71365 0.0949,0.22508 0.23088,0.42427 0.40773,0.5979 0.17685,0.17203 0.37988,0.30564 0.60978,0.40049 0.23151,0.0932 0.47462,0.14005 0.72864,0.14005 0.24919,0 0.4884,-0.0478 0.7183,-0.14263 0.23151,-0.0965 0.43747,-0.23151 0.61754,-0.40514 0.18006,-0.17364 0.31654,-0.37041 0.40979,-0.59067 0.0932,-0.22186 0.14004,-0.45963 0.14004,-0.71365 0,-0.24919 -0.0482,-0.4865 -0.14469,-0.71158 -0.0948,-0.22508 -0.23231,-0.42524 -0.41238,-0.60048 -0.18006,-0.17685 -0.38407,-0.31092 -0.61237,-0.40256 -0.22668,-0.0916 -0.46543,-0.13746 -0.71623,-0.13746 z m 2.49132,0.0796 v 3.53054 h 0.57361 v -1.65933 h 1.3963 v -0.50385 h -1.3963 v -0.88057 h 1.3963 v -0.48679 z m 2.53938,0 v 3.53054 h 0.57413 v -1.65933 h 1.39629 v -0.50385 h -1.39629 v -0.88057 h 1.39629 v -0.48679 z m -5.06377,0.44855 c 0.0109,-2.5e-4 0.0221,0 0.0331,0 0.17524,0 0.34066,0.0338 0.49661,0.10129 0.15755,0.0675 0.29645,0.163 0.41703,0.2868 0.12055,0.1238 0.21317,0.26511 0.2775,0.42427 0.0643,0.15916 0.0966,0.32993 0.0966,0.51159 0,0.17686 -0.0338,0.34612 -0.10129,0.5085 -0.0675,0.16077 -0.16157,0.30305 -0.28215,0.42685 -0.11898,0.12378 -0.25643,0.2188 -0.41238,0.28473 -0.15434,0.0659 -0.31833,0.0987 -0.49196,0.0987 -0.17524,0 -0.34164,-0.0328 -0.49919,-0.0987 -0.15756,-0.0675 -0.29599,-0.16301 -0.41497,-0.2868 -0.0643,-0.0643 -0.11881,-0.13137 -0.16381,-0.2005 -0.045,-0.0691 -0.0836,-0.14435 -0.11576,-0.22635 -0.0643,-0.15755 -0.0966,-0.32636 -0.0966,-0.50643 0,-0.0949 0.008,-0.18362 0.0243,-0.26561 0.0161,-0.082 0.0402,-0.16399 0.0723,-0.24598 0.0691,-0.16399 0.16221,-0.30627 0.27957,-0.42685 0.1238,-0.12699 0.26269,-0.22247 0.41703,-0.2868 0.1462,-0.0618 0.30089,-0.0948 0.46406,-0.0987 z m 29.11657,8.2827 v 3.53054 h 0.53795 v -1.57975 h 0.0651 l 1.17409,1.57975 h 0.64905 l -1.21543,-1.60611 c 0.2701,-0.0338 0.47267,-0.13023 0.60772,-0.28939 0.13505,-0.15916 0.20257,-0.38004 0.20257,-0.663 0,-0.0788 -0.008,-0.15595 -0.0243,-0.23151 -0.0161,-0.0771 -0.0378,-0.14806 -0.0651,-0.2124 -0.0595,-0.13505 -0.14389,-0.245 -0.25321,-0.33021 -0.0916,-0.0724 -0.2016,-0.12299 -0.33022,-0.15193 -0.12862,-0.0305 -0.31143,-0.046 -0.54777,-0.046 z m -54.188945,0.0558 v 3.53054 h 1.856734 v -0.51367 H 77.36582 v -3.01687 z m 54.763065,0.43615 h 0.10387 c 0.28778,0 0.48553,0.041 0.59325,0.12299 0.10771,0.0804 0.16123,0.21641 0.16123,0.40773 0,0.18006 -0.0497,0.30546 -0.14935,0.3762 -0.0997,0.0707 -0.30127,0.10594 -0.60513,0.10594 h -0.10387 z m -26.58391,8.9669 v 3.67057 h 0.52814 v -2.45514 c 0.0498,0.0707 0.10388,0.13969 0.16174,0.20722 0.0482,0.0547 0.0776,0.0879 0.0889,0.0992 0.0257,0.0273 0.0556,0.0568 0.0894,0.0889 l 2.28823,2.19728 v -3.66799 h -0.5302 v 2.44739 c -0.0708,-0.09 -0.13685,-0.16764 -0.19792,-0.23357 l -0.18552,-0.19534 z m -2.49132,0.0605 c -0.25723,0 -0.49982,0.0463 -0.72812,0.13952 -0.2283,0.0916 -0.43282,0.22526 -0.61288,0.4005 -0.17846,0.17363 -0.31448,0.37281 -0.40773,0.59789 -0.0932,0.22508 -0.13952,0.46336 -0.13952,0.71417 0,0.2508 0.0473,0.48857 0.14211,0.71365 0.0948,0.22508 0.23087,0.42427 0.40772,0.5979 0.17685,0.17203 0.3804,0.30564 0.6103,0.40049 0.23151,0.0933 0.4741,0.14004 0.72812,0.14004 0.2492,0 0.48892,-0.0478 0.71882,-0.14262 0.23151,-0.0965 0.43695,-0.23151 0.61702,-0.40515 0.18007,-0.17363 0.31706,-0.3704 0.41031,-0.59066 0.0932,-0.22186 0.13953,-0.45963 0.13953,-0.71365 0,-0.24919 -0.0482,-0.4865 -0.1447,-0.71158 -0.0949,-0.22508 -0.23231,-0.42524 -0.41238,-0.60048 -0.18006,-0.17685 -0.38407,-0.31092 -0.61236,-0.40256 -0.22669,-0.0916 -0.46543,-0.13746 -0.71624,-0.13746 z m -0.0331,0.52813 c 0.0109,-2.6e-4 0.0221,0 0.0331,0 0.17524,0 0.34067,0.0338 0.49661,0.10129 0.15756,0.0675 0.29646,0.16301 0.41703,0.2868 0.12056,0.12379 0.21317,0.2651 0.2775,0.42426 0.0643,0.15916 0.0966,0.32993 0.0966,0.5116 0,0.17685 -0.0338,0.34612 -0.10129,0.5085 -0.0675,0.16077 -0.16157,0.30305 -0.28215,0.42684 -0.11897,0.12378 -0.25643,0.21881 -0.41238,0.28474 -0.15434,0.0659 -0.31832,0.0987 -0.49196,0.0987 -0.17524,0 -0.34164,-0.0328 -0.49919,-0.0987 -0.15756,-0.0675 -0.296,-0.16301 -0.41496,-0.2868 -0.0643,-0.0643 -0.11882,-0.13138 -0.16382,-0.20051 -0.045,-0.0691 -0.0836,-0.14435 -0.11575,-0.22634 -0.0643,-0.15755 -0.0966,-0.32636 -0.0966,-0.50643 0,-0.0948 0.008,-0.18362 0.0243,-0.26562 0.0161,-0.082 0.0402,-0.16398 0.0724,-0.24598 0.0691,-0.16398 0.1622,-0.30626 0.27957,-0.42684 0.12379,-0.12699 0.26269,-0.22247 0.41703,-0.28681 0.1462,-0.0618 0.30089,-0.0948 0.46405,-0.0987 z m -1.25212,3.69125 c -0.35565,0 -0.68856,0.0608 -0.99839,0.18293 -0.309826,0.12001 -0.583828,0.29674 -0.821654,0.5302 -0.235643,0.23346 -0.416569,0.50654 -0.543119,0.81856 -0.124369,0.312 -0.186552,0.64112 -0.186552,0.98805 0,0.35128 0.06218,0.68328 0.186552,0.99529 0.12655,0.30983 0.307476,0.58148 0.543119,0.81494 0.237826,0.23128 0.510908,0.40657 0.818554,0.52658 0.30983,0.11782 0.64785,0.17673 1.01441,0.17673 0.14182,0 0.2802,-0.009 0.41548,-0.0289 0.13746,-0.0196 0.26654,-0.0472 0.38654,-0.0822 0.24655,-0.0742 0.47422,-0.18638 0.68368,-0.33693 v -0.88057 c -0.23782,0.2051 -0.48421,0.35708 -0.73949,0.45527 -0.13528,0.0524 -0.26855,0.0902 -0.39946,0.11421 -0.12874,0.024 -0.26476,0.0362 -0.40876,0.0362 -0.48438,0 -0.88695,-0.16691 -1.207681,-0.50075 -0.320736,-0.336 -0.481107,-0.76383 -0.481107,-1.28312 0,-0.53675 0.163643,-0.97204 0.490926,-1.30586 0.329462,-0.33602 0.755852,-0.50385 1.279512,-0.50385 0.13746,0 0.26928,0.0122 0.39584,0.0362 0.12872,0.024 0.25453,0.0586 0.37672,0.10439 0.24656,0.0938 0.47985,0.23456 0.70021,0.4222 l 0.0424,-0.78549 c -0.23783,-0.168 -0.48512,-0.29094 -0.74259,-0.36948 -0.13091,-0.0437 -0.26183,-0.0755 -0.39274,-0.0951 -0.13092,-0.0197 -0.26838,-0.0295 -0.41238,-0.0295 z m 1.9141,0.11472 v 0.66094 h 1.27279 v 4.1305 h 0.77928 v -4.1305 h 1.26659 v -0.66094 z m 3.86126,0 v 4.79144 h 0.72967 v -2.14406 h 0.0884 l 1.59421,2.14406 h 0.88005 l -1.64951,-2.17971 c 0.36656,-0.0458 0.64148,-0.17673 0.82476,-0.39274 0.18328,-0.21601 0.27492,-0.51619 0.27492,-0.90021 0,-0.10691 -0.0108,-0.21164 -0.0326,-0.31419 -0.0219,-0.10473 -0.0513,-0.20056 -0.0884,-0.28784 -0.0807,-0.18328 -0.19527,-0.33291 -0.34364,-0.44855 -0.12437,-0.0982 -0.27401,-0.16692 -0.44856,-0.20619 -0.17455,-0.0415 -0.42185,-0.062 -0.74259,-0.062 z m 0.77876,0.66766 h 0.14108 c 0.39055,0 0.65893,0.0556 0.80512,0.16691 0.14618,0.1091 0.21911,0.2933 0.21911,0.55294 0,0.24438 -0.0678,0.41456 -0.20309,0.51057 -0.13528,0.096 -0.40877,0.14417 -0.82114,0.14417 h -0.14108 z m -51.710537,23.3841 -2.320272,4.98161 h 0.818038 l 0.556555,-1.23403 h 1.898076 l 0.543119,1.23403 h 0.821655 z m 26.678475,0 -0.962215,2.55954 -0.02325,0.062 c -0.08291,0.23564 -0.162378,0.48346 -0.238746,0.7431 L 81.38418,211.5106 c -0.03491,-0.11128 -0.08401,-0.25109 -0.147278,-0.41909 l -0.906405,-2.41846 h -0.769462 l 1.8495,4.97799 1.073319,-2.71973 c 0.03492,-0.0873 0.05548,-0.13963 0.06201,-0.1571 0.01745,-0.0546 0.03525,-0.10928 0.05271,-0.16381 l 0.111104,-0.36328 0.104903,0.32091 0.130742,0.34985 1.092956,2.73316 1.855701,-4.97799 h -0.775663 l -0.899687,2.4381 c -0.03055,0.0807 -0.05254,0.13966 -0.06563,0.17673 -0.024,0.0698 -0.05018,0.15072 -0.07855,0.24236 -0.03927,0.11782 -0.06873,0.22583 -0.08837,0.32401 l -0.120923,-0.38292 -0.134359,-0.37982 z m 41.812952,0 -0.96222,2.55954 -0.0233,0.062 c -0.0829,0.23564 -0.16238,0.48346 -0.23874,0.7431 l -0.10801,-0.33693 c -0.0349,-0.11128 -0.084,-0.25109 -0.14728,-0.41909 l -0.9064,-2.41846 h -0.76946 l 1.8495,4.97799 1.07332,-2.71973 c 0.0348,-0.0873 0.0553,-0.13963 0.062,-0.1571 0.0175,-0.0546 0.0352,-0.10928 0.0527,-0.16381 l 0.1111,-0.36328 0.1049,0.32091 0.13075,0.34985 1.09295,2.73316 1.8557,-4.97799 h -0.77566 l -0.89969,2.4381 c -0.0306,0.0807 -0.0526,0.13966 -0.0656,0.17673 -0.024,0.0698 -0.0502,0.15072 -0.0785,0.24236 -0.0393,0.11782 -0.0687,0.22583 -0.0884,0.32401 l -0.12092,-0.38292 -0.13436,-0.37982 z m 21.3217,0 -2.32079,4.98161 h 0.81855 l 0.55604,-1.23403 h 1.89859 l 0.54312,1.23403 h 0.82166 z m -87.097014,0.19017 v 4.79144 H 59.5328 v -2.25206 h 1.894975 v -0.68368 H 59.5328 v -1.19476 h 1.894975 v -0.66094 z m 2.96106,0 v 0.66094 h 1.273307 v 4.1305 h 0.778764 v -4.1305 h 1.26659 v -0.66094 z m 14.949992,0 v 4.79144 h 0.77928 v -2.25206 h 1.894975 v -0.68368 h -1.894975 v -1.19476 h 1.894975 v -0.66094 z m 9.706384,0 v 4.79144 h 1.050582 0.20929 c 0.283645,0 0.529109,-0.009 0.736389,-0.0264 0.20728,-0.0175 0.377469,-0.0427 0.510563,-0.0754 0.270554,-0.072 0.509472,-0.18747 0.716752,-0.34675 0.279282,-0.21819 0.489663,-0.49075 0.631486,-0.81804 0.141822,-0.32729 0.212907,-0.70275 0.212907,-1.12603 0,-0.42547 -0.072,-0.8042 -0.216008,-1.13585 -0.144005,-0.33382 -0.353467,-0.60547 -0.628385,-0.81493 -0.213826,-0.16364 -0.458372,-0.27911 -0.733289,-0.34675 -0.272736,-0.0676 -0.75241,-0.10129 -1.439705,-0.10129 z m 32.106568,0 v 4.79144 h 0.77928 v -2.25206 h 1.89497 v -0.68368 h -1.89497 v -1.19476 h 1.89497 v -0.66094 z m 9.70638,0 v 4.79144 h 1.05059 0.20929 c 0.28364,0 0.5291,-0.009 0.73638,-0.0264 0.20728,-0.0175 0.37747,-0.0427 0.51057,-0.0754 0.27055,-0.072 0.50947,-0.18747 0.71675,-0.34675 0.27928,-0.21819 0.49018,-0.49075 0.632,-0.81804 0.14182,-0.32729 0.21239,-0.70275 0.21239,-1.12603 0,-0.42547 -0.072,-0.8042 -0.216,-1.13585 -0.14401,-0.33382 -0.35347,-0.60547 -0.62839,-0.81493 -0.21383,-0.16364 -0.45786,-0.27911 -0.73277,-0.34675 -0.27274,-0.0676 -0.75293,-0.10129 -1.44022,-0.10129 z m 20.38222,0 v 4.79144 h 0.77928 v -2.25206 h 1.89498 v -0.68368 h -1.89498 v -1.19476 h 1.89498 v -0.66094 z m 2.96158,0 v 0.66094 h 1.27331 v 4.1305 h 0.77876 v -4.1305 h 1.26659 v -0.66094 z m -64.377984,0.69712 h 0.281637 0.281119 c 0.392741,0 0.686379,0.0247 0.880567,0.0749 0.19637,0.0502 0.360012,0.13017 0.490926,0.23926 0.181096,0.15491 0.316203,0.34893 0.40566,0.58239 0.09164,0.23128 0.137459,0.4973 0.137459,0.7984 0,0.30765 -0.04582,0.57746 -0.137459,0.80874 -0.09164,0.2291 -0.226746,0.41984 -0.40566,0.57257 -0.130914,0.11564 -0.287092,0.19747 -0.468189,0.24547 -0.178915,0.0458 -0.449127,0.0687 -0.81132,0.0687 h -0.65474 z m 41.812954,0 h 0.28163 0.28164 c 0.39274,0 0.68586,0.0247 0.88005,0.0749 0.19637,0.0502 0.36001,0.13017 0.49093,0.23926 0.18109,0.15491 0.31671,0.34893 0.40617,0.58239 0.0916,0.23128 0.13746,0.4973 0.13746,0.7984 0,0.30765 -0.0458,0.57746 -0.13746,0.80874 -0.0916,0.2291 -0.22726,0.41984 -0.40617,0.57257 -0.13092,0.11564 -0.28658,0.19747 -0.46768,0.24547 -0.17891,0.0458 -0.44964,0.0687 -0.81183,0.0687 h -0.65474 z m -72.918549,0.57567 0.09147,0.30438 0.08837,0.23926 0.490926,1.09295 h -1.335319 l 0.490926,-1.09295 c 0.03491,-0.0807 0.06437,-0.16398 0.08837,-0.24908 0.01746,-0.048 0.03148,-0.0938 0.04237,-0.13746 0.01309,-0.0437 0.02762,-0.096 0.04289,-0.1571 z m 89.812609,0 0.092,0.30438 0.0884,0.23926 0.49092,1.09295 h -1.33532 l 0.49093,-1.09295 c 0.0349,-0.0807 0.0644,-0.16398 0.0884,-0.24908 0.0175,-0.048 0.0315,-0.0938 0.0424,-0.13746 0.0131,-0.0437 0.0271,-0.096 0.0424,-0.1571 z m -77.249551,4.84673 c -0.257234,0 -0.499825,0.0468 -0.728121,0.14005 -0.228295,0.0916 -0.432303,0.22525 -0.612366,0.40049 -0.178456,0.17363 -0.314479,0.37282 -0.407727,0.5979 -0.09325,0.22508 -0.140043,0.46336 -0.140043,0.71416 0,0.2508 0.04777,0.48858 0.142627,0.71366 0.09486,0.22508 0.230363,0.42426 0.40721,0.59789 0.176849,0.17203 0.380397,0.30564 0.610299,0.40049 0.231511,0.0932 0.474103,0.14005 0.728121,0.14005 0.249196,0 0.488917,-0.0478 0.718819,-0.14263 0.231512,-0.0965 0.437471,-0.23151 0.617533,-0.40514 0.180065,-0.17364 0.316548,-0.3704 0.409794,-0.59066 0.09325,-0.22187 0.140043,-0.45964 0.140043,-0.71366 0,-0.2492 -0.04823,-0.4865 -0.144694,-0.71158 -0.09486,-0.22508 -0.232315,-0.42524 -0.412378,-0.60048 -0.180065,-0.17685 -0.384588,-0.31144 -0.612882,-0.40308 -0.226688,-0.0916 -0.465432,-0.13746 -0.716235,-0.13746 z m 2.49132,0.0796 v 3.53105 h 0.574126 v -1.65933 h 1.396297 v -0.50437 h -1.396297 v -0.88005 h 1.396297 v -0.4873 z m 2.539897,0 v 3.53105 h 0.573608 v -1.65933 h 1.396298 v -0.50437 h -1.396298 v -0.88005 h 1.396298 v -0.4873 z m 61.221584,0.032 c -0.25723,0 -0.49982,0.0463 -0.72812,0.13952 -0.22829,0.0916 -0.43281,0.22525 -0.61288,0.40049 -0.17845,0.17364 -0.31397,0.37282 -0.40721,0.5979 -0.0933,0.22508 -0.14004,0.46336 -0.14004,0.71417 0,0.2508 0.0472,0.48857 0.14211,0.71365 0.0949,0.22508 0.23088,0.42426 0.40772,0.5979 0.17686,0.17202 0.3804,0.30564 0.6103,0.40049 0.23151,0.0932 0.4741,0.14004 0.72812,0.14004 0.2492,0 0.48892,-0.0478 0.71882,-0.14263 0.23151,-0.0965 0.43695,-0.23151 0.61702,-0.40514 0.18006,-0.17363 0.31706,-0.3704 0.41031,-0.59066 0.0933,-0.22187 0.13953,-0.45964 0.13953,-0.71365 0,-0.2492 -0.0482,-0.48651 -0.1447,-0.71159 -0.0949,-0.22508 -0.23231,-0.42524 -0.41238,-0.60048 -0.18006,-0.17684 -0.38406,-0.31092 -0.61236,-0.40256 -0.22669,-0.0916 -0.46544,-0.13745 -0.71624,-0.13745 z m 2.49132,0.0796 v 3.53053 h 0.57413 v -1.65933 h 1.3963 v -0.50384 h -1.3963 v -0.88057 h 1.3963 v -0.48679 z m 2.53938,0 v 3.53053 h 0.57413 v -1.65933 h 1.3963 v -0.50384 h -1.3963 v -0.88057 h 1.3963 v -0.48679 z m -71.283501,0.33693 c 0.175241,0 0.34118,0.0338 0.497127,0.10128 0.157556,0.0675 0.296449,0.16352 0.417029,0.28732 0.120574,0.1238 0.213189,0.26511 0.277502,0.42427 0.06431,0.15916 0.09612,0.32992 0.09612,0.51159 0,0.17685 -0.03376,0.34612 -0.101286,0.5085 -0.06753,0.16077 -0.161575,0.30305 -0.282153,0.42685 -0.11897,0.12377 -0.256429,0.2188 -0.412378,0.28473 -0.15434,0.0659 -0.318326,0.0987 -0.491959,0.0987 -0.175241,0 -0.341639,-0.0328 -0.499195,-0.0987 -0.157556,-0.0675 -0.295474,-0.163 -0.414445,-0.2868 -0.06431,-0.0643 -0.119318,-0.13137 -0.164331,-0.2005 -0.04502,-0.0691 -0.0836,-0.14435 -0.115755,-0.22635 -0.06431,-0.15756 -0.09612,-0.32637 -0.09612,-0.50643 0,-0.0949 0.0077,-0.18362 0.02377,-0.26561 0.01608,-0.082 0.04019,-0.16399 0.07235,-0.24598 0.06913,-0.16399 0.162722,-0.30627 0.280086,-0.42685 0.123793,-0.12698 0.262687,-0.22247 0.417029,-0.2868 0.155947,-0.0659 0.32137,-0.0992 0.496611,-0.0992 z m 66.220251,0.11162 c 0.0109,-2.6e-4 0.0216,0 0.0326,0 0.17524,0 0.34067,0.0338 0.49661,0.10128 0.15756,0.0675 0.29697,0.16301 0.41755,0.28681 0.12055,0.12379 0.21265,0.2651 0.27698,0.42426 0.0643,0.15917 0.0966,0.32993 0.0966,0.5116 0,0.17684 -0.0338,0.34611 -0.10129,0.50849 -0.0675,0.16077 -0.16157,0.30305 -0.28215,0.42685 -0.11897,0.12378 -0.25643,0.21881 -0.41238,0.28474 -0.15434,0.0659 -0.31832,0.0992 -0.49196,0.0992 -0.17524,0 -0.34163,-0.0333 -0.49919,-0.0992 -0.15756,-0.0675 -0.29599,-0.16301 -0.41496,-0.28681 -0.0643,-0.0643 -0.11882,-0.13137 -0.16382,-0.2005 -0.045,-0.0691 -0.0836,-0.14435 -0.11575,-0.22634 -0.0643,-0.15756 -0.0966,-0.32637 -0.0966,-0.50643 0,-0.0949 0.008,-0.18363 0.0243,-0.26562 0.0161,-0.082 0.0402,-0.16398 0.0724,-0.24598 0.0691,-0.16398 0.16221,-0.30627 0.27957,-0.42685 0.12379,-0.12698 0.2632,-0.22247 0.41754,-0.2868 0.1462,-0.0618 0.30089,-0.0948 0.46406,-0.0987 z m -37.331575,3.60081 v 4.79144 h 0.778763 v -2.25154 h 1.894972 v -0.6842 h -1.894972 v -1.19424 h 1.894972 v -0.66146 z m 3.445785,0 v 2.98173 c 0,0.6502 0.16272,1.1355 0.48782,1.45624 0.32729,0.32074 0.81914,0.48111 1.47588,0.48111 0.65894,0 1.15222,-0.16129 1.4795,-0.48421 0.32729,-0.32292 0.49093,-0.8073 0.49093,-1.45314 v -2.98173 h -0.77928 v 2.9099 c 0,0.43202 -0.10147,0.75695 -0.30438,0.97514 -0.20073,0.216 -0.49621,0.32401 -0.88677,0.32401 -0.3971,0 -0.69585,-0.10801 -0.89658,-0.32401 -0.19856,-0.21819 -0.29818,-0.54312 -0.29818,-0.97514 v -2.9099 z m 4.95474,0 v 4.79144 h 2.67373 v -0.69711 h -1.89497 v -1.54771 h 1.89497 v -0.6842 h -1.89497 v -1.20096 h 1.89497 v -0.66146 z m 3.51451,0 v 4.79144 h 2.51974 v -0.69711 h -1.74098 v -4.09433 z m -5.94796,6.04304 -1.13275,4.99453 h 0.71676 l 0.51418,-2.35954 c 0.0284,-0.11128 0.0489,-0.22583 0.062,-0.34365 0.0111,-0.0655 0.0176,-0.11455 0.0196,-0.14728 0.005,-0.0349 0.007,-0.092 0.007,-0.17053 l 0.0982,0.29817 c 0.0371,0.096 0.0829,0.1993 0.13746,0.31058 l 1.25367,2.60552 1.25367,-2.55281 c 0.0545,-0.10474 0.0989,-0.21182 0.13384,-0.32092 0.0349,-0.10909 0.0635,-0.22272 0.0853,-0.34054 l 0.046,0.34726 0.0424,0.30748 0.52969,2.36626 h 0.72347 l -1.15859,-4.99453 -1.38131,3.02101 -0.0589,0.13074 c -0.10034,0.21601 -0.17234,0.39091 -0.21601,0.524 l -0.1633,-0.41238 -0.0982,-0.23926 z m 9.8733,0.0951 c -0.42983,0 -0.77767,0.12202 -1.04386,0.36638 -0.26401,0.2422 -0.39636,0.55782 -0.39636,0.9462 0,0.29891 0.0884,0.5542 0.2651,0.76584 0.17891,0.21164 0.53055,0.44402 1.0542,0.69712 l 0.15038,0.0718 c 0.46692,0.22255 0.70021,0.47364 0.70021,0.75293 0,0.216 -0.0687,0.38803 -0.20619,0.51676 -0.13528,0.12873 -0.31855,0.19327 -0.54983,0.19327 -0.24437,0 -0.44493,-0.0566 -0.60203,-0.17002 -0.15708,-0.11345 -0.26508,-0.27617 -0.32402,-0.48782 l -0.62166,0.28784 c 0.0829,0.3491 0.25401,0.61748 0.51366,0.80512 0.25964,0.18764 0.59347,0.28163 1.00149,0.28163 0.48656,0 0.87276,-0.13419 1.15859,-0.40256 0.28582,-0.26837 0.42891,-0.62838 0.42891,-1.08003 0,-0.31202 -0.0898,-0.57293 -0.26872,-0.78239 -0.17673,-0.20946 -0.50074,-0.42219 -0.97203,-0.6382 l -0.0982,-0.0455 c -0.5411,-0.24873 -0.81132,-0.5171 -0.81132,-0.80511 0,-0.18328 0.0607,-0.32964 0.18294,-0.43874 0.12218,-0.10909 0.2891,-0.16381 0.50074,-0.16381 0.14837,0 0.28072,0.036 0.39636,0.108 0.11564,0.0698 0.22037,0.17926 0.31419,0.32763 l 0.60875,-0.31419 c -0.0938,-0.25746 -0.25982,-0.45384 -0.49764,-0.58911 -0.23783,-0.13528 -0.53239,-0.20309 -0.88367,-0.20309 z m -18.993155,0.108 v 4.79144 h 0.729672 v -2.15026 h 0.294555 0.153996 c 0.344738,0 0.60094,-0.0187 0.768945,-0.0558 0.168007,-0.0393 0.312013,-0.10145 0.432015,-0.18655 0.150552,-0.11127 0.268374,-0.26274 0.353467,-0.45475 0.08509,-0.19201 0.127641,-0.40055 0.127641,-0.62528 0,-0.22692 -0.04255,-0.43403 -0.127641,-0.62167 -0.08509,-0.18982 -0.202915,-0.34037 -0.353467,-0.45165 -0.124366,-0.0895 -0.269291,-0.15259 -0.435115,-0.18966 -0.165823,-0.0371 -0.421107,-0.0558 -0.765845,-0.0558 z m 3.494361,0 v 2.98173 c 0,0.6502 0.162723,1.1355 0.487825,1.45624 0.327284,0.32074 0.819131,0.48111 1.475879,0.48111 0.65893,0 1.15222,-0.16129 1.4795,-0.48421 0.32728,-0.32292 0.49092,-0.8073 0.49092,-1.45314 v -2.98173 h -0.77876 v 2.90939 c 0,0.43202 -0.10146,0.75746 -0.30438,0.97565 -0.20073,0.216 -0.49672,0.32401 -0.88728,0.32401 -0.397103,0 -0.695851,-0.10801 -0.896586,-0.32401 -0.198552,-0.21819 -0.297656,-0.54363 -0.297656,-0.97565 v -2.90939 z m 10.685134,0 v 4.79144 h 0.72967 v -2.15026 h 0.29456 0.15399 c 0.34474,0 0.60095,-0.0187 0.76895,-0.0558 0.16801,-0.0393 0.31201,-0.10145 0.43201,-0.18655 0.15056,-0.11127 0.26838,-0.26274 0.35347,-0.45475 0.0851,-0.19201 0.12764,-0.40055 0.12764,-0.62528 0,-0.22692 -0.0426,-0.43403 -0.12764,-0.62167 -0.0851,-0.18982 -0.20291,-0.34037 -0.35347,-0.45165 -0.12436,-0.0895 -0.26928,-0.15259 -0.43511,-0.18966 -0.16582,-0.0371 -0.42111,-0.0558 -0.76585,-0.0558 z m -13.400731,0.66766 H 95.3218 c 0.41456,0 0.69838,0.0524 0.851111,0.1571 0.152733,0.10254 0.228927,0.28256 0.228927,0.54002 0,0.24001 -0.072,0.40692 -0.216008,0.50074 -0.141822,0.0916 -0.429833,0.13746 -0.86403,0.13746 h -0.199471 z m 14.179501,0 h 0.19947 c 0.41455,0 0.69837,0.0524 0.85111,0.1571 0.15273,0.10254 0.22892,0.28256 0.22892,0.54002 0,0.24001 -0.072,0.40692 -0.216,0.50074 -0.14182,0.0916 -0.42984,0.13746 -0.86403,0.13746 h -0.19947 z m -37.620447,7.11585 v 3.67057 h 0.528133 v -2.45514 c 0.04984,0.0707 0.103867,0.13969 0.161747,0.20722 0.04823,0.0547 0.07815,0.0879 0.0894,0.0992 0.02573,0.0273 0.05512,0.0567 0.08888,0.0889 l 2.288749,2.19728 v -3.66851 h -0.530717 v 2.44792 c -0.07074,-0.09 -0.136311,-0.16765 -0.197404,-0.23358 L 73.92417,235.2213 Z m -2.491321,0.0605 c -0.257235,0 -0.499827,0.0463 -0.728121,0.13952 -0.228294,0.0916 -0.432301,0.22526 -0.612366,0.4005 -0.178456,0.17363 -0.314481,0.37281 -0.407727,0.59789 -0.09325,0.22508 -0.140043,0.46337 -0.140043,0.71417 0,0.2508 0.04777,0.48857 0.142627,0.71365 0.09485,0.22508 0.230361,0.42427 0.40721,0.5979 0.176848,0.17203 0.380396,0.30564 0.610299,0.40049 0.23151,0.0932 0.474102,0.14004 0.728121,0.14004 0.249195,0 0.488916,-0.0478 0.718819,-0.14262 0.231511,-0.0965 0.437469,-0.23151 0.617533,-0.40515 0.180063,-0.17363 0.316547,-0.3704 0.409795,-0.59066 0.09325,-0.22186 0.140043,-0.45964 0.140043,-0.71365 0,-0.2492 -0.04823,-0.4865 -0.144694,-0.71158 -0.09486,-0.22508 -0.232313,-0.42524 -0.412378,-0.60048 -0.180063,-0.17685 -0.384588,-0.31092 -0.612883,-0.40256 -0.226687,-0.0916 -0.465431,-0.13746 -0.716235,-0.13746 z m 68.744128,0.0506 v 3.67058 h 0.52813 v -2.45515 c 0.0499,0.0707 0.10388,0.1397 0.16175,0.20722 0.0482,0.0547 0.0781,0.088 0.0894,0.0992 0.0257,0.0273 0.0551,0.0567 0.0889,0.0889 l 2.28875,2.19728 v -3.668 h -0.53072 v 2.4474 c -0.0708,-0.09 -0.13633,-0.16764 -0.1974,-0.23358 l -0.18604,-0.19533 z m -2.49132,0.0605 c -0.25724,0 -0.49983,0.0463 -0.72813,0.13953 -0.2283,0.0916 -0.4323,0.22525 -0.61236,0.40049 -0.17846,0.17363 -0.31448,0.37282 -0.40773,0.5979 -0.0932,0.22508 -0.14004,0.46336 -0.14004,0.71417 0,0.2508 0.0478,0.48857 0.14263,0.71365 0.0949,0.22508 0.23035,0.42426 0.40721,0.59789 0.17684,0.17203 0.38039,0.30564 0.61029,0.4005 0.23151,0.0932 0.47411,0.14004 0.72813,0.14004 0.24919,0 0.48891,-0.0478 0.71881,-0.14263 0.23151,-0.0965 0.43747,-0.23151 0.61754,-0.40514 0.18006,-0.17363 0.31655,-0.3704 0.40979,-0.59066 0.0932,-0.22187 0.14005,-0.45964 0.14005,-0.71365 0,-0.2492 -0.0482,-0.48651 -0.1447,-0.71159 -0.0949,-0.22508 -0.23231,-0.42524 -0.41238,-0.60048 -0.18006,-0.17685 -0.38459,-0.31092 -0.61288,-0.40256 -0.22669,-0.0916 -0.46543,-0.13746 -0.71623,-0.13746 z m -66.252808,0.41651 c 0.17524,0 0.341179,0.0343 0.497127,0.10181 0.157556,0.0675 0.296452,0.163 0.417029,0.2868 0.120581,0.12379 0.213196,0.2651 0.277502,0.42426 0.06431,0.15917 0.09612,0.32993 0.09612,0.5116 h 5.16e-4 c 0,0.17685 -0.03376,0.34612 -0.101285,0.5085 -0.06752,0.16076 -0.161576,0.30305 -0.282154,0.42684 -0.118972,0.12378 -0.25643,0.21881 -0.412378,0.28474 -0.154339,0.0659 -0.318842,0.0987 -0.492476,0.0987 -0.175241,0 -0.341639,-0.0328 -0.499194,-0.0987 -0.157556,-0.0675 -0.295475,-0.163 -0.414445,-0.2868 -0.06431,-0.0643 -0.119318,-0.13137 -0.164331,-0.20051 -0.04502,-0.0691 -0.0836,-0.14435 -0.115756,-0.22634 -0.06431,-0.15756 -0.09612,-0.32637 -0.09612,-0.50643 0,-0.0949 0.0077,-0.18362 0.02377,-0.26562 0.01607,-0.082 0.04019,-0.16398 0.07235,-0.24598 0.06913,-0.16398 0.162723,-0.30626 0.280087,-0.42684 0.123793,-0.12698 0.262688,-0.22247 0.417028,-0.28681 0.155949,-0.0659 0.32137,-0.0992 0.496611,-0.0992 z m 66.252808,0.11163 c 0.17524,0 0.34118,0.0337 0.49712,0.10128 0.15756,0.0675 0.29646,0.16301 0.41703,0.28681 0.12056,0.12379 0.21317,0.2651 0.2775,0.42426 0.0643,0.15917 0.0961,0.32992 0.0961,0.5116 0,0.17684 -0.0338,0.34611 -0.10128,0.50849 -0.0675,0.16077 -0.16158,0.30305 -0.28216,0.42685 -0.11897,0.12377 -0.25643,0.2188 -0.41237,0.28474 -0.15434,0.0659 -0.31833,0.0992 -0.49196,0.0992 -0.17524,0 -0.34165,-0.0333 -0.4992,-0.0992 -0.15756,-0.0675 -0.29548,-0.16301 -0.41444,-0.28681 -0.0643,-0.0643 -0.11933,-0.13137 -0.16433,-0.2005 -0.045,-0.0691 -0.0836,-0.14435 -0.11576,-0.22635 -0.0643,-0.15756 -0.0961,-0.32636 -0.0961,-0.50642 0,-0.0949 0.008,-0.18363 0.0238,-0.26562 0.0161,-0.082 0.0402,-0.16399 0.0724,-0.24598 0.0691,-0.16399 0.16272,-0.30627 0.28009,-0.42685 0.12379,-0.12698 0.26269,-0.22247 0.41702,-0.2868 0.15595,-0.0659 0.32138,-0.0987 0.49662,-0.0987 z m -64.991386,6.87606 -0.221692,0.4532 h 0.730705 v 3.04375 h 0.523482 v -3.49695 z m 66.786106,0.0413 c -0.34143,0.006 -0.61555,0.10147 -0.82269,0.28681 -0.21221,0.1897 -0.31833,0.44148 -0.31833,0.75499 h 0.55242 c 0.0145,-0.16559 0.0738,-0.29823 0.17829,-0.39791 0.1045,-0.0997 0.23616,-0.14934 0.39532,-0.14934 0.18167,0 0.32396,0.0506 0.42685,0.15192 0.10289,0.0997 0.15451,0.23714 0.15451,0.41238 0,0.12058 -0.0376,0.25609 -0.11317,0.40721 -0.0418,0.0804 -0.092,0.16238 -0.14986,0.24598 -0.0563,0.0836 -0.12621,0.17525 -0.20981,0.27492 l -1.31878,1.57975 h 2.36575 v -0.45837 h -1.34359 l 0.44855,-0.5209 c 0.36656,-0.418 0.60628,-0.73633 0.71882,-0.95498 0.11415,-0.21865 0.17105,-0.43615 0.17105,-0.65319 0,-0.30386 -0.0989,-0.5426 -0.29662,-0.71623 -0.19614,-0.17524 -0.46429,-0.26304 -0.80512,-0.26304 -0.0112,0 -0.0226,-1.8e-4 -0.0336,0 z"
       inkscape:label="TXT" /><path
       id="rect25619-4"
       style="display:inline;fill:#e3e3e3;fill-opacity:1;stroke:none;stroke-width:0.511725;stroke-miterlimit:2.7;stroke-dasharray:none;stroke-opacity:1"
       d="m 57.302445,108.42542 v 85.0036 h 1.500167 v -85.0036 z m 2.963644,0 v 12.58528 h 1.500167 85.312624 1.50016 v -12.58528 h -1.50016 v 11.08563 H 61.766256 v -11.08563 z m 89.849291,0 v 85.0036 h 1.50017 v -85.0036 z m -89.813118,14.08545 v 61.28618 1.49965 h 24.000086 v 8.10338 h 1.500167 v -9.60303 H 84.302348 61.802429 v -61.28618 z m 1.500684,0 v 1.50017 h 85.312624 v 59.78601 h -22.50044 -1.49965 v 9.60303 h 1.49965 v -8.10338 h 24.00009 v -1.49965 -61.28618 h -1.49965 z m -1.497583,64.286 v 1.50016 h -0.0031 v 5.13199 h 1.500167 v -5.13199 h 19.500102 v 5.10305 h 1.49965 v -6.60321 h -1.49965 z m 65.809937,0 v 6.60321 h 1.50017 v -5.10305 h 19.5001 v 5.13199 h 1.49965 v -6.60321 h -0.003 v -0.0289 h -20.99716 z" /></g></svg>
