<?xml version="1.0" encoding="UTF-8" standalone="no"?>
<!-- Created with Inkscape (http://www.inkscape.org/) -->

<svg
   width="57.964298mm"
   height="57.964779mm"
   viewBox="0 0 57.964298 57.964779"
   version="1.1"
   id="svg1"
   inkscape:version="1.2.2 (732a01da63, 2022-12-09)"
   sodipodi:docname="baron-fuel-gauge.svg"
   xmlns:inkscape="http://www.inkscape.org/namespaces/inkscape"
   xmlns:sodipodi="http://sodipodi.sourceforge.net/DTD/sodipodi-0.dtd"
   xmlns:xlink="http://www.w3.org/1999/xlink"
   xmlns="http://www.w3.org/2000/svg"
   xmlns:svg="http://www.w3.org/2000/svg">
  <sodipodi:namedview
     id="namedview1"
     pagecolor="#ffffff"
     bordercolor="#666666"
     borderopacity="1.0"
     inkscape:showpageshadow="2"
     inkscape:pageopacity="0.0"
     inkscape:pagecheckerboard="0"
     inkscape:deskcolor="#d1d1d1"
     inkscape:document-units="mm"
     inkscape:zoom="2"
     inkscape:cx="175"
     inkscape:cy="107.25"
     inkscape:window-width="1918"
     inkscape:window-height="1120"
     inkscape:window-x="1913"
     inkscape:window-y="600"
     inkscape:window-maximized="0"
     inkscape:current-layer="layer1"
     inkscape:pageshadow="2"
     showgrid="false"
     showguides="true">
    <sodipodi:guide
       position="23.952838,42.065915"
       orientation="0,-1"
       id="guide25078"
       inkscape:locked="false" />
  </sodipodi:namedview>
  <defs
     id="defs1">
    <linearGradient
       inkscape:collect="always"
       id="linearGradient28472">
      <stop
         style="stop-color:#0a0a0a;stop-opacity:1;"
         offset="0"
         id="stop28468" />
      <stop
         style="stop-color:#000000;stop-opacity:1"
         offset="1"
         id="stop28470" />
    </linearGradient>
    <radialGradient
       inkscape:collect="always"
       xlink:href="#linearGradient142"
       id="radialGradient491"
       gradientUnits="userSpaceOnUse"
       gradientTransform="matrix(0.78762984,0.78762984,-0.78762984,0.78762984,1053.703,-311.9939)"
       cx="-294.09793"
       cy="892.78717"
       fx="-294.09793"
       fy="892.78717"
       r="25.819487" />
    <linearGradient
       inkscape:collect="always"
       id="linearGradient142">
      <stop
         style="stop-color:#262626;stop-opacity:1;"
         offset="0"
         id="stop141" />
      <stop
         style="stop-color:#070707;stop-opacity:1;"
         offset="1"
         id="stop142" />
    </linearGradient>
    <radialGradient
       inkscape:collect="always"
       xlink:href="#linearGradient142"
       id="radialGradient2"
       gradientUnits="userSpaceOnUse"
       gradientTransform="matrix(0.78762984,0.78762984,-0.78762984,0.78762984,1025.128,-311.9939)"
       cx="-294.09793"
       cy="892.78717"
       fx="-294.09793"
       fy="892.78717"
       r="25.819487" />
    <radialGradient
       inkscape:collect="always"
       xlink:href="#linearGradient142"
       id="radialGradient1"
       gradientUnits="userSpaceOnUse"
       gradientTransform="matrix(0.76685334,0.76685334,-0.76685334,0.76685334,962.3687,-299.55522)"
       cx="-294.09793"
       cy="892.78717"
       fx="-294.09793"
       fy="892.78717"
       r="25.819487" />
    <radialGradient
       inkscape:collect="always"
       xlink:href="#linearGradient142"
       id="radialGradient1-8"
       gradientUnits="userSpaceOnUse"
       gradientTransform="matrix(0.76685334,0.76685334,-0.76685334,0.76685334,962.3687,-299.55522)"
       cx="-294.09793"
       cy="892.78717"
       fx="-294.09793"
       fy="892.78717"
       r="25.819487" />
    <radialGradient
       inkscape:collect="always"
       xlink:href="#linearGradient28472"
       id="radialGradient3"
       gradientUnits="userSpaceOnUse"
       gradientTransform="matrix(0.76685334,0.76685334,-0.76685334,0.76685334,962.3687,-299.55522)"
       cx="-250.62494"
       cy="849.31348"
       fx="-250.62494"
       fy="849.31348"
       r="25.819487" />
    <radialGradient
       inkscape:collect="always"
       xlink:href="#linearGradient142"
       id="radialGradient3-6"
       gradientUnits="userSpaceOnUse"
       gradientTransform="matrix(0.76685334,0.76685334,-0.76685334,0.76685334,962.3687,-299.55522)"
       cx="-250.62494"
       cy="849.31348"
       fx="-250.62494"
       fy="849.31348"
       r="25.819487" />
    <radialGradient
       inkscape:collect="always"
       xlink:href="#linearGradient28472"
       id="radialGradient28912"
       gradientUnits="userSpaceOnUse"
       gradientTransform="matrix(0.76685334,0.76685334,-0.76685334,0.76685334,962.3687,-299.55522)"
       cx="-250.62494"
       cy="849.31348"
       fx="-250.62494"
       fy="849.31348"
       r="25.819487" />
  </defs>
  <g
     inkscape:label="Layer 1"
     inkscape:groupmode="layer"
     id="layer1"
     transform="translate(-89.895088,-130.56891)">
    <rect
       style="font-variation-settings:normal;opacity:1;vector-effect:none;fill:url(#radialGradient28912);fill-opacity:1;stroke:none;stroke-width:0.700001;stroke-linecap:butt;stroke-linejoin:miter;stroke-miterlimit:4;stroke-dasharray:none;stroke-dashoffset:0;stroke-opacity:1;-inkscape-stroke:none;paint-order:markers stroke fill;stop-color:#000000;stop-opacity:1"
       id="rect25324"
       width="57.964298"
       height="57.964779"
       x="89.895088"
       y="130.56891"
       rx="6.4825253"
       ry="6.4825253" />
    <circle
       style="font-variation-settings:normal;opacity:1;vector-effect:none;fill:url(#radialGradient3);fill-opacity:1;stroke:#4d4d4d;stroke-width:0.700001;stroke-linecap:butt;stroke-linejoin:miter;stroke-miterlimit:4;stroke-dasharray:none;stroke-dashoffset:0;stroke-opacity:1;-inkscape-stroke:none;paint-order:markers stroke fill;stop-color:#000000;stop-opacity:1"
       id="path1"
       cx="118.87722"
       cy="159.55132"
       r="27.5" />
    <path
       d="m 116.75367,166.64524 a 3.0031552,3.002749 0 0 0 4.2471,4.24653 3.0031552,3.002749 0 0 0 -4.2471,-4.24653 z"
       style="font-variation-settings:normal;display:inline;vector-effect:none;fill:#ffffff;fill-opacity:1;stroke:none;stroke-width:0.699999;stroke-linecap:butt;stroke-linejoin:miter;stroke-miterlimit:4;stroke-dasharray:none;stroke-dashoffset:0;stroke-opacity:1;-inkscape-stroke:none;stop-color:#000000"
       id="path9517" />
    <ellipse
       style="fill:#ffffff;fill-opacity:1;stroke:none;stroke-width:0.574565;stroke-linecap:round;stroke-miterlimit:5.77902;stroke-dasharray:none;paint-order:markers stroke fill;shape-rendering:crispEdges;stop-color:#000000"
       id="ellipse12"
       cx="149.23172"
       cy="128.45438"
       rx="1.6407906"
       ry="1.6525108"
       transform="rotate(3.3889625)" />
    <ellipse
       style="fill:#ffffff;fill-opacity:1;stroke:none;stroke-width:0.574565;stroke-linecap:round;stroke-miterlimit:5.77902;stroke-dasharray:none;paint-order:markers stroke fill;shape-rendering:crispEdges;stop-color:#000000"
       id="ellipse13"
       cx="106.97044"
       cy="176.03554"
       rx="1.6407906"
       ry="1.6525108"
       transform="rotate(3.3889625)" />
    <ellipse
       style="fill:#ffffff;fill-opacity:1;stroke:none;stroke-width:0.574565;stroke-linecap:round;stroke-miterlimit:5.77902;stroke-dasharray:none;paint-order:markers stroke fill;shape-rendering:crispEdges;stop-color:#000000"
       id="ellipse2"
       cx="173.3756"
       cy="-151.89166"
       rx="1.6407906"
       ry="1.6525108"
       transform="rotate(93.388963)" />
    <ellipse
       style="fill:#ffffff;fill-opacity:1;stroke:none;stroke-width:0.574565;stroke-linecap:round;stroke-miterlimit:5.77902;stroke-dasharray:none;paint-order:markers stroke fill;shape-rendering:crispEdges;stop-color:#000000"
       id="ellipse3"
       cx="131.11432"
       cy="-104.3105"
       rx="1.6407906"
       ry="1.6525108"
       transform="rotate(93.388963)" />
    <g
       id="g24594"
       transform="translate(2.027833,2.245064)">
      <g
         fill="#e22526"
         id="g10"
         transform="matrix(0.02049913,0,0,0.02049913,108.86691,173.6488)"
         style="display:inline;fill:#ffffff;stroke-width:12.9069">
        <path
           d="m 87.603,108.46 -5.4798,1.4356 c -1.2507,0.34553 -2.2338,0.90518 -2.4722,1.8639 -0.0584,0.23846 -0.08273,0.42339 -0.08273,0.63752 0,1.2264 0.88085,2.2338 2.1267,2.4236 h 0.05353 l 5.616,1.4892 c 10.585,2.8178 19.364,11.782 19.364,22.717 0,1.4356 -0.15573,2.9005 -0.47693,4.3896 -2.0488,9.631 -8.6187,17.875 -19.87,17.875 -0.35039,0 -0.72025,0 -1.095,-0.0243 -7.3388,-0.34552 -14.176,-6.8667 -14.176,-14.313 0,-1.8882 0.42339,-3.83 1.4064,-5.7182 0.77379,-1.5184 2.3457,-2.3165 3.6743,-3.0368 1.7033,-0.87598 3.0854,-1.6449 3.4845,-3.2411 0.18493,-0.69592 0.26766,-1.4113 0.26766,-2.1316 0,-2.5258 -1.0901,-4.9444 -3.2217,-6.3558 -1.0901,-0.74459 -2.1559,-1.0366 -3.1925,-1.0366 -3.0319,0 -5.9859,2.5501 -8.2975,5.3435 -3.0854,3.7278 -4.3361,7.6357 -4.3361,11.519 0,6.5212 3.4845,12.984 7.8449,18.332 5.7474,7.0468 14.794,9.9765 23.812,10.079 h 0.53046 c 13.276,0 26.416,-6.677 30.966,-19.525 1.1972,-3.3239 1.8104,-6.8084 1.8104,-10.268 0,-5.1342 -1.3334,-10.215 -4.1269,-14.658 -3.2412,-5.1878 -8.1661,-9.1492 -13.909,-11.281 l -1.679,-0.60832 1.7568,-0.37473 c 8.3267,-1.8347 16.094,-5.8788 22.425,-11.704 9.4704,-8.6479 15.164,-20.698 15.831,-33.521 0.26279,-2.2338 0.39906,-4.414 0.39906,-6.5456 0,-29.613 -25.36,-51.717 -53.477,-59.567 -6.438,-1.7812 -13.008,-2.662 -19.554,-2.662 -14.896,0 -29.608,4.5795 -42.003,13.33 -16.892,11.893 -31.526,29.394 -31.526,50.013 0,2.4722 0.21413,4.9736 0.63753,7.5286 2.078,11.943 5.0564,24.528 16.868,30.46 2.555,1.275 5.4798,2.4479 8.2197,2.4479 1.6498,0 3.2217,-0.39906 4.6817,-1.4356 2.7156,-1.9418 4.5211,-5.0564 4.5211,-8.2197 0,-1.2264 -0.292,-2.4771 -0.90032,-3.6986 -1.7568,-3.4845 -5.9616,-4.3361 -9.8986,-4.7644 -0.1314,0 -0.29199,-0.02433 -0.42339,-0.02433 -0.58886,0 -1.1436,0.10706 -1.786,0.23846 -0.58399,0.10706 -1.2507,0.21413 -1.9126,0.21413 -0.39906,0 -0.82732,-0.0292 -1.2799,-0.1606 -2.3408,-0.74459 -3.6159,-2.8178 -4.7595,-4.6038 -0.29199,-0.47692 -0.55965,-0.92952 -0.85165,-1.3529 -2.7399,-3.9419 -3.83,-8.1953 -3.83,-12.507 0,-8.0591 3.8543,-16.361 7.9812,-23.355 5.0272,-8.5408 13.193,-14.42 21.866,-18.839 8.6479,-4.3848 18.118,-6.6478 27.613,-6.6478 7.8741,0 15.777,1.5427 23.199,4.7108 13.14,5.582 25.511,14.736 30.275,28.757 1.6498,4.8422 2.5014,9.8694 2.5014,14.897 0,8.5117 -2.4236,16.945 -7.4507,24.099 -6.5456,9.339 -9.9765,12.162 -27.667,17.374"
           id="path1-9"
           style="fill:#ffffff;stroke-width:12.9069" />
        <path
           d="m 43.228,39.976 -13.485,5.4019 c -0.82732,0.31633 -1.4405,0.92952 -1.4405,1.567 0,0.10706 0.0292,0.23846 0.08273,0.37473 0.20926,0.63752 0.74459,1.0074 1.3286,1.0074 0.1314,0 0.26766,-0.02433 0.39906,-0.04866 l 0.05353,-0.0292 h 0.08273 l 4.0149,-0.07787 h 0.05353 c 1.7276,0 2.9783,1.3821 3.9079,2.3944 0.0292,0.05353 0.08273,0.10706 0.10706,0.1314 1.4113,1.5427 2.5306,3.5137 2.5306,5.6647 l 0.34553,95.769 c 0,2.7691 -1.2264,5.2705 -2.7934,7.2366 -1.3578,1.7325 -3.1389,3.1146 -5.1099,3.9371 l -0.05353,0.0292 h -0.02433 l -5.0272,1.2215 c -1.0414,0.24333 -1.7568,0.82732 -1.7568,1.6254 0,0.90519 0.74459,1.5962 1.7568,1.5962 l 27.024,0.10707 c 0.85165,0 1.5962,-0.61319 2.263,-1.5184 0.58399,-0.76892 0.74459,-1.8104 0.74459,-2.9783 l 0.05353,-125.62 c 0,-1.0609 -0.07786,-1.9661 -0.72025,-2.5501 -0.36986,-0.3504 -0.90032,-0.39906 -1.5962,-0.39906 h -0.20926 -0.23846 -0.48179 l -11.811,5.1586 z"
           id="path2"
           style="fill:#ffffff;stroke-width:12.9069" />
        <path
           d="m 178.92,110.68 29.477,-0.23846 h 0.1314 c 1.1728,0 2.2338,-0.0292 2.9248,-0.74459 0.37472,-0.42826 0.48179,-0.98792 0.58885,-1.8104 0.0243,-0.29199 0.0487,-0.61319 0.1314,-0.92952 0.21413,-0.98791 0.292,-1.971 0.292,-2.9832 0,-3.246 -0.98305,-6.5164 -2.0488,-9.7088 -4.79,-14.077 -18.38,-22.988 -33.15,-22.988 h -0.32119 c -12.556,0.10706 -23.116,7.9277 -30.431,17.797 -6.6526,8.9934 -8.4873,20.221 -8.4873,31.287 v 0.71538 c 0.10706,16.254 3.6207,33.628 17.559,43.045 6.3314,4.2826 13.592,7.076 21.306,7.076 12.984,0 23.866,-8.3267 31.073,-18.916 3.0611,-4.4918 5.7718,-9.2806 6.4385,-14.682 l 0.292,-2.2873 v -0.0535 c 0.0292,-0.10706 0.0535,-0.23846 0.0535,-0.37472 0,-0.53046 -0.2628,-1.0366 -0.76892,-1.3286 -0.1898,-0.10707 -0.37473,-0.1606 -0.55966,-0.1606 -0.58399,0 -1.1972,0.42826 -1.6498,1.0122 l -1.6254,2.1559 c -2.151,3.9371 -5.105,7.3923 -8.5895,10.137 -5.2948,4.122 -11.602,7.2853 -18.381,7.2853 -0.95872,0 -1.9418,-0.0779 -2.9297,-0.20927 -7.66,-1.0658 -13.617,-6.2536 -18.25,-11.947 -3.2995,-4.0441 -5.7426,-8.7258 -7.1831,-13.777 -0.98304,-3.4601 -1.5135,-7.0809 -1.5135,-10.697 0,-2.1024 0.18493,-4.2047 0.55966,-6.3071 l 0.0779,-0.44773 h 0.4234 l 24.557,0.0779 z m -5.2656,-8.6674 -16.391,-0.0535 c -0.95385,0 -2.151,-0.292 -2.6572,-1.4113 -0.13139,-0.26766 -0.16059,-0.55966 -0.16059,-0.79812 0,-0.23846 0.0292,-0.47692 0.0535,-0.69106 0.0243,-0.21413 0.0535,-0.39906 0.0535,-0.58399 0.37473,-8.0104 5.3192,-15.349 13.115,-17.88 1.9661,-0.66186 4.0685,-1.0122 6.1465,-1.0122 2.3408,0 4.6816,0.45259 6.8619,1.387 6.3022,2.7399 10.536,8.9107 10.536,15.695 0,0.72025 -0.0535,1.4648 -0.1606,2.2094 -0.0292,0.18493 -0.0292,0.39906 -0.0292,0.63752 0,0.55966 0,1.3578 -0.58399,1.9418 -0.50612,0.53046 -1.1972,0.58399 -1.7033,0.58399 h -0.34553 -0.31632 -0.39906 l -0.0535,0.0292 -13.967,-0.0535 z"
           id="path3"
           style="fill:#ffffff;stroke-width:12.9069" />
        <path
           d="m 258.81,111.53 29.477,-0.23846 h 0.1314 c 1.1728,0 2.2338,-0.0292 2.9248,-0.74459 0.37472,-0.42826 0.48179,-0.98792 0.58885,-1.8104 0.0243,-0.29199 0.0535,-0.61319 0.1314,-0.92952 0.21413,-0.98791 0.29199,-1.971 0.29199,-2.9832 0,-3.246 -0.98305,-6.5164 -2.0488,-9.7088 -4.7887,-14.074 -18.381,-22.985 -33.146,-22.985 h -0.3212 c -12.556,0.10706 -23.116,7.9277 -30.431,17.797 -6.6526,8.9934 -8.4873,20.221 -8.4873,31.287 v 0.71538 c 0.10707,16.254 3.6207,33.628 17.559,43.045 6.3314,4.2826 13.592,7.076 21.306,7.076 12.984,0 23.866,-8.3267 31.073,-18.916 3.0611,-4.4918 5.7718,-9.2806 6.4385,-14.682 l 0.29199,-2.2873 v -0.0535 c 0.0292,-0.10706 0.0535,-0.23846 0.0535,-0.37473 0,-0.53045 -0.2628,-1.0366 -0.76892,-1.3286 -0.1898,-0.10707 -0.37473,-0.1606 -0.55966,-0.1606 -0.58399,0 -1.1972,0.42826 -1.6498,1.0122 l -1.6206,2.1559 c -2.1559,3.9371 -5.1099,7.3923 -8.5944,10.132 -5.2948,4.1269 -11.602,7.2901 -18.381,7.2901 -0.95872,0 -1.9418,-0.0779 -2.9297,-0.20927 -7.66,-1.0658 -13.617,-6.2536 -18.25,-11.947 -3.2995,-4.0441 -5.7426,-8.7258 -7.1831,-13.782 -0.98305,-3.4553 -1.5135,-7.076 -1.5135,-10.692 0,-2.1024 0.18493,-4.2047 0.55965,-6.3071 l 0.0779,-0.45259 h 0.42339 l 24.557,0.0827 z m -4.7011,-9.3146 -16.386,-0.0535 c -0.95871,0 -2.1559,-0.29199 -2.662,-1.4113 -0.13139,-0.26766 -0.15573,-0.55965 -0.15573,-0.79812 0,-0.23846 0.0243,-0.47692 0.0487,-0.69105 0.0292,-0.21413 0.0535,-0.39906 0.0535,-0.58399 0.37473,-8.0104 5.3192,-15.349 13.115,-17.88 1.971,-0.66186 4.0733,-1.0074 6.1465,-1.0074 2.3408,0 4.6816,0.44773 6.8619,1.3821 6.3071,2.7399 10.536,8.9107 10.536,15.695 0,0.72025 -0.0535,1.4648 -0.1606,2.2094 -0.0243,0.18493 -0.0243,0.39906 -0.0243,0.63752 0,0.55966 0,1.3578 -0.58886,1.9418 -0.50126,0.53046 -1.1923,0.58399 -1.6984,0.58399 h -0.34552 -0.3212 -0.39906 l -0.0535,0.0292 -13.967,-0.0535 z"
           id="path4"
           style="fill:#ffffff;stroke-width:12.9069" />
        <path
           d="m 337.64,71.73 c -11.281,1.8639 -21.466,7.7427 -28.732,16.493 -7.076,8.5116 -10.852,19.233 -10.852,30.221 0,1.0366 0.0243,2.0732 0.10706,3.1146 0,11.597 3.1633,22.956 9.8938,32.348 2.954,4.1512 6.2244,7.9812 10.405,10.852 5.8788,4.0685 12.819,6.4385 20.002,6.4385 h 0.37473 c 10.4,-0.10707 19.661,-5.7718 26.63,-13.407 4.7595,-5.1878 8.0883,-11.519 9.7624,-18.435 l 0.90519,-3.0611 c 0.13139,-0.47693 0.23846,-1.0122 0.23846,-1.4892 0,-0.69105 -0.21413,-1.1972 -0.69105,-1.5184 -0.3212,-0.18493 -0.66673,-0.2628 -0.98305,-0.2628 -1.0414,0 -1.971,0.82246 -1.971,1.9126 v 0.13626 l -0.0535,0.1022 -1.4113,2.7691 c -1.567,3.1389 -3.6402,6.0394 -6.2244,8.3802 -5.1878,4.7595 -11.972,7.1539 -18.858,7.1539 -1.3334,0 -2.662,-0.0779 -4.0198,-0.26279 -7.7135,-1.0414 -14.206,-5.5625 -19.155,-11.31 -6.4336,-7.5286 -7.6308,-17.554 -7.6308,-27.024 v -1.679 c 0.1022,-7.9812 0.58399,-16.6 5.5576,-23.462 3.2995,-4.5503 7.3437,-9.2611 13.247,-10.536 1.7033,-0.36986 3.5137,-0.61319 5.324,-0.61319 3.0319,0 6.0638,0.72026 8.5116,2.8762 1.7812,1.567 3.0076,3.7229 3.83,5.8496 0.39906,1.0414 0.47693,2.1024 0.55966,3.0854 0.0779,1.0658 0.16059,2.0245 0.53045,2.9005 1.9953,4.6281 6.2244,8.6479 10.852,8.6479 1.3334,0 2.7448,-0.34552 4.1512,-1.1193 3.1682,-1.7568 4.8422,-5.2948 5.2705,-8.9642 0.0487,-0.37473 0.0487,-0.72025 0.0487,-1.0901 0,-4.8422 -3.9079,-8.5117 -7.6065,-11.943 -0.23846,-0.21413 -0.45259,-0.42826 -0.66672,-0.61319 -5.3435,-4.9736 -12.317,-7.6113 -19.418,-7.6113 -2.6328,0 -5.2948,0.37473 -7.8741,1.095 l -0.0535,0.02433 z"
           id="path5"
           style="fill:#ffffff;stroke-width:12.9069" />
        <path
           d="m 382,105.44 -0.39906,50.651 c -0.0243,1.9953 -1.1193,3.6986 -2.2094,5.0272 -1.0658,1.3042 -2.4187,2.2873 -3.9371,2.9297 l -0.0535,0.0243 h -0.0535 l -4.9201,0.79812 c -1.0658,0.18493 -1.8104,0.69105 -1.8104,1.4113 0,0.85166 0.66672,1.4892 1.5719,1.4892 l 40.276,0.29199 c 0.85166,0 1.5135,-0.66672 1.5719,-1.5184 v -0.0779 c 0,-0.87598 -0.74945,-1.6254 -1.6011,-1.6254 h -0.0779 l -3.3774,-0.39906 c -2.4479,-0.29199 -3.9906,-2.3116 -5.2413,-3.9371 -1.0122,-1.3529 -1.7568,-2.8956 -2.1267,-4.5989 l -0.0292,-0.0535 v -0.0535 l -0.39906,-56.876 v -0.08273 c 0,-0.63752 0.0535,-1.275 0.32119,-1.9418 0.23847,-0.63752 0.69106,-1.1436 1.0901,-1.567 0.16059,-0.1898 0.29199,-0.34553 0.42339,-0.53532 3.3287,-4.122 7.6113,-7.5529 12.799,-9.0421 2.4722,-0.72025 5.1342,-1.3042 7.7671,-1.3042 2.3408,0 4.6573,0.45259 6.8084,1.6254 5.217,2.8421 8.3267,8.3511 8.3802,14.23 l 0.48179,55.547 v 0.0779 c 0,1.8639 -0.48179,3.7813 -1.7325,5.2413 -1.0074,1.1728 -2.2873,1.8639 -3.6451,2.3165 l -4.0149,1.3529 c -0.1314,0.0535 -0.23846,0.10707 -0.37473,0.13627 -1.275,0.42339 -2.1267,0.76892 -2.1267,1.567 v 0.10706 c 0.0827,0.95872 0.88085,1.5962 1.971,1.5962 l 39.103,-0.0243 c 1.1193,0 2.0488,-0.69105 2.1559,-1.7033 v -0.18493 c 0,-1.0122 -0.85165,-1.8639 -1.9174,-1.8639 h -0.1314 l -0.0779,0.0243 -0.0827,-0.0243 -3.2947,-0.69106 c -1.8639,-0.39906 -3.3531,-1.5427 -4.4967,-2.9005 -1.1972,-1.3821 -2.1559,-3.1098 -2.1802,-5.0807 l -0.50613,-52.087 c -0.0535,-5.0028 -0.77378,-10.006 -2.7156,-14.605 -2.662,-6.4142 -6.5164,-12.531 -12.794,-15.593 -3.246,-1.5962 -6.784,-2.2581 -10.376,-2.2581 -2.1316,0 -4.2826,0.23846 -6.4142,0.63752 -4.414,0.87598 -8.351,3.1633 -12.264,5.4554 -4.0149,2.3408 -7.7135,5.1342 -11.067,8.2683 l -0.87598,0.82732 v -1.1972 l -0.53046,-55.279 c -0.0292,-0.88085 -0.48179,-1.7325 -1.2264,-2.1802 -0.34553,-0.21413 -0.76892,-0.32119 -1.168,-0.32119 -0.37472,0 -0.74458,0.0779 -1.0901,0.23846 l -25.379,10.906 c -0.98792,0.42826 -1.679,1.0658 -1.679,1.7568 0,0.13626 0.0292,0.26766 0.0827,0.42826 0.20926,0.63752 0.82245,1.0366 1.4356,1.0366 0.31633,0 0.63752,-0.10706 0.92952,-0.3212 l 0.13139,-0.07787 h 0.13627 l 3.2168,-0.18493 c 0.10706,-0.0292 0.18493,-0.0292 0.29199,-0.0292 1.5184,0 2.847,0.69106 3.9906,1.5184 1.5719,1.168 1.9953,3.0319 2.3944,4.6281 0.1898,0.74459 0.37473,1.46 0.64239,2.1024 l 0.0243,0.10706 v 0.07787 l 0.39906,55.786 z"
           id="path6"
           style="fill:#ffffff;stroke-width:12.9069" />
        <path
           d="m 501.26,72.094 c -11.281,1.8639 -21.466,7.7427 -28.732,16.493 -7.076,8.5116 -10.852,19.233 -10.852,30.221 0,1.0366 0.0243,2.0732 0.10706,3.1146 0,11.597 3.1633,22.956 9.8938,32.348 2.954,4.1463 6.2292,7.9812 10.405,10.852 5.8788,4.0685 12.823,6.4385 20.002,6.4385 h 0.37473 c 10.4,-0.10706 19.661,-5.7718 26.63,-13.407 4.7595,-5.1878 8.0883,-11.519 9.7624,-18.435 l 0.90519,-3.0611 c 0.13139,-0.47692 0.23846,-1.0122 0.23846,-1.4892 0,-0.69106 -0.21413,-1.1972 -0.69105,-1.5184 -0.3212,-0.18493 -0.66673,-0.26279 -0.98305,-0.26279 -1.0366,0 -1.971,0.82245 -1.971,1.9126 v 0.13627 l -0.0535,0.1022 -1.4064,2.7691 c -1.5719,3.139 -3.6451,6.0394 -6.2244,8.3802 -5.1926,4.7595 -11.972,7.1539 -18.863,7.1539 -1.3334,0 -2.662,-0.0779 -4.0198,-0.2628 -7.7135,-1.0414 -14.206,-5.5625 -19.155,-11.31 -6.4336,-7.5286 -7.6308,-17.554 -7.6308,-27.024 v -1.679 c 0.1022,-7.9812 0.58399,-16.6 5.5576,-23.462 3.2995,-4.5503 7.3437,-9.2611 13.247,-10.536 1.7033,-0.36986 3.5137,-0.61319 5.324,-0.61319 3.0319,0 6.0638,0.72026 8.5116,2.8762 1.7812,1.567 3.0076,3.7229 3.83,5.8496 0.39906,1.0366 0.47693,2.1024 0.55966,3.0854 0.0779,1.0658 0.16059,2.0245 0.53045,2.9005 1.9953,4.6281 6.2244,8.6479 10.857,8.6479 1.3286,0 2.7399,-0.34553 4.1463,-1.1193 3.1682,-1.7568 4.8422,-5.2948 5.2705,-8.9642 0.0535,-0.37473 0.0535,-0.72025 0.0535,-1.0901 0,-4.8422 -3.9127,-8.5117 -7.6113,-11.943 -0.23846,-0.21413 -0.45259,-0.42826 -0.66672,-0.61319 -5.3435,-4.9736 -12.312,-7.6113 -19.418,-7.6113 -2.6328,0 -5.2948,0.37473 -7.8741,1.095 l -0.0535,0.02433 z"
           id="path7"
           style="fill:#ffffff;stroke-width:12.9069" />
        <path
           d="m 552.96,75.95 -12.05,5.0564 c -1.2264,0.50126 -2.2094,1.0609 -2.2094,1.9126 0,0.05353 0.0243,0.1606 0.0243,0.23846 0.1606,0.85165 0.90518,1.4113 1.7033,1.4113 0.3212,0 0.61319,-0.07787 0.90519,-0.23846 l 0.13626,-0.07786 h 0.15573 l 3.9371,0.15573 c 2.078,0.10706 3.9663,1.0658 5.4262,2.4771 1.971,1.8882 2.7934,4.4919 2.8226,7.076 l 0.0779,64.273 c 0,2.1267 -1.7276,3.5915 -3.0562,4.5989 -1.3334,0.98792 -2.9005,1.4648 -4.4724,1.6498 l -4.6525,0.61319 c -1.4648,0.18493 -2.662,0.66672 -2.662,1.6206 v 0.1898 c 0.1314,0.92952 0.90519,1.5427 1.7568,1.5427 0.1606,0 0.36986,-0.0292 0.55966,-0.0827 l 0.0779,-0.0243 h 0.0779 l 43.498,0.0779 c 0.292,0 0.58399,-0.0243 0.87598,-0.0779 0.85166,-0.21413 1.494,-0.72026 1.5719,-1.5427 v -0.1606 c 0,-1.0366 -0.90518,-1.8882 -1.8882,-1.8882 -0.21413,0 -0.45259,0.0535 -0.69106,0.1606 l -0.13626,0.0535 -0.1314,-0.0292 -4.7595,-0.55966 c -2.0245,-0.23846 -3.7521,-1.1972 -5.1878,-2.4966 -1.8347,-1.6498 -3.2217,-3.9663 -3.2217,-6.5212 l -0.23846,-60.093 c -0.0243,-1.8639 1.168,-3.2995 2.1559,-4.5503 0.1314,-0.18493 0.292,-0.37473 0.4234,-0.55966 1.0901,-1.4113 2.3944,-2.7934 4.0441,-3.7765 0.10706,-0.05353 0.21413,-0.13626 0.32119,-0.18493 0.98305,-0.58886 2.1802,-1.3042 3.5623,-1.3042 h 0.26766 c 1.1144,0.07787 1.9953,0.69105 2.7642,1.2215 0.37473,0.23846 0.72025,0.48179 1.0658,0.66672 1.0366,0.53046 1.9953,1.2507 2.9005,1.9418 1.8104,1.3578 3.4309,2.5793 5.5041,2.6328 h 0.29686 c 3.5915,0 6.9689,-1.7568 8.828,-4.8666 0.90518,-1.4892 1.3042,-3.0319 1.3042,-4.5503 0,-4.122 -2.9248,-8.1661 -6.8084,-10.346 -1.6254,-0.93438 -3.3531,-1.2799 -5.1634,-1.2799 -2.5014,0 -5.0807,0.69106 -7.4994,1.5184 -2.847,0.95872 -5.1878,2.8178 -7.5821,4.706 -0.23846,0.1606 -0.47692,0.34553 -0.69105,0.53532 -1.9953,1.567 -3.83,3.246 -5.5333,5.0272 l -0.88085,0.90518 -0.0243,-1.2799 -0.10706,-7.3145 c -0.0243,-1.275 -0.61319,-2.5258 -1.7033,-3.1925 -0.36986,-0.23846 -0.82245,-0.34553 -1.3042,-0.34553 -0.39906,0 -0.79812,0.05353 -1.2215,0.10706 -0.3212,0.05353 -0.66672,0.07787 -1.0122,0.10706 l -12.157,4.8666 z"
           id="path8"
           style="fill:#ffffff;stroke-width:12.9069" />
        <path
           d="m 669.24,122.54 -0.0535,-28.596 c 0,-4.8422 -1.1144,-9.6602 -3.9127,-13.597 -3.5088,-4.9201 -9.0421,-7.66 -14.974,-8.9107 -3.9371,-0.79812 -8.2732,-1.2507 -12.371,-1.2507 -4.0149,0 -7.7963,0.42339 -10.697,1.3578 -7.8985,2.555 -15.88,6.2487 -19.34,13.884 -0.0243,0.08273 -0.0535,0.1898 -0.1022,0.26766 -1.1193,2.4479 -2.1851,4.8666 -2.1851,7.3437 0,0.58399 0.0535,1.1436 0.1606,1.7033 0.98305,4.4675 3.8057,8.6722 8.3802,8.6722 h 0.292 c 4.4432,-0.16059 7.0225,-4.3118 8.0639,-8.5944 0.0779,-0.39906 0.1314,-0.79812 0.1314,-1.2264 0,-0.71539 -0.10706,-1.46 -0.23846,-2.2581 -0.13626,-0.77379 -0.26766,-1.6254 -0.26766,-2.4722 0,-0.29686 0,-0.55966 0.0535,-0.85165 0.21413,-1.8396 0.45259,-3.8592 1.4113,-5.6696 2.4722,-4.7595 7.8449,-6.5407 12.819,-6.6769 0.1898,0 0.37473,-0.02433 0.55966,-0.02433 4.3897,0 8.8328,1.6206 11.811,5.0515 2.2873,2.662 3.6743,6.0394 3.6743,9.5531 v 0.07786 l -0.0827,16.868 -33.146,13.169 c -4.813,1.9126 -9.339,4.521 -12.609,8.4581 -4.0441,4.8958 -6.385,10.989 -6.385,17.13 0,3.1146 0.61319,6.2292 1.8882,9.2319 3.5915,8.3802 11.441,14.021 20.537,14.819 0.72026,0.0779 1.4356,0.10706 2.1559,0.10706 8.5652,0 16.576,-4.4432 21.121,-11.865 2.1851,-3.5137 3.2752,-7.6357 3.6743,-11.811 0.1314,-1.6254 0.292,-3.2217 0.292,-4.8179 0,-2.6036 -0.39906,-5.1829 -1.8347,-7.6065 -1.4648,-2.4722 -4.4724,-4.9201 -7.2366,-4.9201 -1.1972,0 -2.37,0.45259 -3.4066,1.5962 -1.0122,1.1144 -1.4648,2.4722 -1.4648,3.8543 0,1.5184 0.53533,3.0611 1.4648,4.3653 0.45259,0.63753 1.1972,0.95872 2.078,1.3578 0.82245,0.34553 1.8055,0.76892 2.4722,1.6206 1.1972,1.5719 1.7812,3.4845 1.7812,5.3727 0,0.13626 -0.0243,0.26766 -0.0243,0.39906 -0.10706,2.5014 -1.4113,4.6816 -2.9784,6.385 -2.3408,2.5842 -5.5917,3.7765 -8.8864,3.7765 -1.0366,0 -2.078,-0.1314 -3.1146,-0.36986 -4.8422,-1.0901 -7.952,-5.1342 -9.7624,-9.3633 -0.90518,-2.078 -1.3042,-4.2826 -1.3042,-6.4677 0,-3.0562 0.79812,-6.1416 2.1559,-8.9642 2.0732,-4.2291 5.6112,-7.6065 9.9765,-9.5482 l 0.0535,-0.0292 22.746,-7.7914 0.23846,41.02 c 0.0243,4.122 0.58399,8.2732 3.4553,11.174 2.6085,2.6036 6.3606,3.5623 10.161,3.5623 4.4432,0 8.7014,-1.9953 11.709,-5.397 l 4.706,-5.2948 c 0.1898,-0.21413 0.37473,-0.39906 0.55966,-0.61319 0.92952,-0.95872 1.7568,-1.8882 1.7568,-2.7399 0,-0.29199 -0.10707,-0.63752 -0.4526,-1.0122 -0.47692,-0.53046 -1.1436,-0.79812 -1.8104,-0.79812 -0.82246,0 -1.6498,0.42826 -2.1267,1.1728 l -0.10706,0.1314 -0.1314,0.0535 -4.5503,2.0245 c -0.47692,0.20926 -0.98305,0.31633 -1.4892,0.31633 -1.1728,0 -2.2873,-0.53046 -3.1681,-1.168 -1.3529,-1.0122 -1.5962,-2.6085 -1.8347,-3.9127 -0.10706,-0.53046 -0.18493,-1.0366 -0.31632,-1.5184 l -0.0292,-0.0779 v -0.0535 l 0.0535,-29.608 z"
           id="path9"
           style="fill:#ffffff;stroke-width:12.9069" />
        <path
           d="m 695.99,117.46 -0.10706,40.543 c -0.0243,1.5135 -0.0243,3.4066 -1.1728,4.813 -0.92952,1.1436 -2.2338,1.8882 -3.6402,2.1316 l -2.7399,0.42339 c -1.4648,0.23846 -2.5014,0.50613 -2.5014,1.4648 0,0.98305 0.74459,1.6741 1.6206,1.6741 0.1898,0 0.39906,-0.0243 0.61319,-0.10707 l 0.0779,-0.0535 h 0.10707 l 33.789,0.21413 c 0.292,0 0.60833,-0.0535 0.92952,-0.1314 0.92952,-0.24333 1.5962,-0.82731 1.5962,-1.679 l -0.0292,-0.0779 c -0.0243,-1.0122 -0.90032,-1.7812 -1.8882,-1.7812 -0.15574,0 -0.31633,0.0243 -0.47693,0.0779 l -0.1314,0.0243 -0.16059,-0.0243 -2.9248,-0.79811 c -1.679,-0.47693 -3.0903,-1.4356 -4.1512,-2.7156 -1.1728,-1.3286 -2.1024,-3.0319 -2.1024,-4.9444 l -0.29,-70.057 c 0,-0.26766 0,-0.53046 -0.0292,-0.82245 -0.0243,-0.32119 -0.0535,-0.64239 -0.0535,-0.98792 0,-0.74459 0.13626,-1.567 0.74458,-2.2873 0.77379,-0.85165 1.8639,-1.2994 3.0319,-1.2994 l 26.528,0.04867 c 1.1972,0 2.3408,0.58886 3.0854,1.5184 0.63752,0.76892 0.95385,1.7276 0.95385,2.7107 0,0.37473 -0.0487,0.77379 -0.15573,1.1485 l 0.0535,60.998 c 0,5.9616 0.50126,12.103 4.2826,16.653 3.6159,4.3361 8.8328,7.1587 14.522,7.2366 h 0.21413 c 5.4554,0 10.346,-2.9005 14.527,-6.5699 1.8347,-1.6254 3.4017,-3.538 4.813,-5.6404 l 1.66,-2.45 c 0.50612,-0.74459 0.98305,-1.6254 0.98305,-2.3408 0,-0.37473 -0.1314,-0.72026 -0.58399,-0.98305 -0.292,-0.1606 -0.58399,-0.24333 -0.87599,-0.24333 -0.63752,0 -1.2507,0.37472 -1.5427,0.98791 l -0.0535,0.10707 -0.0827,0.0779 -2.1267,1.8347 c -0.0243,0.0292 -0.0779,0.0535 -0.10706,0.0827 -0.82245,0.71539 -1.7033,1.4892 -2.7399,1.9953 -1.4648,0.71539 -3.0027,1.0366 -4.5502,1.0366 -1.2215,0 -2.4479,-0.21413 -3.5915,-0.55966 -2.6864,-0.82732 -4.9444,-2.6328 -6.4628,-4.9493 -1.567,-2.3408 -2.1024,-5.1342 -2.1024,-7.8985 l -0.1606,-60.02 c 0,-0.34553 -0.0535,-0.69105 -0.13139,-1.1144 -0.0535,-0.42826 -0.1314,-0.88085 -0.1314,-1.3578 0,-0.63752 0.1606,-1.3286 0.74459,-1.9174 0.71538,-0.71539 1.7033,-1.0366 2.6864,-1.0366 l 12.449,-0.05353 c 2.078,0 3.9127,-1.5135 3.9127,-3.5623 0,-1.971 -1.6498,-3.538 -3.5672,-3.538 -0.1606,0 -0.31633,0.02433 -0.47692,0.05353 h -0.0535 l -11.042,0.02433 h -0.2628 -0.32119 c -0.76892,0 -1.6741,-0.02433 -2.4479,-0.58399 -1.0122,-0.69105 -1.6741,-1.8347 -1.6741,-3.0611 0,-0.15573 0.0243,-0.292 0.0243,-0.42339 l -0.10707,-19.048 c 0,-1.4113 -0.31632,-2.6864 -1.3821,-3.0075 -0.18493,-0.02433 -0.31633,-0.05353 -0.4234,-0.05353 -0.72025,0 -1.0901,0.69105 -1.5962,1.9174 -0.21413,0.47692 -0.42826,0.98305 -0.69105,1.3821 -0.72025,1.0366 -1.0658,2.263 -1.4405,3.538 -0.26279,0.95872 -0.55479,1.9953 -1.0366,2.9248 -1.7812,3.5137 -4.0149,6.8667 -7.0225,9.4704 -3.2168,2.7934 -7.1052,4.5503 -11.037,5.7231 -3.1146,0.92952 -6.3314,1.4356 -9.5774,1.4356 h -0.3504 l -10.877,-0.10706 c -1.1728,-0.02433 -2.555,-0.1314 -3.538,-1.1436 -0.72026,-0.74459 -1.1436,-1.7568 -1.1436,-2.7934 0,-0.18493 0.0243,-0.34553 0.0535,-0.53046 l 0.0243,-18.756 c 0,-2.3944 0.66672,-4.7108 1.8347,-6.8132 1.4113,-2.4966 3.3531,-4.998 6.3606,-6.0102 0.87598,-0.32119 1.7812,-0.45259 2.6572,-0.45259 2.662,0 5.217,1.1728 7.4751,2.37 2.1851,1.168 3.8884,2.9783 5.509,4.6816 0.82245,0.87598 1.3821,1.9126 1.9174,2.8713 0.74459,1.3286 1.4064,2.5306 2.5258,3.3239 2.0488,1.4113 4.4967,2.37 6.8376,2.37 1.6498,0 3.2703,-0.47692 4.6816,-1.5962 1.9661,-1.5427 2.7107,-3.7229 2.7107,-6.1173 0,-1.9418 -0.50125,-3.9906 -1.275,-5.8253 -1.2507,-3.0903 -4.2047,-4.9785 -7.1052,-6.8132 -0.0779,-0.0535 -0.15573,-0.10707 -0.23846,-0.1314 -4.3069,-2.7399 -9.3633,-3.7765 -14.444,-3.7765 -1.7033,0 -3.3774,0.1022 -5.0515,0.31633 -8.3802,1.0122 -16.069,5.0272 -21.549,11.412 -3.6207,4.2291 -5.7474,9.4168 -7.2366,14.741 -0.72026,2.6036 -0.85166,5.29 -0.95872,8.0299 -0.10707,2.2094 -0.18493,4.4724 -0.63752,6.6818 -0.0535,0.2628 -0.0827,0.55479 -0.0827,0.87598 -0.0535,0.63752 -0.0779,1.4892 -0.63753,2.1267 -0.66672,0.77379 -1.6206,1.1728 -2.5793,1.1728 -0.23847,0 -0.47693,-0.0292 -0.72026,-0.05353 l -7.076,0.1314 c -1.8882,0.05353 -3.4845,1.4892 -3.5088,3.3287 v 0.04867 c 0,1.9418 1.4892,3.4601 3.4017,3.4601 h 6.4142 c 1.0609,0 2.5014,0.02433 3.5088,0.98305 1.1193,1.0658 1.0901,2.662 1.0901,3.7521 v 0.07787 l 0.0292,32.085 z"
           id="path10"
           style="fill:#ffffff;stroke-width:12.9069" />
      </g>
      <g
         aria-label="®"
         id="text24526"
         style="font-size:3.175px;line-height:1.25;-inkscape-font-specification:'sans-serif, Normal';fill:#ffffff;stroke-width:0.405567"
         transform="matrix(0.65237732,0,0,0.65237732,37.172512,62.755041)">
        <path
           d="m 135.86896,172.78803 q -0.44649,0 -0.69298,-0.25114 -0.24495,-0.2527 -0.24495,-0.70694 0,-0.002 0,0 0,0.002 0,0 0,-0.45578 0.24495,-0.70538 0.24494,-0.25115 0.69298,-0.25115 0.44803,0 0.69298,0.25115 0.24494,0.2496 0.24494,0.70538 0,0.002 0,0 0,-0.002 0,0 0,0.45424 -0.24649,0.70694 -0.24495,0.25114 -0.69143,0.25114 z m -0.37207,-0.47904 v -0.96583 h 0.23409 v 0.96583 z m 0.5519,-0.002 -0.18293,-0.37672 0.19688,-0.10232 0.2465,0.47904 z m -0.17983,0.22635 q 0.32401,0 0.50384,-0.18604 0.17984,-0.18603 0.17984,-0.5178 0,-0.003 0,0 0,0.002 0,0 0,-0.34261 -0.17984,-0.5302 -0.17828,-0.18758 -0.50384,-0.18758 -0.32556,0 -0.5054,0.18758 -0.17828,0.18759 -0.17828,0.5302 0,0.002 0,0 0,-0.002 0,0 0,0.33332 0.17983,0.51935 0.17984,0.18449 0.50385,0.18449 z m -0.22635,-0.5147 v -0.20929 h 0.29301 q 0.0512,0 0.0822,-0.0326 0.0326,-0.0341 0.0326,-0.0961 0,-0.0651 -0.0326,-0.0961 -0.0326,-0.0326 -0.0822,-0.0326 h -0.29301 v -0.20929 h 0.28681 q 0.17673,0 0.2651,0.0961 0.0899,0.0946 0.0899,0.24184 0,0.14728 -0.0915,0.2434 -0.0899,0.0946 -0.26355,0.0946 z"
           style="font-family:Bahnschrift;-inkscape-font-specification:Bahnschrift;stroke-width:0.405567"
           id="path24578" />
      </g>
    </g>
    <path
       style="font-variation-settings:normal;opacity:1;fill:none;fill-opacity:1;stroke:#ffcc00;stroke-width:2;stroke-linecap:butt;stroke-linejoin:miter;stroke-miterlimit:4;stroke-dasharray:none;stroke-dashoffset:0;stroke-opacity:1;stop-color:#000000;stop-opacity:1"
       id="path25084"
       sodipodi:type="arc"
       sodipodi:cx="118.87723"
       sodipodi:cy="168.76851"
       sodipodi:rx="18.725441"
       sodipodi:ry="18.725441"
       sodipodi:start="3.8892563"
       sodipodi:end="4.1511571"
       sodipodi:arc-type="arc"
       d="m 105.14625,156.03657 a 18.725441,18.725441 0 0 1 3.76475,-3.12102"
       sodipodi:open="true" />
    <path
       style="font-variation-settings:normal;opacity:1;vector-effect:none;fill:none;fill-opacity:1;stroke:#ffffff;stroke-width:0.699996;stroke-linecap:square;stroke-linejoin:miter;stroke-miterlimit:4;stroke-dasharray:none;stroke-dashoffset:0;stroke-opacity:1;-inkscape-stroke:none;stop-color:#000000;stop-opacity:1"
       id="path24778"
       sodipodi:type="arc"
       sodipodi:cx="118.87724"
       sodipodi:cy="168.76851"
       sodipodi:rx="18"
       sodipodi:ry="18"
       sodipodi:start="3.8916223"
       sodipodi:end="5.5234989"
       sodipodi:arc-type="arc"
       d="m 105.70721,156.49862 a 18,18 0 0 1 13.08312,-5.7299 18,18 0 0 1 13.13785,5.60329"
       sodipodi:open="true" />
    <path
       style="font-variation-settings:normal;opacity:1;vector-effect:none;fill:none;fill-opacity:1;stroke:#ffffff;stroke-width:0.699996;stroke-linecap:square;stroke-linejoin:miter;stroke-miterlimit:4;stroke-dasharray:none;stroke-dashoffset:0;stroke-opacity:1;-inkscape-stroke:none;stop-color:#000000;stop-opacity:1"
       d="m 105.62106,156.4173 -2.96951,-2.76675"
       id="path24859"
       sodipodi:nodetypes="cc"
       inkscape:transform-center-x="14.740915"
       inkscape:transform-center-y="-13.73458" />
    <path
       style="font-variation-settings:normal;opacity:1;vector-effect:none;fill:none;fill-opacity:1;stroke:#ffffff;stroke-width:0.699996;stroke-linecap:square;stroke-linejoin:miter;stroke-miterlimit:4;stroke-dasharray:none;stroke-dashoffset:0;stroke-opacity:1;-inkscape-stroke:none;stop-color:#000000;stop-opacity:1"
       d="m 113.57265,151.44397 -1.18829,-3.88083"
       id="path24871"
       sodipodi:nodetypes="cc"
       inkscape:transform-center-x="5.898715"
       inkscape:transform-center-y="-19.26495" />
    <path
       style="font-variation-settings:normal;opacity:1;vector-effect:none;fill:none;fill-opacity:1;stroke:#ffffff;stroke-width:0.699996;stroke-linecap:square;stroke-linejoin:miter;stroke-miterlimit:4;stroke-dasharray:none;stroke-dashoffset:0;stroke-opacity:1;-inkscape-stroke:none;stop-color:#000000;stop-opacity:1"
       d="m 122.9456,151.11273 0.91132,-3.95504"
       id="path24873"
       sodipodi:nodetypes="cc"
       inkscape:transform-center-x="-4.52404"
       inkscape:transform-center-y="-19.633295" />
    <path
       style="font-variation-settings:normal;opacity:1;fill:none;fill-opacity:1;stroke:#ffffff;stroke-width:0.5;stroke-linecap:square;stroke-linejoin:miter;stroke-miterlimit:4;stroke-dasharray:none;stroke-dashoffset:0;stroke-opacity:1;stop-color:#000000;stop-opacity:1"
       d="m 131.22843,155.51235 1.536,-1.73877"
       id="path24875"
       sodipodi:nodetypes="cc"
       inkscape:transform-center-x="-13.11921"
       inkscape:transform-center-y="-14.12554" />
    <path
       style="font-variation-settings:normal;opacity:1;vector-effect:none;fill:none;fill-opacity:1;stroke:#ffffff;stroke-width:0.699996;stroke-linecap:square;stroke-linejoin:miter;stroke-miterlimit:4;stroke-dasharray:none;stroke-dashoffset:0;stroke-opacity:1;-inkscape-stroke:none;stop-color:#000000;stop-opacity:1"
       d="m 132.0131,156.28945 2.94251,-2.79542"
       id="path24877"
       sodipodi:nodetypes="cc"
       inkscape:transform-center-x="-14.607135"
       inkscape:transform-center-y="-13.876765" />
    <path
       style="font-variation-settings:normal;opacity:1;vector-effect:none;fill:none;fill-opacity:1;stroke:#ffffff;stroke-width:0.699996;stroke-linecap:square;stroke-linejoin:miter;stroke-miterlimit:4;stroke-dasharray:none;stroke-dashoffset:0;stroke-opacity:1;-inkscape-stroke:none;stop-color:#000000;stop-opacity:1"
       d="m 130.43651,154.81641 2.58933,-3.1254"
       id="path24932"
       sodipodi:nodetypes="cc"
       inkscape:transform-center-x="-12.853955"
       inkscape:transform-center-y="-15.514795" />
    <path
       style="font-variation-settings:normal;opacity:1;fill:none;fill-opacity:1;stroke:#ffffff;stroke-width:0.5;stroke-linecap:square;stroke-linejoin:miter;stroke-miterlimit:4;stroke-dasharray:none;stroke-dashoffset:0;stroke-opacity:1;stop-color:#000000;stop-opacity:1"
       d="m 127.37663,152.76731 1.03363,-2.07706"
       id="path25050"
       sodipodi:nodetypes="cc"
       inkscape:transform-center-x="-9.016225"
       inkscape:transform-center-y="-17.039725" />
    <path
       style="font-variation-settings:normal;opacity:1;fill:none;fill-opacity:1;stroke:#ffffff;stroke-width:0.5;stroke-linecap:square;stroke-linejoin:miter;stroke-miterlimit:4;stroke-dasharray:none;stroke-dashoffset:0;stroke-opacity:1;stop-color:#000000;stop-opacity:1"
       d="m 118.23733,150.66136 -0.14338,-2.3156"
       id="path25052"
       sodipodi:nodetypes="cc"
       inkscape:transform-center-x="0.71158"
       inkscape:transform-center-y="-19.264945" />
    <path
       style="font-variation-settings:normal;opacity:1;fill:none;fill-opacity:1;stroke:#ffffff;stroke-width:0.5;stroke-linecap:square;stroke-linejoin:miter;stroke-miterlimit:4;stroke-dasharray:none;stroke-dashoffset:0;stroke-opacity:1;stop-color:#000000;stop-opacity:1"
       d="m 109.26949,153.4072 -1.28197,-1.93368"
       id="path25054"
       sodipodi:nodetypes="cc"
       inkscape:transform-center-x="10.248715"
       inkscape:transform-center-y="-16.328145" />
    <text
       xml:space="preserve"
       style="font-style:normal;font-variant:normal;font-weight:600;font-stretch:normal;font-size:4.13527px;line-height:1.25;font-family:Bahnschrift;-inkscape-font-specification:'Bahnschrift Semi-Bold';fill:#ffffff;stroke-width:0.264583"
       x="113.84443"
       y="158.44823"
       id="text25060"><tspan
         sodipodi:role="line"
         id="tspan25058"
         style="font-style:normal;font-variant:normal;font-weight:600;font-stretch:normal;font-family:Bahnschrift;-inkscape-font-specification:'Bahnschrift Semi-Bold';fill:#ffffff;stroke-width:0.264583"
         x="113.84443"
         y="158.44823">FUEL</tspan></text>
    <text
       xml:space="preserve"
       style="font-style:normal;font-variant:normal;font-weight:600;font-stretch:normal;font-size:5.51875px;line-height:1.25;font-family:Bahnschrift;-inkscape-font-specification:'Bahnschrift Semi-Bold';fill:#ffffff;stroke-width:0.264582"
       x="133.55354"
       y="160.43756"
       id="text25064"><tspan
         sodipodi:role="line"
         id="tspan25062"
         style="font-style:normal;font-variant:normal;font-weight:600;font-stretch:normal;font-family:Bahnschrift;-inkscape-font-specification:'Bahnschrift Semi-Bold';fill:#ffffff;stroke-width:0.264582"
         x="133.55354"
         y="160.43756">F</tspan></text>
    <text
       xml:space="preserve"
       style="font-style:normal;font-variant:normal;font-weight:600;font-stretch:normal;font-size:5.51875px;line-height:1.25;font-family:Bahnschrift;-inkscape-font-specification:'Bahnschrift Semi-Bold';fill:#ffffff;stroke-width:0.264582"
       x="100.76516"
       y="160.43756"
       id="text25068"><tspan
         sodipodi:role="line"
         id="tspan25066"
         style="font-style:normal;font-variant:normal;font-weight:600;font-stretch:normal;font-family:Bahnschrift;-inkscape-font-specification:'Bahnschrift Semi-Bold';fill:#ffffff;stroke-width:0.264582"
         x="100.76516"
         y="160.43756">E</tspan></text>
    <text
       xml:space="preserve"
       style="font-style:normal;font-variant:normal;font-weight:600;font-stretch:normal;font-size:3.53022px;line-height:1.25;font-family:Bahnschrift;-inkscape-font-specification:'Bahnschrift Semi-Bold';fill:#ffffff;stroke-width:0.264582"
       x="109.03806"
       y="145.32155"
       id="text25072"><tspan
         sodipodi:role="line"
         id="tspan25070"
         style="font-style:normal;font-variant:normal;font-weight:600;font-stretch:normal;font-family:Bahnschrift;-inkscape-font-specification:'Bahnschrift Semi-Bold';fill:#ffffff;stroke-width:0.264582"
         x="109.03806"
         y="145.32155"
         dy="0 0.4787055 0.4787055"
         dx="0 0.11967635 4.1228918e-10">1/4</tspan></text>
    <text
       xml:space="preserve"
       style="font-style:normal;font-variant:normal;font-weight:600;font-stretch:normal;font-size:3.53022px;line-height:1.25;font-family:Bahnschrift;-inkscape-font-specification:'Bahnschrift Semi-Bold';fill:#ffffff;stroke-width:0.264582"
       x="122.2951"
       y="145.04092"
       id="text25076"><tspan
         sodipodi:role="line"
         id="tspan25074"
         style="font-style:normal;font-variant:normal;font-weight:600;font-stretch:normal;font-family:Bahnschrift;-inkscape-font-specification:'Bahnschrift Semi-Bold';fill:#ffffff;stroke-width:0.264582"
         x="122.2951"
         y="145.04092"
         dy="0 0.4787055 0.51449388"
         dx="0 0.11967635">1/2</tspan></text>
    <text
       xml:space="preserve"
       style="font-style:normal;font-variant:normal;font-weight:600;font-stretch:normal;font-size:3.53022px;line-height:1.25;font-family:Bahnschrift;-inkscape-font-specification:'Bahnschrift Semi-Bold';fill:#ffffff;stroke-width:0.264582"
       x="130.85109"
       y="149.28502"
       id="text25082"><tspan
         sodipodi:role="line"
         id="tspan25080"
         style="font-style:normal;font-variant:normal;font-weight:600;font-stretch:normal;font-family:Bahnschrift;-inkscape-font-specification:'Bahnschrift Semi-Bold';fill:#ffffff;stroke-width:0.264582"
         x="130.85109"
         y="149.28502"
         dy="0 0.4787055 0.9822157"
         dx="0 0.11967635 -0.046772167">3/4</tspan></text>
  </g>
</svg>
