<?xml version="1.0" encoding="UTF-8" standalone="no"?>
<!-- Created with Inkscape (http://www.inkscape.org/) -->

<svg
   width="210mm"
   height="297mm"
   viewBox="0 0 210 297"
   version="1.1"
   id="svg1"
   xml:space="preserve"
   inkscape:version="1.3 (0e150ed6c4, 2023-07-21)"
   sodipodi:docname="OH_15_combined.svg"
   xmlns:inkscape="http://www.inkscape.org/namespaces/inkscape"
   xmlns:sodipodi="http://sodipodi.sourceforge.net/DTD/sodipodi-0.dtd"
   xmlns="http://www.w3.org/2000/svg"
   xmlns:svg="http://www.w3.org/2000/svg"><sodipodi:namedview
     id="namedview1"
     pagecolor="#505050"
     bordercolor="#ffffff"
     borderopacity="1"
     inkscape:showpageshadow="0"
     inkscape:pageopacity="0"
     inkscape:pagecheckerboard="1"
     inkscape:deskcolor="#d1d1d1"
     inkscape:document-units="mm"
     showgrid="false"
     inkscape:zoom="0.66724888"
     inkscape:cx="0.74934558"
     inkscape:cy="517.7978"
     inkscape:current-layer="layer1"
     showguides="true"><sodipodi:guide
       position="100.38425,146.09573"
       orientation="1,0"
       id="guide2"
       inkscape:locked="false" /><sodipodi:guide
       position="107.68425,153.39572"
       orientation="0,-1"
       id="guide3"
       inkscape:locked="false" /><sodipodi:guide
       position="69.908015,94.782912"
       orientation="0,-1"
       id="guide4"
       inkscape:locked="false" /><sodipodi:guide
       position="62.408014,102.38291"
       orientation="1,0"
       id="guide5"
       inkscape:locked="false" /></sodipodi:namedview><defs
     id="defs1" /><g
     inkscape:label="Layer 1"
     inkscape:groupmode="layer"
     id="layer1"><g
       id="g1"
       transform="matrix(10,0,0,10,32.658015,73.101225)"
       style="display:inline;fill:none;stroke:#00ffc8;stroke-width:0.02;stroke-dasharray:none;stroke-opacity:1"><path
         d="m -3.1860808,10.278541 a 0.1588,0.1588 90 0 1 -0.1588,-0.1588 V 7.0437873 a 2.5,2.5 0 0 0 -2.5,-2.5 h -3.7346546 a 0.1588,0.1588 90 0 1 -0.1588,-0.1588 v -7.1230348 a 0.1587974,0.1587974 -180 0 1 0.1587974,-0.1587974 h 0.2374462 a 0.555641,0.555641 90 0 0 0.5556409,-0.555641 V -4.6424166 A 0.1587974,0.1587974 -180 0 1 -8.6276534,-4.801214 H 3.5957481 a 0.1587974,0.1587974 -90 0 1 0.1587974,0.1587974 v 1.1899307 a 0.555641,0.555641 -180 0 0 0.555641,0.555641 h 0.2374462 a 0.1587974,0.1587974 -90 0 1 0.1587974,0.1587974 V 8.2153747 A 0.1587974,0.1587974 0 0 1 4.5476327,8.3741721 H 4.3101865 a 0.555641,0.555641 -90 0 0 -0.555641,0.555641 v 1.1899309 a 0.1587974,0.1587974 0 0 1 -0.1587974,0.158797 z"
         transform="matrix(1,0,0,-1,9.7383354,10.278541)"
         fill="#000000"
         stroke-linecap="round"
         stroke-linejoin="round"
         id="path1"
         style="fill:none;stroke:#00ffc8;stroke-width:0.02;stroke-dasharray:none;stroke-opacity:1" /><path
         d="m -7.5133354,-2.6330453 a 0.75,0.75 0 1 1 1.5,0 0.75,0.75 0 1 1 -1.5,0 z"
         transform="matrix(1,0,0,-1,9.7383354,10.278541)"
         fill="#ffffff"
         stroke="#000000"
         stroke-width="0.001cm"
         stroke-linecap="round"
         stroke-linejoin="round"
         id="path2"
         style="fill:none;stroke:#00ffc8;stroke-width:0.02;stroke-dasharray:none;stroke-opacity:1" /><path
         d="m -3.2530954,-2.6330453 a 0.75,0.75 0 1 1 1.5,0 0.75,0.75 0 1 1 -1.5,0 z"
         transform="matrix(1,0,0,-1,9.7383354,10.278541)"
         fill="#ffffff"
         stroke="#000000"
         stroke-width="0.001cm"
         stroke-linecap="round"
         stroke-linejoin="round"
         id="path3"
         style="fill:none;stroke:#00ffc8;stroke-width:0.02;stroke-dasharray:none;stroke-opacity:1" /><path
         d="m 0.9814301,-2.6330453 a 0.75,0.75 0 1 1 1.5,0 0.75,0.75 0 1 1 -1.5,0 z"
         transform="matrix(1,0,0,-1,9.7383354,10.278541)"
         fill="#ffffff"
         stroke="#000000"
         stroke-width="0.001cm"
         stroke-linecap="round"
         stroke-linejoin="round"
         id="path4"
         style="fill:none;stroke:#00ffc8;stroke-width:0.02;stroke-dasharray:none;stroke-opacity:1" /><path
         d="m 0.4539743,0.1762447 v 1.185 a 0.05,0.05 -180 0 0 0.05,0.05 h 2.455 a 0.05,0.05 90 0 0 0.05,-0.05 v -1.185 a 0.05,0.05 0 0 0 -0.05,-0.05 h -2.455 a 0.05,0.05 -90 0 0 -0.05,0.05 z"
         transform="matrix(1,0,0,-1,9.7383354,10.278541)"
         fill="#ffffff"
         stroke="#000000"
         stroke-width="0.001cm"
         stroke-linecap="round"
         stroke-linejoin="round"
         id="path5"
         style="fill:none;stroke:#00ffc8;stroke-width:0.02;stroke-dasharray:none;stroke-opacity:1" /><path
         d="m -3.7934257,0.1762447 v 1.185 a 0.05,0.05 -180 0 0 0.05,0.05 h 2.455 a 0.05,0.05 90 0 0 0.05,-0.05 v -1.185 a 0.05,0.05 0 0 0 -0.05,-0.05 h -2.455 a 0.05,0.05 -90 0 0 -0.05,0.05 z"
         transform="matrix(1,0,0,-1,9.7383354,10.278541)"
         fill="#ffffff"
         stroke="#000000"
         stroke-width="0.001cm"
         stroke-linecap="round"
         stroke-linejoin="round"
         id="path6"
         style="fill:none;stroke:#00ffc8;stroke-width:0.02;stroke-dasharray:none;stroke-opacity:1" /><path
         d="m -8.0408257,0.1762447 v 1.185 a 0.05,0.05 -180 0 0 0.05,0.05 h 2.455 a 0.05,0.05 90 0 0 0.05,-0.05 v -1.185 a 0.05,0.05 0 0 0 -0.05,-0.05 h -2.455 a 0.05,0.05 -90 0 0 -0.05,0.05 z"
         transform="matrix(1,0,0,-1,9.7383354,10.278541)"
         fill="#ffffff"
         stroke="#000000"
         stroke-width="0.001cm"
         stroke-linecap="round"
         stroke-linejoin="round"
         id="path7"
         style="fill:none;stroke:#00ffc8;stroke-width:0.02;stroke-dasharray:none;stroke-opacity:1" /><path
         d="m -3.6857119,3.2282353 a 0.72,0.72 0 1 1 1.44,0 0.72,0.72 0 1 1 -1.44,0 z"
         transform="matrix(1,0,0,-1,9.7383354,10.278541)"
         fill="#ffffff"
         stroke="#000000"
         stroke-width="0.001cm"
         stroke-linecap="round"
         stroke-linejoin="round"
         id="path8"
         style="fill:none;stroke:#00ffc8;stroke-width:0.02;stroke-dasharray:none;stroke-opacity:1" /><path
         d="m 0.6202387,6.7687875 a 0.475,0.475 0 1 1 0.95,0 0.475,0.475 0 1 1 -0.95,0 z"
         transform="matrix(1,0,0,-1,9.7383354,10.278541)"
         fill="#ffffff"
         stroke="#000000"
         stroke-width="0.001cm"
         stroke-linecap="round"
         stroke-linejoin="round"
         id="path9"
         style="fill:none;stroke:#00ffc8;stroke-width:0.02;stroke-dasharray:none;stroke-opacity:1" /><path
         d="m -8.5495841,-1.0712127 a 0.16,0.16 0 1 1 0.32,0 0.16,0.16 0 1 1 -0.32,0 z"
         transform="matrix(1,0,0,-1,9.7383354,10.278541)"
         fill="#ffffff"
         stroke="#000000"
         stroke-width="0.001cm"
         stroke-linecap="round"
         stroke-linejoin="round"
         id="path10"
         style="fill:none;stroke:#00ffc8;stroke-width:0.02;stroke-dasharray:none;stroke-opacity:1" /><path
         d="m -2.035683,8.8590371 a 0.16,0.16 0 1 1 0.32,0 0.16,0.16 0 1 1 -0.32,0 z"
         transform="matrix(1,0,0,-1,9.7383354,10.278541)"
         fill="#ffffff"
         stroke="#000000"
         stroke-width="0.001cm"
         stroke-linecap="round"
         stroke-linejoin="round"
         id="path11"
         style="fill:none;stroke:#00ffc8;stroke-width:0.02;stroke-dasharray:none;stroke-opacity:1" /><path
         d="m -8.4107841,4.1675373 a 0.16,0.16 0 1 1 0.32,0 0.16,0.16 0 1 1 -0.32,0 z"
         transform="matrix(1,0,0,-1,9.7383354,10.278541)"
         fill="#ffffff"
         stroke="#000000"
         stroke-width="0.001cm"
         stroke-linecap="round"
         stroke-linejoin="round"
         id="path12"
         style="fill:none;stroke:#00ffc8;stroke-width:0.02;stroke-dasharray:none;stroke-opacity:1" /><path
         d="m 3.1979159,7.5012873 a 0.16,0.16 0 1 1 0.32,0 0.16,0.16 0 1 1 -0.32,0 z"
         transform="matrix(1,0,0,-1,9.7383354,10.278541)"
         fill="#ffffff"
         stroke="#000000"
         stroke-width="0.001cm"
         stroke-linecap="round"
         stroke-linejoin="round"
         id="path13"
         style="fill:none;stroke:#00ffc8;stroke-width:0.02;stroke-dasharray:none;stroke-opacity:1" /></g><g
       id="g2"
       transform="matrix(0,10,-10,0,177.90803,72.29876)"
       style="fill:none;stroke:#ff0002;stroke-width:0.02;stroke-dasharray:none;stroke-opacity:1"><path
         d="M 7.62,7.2275 A 0.075,0.075 0 0 1 7.545,7.3025 H -7.545 A 0.075,0.075 90 0 1 -7.62,7.2275 v -14.455 a 0.075,0.075 -180 0 1 0.075,-0.075 h 15.09 a 0.075,0.075 -90 0 1 0.075,0.075 z"
         transform="matrix(1,0,0,-1,7.62,7.3025)"
         fill="#000000"
         stroke-linecap="round"
         stroke-linejoin="round"
         id="path1-1"
         style="fill:none;stroke:#ff0002;stroke-width:0.02;stroke-dasharray:none;stroke-opacity:1" /><path
         d="m -2.5507805,-5.827131 a 0.16,0.16 0 1 1 0.32,0 0.16,0.16 0 1 1 -0.32,0 z"
         transform="matrix(1,0,0,-1,7.62,7.3025)"
         fill="#ffffff"
         stroke="#000000"
         stroke-width="0.001cm"
         stroke-linecap="round"
         stroke-linejoin="round"
         id="path2-6"
         style="fill:none;stroke:#ff0002;stroke-width:0.02;stroke-dasharray:none;stroke-opacity:1" /><path
         d="m -4.5050002,3.6110728 a 0.475,0.475 0 1 1 0.95,0 0.475,0.475 0 1 1 -0.95,0 z"
         transform="matrix(1,0,0,-1,7.62,7.3025)"
         fill="#ffffff"
         stroke="#000000"
         stroke-width="0.001cm"
         stroke-linecap="round"
         stroke-linejoin="round"
         id="path3-5"
         style="fill:none;stroke:#ff0002;stroke-width:0.02;stroke-dasharray:none;stroke-opacity:1" /><path
         d="m 3.65,-5.87375 a 0.16,0.16 0 1 1 0.32,0 0.16,0.16 0 1 1 -0.32,0 z"
         transform="matrix(1,0,0,-1,7.62,7.3025)"
         fill="#ffffff"
         stroke="#000000"
         stroke-width="0.001cm"
         stroke-linecap="round"
         stroke-linejoin="round"
         id="path4-2"
         style="fill:none;stroke:#ff0002;stroke-width:0.02;stroke-dasharray:none;stroke-opacity:1" /><path
         d="m 4.8968326,-4.2475013 a 0.475,0.475 0 1 1 0.95,0 0.475,0.475 0 1 1 -0.95,0 z"
         transform="matrix(1,0,0,-1,7.62,7.3025)"
         fill="#ffffff"
         stroke="#000000"
         stroke-width="0.001cm"
         stroke-linecap="round"
         stroke-linejoin="round"
         id="path5-3"
         style="fill:none;stroke:#ff0002;stroke-width:0.02;stroke-dasharray:none;stroke-opacity:1" /><path
         d="m -6.2802498,0.6401511 a 0.16,0.16 0 1 1 0.32,0 0.16,0.16 0 1 1 -0.32,0 z"
         transform="matrix(1,0,0,-1,7.62,7.3025)"
         fill="#ffffff"
         stroke="#000000"
         stroke-width="0.001cm"
         stroke-linecap="round"
         stroke-linejoin="round"
         id="path6-7"
         style="fill:none;stroke:#ff0002;stroke-width:0.02;stroke-dasharray:none;stroke-opacity:1" /><path
         d="m -1.58875,-5.73495 a 0.16,0.16 0 1 1 0.32,0 0.16,0.16 0 1 1 -0.32,0 z"
         transform="matrix(1,0,0,-1,7.62,7.3025)"
         fill="#ffffff"
         stroke="#000000"
         stroke-width="0.001cm"
         stroke-linecap="round"
         stroke-linejoin="round"
         id="path7-7"
         style="fill:none;stroke:#ff0002;stroke-width:0.02;stroke-dasharray:none;stroke-opacity:1" /><path
         d="m 4.8968326,4.2472642 a 0.475,0.475 0 1 1 0.95,0 0.475,0.475 0 1 1 -0.95,0 z"
         transform="matrix(1,0,0,-1,7.62,7.3025)"
         fill="#ffffff"
         stroke="#000000"
         stroke-width="0.001cm"
         stroke-linecap="round"
         stroke-linejoin="round"
         id="path8-2"
         style="fill:none;stroke:#ff0002;stroke-width:0.02;stroke-dasharray:none;stroke-opacity:1" /><path
         d="m -1.084448,-0.4498778 a 0.595,0.595 0 1 1 1.19,0 0.595,0.595 0 1 1 -1.19,0 z"
         transform="matrix(1,0,0,-1,7.62,7.3025)"
         fill="#ffffff"
         stroke="#000000"
         stroke-width="0.001cm"
         stroke-linecap="round"
         stroke-linejoin="round"
         id="path9-2"
         style="fill:none;stroke:#ff0002;stroke-width:0.02;stroke-dasharray:none;stroke-opacity:1" /><path
         d="m 4.8968326,0.0127387 a 0.475,0.475 0 1 1 0.95,0 0.475,0.475 0 1 1 -0.95,0 z"
         transform="matrix(1,0,0,-1,7.62,7.3025)"
         fill="#ffffff"
         stroke="#000000"
         stroke-width="0.001cm"
         stroke-linecap="round"
         stroke-linejoin="round"
         id="path10-9"
         style="fill:none;stroke:#ff0002;stroke-width:0.02;stroke-dasharray:none;stroke-opacity:1" /><path
         d="m -6.8867404,-1.3954889 a 0.16,0.16 0 1 1 0.32,0 0.16,0.16 0 1 1 -0.32,0 z"
         transform="matrix(1,0,0,-1,7.62,7.3025)"
         fill="#ffffff"
         stroke="#000000"
         stroke-width="0.001cm"
         stroke-linecap="round"
         stroke-linejoin="round"
         id="path11-6"
         style="fill:none;stroke:#ff0002;stroke-width:0.02;stroke-dasharray:none;stroke-opacity:1" /><path
         d="m -4.9225,5.87375 a 0.16,0.16 0 1 1 0.32,0 0.16,0.16 0 1 1 -0.32,0 z"
         transform="matrix(1,0,0,-1,7.62,7.3025)"
         fill="#ffffff"
         stroke="#000000"
         stroke-width="0.001cm"
         stroke-linecap="round"
         stroke-linejoin="round"
         id="path12-3"
         style="fill:none;stroke:#ff0002;stroke-width:0.02;stroke-dasharray:none;stroke-opacity:1" /><path
         d="m -6.51525,-6.82625 a 0.324,0.324 0 1 1 0.648,0 0.324,0.324 0 1 1 -0.648,0 z"
         transform="matrix(1,0,0,-1,7.62,7.3025)"
         fill="#ffffff"
         stroke="#000000"
         stroke-width="0.001cm"
         stroke-linecap="round"
         stroke-linejoin="round"
         id="path13-5"
         style="fill:none;stroke:#ff0002;stroke-width:0.02;stroke-dasharray:none;stroke-opacity:1" /><path
         d="m 5.86725,-6.82625 a 0.324,0.324 0 1 1 0.648,0 0.324,0.324 0 1 1 -0.648,0 z"
         transform="matrix(1,0,0,-1,7.62,7.3025)"
         fill="#ffffff"
         stroke="#000000"
         stroke-width="0.001cm"
         stroke-linecap="round"
         stroke-linejoin="round"
         id="path14"
         style="fill:none;stroke:#ff0002;stroke-width:0.02;stroke-dasharray:none;stroke-opacity:1" /><path
         d="m 5.86725,6.82625 a 0.324,0.324 0 1 1 0.648,0 0.324,0.324 0 1 1 -0.648,0 z"
         transform="matrix(1,0,0,-1,7.62,7.3025)"
         fill="#ffffff"
         stroke="#000000"
         stroke-width="0.001cm"
         stroke-linecap="round"
         stroke-linejoin="round"
         id="path15"
         style="fill:none;stroke:#ff0002;stroke-width:0.02;stroke-dasharray:none;stroke-opacity:1" /><path
         d="m -6.51525,6.82625 a 0.324,0.324 0 1 1 0.648,0 0.324,0.324 0 1 1 -0.648,0 z"
         transform="matrix(1,0,0,-1,7.62,7.3025)"
         fill="#ffffff"
         stroke="#000000"
         stroke-width="0.001cm"
         stroke-linecap="round"
         stroke-linejoin="round"
         id="path16"
         style="fill:none;stroke:#ff0002;stroke-width:0.02;stroke-dasharray:none;stroke-opacity:1" /><path
         d="m 2.5625426,2.9698084 h -1.185 a 0.05,0.05 -90 0 0 -0.05,0.05 v 2.455 a 0.05,0.05 -180 0 0 0.05,0.05 h 1.185 a 0.05,0.05 90 0 0 0.05,-0.05 v -2.455 a 0.05,0.05 0 0 0 -0.05,-0.05 z"
         transform="matrix(1,0,0,-1,7.62,7.3025)"
         fill="#ffffff"
         stroke="#000000"
         stroke-width="0.001cm"
         stroke-linecap="round"
         stroke-linejoin="round"
         id="path17"
         style="fill:none;stroke:#ff0002;stroke-width:0.02;stroke-dasharray:none;stroke-opacity:1" /><path
         d="m 2.5625426,-5.5249916 h -1.185 a 0.05,0.05 -90 0 0 -0.05,0.05 v 2.455 a 0.05,0.05 -180 0 0 0.05,0.05 h 1.185 a 0.05,0.05 90 0 0 0.05,-0.05 v -2.455 a 0.05,0.05 0 0 0 -0.05,-0.05 z"
         transform="matrix(1,0,0,-1,7.62,7.3025)"
         fill="#ffffff"
         stroke="#000000"
         stroke-width="0.001cm"
         stroke-linecap="round"
         stroke-linejoin="round"
         id="path18"
         style="fill:none;stroke:#ff0002;stroke-width:0.02;stroke-dasharray:none;stroke-opacity:1" /><path
         d="m 2.5625426,-1.2775916 h -1.185 a 0.05,0.05 -90 0 0 -0.05,0.05 v 2.455 a 0.05,0.05 -180 0 0 0.05,0.05 h 1.185 a 0.05,0.05 90 0 0 0.05,-0.05 v -2.455 a 0.05,0.05 0 0 0 -0.05,-0.05 z"
         transform="matrix(1,0,0,-1,7.62,7.3025)"
         fill="#ffffff"
         stroke="#000000"
         stroke-width="0.001cm"
         stroke-linecap="round"
         stroke-linejoin="round"
         id="path19"
         style="fill:none;stroke:#ff0002;stroke-width:0.02;stroke-dasharray:none;stroke-opacity:1" /><path
         d="m -7.3089157,-3.6114618 a 2.75,2.75 0 1 1 5.5,0 2.75,2.75 0 1 1 -5.5,0 z"
         transform="matrix(1,0,0,-1,7.62,7.3025)"
         fill="#ffffff"
         stroke="#000000"
         stroke-width="0.001cm"
         stroke-linecap="round"
         stroke-linejoin="round"
         id="path20"
         style="fill:none;stroke:#ff0002;stroke-width:0.02;stroke-dasharray:none;stroke-opacity:1" /></g></g></svg>
