<?xml version="1.0" encoding="UTF-8" standalone="no"?>
<!-- Generator: Fusion 360, Shaper Origin Export Add-In, Version 1.6.10  -->

<svg
   shaper:fusionaddin="version:1.6.10"
   width="14.605cm"
   height="5.715cm"
   version="1.1"
   x="0cm"
   y="0cm"
   viewBox="0 0 14.605 5.715"
   enable-background="new 0 0 14.605 5.715"
   xml:space="preserve"
   id="svg4512"
   sodipodi:docname="OH_12_Marek.svg"
   inkscape:version="1.2.1 (9c6d41e410, 2022-07-14)"
   xmlns:inkscape="http://www.inkscape.org/namespaces/inkscape"
   xmlns:sodipodi="http://sodipodi.sourceforge.net/DTD/sodipodi-0.dtd"
   xmlns="http://www.w3.org/2000/svg"
   xmlns:svg="http://www.w3.org/2000/svg"
   xmlns:shaper="http://www.shapertools.com/namespaces/shaper"><defs
     id="defs4516"><rect
       x="137.20269"
       y="-87.369638"
       width="481.5038"
       height="70.542894"
       id="rect29521" /><rect
       x="137.20268"
       y="-87.369637"
       width="481.50381"
       height="70.542892"
       id="rect29521-4" /><rect
       x="137.20268"
       y="-87.369637"
       width="481.50381"
       height="70.542892"
       id="rect29521-4-1" /><rect
       x="137.20268"
       y="-87.369637"
       width="481.50381"
       height="70.542892"
       id="rect29521-4-4" /><rect
       x="137.20268"
       y="-87.369637"
       width="481.50381"
       height="70.542892"
       id="rect29521-4-4-9" /></defs><sodipodi:namedview
     id="namedview4514"
     pagecolor="#505050"
     bordercolor="#ffffff"
     borderopacity="1"
     inkscape:showpageshadow="0"
     inkscape:pageopacity="0"
     inkscape:pagecheckerboard="1"
     inkscape:deskcolor="#505050"
     inkscape:document-units="cm"
     showgrid="false"
     inkscape:zoom="1.5451592"
     inkscape:cx="93.194281"
     inkscape:cy="176.68082"
     inkscape:current-layer="layer5"
     showguides="true"><sodipodi:guide
       position="7.3025,3.0781878"
       orientation="1,0"
       id="guide29515"
       inkscape:locked="false" /><sodipodi:guide
       position="7.3025,5.6332708"
       orientation="0,-1"
       id="guide29517"
       inkscape:locked="false" /><sodipodi:guide
       position="2.98,2.8575001"
       orientation="1,0"
       id="guide29558"
       inkscape:locked="false" /><sodipodi:guide
       position="9.4766042,2.0021439"
       orientation="1,0"
       id="guide29626"
       inkscape:locked="false" /><sodipodi:guide
       position="5.0066792,0.16679556"
       orientation="0,-1"
       id="guide29628"
       inkscape:locked="false" /><sodipodi:guide
       position="11.625,2.8575001"
       orientation="1,0"
       id="guide29663"
       inkscape:locked="false" /><sodipodi:guide
       position="4.4877305,0.58643834"
       orientation="0,-1"
       id="guide29665"
       inkscape:locked="false" /></sodipodi:namedview><path
     d="M7.3025,-3.9715938 L7.3025,1.5934062 A0.075,0.075 0 0,1 7.2275,1.6684062 L-7.2275,1.6684062 A0.075,0.075 90 0,1 -7.3025,1.5934062 L-7.3025,-3.9715938 A0.075,0.075 180 0,1 -7.2275,-4.0465938 L7.2275,-4.0465938 A0.075,0.075 270 0,1 7.3025,-3.9715938z"
     transform="matrix(1,0,0,-1,7.3025,1.6684062)"
     fill="rgb(0,0,0)"
     stroke-linecap="round"
     stroke-linejoin="round"
     id="path4488"
     style="stroke-width:0.038;stroke-dasharray:none;fill:none;stroke:#000000;stroke-opacity:1" /><path
     d="M5.55495,0.2396562 a0.16,0.16 0 1,1 0.32,0 a0.16,0.16 0 1,1 -0.32,0z"
     transform="matrix(1,0,0,-1,7.3025,1.6684062)"
     fill="rgb(255,255,255)"
     stroke="rgb(0,0,0)"
     stroke-width="0.0010cm"
     stroke-linecap="round"
     stroke-linejoin="round"
     id="path4490"
     style="stroke-width:0.038;stroke-dasharray:none;fill:none;stroke:#000000;stroke-opacity:1" /><path
     d="M-5.87495,-2.6178438 a0.16,0.16 0 1,1 0.32,0 a0.16,0.16 0 1,1 -0.32,0z"
     transform="matrix(1,0,0,-1,7.3025,1.6684062)"
     fill="rgb(255,255,255)"
     stroke="rgb(0,0,0)"
     stroke-width="0.0010cm"
     stroke-linecap="round"
     stroke-linejoin="round"
     id="path4492"
     style="stroke-width:0.038;stroke-dasharray:none;fill:none;stroke:#000000;stroke-opacity:1" /><path
     d="M-0.7,-0.9684062 a0.7,0.7 0 1,1 1.4,0 a0.7,0.7 0 1,1 -1.4,0z"
     transform="matrix(1,0,0,-1,7.3025,1.6684062)"
     fill="rgb(255,255,255)"
     stroke="rgb(0,0,0)"
     stroke-width="0.0010cm"
     stroke-linecap="round"
     stroke-linejoin="round"
     id="path4494"
     style="stroke-width:0.038;stroke-dasharray:none;fill:none;stroke:#000000;stroke-opacity:1" /><path
     d="M-4.9975,-1.1890938 a0.675,0.675 0 1,1 1.35,0 a0.675,0.675 0 1,1 -1.35,0z"
     transform="matrix(1,0,0,-1,7.3025,1.6684062)"
     fill="rgb(255,255,255)"
     stroke="rgb(0,0,0)"
     stroke-width="0.0010cm"
     stroke-linecap="round"
     stroke-linejoin="round"
     id="path4496"
     style="stroke-width:0.038;stroke-dasharray:none;fill:none;stroke:#000000;stroke-opacity:1" /><path
     d="M3.6475,-1.1890938 a0.675,0.675 0 1,1 1.35,0 a0.675,0.675 0 1,1 -1.35,0z"
     transform="matrix(1,0,0,-1,7.3025,1.6684062)"
     fill="rgb(255,255,255)"
     stroke="rgb(0,0,0)"
     stroke-width="0.0010cm"
     stroke-linecap="round"
     stroke-linejoin="round"
     id="path4498"
     style="stroke-width:0.038;stroke-dasharray:none;fill:none;stroke:#000000;stroke-opacity:1" /><path
     d="M-2.67777,-1.21973 a0.26,0.26 0 1,1 0.52,0 a0.26,0.26 0 1,1 -0.52,0z"
     transform="matrix(1,0,0,-1,7.3025,1.6684062)"
     fill="rgb(255,255,255)"
     stroke="rgb(0,0,0)"
     stroke-width="0.0010cm"
     stroke-linecap="round"
     stroke-linejoin="round"
     id="path4500"
     style="stroke-width:0.038;stroke-dasharray:none;fill:none;stroke:#000000;stroke-opacity:1" /><path
     d="M1.6241042,-2.0444501 a0.55,0.55 0 1,1 1.1,0 a0.55,0.55 0 1,1 -1.1,0z"
     transform="matrix(1,0,0,-1,7.3025,1.6684062)"
     fill="rgb(255,255,255)"
     stroke="rgb(0,0,0)"
     stroke-width="0.0010cm"
     stroke-linecap="round"
     stroke-linejoin="round"
     id="path4502"
     style="stroke-width:0.038;stroke-dasharray:none;fill:none;stroke:#000000;stroke-opacity:1" /><path
     d="M-7.15025,-2.6178438 a0.324,0.324 0 1,1 0.648,0 a0.324,0.324 0 1,1 -0.648,0z"
     transform="matrix(1,0,0,-1,7.3025,1.6684062)"
     fill="rgb(255,255,255)"
     stroke="rgb(0,0,0)"
     stroke-width="0.0010cm"
     stroke-linecap="round"
     stroke-linejoin="round"
     id="path4504"
     style="stroke-width:0.038;stroke-dasharray:none;fill:none;stroke:#000000;stroke-opacity:1" /><path
     d="M6.50225,-2.6178438 a0.324,0.324 0 1,1 0.648,0 a0.324,0.324 0 1,1 -0.648,0z"
     transform="matrix(1,0,0,-1,7.3025,1.6684062)"
     fill="rgb(255,255,255)"
     stroke="rgb(0,0,0)"
     stroke-width="0.0010cm"
     stroke-linecap="round"
     stroke-linejoin="round"
     id="path4506"
     style="stroke-width:0.038;stroke-dasharray:none;fill:none;stroke:#000000;stroke-opacity:1" /><path
     d="M-7.15025,0.2396562 a0.324,0.324 0 1,1 0.648,0 a0.324,0.324 0 1,1 -0.648,0z"
     transform="matrix(1,0,0,-1,7.3025,1.6684062)"
     fill="rgb(255,255,255)"
     stroke="rgb(0,0,0)"
     stroke-width="0.0010cm"
     stroke-linecap="round"
     stroke-linejoin="round"
     id="path4508"
     style="stroke-width:0.038;stroke-dasharray:none;fill:none;stroke:#000000;stroke-opacity:1" /><path
     d="M6.50225,0.2396562 a0.324,0.324 0 1,1 0.648,0 a0.324,0.324 0 1,1 -0.648,0z"
     transform="matrix(1,0,0,-1,7.3025,1.6684062)"
     fill="rgb(255,255,255)"
     stroke="rgb(0,0,0)"
     stroke-width="0.0010cm"
     stroke-linecap="round"
     stroke-linejoin="round"
     id="path4510"
     style="stroke-width:0.038;stroke-dasharray:none;fill:none;stroke:#000000;stroke-opacity:1" /><g
     inkscape:groupmode="layer"
     id="layer5"
     inkscape:label="txt"><text
       xml:space="preserve"
       transform="matrix(0.02645833,0,0,0.02645833,-2.7133558,2.3178887)"
       id="text29519"
       style="font-size:18.6667px;font-family:'Futura Md BT';-inkscape-font-specification:'Futura Md BT, Normal';text-align:center;writing-mode:lr-tb;text-orientation:upright;white-space:pre;shape-inside:url(#rect29521);fill:#ffffff;stroke-width:1.13386"><tspan
         x="257.18207"
         y="-70.853486"
         id="tspan29705">COCKPIT VOICE RECORDER</tspan></text><text
       xml:space="preserve"
       transform="matrix(0.02645833,0,0,0.02645833,-6.0272,7.4228695)"
       id="text29519-2"
       style="font-size:18.6667px;font-family:'Futura Md BT';-inkscape-font-specification:'Futura Md BT, Normal';text-align:center;letter-spacing:0px;writing-mode:lr-tb;text-orientation:upright;white-space:pre;shape-inside:url(#rect29521-4);fill:#ffffff;stroke-width:1.13386"><tspan
         x="323.5318"
         y="-70.853486"
         id="tspan29707">HOLD 5 SEC</tspan></text><text
       xml:space="preserve"
       transform="matrix(0.02645833,0,0,0.02645833,-0.54202505,7.4134644)"
       id="text29519-2-0"
       style="font-size:18.6667px;font-family:'Futura Md BT';-inkscape-font-specification:'Futura Md BT, Normal';text-align:center;letter-spacing:0px;writing-mode:lr-tb;text-orientation:upright;white-space:pre;shape-inside:url(#rect29521-4-4);fill:#ffffff;stroke-width:1.13386"><tspan
         x="338.0787"
         y="-70.853486"
         id="tspan29709">HEADSET</tspan></text><text
       xml:space="preserve"
       transform="matrix(0.02645833,0,0,0.02645833,1.6173434,6.9938216)"
       id="text29519-2-0-1"
       style="font-size:18.6667px;font-family:'Futura Md BT';-inkscape-font-specification:'Futura Md BT, Normal';text-align:center;letter-spacing:0px;writing-mode:lr-tb;text-orientation:upright;white-space:pre;shape-inside:url(#rect29521-4-4-9);fill:#ffffff;stroke-width:1.13386"><tspan
         x="351.49084"
         y="-70.853486"
         id="tspan29711">ERASE</tspan></text><text
       xml:space="preserve"
       transform="matrix(0.02645833,0,0,0.02645833,-6.0272,6.9938216)"
       id="text29519-2-7"
       style="font-size:18.6667px;font-family:'Futura Md BT';-inkscape-font-specification:'Futura Md BT, Normal';text-align:center;letter-spacing:0px;writing-mode:lr-tb;text-orientation:upright;white-space:pre;shape-inside:url(#rect29521-4-1);fill:#ffffff;stroke-width:1.13386"><tspan
         x="358.3678"
         y="-70.853486"
         id="tspan29713">TEST</tspan></text></g></svg>
