<?xml version="1.0" encoding="UTF-8" standalone="no"?>
<!-- Created with Inkscape (http://www.inkscape.org/) -->

<svg
   width="210mm"
   height="297mm"
   viewBox="0 0 210 297"
   version="1.1"
   id="svg11552"
   xml:space="preserve"
   inkscape:version="1.3 (0e150ed6c4, 2023-07-21)"
   sodipodi:docname="OH_09_V2.svg"
   inkscape:export-filename=".\OH-09.pdf"
   inkscape:export-xdpi="96"
   inkscape:export-ydpi="96"
   xmlns:inkscape="http://www.inkscape.org/namespaces/inkscape"
   xmlns:sodipodi="http://sodipodi.sourceforge.net/DTD/sodipodi-0.dtd"
   xmlns="http://www.w3.org/2000/svg"
   xmlns:svg="http://www.w3.org/2000/svg"><sodipodi:namedview
     id="namedview11554"
     pagecolor="#505050"
     bordercolor="#ffffff"
     borderopacity="1"
     inkscape:showpageshadow="0"
     inkscape:pageopacity="0"
     inkscape:pagecheckerboard="1"
     inkscape:deskcolor="#505050"
     inkscape:document-units="mm"
     showgrid="false"
     inkscape:zoom="1.4142136"
     inkscape:cx="108.18734"
     inkscape:cy="558.96792"
     inkscape:current-layer="layer1"
     showguides="true"><sodipodi:guide
       position="103.26954,199.76817"
       orientation="1,0"
       id="guide16430"
       inkscape:locked="false" /><sodipodi:guide
       position="40.563541,137.43998"
       orientation="1,0"
       id="guide16432"
       inkscape:locked="false" /><sodipodi:guide
       position="59.866711,135.12441"
       orientation="0,-1"
       id="guide16434"
       inkscape:locked="false" /><sodipodi:guide
       position="72.598042,135.12441"
       orientation="1,0"
       id="guide16436"
       inkscape:locked="false" /><sodipodi:guide
       position="134.51158,135.12441"
       orientation="1,0"
       id="guide19380"
       inkscape:locked="false" /><sodipodi:guide
       position="91.490515,154.41878"
       orientation="0,-1"
       id="guide19382"
       inkscape:locked="false" /><sodipodi:guide
       position="134.51158,146.85083"
       orientation="0,-1"
       id="guide20198"
       inkscape:locked="false" /><sodipodi:guide
       position="134.64067,127.67441"
       orientation="0,-1"
       id="guide21273"
       inkscape:locked="false" /><sodipodi:guide
       position="121.67254,127.85566"
       orientation="1,0"
       id="guide23695"
       inkscape:locked="false" /><sodipodi:guide
       position="146.67254,127.77441"
       orientation="1,0"
       id="guide23732"
       inkscape:locked="false" /><sodipodi:guide
       position="122.07761,116.82497"
       orientation="0,-1"
       id="guide23734"
       inkscape:locked="false" /></sodipodi:namedview><defs
     id="defs11549"><rect
       x="173.21901"
       y="535.15971"
       width="201.20636"
       height="40.472015"
       id="rect16372" /><rect
       x="173.21901"
       y="535.15973"
       width="201.20636"
       height="40.472015"
       id="rect16372-7" /><rect
       x="173.21901"
       y="535.15973"
       width="201.20636"
       height="40.472015"
       id="rect16372-0" /><rect
       x="173.21901"
       y="535.15973"
       width="201.20636"
       height="40.472015"
       id="rect16372-7-3" /><rect
       x="173.21901"
       y="535.15973"
       width="201.20636"
       height="40.472015"
       id="rect16372-7-3-6" /><rect
       x="173.21901"
       y="535.15973"
       width="201.20636"
       height="40.472015"
       id="rect16372-7-3-68" /><rect
       x="173.21901"
       y="535.15973"
       width="201.20636"
       height="40.472015"
       id="rect16372-7-3-9" /><rect
       x="173.21901"
       y="535.15973"
       width="201.20636"
       height="40.472015"
       id="rect16372-7-3-9-9" /><rect
       x="173.21901"
       y="535.15973"
       width="201.20636"
       height="40.472015"
       id="rect16372-7-3-6-7" /><rect
       x="173.21901"
       y="535.15973"
       width="201.20636"
       height="40.472015"
       id="rect16372-7-3-6-8" /><rect
       x="173.21901"
       y="535.15973"
       width="201.20636"
       height="40.472015"
       id="rect16372-7-3-6-8-6" /></defs><g
     inkscape:label="Layer 1"
     inkscape:groupmode="layer"
     id="layer1"
     style="display:inline"><g
       id="g1"
       transform="matrix(10,0,0,10,30.244542,97.23184)"
       style="display:inline;fill:none;stroke:#ff0023;stroke-width:0.05;stroke-dasharray:none;stroke-opacity:1"><path
         d="m 7.2275,-4.28625 a 0.075,0.075 -90 0 1 0.075,0.075 v 8.4225 a 0.075,0.075 0 0 1 -0.075,0.075 h -14.455 a 0.075,0.075 90 0 1 -0.075,-0.075 v -8.4225 a 0.075,0.075 -180 0 1 0.075,-0.075 z"
         transform="matrix(1,0,0,-1,7.3025,4.28625)"
         fill="#000000"
         stroke-linecap="round"
         stroke-linejoin="round"
         id="path1"
         style="fill:none;stroke:#ff0023;stroke-width:0.05;stroke-dasharray:none;stroke-opacity:1" /><path
         d="m -0.1875089,2.1862525 a 0.19,0.19 0 1 1 0.38,0 0.19,0.19 0 1 1 -0.38,0 z"
         transform="matrix(1,0,0,-1,7.3025,4.28625)"
         fill="#ffffff"
         stroke="#000000"
         stroke-width="0.001cm"
         stroke-linecap="round"
         stroke-linejoin="round"
         id="path2"
         style="fill:none;stroke:#ff0023;stroke-width:0.05;stroke-dasharray:none;stroke-opacity:1" /><path
         d="m 5.3124911,-3.1362519 a 0.19,0.19 0 1 1 0.38,0 0.19,0.19 0 1 1 -0.38,0 z"
         transform="matrix(1,0,0,-1,7.3025,4.28625)"
         fill="#ffffff"
         stroke="#000000"
         stroke-width="0.001cm"
         stroke-linecap="round"
         stroke-linejoin="round"
         id="path3"
         style="fill:none;stroke:#ff0023;stroke-width:0.05;stroke-dasharray:none;stroke-opacity:1" /><path
         d="m -5.3924873,2.1862525 a 0.19,0.19 0 1 1 0.38,0 0.19,0.19 0 1 1 -0.38,0 z"
         transform="matrix(1,0,0,-1,7.3025,4.28625)"
         fill="#ffffff"
         stroke="#000000"
         stroke-width="0.001cm"
         stroke-linecap="round"
         stroke-linejoin="round"
         id="path4"
         style="fill:none;stroke:#ff0023;stroke-width:0.05;stroke-dasharray:none;stroke-opacity:1" /><path
         d="m -5.3935541,-3.1374457 a 0.19,0.19 0 1 1 0.38,0 0.19,0.19 0 1 1 -0.38,0 z"
         transform="matrix(1,0,0,-1,7.3025,4.28625)"
         fill="#ffffff"
         stroke="#000000"
         stroke-width="0.001cm"
         stroke-linecap="round"
         stroke-linejoin="round"
         id="path5"
         style="fill:none;stroke:#ff0023;stroke-width:0.05;stroke-dasharray:none;stroke-opacity:1" /><path
         d="m -3.6801391,-1.7678496 a 0.595,0.595 0 1 1 1.19,0 0.595,0.595 0 1 1 -1.19,0 z"
         transform="matrix(1,0,0,-1,7.3025,4.28625)"
         fill="#ffffff"
         stroke="#000000"
         stroke-width="0.001cm"
         stroke-linecap="round"
         stroke-linejoin="round"
         id="path6"
         style="fill:none;stroke:#ff0023;stroke-width:0.05;stroke-dasharray:none;stroke-opacity:1" /><path
         d="M 0.579972,0.1800371 V 2.610037 a 0.05,0.05 -180 0 0 0.05,0.05 h 4.97 a 0.05,0.05 90 0 0 0.05,-0.05 V 0.1800371 a 0.05,0.05 0 0 0 -0.05,-0.05 h -4.97 a 0.05,0.05 -90 0 0 -0.05,0.05 z"
         transform="matrix(1,0,0,-1,7.3025,4.28625)"
         fill="#ffffff"
         stroke="#000000"
         stroke-width="0.001cm"
         stroke-linecap="round"
         stroke-linejoin="round"
         id="path7"
         style="fill:none;stroke:#ff0023;stroke-width:0.05;stroke-dasharray:none;stroke-opacity:1" /><path
         d="m -5.575328,1.4150371 h 4.97 a 0.05,0.05 90 0 0 0.05,-0.05 v -1.185 a 0.05,0.05 0 0 0 -0.05,-0.05 h -4.97 a 0.05,0.05 -90 0 0 -0.05,0.05 v 1.185 a 0.05,0.05 -180 0 0 0.05,0.05 z"
         transform="matrix(1,0,0,-1,7.3025,4.28625)"
         fill="#ffffff"
         stroke="#000000"
         stroke-width="0.001cm"
         stroke-linecap="round"
         stroke-linejoin="round"
         id="path8"
         style="fill:none;stroke:#ff0023;stroke-width:0.05;stroke-dasharray:none;stroke-opacity:1" /><path
         d="m 1.2453,-2.178125 a 0.595,0.595 0 1 1 1.19,0 0.595,0.595 0 1 1 -1.19,0 z"
         transform="matrix(1,0,0,-1,7.3025,4.28625)"
         fill="#ffffff"
         stroke="#000000"
         stroke-width="0.001cm"
         stroke-linecap="round"
         stroke-linejoin="round"
         id="path9"
         style="fill:none;stroke:#ff0023;stroke-width:0.05;stroke-dasharray:none;stroke-opacity:1" /><path
         d="m 3.7453,-2.178125 a 0.595,0.595 0 1 1 1.19,0 0.595,0.595 0 1 1 -1.19,0 z"
         transform="matrix(1,0,0,-1,7.3025,4.28625)"
         fill="#ffffff"
         stroke="#000000"
         stroke-width="0.001cm"
         stroke-linecap="round"
         stroke-linejoin="round"
         id="path10"
         style="fill:none;stroke:#ff0023;stroke-width:0.05;stroke-dasharray:none;stroke-opacity:1" /><path
         d="m 6.50225,-2.8575 a 0.324,0.324 0 1 1 0.648,0 0.324,0.324 0 1 1 -0.648,0 z"
         transform="matrix(1,0,0,-1,7.3025,4.28625)"
         fill="#ffffff"
         stroke="#000000"
         stroke-width="0.001cm"
         stroke-linecap="round"
         stroke-linejoin="round"
         id="path11"
         style="fill:none;stroke:#ff0023;stroke-width:0.05;stroke-dasharray:none;stroke-opacity:1" /><path
         d="m -7.15025,-2.8575 a 0.324,0.324 0 1 1 0.648,0 0.324,0.324 0 1 1 -0.648,0 z"
         transform="matrix(1,0,0,-1,7.3025,4.28625)"
         fill="#ffffff"
         stroke="#000000"
         stroke-width="0.001cm"
         stroke-linecap="round"
         stroke-linejoin="round"
         id="path12"
         style="fill:none;stroke:#ff0023;stroke-width:0.05;stroke-dasharray:none;stroke-opacity:1" /><path
         d="m -7.15025,2.8575 a 0.324,0.324 0 1 1 0.648,0 0.324,0.324 0 1 1 -0.648,0 z"
         transform="matrix(1,0,0,-1,7.3025,4.28625)"
         fill="#ffffff"
         stroke="#000000"
         stroke-width="0.001cm"
         stroke-linecap="round"
         stroke-linejoin="round"
         id="path13"
         style="fill:none;stroke:#ff0023;stroke-width:0.05;stroke-dasharray:none;stroke-opacity:1" /><path
         d="m 6.50225,2.8575 a 0.324,0.324 0 1 1 0.648,0 0.324,0.324 0 1 1 -0.648,0 z"
         transform="matrix(1,0,0,-1,7.3025,4.28625)"
         fill="#ffffff"
         stroke="#000000"
         stroke-width="0.001cm"
         stroke-linecap="round"
         stroke-linejoin="round"
         id="path14"
         style="fill:none;stroke:#ff0023;stroke-width:0.05;stroke-dasharray:none;stroke-opacity:1" /></g><g
       id="g2"
       transform="matrix(10,0,0,10,40.563542,141.59434)"
       style="display:inline;fill:none;stroke:#ff9700;stroke-width:0.05;stroke-dasharray:none;stroke-opacity:1"><path
         d="m 6.2706,-1.869325 v 3.73865 a 0.1588,0.1588 0 0 1 -0.1588,0.1588 H -6.1118 a 0.1588,0.1588 90 0 1 -0.1588,-0.1588 v -3.73865 a 0.1588,0.1588 -180 0 1 0.1588,-0.1588 H 6.1118 a 0.1588,0.1588 -90 0 1 0.1588,0.1588 z"
         transform="matrix(1,0,0,-1,6.2706,2.028125)"
         fill="#000000"
         stroke-linecap="round"
         stroke-linejoin="round"
         id="path1-7"
         style="fill:none;stroke:#ff9700;stroke-width:0.05;stroke-dasharray:none;stroke-opacity:1" /><path
         d="m 5.3124911,-0.9581269 a 0.19,0.19 0 1 1 0.38,0 0.19,0.19 0 1 1 -0.38,0 z"
         transform="matrix(1,0,0,-1,6.2706,2.028125)"
         fill="#ffffff"
         stroke="#000000"
         stroke-width="0.001cm"
         stroke-linecap="round"
         stroke-linejoin="round"
         id="path2-5"
         style="fill:none;stroke:#ff9700;stroke-width:0.05;stroke-dasharray:none;stroke-opacity:1" /><path
         d="m -5.3935541,-0.9593207 a 0.19,0.19 0 1 1 0.38,0 0.19,0.19 0 1 1 -0.38,0 z"
         transform="matrix(1,0,0,-1,6.2706,2.028125)"
         fill="#ffffff"
         stroke="#000000"
         stroke-width="0.001cm"
         stroke-linecap="round"
         stroke-linejoin="round"
         id="path3-3"
         style="fill:none;stroke:#ff9700;stroke-width:0.05;stroke-dasharray:none;stroke-opacity:1" /><path
         d="m -3.8051391,0.4102754 a 0.72,0.72 0 1 1 1.44,0 0.72,0.72 0 1 1 -1.44,0 z"
         transform="matrix(1,0,0,-1,6.2706,2.028125)"
         fill="#ffffff"
         stroke="#000000"
         stroke-width="0.001cm"
         stroke-linecap="round"
         stroke-linejoin="round"
         id="path4-2"
         style="fill:none;stroke:#ff9700;stroke-width:0.05;stroke-dasharray:none;stroke-opacity:1" /><path
         d="m 1.1203,0 a 0.72,0.72 0 1 1 1.44,0 0.72,0.72 0 1 1 -1.44,0 z"
         transform="matrix(1,0,0,-1,6.2706,2.028125)"
         fill="#ffffff"
         stroke="#000000"
         stroke-width="0.001cm"
         stroke-linecap="round"
         stroke-linejoin="round"
         id="path5-3"
         style="fill:none;stroke:#ff9700;stroke-width:0.05;stroke-dasharray:none;stroke-opacity:1" /><path
         d="m 3.6203,0 a 0.72,0.72 0 1 1 1.44,0 0.72,0.72 0 1 1 -1.44,0 z"
         transform="matrix(1,0,0,-1,6.2706,2.028125)"
         fill="#ffffff"
         stroke="#000000"
         stroke-width="0.001cm"
         stroke-linecap="round"
         stroke-linejoin="round"
         id="path6-4"
         style="fill:none;stroke:#ff9700;stroke-width:0.05;stroke-dasharray:none;stroke-opacity:1" /></g></g><path
     id="path14987"
     style="font-size:25.3333px;font-family:'Futura Md BT';-inkscape-font-specification:'Futura Md BT, Normal';text-align:center;letter-spacing:-0.31px;text-orientation:upright;white-space:pre;display:inline;fill:#ffffff;stroke:none;stroke-width:0.499999"
     d="m 131.29173,142.46262 v 4.98109 h 0.71675 v -3.33158 c 0.0676,0.096 0.14056,0.19 0.21911,0.28164 0.0655,0.0742 0.10617,0.11858 0.12144,0.13384 0.0349,0.0371 0.0751,0.0778 0.12092,0.12144 l 3.10575,2.98122 v -4.978 h -0.71985 v 3.32228 c -0.096,-0.12218 -0.18529,-0.22835 -0.2682,-0.31781 l -0.25218,-0.2651 z m 7.68377,0.0817 c -0.35128,0 -0.68603,0.0603 -1.00459,0.18035 -0.31856,0.12 -0.59675,0.29674 -0.83458,0.5302 -0.23564,0.23128 -0.41565,0.49822 -0.54002,0.8015 -0.12218,0.30329 -0.18345,0.63712 -0.18345,1.00149 0,0.35129 0.0613,0.68512 0.18345,1.00149 0.12219,0.31637 0.29657,0.59038 0.52349,0.82166 0.2291,0.23128 0.49563,0.40474 0.79891,0.52038 0.30547,0.11346 0.65751,0.17001 1.05679,0.17001 0.70257,0 1.2473,-0.18655 1.63349,-0.55965 0.38619,-0.3731 0.57929,-0.89676 0.57929,-1.57097 l -0.0103,-0.31419 -0.003,-0.13746 h -1.89808 v 0.65784 h 1.15187 v 0.0687 c 0,0.35784 -0.12764,0.64073 -0.38292,0.84801 -0.2531,0.20728 -0.6033,0.31058 -1.05059,0.31058 -0.52365,0 -0.95004,-0.16875 -1.27951,-0.50695 -0.32728,-0.33818 -0.49092,-0.77675 -0.49092,-1.31568 0,-0.53238 0.16456,-0.9644 0.49403,-1.29604 0.33165,-0.33383 0.75528,-0.50075 1.2702,-0.50075 0.25092,0 0.47766,0.0467 0.68058,0.14056 0.20509,0.0916 0.38746,0.23002 0.54674,0.41548 l 0.56947,-0.4284 c -0.23564,-0.28364 -0.5031,-0.49454 -0.80202,-0.632 -0.29674,-0.13746 -0.63292,-0.20619 -1.0082,-0.20619 z m -87.139388,0.0367 -0.962215,2.55953 -0.02274,0.062 c -0.08291,0.23564 -0.16238,0.48346 -0.238745,0.7431 l -0.108004,-0.33693 c -0.03491,-0.11127 -0.084,-0.25109 -0.147278,-0.41909 l -0.906405,-2.41846 h -0.769462 l 1.8495,4.97799 1.073319,-2.71973 c 0.03492,-0.0873 0.05548,-0.13963 0.06201,-0.1571 0.01745,-0.0546 0.03525,-0.10928 0.05271,-0.16381 l 0.111104,-0.36329 0.104903,0.32092 0.130742,0.34984 1.092956,2.73317 1.855701,-4.97799 H 54.23855 l -0.899687,2.43809 c -0.03055,0.0808 -0.05254,0.13967 -0.06563,0.17674 -0.024,0.0698 -0.05018,0.15072 -0.07855,0.24236 -0.03928,0.11782 -0.06873,0.22582 -0.08837,0.32401 l -0.121439,-0.38292 -0.133842,-0.37982 z m 5.455481,5.2e-4 v 4.98109 h 0.716753 v -3.3321 c 0.06764,0.096 0.141077,0.19 0.219624,0.28164 0.06546,0.0742 0.10565,0.11909 0.120923,0.13436 0.03491,0.0371 0.0751,0.0773 0.120923,0.12092 l 3.10627,2.98173 v -4.97799 h -0.720369 v 3.32176 c -0.096,-0.12219 -0.185289,-0.22784 -0.268201,-0.31729 l -0.252181,-0.2651 z m 14.213603,0 -2.320272,4.98109 h 0.818038 l 0.556555,-1.23403 h 1.898076 l 0.543119,1.23403 h 0.821655 z m 2.686658,0 v 4.98109 h 0.716752 v -3.3321 c 0.06764,0.096 0.140561,0.19 0.219108,0.28164 0.06546,0.0742 0.106166,0.11909 0.12144,0.13436 0.03491,0.0371 0.0751,0.0773 0.120922,0.12092 l 3.105754,2.98173 v -4.97799 h -0.719853 v 3.32176 c -0.096,-0.12219 -0.185289,-0.22784 -0.2682,-0.31729 l -0.252181,-0.2651 z m 28.327466,0 v 38.66896 h 1.50017 v -38.66896 z m 25.25789,0.0708 v 4.79144 h 2.67374 v -0.69711 h -1.89497 v -1.54771 h 1.89497 v -0.6842 h -1.89497 v -1.20096 h 1.89497 v -0.66146 z m -36.325428,0.004 c -0.355649,0 -0.688561,0.0613 -0.998388,0.18345 -0.309829,0.12001 -0.583313,0.29674 -0.821139,0.5302 -0.235643,0.23347 -0.417085,0.50603 -0.543636,0.81804 -0.124368,0.31201 -0.186552,0.64165 -0.186552,0.98857 0,0.35128 0.06218,0.68276 0.186552,0.99477 0.126551,0.30983 0.307993,0.58147 0.543636,0.81494 0.237826,0.23128 0.510392,0.4071 0.818038,0.5271 0.309827,0.11782 0.64785,0.17673 1.014408,0.17673 0.141822,0 0.280718,-0.01 0.415996,-0.0295 0.137457,-0.0196 0.266018,-0.0472 0.386023,-0.0822 0.246554,-0.0742 0.474736,-0.18638 0.684196,-0.33693 v -0.88057 c -0.237826,0.2051 -0.484727,0.35708 -0.740007,0.45527 -0.135277,0.0524 -0.268028,0.0902 -0.398942,0.11421 -0.12873,0.024 -0.265272,0.0362 -0.409277,0.0362 -0.484379,0 -0.88694,-0.16691 -1.207679,-0.50074 -0.320736,-0.33601 -0.481107,-0.76384 -0.481107,-1.28313 0,-0.53674 0.163644,-0.97203 0.490926,-1.30586 0.329466,-0.33601 0.755854,-0.50385 1.279508,-0.50385 0.137458,0 0.269809,0.0122 0.396359,0.0362 0.128731,0.024 0.254019,0.0591 0.376204,0.10491 0.246554,0.0938 0.479846,0.23404 0.700216,0.42168 l 0.04289,-0.78548 c -0.237824,-0.16801 -0.485643,-0.29094 -0.743107,-0.36949 -0.130912,-0.0437 -0.261827,-0.0755 -0.392741,-0.0951 -0.130914,-0.0196 -0.268374,-0.0294 -0.412378,-0.0294 z m -26.504842,0.007 c -0.351284,0 -0.68655,0.0598 -1.005107,0.17983 -0.318554,0.12 -0.596747,0.29673 -0.834574,0.5302 -0.235643,0.23128 -0.41565,0.49874 -0.540019,0.80202 -0.122185,0.30328 -0.182934,0.63711 -0.182934,1.00149 0,0.35128 0.06075,0.68511 0.182934,1.00149 0.122187,0.31637 0.297084,0.58986 0.523999,0.82114 0.2291,0.23128 0.495118,0.40474 0.798401,0.52038 0.305465,0.11346 0.658016,0.17053 1.0573,0.17053 0.702569,0 1.246781,-0.18655 1.632975,-0.55966 0.386195,-0.3731 0.579293,-0.89675 0.579293,-1.57096 l -0.0098,-0.31419 -0.0031,-0.13746 h -1.898592 v 0.65784 H 66.4001 v 0.0687 c 0,0.35783 -0.12764,0.64021 -0.382922,0.84749 -0.253098,0.20728 -0.603294,0.31109 -1.050582,0.31109 -0.523652,0 -0.950559,-0.16926 -1.280025,-0.50746 -0.327282,-0.33819 -0.490926,-0.77675 -0.490926,-1.31568 0,-0.53238 0.165079,-0.9644 0.494543,-1.29604 0.331648,-0.33383 0.754766,-0.50075 1.26969,-0.50075 0.250919,0 0.477663,0.0473 0.680579,0.14108 0.205098,0.0916 0.387459,0.23002 0.546736,0.41548 l 0.569475,-0.42892 c -0.235645,-0.28364 -0.503101,-0.49402 -0.802018,-0.63148 -0.296738,-0.13746 -0.632405,-0.20619 -1.007691,-0.20619 z m -9.471256,0.108 v 4.79144 h 0.778763 v -4.79144 z m 23.51381,0 v 0.66094 h 1.273307 v 4.1305 h 0.778764 v -4.1305 h 1.266589 v -0.66094 z m 3.84576,0 v 4.79144 h 0.778764 v -4.79144 z m 4.460193,0 v 4.79144 h 0.77928 v -4.79144 z m 6.545337,0 v 4.79144 h 2.673738 v -0.69712 h -1.894974 v -1.54822 h 1.894974 v -0.6842 h -1.894974 v -1.20096 h 1.894974 v -0.66094 z m -22.32887,1.27331 0.09147,0.30386 0.08837,0.23926 0.490926,1.09295 h -1.335319 l 0.490926,-1.09295 c 0.03491,-0.0807 0.06437,-0.16399 0.08837,-0.24908 0.01747,-0.048 0.03148,-0.0938 0.04238,-0.13746 0.01309,-0.0437 0.02762,-0.0955 0.04289,-0.15658 z m 13.07052,1.64899 v 0.65474 h 1.751314 v -0.65474 z m 38.482926,1.87172 -2.32079,4.98161 h 0.81855 l 0.55604,-1.23403 h 1.89859 l 0.54312,1.23403 h 0.82166 z m 2.71559,0 v 4.98161 h 0.71676 v -3.3321 c 0.0676,0.096 0.14056,0.19 0.2191,0.28164 0.0655,0.0742 0.10618,0.11909 0.12144,0.13436 0.0349,0.0371 0.0751,0.0773 0.12093,0.12092 l 3.10575,2.98173 v -4.97799 h -0.71985 v 3.32176 c -0.096,-0.12218 -0.1853,-0.22783 -0.2682,-0.31729 l -0.25219,-0.2651 z m 17.40566,0.0755 c -0.35565,0 -0.68856,0.0613 -0.99839,0.18345 -0.30983,0.12001 -0.58383,0.29674 -0.82166,0.5302 -0.23563,0.23346 -0.41656,0.50603 -0.54311,0.81804 -0.12437,0.31201 -0.18656,0.64165 -0.18656,0.98857 0,0.35129 0.0622,0.68277 0.18656,0.99477 0.12655,0.30983 0.30748,0.58147 0.54311,0.81494 0.23783,0.23128 0.51091,0.40709 0.81856,0.5271 0.30983,0.11782 0.64785,0.17673 1.01441,0.17673 0.14182,0 0.2802,-0.0103 0.41548,-0.03 0.13746,-0.0196 0.26653,-0.0467 0.38654,-0.0816 0.24655,-0.0742 0.47422,-0.18638 0.68368,-0.33693 v -0.88057 c -0.23783,0.2051 -0.48421,0.35709 -0.73949,0.45527 -0.13528,0.0524 -0.26855,0.0902 -0.39946,0.11421 -0.12873,0.024 -0.26476,0.0362 -0.40876,0.0362 -0.48438,0 -0.88694,-0.16692 -1.20768,-0.50074 -0.32073,-0.33602 -0.48111,-0.76384 -0.48111,-1.28313 0,-0.53674 0.16365,-0.97203 0.49093,-1.30586 0.32946,-0.33601 0.75585,-0.50385 1.27951,-0.50385 0.13745,0 0.26929,0.0122 0.39584,0.0362 0.12873,0.024 0.25453,0.0586 0.37672,0.10438 0.24655,0.0938 0.47985,0.23455 0.70021,0.4222 l 0.0424,-0.78548 c -0.23783,-0.168 -0.48513,-0.29094 -0.74259,-0.36949 -0.13092,-0.0436 -0.26183,-0.0754 -0.39274,-0.0951 -0.13092,-0.0197 -0.26837,-0.0295 -0.41238,-0.0295 z m -12.57856,0.11472 v 0.66094 h 1.27279 v 4.1305 h 0.77928 v -4.1305 h 1.26659 v -0.66094 z m 3.87418,0 v 4.79144 h 0.77928 v -4.79144 z m 4.5191,0 v 4.79144 h 0.77877 v -4.79144 z m 6.60322,0 v 4.79144 h 2.67374 v -0.69711 h -1.89498 v -1.54823 h 1.89498 v -0.6842 h -1.89498 v -1.20096 h 1.89498 v -0.66094 z m -63.809543,0.71417 c -0.257234,0 -0.500343,0.0468 -0.728637,0.14004 -0.228295,0.0916 -0.432302,0.22474 -0.612366,0.39998 -0.178456,0.17363 -0.314481,0.37333 -0.407727,0.59841 -0.09325,0.22508 -0.139527,0.46285 -0.139527,0.71365 0,0.2508 0.04726,0.48858 0.142111,0.71366 0.09485,0.22508 0.230878,0.42478 0.407727,0.59841 0.176847,0.17203 0.379878,0.30512 0.609782,0.39997 0.231509,0.0932 0.474618,0.14005 0.728637,0.14005 0.249195,0 0.4884,-0.0473 0.718303,-0.14211 0.23151,-0.0965 0.437469,-0.23152 0.617533,-0.40515 0.180063,-0.17363 0.316546,-0.37091 0.409794,-0.59117 0.09325,-0.22187 0.140043,-0.45964 0.140043,-0.71366 0,-0.2492 -0.04823,-0.4865 -0.144694,-0.71158 -0.09485,-0.22508 -0.232314,-0.42524 -0.412378,-0.60048 -0.180064,-0.17685 -0.384071,-0.31092 -0.612365,-0.40256 -0.226688,-0.0916 -0.465432,-0.13746 -0.716236,-0.13746 z m 2.490804,0.0796 v 3.53054 h 0.574126 v -1.65933 h 1.396297 v -0.50385 h -1.396297 v -0.88005 h 1.396297 v -0.48731 z m 2.539897,0 v 3.53054 h 0.573608 v -1.65933 h 1.396298 v -0.50385 h -1.396298 v -0.88005 h 1.396298 v -0.48731 z m -5.030701,0.44855 c 0.175241,0 0.340662,0.0338 0.496611,0.10129 0.157555,0.0675 0.296451,0.16301 0.417029,0.2868 0.12058,0.1238 0.213195,0.26562 0.277502,0.42478 0.06431,0.15917 0.09664,0.32941 0.09664,0.51108 0,0.17685 -0.03376,0.34664 -0.101286,0.50902 -0.06752,0.16076 -0.161576,0.30305 -0.282153,0.42684 -0.118971,0.12378 -0.25643,0.21829 -0.412378,0.28422 -0.15434,0.0659 -0.318326,0.0992 -0.49196,0.0992 -0.17524,0 -0.341638,-0.0333 -0.499194,-0.0992 -0.157555,-0.0675 -0.295991,-0.16301 -0.414962,-0.2868 -0.06431,-0.0643 -0.118801,-0.13085 -0.163814,-0.19999 -0.04502,-0.0691 -0.0836,-0.14486 -0.115755,-0.22686 -0.06431,-0.15755 -0.09663,-0.32637 -0.09663,-0.50643 0,-0.0949 0.0082,-0.1831 0.02429,-0.2651 0.01608,-0.082 0.04019,-0.16398 0.07235,-0.24598 0.06913,-0.16398 0.162205,-0.30627 0.279569,-0.42684 0.123793,-0.12699 0.262689,-0.22299 0.417029,-0.28732 0.155949,-0.0659 0.321887,-0.0987 0.497127,-0.0987 z m 41.276553,0.0305 0.0915,0.30438 0.0889,0.23926 0.49092,1.09296 h -1.33531 l 0.49092,-1.09296 c 0.0349,-0.0807 0.0644,-0.16399 0.0884,-0.24908 0.0174,-0.048 0.0314,-0.0939 0.0424,-0.13746 0.0131,-0.0437 0.0271,-0.096 0.0424,-0.1571 z m 13.18731,1.64951 v 0.65474 h 1.75131 v -0.65474 z m -4.30362,2.76108 c -0.25724,0 -0.49982,0.0468 -0.72812,0.14004 -0.22829,0.0916 -0.43281,0.22525 -0.61288,0.40049 -0.17845,0.17363 -0.31396,0.37282 -0.40721,0.5979 -0.0933,0.22508 -0.14004,0.46285 -0.14004,0.71365 0,0.25081 0.0472,0.48909 0.14211,0.71417 0.0948,0.22508 0.23087,0.42426 0.40772,0.59789 0.17685,0.17203 0.3804,0.30564 0.6103,0.4005 0.23152,0.0932 0.4741,0.13952 0.72812,0.13952 0.2492,0 0.48892,-0.0473 0.71882,-0.14211 0.23152,-0.0965 0.43695,-0.23151 0.61702,-0.40514 0.18006,-0.17363 0.31706,-0.37041 0.41031,-0.59066 0.0932,-0.22187 0.13953,-0.46015 0.13953,-0.71417 0,-0.24919 -0.0482,-0.48599 -0.1447,-0.71107 -0.0949,-0.22508 -0.23231,-0.42524 -0.41238,-0.60048 -0.18006,-0.17684 -0.38406,-0.31143 -0.61236,-0.40307 -0.22669,-0.0916 -0.46544,-0.13746 -0.71624,-0.13746 z m 2.49132,0.0796 v 3.53053 h 0.57361 V 155.39 h 1.3963 v -0.50436 h -1.3963 v -0.88005 h 1.3963 v -0.48731 z m 2.53938,0 v 3.53053 h 0.57413 V 155.39 h 1.3963 v -0.50436 h -1.3963 v -0.88005 h 1.3963 v -0.48731 z m -5.0307,0.44855 c 0.17524,0 0.34067,0.0338 0.49661,0.10129 0.15756,0.0675 0.29645,0.16352 0.41703,0.28732 0.12056,0.12379 0.21317,0.26509 0.2775,0.42426 0.0643,0.15917 0.0966,0.32941 0.0966,0.51108 0,0.17685 -0.0338,0.34663 -0.10129,0.50901 -0.0675,0.16078 -0.16157,0.30306 -0.28215,0.42685 -0.11897,0.12378 -0.25642,0.2188 -0.41238,0.28474 -0.15434,0.0659 -0.31832,0.0987 -0.49196,0.0987 -0.17524,0 -0.34164,-0.0328 -0.49919,-0.0987 -0.15756,-0.0675 -0.296,-0.16353 -0.41496,-0.28732 -0.0643,-0.0643 -0.11882,-0.13086 -0.16382,-0.19999 -0.045,-0.0691 -0.0836,-0.14487 -0.11575,-0.22686 -0.0643,-0.15755 -0.0966,-0.32636 -0.0966,-0.50643 0,-0.0949 0.008,-0.18311 0.0243,-0.2651 0.0161,-0.082 0.0402,-0.16399 0.0724,-0.24598 0.0691,-0.16399 0.16221,-0.30627 0.27957,-0.42685 0.12379,-0.12698 0.26269,-0.22247 0.41703,-0.2868 0.15595,-0.0659 0.32188,-0.0992 0.49712,-0.0992 z m -46.732028,6.0048 v 3.67058 h 0.528133 v -2.45515 c 0.04984,0.0707 0.103351,0.1397 0.16123,0.20722 0.04823,0.0547 0.07815,0.088 0.0894,0.0992 0.02573,0.0273 0.05564,0.0567 0.0894,0.0889 l 2.288232,2.19728 v -3.668 h -0.5302 v 2.4474 c -0.07074,-0.09 -0.136827,-0.16764 -0.197921,-0.23358 l -0.185518,-0.19533 z m -2.462382,0.0605 c -0.257235,0 -0.499827,0.0463 -0.728121,0.13953 -0.228297,0.0916 -0.432303,0.22525 -0.612366,0.40049 -0.178456,0.17363 -0.314479,0.37282 -0.407727,0.5979 -0.09325,0.22508 -0.140043,0.46336 -0.140043,0.71417 0,0.2508 0.04777,0.48857 0.142627,0.71365 0.09486,0.22508 0.230363,0.42426 0.40721,0.59789 0.176849,0.17203 0.380396,0.30564 0.610299,0.4005 0.23151,0.0932 0.474102,0.14004 0.728121,0.14004 0.249194,0 0.488915,-0.0478 0.718819,-0.14263 0.23151,-0.0965 0.437468,-0.23151 0.617533,-0.40514 0.180063,-0.17363 0.316547,-0.3704 0.409794,-0.59066 0.09325,-0.22187 0.140044,-0.45964 0.140044,-0.71365 0,-0.2492 -0.04823,-0.48651 -0.144694,-0.71159 -0.09486,-0.22508 -0.232314,-0.42524 -0.412378,-0.60048 -0.180063,-0.17685 -0.384586,-0.31092 -0.612883,-0.40256 -0.226688,-0.0916 -0.465433,-0.13746 -0.716235,-0.13746 z m -0.03256,0.52814 c 0.01088,-2.6e-4 0.0216,0 0.03256,0 0.17524,0 0.341181,0.0337 0.497127,0.10128 0.157558,0.0675 0.296452,0.16301 0.417029,0.28681 0.12058,0.12379 0.213196,0.2651 0.277502,0.42426 0.06431,0.15917 0.09612,0.32992 0.09612,0.5116 0,0.17684 -0.03376,0.34611 -0.101286,0.50849 -0.06752,0.16077 -0.161574,0.30306 -0.282154,0.42685 -0.11897,0.12378 -0.25643,0.2188 -0.412378,0.28474 -0.154341,0.0659 -0.318327,0.0987 -0.491959,0.0987 -0.175241,0 -0.341639,-0.0328 -0.499194,-0.0987 -0.157558,-0.0675 -0.295475,-0.16301 -0.414445,-0.28681 -0.06431,-0.0643 -0.119318,-0.13137 -0.164332,-0.2005 -0.04502,-0.0691 -0.0836,-0.14435 -0.115755,-0.22635 -0.06431,-0.15755 -0.09612,-0.32636 -0.09612,-0.50642 0,-0.0949 0.0077,-0.18363 0.02377,-0.26562 0.01608,-0.082 0.04019,-0.16399 0.07235,-0.24598 0.06913,-0.16399 0.162725,-0.30628 0.280087,-0.42685 0.123795,-0.12698 0.262688,-0.22247 0.417028,-0.2868 0.146203,-0.0618 0.300897,-0.0948 0.464055,-0.0987 z m 52.38027,6.86159 v 3.67006 h 0.52813 v -2.45463 c 0.0499,0.0707 0.10388,0.1397 0.16175,0.20722 0.0482,0.0547 0.0776,0.0874 0.0889,0.0987 0.0257,0.0273 0.0557,0.0573 0.0894,0.0894 l 2.28824,2.19676 v -3.66799 h -0.5302 v 2.44791 c -0.0708,-0.09 -0.13686,-0.16816 -0.19793,-0.23409 l -0.18551,-0.19534 z m -2.46238,0.06 c -0.25724,0 -0.49983,0.0468 -0.72812,0.14004 -0.2283,0.0916 -0.43283,0.22525 -0.61289,0.40049 -0.17845,0.17364 -0.31395,0.37282 -0.40721,0.5979 -0.0932,0.22508 -0.14004,0.46284 -0.14004,0.71365 0,0.2508 0.0472,0.48909 0.14211,0.71417 0.0948,0.22508 0.23088,0.42426 0.40773,0.59789 0.17684,0.17203 0.38039,0.30564 0.6103,0.4005 0.2315,0.0932 0.4741,0.13952 0.72812,0.13952 0.2492,0 0.48892,-0.0473 0.71882,-0.14211 0.23151,-0.0965 0.43695,-0.23151 0.61701,-0.40514 0.18007,-0.17363 0.31707,-0.3704 0.41031,-0.59066 0.0932,-0.22187 0.13953,-0.46016 0.13953,-0.71417 0,-0.2492 -0.0482,-0.48599 -0.14469,-0.71107 -0.0949,-0.22508 -0.23232,-0.42524 -0.41238,-0.60048 -0.18007,-0.17684 -0.38407,-0.31143 -0.61237,-0.40307 -0.22668,-0.0916 -0.46543,-0.13746 -0.71623,-0.13746 z m 0,0.52813 c 0.17524,0 0.34065,0.0338 0.49661,0.10129 0.15755,0.0675 0.29696,0.16352 0.41754,0.28732 0.12056,0.12379 0.21266,0.2651 0.27699,0.42426 0.0643,0.15917 0.0966,0.32941 0.0966,0.51108 0,0.17685 -0.0338,0.34663 -0.10128,0.50901 -0.0675,0.16077 -0.16158,0.30306 -0.28216,0.42685 -0.11896,0.12378 -0.25643,0.2188 -0.41237,0.28474 -0.15435,0.0659 -0.31833,0.0987 -0.49196,0.0987 -0.17524,0 -0.34164,-0.0328 -0.4992,-0.0987 -0.15756,-0.0675 -0.29599,-0.16353 -0.41496,-0.28732 -0.0643,-0.0643 -0.11881,-0.13086 -0.16381,-0.19999 -0.045,-0.0691 -0.0836,-0.14486 -0.11576,-0.22686 -0.0643,-0.15755 -0.0966,-0.32637 -0.0966,-0.50643 0,-0.0949 0.008,-0.18311 0.0243,-0.2651 0.0161,-0.082 0.0402,-0.16399 0.0724,-0.24598 0.0691,-0.16399 0.1622,-0.30627 0.27957,-0.42685 0.12379,-0.12698 0.26321,-0.22247 0.41755,-0.2868 0.15594,-0.0659 0.32137,-0.0992 0.49661,-0.0992 z m -38.46846,2.96468 v 1.32601 h -1.27537 v 0.339 h 1.275374 v 1.33739 h 0.361218 v -1.33739 h 1.275891 v -0.339 h -1.275891 v -1.32601 z m 52.40662,4.03541 c -0.35691,0 -0.64194,0.096 -0.85576,0.28732 -0.21222,0.18971 -0.31832,0.44097 -0.31832,0.75448 h 0.5519 c 0.0145,-0.1656 0.0743,-0.29823 0.1788,-0.39791 0.1045,-0.0997 0.23616,-0.14935 0.39533,-0.14935 0.18167,0 0.32395,0.0507 0.42684,0.15193 0.1029,0.0997 0.15452,0.23714 0.15452,0.41238 0,0.12058 -0.0381,0.2566 -0.11369,0.40773 -0.0418,0.0804 -0.0915,0.16237 -0.14935,0.24598 -0.0563,0.0836 -0.1262,0.17524 -0.2098,0.27492 l -1.3193,1.57923 h 2.36574 v -0.45786 h -1.34307 l 0.44855,-0.52089 c 0.36656,-0.418 0.60629,-0.73633 0.71882,-0.95499 0.11416,-0.21864 0.17105,-0.43666 0.17105,-0.6537 0,-0.30386 -0.0989,-0.5426 -0.29662,-0.71624 -0.19615,-0.17524 -0.4648,-0.26303 -0.80564,-0.26303 z m -25.56639,0.0703 -0.22221,0.4532 h 0.7307 v 3.04323 h 0.52348 v -3.49643 z"
     inkscape:label="TXT" /></svg>
