<?xml version="1.0" encoding="UTF-8" standalone="no"?>
<!-- Created with Inkscape (http://www.inkscape.org/) -->

<svg
   width="210mm"
   height="297mm"
   viewBox="0 0 210 297"
   version="1.1"
   id="svg1"
   xml:space="preserve"
   inkscape:version="1.3.1 (91b66b0783, 2023-11-16)"
   sodipodi:docname="OH_05_full.svg"
   xmlns:inkscape="http://www.inkscape.org/namespaces/inkscape"
   xmlns:sodipodi="http://sodipodi.sourceforge.net/DTD/sodipodi-0.dtd"
   xmlns="http://www.w3.org/2000/svg"
   xmlns:svg="http://www.w3.org/2000/svg"><sodipodi:namedview
     id="namedview1"
     pagecolor="#505050"
     bordercolor="#ffffff"
     borderopacity="1"
     inkscape:showpageshadow="0"
     inkscape:pageopacity="0"
     inkscape:pagecheckerboard="1"
     inkscape:deskcolor="#d1d1d1"
     inkscape:document-units="mm"
     showgrid="false"
     inkscape:zoom="0.94363241"
     inkscape:cx="516.62066"
     inkscape:cy="315.27107"
     inkscape:current-layer="g1" /><defs
     id="defs1" /><g
     id="g1"
     transform="matrix(0,-10,10,0,31.856842,248.5125)"
     style="display:inline;fill:none;stroke:#ff4c00;stroke-width:0.02;stroke-dasharray:none;stroke-opacity:1"><path
       d="m 9.92625,-7.3025 a 0.075,0.075 -90 0 1 0.075,0.075 v 14.455 a 0.075,0.075 0 0 1 -0.075,0.075 h -19.8525 a 0.075,0.075 90 0 1 -0.075,-0.075 v -14.455 a 0.075,0.075 -180 0 1 0.075,-0.075 z"
       transform="matrix(1,0,0,-1,10.00125,7.3025)"
       fill="#000000"
       stroke-linecap="round"
       stroke-linejoin="round"
       id="path1"
       style="fill:none;stroke:#ff4c00;stroke-width:0.02;stroke-dasharray:none;stroke-opacity:1" /><path
       d="m 6.5075,5.87375 a 0.16,0.16 0 1 1 0.32,0 0.16,0.16 0 1 1 -0.32,0 z"
       transform="matrix(1,0,0,-1,10.00125,7.3025)"
       fill="#ffffff"
       stroke="#000000"
       stroke-width="0.001cm"
       stroke-linecap="round"
       stroke-linejoin="round"
       id="path2"
       style="fill:none;stroke:#ff4c00;stroke-width:0.02;stroke-dasharray:none;stroke-opacity:1" /><path
       d="m -7.30375,-5.87375 a 0.16,0.16 0 1 1 0.32,0 0.16,0.16 0 1 1 -0.32,0 z"
       transform="matrix(1,0,0,-1,10.00125,7.3025)"
       fill="#ffffff"
       stroke="#000000"
       stroke-width="0.001cm"
       stroke-linecap="round"
       stroke-linejoin="round"
       id="path3"
       style="fill:none;stroke:#ff4c00;stroke-width:0.02;stroke-dasharray:none;stroke-opacity:1" /><path
       d="m 6.5075,-5.87375 a 0.16,0.16 0 1 1 0.32,0 0.16,0.16 0 1 1 -0.32,0 z"
       transform="matrix(1,0,0,-1,10.00125,7.3025)"
       fill="#ffffff"
       stroke="#000000"
       stroke-width="0.001cm"
       stroke-linecap="round"
       stroke-linejoin="round"
       id="path4"
       style="fill:none;stroke:#ff4c00;stroke-width:0.02;stroke-dasharray:none;stroke-opacity:1" /><path
       d="m -7.30375,5.87375 a 0.16,0.16 0 1 1 0.32,0 0.16,0.16 0 1 1 -0.32,0 z"
       transform="matrix(1,0,0,-1,10.00125,7.3025)"
       fill="#ffffff"
       stroke="#000000"
       stroke-width="0.001cm"
       stroke-linecap="round"
       stroke-linejoin="round"
       id="path5"
       style="fill:none;stroke:#ff4c00;stroke-width:0.02;stroke-dasharray:none;stroke-opacity:1" /><path
       d="m -3.6762499,-3.6975002 a 0.475,0.475 0 1 1 0.95,0 0.475,0.475 0 1 1 -0.95,0 z"
       transform="matrix(1,0,0,-1,10.00125,7.3025)"
       fill="#ffffff"
       stroke="#000000"
       stroke-width="0.001cm"
       stroke-linecap="round"
       stroke-linejoin="round"
       id="path7"
       style="fill:none;stroke:#ff4c00;stroke-width:0.02;stroke-dasharray:none;stroke-opacity:1" /><path
       d="m -7.826328,-4.1108514 a 0.595,0.595 0 1 1 1.19,0 0.595,0.595 0 1 1 -1.19,0 z"
       transform="matrix(1,0,0,-1,10.00125,7.3025)"
       fill="#ffffff"
       stroke="#000000"
       stroke-width="0.001cm"
       stroke-linecap="round"
       stroke-linejoin="round"
       id="path8"
       style="fill:none;stroke:#ff4c00;stroke-width:0.02;stroke-dasharray:none;stroke-opacity:1" /><path
       d="m -3.6762499,3.9024999 a 0.475,0.475 0 1 1 0.95,0 0.475,0.475 0 1 1 -0.95,0 z"
       transform="matrix(1,0,0,-1,10.00125,7.3025)"
       fill="#ffffff"
       stroke="#000000"
       stroke-width="0.001cm"
       stroke-linecap="round"
       stroke-linejoin="round"
       id="path9"
       style="fill:none;stroke:#ff4c00;stroke-width:0.02;stroke-dasharray:none;stroke-opacity:1" /><path
       d="m -7.826328,-1.0108514 a 0.595,0.595 0 1 1 1.19,0 0.595,0.595 0 1 1 -1.19,0 z"
       transform="matrix(1,0,0,-1,10.00125,7.3025)"
       fill="#ffffff"
       stroke="#000000"
       stroke-width="0.001cm"
       stroke-linecap="round"
       stroke-linejoin="round"
       id="path10"
       style="fill:none;stroke:#ff4c00;stroke-width:0.02;stroke-dasharray:none;stroke-opacity:1" /><path
       d="m 0.5400839,-3.9975002 a 0.55,0.55 0 1 1 1.1,0 0.55,0.55 0 1 1 -1.1,0 z"
       transform="matrix(1,0,0,-1,10.00125,7.3025)"
       fill="#ffffff"
       stroke="#000000"
       stroke-width="0.001cm"
       stroke-linecap="round"
       stroke-linejoin="round"
       id="path11"
       style="fill:none;stroke:#ff4c00;stroke-width:0.02;stroke-dasharray:none;stroke-opacity:1" /><path
       d="m -8.37625,3.9025 a 0.625,0.625 0 1 1 1.25,0 0.625,0.625 0 1 1 -1.25,0 z"
       transform="matrix(1,0,0,-1,10.00125,7.3025)"
       fill="#ffffff"
       stroke="#000000"
       stroke-width="0.001cm"
       stroke-linecap="round"
       stroke-linejoin="round"
       id="path12"
       style="fill:none;stroke:#ff4c00;stroke-width:0.02;stroke-dasharray:none;stroke-opacity:1" /><path
       d="M 8.2702224,-5.2544796 H 3.7117005 a 0.4,0.4 -90 0 0 -0.4,0.4 v 9.7 a 0.4,0.4 -180 0 0 0.4,0.4 h 4.5585219 a 0.4,0.4 90 0 0 0.4,-0.4 v -9.7 a 0.4,0.4 0 0 0 -0.4,-0.4 z"
       transform="matrix(1,0,0,-1,10.00125,7.3025)"
       fill="#ffffff"
       stroke="#000000"
       stroke-width="0.001cm"
       stroke-linecap="round"
       stroke-linejoin="round"
       id="path13"
       style="fill:none;stroke:#ff4c00;stroke-width:0.02;stroke-dasharray:none;stroke-opacity:1" /><path
       d="m 8.2485,6.82625 a 0.324,0.324 0 1 1 0.648,0 0.324,0.324 0 1 1 -0.648,0 z"
       transform="matrix(1,0,0,-1,10.00125,7.3025)"
       fill="#ffffff"
       stroke="#000000"
       stroke-width="0.001cm"
       stroke-linecap="round"
       stroke-linejoin="round"
       id="path14"
       style="fill:none;stroke:#ff4c00;stroke-width:0.02;stroke-dasharray:none;stroke-opacity:1" /><path
       d="m -0.324,6.82625 a 0.324,0.324 0 1 1 0.648,0 0.324,0.324 0 1 1 -0.648,0 z"
       transform="matrix(1,0,0,-1,10.00125,7.3025)"
       fill="#ffffff"
       stroke="#000000"
       stroke-width="0.001cm"
       stroke-linecap="round"
       stroke-linejoin="round"
       id="path15"
       style="fill:none;stroke:#ff4c00;stroke-width:0.02;stroke-dasharray:none;stroke-opacity:1" /><path
       d="m -8.8965,6.82625 a 0.324,0.324 0 1 1 0.648,0 0.324,0.324 0 1 1 -0.648,0 z"
       transform="matrix(1,0,0,-1,10.00125,7.3025)"
       fill="#ffffff"
       stroke="#000000"
       stroke-width="0.001cm"
       stroke-linecap="round"
       stroke-linejoin="round"
       id="path16"
       style="fill:none;stroke:#ff4c00;stroke-width:0.02;stroke-dasharray:none;stroke-opacity:1" /><path
       d="m 8.2485,-6.82625 a 0.324,0.324 0 1 1 0.648,0 0.324,0.324 0 1 1 -0.648,0 z"
       transform="matrix(1,0,0,-1,10.00125,7.3025)"
       fill="#ffffff"
       stroke="#000000"
       stroke-width="0.001cm"
       stroke-linecap="round"
       stroke-linejoin="round"
       id="path17"
       style="fill:none;stroke:#ff4c00;stroke-width:0.02;stroke-dasharray:none;stroke-opacity:1" /><path
       d="m -0.324,-6.82625 a 0.324,0.324 0 1 1 0.648,0 0.324,0.324 0 1 1 -0.648,0 z"
       transform="matrix(1,0,0,-1,10.00125,7.3025)"
       fill="#ffffff"
       stroke="#000000"
       stroke-width="0.001cm"
       stroke-linecap="round"
       stroke-linejoin="round"
       id="path18"
       style="fill:none;stroke:#ff4c00;stroke-width:0.02;stroke-dasharray:none;stroke-opacity:1" /><path
       d="m -8.8965,-6.82625 a 0.324,0.324 0 1 1 0.648,0 0.324,0.324 0 1 1 -0.648,0 z"
       transform="matrix(1,0,0,-1,10.00125,7.3025)"
       fill="#ffffff"
       stroke="#000000"
       stroke-width="0.001cm"
       stroke-linecap="round"
       stroke-linejoin="round"
       id="path19"
       style="fill:none;stroke:#ff4c00;stroke-width:0.02;stroke-dasharray:none;stroke-opacity:1" /><path
       d="m 10.266334,1.9028926 h 1.65 a 0.3,0.3 0 0 1 0.3,0.3 v 7.5000003 a 0.3,0.3 0 0 1 -0.3,0.3000001 h -1.65 a 0.3,0.3 0 0 1 -0.3,-0.3000001 V 2.2028926 a 0.3,0.3 0 0 1 0.3,-0.3 z"
       fill="#ffffff"
       stroke="#000000"
       stroke-width="0.001cm"
       stroke-linecap="round"
       stroke-linejoin="round"
       id="path8-0-9"
       style="fill:none;fill-opacity:1;stroke:#ff5b00;stroke-width:0.02;stroke-dasharray:none;stroke-opacity:1" /></g><g
     inkscape:groupmode="layer"
     id="layer1"
     inkscape:label="Layer 1"
     style="display:inline"><path
       d="m 36.61934,68.3315 h -2.3745 a 1.588,1.588 0 0 0 -1.588,1.588 v 71.436 a 1.588,1.588 0 0 0 1.588,1.588 h 2.3745 a 5.5565,5.5565 0 0 1 0,11.113 h -2.3745 a 1.588,1.588 0 0 0 -1.588,1.588 v 71.436 a 1.588,1.588 0 0 0 1.588,1.588 h 2.3745 a 5.5565,5.5565 0 0 1 5.5565,5.5565 v 11.8995 a 1.588,1.588 0 0 0 1.588,1.588 h 122.236 a 1.588,1.588 0 0 0 1.588,-1.588 V 234.225 a 5.5565,5.5565 0 0 1 5.5565,-5.5565 h 2.3745 a 1.588,1.588 0 0 0 1.588,-1.588 v -71.436 a 1.588,1.588 0 0 0 -1.588,-1.588 h -2.3745 a 5.5565,5.5565 0 0 1 0,-11.113 h 2.3745 a 1.588,1.588 0 0 0 1.588,-1.588 v -71.436 a 1.588,1.588 0 0 0 -1.588,-1.588 h -2.3745 a 5.5565,5.5565 0 0 1 -5.5565,-5.5565 V 50.8755 a 1.588,1.588 0 0 0 -1.588,-1.588 h -122.236 a 1.588,1.588 0 0 0 -1.588,1.588 V 62.775 a 5.5565,5.5565 0 0 1 -5.5565,5.5565 z"
       fill="#000000"
       stroke-linecap="round"
       stroke-linejoin="round"
       id="path1-4"
       style="fill:none;fill-opacity:1;stroke:#0cff00;stroke-width:0.2;stroke-dasharray:none;stroke-opacity:1" /><path
       d="m 44.54434,81.825 a 1.6,1.6 0 1 0 3.2,0 1.6,1.6 0 1 0 -3.2,0 z"
       fill="#ffffff"
       stroke="#000000"
       stroke-width="0.001cm"
       stroke-linecap="round"
       stroke-linejoin="round"
       id="path2-8"
       style="fill:none;fill-opacity:1;stroke:#0cff00;stroke-width:0.2;stroke-dasharray:none;stroke-opacity:1" /><path
       d="m 162.01934,219.9375 a 1.6,1.6 0 1 0 3.2,0 1.6,1.6 0 1 0 -3.2,0 z"
       fill="#ffffff"
       stroke="#000000"
       stroke-width="0.001cm"
       stroke-linecap="round"
       stroke-linejoin="round"
       id="path3-9"
       style="fill:none;fill-opacity:1;stroke:#0cff00;stroke-width:0.2;stroke-dasharray:none;stroke-opacity:1" /><path
       d="m 162.01934,81.825 a 1.6,1.6 0 1 0 3.2,0 1.6,1.6 0 1 0 -3.2,0 z"
       fill="#ffffff"
       stroke="#000000"
       stroke-width="0.001cm"
       stroke-linecap="round"
       stroke-linejoin="round"
       id="path4-8"
       style="fill:none;fill-opacity:1;stroke:#0cff00;stroke-width:0.2;stroke-dasharray:none;stroke-opacity:1" /><path
       d="m 44.54434,219.9375 a 1.6,1.6 0 1 0 3.2,0 1.6,1.6 0 1 0 -3.2,0 z"
       fill="#ffffff"
       stroke="#000000"
       stroke-width="0.001cm"
       stroke-linecap="round"
       stroke-linejoin="round"
       id="path5-5"
       style="fill:none;fill-opacity:1;stroke:#0cff00;stroke-width:0.2;stroke-dasharray:none;stroke-opacity:1" /><path
       d="m 138.79035,220.81328 a 7.2,7.2 0 1 0 14.4,0 7.2,7.2 0 1 0 -14.4,0 z"
       fill="#ffffff"
       stroke="#000000"
       stroke-width="0.001cm"
       stroke-linecap="round"
       stroke-linejoin="round"
       id="path6-1"
       style="fill:none;fill-opacity:1;stroke:#0cff00;stroke-width:0.2;stroke-dasharray:none;stroke-opacity:1" /><path
       d="m 107.79035,220.81328 a 7.2,7.2 0 1 0 14.4,0 7.2,7.2 0 1 0 -14.4,0 z"
       fill="#ffffff"
       stroke="#000000"
       stroke-width="0.001cm"
       stroke-linecap="round"
       stroke-linejoin="round"
       id="path7-0"
       style="fill:none;fill-opacity:1;stroke:#0cff00;stroke-width:0.2;stroke-dasharray:none;stroke-opacity:1" /><path
       d="m 50.885768,145.84916 v -16.5 a 3,3 0 0 1 3,-3 h 75.000002 a 3,3 0 0 1 3,3 v 16.5 a 3,3 0 0 1 -3,3 H 53.885768 a 3,3 0 0 1 -3,-3 z"
       fill="#ffffff"
       stroke="#000000"
       stroke-width="0.001cm"
       stroke-linecap="round"
       stroke-linejoin="round"
       id="path8-0"
       style="fill:none;fill-opacity:1;stroke:#0cff00;stroke-width:0.2;stroke-dasharray:none;stroke-opacity:1" /><path
       d="m 137.10684,180.5125 a 4.75,4.75 0 1 0 9.5,0 4.75,4.75 0 1 0 -9.5,0 z"
       fill="#ffffff"
       stroke="#000000"
       stroke-width="0.001cm"
       stroke-linecap="round"
       stroke-linejoin="round"
       id="path9-3"
       style="fill:none;fill-opacity:1;stroke:#0cff00;stroke-width:0.2;stroke-dasharray:none;stroke-opacity:1" /><path
       d="m 61.106841,180.5125 a 4.75,4.75 0 1 0 9.5,0 4.75,4.75 0 1 0 -9.5,0 z"
       fill="#ffffff"
       stroke="#000000"
       stroke-width="0.001cm"
       stroke-linecap="round"
       stroke-linejoin="round"
       id="path10-4"
       style="fill:none;fill-opacity:1;stroke:#0cff00;stroke-width:0.2;stroke-dasharray:none;stroke-opacity:1" /><path
       d="m 139.35684,137.59916 a 5.5,5.5 0 1 0 11,0 5.5,5.5 0 1 0 -11,0 z"
       fill="#ffffff"
       stroke="#000000"
       stroke-width="0.001cm"
       stroke-linecap="round"
       stroke-linejoin="round"
       id="path11-0"
       style="fill:none;fill-opacity:1;stroke:#0cff00;stroke-width:0.2;stroke-dasharray:none;stroke-opacity:1" /><path
       d="m 157.42664,65.797776 v 45.585214 a 4,4 0 0 1 -4,4 H 56.426636 a 4,4 0 0 1 -4,-4 V 65.797776 a 4,4 0 0 1 4,-4 h 97.000004 a 4,4 0 0 1 4,4 z"
       fill="#ffffff"
       stroke="#000000"
       stroke-width="0.001cm"
       stroke-linecap="round"
       stroke-linejoin="round"
       id="path12-7"
       style="fill:none;fill-opacity:1;stroke:#0cff00;stroke-width:0.2;stroke-dasharray:none;stroke-opacity:1" /><path
       d="m 56.35684,199.6125 a 2,2 0 0 1 2,-2 h 1 14 a 2,2 0 0 1 2,2 v 38.9 a 2,2 0 0 1 -2,2 h -15 a 2,2 0 0 1 -2,-2 z"
       fill="#ffffff"
       stroke="#000000"
       stroke-width="0.001cm"
       stroke-linecap="round"
       stroke-linejoin="round"
       id="path13-9"
       style="fill:none;fill-opacity:1;stroke:#0cff00;stroke-width:0.2;stroke-dasharray:none;stroke-opacity:1" /></g></svg>
