<?xml version="1.0" encoding="utf-8"?>
<!-- Generator: Fusion 360, Shaper Origin Export Add-In, Version 1.7.0  -->
<svg xmlns="http://www.w3.org/2000/svg" xmlns:xlink="http://www.w3.org/1999/xlink" xmlns:shaper="http://www.shapertools.com/namespaces/shaper" shaper:fusionaddin="version:1.7.0" width="9.3cm" height="6.75cm" version="1.1" x="0cm" y="0cm" viewBox="0 0 9.3 6.75" enable-background="new 0 0 9.3 6.75" xml:space="preserve"><path d="M-4.8166786,-0.8265351 A0.5,0.5 180 0,1 -4.3166786,-1.3265351 L3.9833214,-1.3265351 A0.5,0.5 270 0,1 4.4833214,-0.8265351 L4.4833214,4.9234649 A0.5,0.5 0 0,1 3.9833214,5.4234649 L-4.3166786,5.4234649 A0.5,0.5 90 0,1 -4.8166786,4.9234649 L-4.8166786,-0.8265351z" transform="matrix(1,0,0,-1,4.8166786,5.4234649)" fill="rgb(0,0,0)" stroke-linecap="round" stroke-linejoin="round" /><path d="M3.7233214,2.0484649 a0.16,0.16 0 1,1 0.32,0 a0.16,0.16 0 1,1 -0.32,0z" transform="matrix(1,0,0,-1,4.8166786,5.4234649)" fill="rgb(255,255,255)" stroke="rgb(0,0,0)" stroke-width="0.0010cm" stroke-linecap="round" stroke-linejoin="round" /><path d="M-4.5766786,2.0484649 a0.16,0.16 0 1,1 0.32,0 a0.16,0.16 0 1,1 -0.32,0z" transform="matrix(1,0,0,-1,4.8166786,5.4234649)" fill="rgb(255,255,255)" stroke="rgb(0,0,0)" stroke-width="0.0010cm" stroke-linecap="round" stroke-linejoin="round" /><path d="M-2.6036512,2.7565305 A0.2,0.2 180 0,0 -2.3874313,2.9558717 L0.8995412,2.6884187 A0.2,0.2 85.3482295 0,0 1.0833213,2.4890775 L1.0833213,1.6078523 A0.2,0.2 0 0,0 0.8995412,1.4085111 L-2.3874313,1.1410582 A0.2,0.2 274.6517705 0,0 -2.6036512,1.3403994 L-2.6036512,2.7565305z" transform="matrix(1,0,0,-1,4.8166786,5.4234649)" fill="rgb(255,255,255)" stroke="rgb(0,0,0)" stroke-width="0.0010cm" stroke-linecap="round" stroke-linejoin="round" /></svg>