<?xml version="1.0" encoding="UTF-8" standalone="no"?>
<!-- Created with Inkscape (http://www.inkscape.org/) -->

<svg
   width="53.414612mm"
   height="100.4166mm"
   viewBox="0 0 53.414612 100.41659"
   version="1.1"
   id="svg1884"
   inkscape:version="1.1 (c68e22c387, 2021-05-23)"
   sodipodi:docname="Transparent Piece.svg"
   xmlns:inkscape="http://www.inkscape.org/namespaces/inkscape"
   xmlns:sodipodi="http://sodipodi.sourceforge.net/DTD/sodipodi-0.dtd"
   xmlns="http://www.w3.org/2000/svg"
   xmlns:svg="http://www.w3.org/2000/svg">
  <sodipodi:namedview
     id="namedview1886"
     pagecolor="#ffffff"
     bordercolor="#666666"
     borderopacity="1.0"
     inkscape:pageshadow="2"
     inkscape:pageopacity="0.0"
     inkscape:pagecheckerboard="0"
     inkscape:document-units="mm"
     showgrid="false"
     inkscape:zoom="0.60221661"
     inkscape:cx="-400.18823"
     inkscape:cy="180.998"
     inkscape:window-width="2211"
     inkscape:window-height="887"
     inkscape:window-x="774"
     inkscape:window-y="153"
     inkscape:window-maximized="0"
     inkscape:current-layer="layer2" />
  <defs
     id="defs1881" />
  <g
     inkscape:label="Cut"
     inkscape:groupmode="layer"
     id="layer1"
     transform="translate(21.781475,-70.050859)">
    <g
       id="g6393"
       style="display:inline"
       transform="matrix(0.26458333,0,0,0.26458333,-86.063849,60.503863)">
      <path
         style="display:inline;fill:none;stroke:#ff0000"
         d="m 353.8811,188.02448 h -2.7666"
         id="path202"
         transform="translate(11.718909,23.042653)" />
      <path
         style="display:inline;fill:none;stroke:#ff0000"
         d="m 351.1145,188.02448 h -0.5669"
         id="path204"
         transform="translate(11.718909,23.042653)" />
      <path
         style="display:inline;fill:none;stroke:#ff0000"
         d="m 350.5476,188.02448 v 37.23"
         id="path206"
         transform="translate(11.718909,23.042653)" />
      <path
         style="display:inline;fill:none;stroke:#ff0000"
         d="m 350.5476,225.25448 h 11.1496"
         id="path208"
         transform="translate(11.718909,23.042653)" />
      <path
         style="display:inline;fill:none;stroke:#ff0000"
         d="m 361.6972,225.25448 v -37.23"
         id="path210"
         transform="translate(11.718909,23.042653)" />
      <path
         style="display:inline;fill:none;stroke:#ff0000"
         d="m 361.6972,188.02448 h -7.8161"
         id="path212"
         transform="translate(11.718909,23.042653)" />
      <path
         style="display:inline;fill:none;stroke:#ff0000"
         d="m 321.8005,231.95448 v -111.1"
         id="path214"
         transform="translate(11.718909,23.042653)" />
      <path
         style="display:inline;fill:none;stroke:#ff0000"
         d="m 321.8005,120.85448 -0.0378,-0.76"
         id="path216"
         transform="translate(11.718909,23.042653)" />
      <path
         style="display:inline;fill:none;stroke:#ff0000"
         d="m 321.7627,120.09448 -0.1096,-0.73"
         id="path218"
         transform="translate(11.718909,23.042653)" />
      <path
         style="display:inline;fill:none;stroke:#ff0000"
         d="m 321.6531,119.36448 -0.1814,-0.7"
         id="path220"
         transform="translate(11.718909,23.042653)" />
      <path
         style="display:inline;fill:none;stroke:#ff0000"
         d="m 321.4717,118.66448 -0.2457,-0.67"
         id="path222"
         transform="translate(11.718909,23.042653)" />
      <path
         style="display:inline;fill:none;stroke:#ff0000"
         d="m 321.226,117.99448 -0.3061,-0.65"
         id="path224"
         transform="translate(11.718909,23.042653)" />
      <path
         style="display:inline;fill:none;stroke:#ff0000"
         d="m 320.9199,117.34448 -0.3666,-0.6"
         id="path226"
         transform="translate(11.718909,23.042653)" />
      <path
         style="display:inline;fill:none;stroke:#ff0000"
         d="m 320.5533,116.74448 -0.4196,-0.56"
         id="path228"
         transform="translate(11.718909,23.042653)" />
      <path
         style="display:inline;fill:none;stroke:#ff0000"
         d="m 320.1337,116.18448 -0.4724,-0.52"
         id="path230"
         transform="translate(11.718909,23.042653)" />
      <path
         style="display:inline;fill:none;stroke:#ff0000"
         d="m 319.6613,115.66448 -0.5216,-0.47"
         id="path232"
         transform="translate(11.718909,23.042653)" />
      <path
         style="display:inline;fill:none;stroke:#ff0000"
         d="m 319.1397,115.19448 -0.5631,-0.42"
         id="path234"
         transform="translate(11.718909,23.042653)" />
      <path
         style="display:inline;fill:none;stroke:#ff0000"
         d="m 318.5766,114.77448 -0.601,-0.37"
         id="path236"
         transform="translate(11.718909,23.042653)" />
      <path
         style="display:inline;fill:none;stroke:#ff0000"
         d="m 317.9756,114.40448 -0.6425,-0.31"
         id="path238"
         transform="translate(11.718909,23.042653)" />
      <path
         style="display:inline;fill:none;stroke:#ff0000"
         d="m 317.3331,114.09448 -0.6727,-0.24"
         id="path240"
         transform="translate(11.718909,23.042653)" />
      <path
         style="display:inline;fill:none;stroke:#ff0000"
         d="m 316.6604,113.85448 -0.703,-0.18"
         id="path242"
         transform="translate(11.718909,23.042653)" />
      <path
         style="display:inline;fill:none;stroke:#ff0000"
         d="m 315.9574,113.67448 -0.7257,-0.11"
         id="path244"
         transform="translate(11.718909,23.042653)" />
      <path
         style="display:inline;fill:none;stroke:#ff0000"
         d="m 315.2317,113.56448 -0.7597,-0.04"
         id="path246"
         transform="translate(11.718909,23.042653)" />
      <path
         style="display:inline;fill:none;stroke:#ff0000"
         d="M 314.472,113.52448 H 273.4301"
         id="path248"
         transform="translate(11.718909,23.042653)" />
      <path
         style="display:inline;fill:none;stroke:#ff0000"
         d="m 273.4301,113.52448 -0.7597,0.04"
         id="path250"
         transform="translate(11.718909,23.042653)" />
      <path
         style="display:inline;fill:none;stroke:#ff0000"
         d="m 272.6704,113.56448 -0.7294,0.11"
         id="path252"
         transform="translate(11.718909,23.042653)" />
      <path
         style="display:inline;fill:none;stroke:#ff0000"
         d="m 271.941,113.67448 -0.6992,0.18"
         id="path254"
         transform="translate(11.718909,23.042653)" />
      <path
         style="display:inline;fill:none;stroke:#ff0000"
         d="m 271.2418,113.85448 -0.6766,0.24"
         id="path256"
         transform="translate(11.718909,23.042653)" />
      <path
         style="display:inline;fill:none;stroke:#ff0000"
         d="m 270.5652,114.09448 -0.6387,0.31"
         id="path258"
         transform="translate(11.718909,23.042653)" />
      <path
         style="display:inline;fill:none;stroke:#ff0000"
         d="m 269.9265,114.40448 -0.6047,0.37"
         id="path260"
         transform="translate(11.718909,23.042653)" />
      <path
         style="display:inline;fill:none;stroke:#ff0000"
         d="m 269.3218,114.77448 -0.5632,0.42"
         id="path262"
         transform="translate(11.718909,23.042653)" />
      <path
         style="display:inline;fill:none;stroke:#ff0000"
         d="m 268.7586,115.19448 -0.5178,0.47"
         id="path264"
         transform="translate(11.718909,23.042653)" />
      <path
         style="display:inline;fill:none;stroke:#ff0000"
         d="m 268.2408,115.66448 -0.4724,0.52"
         id="path266"
         transform="translate(11.718909,23.042653)" />
      <path
         style="display:inline;fill:none;stroke:#ff0000"
         d="m 267.7684,116.18448 -0.4233,0.56"
         id="path268"
         transform="translate(11.718909,23.042653)" />
      <path
         style="display:inline;fill:none;stroke:#ff0000"
         d="m 267.3451,116.74448 -0.3666,0.6"
         id="path270"
         transform="translate(11.718909,23.042653)" />
      <path
         style="display:inline;fill:none;stroke:#ff0000"
         d="m 266.9785,117.34448 -0.3062,0.65"
         id="path272"
         transform="translate(11.718909,23.042653)" />
      <path
         style="display:inline;fill:none;stroke:#ff0000"
         d="m 266.6723,117.99448 -0.2456,0.67"
         id="path274"
         transform="translate(11.718909,23.042653)" />
      <path
         style="display:inline;fill:none;stroke:#ff0000"
         d="m 266.4267,118.66448 -0.1815,0.7"
         id="path276"
         transform="translate(11.718909,23.042653)" />
      <path
         style="display:inline;fill:none;stroke:#ff0000"
         d="m 266.2452,119.36448 -0.1096,0.73"
         id="path278"
         transform="translate(11.718909,23.042653)" />
      <path
         style="display:inline;fill:none;stroke:#ff0000"
         d="m 266.1356,120.09448 -0.0378,0.76"
         id="path280"
         transform="translate(11.718909,23.042653)" />
      <path
         style="display:inline;fill:none;stroke:#ff0000"
         d="m 266.0978,120.85448 v 171.57"
         id="path282"
         transform="translate(11.718909,23.042653)" />
      <path
         style="display:inline;fill:none;stroke:#ff0000"
         d="m 266.0978,292.42448 0.0378,0.76"
         id="path284"
         transform="translate(11.718909,23.042653)" />
      <path
         style="display:inline;fill:none;stroke:#ff0000"
         d="m 266.1356,293.18448 0.1096,0.73"
         id="path286"
         transform="translate(11.718909,23.042653)" />
      <path
         style="display:inline;fill:none;stroke:#ff0000"
         d="m 266.2452,293.91448 0.1815,0.7"
         id="path288"
         transform="translate(11.718909,23.042653)" />
      <path
         style="display:inline;fill:none;stroke:#ff0000"
         d="m 266.4267,294.61448 0.2456,0.67"
         id="path290"
         transform="translate(11.718909,23.042653)" />
      <path
         style="display:inline;fill:none;stroke:#ff0000"
         d="m 266.6723,295.28448 0.3062,0.65"
         id="path292"
         transform="translate(11.718909,23.042653)" />
      <path
         style="display:inline;fill:none;stroke:#ff0000"
         d="m 266.9785,295.93448 0.3666,0.6"
         id="path294"
         transform="translate(11.718909,23.042653)" />
      <path
         style="display:inline;fill:none;stroke:#ff0000"
         d="m 267.3451,296.53448 0.4233,0.56"
         id="path296"
         transform="translate(11.718909,23.042653)" />
      <path
         style="display:inline;fill:none;stroke:#ff0000"
         d="m 267.7684,297.09448 0.4724,0.52"
         id="path298"
         transform="translate(11.718909,23.042653)" />
      <path
         style="display:inline;fill:none;stroke:#ff0000"
         d="m 268.2408,297.61448 0.5178,0.48"
         id="path300"
         transform="translate(11.718909,23.042653)" />
      <path
         style="display:inline;fill:none;stroke:#ff0000"
         d="m 268.7586,298.09448 0.5632,0.41"
         id="path302"
         transform="translate(11.718909,23.042653)" />
      <path
         style="display:inline;fill:none;stroke:#ff0000"
         d="m 269.3218,298.50448 0.6047,0.37"
         id="path304"
         transform="translate(11.718909,23.042653)" />
      <path
         style="display:inline;fill:none;stroke:#ff0000"
         d="m 269.9265,298.87448 0.6387,0.31"
         id="path306"
         transform="translate(11.718909,23.042653)" />
      <path
         style="display:inline;fill:none;stroke:#ff0000"
         d="m 270.5652,299.18448 0.6766,0.24"
         id="path308"
         transform="translate(11.718909,23.042653)" />
      <path
         style="display:inline;fill:none;stroke:#ff0000"
         d="m 271.2418,299.42448 0.6992,0.18"
         id="path310"
         transform="translate(11.718909,23.042653)" />
      <path
         style="display:inline;fill:none;stroke:#ff0000"
         d="m 271.941,299.60448 0.7294,0.11"
         id="path312"
         transform="translate(11.718909,23.042653)" />
      <path
         style="display:inline;fill:none;stroke:#ff0000"
         d="m 272.6704,299.71448 0.7597,0.04"
         id="path314"
         transform="translate(11.718909,23.042653)" />
      <path
         style="display:inline;fill:none;stroke:#ff0000"
         d="M 273.4301,299.75448 H 314.472"
         id="path316"
         transform="translate(11.718909,23.042653)" />
      <path
         style="display:inline;fill:none;stroke:#ff0000"
         d="m 314.472,299.75448 0.7597,-0.04"
         id="path318"
         transform="translate(11.718909,23.042653)" />
      <path
         style="display:inline;fill:none;stroke:#ff0000"
         d="m 315.2317,299.71448 0.7257,-0.11"
         id="path320"
         transform="translate(11.718909,23.042653)" />
      <path
         style="display:inline;fill:none;stroke:#ff0000"
         d="m 315.9574,299.60448 0.703,-0.18"
         id="path322"
         transform="translate(11.718909,23.042653)" />
      <path
         style="display:inline;fill:none;stroke:#ff0000"
         d="m 316.6604,299.42448 0.6727,-0.24"
         id="path324"
         transform="translate(11.718909,23.042653)" />
      <path
         style="display:inline;fill:none;stroke:#ff0000"
         d="m 317.3331,299.18448 0.6425,-0.31"
         id="path326"
         transform="translate(11.718909,23.042653)" />
      <path
         style="display:inline;fill:none;stroke:#ff0000"
         d="m 317.9756,298.87448 0.601,-0.37"
         id="path328"
         transform="translate(11.718909,23.042653)" />
      <path
         style="display:inline;fill:none;stroke:#ff0000"
         d="m 318.5766,298.50448 0.5631,-0.41"
         id="path330"
         transform="translate(11.718909,23.042653)" />
      <path
         style="display:inline;fill:none;stroke:#ff0000"
         d="m 319.1397,298.09448 0.5216,-0.48"
         id="path332"
         transform="translate(11.718909,23.042653)" />
      <path
         style="display:inline;fill:none;stroke:#ff0000"
         d="m 319.6613,297.61448 0.4724,-0.52"
         id="path334"
         transform="translate(11.718909,23.042653)" />
      <path
         style="display:inline;fill:none;stroke:#ff0000"
         d="m 320.1337,297.09448 0.4196,-0.56"
         id="path336"
         transform="translate(11.718909,23.042653)" />
      <path
         style="display:inline;fill:none;stroke:#ff0000"
         d="m 320.5533,296.53448 0.3666,-0.6"
         id="path338"
         transform="translate(11.718909,23.042653)" />
      <path
         style="display:inline;fill:none;stroke:#ff0000"
         d="m 320.9199,295.93448 0.3061,-0.65"
         id="path340"
         transform="translate(11.718909,23.042653)" />
      <path
         style="display:inline;fill:none;stroke:#ff0000"
         d="m 321.226,295.28448 0.2457,-0.67"
         id="path342"
         transform="translate(11.718909,23.042653)" />
      <path
         style="display:inline;fill:none;stroke:#ff0000"
         d="m 321.4717,294.61448 0.1814,-0.7"
         id="path344"
         transform="translate(11.718909,23.042653)" />
      <path
         style="display:inline;fill:none;stroke:#ff0000"
         d="m 321.6531,293.91448 0.1096,-0.73"
         id="path346"
         transform="translate(11.718909,23.042653)" />
      <path
         style="display:inline;fill:none;stroke:#ff0000"
         d="m 321.7627,293.18448 0.0378,-0.76"
         id="path348"
         transform="translate(11.718909,23.042653)" />
      <path
         style="display:inline;fill:none;stroke:#ff0000"
         d="m 321.8005,292.42448 v -60.47"
         id="path350"
         transform="translate(11.718909,23.042653)" />
      <path
         style="display:inline;fill:none;stroke:#ff0000"
         d="m 263.3199,346.03448 h 2.211"
         id="path352"
         transform="translate(11.718909,23.042653)" />
      <path
         style="display:inline;fill:none;stroke:#ff0000"
         d="m 265.5309,346.03448 v -29.67"
         id="path354"
         transform="translate(11.718909,23.042653)" />
      <path
         style="display:inline;fill:none;stroke:#ff0000"
         d="M 265.5309,316.36448 H 254.3813"
         id="path356"
         transform="translate(11.718909,23.042653)" />
      <path
         style="display:inline;fill:none;stroke:#ff0000"
         d="m 254.3813,316.36448 v 29.67"
         id="path358"
         transform="translate(11.718909,23.042653)" />
      <path
         style="display:inline;fill:none;stroke:#ff0000"
         d="m 254.3813,346.03448 h 8.9386"
         id="path360"
         transform="translate(11.718909,23.042653)" />
      <path
         d="m 264.44862,359.64728 a 5.321575,5.321575 0 0 0 -9.35676,3.4691"
         style="display:inline;fill:none;stroke:#ff0000"
         id="path362"
         transform="translate(11.718909,23.042653)" />
      <path
         d="m 255.09186,363.11678 a 5.321575,5.321575 0 0 0 10.64315,0"
         style="display:inline;fill:none;stroke:#ff0000"
         id="path364"
         transform="translate(11.718909,23.042653)" />
      <path
         d="m 265.73501,363.11638 a 5.321575,5.321575 0 0 0 -1.28639,-3.4691"
         style="display:inline;fill:none;stroke:#ff0000"
         id="path366"
         transform="translate(11.718909,23.042653)" />
      <path
         style="display:inline;fill:none;stroke:#ff0000"
         d="m 330.13816,346.03448 h 2.81574"
         id="path368"
         transform="translate(11.718909,23.042653)" />
      <path
         style="display:inline;fill:none;stroke:#ff0000"
         d="m 332.9539,346.03448 h 0.56693"
         id="path370"
         transform="translate(11.718909,23.042653)" />
      <path
         style="display:inline;fill:none;stroke:#ff0000"
         d="m 333.52083,346.03448 v -29.67"
         id="path372"
         transform="translate(11.718909,23.042653)" />
      <path
         style="display:inline;fill:none;stroke:#ff0000"
         d="m 333.52083,316.36448 h -11.1496"
         id="path374"
         transform="translate(11.718909,23.042653)" />
      <path
         style="display:inline;fill:none;stroke:#ff0000"
         d="m 322.37123,316.36448 v 29.67"
         id="path376"
         transform="translate(11.718909,23.042653)" />
      <path
         style="display:inline;fill:none;stroke:#ff0000"
         d="m 322.37123,346.03448 h 7.76693"
         id="path378"
         transform="translate(11.718909,23.042653)" />
      <path
         style="display:inline;fill:none;stroke:#ff0000"
         d="m 350.5476,344.87448 v 3.21"
         id="path380"
         transform="translate(11.718909,23.042653)" />
      <path
         style="display:inline;fill:none;stroke:#ff0000"
         d="m 350.5476,348.08448 h 11.1496"
         id="path382"
         transform="translate(11.718909,23.042653)" />
      <path
         style="display:inline;fill:none;stroke:#ff0000"
         d="m 361.6972,348.08448 v -37.22"
         id="path384"
         transform="translate(11.718909,23.042653)" />
      <path
         style="display:inline;fill:none;stroke:#ff0000"
         d="M 361.6972,310.86448 H 350.5476"
         id="path386"
         transform="translate(11.718909,23.042653)" />
      <path
         style="display:inline;fill:none;stroke:#ff0000"
         d="m 350.5476,310.86448 v 34.01"
         id="path388"
         transform="translate(11.718909,23.042653)" />
      <path
         style="display:inline;fill:none;stroke:#ff0000"
         d="m 409.7804,310.86448 h -2.1619"
         id="path390"
         transform="translate(11.718909,23.042653)" />
      <path
         style="display:inline;fill:none;stroke:#ff0000"
         d="m 407.6185,310.86448 v 37.22"
         id="path392"
         transform="translate(11.718909,23.042653)" />
      <path
         style="display:inline;fill:none;stroke:#ff0000"
         d="m 407.6185,348.08448 h 11.1496"
         id="path394"
         transform="translate(11.718909,23.042653)" />
      <path
         style="display:inline;fill:none;stroke:#ff0000"
         d="m 418.7681,348.08448 v -37.22"
         id="path396"
         transform="translate(11.718909,23.042653)" />
      <path
         style="display:inline;fill:none;stroke:#ff0000"
         d="m 418.7681,310.86448 h -8.9877"
         id="path398"
         transform="translate(11.718909,23.042653)" />
      <path
         style="display:inline;fill:none;stroke:#ff0000"
         d="m 409.7804,188.02448 h -2.1619"
         id="path400"
         transform="translate(11.718909,23.042653)" />
      <path
         style="display:inline;fill:none;stroke:#ff0000"
         d="m 407.6185,188.02448 v 37.23"
         id="path402"
         transform="translate(11.718909,23.042653)" />
      <path
         style="display:inline;fill:none;stroke:#ff0000"
         d="m 407.6185,225.25448 h 11.1496"
         id="path404"
         transform="translate(11.718909,23.042653)" />
      <path
         style="display:inline;fill:none;stroke:#ff0000"
         d="m 418.7681,225.25448 v -37.23"
         id="path406"
         transform="translate(11.718909,23.042653)" />
      <path
         style="display:inline;fill:none;stroke:#ff0000"
         d="m 418.7681,188.02448 h -8.9877"
         id="path408"
         transform="translate(11.718909,23.042653)" />
      <path
         style="display:inline;fill:none;stroke:#ff0000"
         d="m 407.6185,100.25448 v 2.17"
         id="path410"
         transform="translate(11.718909,23.042653)" />
      <path
         style="display:inline;fill:none;stroke:#ff0000"
         d="m 407.6185,102.42448 h 11.1496"
         id="path412"
         transform="translate(11.718909,23.042653)" />
      <path
         style="display:inline;fill:none;stroke:#ff0000"
         d="M 418.7681,102.42448 V 65.191483"
         id="path414"
         transform="translate(11.718909,23.042653)" />
      <path
         style="display:inline;fill:none;stroke:#ff0000"
         d="M 418.7681,65.191483 H 407.6185"
         id="path416"
         transform="translate(11.718909,23.042653)" />
      <path
         style="display:inline;fill:none;stroke:#ff0000"
         d="M 407.6185,65.191483 V 100.25448"
         id="path418"
         transform="translate(11.718909,23.042653)" />
      <path
         d="m 402.50029,47.446963 a 5.321575,5.321575 0 0 0 6.11975,-5.26119"
         style="display:inline;fill:none;stroke:#ff0000"
         id="path420"
         transform="translate(11.718909,23.042653)" />
      <path
         d="m 408.62004,42.185383 a 5.321575,5.321575 0 0 0 -10.64315,0"
         style="display:inline;fill:none;stroke:#ff0000"
         id="path422"
         transform="translate(11.718909,23.042653)" />
      <path
         d="m 397.97689,42.185773 a 5.321575,5.321575 0 0 0 4.5234,5.26119"
         style="display:inline;fill:none;stroke:#ff0000"
         id="path424"
         transform="translate(11.718909,23.042653)" />
      <path
         style="display:inline;fill:none;stroke:#ff0000"
         d="m 353.8811,65.191483 h -2.7666"
         id="path426"
         transform="translate(11.718909,23.042653)" />
      <path
         style="display:inline;fill:none;stroke:#ff0000"
         d="m 351.1145,65.191483 h -0.5669"
         id="path428"
         transform="translate(11.718909,23.042653)" />
      <path
         style="display:inline;fill:none;stroke:#ff0000"
         d="M 350.5476,65.191483 V 102.42448"
         id="path430"
         transform="translate(11.718909,23.042653)" />
      <path
         style="display:inline;fill:none;stroke:#ff0000"
         d="m 350.5476,102.42448 h 11.1496"
         id="path432"
         transform="translate(11.718909,23.042653)" />
      <path
         style="display:inline;fill:none;stroke:#ff0000"
         d="M 361.6972,102.42448 V 65.191483"
         id="path434"
         transform="translate(11.718909,23.042653)" />
      <path
         style="display:inline;fill:none;stroke:#ff0000"
         d="m 361.6972,65.191483 h -7.8161"
         id="path436"
         transform="translate(11.718909,23.042653)" />
      <path
         style="display:inline;fill:none;stroke:#ff0000"
         d="m 324.58225,63.539483 h -2.21102"
         id="path438"
         transform="translate(11.718909,23.042653)" />
      <path
         style="display:inline;fill:none;stroke:#ff0000"
         d="m 322.37123,63.539483 v 29.665"
         id="path440"
         transform="translate(11.718909,23.042653)" />
      <path
         style="display:inline;fill:none;stroke:#ff0000"
         d="m 322.37123,93.204483 h 11.1496"
         id="path442"
         transform="translate(11.718909,23.042653)" />
      <path
         style="display:inline;fill:none;stroke:#ff0000"
         d="m 333.52083,93.204483 v -29.665"
         id="path444"
         transform="translate(11.718909,23.042653)" />
      <path
         style="display:inline;fill:none;stroke:#ff0000"
         d="m 333.52083,63.539483 h -8.93858"
         id="path446"
         transform="translate(11.718909,23.042653)" />
      <path
         style="display:inline;fill:none;stroke:#ff0000"
         d="m 265.5309,66.960483 v -2.816"
         id="path448"
         transform="translate(11.718909,23.042653)" />
      <path
         style="display:inline;fill:none;stroke:#ff0000"
         d="m 265.5309,64.144483 v -0.605"
         id="path450"
         transform="translate(11.718909,23.042653)" />
      <path
         style="display:inline;fill:none;stroke:#ff0000"
         d="M 265.5309,63.539483 H 254.3813"
         id="path452"
         transform="translate(11.718909,23.042653)" />
      <path
         style="display:inline;fill:none;stroke:#ff0000"
         d="m 254.3813,63.539483 v 29.665"
         id="path454"
         transform="translate(11.718909,23.042653)" />
      <path
         style="display:inline;fill:none;stroke:#ff0000"
         d="m 254.3813,93.204483 h 11.1496"
         id="path456"
         transform="translate(11.718909,23.042653)" />
      <path
         style="display:inline;fill:none;stroke:#ff0000"
         d="m 265.5309,93.204483 v -26.244"
         id="path458"
         transform="translate(11.718909,23.042653)" />
      <path
         style="display:inline;fill:none;stroke:#ff0000"
         d="m 242.3284,40.961483 27.2731,-27.292"
         id="path460"
         transform="translate(11.718909,23.042653)" />
      <path
         style="display:inline;fill:none;stroke:#ff0000"
         d="m 269.6015,13.669483 0.0453,-0.046"
         id="path462"
         transform="translate(11.718909,23.042653)" />
      <path
         d="m 269.84713,13.540543 a 0.283465,0.283465 0 0 0 -0.20044,0.083"
         style="display:inline;fill:none;stroke:#ff0000"
         id="path464"
         transform="translate(11.718909,23.042653)" />
      <path
         style="display:inline;fill:none;stroke:#ff0000"
         d="m 269.8471,13.540483 h 124.664"
         id="path466"
         transform="translate(11.718909,23.042653)" />
      <path
         d="m 394.71158,13.623643 a 0.283465,0.283465 0 0 0 -0.20051,-0.0831"
         style="display:inline;fill:none;stroke:#ff0000"
         id="path468"
         transform="translate(11.718909,23.042653)" />
      <path
         style="display:inline;fill:none;stroke:#ff0000"
         d="m 394.7114,13.623483 37.8257,37.856"
         id="path470"
         transform="translate(11.718909,23.042653)" />
      <path
         d="m 432.62005,51.679763 a 0.283465,0.283465 0 0 0 -0.083,-0.20038"
         style="display:inline;fill:none;stroke:#ff0000"
         id="path472"
         transform="translate(11.718909,23.042653)" />
      <path
         style="display:inline;fill:none;stroke:#ff0000"
         d="M 432.6201,51.679483 V 353.92448"
         id="path474"
         transform="translate(11.718909,23.042653)" />
      <path
         d="m 432.53709,354.12898 a 0.283465,0.283465 0 0 0 0.083,-0.2004"
         style="display:inline;fill:none;stroke:#ff0000"
         id="path476"
         transform="translate(11.718909,23.042653)" />
      <path
         style="display:inline;fill:none;stroke:#ff0000"
         d="m 432.5371,354.12448 -37.8257,37.86"
         id="path478"
         transform="translate(11.718909,23.042653)" />
      <path
         d="m 394.51107,392.06778 a 0.283465,0.283465 0 0 0 0.20051,-0.083"
         style="display:inline;fill:none;stroke:#ff0000"
         id="path480"
         transform="translate(11.718909,23.042653)" />
      <path
         style="display:inline;fill:none;stroke:#ff0000"
         d="M 394.5111,392.06448 H 269.8471"
         id="path482"
         transform="translate(11.718909,23.042653)" />
      <path
         d="m 269.64662,391.98468 a 0.283465,0.283465 0 0 0 0.20051,0.083"
         style="display:inline;fill:none;stroke:#ff0000"
         id="path484"
         transform="translate(11.718909,23.042653)" />
      <path
         style="display:inline;fill:none;stroke:#ff0000"
         d="m 269.6468,391.98448 -37.8257,-37.86"
         id="path486"
         transform="translate(11.718909,23.042653)" />
      <path
         d="m 231.73815,353.92858 a 0.283465,0.283465 0 0 0 0.083,0.2004"
         style="display:inline;fill:none;stroke:#ff0000"
         id="path488"
         transform="translate(11.718909,23.042653)" />
      <path
         style="display:inline;fill:none;stroke:#ff0000"
         d="M 231.7381,353.92448 V 51.679483"
         id="path490"
         transform="translate(11.718909,23.042653)" />
      <path
         d="m 231.82111,51.479383 a 0.283465,0.283465 0 0 0 -0.083,0.20038"
         style="display:inline;fill:none;stroke:#ff0000"
         id="path492"
         transform="translate(11.718909,23.042653)" />
      <path
         style="display:inline;fill:none;stroke:#ff0000"
         d="m 231.8211,51.479483 10.5073,-10.518"
         id="path494"
         transform="translate(11.718909,23.042653)" />
    </g>
  </g>
  <g
     inkscape:groupmode="layer"
     id="layer2"
     inkscape:label="Etch Paint Mask"
     style="display:inline">
    <path
       id="path3629"
       style="display:inline;fill:#000000;fill-opacity:0;stroke:#0000ff;stroke-width:0.755906;paint-order:stroke fill markers"
       sodipodi:type="inkscape:offset"
       inkscape:radius="-7.6321278"
       inkscape:original="M 269.84961 14.529297 L 250.95508 33.412109 L 232.05859 52.292969 L 232.05859 202.78516 L 232.05859 353.2793 L 246.79688 353.2793 C 269.76028 353.28132 270.248 353.769 270.25 376.73242 L 270.25195 391.4707 L 332.12305 391.4707 L 393.99414 391.4707 L 412.62695 372.58203 L 431.25977 353.69336 L 431.29102 203.20703 L 431.32227 52.722656 L 417.18164 52.722656 C 401.69702 52.722656 398.89074 52.122426 395.76172 48.144531 C 394.05979 45.980877 393.96094 45.00362 393.96094 30.193359 L 393.96094 14.529297 L 331.90625 14.529297 L 269.84961 14.529297 z "
       d="m 273.00781,22.162109 -16.6582,16.648438 -16.6582,16.646484 V 202.78516 345.64648 h 7.10547 c 5.76786,5.1e-4 10.24697,-0.005 14.28906,0.49414 4.04209,0.49963 8.22369,1.63581 11.44531,4.85743 3.22162,3.22161 4.35779,7.40322 4.85742,11.44531 0.49963,4.04209 0.49364,8.52119 0.49414,14.28906 v 7.10547 h 54.24024 58.67968 l 16.39063,-16.61523 16.43555,-16.66016 0.0293,-147.35742 0.0293,-142.849611 h -6.50586 c -7.84092,0 -12.61115,-0.04162 -16.93945,-0.966797 -4.3283,-0.925175 -8.34386,-3.811622 -10.47852,-6.525391 -1.15178,-1.46426 -2.81835,-5.036657 -3.13476,-8.189453 -0.31641,-3.152796 -0.30079,-7.058358 -0.30079,-14.480469 v -8.03125 h -54.42187 z"
       transform="matrix(0.26458333,0,0,0.26458333,-61.181747,-3.4502939)" />
  </g>
</svg>
