<?xml version="1.0" encoding="UTF-8" standalone="no"?>
<svg
   width="6.8665848in"
   height="5.987071in"
   viewBox="0 0 617.99263 538.8364"
   version="1.1"
   id="svg112"
   sodipodi:docname="Translucent Pieces.svg"
   inkscape:version="1.1 (c68e22c387, 2021-05-23)"
   xmlns:inkscape="http://www.inkscape.org/namespaces/inkscape"
   xmlns:sodipodi="http://sodipodi.sourceforge.net/DTD/sodipodi-0.dtd"
   xmlns="http://www.w3.org/2000/svg"
   xmlns:svg="http://www.w3.org/2000/svg">
  <defs
     id="defs116" />
  <sodipodi:namedview
     id="namedview114"
     pagecolor="#ffffff"
     bordercolor="#666666"
     borderopacity="1.0"
     inkscape:pageshadow="2"
     inkscape:pageopacity="0.0"
     inkscape:pagecheckerboard="0"
     inkscape:document-units="in"
     showgrid="false"
     inkscape:zoom="0.67457496"
     inkscape:cx="430.64154"
     inkscape:cy="365.41528"
     inkscape:window-width="2081"
     inkscape:window-height="950"
     inkscape:window-x="1743"
     inkscape:window-y="108"
     inkscape:window-maximized="0"
     inkscape:current-layer="layer1" />
  <g
     inkscape:groupmode="layer"
     id="layer1"
     inkscape:label="Laser Cut"
     style="display:inline"
     transform="translate(-0.27044401,-0.17360999)">
    <g
       transform="rotate(-90,380.29934,414.41698)"
       id="g33"
       style="stroke:#ff0000;stroke-width:0.9;stroke-miterlimit:4;stroke-dasharray:none">
      <path
         style="display:inline;fill:none;stroke:#ff0000;stroke-width:0.9;stroke-miterlimit:4;stroke-dasharray:none"
         d="m 537.85789,34.838084 a 0.26574843,0.26574843 0 0 0 -0.26578,0.265744 v -2.25e-4 28.343437 0.0033 a 0.26574843,0.26574843 0 0 0 0.26578,0.265688 v 0.0029 h 10.71853 v 0 208.143752 0 h -10.71853 v -0.006 a 0.26574843,0.26574843 0 0 0 -0.26578,0.26578 v 0.002 28.35 -0.002 a 0.26574843,0.26574843 0 0 0 0.26578,0.26578 v -8.4e-4 h 139.10653 l 1.9e-4,8.4e-4 a 0.26574843,0.26574843 0 0 0 0.17147,-0.0628 l 0.002,-0.004 116.85843,-98.69062 0.002,0.003 a 0.26574843,0.26574843 0 0 0 0.0942,-0.20306 l -1.9e-4,0.004 v -70.875 l 1.9e-4,0.002 a 0.26574843,0.26574843 0 0 0 -0.097,-0.20531 l -0.003,-0.003 -116.62406,-95.801246 0.002,-0.0036 a 0.26574843,0.26574843 0 0 0 -0.16866,-0.06038 l -3.7e-4,1.79e-4 h -82.42763 v 0 H 537.8579 Z"
         id="path992" />
      <path
         d="m 598.69292,283.63138 a 4.9110238,4.9110238 0 1 0 -9.822,0 4.9110238,4.9110238 0 1 0 9.822,0 z"
         style="display:inline;fill:none;stroke:#ff0000;stroke-width:0.9;stroke-miterlimit:4;stroke-dasharray:none"
         id="path604" />
      <path
         d="m 598.69292,51.945172 a 4.9110238,4.9110238 0 1 0 -9.822,0 4.9110238,4.9110238 0 1 0 9.822,0 z"
         style="display:inline;fill:none;stroke:#ff0000;stroke-width:0.9;stroke-miterlimit:4;stroke-dasharray:none"
         id="path990" />
      <path
         style="display:inline;fill:none;stroke:#ff0000;stroke-width:0.9;stroke-miterlimit:4;stroke-dasharray:none"
         d="m 591.3987,226.28048 a 1.4173228,1.4173228 0 0 1 1.77619,0.92859 l 10e-4,4.7e-4 7.37718,23.54063 -0.001,-0.007 a 1.4173228,1.4173228 0 0 1 -0.9284,1.77656 l 0.001,0.002 -3.21019,1.00313 -10e-4,0.001 a 1.4173228,1.4173228 0 0 1 -1.77637,-0.92831 l 0.002,-9.4e-4 -7.37719,-23.53125 10e-4,0.001 a 1.4173228,1.4173228 0 0 1 0.92859,-1.77666 l -10e-4,0.004 0.35784,-0.1125 v 0 l 2.85235,-0.9 z"
         id="path606" />
      <path
         style="display:inline;fill:none;stroke:#ff0000;stroke-width:0.9;stroke-miterlimit:4;stroke-dasharray:none"
         d="m 584.17245,216.94392 -1.21537,-3.36563 v 0 l -1.21181,-3.525 v 0 l -1.12322,-3.45937 v 0 l -1.03463,-3.40313 v 0 l -0.94959,-3.3375 v 0 l -0.86456,-3.29062 v 0 l -0.77597,-3.23438 v 0 l -0.6945,-3.1875 v 0 l -0.60591,-3.15 v 0 l -0.52087,-3.12187 v 0 l -0.43941,-3.075 v 0 l -0.35428,-3.05625 v 0 l -0.26935,-3.02813 v 0 l -0.18778,-3.01875 v 0 l -0.10275,-3 h -4.7e-4 l -0.0244,-2.98125 h 2.8e-4 l 0.06,-2.99062 v 0 l 0.13819,-2.98125 v 0 l 0.21965,-2.98125 v 0 l 0.30122,-3 v 0 l 0.38269,-3.00938 v 0 l 0.46059,-3.02812 v 0 l 0.5386,-3.04688 v 0 l 0.62006,-3.075 v 0 l 0.69806,-3.10312 v 0 l 0.77597,-3.13125 v 0 l 0.85041,-3.1875 v 0 l 0.93187,-3.21563 v 0 l 1.00632,-3.27187 v 0 l 1.08421,-3.31875 v 0 l 1.15866,-3.38438 v 0 l 1.14806,-3.20625 v 0 l 26.8051,8.37188 v 0 l -2.70357,9.90937 v 0 l -10.95937,-3.4875 h -9e-5 l -0.0319,-0.009 v 0 l -0.49247,-0.0937 -1.9e-4,-0.003 a 0.26574843,0.26574843 0 0 0 -0.0412,0 l -10e-4,-0.006 -0.49603,-0.009 -0.003,-0.003 a 0.26574843,0.26574843 0 0 0 -0.0384,0 l 0.002,0.003 -0.49247,0.0562 -0.002,-8.5e-4 a 0.26574843,0.26574843 0 0 0 -0.0366,0.009 v 8.4e-4 l -0.48188,0.12188 v 0 l -0.0319,0.009 v 0 l -0.40753,0.16875 h -1.9e-4 l -0.0281,0.009 v 0 l -0.38982,0.21562 h -3.7e-4 l -0.0244,0.0188 v 0 l -0.3614,0.25313 h -4.7e-4 l -0.0244,0.0188 v 0 l -0.32953,0.29062 h -3.7e-4 l -0.0244,0.0188 v 0 l -0.29062,0.3375 h 3.7e-4 l -0.0216,0.0281 v 0 l -0.25163,0.35625 h 1e-4 l -0.0178,0.0281 v 0 l -0.20194,0.39375 10e-4,0.003 a 0.26574843,0.26574843 0 0 0 -0.0141,0.0328 l -10e-4,0.001 -0.14887,0.42188 0.001,-0.005 a 0.26574843,0.26574843 0 0 0 -0.0113,0.0412 l -5.7e-4,0.001 -0.31181,1.71562 v 0 l -0.30122,1.65938 v 0 l -0.29409,1.59375 v 0 l -0.27985,1.52812 v 0 l -0.2729,1.47188 v 0 l -0.26222,1.41562 v 0 l -0.25153,1.35938 v 0 l -0.24094,1.30312 v 0 l -0.23034,1.25625 v 0 l -0.22322,1.20938 v 0 l -0.21263,1.1625 v 0 l -0.20193,1.11562 v 0 l -0.19135,1.06875 v 0 l -0.18065,1.04063 v 0 l -0.17363,0.99375 v 0 l -0.15947,0.95625 h -0.004 l -0.29053,1.82812 h -0.004 l -0.25163,1.69688 v 0.009 l -0.21609,1.59375 v 0.009 l -0.17363,1.50937 v 0.009 l -0.13462,1.45312 v 0 l -0.0957,1.39688 2.8e-4,0.009 -0.0534,1.35938 -9e-5,0.009 -0.0141,1.35 h 4.6e-4 l 0.0244,1.35 -1.9e-4,0.009 0.0675,1.35937 v 0.009 l 0.10631,1.39687 v 0.009 l 0.14522,1.44375 v 0.009 l 0.18788,1.50938 v 0.009 l 0.22322,1.60313 h 0.003 l 0.26578,1.69687 v 0.009 l 0.30468,1.81875 v 0 l 0.1666,0.95625 v 0 l 0.17719,0.99375 v 0.009 l 0.18778,1.03125 v 0 l 0.19837,1.07813 v 0 l 0.20906,1.11562 v 0 l 0.21619,1.15313 v 0 l 0.22678,1.20937 v 0 l 0.24094,1.25625 v 0 l 0.2445,1.30313 v 0 l 0.25866,1.35937 v 0 l 0.26925,1.41563 v 0 l 0.27637,1.47187 v 0 l 0.28706,1.52813 v 0 l 0.29757,1.59375 v 0 l 0.30825,1.65937 v 0 l 0.31537,1.71563 8.5e-4,0.001 a 0.26574843,0.26574843 0 0 0 0.0141,0.0487 l -7.5e-4,-0.003 0.25162,0.64688 5.7e-4,-0.006 a 0.26574843,0.26574843 0 0 0 0.0244,0.0469 l -1.9e-4,0.006 0.35794,0.55313 -1.9e-4,0.001 a 0.26574843,0.26574843 0 0 0 0.0319,0.0403 l 0.004,0.005 0.45356,0.46875 1.9e-4,-0.003 a 0.26574843,0.26574843 0 0 0 0.0384,0.0328 l 2.8e-4,-0.002 0.53156,0.375 -9e-5,0.003 a 0.26574843,0.26574843 0 0 0 0.0441,0.0244 l 0.002,7.5e-4 0.59175,0.2625 10e-4,0.003 a 0.26574843,0.26574843 0 0 0 0.0487,0.0159 l -5.7e-4,-1.9e-4 0.63779,0.15 9e-5,-0.004 a 0.26574843,0.26574843 0 0 0 0.0516,0.009 l -0.002,-0.005 0.66619,0.0281 0.002,-8.5e-4 a 0.26574843,0.26574843 0 0 0 0.0525,0 l -10e-4,8.5e-4 0.68025,-0.12188 v 0 l 0.0319,-0.009 v 0 l 11.04806,-3.32813 v 0 l 2.74603,10.04063 v 0 l -16.77047,5.11875 v 0 l -10.16925,3.09375 z"
         id="path624" />
      <path
         style="display:inline;fill:none;stroke:#ff0000;stroke-width:0.9;stroke-miterlimit:4;stroke-dasharray:none"
         d="m 622.54189,243.89817 a 1.4173228,1.4173228 0 0 1 -0.92869,1.77628 l 10e-4,-0.006 -3.21028,1.0125 0.002,-6.6e-4 a 1.4173228,1.4173228 0 0 1 -1.77628,-0.92859 l -10e-4,0.001 -7.37719,-23.54062 10e-4,0.005 a 1.4173228,1.4173228 0 0 1 0.92841,-1.77646 l -0.001,-3.8e-4 3.21028,-1.00312 10e-4,-0.003 a 1.4173228,1.4173228 0 0 1 1.7761,0.92822 l -0.002,0.003 6.31772,20.14688 v 0 l 1.05947,3.38437 z"
         id="path922" />
      <path
         d="m 672.87561,283.63157 a 4.91105,4.91105 0 0 1 -9.8221,0 v -3.7e-4 a 4.9110234,4.9110234 0 0 1 4.91091,-4.91082 v 0 a 4.9110234,4.9110234 0 0 1 4.91119,4.91082 z"
         style="display:inline;fill:none;stroke:#ff0000;stroke-width:0.9;stroke-miterlimit:4;stroke-dasharray:none"
         id="path940" />
      <path
         d="m 773.15473,166.01151 a 4.9110234,4.9110234 0 0 1 -9.822,0 v -3.7e-4 a 4.9110234,4.9110234 0 0 1 9.822,0 z"
         style="display:inline;fill:none;stroke:#ff0000;stroke-width:0.9;stroke-miterlimit:4;stroke-dasharray:none"
         id="path946" />
      <path
         d="m 663.05351,51.944993 a 4.91105,4.91105 0 0 1 9.8221,0 v 3.57e-4 a 4.9110234,4.9110234 0 0 1 -5.53697,4.870753 v 0 a 4.9110234,4.9110234 0 0 1 -4.28513,-4.870753 z"
         style="display:inline;fill:none;stroke:#ff0000;stroke-width:0.9;stroke-miterlimit:4;stroke-dasharray:none"
         id="path950" />
      <path
         d="m 621.6133,87.180884 a 1.4173228,1.4173228 0 0 1 0.9285,1.776471 l 0.001,-9.37e-4 -7.37719,23.540622 0.002,-0.005 a 1.4173228,1.4173228 0 0 1 -1.77637,0.92831 l -0.001,-0.005 -3.21028,-1.00312 10e-4,0.001 a 1.4173228,1.4173228 0 0 1 -0.92841,-1.77647 l -0.001,0.003 7.37719,-23.53125 10e-4,-0.0066 a 1.4173228,1.4173228 0 0 1 1.77637,-0.928312 l -0.002,0.0067 3.21028,1.003125 z"
         style="display:inline;fill:none;stroke:#ff0000;stroke-width:0.9;stroke-miterlimit:4;stroke-dasharray:none"
         id="path956" />
      <path
         style="display:inline;fill:none;stroke:#ff0000;stroke-width:0.9;stroke-miterlimit:4;stroke-dasharray:none"
         d="m 593.17836,105.64289 a 1.4173228,1.4173228 0 0 1 -1.77638,0.92831 l -10e-4,8.4e-4 -3.21019,-1.00312 10e-4,-0.004 a 1.4173228,1.4173228 0 0 1 -0.92841,-1.77647 l -10e-4,-7.5e-4 7.37719,-23.531255 -0.002,-0.0025 a 1.4173228,1.4173228 0 0 1 1.77619,-0.9285 l 0.002,0.0029 3.21019,1.003125 -10e-4,2.81e-4 a 1.4173228,1.4173228 0 0 1 0.9285,1.776656 l 10e-4,0.0043 -0.11343,0.35625 v 0 l -7.26375,23.175003 z"
         id="path972" />
      <path
         style="display:inline;fill:none;stroke:#ff0000;stroke-width:0.9;stroke-miterlimit:4;stroke-dasharray:none"
         d="M 589.45555,181.59079 Z"
         id="path690" />
      <path
         style="display:inline;fill:none;stroke:#ff0000;stroke-width:0.9;stroke-miterlimit:4;stroke-dasharray:none"
         d="m 589.26777,180.55954 v -0.009 z"
         id="path694" />
      <path
         style="display:inline;fill:none;stroke:#ff0000;stroke-width:0.9;stroke-miterlimit:4;stroke-dasharray:none"
         d="M 589.09058,179.55642 Z"
         id="path698" />
      <path
         style="display:inline;fill:none;stroke:#ff0000;stroke-width:0.9;stroke-miterlimit:4;stroke-dasharray:none"
         d="M 588.92398,178.60017 Z"
         id="path702" />
      <path
         style="display:inline;fill:none;stroke:#ff0000;stroke-width:0.9;stroke-miterlimit:4;stroke-dasharray:none"
         d="m 588.6193,176.78142 v -0.009 z"
         id="path706" />
      <path
         style="display:inline;fill:none;stroke:#ff0000;stroke-width:0.9;stroke-miterlimit:4;stroke-dasharray:none"
         d="M 588.35352,175.07517 Z"
         id="path710" />
      <path
         style="display:inline;fill:none;stroke:#ff0000;stroke-width:0.9;stroke-miterlimit:4;stroke-dasharray:none"
         d="m 588.12683,173.47204 v -0.009 z"
         id="path714" />
      <path
         style="display:inline;fill:none;stroke:#ff0000;stroke-width:0.9;stroke-miterlimit:4;stroke-dasharray:none"
         d="m 587.93895,171.95329 v -0.009 z"
         id="path718" />
      <path
         style="display:inline;fill:none;stroke:#ff0000;stroke-width:0.9;stroke-miterlimit:4;stroke-dasharray:none"
         d="m 587.79373,170.50017 v -0.009 z"
         id="path722" />
      <path
         style="display:inline;fill:none;stroke:#ff0000;stroke-width:0.9;stroke-miterlimit:4;stroke-dasharray:none"
         d="m 587.68742,169.09392 v -0.009 z"
         id="path726" />
      <path
         style="display:inline;fill:none;stroke:#ff0000;stroke-width:0.9;stroke-miterlimit:4;stroke-dasharray:none"
         d="m 587.62011,167.72517 v -0.009 z"
         id="path730" />
      <path
         style="display:inline;fill:none;stroke:#ff0000;stroke-width:0.9;stroke-miterlimit:4;stroke-dasharray:none"
         d="M 587.59527,166.36579 Z"
         id="path734" />
      <path
         style="display:inline;fill:none;stroke:#ff0000;stroke-width:0.9;stroke-miterlimit:4;stroke-dasharray:none"
         d="m 587.60942,165.01579 v -0.009 z"
         id="path738" />
      <path
         style="display:inline;fill:none;stroke:#ff0000;stroke-width:0.9;stroke-miterlimit:4;stroke-dasharray:none"
         d="m 587.66258,163.64704 v -0.009 z"
         id="path742" />
      <path
         style="display:inline;fill:none;stroke:#ff0000;stroke-width:0.9;stroke-miterlimit:4;stroke-dasharray:none"
         d="M 587.7583,162.24079 Z"
         id="path746" />
      <path
         style="display:inline;fill:none;stroke:#ff0000;stroke-width:0.9;stroke-miterlimit:4;stroke-dasharray:none"
         d="m 587.89292,160.78767 v -0.009 z"
         id="path750" />
      <path
         style="display:inline;fill:none;stroke:#ff0000;stroke-width:0.9;stroke-miterlimit:4;stroke-dasharray:none"
         d="m 588.06655,159.26892 v -0.009 z"
         id="path754" />
      <path
         style="display:inline;fill:none;stroke:#ff0000;stroke-width:0.9;stroke-miterlimit:4;stroke-dasharray:none"
         d="m 588.28264,157.66579 v -0.009 z"
         id="path758" />
      <path
         style="display:inline;fill:none;stroke:#ff0000;stroke-width:0.9;stroke-miterlimit:4;stroke-dasharray:none"
         d="M 588.53427,155.95954 Z"
         id="path762" />
      <path
         style="display:inline;fill:none;stroke:#ff0000;stroke-width:0.9;stroke-miterlimit:4;stroke-dasharray:none"
         d="M 588.82836,154.13142 Z"
         id="path766" />
    </g>
    <g
       transform="translate(-478.69288,-87.687505)"
       id="g64"
       style="stroke:#ff0000;stroke-width:0.9;stroke-miterlimit:4;stroke-dasharray:none">
      <path
         style="display:inline;fill:none;stroke:#ff0000;stroke-width:0.9;stroke-miterlimit:4;stroke-dasharray:none"
         d="m 619.19798,345.3808 a 0.26574843,0.26574843 0 0 0 -0.1687,-0.0604 l -3.6e-4,1.8e-4 H 479.6852 l -1e-5,-2.1e-4 a 0.26574843,0.26574843 0 0 0 -0.26574,0.26575 l -3e-5,-2.3e-4 v 28.34344 l 3e-5,0.003 a 0.26574843,0.26574843 0 0 0 0.26574,0.26569 l 1e-5,0.003 h 10.71853 v 0 208.14375 0 H 479.6852 l -1e-5,-0.006 a 0.26574843,0.26574843 0 0 0 -0.26574,0.26578 l -3e-5,0.002 v 28.35 l 3e-5,-0.002 a 0.26574843,0.26574843 0 0 0 0.26574,0.26578 l 1e-5,-8.4e-4 h 139.10653 l 1.6e-4,8.4e-4 a 0.26574843,0.26574843 0 0 0 0.17146,-0.0628 l 0.002,-0.004 116.85843,-98.69063 0.002,0.003 a 0.26574843,0.26574843 0 0 0 0.0943,-0.20307 l -2.2e-4,0.004 v -70.875 l 2.2e-4,0.002 a 0.26574843,0.26574843 0 0 0 -0.0971,-0.20531 l -0.003,-0.003 -110.14687,-90.48281 v 0 l -6.47719,-5.31844 z"
         id="path1368" />
      <path
         d="m 540.52023,362.42748 a 4.9110238,4.9110238 0 1 0 -9.82204,0 4.9110238,4.9110238 0 1 0 9.82204,0 z"
         style="display:inline;fill:none;stroke:#ff0000;stroke-width:0.9;stroke-miterlimit:4;stroke-dasharray:none"
         id="path1032" />
      <path
         d="m 540.52023,594.11369 a 4.9110238,4.9110238 0 1 0 -9.82204,0 4.9110238,4.9110238 0 1 0 9.82204,0 z"
         style="display:inline;fill:none;stroke:#ff0000;stroke-width:0.9;stroke-miterlimit:4;stroke-dasharray:none"
         id="path1350" />
      <path
         style="display:inline;fill:none;stroke:#ff0000;stroke-width:0.9;stroke-miterlimit:4;stroke-dasharray:none"
         d="m 536.51626,388.67622 28.99135,9.0375 v 0 l -8.56416,27.32813 v 0 l -28.99134,-9.04688 v 0 l 0.61659,-1.95937 v 0 z"
         id="path1034" />
      <path
         style="display:inline;fill:none;stroke:#ff0000;stroke-width:0.9;stroke-miterlimit:4;stroke-dasharray:none"
         d="m 535.09192,442.48872 -0.25163,0.35625 v 0 l -0.0177,0.0281 v 0 l -0.20194,0.39375 0.001,0.003 a 0.26574843,0.26574843 0 0 0 -0.0142,0.0328 l -10e-4,0.001 -0.14887,0.42187 10e-4,-0.005 a 0.26574843,0.26574843 0 0 0 -0.0111,0.0412 l -7.3e-4,0.001 -0.31181,1.71563 v 0 l -0.30122,1.65937 v 0 l -0.29409,1.59375 v 0 l -0.27985,1.52813 v 0 l -0.2729,1.47187 v 0 l -0.26222,1.41563 v 0 l -0.25153,1.35937 v 0 l -0.24094,1.30313 v 0 l -0.23034,1.25625 v 0 l -0.22322,1.20937 v 0 l -0.21263,1.1625 v 0 l -0.20193,1.11563 v 0 l -0.19135,1.06875 v 0 l -0.18065,1.04062 v 0 l -0.17363,0.99375 v 0 l -0.15947,0.95625 h -0.004 l -0.29053,1.82813 h -0.004 l -0.25163,1.69687 v 0.009 l -0.21609,1.59375 v 0.009 l -0.17363,1.50938 v 0.009 l -0.13462,1.45313 v 0 l -0.0957,1.39687 v 0.009 l -0.0532,1.35937 v 0.009 l -0.0141,1.35 v 0 l 0.0248,1.35 v 0.009 l 0.0673,1.35938 v 0.009 l 0.10631,1.39688 v 0.009 l 0.14522,1.44375 v 0.009 l 0.18788,1.50937 v 0.009 l 0.22322,1.60312 h 0.003 l 0.26578,1.69688 v 0.009 l 0.30468,1.81875 v 0 l 0.1666,0.95625 v 0 l 0.17719,0.99375 v 0.009 l 0.18778,1.03125 v 0 l 0.19837,1.07812 v 0 l 0.20906,1.11563 v 0 l 0.21619,1.15312 v 0 l 0.22678,1.20938 v 0 l 0.24094,1.25625 v 0 l 0.2445,1.30312 v 0 l 0.25866,1.35938 v 0 l 0.26925,1.41562 v 0 l 0.27637,1.47188 v 0 l 0.28706,1.52812 v 0 l 0.29757,1.59375 v 0 l 0.30825,1.65938 v 0 l 0.31537,1.71562 8.9e-4,10e-4 a 0.26574843,0.26574843 0 0 0 0.0139,0.0487 l -6.1e-4,-0.003 0.25162,0.64687 5.8e-4,-0.006 a 0.26574843,0.26574843 0 0 0 0.0241,0.0469 l 8e-5,0.006 0.35794,0.55312 -1.5e-4,10e-4 a 0.26574843,0.26574843 0 0 0 0.0322,0.0403 l 0.003,0.005 0.45356,0.46875 1.5e-4,-0.003 a 0.26574843,0.26574843 0 0 0 0.0387,0.0328 l 4e-5,-0.002 0.53156,0.375 -9e-5,0.003 a 0.26574843,0.26574843 0 0 0 0.044,0.0244 l 0.002,7.5e-4 0.59175,0.2625 10e-4,0.003 a 0.26574843,0.26574843 0 0 0 0.0483,0.0159 l -9e-5,-1.8e-4 0.63779,0.15 9e-5,-0.004 a 0.26574843,0.26574843 0 0 0 0.0514,0.009 l -0.002,-0.005 0.66619,0.0281 0.002,-8.4e-4 a 0.26574843,0.26574843 0 0 0 0.0527,0 l -10e-4,8.4e-4 0.68025,-0.12187 v 0 l 0.0319,-0.009 v 0 l 11.04806,-3.32812 v 0 l 2.74603,10.04062 v 0 l -26.93972,8.2125 v 0 l -1.21535,-3.36562 v 0 l -1.21182,-3.525 v 0 l -1.12322,-3.45938 v 0 l -1.03465,-3.40312 v 0 l -0.9496,-3.3375 v 0 l -0.86457,-3.29063 v 0 l -0.77599,-3.23437 v 0 l -0.69448,-3.1875 v 0 l -0.60591,-3.15 v 0 l -0.52086,-3.12188 v 0 l -0.43937,-3.075 v 0 l -0.35434,-3.05625 v 0 l -0.26929,-3.02812 v 0 l -0.1878,-3.01875 v 0 l -0.10275,-3 h 4e-5 l -0.0248,-2.98125 h -5e-5 l 0.0603,-2.99063 v 0 l 0.13819,-2.98125 v 0 l 0.21968,-2.98125 v 0 l 0.30118,-3 v 0 l 0.38268,-3.00937 v 0 l 0.46063,-3.02813 v 0 l 0.53859,-3.04687 v 0 l 0.62008,-3.075 v 0 l 0.69803,-3.10313 v 0 l 0.77598,-3.13125 v 0 l 0.8504,-3.1875 v 0 l 0.93188,-3.21562 v 0 l 1.00631,-3.27188 v 0 l 1.08425,-3.31875 v 0 l 1.15866,-3.38437 v 0 l 1.14803,-3.20625 v 0 l 26.8051,8.37187 v 0 l -2.70357,9.90938 v 0 l -10.95937,-3.4875 v 0 l -0.032,-0.009 v 0 l -0.49247,-0.0937 -1.4e-4,-0.003 a 0.26574843,0.26574843 0 0 0 -0.0413,0 l -10e-4,-0.006 -0.49603,-0.009 -0.002,-0.003 a 0.26574843,0.26574843 0 0 0 -0.0389,0 l 0.002,0.003 -0.49247,0.0562 -0.002,-8.4e-4 a 0.26574843,0.26574843 0 0 0 -0.0365,0.009 l -1.3e-4,8.5e-4 -0.48188,0.12187 v 0 l -0.0319,0.009 v 0 l -0.40753,0.16875 v 0 l -0.0283,0.009 v 0 l -0.38982,0.21563 v 0 l -0.0247,0.0188 v 0 l -0.3614,0.25312 v 0 l -0.0249,0.0188 v 0 l -0.32953,0.29063 v 0 l -0.0248,0.0188 v 0 l -0.29062,0.3375 v 0 l -0.0212,0.0281 z"
         id="path1044" />
      <path
         style="display:inline;fill:none;stroke:#ff0000;stroke-width:0.9;stroke-miterlimit:4;stroke-dasharray:none"
         d="m 527.95211,537.8231 28.99134,-9.04688 v 0 l 8.56416,27.32813 v 0 l -28.99135,9.04687 v 0 l -1.14797,-3.65625 v 0 z"
         id="path1340" />
      <path
         d="m 614.70291,594.11388 a 4.911025,4.911025 0 0 1 -9.82205,0 v -3.8e-4 a 4.9110234,4.9110234 0 0 1 1.66721,-3.68709 v 0 a 4.9110234,4.9110234 0 0 1 8.15484,3.68709 z"
         style="display:inline;fill:none;stroke:#ff0000;stroke-width:0.9;stroke-miterlimit:4;stroke-dasharray:none"
         id="path1352" />
      <path
         d="m 714.98204,476.49382 a 4.9110234,4.9110234 0 0 1 -9.82204,0 v -3.8e-4 a 4.9110234,4.9110234 0 0 1 9.82204,0 z"
         style="display:inline;fill:none;stroke:#ff0000;stroke-width:0.9;stroke-miterlimit:4;stroke-dasharray:none"
         id="path1358" />
      <path
         d="m 604.88086,362.4273 a 4.911025,4.911025 0 0 1 9.82205,0 v 3.6e-4 a 4.9110234,4.9110234 0 0 1 -1.76097,3.7675 v 0 a 4.9110234,4.9110234 0 0 1 -8.06108,-3.7675 z"
         style="display:inline;fill:none;stroke:#ff0000;stroke-width:0.9;stroke-miterlimit:4;stroke-dasharray:none"
         id="path1362" />
      <path
         style="display:inline;fill:none;stroke:#ff0000;stroke-width:0.9;stroke-miterlimit:4;stroke-dasharray:none"
         d="M 531.28286,492.0731 Z"
         id="path1216" />
      <path
         style="display:inline;fill:none;stroke:#ff0000;stroke-width:0.9;stroke-miterlimit:4;stroke-dasharray:none"
         d="m 531.09508,491.04185 v -0.009 z"
         id="path1220" />
      <path
         style="display:inline;fill:none;stroke:#ff0000;stroke-width:0.9;stroke-miterlimit:4;stroke-dasharray:none"
         d="M 530.91789,490.03872 Z"
         id="path1224" />
      <path
         style="display:inline;fill:none;stroke:#ff0000;stroke-width:0.9;stroke-miterlimit:4;stroke-dasharray:none"
         d="M 530.75129,489.08247 Z"
         id="path1228" />
      <path
         style="display:inline;fill:none;stroke:#ff0000;stroke-width:0.9;stroke-miterlimit:4;stroke-dasharray:none"
         d="m 530.44661,487.26372 v -0.009 z"
         id="path1232" />
      <path
         style="display:inline;fill:none;stroke:#ff0000;stroke-width:0.9;stroke-miterlimit:4;stroke-dasharray:none"
         d="m 530.18083,485.55747 h -0.004 z"
         id="path1236" />
      <path
         style="display:inline;fill:none;stroke:#ff0000;stroke-width:0.9;stroke-miterlimit:4;stroke-dasharray:none"
         d="m 529.95414,483.95435 v -0.009 z"
         id="path1240" />
      <path
         style="display:inline;fill:none;stroke:#ff0000;stroke-width:0.9;stroke-miterlimit:4;stroke-dasharray:none"
         d="m 529.76626,482.4356 v -0.009 z"
         id="path1244" />
      <path
         style="display:inline;fill:none;stroke:#ff0000;stroke-width:0.9;stroke-miterlimit:4;stroke-dasharray:none"
         d="m 529.62104,480.98247 v -0.009 z"
         id="path1248" />
      <path
         style="display:inline;fill:none;stroke:#ff0000;stroke-width:0.9;stroke-miterlimit:4;stroke-dasharray:none"
         d="m 529.51473,479.57622 v -0.009 z"
         id="path1252" />
      <path
         style="display:inline;fill:none;stroke:#ff0000;stroke-width:0.9;stroke-miterlimit:4;stroke-dasharray:none"
         d="m 529.44742,478.20747 v -0.009 z"
         id="path1256" />
      <path
         style="display:inline;fill:none;stroke:#ff0000;stroke-width:0.9;stroke-miterlimit:4;stroke-dasharray:none"
         d="M 529.42258,476.8481 Z"
         id="path1260" />
      <path
         style="display:inline;fill:none;stroke:#ff0000;stroke-width:0.9;stroke-miterlimit:4;stroke-dasharray:none"
         d="m 529.43673,475.4981 v -0.009 z"
         id="path1264" />
      <path
         style="display:inline;fill:none;stroke:#ff0000;stroke-width:0.9;stroke-miterlimit:4;stroke-dasharray:none"
         d="m 529.48989,474.12935 v -0.009 z"
         id="path1268" />
      <path
         style="display:inline;fill:none;stroke:#ff0000;stroke-width:0.9;stroke-miterlimit:4;stroke-dasharray:none"
         d="M 529.58561,472.7231 Z"
         id="path1272" />
      <path
         style="display:inline;fill:none;stroke:#ff0000;stroke-width:0.9;stroke-miterlimit:4;stroke-dasharray:none"
         d="m 529.72023,471.26997 v -0.009 z"
         id="path1276" />
      <path
         style="display:inline;fill:none;stroke:#ff0000;stroke-width:0.9;stroke-miterlimit:4;stroke-dasharray:none"
         d="m 529.89386,469.75122 v -0.009 z"
         id="path1280" />
      <path
         style="display:inline;fill:none;stroke:#ff0000;stroke-width:0.9;stroke-miterlimit:4;stroke-dasharray:none"
         d="m 530.10995,468.1481 v -0.009 z"
         id="path1284" />
      <path
         style="display:inline;fill:none;stroke:#ff0000;stroke-width:0.9;stroke-miterlimit:4;stroke-dasharray:none"
         d="m 530.36158,466.44185 h 0.004 z"
         id="path1288" />
      <path
         style="display:inline;fill:none;stroke:#ff0000;stroke-width:0.9;stroke-miterlimit:4;stroke-dasharray:none"
         d="m 530.65567,464.61372 h 0.004 z"
         id="path1292" />
    </g>
    <g
       transform="translate(175.43847,106.57262)"
       id="g70"
       style="stroke:#ff0000;stroke-width:0.9;stroke-miterlimit:4;stroke-dasharray:none">
      <path
         style="display:inline;fill:none;stroke:#ff0000;stroke-width:0.9;stroke-miterlimit:4;stroke-dasharray:none"
         d="M 25.537931,378.30623 A 25.068897,25.068897 0 0 0 0.46903169,403.37516 l -2.8125e-4,-0.003 v 3.54375 l 2.8125e-4,0.003 A 25.068897,25.068897 0 0 0 25.537941,431.98738 l -4.41e-4,-0.003 h 382.67718 l 4.1e-4,0.003 a 25.068897,25.068897 0 0 0 25.0689,-25.06894 l 3.8e-4,-0.003 v -3.54375 l -3.8e-4,0.003 a 25.068897,25.068897 0 0 0 -25.0689,-25.06893 l -4.1e-4,-0.003 h -26.31937 v 0 H 25.5375 Z"
         id="path1422" />
      <path
         d="m 35.902106,405.14685 a 10.364175,10.364175 0 1 0 -20.728349,0 10.364175,10.364175 0 1 0 20.728349,0 z"
         style="display:inline;fill:none;stroke:#ff0000;stroke-width:0.9;stroke-miterlimit:4;stroke-dasharray:none"
         id="path1408" />
      <path
         d="m 226.45407,405.14685 a 5.0492156,5.0492156 0 1 0 -10.09843,0 5.0492156,5.0492156 0 1 0 10.09843,0 z"
         style="display:inline;fill:none;stroke:#ff0000;stroke-width:0.9;stroke-miterlimit:4;stroke-dasharray:none"
         id="path1410" />
      <path
         d="m 387.69187,399.31232 h 21.26063 l -4.1e-4,-10e-4 a 5.7968502,5.7968502 0 0 1 0,11.59368 l 4.1e-4,0.005 h -21.26063 l 3.7e-4,-0.005 a 5.7968502,5.7968502 0 0 1 -5.79684,-5.79684 v 0 a 5.7968502,5.7968502 0 0 1 5.79684,-5.79684 z"
         style="display:inline;fill:none;stroke:#ff0000;stroke-width:0.9;stroke-miterlimit:4;stroke-dasharray:none"
         id="path1412" />
    </g>
    <g
       transform="translate(-86.201305,-216.84996)"
       id="g73"
       style="stroke:#ff0000;stroke-width:0.9;stroke-miterlimit:4;stroke-dasharray:none">
      <path
         style="display:inline;fill:none;stroke:#ff0000;stroke-width:0.9;stroke-miterlimit:4;stroke-dasharray:none"
         d="m 272.69326,510.31401 h 42.51965 l 10e-6,-10e-5 a 0.26574843,0.26574843 0 0 0 0.26575,-0.26569 l 2e-5,0.003 v -8.59688 0 h 10.36416 l -10e-6,10e-4 a 0.26574843,0.26574843 0 0 0 0.26574,-0.26578 l 5e-5,0.002 v -17.71875 h -5e-5 a 0.26574843,0.26574843 0 0 0 -0.26574,-0.26578 l 10e-6,0.003 h -10.36416 v 0 -8.59687 l -2e-5,0.001 a 0.26574843,0.26574843 0 0 0 -0.26575,-0.26578 l -10e-6,0.002 h -12.13584 v 0 -10.36875 l 2e-5,0.002 a 0.26574843,0.26574843 0 0 0 -0.26575,-0.26578 l 4e-5,8.5e-4 h -17.71659 l 2e-5,-8.5e-4 a 0.26574843,0.26574843 0 0 0 -0.26575,0.26578 l 4e-5,-0.002 v 10.36875 0 h -12.13584 l -3e-5,-0.002 a 0.26574843,0.26574843 0 0 0 -0.26574,0.26578 l -10e-6,-0.001 v 8.59687 0 h -10.36416 l -10e-6,-0.003 a 0.26574843,0.26574843 0 0 0 -0.26574,0.26578 h -3e-5 v 17.71875 l 3e-5,-0.002 a 0.26574843,0.26574843 0 0 0 0.26574,0.26578 l 10e-6,-10e-4 h 10.36416 v 0 8.59688 l 10e-6,-0.003 a 0.26574843,0.26574843 0 0 0 0.26574,0.26569 z"
         id="path1682-70" />
    </g>
    <g
       transform="rotate(180,384.28543,351.17583)"
       id="g78"
       style="stroke:#ff0000;stroke-width:0.9;stroke-miterlimit:4;stroke-dasharray:none">
      <path
         style="fill:none;stroke:#ff0000;stroke-width:0.9;stroke-miterlimit:4;stroke-dasharray:none"
         d="m 181.59739,647.23332 a 0.26574842,0.26574842 0 0 0 -0.17574,0.46509 h -0.002 a 35.167322,35.167322 0 0 1 0,52.75095 h 0.002 a 0.26574842,0.26574842 0 0 0 0.17575,0.46509 v -0.003 h 359.2378 l 4.2e-4,0.003 a 25.068897,25.068897 0 0 0 25.0689,-25.06893 l 3.9e-4,-0.003 v -3.54373 l -3.9e-4,0.003 a 25.068897,25.068897 0 0 0 -25.0689,-25.06893 l -4.2e-4,-0.003 H 359.0746 v 0 H 181.5974 Z"
         id="path30" />
      <path
         d="m 359.07456,674.07394 a 5.049215,5.049215 0 1 0 -10.09843,0 5.049215,5.049215 0 1 0 10.09843,0 z"
         style="fill:none;stroke:#ff0000;stroke-width:0.9;stroke-miterlimit:4;stroke-dasharray:none"
         id="path28" />
      <path
         d="m 520.31236,668.23939 h 21.26062 l -3.9e-4,-10e-4 a 5.7968504,5.7968504 0 0 1 0,11.5937 l 3.9e-4,0.005 h -21.26062 l 3.5e-4,-0.005 a 5.7968504,5.7968504 0 0 1 -5.79681,-5.79685 v 0 a 5.7968504,5.7968504 0 0 1 5.79681,-5.79685 z"
         style="fill:none;stroke:#ff0000;stroke-width:0.9;stroke-miterlimit:4;stroke-dasharray:none"
         id="path18" />
    </g>
    <g
       transform="rotate(-90,-109.87935,347.55463)"
       id="g81"
       style="stroke:#ff0000;stroke-width:0.9;stroke-miterlimit:4;stroke-dasharray:none">
      <path
         style="display:inline;fill:none;stroke:#ff0000;stroke-width:0.9;stroke-miterlimit:4;stroke-dasharray:none"
         d="m 183.52945,508.11457 h 42.51966 l 10e-6,-9e-5 a 0.26574843,0.26574843 0 0 0 0.26574,-0.26569 l 3e-5,0.003 v -8.59687 0 h 10.36416 l -1e-5,10e-4 a 0.26574843,0.26574843 0 0 0 0.26574,-0.26578 l 5e-5,0.002 v -17.71875 h -5e-5 a 0.26574843,0.26574843 0 0 0 -0.26574,-0.26578 l 1e-5,0.003 h -10.36416 v 0 -8.59687 l -3e-5,10e-4 a 0.26574843,0.26574843 0 0 0 -0.26574,-0.26578 l -10e-6,0.002 h -12.13585 v 0 -10.36875 l 2e-5,0.002 a 0.26574843,0.26574843 0 0 0 -0.26574,-0.26578 l 4e-5,8.5e-4 h -17.7166 l 2e-5,-8.5e-4 a 0.26574843,0.26574843 0 0 0 -0.26574,0.26578 l 4e-5,-0.002 v 10.36875 0 h -12.13585 l -2e-5,-0.002 a 0.26574843,0.26574843 0 0 0 -0.26575,0.26578 l -1e-5,-10e-4 v 8.59687 0 h -10.36416 v -0.003 a 0.26574843,0.26574843 0 0 0 -0.26575,0.26578 h -3e-5 v 17.71875 l 3e-5,-0.002 a 0.26574843,0.26574843 0 0 0 0.26575,0.26578 v -10e-4 h 10.36416 v 0 8.59687 l 1e-5,-0.003 a 0.26574843,0.26574843 0 0 0 0.26575,0.26569 z"
         id="path1682-0" />
    </g>
    <g
       transform="rotate(90,558.24294,474.57404)"
       id="g86"
       style="stroke:#ff0000;stroke-width:0.9;stroke-miterlimit:4;stroke-dasharray:none">
      <path
         style="fill:none;stroke:#ff0000;stroke-width:0.9;stroke-miterlimit:4;stroke-dasharray:none"
         d="m 181.59739,711.01284 a 0.26574842,0.26574842 0 0 0 -0.17574,0.4651 h -0.002 a 35.167322,35.167322 0 0 1 0,52.75095 h 0.002 a 0.26574842,0.26574842 0 0 0 0.17575,0.46509 v -0.003 h 359.2378 l 4.2e-4,0.003 a 25.068897,25.068897 0 0 0 25.0689,-25.06893 l 3.9e-4,-0.003 v -3.54373 l -3.9e-4,0.003 a 25.068897,25.068897 0 0 0 -25.0689,-25.06894 l -4.2e-4,-0.003 H 359.0746 v 0 H 181.5974 Z"
         id="path1608" />
      <path
         d="m 359.07456,737.85347 a 5.049215,5.049215 0 1 0 -10.09843,0 5.049215,5.049215 0 1 0 10.09843,0 z"
         style="fill:none;stroke:#ff0000;stroke-width:0.9;stroke-miterlimit:4;stroke-dasharray:none"
         id="path1606" />
      <path
         d="m 520.31236,732.01892 h 21.26062 l -3.9e-4,-10e-4 a 5.796855,5.796855 0 0 1 0,11.59371 l 3.9e-4,0.005 h -21.26062 l 3.5e-4,-0.005 a 5.7968504,5.7968504 0 0 1 -5.79681,-5.79686 v 0 a 5.7968504,5.7968504 0 0 1 5.79681,-5.79685 z"
         style="fill:none;stroke:#ff0000;stroke-width:0.9;stroke-miterlimit:4;stroke-dasharray:none"
         id="path1596" />
    </g>
    <g
       transform="rotate(90,482.37304,106.90674)"
       id="g102"
       style="stroke:#ff0000;stroke-width:0.9;stroke-miterlimit:4;stroke-dasharray:none">
      <path
         style="display:inline;fill:none;stroke:#ff0000;stroke-width:0.9;stroke-miterlimit:4;stroke-dasharray:none"
         d="m 485.75677,266.74846 a 0.26574843,0.26574843 0 0 0 0.26574,-0.26578 l 3e-5,0.002 v -35.16563 0 h 10.71844 l 4e-5,-0.003 a 0.26574843,0.26574843 0 0 0 0.26575,-0.26578 l -1e-5,-0.003 v -79.725 l 1e-5,0.003 a 0.26574843,0.26574843 0 0 0 -0.26575,-0.26569 l -4e-5,-9e-5 h -10.71844 v 0 -34.90312 0 h 10.71844 l 4e-5,0.002 a 0.26574843,0.26574843 0 0 0 0.26575,-0.26569 l -1e-5,0.002 V 36.168748 l 1e-5,-10e-4 a 0.26574843,0.26574843 0 0 0 -0.26575,-0.265781 l -4e-5,0.0043 h -10.71844 v 0 -35.1712492 l -3e-5,-3.5625e-4 A 0.26574843,0.26574843 0 0 0 485.75677,0.4688988 l -1e-5,-1.5e-4 h -12.40153 l -4e-5,1.5e-4 a 0.26574843,0.26574843 0 0 0 -0.26575,0.26574375 l 10e-6,3.5625e-4 v 10.1868752 0 h -17.18503 v 0 -10.1868752 l -1e-5,-3.5625e-4 A 0.26574843,0.26574843 0 0 0 455.63866,0.4688988 l -2e-5,-1.5e-4 h -12.40153 l -3e-5,1.5e-4 a 0.26574843,0.26574843 0 0 0 -0.26575,0.26574375 l -1e-5,3.5625e-4 v 35.1712492 0 h -10.71853 l 4e-5,-0.0043 a 0.26574843,0.26574843 0 0 0 -0.26575,0.265781 l 3e-5,10e-4 v 79.725001 l -3e-5,-0.002 a 0.26574843,0.26574843 0 0 0 0.26575,0.26569 l -4e-5,-0.002 h 10.71853 v 0 34.90312 0 h -10.71853 l 4e-5,9e-5 a 0.26574843,0.26574843 0 0 0 -0.26575,0.26569 l 3e-5,-0.003 v 79.725 l -3e-5,0.003 a 0.26574843,0.26574843 0 0 0 0.26575,0.26578 l -4e-5,0.003 h 10.71853 v 0 35.16563 l 1e-5,-0.002 a 0.26574843,0.26574843 0 0 0 0.26575,0.26578 l 3e-5,-0.002 h 21.25978 v 0 h 21.25987 z"
         id="path524" />
      <path
         d="m 469.54614,24.651936 a 5.0492156,5.0492156 0 1 0 -10.09843,0 5.0492156,5.0492156 0 1 0 10.09843,0 z"
         style="display:inline;fill:none;stroke:#ff0000;stroke-width:0.9;stroke-miterlimit:4;stroke-dasharray:none"
         id="path498" />
      <path
         d="m 469.54614,50.872404 a 5.0492156,5.0492156 0 1 0 -10.09843,0 5.0492156,5.0492156 0 1 0 10.09843,0 z"
         style="display:inline;fill:none;stroke:#ff0000;stroke-width:0.9;stroke-miterlimit:4;stroke-dasharray:none"
         id="path500" />
      <path
         d="m 469.54614,82.762217 a 5.0492156,5.0492156 0 1 0 -10.09843,0 5.0492156,5.0492156 0 1 0 10.09843,0 z"
         style="display:inline;fill:none;stroke:#ff0000;stroke-width:0.9;stroke-miterlimit:4;stroke-dasharray:none"
         id="path502" />
      <path
         d="m 469.54614,133.78584 a 5.0492156,5.0492156 0 1 0 -10.09843,0 5.0492156,5.0492156 0 1 0 10.09843,0 z"
         style="display:inline;fill:none;stroke:#ff0000;stroke-width:0.9;stroke-miterlimit:4;stroke-dasharray:none"
         id="path504" />
      <path
         d="m 469.54614,167.09287 a 5.0492156,5.0492156 0 1 0 -10.09843,0 5.0492156,5.0492156 0 1 0 10.09843,0 z"
         style="display:inline;fill:none;stroke:#ff0000;stroke-width:0.9;stroke-miterlimit:4;stroke-dasharray:none"
         id="path506" />
      <path
         d="m 469.54614,200.39999 a 5.0492156,5.0492156 0 1 0 -10.09843,0 5.0492156,5.0492156 0 1 0 10.09843,0 z"
         style="display:inline;fill:none;stroke:#ff0000;stroke-width:0.9;stroke-miterlimit:4;stroke-dasharray:none"
         id="path508" />
      <path
         d="m 469.54614,218.11649 a 5.0492156,5.0492156 0 1 0 -10.09843,0 5.0492156,5.0492156 0 1 0 10.09843,0 z"
         style="display:inline;fill:none;stroke:#ff0000;stroke-width:0.9;stroke-miterlimit:4;stroke-dasharray:none"
         id="path510" />
      <path
         d="m 469.54614,244.33696 a 5.0492156,5.0492156 0 1 0 -10.09843,0 5.0492156,5.0492156 0 1 0 10.09843,0 z"
         style="display:inline;fill:none;stroke:#ff0000;stroke-width:0.9;stroke-miterlimit:4;stroke-dasharray:none"
         id="path512" />
      <path
         style="display:inline;fill:none;stroke:#ff0000;stroke-width:0.9;stroke-miterlimit:4;stroke-dasharray:none"
         d="m 473.08945,255.93749 v 10.10625 0 h -17.18503 v 0 -10.10625 0 h 8.59247 v 0 z"
         id="path514" />
    </g>
    <g
       transform="rotate(180,288.64039,425.80773)"
       id="g105"
       style="stroke:#ff0000;stroke-width:0.9;stroke-miterlimit:4;stroke-dasharray:none">
      <path
         d="m 65.069561,457.88213 a 0.26574843,0.26574843 0 0 0 -0.265744,-0.26574 l -3.7e-5,2.6e-4 H 44.961292 v -2.6e-4 a 0.26574843,0.26574843 0 0 0 -0.265743,0.26574 v -1.6e-4 10.71843 0 h -17.18505 v 0 -10.71843 l 9e-6,1.6e-4 a 0.26574843,0.26574843 0 0 0 -0.265744,-0.26574 l -4.6e-5,2.6e-4 H 7.4022491 l -9.4e-6,-2.6e-4 a 0.26574843,0.26574843 0 0 0 -0.2657437,0.26574 l -2.81e-5,-1.6e-4 v 35.43656 l 2.81e-5,-0.003 a 0.26574843,0.26574843 0 0 0 0.2657437,0.26568 l 9.4e-6,10e-5 H 18.12078 v 0 79.19062 0 H 7.4022491 l -9.4e-6,0.002 a 0.26574843,0.26574843 0 0 0 -0.2657437,0.26569 l -2.81e-5,0.004 v 35.42812 l 2.81e-5,0.001 a 0.26574843,0.26574843 0 0 0 0.2657437,0.26578 l 9.4e-6,-0.004 H 18.12078 v 0 79.2 0 H 7.4022491 l -9.4e-6,-0.003 A 0.26574843,0.26574843 0 0 0 7.136496,688.1973 l -2.81e-5,-4.7e-4 v 35.4375 l 2.81e-5,-0.004 a 0.26574843,0.26574843 0 0 0 0.2657437,0.26578 l 9.4e-6,7.5e-4 H 27.244718 l 4.6e-5,-7.5e-4 a 0.26574843,0.26574843 0 0 0 0.265744,-0.26578 l -9e-6,0.004 v -10.36875 0 h 17.18505 v 0 10.36875 -0.004 a 0.26574843,0.26574843 0 0 0 0.265743,0.26578 v 7.5e-4 H 64.80378 l 3.7e-5,-7.5e-4 a 0.26574843,0.26574843 0 0 0 0.265744,-0.26578 v 0.004 -35.4375 4.7e-4 a 0.26574843,0.26574843 0 0 0 -0.265744,-0.26578 l -3.7e-5,0.003 H 54.085342 v 0 -79.2 0 H 64.80378 l 3.7e-5,0.004 a 0.26574843,0.26574843 0 0 0 0.265744,-0.26578 v -0.001 -35.42812 -0.004 a 0.26574843,0.26574843 0 0 0 -0.265744,-0.26569 l -3.7e-5,-0.002 H 54.085342 v 0 -79.19062 0 H 64.80378 l 3.7e-5,-10e-5 a 0.26574843,0.26574843 0 0 0 0.265744,-0.26568 v 0.003 -35.43656 z"
         style="display:inline;fill:none;stroke:#ff0000;stroke-width:0.9;stroke-miterlimit:4;stroke-dasharray:none"
         id="path1442" />
    </g>
    <g
       transform="translate(468.81792,-291.52912)"
       id="g108"
       style="stroke:#ff0000;stroke-width:0.9;stroke-miterlimit:4;stroke-dasharray:none">
      <path
         d="m 148.99515,456.51557 a 0.26574843,0.26574843 0 0 0 -0.26574,-0.26574 l -4e-5,2.6e-4 h -19.84249 v -2.6e-4 a 0.26574843,0.26574843 0 0 0 -0.26574,0.26574 v -1.7e-4 10.71844 0 h -17.18505 v 0 -10.71844 l 1e-5,1.7e-4 a 0.26574843,0.26574843 0 0 0 -0.26575,-0.26574 l -4e-5,2.6e-4 H 91.327838 l -1e-5,-2.6e-4 a 0.26574843,0.26574843 0 0 0 -0.265743,0.26574 l -2.9e-5,-1.7e-4 v 35.43656 l 2.9e-5,-0.003 a 0.26574843,0.26574843 0 0 0 0.265743,0.26569 l 1e-5,9e-5 h 10.718532 v 0 79.19063 0 H 91.327838 l -1e-5,0.002 a 0.26574843,0.26574843 0 0 0 -0.265743,0.26568 l -2.9e-5,0.004 v 35.42813 l 2.9e-5,10e-4 a 0.26574843,0.26574843 0 0 0 0.265743,0.26578 l 1e-5,-0.004 h 10.718532 v 0 79.2 0 H 91.327838 l -1e-5,-0.003 a 0.26574843,0.26574843 0 0 0 -0.265743,0.26578 l -2.9e-5,-4.6e-4 v 35.43749 l 2.9e-5,-0.004 a 0.26574843,0.26574843 0 0 0 0.265743,0.26578 l 1e-5,7.5e-4 h 19.842472 l 4e-5,-7.5e-4 a 0.26574843,0.26574843 0 0 0 0.26575,-0.26578 l -1e-5,0.004 v -10.36875 0 h 17.18505 v 0 10.36875 -0.004 a 0.26574843,0.26574843 0 0 0 0.26574,0.26578 v 7.5e-4 h 19.84249 l 4e-5,-7.5e-4 a 0.26574843,0.26574843 0 0 0 0.26574,-0.26578 v 0.004 -35.43749 4.6e-4 a 0.26574843,0.26574843 0 0 0 -0.26574,-0.26578 l -4e-5,0.003 h -10.71844 v 0 -79.2 0 h 10.71844 l 4e-5,0.004 a 0.26574843,0.26574843 0 0 0 0.26574,-0.26578 v -10e-4 -35.42813 -0.004 a 0.26574843,0.26574843 0 0 0 -0.26574,-0.26568 l -4e-5,-0.002 h -10.71844 v 0 -79.19063 0 h 10.71844 l 4e-5,-9e-5 a 0.26574843,0.26574843 0 0 0 0.26574,-0.26569 v 0.003 -35.43656 z"
         style="display:inline;fill:none;stroke:#ff0000;stroke-width:0.9;stroke-miterlimit:4;stroke-dasharray:none"
         id="path1442-6" />
    </g>
    <g
       id="g1364"
       style="display:inline"
       transform="translate(-363.87896,-6.8861252)">
      <path
         style="display:inline;fill:none;stroke:#ff0000;stroke-width:0.9375"
         d="m 726.07286,403.51708 h 38.4449"
         id="path1128" />
      <path
         style="display:inline;fill:none;stroke:#ff0000;stroke-width:0.9375"
         d="m 764.51776,403.51708 0.71222,-0.0375"
         id="path1130" />
      <path
         style="display:inline;fill:none;stroke:#ff0000;stroke-width:0.9375"
         d="m 765.22998,403.47958 0.68035,-0.10313"
         id="path1132" />
      <path
         style="display:inline;fill:none;stroke:#ff0000;stroke-width:0.9375"
         d="m 765.91033,403.37645 0.65906,-0.16875"
         id="path1134" />
      <path
         style="display:inline;fill:none;stroke:#ff0000;stroke-width:0.9375"
         d="m 766.56939,403.2077 0.63065,-0.225"
         id="path1136" />
      <path
         style="display:inline;fill:none;stroke:#ff0000;stroke-width:0.9375"
         d="m 767.20004,402.9827 0.60235,-0.29062"
         id="path1138" />
      <path
         style="display:inline;fill:none;stroke:#ff0000;stroke-width:0.9375"
         d="m 767.80239,402.69208 0.56344,-0.34688"
         id="path1140" />
      <path
         style="display:inline;fill:none;stroke:#ff0000;stroke-width:0.9375"
         d="m 768.36583,402.3452 0.5279,-0.38437"
         id="path1142" />
      <path
         style="display:inline;fill:none;stroke:#ff0000;stroke-width:0.9375"
         d="m 768.89373,401.96083 0.489,-0.45"
         id="path1144" />
      <path
         style="display:inline;fill:none;stroke:#ff0000;stroke-width:0.9375"
         d="m 769.38273,401.51083 0.44288,-0.4875"
         id="path1146" />
      <path
         style="display:inline;fill:none;stroke:#ff0000;stroke-width:0.9375"
         d="m 769.82561,401.02333 0.39337,-0.525"
         id="path1148" />
      <path
         style="display:inline;fill:none;stroke:#ff0000;stroke-width:0.9375"
         d="m 770.21898,400.49833 0.34369,-0.5625"
         id="path1150" />
      <path
         style="display:inline;fill:none;stroke:#ff0000;stroke-width:0.9375"
         d="m 770.56267,399.93583 0.28697,-0.60938"
         id="path1152" />
      <path
         style="display:inline;fill:none;stroke:#ff0000;stroke-width:0.9375"
         d="m 770.84964,399.32645 0.23034,-0.62812"
         id="path1154" />
      <path
         style="display:inline;fill:none;stroke:#ff0000;stroke-width:0.9375"
         d="m 771.07998,398.69833 0.17006,-0.65625"
         id="path1156" />
      <path
         style="display:inline;fill:none;stroke:#ff0000;stroke-width:0.9375"
         d="m 771.25004,398.04208 0.10275,-0.68438"
         id="path1158" />
      <path
         style="display:inline;fill:none;stroke:#ff0000;stroke-width:0.9375"
         d="m 771.35279,397.3577 0.0354,-0.7125"
         id="path1160" />
      <path
         style="display:inline;fill:none;stroke:#ff0000;stroke-width:0.9375"
         d="M 771.38823,396.6452 V 235.79833"
         id="path1162" />
      <path
         style="display:inline;fill:none;stroke:#ff0000;stroke-width:0.9375"
         d="m 771.38823,235.79833 -0.0354,-0.7125"
         id="path1164" />
      <path
         style="display:inline;fill:none;stroke:#ff0000;stroke-width:0.9375"
         d="m 771.35279,235.08583 -0.10275,-0.68438"
         id="path1166" />
      <path
         style="display:inline;fill:none;stroke:#ff0000;stroke-width:0.9375"
         d="m 771.25004,234.40145 -0.17006,-0.65625"
         id="path1168" />
      <path
         style="display:inline;fill:none;stroke:#ff0000;stroke-width:0.9375"
         d="m 771.07998,233.7452 -0.23034,-0.62812"
         id="path1170" />
      <path
         style="display:inline;fill:none;stroke:#ff0000;stroke-width:0.9375"
         d="m 770.84964,233.11708 -0.28697,-0.60938"
         id="path1172" />
      <path
         style="display:inline;fill:none;stroke:#ff0000;stroke-width:0.9375"
         d="m 770.56267,232.5077 -0.34369,-0.5625"
         id="path1174" />
      <path
         style="display:inline;fill:none;stroke:#ff0000;stroke-width:0.9375"
         d="m 770.21898,231.9452 -0.39337,-0.525"
         id="path1176" />
      <path
         style="display:inline;fill:none;stroke:#ff0000;stroke-width:0.9375"
         d="m 769.82561,231.4202 -0.44288,-0.4875"
         id="path1178" />
      <path
         style="display:inline;fill:none;stroke:#ff0000;stroke-width:0.9375"
         d="m 769.38273,230.9327 -0.489,-0.44062"
         id="path1180" />
      <path
         style="display:inline;fill:none;stroke:#ff0000;stroke-width:0.9375"
         d="m 768.89373,230.49208 -0.5279,-0.39375"
         id="path1182" />
      <path
         style="display:inline;fill:none;stroke:#ff0000;stroke-width:0.9375"
         d="m 768.36583,230.09833 -0.56344,-0.34688"
         id="path1184" />
      <path
         style="display:inline;fill:none;stroke:#ff0000;stroke-width:0.9375"
         d="m 767.80239,229.75145 -0.60235,-0.29062"
         id="path1186" />
      <path
         style="display:inline;fill:none;stroke:#ff0000;stroke-width:0.9375"
         d="m 767.20004,229.46083 -0.63065,-0.225"
         id="path1188" />
      <path
         style="display:inline;fill:none;stroke:#ff0000;stroke-width:0.9375"
         d="m 766.56939,229.23583 -0.65906,-0.16875"
         id="path1190" />
      <path
         style="display:inline;fill:none;stroke:#ff0000;stroke-width:0.9375"
         d="m 765.91033,229.06708 -0.68035,-0.10313"
         id="path1192" />
      <path
         style="display:inline;fill:none;stroke:#ff0000;stroke-width:0.9375"
         d="m 765.22998,228.96395 -0.71222,-0.0375"
         id="path1194" />
      <path
         style="display:inline;fill:none;stroke:#ff0000;stroke-width:0.9375"
         d="M 764.51776,228.92645 H 726.04098"
         id="path1196" />
      <path
         style="display:inline;fill:none;stroke:#ff0000;stroke-width:0.9375"
         d="m 726.04098,228.92645 -0.71222,0.0375"
         id="path1198" />
      <path
         style="display:inline;fill:none;stroke:#ff0000;stroke-width:0.9375"
         d="m 725.32876,228.96395 -0.68381,0.10313"
         id="path1200" />
      <path
         style="display:inline;fill:none;stroke:#ff0000;stroke-width:0.9375"
         d="m 724.64495,229.06708 -0.6555,0.16875"
         id="path1202" />
      <path
         style="display:inline;fill:none;stroke:#ff0000;stroke-width:0.9375"
         d="m 723.98945,229.23583 -0.63431,0.225"
         id="path1204" />
      <path
         style="display:inline;fill:none;stroke:#ff0000;stroke-width:0.9375"
         d="m 723.35514,229.46083 -0.59878,0.29062"
         id="path1206" />
      <path
         style="display:inline;fill:none;stroke:#ff0000;stroke-width:0.9375"
         d="m 722.75636,229.75145 -0.56691,0.34688"
         id="path1208" />
      <path
         style="display:inline;fill:none;stroke:#ff0000;stroke-width:0.9375"
         d="m 722.18945,230.09833 -0.528,0.39375"
         id="path1210" />
      <path
         style="display:inline;fill:none;stroke:#ff0000;stroke-width:0.9375"
         d="m 721.66145,230.49208 -0.48544,0.44062"
         id="path1212" />
      <path
         style="display:inline;fill:none;stroke:#ff0000;stroke-width:0.9375"
         d="m 721.17601,230.9327 -0.44287,0.4875"
         id="path1214" />
      <path
         style="display:inline;fill:none;stroke:#ff0000;stroke-width:0.9375"
         d="m 720.73314,231.4202 -0.39685,0.525"
         id="path1216-3" />
      <path
         style="display:inline;fill:none;stroke:#ff0000;stroke-width:0.9375"
         d="m 720.33629,231.9452 -0.34368,0.5625"
         id="path1218" />
      <path
         style="display:inline;fill:none;stroke:#ff0000;stroke-width:0.9375"
         d="m 719.99261,232.5077 -0.28707,0.60938"
         id="path1220-9" />
      <path
         style="display:inline;fill:none;stroke:#ff0000;stroke-width:0.9375"
         d="m 719.70554,233.11708 -0.23025,0.62812"
         id="path1222" />
      <path
         style="display:inline;fill:none;stroke:#ff0000;stroke-width:0.9375"
         d="m 719.47529,233.7452 -0.17015,0.65625"
         id="path1224-9" />
      <path
         style="display:inline;fill:none;stroke:#ff0000;stroke-width:0.9375"
         d="m 719.30514,234.40145 -0.10275,0.68438"
         id="path1226" />
      <path
         style="display:inline;fill:none;stroke:#ff0000;stroke-width:0.9375"
         d="m 719.20239,235.08583 -0.0354,0.7125"
         id="path1228-9" />
      <path
         style="display:inline;fill:none;stroke:#ff0000;stroke-width:0.9375"
         d="M 719.16695,235.79833 V 396.6452"
         id="path1230" />
      <path
         style="display:inline;fill:none;stroke:#ff0000;stroke-width:0.9375"
         d="m 719.16695,396.6452 0.0354,0.7125"
         id="path1232-5" />
      <path
         style="display:inline;fill:none;stroke:#ff0000;stroke-width:0.9375"
         d="m 719.20239,397.3577 0.10275,0.68438"
         id="path1234" />
      <path
         style="display:inline;fill:none;stroke:#ff0000;stroke-width:0.9375"
         d="m 719.30514,398.04208 0.17015,0.65625"
         id="path1236-1" />
      <path
         style="display:inline;fill:none;stroke:#ff0000;stroke-width:0.9375"
         d="m 719.47529,398.69833 0.23025,0.62812"
         id="path1238" />
      <path
         style="display:inline;fill:none;stroke:#ff0000;stroke-width:0.9375"
         d="m 719.70554,399.32645 0.28707,0.60938"
         id="path1240-7" />
      <path
         style="display:inline;fill:none;stroke:#ff0000;stroke-width:0.9375"
         d="m 719.99261,399.93583 0.34368,0.5625"
         id="path1242" />
      <path
         style="display:inline;fill:none;stroke:#ff0000;stroke-width:0.9375"
         d="m 720.33629,400.49833 0.39685,0.525"
         id="path1244-5" />
      <path
         style="display:inline;fill:none;stroke:#ff0000;stroke-width:0.9375"
         d="m 720.73314,401.02333 0.44287,0.4875"
         id="path1246" />
      <path
         style="display:inline;fill:none;stroke:#ff0000;stroke-width:0.9375"
         d="m 721.17601,401.51083 0.48544,0.45"
         id="path1248-0" />
      <path
         style="display:inline;fill:none;stroke:#ff0000;stroke-width:0.9375"
         d="m 721.66145,401.96083 0.528,0.38437"
         id="path1250" />
      <path
         style="display:inline;fill:none;stroke:#ff0000;stroke-width:0.9375"
         d="m 722.18945,402.3452 0.56691,0.34688"
         id="path1252-7" />
      <path
         style="display:inline;fill:none;stroke:#ff0000;stroke-width:0.9375"
         d="m 722.75636,402.69208 0.59878,0.29062"
         id="path1254" />
      <path
         style="display:inline;fill:none;stroke:#ff0000;stroke-width:0.9375"
         d="m 723.35514,402.9827 0.63431,0.225"
         id="path1256-4" />
      <path
         style="display:inline;fill:none;stroke:#ff0000;stroke-width:0.9375"
         d="m 723.98945,403.2077 0.6555,0.16875"
         id="path1258" />
      <path
         style="display:inline;fill:none;stroke:#ff0000;stroke-width:0.9375"
         d="m 724.64495,403.37645 0.68381,0.10313"
         id="path1260-7" />
      <path
         style="display:inline;fill:none;stroke:#ff0000;stroke-width:0.9375"
         d="m 725.32876,403.47958 0.71222,0.0375"
         id="path1262" />
      <path
         style="display:inline;fill:none;stroke:#ff0000;stroke-width:0.9375"
         d="m 726.04098,403.51708 h 0.0319"
         id="path1264-3" />
      <path
         style="display:inline;fill:none;stroke:#ff0000;stroke-width:0.9375"
         d="M 686.95473,403.51708 V 170.94677"
         id="path1266" />
      <path
         d="m 687.03255,170.75917 a 0.26574844,0.26574844 0 0 0 -0.0778,0.18786"
         style="display:inline;fill:none;stroke:#ff0000;stroke-width:0.9375"
         id="path1268-8" />
      <path
         style="display:inline;fill:none;stroke:#ff0000;stroke-width:0.9375"
         d="m 687.03254,170.75927 35.31985,-35.34844"
         id="path1270" />
      <path
         d="m 722.54022,135.33324 a 0.26574844,0.26574844 0 0 0 -0.18799,0.0779"
         style="display:inline;fill:none;stroke:#ff0000;stroke-width:0.9375"
         id="path1272-4" />
      <path
         style="display:inline;fill:none;stroke:#ff0000;stroke-width:0.9375"
         d="M 722.54017,135.33302 H 837.66939"
         id="path1274" />
      <path
         d="m 837.9351,135.59899 a 0.26574844,0.26574844 0 0 0 -0.26575,-0.26575"
         style="display:inline;fill:none;stroke:#ff0000;stroke-width:0.9375"
         id="path1276-7" />
      <path
         style="display:inline;fill:none;stroke:#ff0000;stroke-width:0.9375"
         d="m 837.93508,135.59927 v 26.43281"
         id="path1278" />
      <path
         d="m 837.9351,162.03206 a 10.364173,10.364173 0 0 0 10.36417,10.36418"
         style="display:inline;fill:none;stroke:#ff0000;stroke-width:0.9375"
         id="path1280-6" />
      <path
         style="display:inline;fill:none;stroke:#ff0000;stroke-width:0.9375"
         d="M 848.29923,172.39614 H 874.8738"
         id="path1282" />
      <path
         d="m 875.13982,172.66199 a 0.26574844,0.26574844 0 0 0 -0.26574,-0.26575"
         style="display:inline;fill:none;stroke:#ff0000;stroke-width:0.9375"
         id="path1284-2" />
      <path
         style="display:inline;fill:none;stroke:#ff0000;stroke-width:0.9375"
         d="M 875.14005,172.66239 V 454.45146"
         id="path1286" />
      <path
         d="m 875.06207,454.63839 a 0.26574844,0.26574844 0 0 0 0.0777,-0.18778"
         style="display:inline;fill:none;stroke:#ff0000;stroke-width:0.9375"
         id="path1288-6" />
      <path
         style="display:inline;fill:none;stroke:#ff0000;stroke-width:0.9375"
         d="M 875.06223,454.63896 839.7422,489.98271"
         id="path1290" />
      <path
         d="m 839.55439,490.0608 a 0.26574844,0.26574844 0 0 0 0.18798,-0.0778"
         style="display:inline;fill:none;stroke:#ff0000;stroke-width:0.9375"
         id="path1292-3" />
      <path
         style="display:inline;fill:none;stroke:#ff0000;stroke-width:0.9375"
         d="M 839.55442,490.05771 H 724.42529"
         id="path1294" />
      <path
         d="m 724.15951,489.79502 a 0.26574844,0.26574844 0 0 0 0.26575,0.26578"
         style="display:inline;fill:none;stroke:#ff0000;stroke-width:0.9375"
         id="path1296" />
      <path
         style="display:inline;fill:none;stroke:#ff0000;stroke-width:0.9375"
         d="M 724.15951,489.79521 V 463.21708"
         id="path1298" />
      <path
         d="M 724.15951,463.22027 A 10.364173,10.364173 0 0 0 713.79533,452.85611"
         style="display:inline;fill:none;stroke:#ff0000;stroke-width:0.9375"
         id="path1300" />
      <path
         style="display:inline;fill:none;stroke:#ff0000;stroke-width:0.9375"
         d="M 713.79536,452.85771 H 687.22098"
         id="path1302" />
      <path
         d="m 686.95478,452.59033 a 0.26574844,0.26574844 0 0 0 0.26575,0.26578"
         style="display:inline;fill:none;stroke:#ff0000;stroke-width:0.9375"
         id="path1304" />
      <path
         style="display:inline;fill:none;stroke:#ff0000;stroke-width:0.9375"
         d="M 686.95473,452.58583 V 403.51708"
         id="path1306" />
      <path
         d="m 837.9351,135.59899 a 0.26574844,0.26574844 0 0 0 -0.26575,-0.26575"
         style="display:inline;fill:none;stroke:#ff0000;stroke-width:0.9375"
         id="path166" />
      <path
         style="display:inline;fill:none;stroke:#ff0000;stroke-width:0.9375"
         d="m 837.93508,135.59927 v 26.43281"
         id="path168" />
      <path
         d="m 837.9351,162.03206 a 10.364173,10.364173 0 0 0 10.36417,10.36418"
         style="display:inline;fill:none;stroke:#ff0000;stroke-width:0.9375"
         id="path170" />
      <path
         style="display:inline;fill:none;stroke:#ff0000;stroke-width:0.9375"
         d="M 848.29923,172.39614 H 874.8738"
         id="path172" />
      <path
         d="m 875.13982,172.66199 a 0.26574844,0.26574844 0 0 0 -0.26574,-0.26575"
         style="display:inline;fill:none;stroke:#ff0000;stroke-width:0.9375"
         id="path174" />
      <path
         d="m 875.06207,454.63839 a 0.26574844,0.26574844 0 0 0 0.0777,-0.18778"
         style="display:inline;fill:none;stroke:#ff0000;stroke-width:0.9375"
         id="path178" />
      <path
         d="m 839.55439,490.0608 a 0.26574844,0.26574844 0 0 0 0.18798,-0.0778"
         style="display:inline;fill:none;stroke:#ff0000;stroke-width:0.9375"
         id="path182" />
      <path
         d="m 724.15951,489.79502 a 0.26574844,0.26574844 0 0 0 0.26575,0.26578"
         style="display:inline;fill:none;stroke:#ff0000;stroke-width:0.9375"
         id="path186" />
      <path
         style="display:inline;fill:none;stroke:#ff0000;stroke-width:0.9375"
         d="M 724.15951,489.79521 V 463.21708"
         id="path188" />
      <path
         d="M 724.15951,463.22027 A 10.364173,10.364173 0 0 0 713.79533,452.85611"
         style="display:inline;fill:none;stroke:#ff0000;stroke-width:0.9375"
         id="path190" />
      <path
         style="display:inline;fill:none;stroke:#ff0000;stroke-width:0.9375"
         d="M 713.79536,452.85771 H 687.22098"
         id="path192" />
      <path
         d="m 686.95478,452.59033 a 0.26574844,0.26574844 0 0 0 0.26575,0.26578"
         style="display:inline;fill:none;stroke:#ff0000;stroke-width:0.9375"
         id="path194" />
    </g>
  </g>
  <g
     inkscape:groupmode="layer"
     id="layer2"
     inkscape:label="Etching"
     style="display:inline"
     transform="translate(-0.27044401,-0.17360999)">
    <path
       id="rect853-49-6"
       d="m 461.24212,298.39218 v 94.8323 h -4.79004 l 10.09644,13.2843 10.09827,-13.2843 h -4.79004 v -94.8323 z"
       style="display:inline;fill:none;fill-opacity:1;stroke:#000000;stroke-width:1.875;stroke-miterlimit:4;stroke-dasharray:none;stroke-opacity:1"
       sodipodi:nodetypes="cccccccc" />
    <path
       id="rect853-4-8-5"
       d="m 461.24212,269.65222 v -35.17435 h -4.79004 l 10.09644,-13.2843 10.09827,13.2843 h -4.79004 v 35.17435 z"
       style="display:inline;fill:none;fill-opacity:1;stroke:#000000;stroke-width:1.875;stroke-miterlimit:4;stroke-dasharray:none;stroke-opacity:1"
       sodipodi:nodetypes="cccccccc" />
    <path
       id="rect853-49-4-0"
       d="m 463.57627,380.16531 v 15.25609 h -2.68338 l 5.65603,7.44188 5.65706,-7.44188 h -2.68338 v -15.25609 z"
       style="display:inline;fill:#000000;fill-opacity:1;stroke:#000000;stroke-width:0.795697;stroke-miterlimit:4;stroke-dasharray:none;stroke-opacity:1" />
    <flowRoot
       transform="matrix(0.93750002,0,0,0.93750002,226.36637,56.71774)"
       style="font-style:normal;font-variant:normal;font-weight:normal;font-stretch:normal;font-size:40px;line-height:1.25;font-family:Bahnschrift;-inkscape-font-specification:'Bahnschrift, Normal';font-variant-ligatures:normal;font-variant-caps:normal;font-variant-numeric:normal;text-align:start;letter-spacing:0px;word-spacing:0px;writing-mode:lr-tb;text-anchor:start;display:inline;fill:#000000;fill-opacity:1;stroke:none"
       id="flowRoot1243-6"
       xml:space="preserve"><flowRegion
         id="flowRegion1245-9"><rect
           y="356.97998"
           x="233.5"
           height="109"
           width="1333"
           id="rect1247-4" /></flowRegion><flowPara
         style="font-style:normal;font-variant:normal;font-weight:normal;font-stretch:normal;font-size:16px;font-family:Bahnschrift;-inkscape-font-specification:'Bahnschrift, Normal';font-variant-ligatures:normal;font-variant-caps:normal;font-variant-numeric:normal;font-feature-settings:normal;text-align:start;writing-mode:lr-tb;text-anchor:start"
         id="flowPara1249-5">DOWN</flowPara></flowRoot>
    <flowRoot
       transform="matrix(0.93750002,0,0,0.93750002,237.88736,-166.26083)"
       style="font-style:normal;font-variant:normal;font-weight:normal;font-stretch:normal;font-size:40px;line-height:1.25;font-family:Bahnschrift;-inkscape-font-specification:'Bahnschrift, Normal';font-variant-ligatures:normal;font-variant-caps:normal;font-variant-numeric:normal;text-align:start;letter-spacing:0px;word-spacing:0px;writing-mode:lr-tb;text-anchor:start;display:inline;fill:#000000;fill-opacity:1;stroke:none"
       id="flowRoot1243-7-5"
       xml:space="preserve"><flowRegion
         id="flowRegion1245-2-7"><rect
           y="356.97998"
           x="233.5"
           height="109"
           width="1333"
           id="rect1247-8-4" /></flowRegion><flowPara
         style="font-style:normal;font-variant:normal;font-weight:normal;font-stretch:normal;font-size:16px;font-family:Bahnschrift;-inkscape-font-specification:'Bahnschrift, Normal';font-variant-ligatures:normal;font-variant-caps:normal;font-variant-numeric:normal;font-feature-settings:normal;text-align:start;writing-mode:lr-tb;text-anchor:start"
         id="flowPara1249-6-7">UP</flowPara></flowRoot>
  </g>
</svg>
