<?xml version="1.0" encoding="UTF-8" standalone="no"?>
<!-- Created with Inkscape (http://www.inkscape.org/) -->

<svg
   width="210mm"
   height="297mm"
   viewBox="0 0 210 297"
   version="1.1"
   id="svg1"
   xml:space="preserve"
   inkscape:version="1.3 (0e150ed6c4, 2023-07-21)"
   sodipodi:docname="OH_10_V2.svg"
   xmlns:inkscape="http://www.inkscape.org/namespaces/inkscape"
   xmlns:sodipodi="http://sodipodi.sourceforge.net/DTD/sodipodi-0.dtd"
   xmlns="http://www.w3.org/2000/svg"
   xmlns:svg="http://www.w3.org/2000/svg"><sodipodi:namedview
     id="namedview1"
     pagecolor="#505050"
     bordercolor="#ffffff"
     borderopacity="1"
     inkscape:showpageshadow="0"
     inkscape:pageopacity="0"
     inkscape:pagecheckerboard="1"
     inkscape:deskcolor="#d1d1d1"
     inkscape:document-units="mm"
     inkscape:zoom="1.8872648"
     inkscape:cx="295.13611"
     inkscape:cy="549.73737"
     inkscape:current-layer="layer1" /><defs
     id="defs1"><rect
       x="73.067698"
       y="189.50461"
       width="118.54514"
       height="44.876585"
       id="rect3658" /><rect
       x="73.067696"
       y="189.50461"
       width="118.54514"
       height="44.876583"
       id="rect3658-3" /><rect
       x="73.067696"
       y="189.50461"
       width="118.54514"
       height="44.876583"
       id="rect3658-3-1" /><rect
       x="73.067696"
       y="189.50461"
       width="118.54514"
       height="44.876583"
       id="rect3658-3-1-0" /><rect
       x="73.067696"
       y="189.50461"
       width="151.21181"
       height="33.679334"
       id="rect3658-3-1-3" /><rect
       x="73.067696"
       y="189.50461"
       width="151.21181"
       height="33.679333"
       id="rect3658-3-1-3-5" /><rect
       x="73.067696"
       y="189.50461"
       width="151.21181"
       height="33.679333"
       id="rect3658-3-1-3-5-0" /><rect
       x="73.067696"
       y="189.50461"
       width="151.21181"
       height="33.679333"
       id="rect3658-3-1-3-5-0-8" /><rect
       x="73.067696"
       y="189.50461"
       width="151.21181"
       height="33.679333"
       id="rect3658-3-1-3-5-9" /><rect
       x="73.067696"
       y="189.50461"
       width="151.21181"
       height="33.679333"
       id="rect3658-3-1-3-53" /><rect
       x="73.067696"
       y="189.50461"
       width="151.21181"
       height="33.679333"
       id="rect3658-3-1-3-53-7" /><rect
       x="73.067696"
       y="189.50461"
       width="151.21181"
       height="33.679333"
       id="rect3658-3-1-3-5-09" /></defs><g
     inkscape:label="Layer 1"
     inkscape:groupmode="layer"
     id="layer1"><path
       d="m 178.10511,106.3875 a 0.75,0.75 0 0 0 -0.75,-0.75 H 32.805107 a 0.75,0.75 0 0 0 -0.75,0.75 v 84.225 a 0.75,0.75 0 0 0 0.75,0.75 H 177.35511 a 0.75,0.75 0 0 0 0.75,-0.75 z"
       fill="#000000"
       stroke-linecap="round"
       stroke-linejoin="round"
       id="path1053"
       style="fill:none;stroke:#f70101;stroke-width:0.5;stroke-dasharray:none;stroke-opacity:1" /><path
       d="m 160.30316,180.56318 a 1.6,1.6 0 1 0 3.2,0 1.6,1.6 0 1 0 -3.2,0 z"
       fill="#ffffff"
       stroke="#000000"
       stroke-width="0.001cm"
       stroke-linecap="round"
       stroke-linejoin="round"
       id="path1055"
       style="fill:none;stroke:#f70101;stroke-width:0.5;stroke-dasharray:none;stroke-opacity:1" /><path
       d="m 160.28605,130.05309 a 1.6,1.6 0 1 0 3.2,0 1.6,1.6 0 1 0 -3.2,0 z"
       fill="#ffffff"
       stroke="#000000"
       stroke-width="0.001cm"
       stroke-linecap="round"
       stroke-linejoin="round"
       id="path1057"
       style="fill:none;stroke:#f70101;stroke-width:0.5;stroke-dasharray:none;stroke-opacity:1" /><path
       d="m 46.654082,180.56318 a 1.6,1.6 0 1 0 3.2,0 1.6,1.6 0 1 0 -3.2,0 z"
       fill="#ffffff"
       stroke="#000000"
       stroke-width="0.001cm"
       stroke-linecap="round"
       stroke-linejoin="round"
       id="path1059"
       style="fill:none;stroke:#f70101;stroke-width:0.5;stroke-dasharray:none;stroke-opacity:1" /><path
       d="m 46.654082,130.06351 a 1.6,1.6 0 1 0 3.2,0 1.6,1.6 0 1 0 -3.2,0 z"
       fill="#ffffff"
       stroke="#000000"
       stroke-width="0.001cm"
       stroke-linecap="round"
       stroke-linejoin="round"
       id="path1061"
       style="fill:none;stroke:#f70101;stroke-width:0.5;stroke-dasharray:none;stroke-opacity:1" /><path
       d="m 137.1986,152.1945 v -11.85 a 0.5,0.5 0 0 1 0.5,-0.5 h 24.55 a 0.5,0.5 0 0 1 0.5,0.5 v 11.85 a 0.5,0.5 0 0 1 -0.5,0.5 h -24.55 a 0.5,0.5 0 0 1 -0.5,-0.5 z"
       fill="#ffffff"
       stroke="#000000"
       stroke-width="0.001cm"
       stroke-linecap="round"
       stroke-linejoin="round"
       id="path1063"
       style="fill:none;stroke:#f70101;stroke-width:0.5;stroke-dasharray:none;stroke-opacity:1" /><path
       d="m 109.0411,152.1945 v -24.3 a 0.5,0.5 0 0 1 0.49999,-0.5 h 24.55001 a 0.5,0.5 0 0 1 0.5,0.5 v 24.3 a 0.5,0.5 0 0 1 -0.5,0.5 h -24.55001 a 0.5,0.5 0 0 1 -0.49999,-0.5 z"
       fill="#ffffff"
       stroke="#000000"
       stroke-width="0.001cm"
       stroke-linecap="round"
       stroke-linejoin="round"
       id="path1065"
       style="fill:none;stroke:#f70101;stroke-width:0.5;stroke-dasharray:none;stroke-opacity:1" /><path
       d="m 75.441095,152.1945 v -24.3 a 0.5,0.5 0 0 1 0.5,-0.5 H 100.4911 a 0.5,0.5 0 0 1 0.5,0.5 v 24.3 a 0.5,0.5 0 0 1 -0.5,0.5 H 75.941095 a 0.5,0.5 0 0 1 -0.5,-0.5 z"
       fill="#ffffff"
       stroke="#000000"
       stroke-width="0.001cm"
       stroke-linecap="round"
       stroke-linejoin="round"
       id="path1067"
       style="fill:none;stroke:#f70101;stroke-width:0.5;stroke-dasharray:none;stroke-opacity:1" /><path
       d="m 47.412345,152.1945 v -11.85 a 0.5,0.5 0 0 1 0.5,-0.5 h 24.55 a 0.5,0.5 0 0 1 0.5,0.5 v 11.85 a 0.5,0.5 0 0 1 -0.5,0.5 H 47.912344 a 0.5,0.5 0 0 1 -0.499999,-0.5 z"
       fill="#ffffff"
       stroke="#000000"
       stroke-width="0.001cm"
       stroke-linecap="round"
       stroke-linejoin="round"
       id="path1069"
       style="fill:none;stroke:#f70101;stroke-width:0.5;stroke-dasharray:none;stroke-opacity:1" /><path
       d="m 82.289832,172.3125 a 5.95,5.95 0 1 0 11.9,0 5.95,5.95 0 1 0 -11.9,0 z"
       fill="#ffffff"
       stroke="#000000"
       stroke-width="0.001cm"
       stroke-linecap="round"
       stroke-linejoin="round"
       id="path1071"
       style="fill:none;stroke:#f70101;stroke-width:0.5;stroke-dasharray:none;stroke-opacity:1" /><path
       d="m 115.97038,172.3125 a 5.95,5.95 0 1 0 11.9,0 5.95,5.95 0 1 0 -11.9,0 z"
       fill="#ffffff"
       stroke="#000000"
       stroke-width="0.001cm"
       stroke-linecap="round"
       stroke-linejoin="round"
       id="path1073"
       style="fill:none;stroke:#f70101;stroke-width:0.5;stroke-dasharray:none;stroke-opacity:1" /><path
       d="m 54.236832,172.3125 a 5.95,5.95 0 1 0 11.9,0 5.95,5.95 0 1 0 -11.9,0 z"
       fill="#ffffff"
       stroke="#000000"
       stroke-width="0.001cm"
       stroke-linecap="round"
       stroke-linejoin="round"
       id="path1075"
       style="fill:none;stroke:#f70101;stroke-width:0.5;stroke-dasharray:none;stroke-opacity:1" /><path
       d="m 144.02339,172.3125 a 5.95,5.95 0 1 0 11.9,0 5.95,5.95 0 1 0 -11.9,0 z"
       fill="#ffffff"
       stroke="#000000"
       stroke-width="0.001cm"
       stroke-linecap="round"
       stroke-linejoin="round"
       id="path1077"
       style="fill:none;stroke:#f70101;stroke-width:0.5;stroke-dasharray:none;stroke-opacity:1" /><path
       d="m 170.10261,177.075 a 3.24,3.24 0 1 0 6.48,0 3.24,3.24 0 1 0 -6.48,0 z"
       fill="#ffffff"
       stroke="#000000"
       stroke-width="0.001cm"
       stroke-linecap="round"
       stroke-linejoin="round"
       id="path1079"
       style="fill:none;stroke:#f70101;stroke-width:0.5;stroke-dasharray:none;stroke-opacity:1" /><path
       d="m 170.10261,119.925 a 3.24,3.24 0 1 0 6.48,0 3.24,3.24 0 1 0 -6.48,0 z"
       fill="#ffffff"
       stroke="#000000"
       stroke-width="0.001cm"
       stroke-linecap="round"
       stroke-linejoin="round"
       id="path1081"
       style="fill:none;stroke:#f70101;stroke-width:0.5;stroke-dasharray:none;stroke-opacity:1" /><path
       d="m 33.577607,177.075 a 3.24,3.24 0 1 0 6.48,0 3.24,3.24 0 1 0 -6.48,0 z"
       fill="#ffffff"
       stroke="#000000"
       stroke-width="0.001cm"
       stroke-linecap="round"
       stroke-linejoin="round"
       id="path1083"
       style="fill:none;stroke:#f70101;stroke-width:0.5;stroke-dasharray:none;stroke-opacity:1" /><path
       d="m 33.577607,119.925 a 3.24,3.24 0 1 0 6.48,0 3.24,3.24 0 1 0 -6.48,0 z"
       fill="#ffffff"
       stroke="#000000"
       stroke-width="0.001cm"
       stroke-linecap="round"
       stroke-linejoin="round"
       id="path1085"
       style="fill:none;stroke:#f70101;stroke-width:0.5;stroke-dasharray:none;stroke-opacity:1" /><path
       d="m 173.34261,171.5185 h 2.3745 a 1.588,1.588 0 0 0 1.588,-1.588 v -15.08 a 1.588,1.588 0 0 0 -1.588,-1.588 h -141.274 a 1.588,1.588 0 0 0 -1.588,1.588 v 15.08 a 1.588,1.588 0 0 0 1.588,1.588 h 2.3745 a 5.5565,5.5565 0 0 1 5.5565,5.5565 v 11.8995 a 1.588,1.588 0 0 0 1.588,1.588 h 122.236 a 1.588,1.588 0 0 0 1.588,-1.588 V 177.075 a 5.5565,5.5565 0 0 1 5.5565,-5.5565 z"
       fill="#000000"
       stroke-linecap="round"
       stroke-linejoin="round"
       id="path2432"
       style="fill:none;stroke:#f78201;stroke-width:0.5;stroke-dasharray:none;stroke-opacity:1" /><path
       d="m 163.50316,180.56318 a 1.6,1.6 0 1 0 -3.2,0 1.6,1.6 0 1 0 3.2,0 z"
       fill="#ffffff"
       stroke="#000000"
       stroke-width="0.001cm"
       stroke-linecap="round"
       stroke-linejoin="round"
       id="path2434"
       style="fill:none;stroke:#f78201;stroke-width:0.5;stroke-dasharray:none;stroke-opacity:1" /><path
       d="m 49.854082,180.56318 a 1.6,1.6 0 1 0 -3.2,0 1.6,1.6 0 1 0 3.2,0 z"
       fill="#ffffff"
       stroke="#000000"
       stroke-width="0.001cm"
       stroke-linecap="round"
       stroke-linejoin="round"
       id="path2436"
       style="display:inline;fill:none;stroke:#f78201;stroke-width:0.5;stroke-dasharray:none;stroke-opacity:1" /><path
       d="m 129.12038,172.3125 a 7.2,7.2 0 1 0 -14.39999,0 7.2,7.2 0 1 0 14.39999,0 z"
       fill="#ffffff"
       stroke="#000000"
       stroke-width="0.001cm"
       stroke-linecap="round"
       stroke-linejoin="round"
       id="path2438"
       style="fill:none;stroke:#f78201;stroke-width:0.5;stroke-dasharray:none;stroke-opacity:1" /><path
       d="m 95.439835,172.3125 a 7.2,7.2 0 1 0 -14.4,0 7.2,7.2 0 1 0 14.4,0 z"
       fill="#ffffff"
       stroke="#000000"
       stroke-width="0.001cm"
       stroke-linecap="round"
       stroke-linejoin="round"
       id="path2440"
       style="fill:none;stroke:#f78201;stroke-width:0.5;stroke-dasharray:none;stroke-opacity:1" /><path
       d="m 157.17338,172.3125 a 7.2,7.2 0 1 0 -14.39999,0 7.2,7.2 0 1 0 14.39999,0 z"
       fill="#ffffff"
       stroke="#000000"
       stroke-width="0.001cm"
       stroke-linecap="round"
       stroke-linejoin="round"
       id="path2442"
       style="fill:none;stroke:#f78201;stroke-width:0.5;stroke-dasharray:none;stroke-opacity:1" /><path
       d="m 67.386835,172.3125 a 7.2,7.2 0 1 0 -14.4,0 7.2,7.2 0 1 0 14.4,0 z"
       fill="#ffffff"
       stroke="#000000"
       stroke-width="0.001cm"
       stroke-linecap="round"
       stroke-linejoin="round"
       id="path2444"
       style="fill:none;stroke:#f78201;stroke-width:0.5;stroke-dasharray:none;stroke-opacity:1" /><g
       id="layer7"
       inkscape:label="Text"
       transform="matrix(10,0,0,10,32.055107,105.6375)"
       style="display:inline"><path
         id="path16107"
         style="font-size:25.3333px;font-family:'Futura Md BT';-inkscape-font-specification:'Futura Md BT, Normal';text-align:center;letter-spacing:-0.2px;text-orientation:upright;white-space:pre;fill:#f0f0f0;stroke:none;stroke-width:0.0499999"
         d="M 7.2275175,4.9076074 V 7.814045 h 0.149965 V 4.9076074 Z M 2.2125264,4.9346342 V 5.432795 h 0.071675 V 5.0995854 c 0.00676,0.0096 0.014056,0.019 0.021911,0.028164 0.00655,0.00742 0.010617,0.011909 0.012144,0.013436 0.00349,0.00371 0.00751,0.00773 0.012092,0.012092 l 0.3105754,0.298173 V 4.9536511 h -0.071985 v 0.3321761 c -0.0096,-0.012219 -0.018529,-0.022783 -0.02682,-0.031729 l -0.025218,-0.02651 z m 8.9786766,0 V 5.432795 h 0.07168 V 5.0995854 c 0.0068,0.0096 0.01406,0.019 0.02191,0.028164 0.0065,0.00742 0.01056,0.011909 0.01209,0.013436 0.0035,0.00371 0.0075,0.00773 0.01214,0.012092 l 0.310576,0.298173 V 4.9536511 h -0.07198 v 0.3321761 c -0.0096,-0.012219 -0.01858,-0.022783 -0.02687,-0.031729 l -0.02517,-0.02651 z m -5.3168329,0.00754 c -0.034314,3.699e-4 -0.066517,0.00651 -0.096532,0.018345 -0.030983,0.012001 -0.058331,0.029674 -0.082114,0.05302 -0.023565,0.023346 -0.041709,0.050603 -0.054364,0.081804 -0.012437,0.031201 -0.018655,0.064165 -0.018655,0.098857 0,0.035129 0.00622,0.068277 0.018655,0.099477 0.012655,0.030983 0.030799,0.058148 0.054364,0.081494 0.023783,0.023128 0.051039,0.040709 0.081804,0.05271 0.030983,0.011782 0.064785,0.017673 0.1014408,0.017673 0.014183,0 0.028072,-9.789e-4 0.0416,-0.00295 0.013746,-0.00196 0.026602,-0.00472 0.038602,-0.00822 0.024656,-0.00742 0.047474,-0.018638 0.06842,-0.033693 v -0.088057 c -0.023783,0.020509 -0.048473,0.035708 -0.074001,0.045527 -0.013528,0.00524 -0.026803,0.00902 -0.039894,0.011421 -0.012873,0.0024 -0.026527,0.00362 -0.040928,0.00362 -0.048438,0 -0.088694,-0.016691 -0.1207678,-0.050075 -0.032074,-0.033601 -0.048111,-0.076383 -0.048111,-0.1283126 0,-0.053674 0.016364,-0.097203 0.049093,-0.1305863 0.032947,-0.033601 0.075585,-0.050384 0.1279508,-0.050384 0.013746,0 0.026981,0.00122 0.039636,0.00362 0.012873,0.0024 0.025402,0.00586 0.037621,0.010439 0.024655,0.00938 0.047984,0.023456 0.070022,0.04222 L 6.0325,4.9915816 C 6.008717,4.9747806 5.983935,4.9624876 5.958189,4.9546326 c -0.013091,-0.00436 -0.026183,-0.00754 -0.039274,-0.00951 -0.013091,-0.00197 -0.026837,-0.00295 -0.041238,-0.00295 -0.00111,0 -0.0022,-1.2e-5 -0.00331,0 z m 3.3680632,0 c -0.034315,3.699e-4 -0.066517,0.00651 -0.096532,0.018345 -0.030983,0.012001 -0.058331,0.029674 -0.082114,0.05302 -0.023565,0.023346 -0.041709,0.050603 -0.054364,0.081804 -0.012437,0.031201 -0.018655,0.064165 -0.018655,0.098857 0,0.035129 0.00622,0.068277 0.018655,0.099477 0.012655,0.030983 0.030799,0.058148 0.054364,0.081494 0.023783,0.023128 0.051039,0.040709 0.081804,0.05271 0.030983,0.011782 0.064785,0.017673 0.1014409,0.017673 0.014183,0 0.028072,-9.789e-4 0.0416,-0.00295 0.013746,-0.00196 0.026602,-0.00472 0.038602,-0.00822 0.024656,-0.00742 0.047474,-0.018638 0.06842,-0.033693 v -0.088057 c -0.023783,0.020509 -0.048473,0.035708 -0.074001,0.045527 -0.013528,0.00524 -0.026803,0.00902 -0.039894,0.011421 -0.012873,0.0024 -0.026527,0.00362 -0.040928,0.00362 -0.048438,0 -0.088695,-0.016691 -0.1207678,-0.050075 -0.032074,-0.033601 -0.048111,-0.076383 -0.048111,-0.1283126 0,-0.053674 0.016364,-0.097203 0.049093,-0.1305863 0.032946,-0.033601 0.075586,-0.050384 0.1279509,-0.050384 0.013746,0 0.026981,0.00122 0.039636,0.00362 0.012873,0.0024 0.025402,0.00586 0.03762,0.010439 0.024655,0.00938 0.047984,0.023456 0.070022,0.04222 l 0.00429,-0.078548 c -0.023783,-0.016801 -0.048565,-0.029094 -0.074311,-0.036949 -0.013091,-0.00436 -0.026183,-0.00754 -0.039274,-0.00951 -0.013091,-0.00197 -0.026837,-0.00295 -0.041238,-0.00295 -0.00111,0 -0.0022,-1.2e-5 -0.00331,0 z m -6.2647856,6.717e-4 c -0.033932,3.633e-4 -0.066343,0.00636 -0.097203,0.017983 -0.031855,0.012001 -0.059675,0.029674 -0.083457,0.05302 -0.023565,0.023128 -0.041565,0.049874 -0.054002,0.080202 -0.012219,0.030328 -0.018293,0.063712 -0.018293,0.1001489 0,0.035128 0.00607,0.068512 0.018293,0.1001489 0.012218,0.031637 0.029708,0.058986 0.0524,0.082114 0.02291,0.023128 0.049512,0.040474 0.07984,0.052038 0.030547,0.011346 0.065801,0.017053 0.10573,0.017053 0.070257,0 0.1246782,-0.018655 0.1632975,-0.055966 0.038619,-0.03731 0.057929,-0.089676 0.057929,-0.1570963 L 3.2012,5.2010779 3.2008899,5.1873319 H 3.0110307 v 0.065784 h 0.1152384 v 0.00687 c 0,0.035783 -0.012764,0.064021 -0.038292,0.084749 -0.02531,0.020728 -0.06033,0.031109 -0.1050582,0.031109 -0.052365,0 -0.095056,-0.016927 -0.1280025,-0.050746 -0.032729,-0.033819 -0.049093,-0.077676 -0.049093,-0.1315682 0,-0.053238 0.016508,-0.09644 0.049454,-0.1296045 0.033165,-0.033383 0.075476,-0.050074 0.126969,-0.050074 0.025092,0 0.047767,0.00467 0.068058,0.014056 0.02051,0.00916 0.038746,0.023053 0.054674,0.0416 l 0.056948,-0.042892 c -0.023565,-0.028365 -0.05031,-0.049403 -0.080202,-0.063149 -0.029673,-0.013746 -0.06324,-0.020619 -0.100769,-0.020619 -0.0011,0 -0.00221,-1.17e-5 -0.00331,0 z m 8.9786763,0 c -0.03393,3.633e-4 -0.06635,0.00636 -0.0972,0.017983 -0.03186,0.012001 -0.05968,0.029674 -0.08346,0.05302 -0.02356,0.023128 -0.04156,0.049874 -0.054,0.080202 -0.01222,0.030328 -0.01835,0.063712 -0.01835,0.1001489 0,0.035128 0.0061,0.068512 0.01835,0.1001489 0.01221,0.031637 0.02965,0.058986 0.05235,0.082114 0.02291,0.023128 0.04956,0.040474 0.07989,0.052038 0.03055,0.011346 0.06575,0.017053 0.105678,0.017053 0.07026,0 0.124678,-0.018655 0.163298,-0.055966 0.03862,-0.03731 0.05798,-0.089676 0.05798,-0.1570963 l -9.82e-4,-0.031419 -3.62e-4,-0.013746 h -0.189808 v 0.065784 h 0.115187 v 0.00687 c 0,0.035783 -0.01276,0.064021 -0.03829,0.084749 -0.02531,0.020728 -0.06033,0.031109 -0.105058,0.031109 -0.05236,0 -0.095,-0.016927 -0.127951,-0.050746 -0.03273,-0.033819 -0.04909,-0.077676 -0.04909,-0.1315682 0,-0.053238 0.01646,-0.09644 0.0494,-0.1296045 0.03316,-0.033383 0.07548,-0.050074 0.126969,-0.050074 0.02509,0 0.04782,0.00467 0.06811,0.014056 0.02051,0.00916 0.03875,0.023053 0.05467,0.0416 l 0.05695,-0.042892 c -0.02357,-0.028365 -0.05031,-0.049403 -0.0802,-0.063149 -0.02968,-0.013746 -0.06329,-0.020619 -0.100821,-0.020619 -0.0011,0 -0.0022,-1.17e-5 -0.0033,0 z m -5.5144433,0.00589 c -0.046336,7.86e-4 -0.08356,0.013759 -0.1116728,0.038912 -0.028801,0.025747 -0.043202,0.059928 -0.043202,0.1024744 h 0.074931 c 0.00196,-0.022473 0.010054,-0.040474 0.024236,-0.054002 0.014183,-0.013527 0.032091,-0.020309 0.053692,-0.020309 0.024655,0 0.043965,0.00687 0.057929,0.020619 0.013964,0.013527 0.020929,0.032183 0.020929,0.055966 0,0.016365 -0.00515,0.034784 -0.0154,0.055294 -0.00567,0.010909 -0.012403,0.022037 -0.020257,0.033383 -0.00764,0.011346 -0.017128,0.023782 -0.028474,0.03731 L 6.2755343,5.432795 H 6.5965999 V 5.3705766 H 6.4143372 l 0.060875,-0.070693 c 0.049747,-0.056729 0.08224,-0.099931 0.097513,-0.1296045 0.015491,-0.029674 0.023254,-0.059221 0.023254,-0.088677 0,-0.041238 -0.013419,-0.073639 -0.040256,-0.097203 -0.026619,-0.023783 -0.063091,-0.035657 -0.1093474,-0.035657 -0.00151,0 -0.003,-2.54e-5 -0.0045,0 z m 6.1378683,0 c -0.04633,7.86e-4 -0.08356,0.013759 -0.111673,0.038912 -0.0288,0.025747 -0.0432,0.059928 -0.0432,0.1024744 h 0.07493 c 0.002,-0.022473 0.01006,-0.040474 0.02424,-0.054002 0.01419,-0.013527 0.03204,-0.020309 0.05364,-0.020309 0.02465,0 0.04396,0.00687 0.05793,0.020619 0.01397,0.013527 0.02098,0.032183 0.02098,0.055966 0,0.016365 -0.0051,0.034784 -0.0154,0.055294 -0.0057,0.010909 -0.0124,0.022037 -0.02026,0.033383 -0.0076,0.011346 -0.01713,0.023782 -0.02847,0.03731 L 12.413403,5.432795 h 0.321065 V 5.370577 h -0.182314 l 0.06087,-0.070693 c 0.04975,-0.056729 0.08229,-0.099931 0.09757,-0.1296045 0.01549,-0.029674 0.0232,-0.059221 0.0232,-0.088677 0,-0.041238 -0.01342,-0.073639 -0.04026,-0.097203 -0.02662,-0.023783 -0.06304,-0.035657 -0.109295,-0.035657 -0.0015,0 -0.003,-2.54e-5 -0.0045,0 z M 1.861075,4.9536511 V 5.432795 H 2.1284489 V 5.3630835 H 1.9389514 V 5.2082609 h 0.1894975 v -0.06842 H 1.9389514 v -0.120096 h 0.1894975 v -0.066094 z m 2.7698051,0 V 5.432795 H 4.8983057 V 5.3630835 H 4.7088082 V 5.2082609 h 0.1894975 v -0.06842 H 4.7088082 v -0.120096 h 0.1894975 v -0.066094 z m 0.3514514,0 V 5.432795 h 0.252026 V 5.3630835 H 5.0602596 V 4.9536511 Z m 0.3099036,0 V 5.432795 H 5.559609 V 5.3630835 H 5.3701115 V 5.2082609 H 5.559609 v -0.06842 H 5.3701115 V 5.0197453 H 5.559609 v -0.066094 z m 2.7067082,0 V 5.432795 H 8.2663171 V 5.3630835 H 8.0768197 V 5.2082609 h 0.1894974 v -0.06842 H 8.0768197 v -0.120096 h 0.1894974 v -0.066094 z m 0.3514514,0 V 5.432795 h 0.252026 V 5.3630835 H 8.4282711 V 4.9536511 Z m 0.3099036,0 V 5.432795 H 8.9276721 V 5.3630835 H 8.7381746 V 5.2082609 h 0.1894975 v -0.06842 H 8.7381746 v -0.120096 h 0.1894975 v -0.066094 z m 2.1794537,0 V 5.432795 h 0.267374 V 5.3630835 H 10.917628 V 5.2082609 h 0.189498 v -0.06842 h -0.189498 v -0.120096 h 0.189498 v -0.066094 z m -7.3110785,0.00455 -0.030076,0.061547 h 0.099167 V 5.432795 h 0.071003 V 4.9581986 Z m 6.2088717,0 -0.030127,0.061547 h 0.099167 V 5.432795 h 0.071003 V 4.9581986 Z M 6.9343571,5.432795 v 0.066301 h -0.06382 v 0.01695 h 0.06382 v 0.066869 h 0.018035 V 5.516046 h 0.063769 V 5.499096 H 6.9523922 V 5.432795 Z m 3.1954119,0.2250509 c -0.02573,0 -0.04998,0.00468 -0.07281,0.014004 -0.02283,0.00916 -0.04323,0.022525 -0.061236,0.040049 -0.017846,0.017363 -0.031448,0.037282 -0.040773,0.05979 -0.00932,0.022507 -0.014004,0.046285 -0.014004,0.071365 0,0.02508 0.00478,0.048909 0.014263,0.071417 0.00949,0.022508 0.023036,0.042426 0.040721,0.05979 0.017682,0.017203 0.038037,0.030564 0.06103,0.040049 0.02315,0.00932 0.04741,0.013953 0.07281,0.013953 0.02491,0 0.04889,-0.00473 0.07188,-0.014211 0.02315,-0.00965 0.04375,-0.023151 0.06175,-0.040514 0.01801,-0.017364 0.03165,-0.037041 0.04098,-0.059066 0.0093,-0.022186 0.014,-0.046015 0.014,-0.071417 h -5.1e-5 c 0,-0.024919 -0.0048,-0.048599 -0.01447,-0.071107 -0.0095,-0.022508 -0.02323,-0.042524 -0.04124,-0.060048 -0.01801,-0.017685 -0.03841,-0.031144 -0.06124,-0.040308 -0.02267,-0.00916 -0.04654,-0.013746 -0.07162,-0.013746 z m -6.1550762,0.00222 c -0.024832,2.822e-4 -0.048318,0.00497 -0.070435,0.014004 -0.022829,0.00916 -0.04323,0.022474 -0.061237,0.039998 -0.017846,0.017363 -0.031448,0.037333 -0.040773,0.059841 -0.00932,0.022507 -0.013953,0.046284 -0.013953,0.071365 0,0.02508 0.00473,0.048857 0.014211,0.071365 0.00949,0.022508 0.023088,0.042478 0.040773,0.059841 0.017685,0.017203 0.037988,0.030512 0.060978,0.039998 0.023151,0.00932 0.047462,0.014004 0.072864,0.014004 0.02492,0 0.04884,-0.00473 0.07183,-0.014211 0.023151,-0.00965 0.043747,-0.023151 0.061753,-0.040514 0.018007,-0.017364 0.031655,-0.037092 0.040979,-0.059118 0.00932,-0.022186 0.014004,-0.045963 0.014004,-0.071365 0,-0.024919 -0.00482,-0.04865 -0.014469,-0.071159 -0.00949,-0.022508 -0.023232,-0.042524 -0.041238,-0.060048 -0.018007,-0.017685 -0.038407,-0.031092 -0.061237,-0.040256 -0.022669,-0.00916 -0.046543,-0.013746 -0.071623,-0.013746 -8.039e-4,0 -0.00163,-9.2e-6 -0.00243,0 z m 6.4042082,0.00574 v 0.3530534 h 0.05741 V 5.8529761 h 0.13963 v -0.050436 h -0.13963 v -0.088005 h 0.13963 V 5.665804 Z m 0.253938,0 v 0.3530534 h 0.05741 V 5.8529761 h 0.13963 v -0.050436 h -0.13963 v -0.088005 h 0.13963 V 5.665804 Z m -6.4065853,0.00222 v 0.3530534 h 0.057361 V 5.8551465 H 4.4232442 V 5.804762 H 4.2836145 V 5.716757 H 4.4232442 V 5.668026 Z m 0.253938,0 v 0.3530534 h 0.057412 V 5.8551465 H 4.6772339 V 5.804762 H 4.5376042 V 5.716757 H 4.6772339 V 5.668026 Z m 5.6496293,0.042633 c 0.01753,0 0.03412,0.00338 0.04971,0.010129 0.01575,0.00675 0.02964,0.016353 0.0417,0.028732 0.01209,0.01238 0.0213,0.02651 0.0277,0.042426 0.0064,0.015916 0.0096,0.032941 0.0096,0.051108 l 1.03e-4,5.17e-5 c 0,0.017685 -0.0034,0.034612 -0.01013,0.05085 -0.0068,0.016077 -0.01621,0.030305 -0.02827,0.042685 -0.0119,0.012378 -0.02564,0.02188 -0.04124,0.028474 -0.01544,0.00659 -0.03184,0.00987 -0.0492,0.00987 -0.01753,0 -0.03417,-0.00328 -0.04992,-0.00987 -0.01576,-0.00675 -0.02955,-0.016301 -0.04145,-0.02868 -0.0064,-0.00643 -0.0119,-0.013137 -0.01643,-0.02005 -0.0045,-0.00691 -0.0084,-0.014435 -0.01158,-0.022634 -0.0064,-0.015756 -0.0096,-0.032637 -0.0096,-0.050643 0,-0.00949 8.28e-4,-0.018362 0.0024,-0.026562 0.0016,-0.0082 0.004,-0.016399 0.0072,-0.024598 0.0069,-0.016399 0.01622,-0.030627 0.02796,-0.042685 0.01238,-0.012699 0.02632,-0.022247 0.04176,-0.02868 0.01559,-0.00659 0.03213,-0.00992 0.04966,-0.00992 z m -6.1543531,0.00222 c 5.458e-4,-6.5e-6 0.00111,0 0.00165,0 0.017524,0 0.034066,0.00338 0.049661,0.010128 0.015755,0.00675 0.029645,0.016301 0.041703,0.028681 0.012055,0.01238 0.021317,0.026562 0.02775,0.042478 0.00643,0.015916 0.00966,0.032941 0.00966,0.051108 0,0.017685 -0.00338,0.034663 -0.010129,0.050901 -0.00675,0.016077 -0.016157,0.030305 -0.028215,0.042685 -0.011897,0.012378 -0.025643,0.02188 -0.041238,0.028474 -0.015434,0.00659 -0.031833,0.00987 -0.049196,0.00987 -0.017525,0 -0.034164,-0.00328 -0.049919,-0.00987 -0.015755,-0.00675 -0.029599,-0.016353 -0.041496,-0.028732 -0.00643,-0.00643 -0.011881,-0.013086 -0.016382,-0.019999 -0.0045,-0.00691 -0.00836,-0.014487 -0.011575,-0.022686 -0.00643,-0.015756 -0.00966,-0.032637 -0.00966,-0.050643 0,-0.00949 8.222e-4,-0.018311 0.00243,-0.02651 0.00161,-0.0082 0.00402,-0.016399 0.00723,-0.024598 0.00691,-0.016399 0.01622,-0.030627 0.027957,-0.042685 0.012379,-0.012699 0.026269,-0.022247 0.041703,-0.028681 0.015107,-0.00639 0.031141,-0.00972 0.048059,-0.00992 z m 6.4616731,1.598352 V 7.678291 h 0.05286 V 7.4327763 c 0.005,0.00707 0.01037,0.014022 0.01617,0.020774 0.0048,0.00547 0.0078,0.00874 0.0089,0.00987 0.0025,0.00273 0.0055,0.00573 0.0089,0.00894 l 0.228875,0.2196765 V 7.3252376 h -0.05307 v 0.2447913 c -0.007,-0.009 -0.01361,-0.016816 -0.01974,-0.023409 l -0.0186,-0.019534 z m -6.152648,0.00222 V 7.6805086 H 4.337306 V 7.4349984 c 0.00499,0.00707 0.010388,0.01397 0.016175,0.020722 0.00482,0.00547 0.00776,0.0088 0.00889,0.00992 0.00257,0.00273 0.00557,0.00567 0.00894,0.00889 L 4.6001843,7.694259 V 7.3274597 h -0.053072 v 0.2447396 c -0.00708,-0.009 -0.013685,-0.016764 -0.019792,-0.023358 l -0.018552,-0.019534 z m 5.901139,0.00382 c -0.02483,2.822e-4 -0.04832,0.00497 -0.07043,0.014004 -0.02283,0.00916 -0.04323,0.022474 -0.06124,0.039998 -0.01785,0.017363 -0.03145,0.037333 -0.04077,0.059841 -0.0093,0.022507 -0.014004,0.046285 -0.014004,0.071365 0,0.02508 0.00478,0.048857 0.014263,0.071365 0.0095,0.022508 0.02303,0.042478 0.04072,0.059841 0.01768,0.017203 0.03804,0.030512 0.06103,0.039998 0.02315,0.00932 0.04741,0.014004 0.07281,0.014004 0.02492,0 0.04889,-0.00473 0.07188,-0.014211 0.02315,-0.00965 0.04375,-0.023151 0.06175,-0.040514 0.01801,-0.017364 0.03165,-0.037092 0.04098,-0.059118 0.0093,-0.022186 0.01401,-0.045963 0.01401,-0.071365 0,-0.024919 -0.0048,-0.04865 -0.01447,-0.071159 -0.0095,-0.022508 -0.02328,-0.042524 -0.04129,-0.060048 -0.01801,-0.017685 -0.03841,-0.031092 -0.06124,-0.040256 -0.02267,-0.00916 -0.04654,-0.013746 -0.07162,-0.013746 -8.04e-4,0 -0.0016,-9.1e-6 -0.0024,0 z m -6.1526999,0.00222 c -0.024832,2.823e-4 -0.048267,0.00492 -0.070383,0.013953 -0.022829,0.00916 -0.043282,0.022525 -0.061288,0.040049 -0.017846,0.017363 -0.031396,0.037282 -0.040721,0.05979 -0.00932,0.022508 -0.014004,0.046336 -0.014004,0.071417 0,0.02508 0.00473,0.048857 0.014211,0.071365 0.00949,0.022508 0.023088,0.042426 0.040773,0.05979 0.017685,0.017203 0.038039,0.030564 0.06103,0.040049 0.023151,0.00932 0.04741,0.014004 0.072812,0.014004 0.02492,0 0.048892,-0.00478 0.071882,-0.014263 0.023151,-0.00965 0.043695,-0.023151 0.061702,-0.040514 0.018007,-0.017364 0.031706,-0.037041 0.041031,-0.059066 0.00932,-0.022186 0.013953,-0.045963 0.013953,-0.071365 0,-0.024919 -0.00482,-0.04865 -0.014469,-0.071159 -0.00949,-0.022508 -0.023231,-0.042524 -0.041238,-0.060048 -0.018007,-0.017685 -0.038407,-0.031092 -0.061236,-0.040256 -0.022669,-0.00916 -0.046543,-0.013746 -0.071624,-0.013746 -8.038e-4,0 -0.00163,-9.1e-6 -0.00243,0 z m 6.1535259,0.050591 c 5.46e-4,-6.5e-6 0.0011,0 0.0016,0 0.01753,0 0.03412,0.00338 0.04971,0.010129 0.01575,0.00675 0.02964,0.016301 0.0417,0.02868 0.01209,0.01238 0.02135,0.026562 0.02775,0.042478 0.0064,0.015916 0.0096,0.032941 0.0096,0.051108 h 1.04e-4 c 0,0.017685 -0.0034,0.034663 -0.01013,0.050901 -0.0068,0.016077 -0.01615,0.030305 -0.02821,0.042685 -0.0119,0.012378 -0.02565,0.021829 -0.04124,0.028422 -0.01544,0.00659 -0.03189,0.00992 -0.04925,0.00992 -0.01753,0 -0.03417,-0.00333 -0.04992,-0.00992 -0.01575,-0.00675 -0.02954,-0.016301 -0.04144,-0.02868 -0.0064,-0.00643 -0.0119,-0.013085 -0.01643,-0.019999 -0.0045,-0.00691 -0.0084,-0.014487 -0.01158,-0.022686 -0.0064,-0.015756 -0.0096,-0.032637 -0.0096,-0.050643 0,-0.00949 7.77e-4,-0.018311 0.0024,-0.02651 0.0016,-0.0082 0.004,-0.016399 0.0072,-0.024598 0.0069,-0.016399 0.01628,-0.030627 0.02801,-0.042685 0.01238,-0.012699 0.02627,-0.022299 0.0417,-0.028732 0.01511,-0.00639 0.03114,-0.00967 0.04806,-0.00987 z m -6.1543527,0.00222 c 0.00109,-2.58e-5 0.00216,0 0.00326,0 0.017524,0 0.034066,0.00338 0.049661,0.010128 0.015755,0.00675 0.029697,0.016301 0.041754,0.028681 0.012055,0.01238 0.021265,0.02651 0.027699,0.042426 0.00643,0.015917 0.00966,0.032992 0.00966,0.05116 0,0.017685 -0.00338,0.034612 -0.010129,0.05085 -0.00675,0.016077 -0.016157,0.030305 -0.028215,0.042685 -0.011897,0.012378 -0.025643,0.02188 -0.041238,0.028474 -0.015434,0.00659 -0.031833,0.00987 -0.049196,0.00987 -0.017524,0 -0.034164,-0.00328 -0.049919,-0.00987 -0.015755,-0.00675 -0.029599,-0.016301 -0.041496,-0.02868 -0.00643,-0.00643 -0.011881,-0.013138 -0.016381,-0.02005 -0.0045,-0.00691 -0.00836,-0.014435 -0.011576,-0.022634 -0.00643,-0.015756 -0.00966,-0.032637 -0.00966,-0.050643 0,-0.00949 8.221e-4,-0.018362 0.00243,-0.026562 0.00161,-0.0082 0.00402,-0.016399 0.00723,-0.024598 0.00691,-0.016399 0.01622,-0.030627 0.027957,-0.042685 0.012379,-0.012699 0.026321,-0.022247 0.041755,-0.02868 0.01462,-0.00618 0.03009,-0.00948 0.046405,-0.00987 z M 4.2246517,7.9152275 3.9926245,8.4133366 H 4.07448 L 4.130084,8.2899333 h 0.1898076 l 0.054364,0.1234033 h 0.082114 z m 3.7517607,0 -0.1132231,0.499401 h 0.071675 l 0.051366,-0.2359546 c 0.00284,-0.011128 0.00495,-0.022583 0.00625,-0.034365 0.00109,-0.00655 0.00174,-0.011454 0.00196,-0.014728 4.357e-4,-0.00349 6.201e-4,-0.00915 6.201e-4,-0.017001 l 0.00982,0.029766 c 0.00371,0.0096 0.00829,0.019982 0.013746,0.031109 L 8.143999,8.4339555 8.269366,8.1786739 c 0.00545,-0.010473 0.00989,-0.021182 0.013384,-0.032091 0.00349,-0.010909 0.00635,-0.022221 0.00853,-0.034003 l 0.0046,0.034675 0.00424,0.030748 0.05302,0.2366264 H 8.425487 L 8.309622,7.9152275 8.1714909,8.2172762 8.1655998,8.230402 C 8.1555658,8.252003 8.1483658,8.269441 8.1439988,8.28275 L 8.1276178,8.241512 8.1177978,8.217637 Z m 2.2472526,0 v 0.4791438 h 0.12144 c 0.04517,0 0.07766,-0.00285 0.09751,-0.00853 0.01986,-0.00567 0.03613,-0.014837 0.04878,-0.027492 0.01289,-0.012655 0.02261,-0.027618 0.02914,-0.044855 0.0068,-0.017455 0.01013,-0.035875 0.01013,-0.055294 0,-0.031856 -0.008,-0.058366 -0.02419,-0.07953 -0.01593,-0.021381 -0.03786,-0.034146 -0.06578,-0.038292 0.02247,-0.00676 0.03959,-0.018782 0.05137,-0.036019 0.01178,-0.017237 0.01767,-0.03851 0.01767,-0.06382 0,-0.021164 -0.0042,-0.040566 -0.01245,-0.058239 -0.0081,-0.017891 -0.01952,-0.032292 -0.03436,-0.043202 -0.01135,-0.00851 -0.02542,-0.014639 -0.04222,-0.018345 -0.0083,-0.00196 -0.01877,-0.00336 -0.03142,-0.00424 -0.01266,-8.734e-4 -0.02762,-0.00129 -0.04486,-0.00129 z m -1.2639535,0.00951 c -0.041144,7.398e-4 -0.074568,0.012965 -0.1003556,0.036639 -0.026401,0.024219 -0.039636,0.055731 -0.039636,0.094568 0,0.029892 0.00884,0.055421 0.02651,0.076585 0.017892,0.021164 0.053055,0.044401 0.1054199,0.069712 l 0.015038,0.00718 c 0.046693,0.022255 0.070022,0.047365 0.070022,0.075292 0,0.021601 -0.00687,0.038855 -0.020619,0.051728 -0.013528,0.012873 -0.031856,0.019275 -0.054984,0.019275 -0.024437,0 -0.044493,-0.00566 -0.060203,-0.017002 -0.015707,-0.011345 -0.026508,-0.027618 -0.032401,-0.048782 l -0.062167,0.028835 c 0.00829,0.034911 0.025402,0.061748 0.051366,0.080512 0.025964,0.018764 0.059348,0.028112 0.100149,0.028112 0.048656,0 0.087276,-0.013419 0.1158585,-0.040256 0.028583,-0.026837 0.042891,-0.062838 0.042891,-0.1080037 0,-0.031201 -0.00898,-0.057241 -0.026872,-0.078186 -0.017673,-0.020946 -0.050075,-0.04222 -0.097203,-0.06382 l -0.00982,-0.0046 c -0.054111,-0.024874 -0.081132,-0.051711 -0.081132,-0.080512 0,-0.018328 0.00607,-0.032964 0.018294,-0.043873 0.012219,-0.010909 0.02891,-0.01633 0.050074,-0.01633 0.014837,0 0.028072,0.0036 0.039636,0.0108 0.011564,0.00698 0.022037,0.017875 0.031419,0.032711 l 0.060875,-0.031419 c -0.00938,-0.025746 -0.025982,-0.045383 -0.049764,-0.058911 -0.023783,-0.013527 -0.053238,-0.020257 -0.088367,-0.020257 -0.00134,0 -0.0027,-2.38e-5 -0.00403,0 z m -3.4713127,0.0108 v 0.4790922 h 0.077928 v -0.232699 h 0.2356445 v 0.232699 h 0.077876 V 7.9355363 H 5.8019714 V 8.112218 H 5.5663269 V 7.9355363 Z m 0.4378545,0 0.1613855,0.2598291 v 0.2192631 h 0.077205 V 8.1953654 L 6.3297945,7.9355363 H 6.2519185 L 6.148824,8.0961983 c -0.00393,0.00589 -0.00753,0.012109 -0.0108,0.018655 -0.0024,0.00458 -0.00445,0.00907 -0.0062,0.013436 -0.00153,0.00415 -0.00265,0.00686 -0.00331,0.00816 L 6.117404,8.1145383 6.108564,8.0981573 6.008105,7.9355316 Z m 0.4503084,0 v 0.4790922 l 0.1050582,5.17e-5 h 0.020929 c 0.028365,0 0.052911,-8.889e-4 0.073639,-0.00264 0.020728,-0.00175 0.037747,-0.00427 0.051056,-0.00754 0.027055,-0.0072 0.050947,-0.018747 0.071675,-0.034675 0.027929,-0.021819 0.049018,-0.049076 0.0632,-0.081804 0.014183,-0.032728 0.021239,-0.070274 0.021239,-0.1126029 0,-0.042547 -0.0072,-0.08042 -0.021601,-0.1135848 -0.0144,-0.033383 -0.035347,-0.060548 -0.062838,-0.081494 -0.021382,-0.016364 -0.045785,-0.027911 -0.073277,-0.034675 -0.027274,-0.00676 -0.075293,-0.010129 -0.1440222,-0.010129 z m 0.687865,0 v 0.4790922 h 0.072967 V 8.1996029 h 0.029456 0.0154 c 0.034473,0 0.060094,-0.00182 0.076895,-0.00553 0.016801,-0.00393 0.031201,-0.010146 0.043201,-0.018655 0.015055,-0.011127 0.026837,-0.026326 0.035347,-0.045527 0.00851,-0.019201 0.012764,-0.040003 0.012764,-0.062477 0,-0.022692 -0.00425,-0.043454 -0.012764,-0.062219 -0.00851,-0.018983 -0.020291,-0.034038 -0.035347,-0.045165 -0.012437,-0.00895 -0.026981,-0.015259 -0.043563,-0.018965 -0.016582,-0.00371 -0.042059,-0.00553 -0.076533,-0.00553 z m 0.349436,0 v 0.2981213 c 0,0.065021 0.016273,0.1135509 0.048783,0.1456242 0.032729,0.032074 0.081913,0.048111 0.1475879,0.048111 0.065893,0 0.1152209,-0.016129 0.1479496,-0.048421 0.032728,-0.032292 0.049093,-0.08073 0.049093,-0.1453142 V 7.9355363 H 7.729399 v 0.2909383 c 0,0.043201 -0.010146,0.075695 -0.030437,0.097513 -0.020073,0.021601 -0.049672,0.032401 -0.088728,0.032401 -0.039711,0 -0.069585,-0.010801 -0.089659,-0.032401 C 7.50072,8.3021686 7.490809,8.2696756 7.490809,8.2264746 V 7.9355363 Z m 1.0685136,0 v 0.4790922 h 0.072967 V 8.1996029 h 0.029456 0.0154 c 0.034474,0 0.060094,-0.00182 0.076894,-0.00553 0.016801,-0.00393 0.031201,-0.010146 0.043202,-0.018655 0.015055,-0.011127 0.026837,-0.026326 0.035347,-0.045527 0.00851,-0.019201 0.012764,-0.040003 0.012764,-0.062477 0,-0.022692 -0.00425,-0.043454 -0.012764,-0.062219 -0.00851,-0.018983 -0.020292,-0.034038 -0.035347,-0.045165 -0.012437,-0.00895 -0.02693,-0.015259 -0.043512,-0.018965 -0.016582,-0.00371 -0.04211,-0.00553 -0.076584,-0.00553 z m 1.8175637,0.044493 h 0.02982 c 0.03927,0 0.06597,0.00524 0.08015,0.01571 0.0144,0.010473 0.0216,0.028893 0.0216,0.055294 0,0.024001 -0.0078,0.041112 -0.02325,0.051366 -0.01527,0.010037 -0.04145,0.01509 -0.07855,0.01509 h -0.02977 z m -3.1576369,0.022221 h 0.019947 c 0.041456,0 0.069838,0.00524 0.085111,0.01571 0.015273,0.010255 0.022893,0.028256 0.022893,0.054002 0,0.024001 -0.0072,0.040692 -0.021601,0.050074 -0.014182,0.00916 -0.042983,0.013746 -0.086403,0.013746 h -0.019947 z m 1.4179496,0 h 0.019947 c 0.041456,0 0.069838,0.00524 0.085111,0.01571 0.015273,0.010255 0.022893,0.028256 0.022893,0.054002 0,0.024001 -0.0072,0.040692 -0.021601,0.050074 -0.014182,0.00916 -0.042983,0.013746 -0.086403,0.013746 h -0.019947 z m -2.1058146,0.00295 h 0.028164 0.028164 c 0.039274,0 0.068586,0.00252 0.088005,0.00754 0.019637,0.00502 0.036001,0.013017 0.049093,0.023926 0.018109,0.015492 0.031672,0.034893 0.040618,0.058239 0.00916,0.023128 0.013746,0.04973 0.013746,0.07984 0,0.030765 -0.00458,0.057746 -0.013746,0.080874 -0.00916,0.02291 -0.022726,0.041984 -0.040618,0.057258 -0.013091,0.011564 -0.028657,0.019746 -0.046767,0.024546 -0.017891,0.00458 -0.044964,0.00687 -0.081184,0.00687 h -0.065474 z m -2.2291146,0.056327 0.00915,0.030437 0.00889,0.023874 0.049041,0.1092956 H 4.1588676 l 0.049144,-0.1092956 c 0.00349,-0.00807 0.00644,-0.016347 0.00884,-0.024856 0.00174,-0.0048 0.00314,-0.00938 0.00424,-0.013746 0.00131,-0.00437 0.00271,-0.0096 0.00424,-0.01571 z M 10.29994,8.1764001 h 0.02687 0.02356 c 0.009,0 0.01624,2.362e-4 0.02191,6.718e-4 0.0059,4.334e-4 0.01111,0.00104 0.01571,0.00191 0.01026,0.00196 0.01877,0.00472 0.02553,0.00822 0.01178,0.00633 0.02085,0.015164 0.02718,0.02651 0.0063,0.011346 0.0095,0.024621 0.0095,0.039894 0,0.013091 -0.0028,0.025017 -0.0082,0.035709 -0.0055,0.010694 -0.01274,0.01906 -0.02191,0.025166 -0.0079,0.00567 -0.01847,0.0096 -0.03178,0.011782 -0.01331,0.00197 -0.03379,0.00295 -0.06149,0.00295 h -0.02687 z" /></g></g><style
     type="text/css"
     id="style1">&#10;*[layerid=&quot;1&quot;] {stroke:#000000;fill:#000000;}&#10;*[layerid=&quot;2&quot;] {stroke:#000000;fill:#000000;}&#10;*[layerid=&quot;3&quot;] {stroke:#000000;fill:#000000;}&#10;*[layerid=&quot;4&quot;] {stroke:#000000;fill:#000000;}&#10;*[layerid=&quot;5&quot;] {stroke:#000000;fill:#000000;}&#10;*[layerid=&quot;6&quot;] {stroke:#000000;fill:#000000;}&#10;*[layerid=&quot;7&quot;] {stroke:#000000;fill:#000000;}&#10;*[layerid=&quot;8&quot;] {stroke:#000000;fill:#000000;}&#10;*[layerid=&quot;9&quot;] {stroke:#000000;fill:#000000;}&#10;*[layerid=&quot;10&quot;] {stroke:#000000;fill:#000000;}&#10;*[layerid=&quot;11&quot;] {stroke:#000000;fill:#000000;}&#10;*[layerid=&quot;12&quot;] {stroke:#000000;fill:#000000;}&#10;*[layerid=&quot;13&quot;] {stroke:#000000;fill:#000000;}&#10;*[layerid=&quot;14&quot;] {stroke:#000000;fill:#000000;}&#10;*[layerid=&quot;15&quot;] {stroke:#000000;fill:#000000;}&#10;*[layerid=&quot;19&quot;] {stroke:#000000;fill:#000000;}&#10;*[layerid=&quot;21&quot;] {stroke:#000000;fill:#000000;}&#10;*[layerid=&quot;22&quot;] {stroke:#000000;fill:#000000;}&#10;*[layerid=&quot;23&quot;] {stroke:#000000;fill:#000000;}&#10;*[layerid=&quot;24&quot;] {stroke:#000000;fill:#000000;}&#10;*[layerid=&quot;25&quot;] {stroke:#000000;fill:#000000;}&#10;*[layerid=&quot;26&quot;] {stroke:#000000;fill:#000000;}&#10;*[layerid=&quot;27&quot;] {stroke:#000000;fill:#000000;}&#10;*[layerid=&quot;28&quot;] {stroke:#000000;fill:#000000;}&#10;*[layerid=&quot;29&quot;] {stroke:#000000;fill:#000000;}&#10;*[layerid=&quot;30&quot;] {stroke:#000000;fill:#000000;}&#10;*[layerid=&quot;31&quot;] {stroke:#000000;fill:#000000;}&#10;*[layerid=&quot;32&quot;] {stroke:#000000;fill:#000000;}&#10;*[layerid=&quot;33&quot;] {stroke:#000000;fill:#000000;}&#10;*[layerid=&quot;34&quot;] {stroke:#000000;fill:#000000;}&#10;*[layerid=&quot;35&quot;] {stroke:#000000;fill:#000000;}&#10;*[layerid=&quot;36&quot;] {stroke:#000000;fill:#000000;}&#10;*[layerid=&quot;37&quot;] {stroke:#000000;fill:#000000;}&#10;*[layerid=&quot;38&quot;] {stroke:#000000;fill:#000000;}&#10;*[layerid=&quot;39&quot;] {stroke:#000000;fill:#000000;}&#10;*[layerid=&quot;40&quot;] {stroke:#000000;fill:#000000;}&#10;*[layerid=&quot;41&quot;] {stroke:#000000;fill:#000000;}&#10;*[layerid=&quot;42&quot;] {stroke:#000000;fill:#000000;}&#10;*[layerid=&quot;43&quot;] {stroke:#000000;fill:#000000;}&#10;*[layerid=&quot;44&quot;] {stroke:#000000;fill:#000000;}&#10;*[layerid=&quot;45&quot;] {stroke:#000000;fill:#000000;}&#10;*[layerid=&quot;46&quot;] {stroke:#000000;fill:#000000;}&#10;*[layerid=&quot;47&quot;] {stroke:#000000;fill:#000000;}&#10;*[layerid=&quot;48&quot;] {stroke:#000000;fill:#000000;}&#10;*[layerid=&quot;49&quot;] {stroke:#000000;fill:#000000;}&#10;*[layerid=&quot;50&quot;] {stroke:#000000;fill:#000000;}&#10;*[layerid=&quot;51&quot;] {stroke:#000000;fill:#000000;}&#10;*[layerid=&quot;52&quot;] {stroke:#000000;fill:#000000;}&#10;*[layerid=&quot;99&quot;] {stroke:#000000;fill:#000000;}&#10;*[layerid=&quot;100&quot;] {stroke:#000000;fill:#000000;}&#10;*[layerid=&quot;101&quot;] {stroke:#000000;fill:#000000;}&#10;*[layerid=&quot;Hole&quot;] {stroke:#000000;fill:#000000;}&#10;*[layerid=&quot;DRCError&quot;] {stroke:#000000;fill:#000000;}&#10;*[fill=&quot;none&quot;] {fill: none;}&#10;*[stroke=&quot;none&quot;] {stroke: none;}&#10;path, polyline, polygon, line {stroke-linecap:round;}&#10;g[c_partid=&quot;part_pad&quot;][layerid=&quot;1&quot;] ellipse:not([c_etype=&quot;pad_outer&quot;]) {fill:#000000;}&#10;g[c_partid=&quot;part_pad&quot;][layerid=&quot;1&quot;] polygon:not([c_etype=&quot;pad_outer&quot;]) {fill:#000000;}&#10;g[c_partid=&quot;part_pad&quot;][layerid=&quot;1&quot;] polyline:not([c_etype=&quot;pad_outer&quot;]) {stroke:#000000;}&#10;g[c_partid=&quot;part_pad&quot;][layerid=&quot;2&quot;] ellipse:not([c_etype=&quot;pad_outer&quot;]) {fill:#000000;}&#10;g[c_partid=&quot;part_pad&quot;][layerid=&quot;2&quot;] polygon:not([c_etype=&quot;pad_outer&quot;]) {fill:#000000;}&#10;g[c_partid=&quot;part_pad&quot;][layerid=&quot;2&quot;] polyline:not([c_etype=&quot;pad_outer&quot;]) {stroke:#000000;}&#10;g[c_partid=&quot;part_pad&quot;][layerid=&quot;11&quot;] ellipse:not([c_etype=&quot;pad_outer&quot;]) {fill:#000000;}&#10;g[c_partid=&quot;part_pad&quot;][layerid=&quot;11&quot;] polygon:not([c_etype=&quot;pad_outer&quot;]) {fill:#000000;}&#10;g[c_partid=&quot;part_pad&quot;][layerid=&quot;11&quot;] polyline:not([c_etype=&quot;pad_outer&quot;]) {stroke:#000000;}&#10;g[c_partid=&quot;part_pad&quot;][layerid=&quot;11&quot;] circle {fill:#FFFFFF;}&#10;g[c_partid=&quot;part_pad&quot;][layerid=&quot;11&quot;] &gt; polyline:nth-of-type(2) {stroke:#FFFFFF;}&#10;g[c_partid=&quot;part_pad&quot;][layerid=&quot;11&quot;][c_shape=&quot;ELLIPSE&quot;]  polyline:nth-last-of-type(1) {stroke:#FFFFFF;}&#10;g[c_partid=&quot;part_pad&quot;][layerid=&quot;11&quot;][c_shape=&quot;RECT&quot;]  polyline:nth-last-of-type(1) {stroke:#FFFFFF;}&#10;g[c_partid=&quot;part_pad&quot;][layerid=&quot;11&quot;][c_shape=&quot;POLYGON&quot;]  polyline:nth-last-of-type(1) {stroke:#FFFFFF;}&#10;g[c_partid=&quot;part_via&quot;] &gt; * + circle, #gCurParts g[c_partid=&quot;part_via&quot;] &gt; * + circle {fill:#FFFFFF;}&#10;g[c_partid=&quot;part_pad&quot;] &gt; polygon[c_etype=&quot;pad_outer&quot;], #gCurParts g[c_partid=&quot;part_pad&quot;] &gt; polygon[c_etype=&quot;pad_outer&quot;] {stroke-linejoin: round;stroke-miterlimit: 100;}&#10;g[c_partid=&quot;part_hole&quot;] &gt; circle {fill: #FFFFFF;}path, polyline, polygon {stroke-linejoin:round;}&#10;rect, circle, ellipse, polyline, line, polygon, path {shape-rendering:crispEdges;}&#10;</style></svg>
