<?xml version="1.0" encoding="UTF-8" standalone="no"?>
<!-- Created with Inkscape (http://www.inkscape.org/) -->

<svg
   width="210mm"
   height="297mm"
   viewBox="0 0 210 297"
   version="1.1"
   id="svg1"
   xml:space="preserve"
   inkscape:version="1.3.1 (91b66b0783, 2023-11-16)"
   sodipodi:docname="OH_07_Combined.svg"
   xmlns:inkscape="http://www.inkscape.org/namespaces/inkscape"
   xmlns:sodipodi="http://sodipodi.sourceforge.net/DTD/sodipodi-0.dtd"
   xmlns="http://www.w3.org/2000/svg"
   xmlns:svg="http://www.w3.org/2000/svg"><sodipodi:namedview
     id="namedview1"
     pagecolor="#505050"
     bordercolor="#ffffff"
     borderopacity="1"
     inkscape:showpageshadow="0"
     inkscape:pageopacity="0"
     inkscape:pagecheckerboard="1"
     inkscape:deskcolor="#d1d1d1"
     inkscape:document-units="mm"
     showgrid="false"
     inkscape:zoom="0.47181621"
     inkscape:cx="554.24124"
     inkscape:cy="533.04655"
     inkscape:current-layer="g2" /><defs
     id="defs1"><rect
       x="577.99999"
       y="561.49999"
       width="172.25"
       height="91.249998"
       id="rect2440" /><rect
       x="623.99998"
       y="603.75781"
       width="17.5"
       height="20.492176"
       id="rect2434" /><rect
       x="591.14125"
       y="597.85877"
       width="83.792151"
       height="44.547726"
       id="rect2378" /><rect
       x="586.19151"
       y="605.9905"
       width="91.923879"
       height="45.96194"
       id="rect2372" /><rect
       x="302.82057"
       y="667.13541"
       width="30.48876"
       height="32.039036"
       id="rect57342" /><rect
       x="250.88632"
       y="490.92071"
       width="76.480282"
       height="48.316936"
       id="rect51796" /><rect
       x="333.97885"
       y="659.91882"
       width="168.81644"
       height="43.848427"
       id="rect50204" /><rect
       x="333.97885"
       y="659.91882"
       width="168.81644"
       height="43.848427"
       id="rect50204-4" /><rect
       x="333.97885"
       y="659.91882"
       width="168.81644"
       height="43.848427"
       id="rect50204-4-2" /><rect
       x="333.97885"
       y="659.91882"
       width="168.81644"
       height="43.848427"
       id="rect50204-4-2-3" /><rect
       x="333.97885"
       y="659.91882"
       width="168.81644"
       height="43.848427"
       id="rect50204-7" /><rect
       x="333.97885"
       y="659.91882"
       width="168.81644"
       height="43.848427"
       id="rect50204-7-4" /><rect
       x="333.97885"
       y="659.91882"
       width="168.81644"
       height="43.848427"
       id="rect50204-7-4-7" /><rect
       x="333.97885"
       y="659.91882"
       width="168.81644"
       height="43.848427"
       id="rect50204-7-4-7-6" /><rect
       x="333.97885"
       y="659.91882"
       width="168.81644"
       height="43.848427"
       id="rect50204-7-4-7-6-4" /><rect
       x="333.97885"
       y="659.91882"
       width="57.736515"
       height="103.2166"
       id="rect50204-7-4-7-6-4-6" /><rect
       x="333.97885"
       y="659.91882"
       width="57.736515"
       height="103.2166"
       id="rect50204-7-4-7-6-4-6-2" /><rect
       x="333.97885"
       y="659.91882"
       width="168.81644"
       height="43.848427"
       id="rect50204-7-4-7-6-4-1" /><rect
       x="333.97885"
       y="659.91882"
       width="168.81644"
       height="43.848427"
       id="rect50204-7-4-7-6-4-1-3" /><rect
       x="333.97885"
       y="659.91882"
       width="168.81644"
       height="43.848427"
       id="rect50204-7-4-7-6-4-1-6" /><rect
       x="333.97885"
       y="659.91882"
       width="168.81644"
       height="43.848427"
       id="rect50204-7-4-7-6-4-1-63" /><rect
       x="333.97885"
       y="659.91882"
       width="168.81644"
       height="43.848427"
       id="rect50204-0" /><rect
       x="333.97885"
       y="659.91882"
       width="168.81644"
       height="43.848427"
       id="rect50204-0-3" /><rect
       x="333.97885"
       y="659.91882"
       width="168.81644"
       height="43.848427"
       id="rect50204-0-3-2" /><rect
       x="333.97885"
       y="659.91882"
       width="168.81644"
       height="43.848427"
       id="rect50204-0-3-2-2" /><rect
       x="333.97885"
       y="659.91882"
       width="168.81644"
       height="43.848427"
       id="rect50204-0-3-2-2-1" /><rect
       x="333.97885"
       y="659.91882"
       width="168.81644"
       height="43.848427"
       id="rect50204-7-4-70" /><rect
       x="333.97885"
       y="659.91882"
       width="168.81644"
       height="43.848427"
       id="rect50204-7-4-7-0" /><rect
       x="333.97885"
       y="659.91882"
       width="168.81644"
       height="43.848427"
       id="rect50204-7-4-7-6-8" /><rect
       x="333.97885"
       y="659.91882"
       width="168.81644"
       height="43.848427"
       id="rect50204-7-4-7-6-4-66" /></defs><g
     inkscape:label="Layer 1"
     inkscape:groupmode="layer"
     id="layer1"><g
       id="g2"
       transform="translate(28.78628,32.934159)"><g
         id="g1"
         transform="matrix(0,-10,10,0,0.24999987,228.85)"
         style="display:inline;fill:none;stroke:#ff0028;stroke-width:0.02;stroke-dasharray:none;stroke-opacity:1"><path
           d="m -11.43,7.2275 v -14.455 a 0.075,0.075 -180 0 1 0.075,-0.075 h 22.71 a 0.075,0.075 -90 0 1 0.075,0.075 v 14.455 a 0.075,0.075 0 0 1 -0.075,0.075 h -22.71 a 0.075,0.075 90 0 1 -0.075,-0.075 z"
           transform="matrix(1,0,0,-1,11.43,7.3025)"
           fill="#000000"
           stroke-linecap="round"
           stroke-linejoin="round"
           id="path1"
           style="fill:none;stroke:#ff0028;stroke-width:0.02;stroke-dasharray:none;stroke-opacity:1" /><path
           d="m -11.081794,3.2439238 a 2.7500003,2.7500003 0 1 1 5.5000005,0 2.7500003,2.7500003 0 1 1 -5.5000005,0 z"
           transform="matrix(1,0,0,-1,11.43,7.3025)"
           fill="#ffffff"
           stroke="#000000"
           stroke-width="0.001cm"
           stroke-linecap="round"
           stroke-linejoin="round"
           id="path2"
           style="fill:none;stroke:#ff0028;stroke-width:0.02;stroke-dasharray:none;stroke-opacity:1" /><path
           d="m 10.729029,-2.3729284 a 0.1600005,0.1600005 0 1 1 0.320001,0 0.1600005,0.1600005 0 1 1 -0.320001,0 z"
           transform="matrix(1,0,0,-1,11.43,7.3025)"
           fill="#ffffff"
           stroke="#000000"
           stroke-width="0.001cm"
           stroke-linecap="round"
           stroke-linejoin="round"
           id="path3"
           style="fill:none;stroke:#ff0028;stroke-width:0.02;stroke-dasharray:none;stroke-opacity:1" /><path
           d="m -2.2204363,-4.6825 a 0.605,0.605 0 1 1 1.21,0 0.605,0.605 0 1 1 -1.21,0 z"
           transform="matrix(1,0,0,-1,11.43,7.3025)"
           fill="#ffffff"
           stroke="#000000"
           stroke-width="0.001cm"
           stroke-linecap="round"
           stroke-linejoin="round"
           id="path4"
           style="fill:none;stroke:#ff0028;stroke-width:0.02;stroke-dasharray:none;stroke-opacity:1" /><path
           d="m -2.2204363,4.6825 a 0.605,0.605 0 1 1 1.21,0 0.605,0.605 0 1 1 -1.21,0 z"
           transform="matrix(1,0,0,-1,11.43,7.3025)"
           fill="#ffffff"
           stroke="#000000"
           stroke-width="0.001cm"
           stroke-linecap="round"
           stroke-linejoin="round"
           id="path5"
           style="fill:none;stroke:#ff0028;stroke-width:0.02;stroke-dasharray:none;stroke-opacity:1" /><path
           d="m 2.8992621,-0.5783355 a 0.605,0.605 0 1 1 1.21,0 0.605,0.605 0 1 1 -1.21,0 z"
           transform="matrix(1,0,0,-1,11.43,7.3025)"
           fill="#ffffff"
           stroke="#000000"
           stroke-width="0.001cm"
           stroke-linecap="round"
           stroke-linejoin="round"
           id="path6"
           style="fill:none;stroke:#ff0028;stroke-width:0.02;stroke-dasharray:none;stroke-opacity:1" /><path
           d="m -2.2204363,-2.1573136 a 0.605,0.605 0 1 1 1.21,0 0.605,0.605 0 1 1 -1.21,0 z"
           transform="matrix(1,0,0,-1,11.43,7.3025)"
           fill="#ffffff"
           stroke="#000000"
           stroke-width="0.001cm"
           stroke-linecap="round"
           stroke-linejoin="round"
           id="path7"
           style="fill:none;stroke:#ff0028;stroke-width:0.02;stroke-dasharray:none;stroke-opacity:1" /><path
           d="m -2.2204363,2.1573136 a 0.605,0.605 0 1 1 1.21,0 0.605,0.605 0 1 1 -1.21,0 z"
           transform="matrix(1,0,0,-1,11.43,7.3025)"
           fill="#ffffff"
           stroke="#000000"
           stroke-width="0.001cm"
           stroke-linecap="round"
           stroke-linejoin="round"
           id="path8"
           style="fill:none;stroke:#ff0028;stroke-width:0.02;stroke-dasharray:none;stroke-opacity:1" /><path
           d="m 6.5137289,0 a 0.605,0.605 0 1 1 1.21,0 0.605,0.605 0 1 1 -1.21,0 z"
           transform="matrix(1,0,0,-1,11.43,7.3025)"
           fill="#ffffff"
           stroke="#000000"
           stroke-width="0.001cm"
           stroke-linecap="round"
           stroke-linejoin="round"
           id="path9"
           style="fill:none;stroke:#ff0028;stroke-width:0.02;stroke-dasharray:none;stroke-opacity:1" /><path
           d="m 0.0875,-3.625 h 3.675 a 0.05,0.05 90 0 0 0.05,-0.05 V -6.13 a 0.05,0.05 0 0 0 -0.05,-0.05 h -3.675 a 0.05,0.05 -90 0 0 -0.05,0.05 v 2.4550001 a 0.05,0.05 179.99985 0 0 0.05,0.05 z"
           transform="matrix(1,0,0,-1,11.43,7.3025)"
           fill="#ffffff"
           stroke="#000000"
           stroke-width="0.001cm"
           stroke-linecap="round"
           stroke-linejoin="round"
           id="path10"
           style="fill:none;stroke:#ff0028;stroke-width:0.02;stroke-dasharray:none;stroke-opacity:1" /><path
           d="m 0.0875,1.2775 h 1.185 a 0.05,0.05 90 0 0 0.05,-0.05 v -2.455 a 0.05,0.05 0 0 0 -0.05,-0.05 h -1.185 a 0.05,0.05 -90 0 0 -0.05,0.05 v 2.4550001 a 0.05,0.05 179.99985 0 0 0.05,0.05 z"
           transform="matrix(1,0,0,-1,11.43,7.3025)"
           fill="#ffffff"
           stroke="#000000"
           stroke-width="0.001cm"
           stroke-linecap="round"
           stroke-linejoin="round"
           id="path11"
           style="fill:none;stroke:#ff0028;stroke-width:0.02;stroke-dasharray:none;stroke-opacity:1" /><path
           d="m 3.7625,3.625 h -3.675 a 0.05,0.05 -90 0 0 -0.05,0.05 v 2.4550001 a 0.05,0.05 179.99985 0 0 0.05,0.05 h 3.675 a 0.05,0.05 90 0 0 0.05,-0.05 V 3.675 a 0.05,0.05 0 0 0 -0.05,-0.05 z"
           transform="matrix(1,0,0,-1,11.43,7.3025)"
           fill="#ffffff"
           stroke="#000000"
           stroke-width="0.001cm"
           stroke-linecap="round"
           stroke-linejoin="round"
           id="path12"
           style="fill:none;stroke:#ff0028;stroke-width:0.02;stroke-dasharray:none;stroke-opacity:1" /><path
           d="m -6.4571434,5.5827694 a 0.16,0.16 0 1 1 0.32,0 0.16,0.16 0 1 1 -0.32,0 z"
           transform="matrix(1,0,0,-1,11.43,7.3025)"
           fill="#ffffff"
           stroke="#000000"
           stroke-width="0.001cm"
           stroke-linecap="round"
           stroke-linejoin="round"
           id="path13"
           style="fill:none;stroke:#ff0028;stroke-width:0.02;stroke-dasharray:none;stroke-opacity:1" /><path
           d="m -10.526689,0.905035 a 0.16,0.16 0 1 1 0.32,0 0.16,0.16 0 1 1 -0.32,0 z"
           transform="matrix(1,0,0,-1,11.43,7.3025)"
           fill="#ffffff"
           stroke="#000000"
           stroke-width="0.001cm"
           stroke-linecap="round"
           stroke-linejoin="round"
           id="path14"
           style="fill:none;stroke:#ff0028;stroke-width:0.02;stroke-dasharray:none;stroke-opacity:1" /><path
           d="m -10.32525,-6.82625 a 0.324,0.324 0 1 1 0.648,0 0.324,0.324 0 1 1 -0.648,0 z"
           transform="matrix(1,0,0,-1,11.43,7.3025)"
           fill="#ffffff"
           stroke="#000000"
           stroke-width="0.001cm"
           stroke-linecap="round"
           stroke-linejoin="round"
           id="path15"
           style="fill:none;stroke:#ff0028;stroke-width:0.02;stroke-dasharray:none;stroke-opacity:1" /><path
           d="m 9.67725,-6.82625 a 0.324,0.324 0 1 1 0.648,0 0.324,0.324 0 1 1 -0.648,0 z"
           transform="matrix(1,0,0,-1,11.43,7.3025)"
           fill="#ffffff"
           stroke="#000000"
           stroke-width="0.001cm"
           stroke-linecap="round"
           stroke-linejoin="round"
           id="path16"
           style="fill:none;stroke:#ff0028;stroke-width:0.02;stroke-dasharray:none;stroke-opacity:1" /><path
           d="m -1.75275,-6.82625 a 0.324,0.324 0 1 1 0.648,0 0.324,0.324 0 1 1 -0.648,0 z"
           transform="matrix(1,0,0,-1,11.43,7.3025)"
           fill="#ffffff"
           stroke="#000000"
           stroke-width="0.001cm"
           stroke-linecap="round"
           stroke-linejoin="round"
           id="path17"
           style="fill:none;stroke:#ff0028;stroke-width:0.02;stroke-dasharray:none;stroke-opacity:1" /><path
           d="m -1.75275,6.82625 a 0.324,0.324 0 1 1 0.648,0 0.324,0.324 0 1 1 -0.648,0 z"
           transform="matrix(1,0,0,-1,11.43,7.3025)"
           fill="#ffffff"
           stroke="#000000"
           stroke-width="0.001cm"
           stroke-linecap="round"
           stroke-linejoin="round"
           id="path18"
           style="fill:none;stroke:#ff0028;stroke-width:0.02;stroke-dasharray:none;stroke-opacity:1" /><path
           d="m -10.32525,6.82625 a 0.324,0.324 0 1 1 0.648,0 0.324,0.324 0 1 1 -0.648,0 z"
           transform="matrix(1,0,0,-1,11.43,7.3025)"
           fill="#ffffff"
           stroke="#000000"
           stroke-width="0.001cm"
           stroke-linecap="round"
           stroke-linejoin="round"
           id="path19"
           style="fill:none;stroke:#ff0028;stroke-width:0.02;stroke-dasharray:none;stroke-opacity:1" /><path
           d="m 9.67725,6.82625 a 0.324,0.324 0 1 1 0.648,0 0.324,0.324 0 1 1 -0.648,0 z"
           transform="matrix(1,0,0,-1,11.43,7.3025)"
           fill="#ffffff"
           stroke="#000000"
           stroke-width="0.001cm"
           stroke-linecap="round"
           stroke-linejoin="round"
           id="path20"
           style="fill:none;stroke:#ff0028;stroke-width:0.02;stroke-dasharray:none;stroke-opacity:1" /><path
           d="M 9.7929895,1.2786431 H 10.97799 a 0.05,0.05 90 0 0 0.05,-0.05 v -2.455 a 0.05,0.05 0 0 0 -0.05,-0.05 H 9.7929895 a 0.05,0.05 -90 0 0 -0.05,0.05 v 2.4550002 a 0.05,0.05 179.99985 0 0 0.05,0.05 z"
           transform="matrix(1,0,0,-1,11.43,7.3025)"
           fill="#ffffff"
           stroke="#000000"
           stroke-width="0.001cm"
           stroke-linecap="round"
           stroke-linejoin="round"
           id="path21"
           style="fill:none;stroke:#ff0028;stroke-width:0.02;stroke-dasharray:none;stroke-opacity:1" /><path
           d="m -6.35125,-5.87375 a 0.16,0.16 0 1 1 0.32,0 0.16,0.16 0 1 1 -0.32,0 z"
           transform="matrix(1,0,0,-1,11.43,7.3025)"
           fill="#ffffff"
           stroke="#000000"
           stroke-width="0.001cm"
           stroke-linecap="round"
           stroke-linejoin="round"
           id="path22"
           style="fill:none;stroke:#ff0028;stroke-width:0.02;stroke-dasharray:none;stroke-opacity:1" /><path
           d="m -11.06,-0.45 a 0.16,0.16 0 1 1 0.32,0 0.16,0.16 0 1 1 -0.32,0 z"
           transform="matrix(1,0,0,-1,11.43,7.3025)"
           fill="#ffffff"
           stroke="#000000"
           stroke-width="0.001cm"
           stroke-linecap="round"
           stroke-linejoin="round"
           id="path23"
           style="fill:none;stroke:#ff0028;stroke-width:0.02;stroke-dasharray:none;stroke-opacity:1" /><path
           d="m -8.915,-3.6086415 a 0.475,0.475 0 1 1 0.95,0 0.475,0.475 0 1 1 -0.95,0 z"
           transform="matrix(1,0,0,-1,11.43,7.3025)"
           fill="#ffffff"
           stroke="#000000"
           stroke-width="0.001cm"
           stroke-linecap="round"
           stroke-linejoin="round"
           id="path24"
           style="fill:none;stroke:#ff0028;stroke-width:0.02;stroke-dasharray:none;stroke-opacity:1" /><path
           d="m 4.6025,-5.71495 a 0.16,0.16 0 1 1 0.32,0 0.16,0.16 0 1 1 -0.32,0 z"
           transform="matrix(1,0,0,-1,11.43,7.3025)"
           fill="#ffffff"
           stroke="#000000"
           stroke-width="0.001cm"
           stroke-linecap="round"
           stroke-linejoin="round"
           id="path25"
           style="fill:none;stroke:#ff0028;stroke-width:0.02;stroke-dasharray:none;stroke-opacity:1" /><path
           d="m -3.49375,-5.71495 a 0.16,0.16 0 1 1 0.32,0 0.16,0.16 0 1 1 -0.32,0 z"
           transform="matrix(1,0,0,-1,11.43,7.3025)"
           fill="#ffffff"
           stroke="#000000"
           stroke-width="0.001cm"
           stroke-linecap="round"
           stroke-linejoin="round"
           id="path26"
           style="fill:none;stroke:#ff0028;stroke-width:0.02;stroke-dasharray:none;stroke-opacity:1" /><path
           d="m -11.11375,-5.71495 a 0.16,0.16 0 1 1 0.32,0 0.16,0.16 0 1 1 -0.32,0 z"
           transform="matrix(1,0,0,-1,11.43,7.3025)"
           fill="#ffffff"
           stroke="#000000"
           stroke-width="0.001cm"
           stroke-linecap="round"
           stroke-linejoin="round"
           id="path27"
           style="fill:none;stroke:#ff0028;stroke-width:0.02;stroke-dasharray:none;stroke-opacity:1" /><path
           d="m -3.49375,5.71495 a 0.16,0.16 0 1 1 0.32,0 0.16,0.16 0 1 1 -0.32,0 z"
           transform="matrix(1,0,0,-1,11.43,7.3025)"
           fill="#ffffff"
           stroke="#000000"
           stroke-width="0.001cm"
           stroke-linecap="round"
           stroke-linejoin="round"
           id="path28"
           style="fill:none;stroke:#ff0028;stroke-width:0.02;stroke-dasharray:none;stroke-opacity:1" /><path
           d="m 4.6025,5.71495 a 0.16,0.16 0 1 1 0.32,0 0.16,0.16 0 1 1 -0.32,0 z"
           transform="matrix(1,0,0,-1,11.43,7.3025)"
           fill="#ffffff"
           stroke="#000000"
           stroke-width="0.001cm"
           stroke-linecap="round"
           stroke-linejoin="round"
           id="path29"
           style="fill:none;stroke:#ff0028;stroke-width:0.02;stroke-dasharray:none;stroke-opacity:1" /><path
           d="m 8.5413632,1.9927243 a 0.16,0.16 0 1 1 0.32,0 0.16,0.16 0 1 1 -0.32,0 z"
           transform="matrix(1,0,0,-1,11.43,7.3025)"
           fill="#ffffff"
           stroke="#000000"
           stroke-width="0.001cm"
           stroke-linecap="round"
           stroke-linejoin="round"
           id="path30"
           style="fill:none;stroke:#ff0028;stroke-width:0.02;stroke-dasharray:none;stroke-opacity:1" /><path
           d="m -5.3401655,5.3503389 h 1.185 a 0.05,0.05 90 0 0 0.05,-0.05 v -2.455 a 0.05,0.05 0 0 0 -0.05,-0.05 h -1.185 a 0.05,0.05 -90 0 0 -0.05,0.05 V 5.300339 a 0.05,0.05 179.99985 0 0 0.05,0.05 z"
           transform="matrix(1,0,0,-1,11.43,7.3025)"
           fill="#ffffff"
           stroke="#000000"
           stroke-width="0.001cm"
           stroke-linecap="round"
           stroke-linejoin="round"
           id="path31"
           style="fill:none;stroke:#ff0028;stroke-width:0.02;stroke-dasharray:none;stroke-opacity:1" /><path
           d="m -5.3401655,2.6353389 h 1.185 a 0.05,0.05 90 0 0 0.05,-0.05 v -2.455 a 0.05,0.05 0 0 0 -0.05,-0.05 h -1.185 a 0.05,0.05 -90 0 0 -0.05,0.05 V 2.585339 a 0.05,0.05 179.99985 0 0 0.05,0.05 z"
           transform="matrix(1,0,0,-1,11.43,7.3025)"
           fill="#ffffff"
           stroke="#000000"
           stroke-width="0.001cm"
           stroke-linecap="round"
           stroke-linejoin="round"
           id="path32"
           style="fill:none;stroke:#ff0028;stroke-width:0.02;stroke-dasharray:none;stroke-opacity:1" /><path
           d="m -5.3401655,-0.0796611 h 1.185 a 0.05,0.05 90 0 0 0.05,-0.05 v -2.455 a 0.05,0.05 0 0 0 -0.05,-0.05 h -1.185 a 0.05,0.05 -90 0 0 -0.05,0.05 v 2.4550001 a 0.05,0.05 179.99985 0 0 0.05,0.0499999 z"
           transform="matrix(1,0,0,-1,11.43,7.3025)"
           fill="#ffffff"
           stroke="#000000"
           stroke-width="0.001cm"
           stroke-linecap="round"
           stroke-linejoin="round"
           id="path33"
           style="fill:none;stroke:#ff0028;stroke-width:0.02;stroke-dasharray:none;stroke-opacity:1" /><path
           d="m -5.3401655,-2.7946611 h 1.185 a 0.05,0.05 90 0 0 0.05,-0.05 v -2.455 a 0.05,0.05 0 0 0 -0.05,-0.05 h -1.185 a 0.05,0.05 -90 0 0 -0.05,0.05 v 2.4550001 a 0.05,0.05 179.99985 0 0 0.05,0.05 z"
           transform="matrix(1,0,0,-1,11.43,7.3025)"
           fill="#ffffff"
           stroke="#000000"
           stroke-width="0.001cm"
           stroke-linecap="round"
           stroke-linejoin="round"
           id="path34"
           style="fill:none;stroke:#ff0028;stroke-width:0.02;stroke-dasharray:none;stroke-opacity:1" /></g><g
         inkscape:label="Layer 1"
         id="layer1-7"
         transform="translate(-31.719141,-33.95)"
         style="display:inline"><path
           d="m 175.63114,156.437 a 1.588,1.588 0 0 0 1.588,-1.588 V 82.65808 a 1.588,1.588 0 0 0 -1.588,-1.588 h -7.20763 a 1.588,1.588 0 0 0 -1.5182,1.12237 26,26 0 0 1 -41.13786,12.64791 1.588,1.588 0 0 0 -0.99437,-0.3499 H 85.214854 a 1.588,1.588 0 0 0 -0.99437,0.3499 A 26,26 0 0 1 43.082627,82.19245 1.588,1.588 0 0 0 41.564428,81.07008 H 34.35714 a 1.588,1.588 0 0 0 -1.588,1.588 V 154.849 a 1.588,1.588 0 0 0 1.588,1.588 h 2.3745 a 6.3505,6.3505 0 1 1 0,12.701 h -2.3745 a 1.588,1.588 0 0 0 -1.588,1.588 v 16.3067 a 1.588,1.588 0 0 0 1.588,1.588 h 141.274 a 1.588,1.588 0 0 0 1.588,-1.588 V 170.726 a 1.588,1.588 0 0 0 -1.588,-1.588 h -2.3745 a 6.3505,6.3505 0 0 1 0,-12.701 z"
           fill="#000000"
           stroke-linecap="round"
           stroke-linejoin="round"
           id="path47523"
           style="fill:none;stroke:#ff8800;stroke-width:0.5;stroke-dasharray:none;stroke-opacity:1" /><path
           d="m 49.44464,100.875 a 1.6,1.6 0 1 0 -3.2,0 1.6,1.6 0 1 0 3.2,0 z"
           fill="#ffffff"
           stroke="#000000"
           stroke-width="0.001cm"
           stroke-linecap="round"
           stroke-linejoin="round"
           id="path47525"
           style="fill:none;stroke:#ff8800;stroke-width:0.5;stroke-dasharray:none;stroke-opacity:1" /><path
           d="m 49.44464,181.8375 a 1.6,1.6 0 1 0 -3.2,0 1.6,1.6 0 1 0 3.2,0 z"
           fill="#ffffff"
           stroke="#000000"
           stroke-width="0.001cm"
           stroke-linecap="round"
           stroke-linejoin="round"
           id="path47527"
           style="fill:none;stroke:#ff8800;stroke-width:0.5;stroke-dasharray:none;stroke-opacity:1" /><path
           d="m 163.74364,181.8375 a 1.6,1.6 0 1 0 -3.2,0 1.6,1.6 0 1 0 3.2,0 z"
           fill="#ffffff"
           stroke="#000000"
           stroke-width="0.001cm"
           stroke-linecap="round"
           stroke-linejoin="round"
           id="path47529"
           style="fill:none;stroke:#ff8800;stroke-width:0.5;stroke-dasharray:none;stroke-opacity:1" /><path
           d="m 163.74364,100.875 a 1.6,1.6 0 1 0 -3.2,0 1.6,1.6 0 1 0 3.2,0 z"
           fill="#ffffff"
           stroke="#000000"
           stroke-width="0.001cm"
           stroke-linecap="round"
           stroke-linejoin="round"
           id="path47531"
           style="fill:none;stroke:#ff8800;stroke-width:0.5;stroke-dasharray:none;stroke-opacity:1" /><path
           d="m 43.19414,110.875 a 0.5,0.5 0 0 1 0.5,-0.5 h 24.55 a 0.5,0.5 0 0 1 0.5,0.5 v 36.75 a 0.5,0.5 0 0 1 -0.5,0.5 H 43.694139 a 0.5,0.5 0 0 1 -0.5,-0.5 z"
           fill="#ffffff"
           stroke="#000000"
           stroke-width="0.001cm"
           stroke-linecap="round"
           stroke-linejoin="round"
           id="path47533"
           style="fill:none;stroke:#ff8800;stroke-width:0.5;stroke-dasharray:none;stroke-opacity:1" /><path
           d="m 141.24414,110.875 a 0.5,0.5 0 0 1 0.5,-0.5 h 24.55 a 0.5,0.5 0 0 1 0.5,0.5 v 36.75 a 0.5,0.5 0 0 1 -0.5,0.5 h -24.55 a 0.5,0.5 0 0 1 -0.5,-0.5 z"
           fill="#ffffff"
           stroke="#000000"
           stroke-width="0.001cm"
           stroke-linecap="round"
           stroke-linejoin="round"
           id="path47535"
           style="display:inline;fill:none;stroke:#ff8800;stroke-width:0.5;stroke-dasharray:none;stroke-opacity:1" /><path
           d="m 92.21914,135.775 a 0.5,0.5 0 0 1 0.5,-0.5 h 24.55 a 0.5,0.5 0 0 1 0.5,0.5 v 11.85 a 0.5,0.5 0 0 1 -0.5,0.5 h -24.55 a 0.5,0.5 0 0 1 -0.5,-0.5 z"
           fill="#ffffff"
           stroke="#000000"
           stroke-width="0.001cm"
           stroke-linecap="round"
           stroke-linejoin="round"
           id="path47537"
           style="fill:none;stroke:#ff8800;stroke-width:0.5;stroke-dasharray:none;stroke-opacity:1" /><path
           d="m 159.01914,164.65436 a 7.2,7.2 0 1 0 -14.4,0 7.2,7.2 0 1 0 14.4,0 z"
           fill="#ffffff"
           stroke="#000000"
           stroke-width="0.001cm"
           stroke-linecap="round"
           stroke-linejoin="round"
           id="path47539"
           style="fill:none;stroke:#ff8800;stroke-width:0.5;stroke-dasharray:none;stroke-opacity:1" /><path
           d="m 90.621004,164.65436 a 7.2,7.2 0 1 0 -14.4,0 7.2,7.2 0 1 0 14.4,0 z"
           fill="#ffffff"
           stroke="#000000"
           stroke-width="0.001cm"
           stroke-linecap="round"
           stroke-linejoin="round"
           id="path47541"
           style="fill:none;stroke:#ff8800;stroke-width:0.5;stroke-dasharray:none;stroke-opacity:1" /><path
           d="m 133.76728,164.65436 a 7.200002,7.200002 0 1 0 -14.4,0 7.200002,7.200002 0 1 0 14.4,0 z"
           fill="#ffffff"
           stroke="#000000"
           stroke-width="0.001cm"
           stroke-linecap="round"
           stroke-linejoin="round"
           id="path47543"
           style="fill:none;stroke:#ff8800;stroke-width:0.5;stroke-dasharray:none;stroke-opacity:1" /><path
           d="m 65.36914,164.65436 a 7.2,7.2 0 1 0 -14.4,0 7.2,7.2 0 1 0 14.4,0 z"
           fill="#ffffff"
           stroke="#000000"
           stroke-width="0.001cm"
           stroke-linecap="round"
           stroke-linejoin="round"
           id="path47545"
           style="fill:none;stroke:#ff8800;stroke-width:0.5;stroke-dasharray:none;stroke-opacity:1" /><path
           d="m 127.2775,103.45738 a 2.5,2.5 0 0 1 2.5,2.5 v 16 a 2.5,2.5 0 0 1 -2.5,2.5 H 81.377495 a 2.5,2.5 0 0 1 -2.5,-2.5 v -16 a 2.5,2.5 0 0 1 2.5,-2.5 z"
           fill="#ffffff"
           stroke="#000000"
           stroke-width="0.001cm"
           stroke-linecap="round"
           stroke-linejoin="round"
           id="path47547"
           style="fill:none;stroke:#ff8800;stroke-width:0.5;stroke-dasharray:none;stroke-opacity:1" /><g
           id="g49059"
           transform="matrix(-10,0,0,-10,177.21914,262)"
           style="display:inline;fill:none;stroke:#ff00e4;stroke-width:0.05;stroke-dasharray:none;stroke-opacity:1"><path
             d="m -13.4937,-1.42875 a 0.63505,0.63505 0 0 0 -0.63505,-0.63505 h -0.23745 a 0.1588,0.1588 90 0 1 -0.1588,-0.1588 l 0.02393,-3.5196796 a 0.1588,0.1588 -179.6105 0 1 0.158796,-0.1577205 H -7.4613 a 0.1588,0.1588 -90 0 1 0.1588,0.1588 V -0.2388 A 0.1588,0.1588 0 0 1 -7.4613,-0.08 h -5.8736 a 0.1588,0.1588 90 0 1 -0.1588,-0.1588 z"
             transform="matrix(1,0,0,-1,14.525,-0.08)"
             fill="#000000"
             stroke-linecap="round"
             stroke-linejoin="round"
             id="path49038"
             style="fill:none;stroke:#ff00e4;stroke-opacity:1" /><path
             d="m -13.17745,-0.47625 a 0.16,0.16 0 1 1 0.32,0 0.16,0.16 0 1 1 -0.32,0 z"
             transform="matrix(1,0,0,-1,14.525,-0.08)"
             fill="#ffffff"
             stroke="#000000"
             stroke-width="0.001cm"
             stroke-linecap="round"
             stroke-linejoin="round"
             id="path49040"
             style="fill:none;stroke:#ff00e4;stroke-opacity:1" /><path
             d="m -13.33625,-5.23875 a 0.16,0.16 0 1 1 0.32,0 0.16,0.16 0 1 1 -0.32,0 z"
             transform="matrix(1,0,0,-1,14.525,-0.08)"
             fill="#ffffff"
             stroke="#000000"
             stroke-width="0.001cm"
             stroke-linecap="round"
             stroke-linejoin="round"
             id="path49042"
             style="fill:none;stroke:#ff00e4;stroke-opacity:1" /><path
             d="m -7.9125,-0.53 a 0.16,0.16 0 1 1 0.32,0 0.16,0.16 0 1 1 -0.32,0 z"
             transform="matrix(1,0,0,-1,14.525,-0.08)"
             fill="#ffffff"
             stroke="#000000"
             stroke-width="0.001cm"
             stroke-linecap="round"
             stroke-linejoin="round"
             id="path49044"
             style="fill:none;stroke:#ff00e4;stroke-opacity:1" /><path
             d="m -11.386142,-2.99 a 0.475,0.475 0 1 1 0.95,0 0.475,0.475 0 1 1 -0.95,0 z"
             transform="matrix(1,0,0,-1,14.525,-0.08)"
             fill="#ffffff"
             stroke="#000000"
             stroke-width="0.001cm"
             stroke-linecap="round"
             stroke-linejoin="round"
             id="path49046"
             style="fill:none;stroke:#ff00e4;stroke-opacity:1" /></g><circle
           style="fill:none;fill-opacity:1;stroke:#00ffca;stroke-width:0.499999;stroke-dasharray:none;stroke-opacity:1"
           id="path55497"
           cx="141.08055"
           cy="232.89999"
           r="12" /><path
           style="fill:#1b1b1b;fill-opacity:1;stroke:none;stroke-width:0.499999;stroke-dasharray:none;stroke-opacity:1"
           d="m 114.30702,149.8934 h 1.5 v 14.01094 h 2.71742 v 1.5 h -4.21742 V 149.8934"
           id="path4962" /><path
           style="fill:#ffffff;fill-opacity:1;stroke:none;stroke-width:0.499999;stroke-dasharray:none;stroke-opacity:1"
           d="m 117.30702,149.8934 h -1.5 v 14.01094 h 2.71742 v -1.5 h -1.21742 V 149.8934"
           id="path4964" /><path
           style="fill:#ffffff;fill-opacity:1;stroke:none;stroke-width:0.499999;stroke-dasharray:none;stroke-opacity:1"
           d="m 114.30702,149.8934 h -1.5 v 17.01094 h 5.71742 v -1.5 h -4.21742 V 149.8934"
           id="path5155" /><path
           style="display:inline;fill:#1b1b1b;fill-opacity:1;stroke:none;stroke-width:0.499999;stroke-dasharray:none;stroke-opacity:1"
           d="m 95.670594,149.89342 h -1.500002 v 14.01094 H 91.45317 v 1.5 h 4.217424 v -15.51094"
           id="path4962-4" /><path
           style="display:inline;fill:#ffffff;fill-opacity:1;stroke:none;stroke-width:0.499999;stroke-dasharray:none;stroke-opacity:1"
           d="m 92.670592,149.89342 h 1.5 v 14.01094 H 91.45317 v -1.5 h 1.217422 v -12.51094"
           id="path4964-2" /><path
           style="display:inline;fill:#ffffff;fill-opacity:1;stroke:none;stroke-width:0.499999;stroke-dasharray:none;stroke-opacity:1"
           d="m 95.670594,149.89342 h 1.499999 v 17.01094 H 91.45317 v -1.5 h 4.217424 v -15.51094"
           id="path5155-2" /><path
           style="fill:#000000;fill-opacity:1;stroke:none;stroke-width:0.390078;stroke-dasharray:none;stroke-opacity:1"
           d="m 57.49393,149.8934 h 1.5 v 8.98418 h -1.5 z"
           id="path5325" /><path
           style="display:inline;fill:#ffffff;fill-opacity:1;stroke:none;stroke-width:0.390078;stroke-dasharray:none;stroke-opacity:1"
           d="m 58.99393,149.8934 h 1.5 v 8.98418 h -1.5 z"
           id="path5325-3" /><path
           style="display:inline;fill:#ffffff;fill-opacity:1;stroke:none;stroke-width:0.390078;stroke-dasharray:none;stroke-opacity:1"
           d="m 55.99393,149.8934 h 1.5 v 8.98418 h -1.5 z"
           id="path5325-4" /><path
           style="display:inline;fill:#000000;fill-opacity:1;stroke:none;stroke-width:0.390078;stroke-dasharray:none;stroke-opacity:1"
           d="m 151.06914,149.89342 h 1.5 v 8.98417 h -1.5 z"
           id="path5325-7" /><path
           style="display:inline;fill:#ffffff;fill-opacity:1;stroke:none;stroke-width:0.390078;stroke-dasharray:none;stroke-opacity:1"
           d="m 152.56914,149.89342 h 1.5 v 8.98417 h -1.5 z"
           id="path5325-3-4" /><path
           style="display:inline;fill:#ffffff;fill-opacity:1;stroke:none;stroke-width:0.390078;stroke-dasharray:none;stroke-opacity:1"
           d="m 149.56914,149.89342 h 1.5 v 8.98417 h -1.5 z"
           id="path5325-4-5" /><path
           style="fill:#000000;fill-opacity:1;stroke:none;stroke-width:0.499999;stroke-dasharray:none;stroke-opacity:1"
           d="m 115.80703,134.66559 v -5.15145 h 23.45608 v -1.5 h -24.95608 v 6.65145 h 1.5"
           id="path5782" /><path
           style="fill:#f3f3f3;fill-opacity:1;stroke:none;stroke-width:0.499999;stroke-dasharray:none;stroke-opacity:1"
           d="m 112.80702,134.66557 h 1.5 v -6.65144 h 24.95606 v -1.5 h -26.45606 v 8.15144"
           id="path5784" /><path
           style="fill:#f3f3f3;fill-opacity:1;stroke:none;stroke-width:0.499999;stroke-dasharray:none;stroke-opacity:1"
           d="m 115.80702,134.66557 h 1.5 v -3.65145 h 21.95607 v -1.5 h -23.45607 v 5.15145"
           id="path5999" /><path
           style="display:inline;fill:#000000;fill-opacity:1;stroke:none;stroke-width:0.499999;stroke-dasharray:none;stroke-opacity:1"
           d="m 94.1263,134.66559 v -5.15145 H 70.67022 v -1.5 h 24.956082 v 6.65145 H 94.1263"
           id="path5782-8" /><path
           style="display:inline;fill:#f3f3f3;fill-opacity:1;stroke:none;stroke-width:0.499999;stroke-dasharray:none;stroke-opacity:1"
           d="m 97.126314,134.66557 h -1.499999 v -6.65145 H 70.67025 v -1.49999 h 26.456064 v 8.15144"
           id="path5784-7" /><path
           style="display:inline;fill:#f3f3f3;fill-opacity:1;stroke:none;stroke-width:0.499999;stroke-dasharray:none;stroke-opacity:1"
           d="m 94.126313,134.66557 h -1.5 v -3.65145 H 70.67024 v -1.5 h 23.456073 v 5.15145"
           id="path5999-6" /><path
           id="rect50976"
           style="fill:#e3e3e3;stroke-width:0.52115"
           d="m 49.69464,181.2429 h 110.599 v 1.5 h -110.599 z" /></g><g
         id="layer2"
         inkscape:label="Black background"
         style="display:inline;fill:#000000;fill-opacity:1;stroke:none;stroke-opacity:1"><rect
           style="display:inline;fill:#000000;fill-opacity:1;stroke:none;stroke-width:0.941507;stroke-opacity:1"
           id="rect41500-9-4-2-5-4-5"
           width="22.376371"
           height="41.59074"
           x="61.938267"
           y="17.658974"
           rx="1.3893589"
           ry="1.6377001" /><rect
           style="display:inline;fill:#000000;fill-opacity:1;stroke:#000000;stroke-width:0.434286;stroke-opacity:1"
           id="rect41500-9-4-2-5-4-5-0"
           width="34.523178"
           height="5.7355952"
           x="56.013409"
           y="62.268459"
           rx="0.82791656"
           ry="0.67712861" /><rect
           style="display:inline;fill:#000000;fill-opacity:1;stroke:#000000;stroke-width:0.403504;stroke-opacity:1"
           id="rect41500-9-4-2-5-4-5-0-5"
           width="29.643572"
           height="5.766377"
           x="58.453213"
           y="141.20514"
           rx="0.57844633"
           ry="0.68076259" /><rect
           style="display:inline;fill:#000000;fill-opacity:1;stroke:#000000;stroke-width:0.193809;stroke-opacity:1"
           id="rect41500-9-4-2-5-4-5-0-5-0"
           width="9.8260002"
           height="4.0133724"
           x="34.038078"
           y="119.6945"
           rx="0.17663193"
           ry="0.22606659" /><rect
           style="display:inline;fill:#000000;fill-opacity:1;stroke:#000000;stroke-width:0.193809;stroke-opacity:1"
           id="rect41500-9-4-2-5-4-5-0-5-0-3"
           width="9.8260002"
           height="4.0133724"
           x="102.76393"
           y="119.64729"
           rx="0.17663193"
           ry="0.22606659" /><rect
           style="display:inline;fill:#000000;fill-opacity:1;stroke:#000000;stroke-width:0.182738;stroke-opacity:1"
           id="rect41500-9-4-2-5-4-5-0-5-0-3-5"
           width="8.7354784"
           height="4.0133724"
           x="103.17623"
           y="135.77887"
           rx="0.15702873"
           ry="0.14062065" /><rect
           style="display:inline;fill:#000000;fill-opacity:1;stroke:#000000;stroke-width:0.182738;stroke-opacity:1"
           id="rect41500-9-4-2-5-4-5-0-5-0-3-5-2"
           width="8.7354784"
           height="4.0133724"
           x="34.57235"
           y="135.80096"
           rx="0.15702873"
           ry="0.14062065" /><rect
           style="display:inline;fill:#000000;fill-opacity:1;stroke:#000000;stroke-width:0.317534;stroke-opacity:1"
           id="rect41500-9-4-2-5-4-5-0-5-8"
           width="18.08795"
           height="5.8523464"
           x="107.4143"
           y="141.16216"
           rx="0.20793915"
           ry="0.25283813" /><rect
           style="display:inline;fill:#000000;fill-opacity:1;stroke:#000000;stroke-width:0.308266;stroke-opacity:1"
           id="rect41500-9-4-2-5-4-5-0-5-8-4"
           width="17.020502"
           height="5.8616147"
           x="21.262562"
           y="141.15752"
           rx="0.19566777"
           ry="0.25323856" /><rect
           style="display:inline;fill:#000000;fill-opacity:1;stroke:#000000;stroke-width:0.25973;stroke-opacity:1"
           id="rect41500-9-4-2-5-4-5-0-5-4"
           width="13.533233"
           height="5.2333927"
           x="66.44796"
           y="149.00391"
           rx="0.32454678"
           ry="0.33157414" /><rect
           style="display:inline;fill:#000000;fill-opacity:1;stroke:#000000;stroke-width:0.245063;stroke-opacity:1"
           id="rect41500-9-4-2-5-4-5-0-5-0-3-5-6"
           width="15.958206"
           height="3.9510469"
           x="71.673294"
           y="-43.987259"
           rx="0.20108236"
           ry="0.20148061"
           transform="rotate(90)" /><rect
           style="display:inline;fill:#000000;fill-opacity:1;stroke:#000000;stroke-width:0.283099;stroke-opacity:1"
           id="rect41500-9-4-2-5-4-5-0-5-0-3-5-6-9"
           width="21.503422"
           height="3.9130104"
           x="68.924858"
           y="-105.66422"
           rx="0.196374"
           ry="0.18775076"
           transform="rotate(90)" /></g><g
         id="layer5"
         inkscape:label="Text"
         style="display:inline"><path
           id="path11163"
           style="font-size:25.3333px;font-family:'Futura Md BT';-inkscape-font-specification:'Futura Md BT, Normal';text-align:center;letter-spacing:-0.2px;white-space:pre;fill:#e3e3e3;stroke:none;stroke-width:0.499999"
           d="m 69.207662,19.178158 c -0.351284,0 -0.686034,0.06035 -1.00459,0.18035 -0.318554,0.120003 -0.596748,0.296737 -0.834574,0.5302 -0.235645,0.231282 -0.415652,0.498222 -0.540019,0.801502 -0.122186,0.303283 -0.183451,0.637112 -0.183451,1.001489 0,0.351283 0.06127,0.685115 0.183451,1.001489 0.122185,0.316373 0.296565,0.590375 0.523482,0.821656 0.229099,0.231281 0.495118,0.404743 0.798401,0.520381 0.305463,0.113459 0.658014,0.170016 1.0573,0.170016 0.702569,0 1.246781,-0.186553 1.632975,-0.559656 0.386194,-0.373102 0.579293,-0.89676 0.579293,-1.570963 l -0.0098,-0.314193 -0.0031,-0.137459 h -1.898075 v 0.657841 h 1.151867 v 0.06873 c 0,0.35783 -0.127642,0.640731 -0.382922,0.84801 -0.253099,0.20728 -0.603294,0.310576 -1.050582,0.310576 -0.523652,0 -0.950043,-0.168754 -1.279508,-0.506946 -0.327285,-0.338194 -0.490927,-0.776756 -0.490927,-1.315682 0,-0.532381 0.164561,-0.964397 0.494027,-1.296045 0.331648,-0.333828 0.754766,-0.500745 1.26969,-0.500745 0.250918,0 0.47818,0.04674 0.681095,0.14056 0.205096,0.09164 0.386941,0.230018 0.54622,0.415479 L 71.01739,20.01635 C 70.781745,19.732705 70.514807,19.521807 70.215888,19.384348 69.919151,19.24689 69.582965,19.178159 69.207681,19.178159 Z m 2.977596,0.108003 V 24.0776 h 0.730188 v -2.143538 h 0.08837 l 1.593701,2.143538 h 0.880566 l -1.649511,-2.179712 c 0.366556,-0.04582 0.641477,-0.176733 0.824755,-0.392741 0.183281,-0.216007 0.274919,-0.515674 0.274919,-0.899686 0,-0.106913 -0.01125,-0.211644 -0.03307,-0.314193 -0.02182,-0.104731 -0.05127,-0.201079 -0.08837,-0.288355 -0.08073,-0.183278 -0.19528,-0.332394 -0.343648,-0.448034 -0.124368,-0.09819 -0.273484,-0.166916 -0.448035,-0.206189 -0.174551,-0.04145 -0.422369,-0.06253 -0.743107,-0.06253 z m 3.701066,0 V 24.0776 h 1.050582 0.209806 c 0.283646,0 0.52911,-0.0084 0.736389,-0.02584 0.20728,-0.01745 0.377468,-0.04272 0.510564,-0.07545 0.270553,-0.072 0.509473,-0.187469 0.716752,-0.346749 0.279281,-0.218189 0.489664,-0.491272 0.631486,-0.818554 0.141824,-0.327285 0.212907,-0.702228 0.212907,-1.125513 0,-0.425469 -0.072,-0.8042 -0.216008,-1.135848 -0.144004,-0.333828 -0.353468,-0.605475 -0.628385,-0.814937 -0.213825,-0.163641 -0.458371,-0.27911 -0.733289,-0.346749 -0.272736,-0.06764 -0.752927,-0.101803 -1.440222,-0.101803 z m -2.921785,0.66766 h 0.140559 c 0.390558,0 0.658931,0.05564 0.805119,0.166915 0.146185,0.109094 0.219108,0.293808 0.219108,0.553454 0,0.244371 -0.06729,0.41456 -0.202571,0.510563 -0.135276,0.096 -0.409279,0.143661 -0.821656,0.143661 h -0.140559 z m 3.701066,0.02945 h 0.281119 0.281637 c 0.39274,0 0.686378,0.02526 0.880566,0.07545 0.19637,0.05018 0.360014,0.129651 0.490927,0.238745 0.181096,0.154915 0.316202,0.349449 0.40566,0.58291 0.09164,0.231281 0.137459,0.4973 0.137459,0.798401 0,0.307645 -0.04582,0.576939 -0.137459,0.80822 -0.09164,0.229099 -0.226746,0.420359 -0.40566,0.573091 -0.130913,0.115641 -0.287091,0.197463 -0.468189,0.245463 -0.178915,0.04582 -0.449644,0.06873 -0.811837,0.06873 h -0.654223 z m -3.469039,4.965589 -0.962215,2.559017 -0.02274,0.06201 c -0.08291,0.235645 -0.16238,0.483464 -0.238745,0.743107 l -0.108004,-0.33693 c -0.03491,-0.111276 -0.084,-0.251089 -0.147278,-0.419096 L 70.810665,25.138517 H 70.04172 l 1.848982,4.977991 1.073837,-2.719731 c 0.03492,-0.08727 0.05548,-0.139636 0.06201,-0.157096 0.01745,-0.05455 0.03473,-0.109268 0.05219,-0.163814 l 0.111622,-0.363286 0.104386,0.320911 0.131258,0.349849 1.092957,2.733167 1.8557,-4.977991 H 75.599003 L 74.6988,27.576611 c -0.03055,0.08073 -0.05203,0.13964 -0.06511,0.176734 -0.024,0.06982 -0.05018,0.150723 -0.07855,0.242362 -0.03927,0.117822 -0.06873,0.225826 -0.08837,0.324011 l -0.121439,-0.382922 -0.133842,-0.379822 z m -6.099886,0.189652 v 4.791439 h 0.729671 V 27.7797 h 0.294556 0.153995 c 0.344738,0 0.600941,-0.01872 0.768946,-0.05581 0.168007,-0.03927 0.312011,-0.101459 0.432015,-0.186552 0.150549,-0.111276 0.268373,-0.262746 0.353466,-0.454752 0.08509,-0.192006 0.127641,-0.40055 0.127641,-0.625285 0,-0.226917 -0.04255,-0.434025 -0.127641,-0.621668 -0.08509,-0.189823 -0.202917,-0.340374 -0.353466,-0.451652 -0.124368,-0.08945 -0.269293,-0.152559 -0.435116,-0.189652 -0.165824,-0.03709 -0.421107,-0.05581 -0.765845,-0.05581 z m 9.755477,0 v 4.791439 h 0.729671 v -2.144055 h 0.08837 l 1.593702,2.144055 h 0.880566 L 78.49495,27.750244 c 0.366557,-0.04582 0.641478,-0.176733 0.824756,-0.392741 0.183278,-0.216007 0.274919,-0.516191 0.274919,-0.900203 0,-0.106913 -0.01074,-0.211644 -0.03256,-0.314193 -0.02182,-0.10473 -0.05127,-0.200562 -0.08837,-0.287838 -0.08073,-0.183278 -0.195279,-0.332911 -0.343648,-0.448551 -0.124367,-0.09819 -0.274001,-0.166916 -0.448552,-0.206189 -0.174552,-0.04145 -0.42237,-0.06201 -0.743107,-0.06201 z m -8.976713,0.66766 h 0.199987 c 0.414559,0 0.697863,0.05237 0.850594,0.157096 0.152734,0.102549 0.229444,0.282555 0.229444,0.540019 0,0.240007 -0.072,0.406923 -0.216008,0.500744 -0.141822,0.09164 -0.429833,0.13746 -0.86403,0.13746 h -0.199987 z m 9.755476,0 h 0.14056 c 0.390559,0 0.658934,0.05564 0.805119,0.166915 0.146188,0.109094 0.219625,0.293291 0.219625,0.552937 0,0.244371 -0.06781,0.41456 -0.203088,0.510564 -0.135276,0.096 -0.409278,0.144177 -0.821656,0.144177 h -0.14056 z m -6.868831,6.40426 c -0.257233,0 -0.500341,0.0468 -0.728638,0.140043 -0.228294,0.09164 -0.432302,0.224735 -0.612365,0.399976 -0.178456,0.173632 -0.31448,0.373332 -0.407727,0.598413 -0.09325,0.225078 -0.139527,0.462848 -0.139527,0.713651 0,0.250804 0.04726,0.488573 0.14211,0.713652 0.09486,0.22508 0.23088,0.424781 0.407727,0.598413 0.17685,0.172025 0.379881,0.305119 0.609782,0.399976 0.231512,0.09325 0.47462,0.140043 0.728638,0.140043 0.249196,0 0.488401,-0.04726 0.718302,-0.142111 0.231512,-0.09646 0.437471,-0.23151 0.617534,-0.405143 0.180064,-0.173634 0.316548,-0.370922 0.409794,-0.591178 0.09325,-0.221864 0.140043,-0.459633 0.140043,-0.713652 0,-0.249195 -0.04823,-0.486504 -0.144694,-0.711584 -0.09486,-0.225079 -0.232315,-0.42524 -0.412378,-0.60048 -0.180064,-0.176849 -0.384071,-0.31092 -0.612366,-0.40256 -0.226687,-0.09164 -0.465431,-0.137459 -0.716235,-0.137459 z m 2.491321,0.07958 v 3.530534 h 0.573608 v -1.659331 h 1.396297 V 33.65737 h -1.396297 v -0.88005 h 1.396297 v -0.487308 z m 2.53938,0 v 3.530534 h 0.574125 v -1.659331 h 1.396297 V 33.65737 h -1.396297 v -0.88005 h 1.396297 v -0.487308 z m -5.030701,0.448551 c 0.175242,0 0.340663,0.03376 0.496611,0.101286 0.157555,0.06752 0.296449,0.163009 0.417028,0.286804 0.120581,0.123793 0.213196,0.265617 0.277503,0.42478 0.06431,0.159164 0.09663,0.329409 0.09663,0.51108 0,0.17685 -0.03376,0.346635 -0.101286,0.509013 -0.06753,0.160771 -0.161576,0.303053 -0.282153,0.426848 -0.118972,0.123796 -0.25643,0.218307 -0.412378,0.28422 -0.15434,0.06591 -0.318326,0.09922 -0.49196,0.09922 -0.17524,0 -0.341638,-0.03331 -0.499194,-0.09922 -0.157555,-0.06752 -0.295992,-0.163011 -0.414962,-0.286804 -0.06431,-0.06431 -0.118794,-0.130856 -0.163814,-0.199988 -0.04502,-0.06913 -0.0836,-0.144867 -0.115756,-0.22686 -0.06431,-0.157555 -0.09663,-0.326364 -0.09663,-0.506429 0,-0.09485 0.0082,-0.183105 0.02429,-0.2651 0.01608,-0.08199 0.04019,-0.163987 0.07235,-0.24598 0.06913,-0.163986 0.162206,-0.306268 0.27957,-0.426847 0.123793,-0.127005 0.262687,-0.223008 0.417029,-0.287321 0.155947,-0.06591 0.321887,-0.0987 0.497127,-0.0987 z m 3.073714,18.477425 v 3.670061 h 0.528133 v -2.454631 c 0.04984,0.07074 0.103351,0.139697 0.161231,0.207222 0.04823,0.05466 0.07815,0.08745 0.0894,0.0987 0.02573,0.02733 0.05564,0.05725 0.0894,0.0894 L 76.9922,55.023515 V 51.355522 H 76.462 v 2.447912 C 76.39126,53.713394 76.325172,53.635253 76.264079,53.56934 L 76.07856,53.374003 Z m -2.491321,0.05994 c -0.257234,0 -0.499825,0.0468 -0.728121,0.140043 -0.228294,0.09164 -0.432818,0.225252 -0.612882,0.400492 -0.178456,0.173632 -0.313964,0.372816 -0.40721,0.597897 -0.09325,0.225078 -0.140043,0.462848 -0.140043,0.713651 0,0.250804 0.04725,0.489089 0.14211,0.714169 0.09485,0.22508 0.230878,0.424264 0.407727,0.597896 0.176847,0.172025 0.380395,0.305636 0.610298,0.400492 0.231511,0.09325 0.474102,0.139527 0.728121,0.139527 0.249196,0 0.488916,-0.04726 0.71882,-0.142111 0.23151,-0.09646 0.436952,-0.23151 0.617016,-0.405143 0.180063,-0.173634 0.317063,-0.370405 0.410311,-0.590661 0.09325,-0.221864 0.139526,-0.46015 0.139526,-0.714169 0,-0.249195 -0.04823,-0.485987 -0.144694,-0.711067 -0.09485,-0.22508 -0.232313,-0.42524 -0.412378,-0.600481 C 72.49302,51.639626 72.289012,51.505038 72.060718,51.413399 71.83403,51.32176 71.595286,51.27594 71.344482,51.27594 Z m 0,0.528133 c 0.175241,0 0.340662,0.03376 0.496611,0.101286 0.157555,0.06752 0.296968,0.163526 0.417546,0.287321 0.12058,0.123793 0.212679,0.2651 0.276985,0.424263 0.06431,0.159164 0.09664,0.329409 0.09664,0.51108 0,0.176849 -0.03376,0.346635 -0.101286,0.509013 -0.06752,0.160771 -0.161576,0.303053 -0.282153,0.426847 -0.118973,0.123797 -0.256431,0.218824 -0.412378,0.284738 -0.15434,0.06591 -0.318326,0.0987 -0.49196,0.0987 -0.175239,0 -0.341638,-0.03279 -0.499194,-0.0987 -0.157556,-0.06753 -0.295991,-0.163528 -0.414962,-0.287321 -0.06431,-0.06431 -0.118801,-0.130856 -0.163814,-0.199988 -0.04502,-0.06913 -0.0836,-0.144867 -0.115755,-0.22686 -0.06431,-0.157556 -0.09663,-0.326364 -0.09663,-0.506429 0,-0.09485 0.0082,-0.183105 0.02429,-0.2651 0.01607,-0.08199 0.04019,-0.163987 0.07235,-0.24598 0.06913,-0.163986 0.162205,-0.306268 0.279569,-0.426847 0.123793,-0.127005 0.263205,-0.222491 0.417546,-0.286804 0.155948,-0.06591 0.32137,-0.09922 0.49661,-0.09922 z m 8.177279,10.641728 -2.227771,4.78317 -1.499133,-1.981274 c 0.366557,-0.04582 0.641477,-0.176733 0.824756,-0.392741 0.183278,-0.216007 0.274918,-0.516191 0.274918,-0.900203 0,-0.106913 -0.01074,-0.211644 -0.03256,-0.314193 -0.02182,-0.104731 -0.05127,-0.200563 -0.08837,-0.287838 -0.08073,-0.183278 -0.195278,-0.332911 -0.343648,-0.448551 -0.124366,-0.09819 -0.273999,-0.166916 -0.448551,-0.206189 -0.174551,-0.04146 -0.422371,-0.06201 -0.743107,-0.06201 h -1.086239 v 4.791439 h 0.729671 v -2.144055 h 0.08837 l 1.593701,2.144055 h 0.880566 0.575159 l 0.556555,-1.234033 h 1.898076 l 0.543636,1.234033 h 0.821138 z m 2.716113,0 v 4.981608 h 0.716752 V 64.0953 c 0.06764,0.096 0.140561,0.189998 0.219109,0.281637 0.06546,0.07418 0.106166,0.119085 0.121439,0.134359 0.03491,0.03709 0.0751,0.07728 0.120923,0.120923 l 3.105754,2.98173 V 62.63597 h -0.719853 v 3.321761 c -0.096,-0.122186 -0.185289,-0.227836 -0.268201,-0.317293 l -0.252181,-0.2651 z m -15.739607,0.08216 c -0.429831,0 -0.777673,0.122016 -1.043864,0.366386 -0.264008,0.242191 -0.396359,0.557303 -0.396359,0.945679 0,0.298919 0.08837,0.554202 0.265101,0.765845 0.178914,0.211641 0.530545,0.444014 1.054199,0.697115 l 0.150378,0.07235 c 0.466924,0.222553 0.700216,0.473127 0.700216,0.752409 0,0.216007 -0.06873,0.388548 -0.206189,0.517281 -0.135278,0.12873 -0.318556,0.19327 -0.549837,0.19327 -0.244371,0 -0.444934,-0.05707 -0.602031,-0.170533 C 65.712789,66.554309 65.604783,66.3921 65.54587,66.180457 l -0.621668,0.287837 c 0.08291,0.349102 0.25402,0.617477 0.513664,0.805119 0.259646,0.187643 0.593476,0.281637 1.001489,0.281637 0.486561,0 0.872758,-0.134188 1.158586,-0.40256 0.285827,-0.268371 0.428914,-0.628385 0.428914,-1.080037 0,-0.312009 -0.0898,-0.57292 -0.268717,-0.782381 -0.176734,-0.209462 -0.500746,-0.422197 -0.972034,-0.638204 l -0.09819,-0.04599 c -0.541109,-0.248736 -0.81132,-0.517109 -0.81132,-0.805119 0,-0.183279 0.06075,-0.329122 0.182935,-0.438216 0.122186,-0.109095 0.289101,-0.163815 0.500744,-0.163815 0.148368,0 0.280718,0.036 0.396359,0.108004 0.11564,0.06982 0.220372,0.178745 0.314192,0.327112 l 0.608749,-0.314193 c -0.09382,-0.257462 -0.259817,-0.453833 -0.497644,-0.589111 -0.237825,-0.135276 -0.532382,-0.202572 -0.883667,-0.202572 z m 22.369694,0 c -0.429831,0 -0.777675,0.122016 -1.043864,0.366386 -0.264011,0.242191 -0.395842,0.557303 -0.395842,0.945679 0,0.298919 0.08837,0.554202 0.2651,0.765845 0.178915,0.211641 0.530031,0.444014 1.053683,0.697115 l 0.150378,0.07235 c 0.466924,0.222553 0.700733,0.473127 0.700733,0.752409 0,0.216007 -0.06873,0.388548 -0.206189,0.517281 -0.135278,0.12873 -0.318559,0.19327 -0.549838,0.19327 -0.244372,0 -0.445451,-0.05707 -0.602547,-0.170533 -0.157094,-0.113456 -0.265098,-0.275665 -0.324011,-0.487308 l -0.621668,0.287837 c 0.08291,0.349102 0.254018,0.617477 0.513664,0.805119 0.259645,0.187643 0.593476,0.281637 1.001489,0.281637 0.486561,0 0.872758,-0.134188 1.158586,-0.40256 0.285827,-0.268371 0.428914,-0.628385 0.428914,-1.080037 0,-0.312009 -0.08929,-0.57292 -0.2682,-0.782381 -0.176733,-0.209462 -0.500746,-0.422197 -0.972034,-0.638204 l -0.09819,-0.04599 c -0.541108,-0.248736 -0.811837,-0.517109 -0.811837,-0.805119 0,-0.183279 0.06127,-0.329122 0.183451,-0.438216 0.122185,-0.109095 0.289102,-0.163815 0.500745,-0.163815 0.148369,0 0.280202,0.036 0.395842,0.108004 0.115639,0.06982 0.220371,0.178745 0.314192,0.327112 l 0.608749,-0.314193 c -0.09382,-0.25745 -0.259813,-0.453821 -0.497639,-0.589099 -0.237825,-0.135276 -0.532382,-0.202572 -0.883667,-0.202572 z M 56.454952,62.63597 v 4.791439 h 1.214396 c 0.45165,0 0.776582,-0.02854 0.975134,-0.08527 0.198552,-0.05673 0.361276,-0.14837 0.487826,-0.274919 0.128728,-0.12655 0.225995,-0.276183 0.291455,-0.448551 0.06764,-0.174553 0.101286,-0.35875 0.101286,-0.552938 0,-0.318554 -0.0809,-0.583657 -0.242363,-0.7953 -0.159279,-0.213827 -0.378559,-0.34147 -0.657841,-0.382923 0.224735,-0.06764 0.396358,-0.187815 0.514181,-0.360185 0.11782,-0.172368 0.176733,-0.385103 0.176733,-0.638203 0,-0.211642 -0.04163,-0.405659 -0.12454,-0.582394 -0.08073,-0.178914 -0.19528,-0.32292 -0.343648,-0.432015 -0.113458,-0.08509 -0.254191,-0.146358 -0.422197,-0.183451 -0.08291,-0.01963 -0.187644,-0.03364 -0.314192,-0.04237 -0.12655,-0.0087 -0.276183,-0.01292 -0.448552,-0.01292 z m 3.789433,0 v 2.981213 c 0,0.650202 0.162725,1.136021 0.487825,1.456759 0.327284,0.320736 0.819131,0.481108 1.475879,0.481108 0.65893,0 1.152213,-0.161807 1.479496,-0.484725 0.327284,-0.322921 0.490927,-0.807304 0.490927,-1.453142 V 62.63597 h -0.778764 v 2.909383 c 0,0.432015 -0.101458,0.756947 -0.304374,0.975134 -0.200734,0.216008 -0.496727,0.324012 -0.887285,0.324012 -0.397104,0 -0.695852,-0.108004 -0.896586,-0.324012 C 61.112951,66.3023 61.013847,65.977368 61.013847,65.545353 V 62.63597 Z m 10.045898,0 v 0.660942 h 1.273307 v 4.130497 h 0.778764 v -4.130497 h 1.26659 V 62.63597 Z m -13.072587,0.648023 h 0.297656 c 0.39274,0 0.660197,0.05236 0.802019,0.157096 0.144005,0.104728 0.216007,0.288927 0.216007,0.552938 0,0.240006 -0.07763,0.411114 -0.232544,0.513663 -0.152732,0.100367 -0.414561,0.150896 -0.785482,0.150896 h -0.297656 z m 17.713131,0.01964 h 0.14056 c 0.390558,0 0.658933,0.05564 0.805119,0.166914 0.146187,0.109095 0.219624,0.293292 0.219624,0.552938 0,0.244371 -0.06781,0.41456 -0.203088,0.510563 -0.135278,0.096 -0.40928,0.144178 -0.821655,0.144178 h -0.14056 z m 4.597652,0.605131 0.09147,0.304374 0.08837,0.239262 0.490926,1.092956 H 78.86392 L 79.354846,64.4524 c 0.03491,-0.08073 0.06437,-0.163988 0.08837,-0.249081 0.01747,-0.048 0.03199,-0.09382 0.04289,-0.137459 0.01309,-0.04364 0.0271,-0.096 0.04238,-0.157096 z M 57.217696,65.2477 h 0.268201 0.235644 c 0.08946,0 0.162899,0.0019 0.219625,0.0062 0.05891,0.0044 0.111277,0.0109 0.157097,0.01964 0.102548,0.01964 0.187643,0.04726 0.255281,0.08217 0.117823,0.06328 0.208028,0.151641 0.271301,0.2651 0.06327,0.113456 0.09508,0.246209 0.09508,0.398942 0,0.130912 -0.0271,0.250171 -0.08165,0.357084 -0.05455,0.106913 -0.127985,0.190571 -0.219625,0.251664 -0.07855,0.05673 -0.184198,0.096 -0.317293,0.117822 -0.133096,0.01964 -0.338367,0.02946 -0.615466,0.02946 H 57.21769 Z m 46.490184,3.731555 -1.70945,3.670577 h 0.60254 l 0.41031,-0.908988 h 1.39837 l 0.40049,0.908988 h 0.60513 z m 0.005,1.07797 0.0672,0.224276 0.0651,0.176217 0.36174,0.805635 H 103.223 l 0.36173,-0.805635 c 0.0257,-0.05949 0.0474,-0.120752 0.0651,-0.183451 0.0129,-0.03537 0.0235,-0.06913 0.0315,-0.101286 0.01,-0.03216 0.0203,-0.07074 0.0315,-0.115756 z m -61.701144,1.899109 c -0.257235,0 -0.499827,0.0468 -0.728121,0.140044 -0.228296,0.09164 -0.43282,0.225251 -0.612882,0.400492 -0.178457,0.173632 -0.313963,0.372815 -0.407211,0.597896 -0.09325,0.225079 -0.140043,0.462848 -0.140043,0.713652 0,0.250803 0.04725,0.489089 0.14211,0.714168 0.09486,0.225079 0.23088,0.424263 0.407727,0.597896 0.176849,0.172025 0.380396,0.305636 0.610299,0.400493 0.23151,0.09325 0.474102,0.139526 0.728121,0.139526 0.249194,0 0.488915,-0.04726 0.718819,-0.14211 0.23151,-0.09646 0.436954,-0.231512 0.617017,-0.405143 0.180064,-0.173634 0.317063,-0.370406 0.410311,-0.590662 0.09325,-0.221864 0.139526,-0.460149 0.139526,-0.714168 0,-0.249195 -0.04823,-0.485988 -0.144694,-0.711068 -0.09486,-0.225079 -0.232313,-0.42524 -0.412378,-0.60048 -0.180062,-0.176849 -0.384069,-0.311437 -0.612366,-0.403076 -0.226687,-0.09164 -0.465433,-0.13746 -0.716235,-0.13746 z m 0,0.528134 c 0.17524,0 0.340664,0.03376 0.49661,0.101285 0.157556,0.06752 0.296967,0.163528 0.417546,0.287321 0.120581,0.123795 0.212679,0.265101 0.276986,0.424264 0.06431,0.159164 0.09663,0.329409 0.09663,0.51108 0,0.176849 -0.03376,0.346634 -0.101286,0.509013 -0.06752,0.160771 -0.161574,0.303054 -0.282154,0.426847 -0.11897,0.123798 -0.256429,0.218824 -0.412377,0.284737 -0.154341,0.06592 -0.318328,0.0987 -0.49196,0.0987 -0.175242,0 -0.341639,-0.03278 -0.499194,-0.0987 -0.157556,-0.06752 -0.295992,-0.163528 -0.414962,-0.287321 -0.06431,-0.06431 -0.118801,-0.130856 -0.163814,-0.199988 -0.04502,-0.06913 -0.0836,-0.144867 -0.115756,-0.226859 -0.06431,-0.157557 -0.09663,-0.326366 -0.09663,-0.506429 0,-0.09485 0.0082,-0.183106 0.02429,-0.2651 0.01608,-0.08199 0.04019,-0.163986 0.07235,-0.24598 0.06913,-0.163987 0.162208,-0.30627 0.27957,-0.426848 0.123795,-0.127005 0.263206,-0.22249 0.417545,-0.286804 0.155948,-0.06591 0.321368,-0.09922 0.496611,-0.09922 z m 60.249034,2.525427 v 2.196765 c 0,0.479098 0.12012,0.836985 0.35967,1.073319 0.24115,0.236333 0.60335,0.354501 1.08727,0.354501 0.48553,0 0.84921,-0.119143 1.09037,-0.357084 0.24116,-0.237942 0.36174,-0.594853 0.36174,-1.070736 v -2.196765 h -0.57413 v 2.143538 c 0,0.318327 -0.0747,0.558048 -0.22427,0.718819 -0.14791,0.159164 -0.36593,0.238745 -0.65371,0.238745 -0.2926,0 -0.51252,-0.07958 -0.66042,-0.238745 -0.14631,-0.160771 -0.21963,-0.400492 -0.21963,-0.718819 v -2.143538 z m -61.139936,2.980696 v 3.530534 h 0.573609 v -1.65933 H 43.09091 V 79.357947 H 41.694613 V 78.47738 h 1.396297 v -0.486792 z m 61.364216,2.933671 v 0.487309 h 0.93844 v 3.043225 h 0.57361 v -3.043225 h 0.93328 v -0.487309 z m -61.364216,2.933672 v 3.530533 h 0.573609 v -1.65933 h 1.396297 v -0.503845 h -1.396297 v -0.88005 h 1.396297 v -0.487308 z m 62.586876,2.767272 c -0.25723,0 -0.49982,0.0468 -0.72812,0.140044 -0.22829,0.09164 -0.4323,0.224735 -0.61236,0.399975 -0.17846,0.173632 -0.31449,0.373333 -0.40773,0.598413 -0.0932,0.225079 -0.14005,0.462848 -0.14005,0.713652 0,0.250804 0.0478,0.488572 0.14263,0.713651 0.0949,0.225079 0.23037,0.42478 0.40721,0.598413 0.17686,0.172026 0.3804,0.305121 0.6103,0.399976 0.23151,0.09325 0.4741,0.140043 0.72812,0.140043 0.24919,0 0.48891,-0.04725 0.71882,-0.14211 0.23151,-0.09646 0.43747,-0.231511 0.61753,-0.405143 0.18006,-0.173633 0.31655,-0.370922 0.4098,-0.591179 0.0932,-0.221863 0.14004,-0.459632 0.14004,-0.713651 0,-0.249195 -0.0482,-0.486504 -0.14469,-0.711585 -0.0949,-0.225079 -0.23231,-0.425239 -0.41238,-0.60048 -0.18006,-0.176849 -0.38458,-0.31092 -0.61288,-0.402559 -0.22669,-0.09164 -0.46544,-0.13746 -0.71624,-0.13746 z m 0,0.528134 c 0.17524,0 0.34118,0.03376 0.49713,0.101285 0.15755,0.06752 0.29645,0.163011 0.41703,0.286805 0.12055,0.123794 0.21317,0.265617 0.2775,0.42478 0.0643,0.159164 0.0961,0.329408 0.0961,0.51108 0,0.176847 -0.0338,0.346633 -0.10129,0.509013 -0.0675,0.160771 -0.16157,0.303054 -0.28215,0.426847 -0.11897,0.123799 -0.25643,0.218307 -0.41238,0.28422 -0.15434,0.06591 -0.31833,0.09922 -0.49196,0.09922 -0.17524,0 -0.34163,-0.0333 -0.49919,-0.09922 -0.15756,-0.06753 -0.29547,-0.163011 -0.41445,-0.286804 -0.0643,-0.06431 -0.11933,-0.130857 -0.16433,-0.199988 -0.045,-0.06913 -0.0836,-0.144865 -0.11575,-0.226859 -0.0643,-0.157555 -0.0966,-0.326366 -0.0966,-0.506429 0,-0.09486 0.008,-0.183106 0.0243,-0.2651 0.0161,-0.08199 0.0402,-0.163986 0.0724,-0.24598 0.0691,-0.163987 0.16272,-0.30627 0.28008,-0.426847 0.1238,-0.127012 0.26269,-0.223015 0.41703,-0.287321 0.15595,-0.06591 0.32137,-0.0987 0.49661,-0.0987 z m 1.32292,32.68379 c -0.25723,0 -0.49982,0.0468 -0.72812,0.14004 -0.2283,0.0916 -0.43231,0.22526 -0.61237,0.4005 -0.17846,0.17363 -0.31448,0.37281 -0.40773,0.59789 -0.0932,0.22508 -0.14004,0.46285 -0.14004,0.71365 0,0.2508 0.0478,0.48909 0.14263,0.71417 0.0949,0.22508 0.23036,0.42426 0.40721,0.5979 0.17685,0.17202 0.3804,0.30564 0.6103,0.40049 0.23151,0.0932 0.4741,0.13953 0.72812,0.13953 0.24919,0 0.48892,-0.0473 0.71882,-0.14211 0.23151,-0.0965 0.43746,-0.23151 0.61753,-0.40515 0.18007,-0.17363 0.31656,-0.3704 0.40979,-0.59066 0.0933,-0.22186 0.14005,-0.46015 0.14005,-0.71417 0,-0.2492 -0.0482,-0.48598 -0.1447,-0.71106 -0.0948,-0.22508 -0.23231,-0.42524 -0.41237,-0.60048 -0.18006,-0.17685 -0.38459,-0.31144 -0.61289,-0.40308 -0.22668,-0.0916 -0.46543,-0.13746 -0.71623,-0.13746 z m -68.592714,0.062 c -0.257233,0 -0.499825,0.0468 -0.728121,0.14004 -0.228294,0.0916 -0.432819,0.22526 -0.612882,0.4005 -0.178456,0.17363 -0.313963,0.37281 -0.407211,0.59789 -0.09325,0.22508 -0.140043,0.46285 -0.140043,0.71365 0,0.2508 0.04726,0.48909 0.14211,0.71417 0.09486,0.22508 0.23088,0.42427 0.407727,0.5979 0.176849,0.17203 0.380398,0.30564 0.610299,0.40049 0.231512,0.0932 0.474103,0.13953 0.728121,0.13953 0.249196,0 0.488917,-0.0473 0.718819,-0.14211 0.231512,-0.0965 0.436954,-0.23151 0.617017,-0.40515 0.180064,-0.17363 0.317065,-0.3704 0.410311,-0.59066 0.09325,-0.22186 0.139526,-0.46015 0.139526,-0.71417 0,-0.24919 -0.04823,-0.48598 -0.144694,-0.71106 -0.09486,-0.22508 -0.232315,-0.42524 -0.412378,-0.60048 -0.180064,-0.17685 -0.384071,-0.31144 -0.612366,-0.40308 -0.226687,-0.0916 -0.465431,-0.13746 -0.716235,-0.13746 z m 71.084034,0.0176 v 3.53054 h 0.57412 v -1.65882 h 1.3963 v -0.50436 h -1.3963 v -0.88005 h 1.3963 v -0.48731 z m 2.53938,0 v 3.53054 h 0.57412 v -1.65882 h 1.3963 v -0.50436 h -1.3963 v -0.88005 h 1.3963 v -0.48731 z m -71.132093,0.062 v 3.53054 h 0.573608 v -1.65882 h 1.396814 v -0.50436 h -1.396814 v -0.88005 h 1.396814 v -0.48731 z m 2.53938,0 v 3.53054 h 0.574125 v -1.65882 h 1.396297 v -0.50436 h -1.396297 v -0.88005 h 1.396297 v -0.48731 z m 63.562013,0.38654 c 0.17524,0 0.34066,0.0338 0.49661,0.10129 0.15755,0.0675 0.29696,0.16353 0.41754,0.28732 0.12056,0.12379 0.21317,0.2651 0.27751,0.42426 0.0643,0.15917 0.0961,0.32941 0.0961,0.51108 0,0.17685 -0.0338,0.34664 -0.10129,0.50902 -0.0675,0.16076 -0.16157,0.30304 -0.28215,0.42684 -0.11898,0.12378 -0.25644,0.21881 -0.41238,0.28474 -0.15434,0.0659 -0.31833,0.0987 -0.49196,0.0987 -0.17524,0 -0.34164,-0.0328 -0.4992,-0.0987 -0.15756,-0.0675 -0.29599,-0.16353 -0.41496,-0.28732 -0.0643,-0.0643 -0.11881,-0.13086 -0.16381,-0.19999 -0.045,-0.0691 -0.0836,-0.14486 -0.11576,-0.22686 -0.0643,-0.15756 -0.0966,-0.32637 -0.0966,-0.50643 0,-0.0949 0.008,-0.1831 0.0243,-0.2651 0.0161,-0.082 0.0402,-0.16398 0.0723,-0.24598 0.0691,-0.16398 0.16221,-0.30626 0.27957,-0.42684 0.1238,-0.12698 0.2632,-0.22248 0.41755,-0.28681 0.15594,-0.0659 0.32137,-0.0992 0.49661,-0.0992 z m -68.592714,0.062 c 0.175242,0 0.340663,0.0338 0.49661,0.10129 0.157556,0.0675 0.296967,0.16353 0.417546,0.28732 0.120581,0.12379 0.212679,0.26511 0.276986,0.42426 0.06431,0.15917 0.09663,0.32941 0.09663,0.51108 v 5.2e-4 c 0,0.17685 -0.03376,0.34612 -0.101286,0.5085 -0.06753,0.16076 -0.161576,0.30305 -0.282153,0.42684 -0.118972,0.12378 -0.25643,0.21881 -0.412378,0.28474 -0.15434,0.0659 -0.318326,0.0987 -0.49196,0.0987 -0.175241,0 -0.341639,-0.0328 -0.499194,-0.0987 -0.157556,-0.0675 -0.295992,-0.16301 -0.414962,-0.2868 -0.0643,-0.0643 -0.118794,-0.13137 -0.163814,-0.20051 -0.04502,-0.0691 -0.0836,-0.14435 -0.115756,-0.22634 -0.06431,-0.15756 -0.09663,-0.32637 -0.09663,-0.50643 0,-0.0949 0.0082,-0.18362 0.02429,-0.26562 0.01608,-0.082 0.04019,-0.16398 0.07235,-0.24598 0.06913,-0.16398 0.162206,-0.30626 0.27957,-0.42684 0.123793,-0.12698 0.263204,-0.22247 0.417545,-0.28681 0.155948,-0.0659 0.32137,-0.0992 0.496611,-0.0992 z m 40.038383,14.66836 v 0.66353 h -0.638204 v 0.16898 h 0.638204 v 0.66921 h 0.180351 v -0.66921 h 0.637687 v -0.16898 H 76.65682 v -0.66353 z m -36.931079,0.79943 v 3.67058 h 0.528133 v -2.45515 c 0.04984,0.0707 0.103867,0.14022 0.161747,0.20774 0.04823,0.0547 0.07815,0.0874 0.0894,0.0987 0.02573,0.0273 0.05512,0.0573 0.08888,0.0894 l 2.288749,2.19676 v -3.66799 h -0.530717 v 2.44791 c -0.07074,-0.09 -0.136311,-0.16816 -0.197404,-0.23409 l -0.186035,-0.19534 z m 68.55912,0 v 3.67058 h 0.52814 v -2.45515 c 0.0498,0.0707 0.10388,0.14022 0.16174,0.20774 0.0482,0.0547 0.0781,0.0874 0.0894,0.0987 0.0257,0.0273 0.0551,0.0573 0.0889,0.0894 l 2.28875,2.19676 v -3.66799 h -0.53072 v 2.44791 c -0.0708,-0.09 -0.13634,-0.16816 -0.19741,-0.23409 l -0.18603,-0.19534 z m -71.050441,0.0605 c -0.257234,0 -0.499826,0.0468 -0.728121,0.14004 -0.228294,0.0916 -0.432301,0.22473 -0.612366,0.39997 -0.178455,0.17364 -0.31448,0.37334 -0.407727,0.59842 -0.09325,0.22508 -0.140043,0.46284 -0.140043,0.71365 0,0.2508 0.04777,0.48857 0.142627,0.71365 0.09486,0.22508 0.230361,0.42478 0.40721,0.59841 0.176848,0.17203 0.380396,0.30513 0.610299,0.39998 0.231511,0.0932 0.474102,0.14004 0.728121,0.14004 0.249195,0 0.488916,-0.0473 0.718819,-0.14211 0.231511,-0.0965 0.437469,-0.23151 0.617534,-0.40514 0.180063,-0.17363 0.316546,-0.37092 0.409794,-0.59118 0.09325,-0.22186 0.140043,-0.45963 0.140043,-0.71365 0,-0.2492 -0.04823,-0.48651 -0.144694,-0.71159 -0.09486,-0.22508 -0.232314,-0.42524 -0.412378,-0.60048 -0.180063,-0.17684 -0.384588,-0.31092 -0.612883,-0.40255 -0.226687,-0.0916 -0.465431,-0.13746 -0.716235,-0.13746 z m 68.559121,0 c -0.25723,0 -0.49983,0.0468 -0.72812,0.14004 -0.2283,0.0916 -0.43231,0.22473 -0.61236,0.39997 -0.17846,0.17364 -0.31449,0.37334 -0.40773,0.59842 -0.0932,0.22508 -0.14005,0.46284 -0.14005,0.71365 0,0.2508 0.0478,0.48857 0.14263,0.71365 0.0949,0.22508 0.23037,0.42478 0.40721,0.59841 0.17685,0.17203 0.38039,0.30513 0.6103,0.39998 0.23151,0.0932 0.4741,0.14004 0.72812,0.14004 0.24919,0 0.48891,-0.0473 0.71882,-0.14211 0.23151,-0.0965 0.43747,-0.23151 0.61753,-0.40514 0.18007,-0.17363 0.31655,-0.37092 0.4098,-0.59118 0.0932,-0.22186 0.14004,-0.45963 0.14004,-0.71365 0,-0.2492 -0.0482,-0.48651 -0.14469,-0.71159 -0.0949,-0.22508 -0.23232,-0.42524 -0.41238,-0.60048 -0.18007,-0.17684 -0.38459,-0.31092 -0.61288,-0.40255 -0.22669,-0.0916 -0.46543,-0.13746 -0.71624,-0.13746 z m -68.559121,0.52813 c 0.175241,0 0.341178,0.0338 0.497127,0.10128 0.157555,0.0675 0.296451,0.16302 0.417029,0.28681 0.120581,0.12379 0.213196,0.26562 0.277503,0.42478 0.06431,0.15917 0.09612,0.32941 0.09612,0.51108 h 5.16e-4 c 0,0.17685 -0.03376,0.34663 -0.101285,0.50901 -0.06752,0.16077 -0.161576,0.30305 -0.282154,0.42685 -0.118972,0.12377 -0.256947,0.21829 -0.412894,0.28422 -0.15434,0.0659 -0.318326,0.0992 -0.49196,0.0992 -0.17524,0 -0.341638,-0.0333 -0.499194,-0.0992 -0.157556,-0.0675 -0.295475,-0.16301 -0.414445,-0.2868 -0.06431,-0.0643 -0.119318,-0.13086 -0.164331,-0.19999 -0.04502,-0.0691 -0.0836,-0.14487 -0.115756,-0.22686 -0.06431,-0.15756 -0.09612,-0.32637 -0.09612,-0.50643 0,-0.0949 0.0077,-0.18311 0.02377,-0.2651 0.01608,-0.082 0.04019,-0.16399 0.07235,-0.24598 0.06913,-0.16399 0.162723,-0.30627 0.280087,-0.42685 0.123792,-0.12698 0.262688,-0.22299 0.417028,-0.28732 0.155949,-0.0659 0.321371,-0.0987 0.496611,-0.0987 z m 68.559121,0 c 0.17524,0 0.34118,0.0338 0.49713,0.10128 0.15755,0.0675 0.29645,0.16302 0.41703,0.28681 0.12055,0.12379 0.21317,0.26562 0.2775,0.42478 0.0643,0.15917 0.0961,0.32941 0.0961,0.51108 0,0.17685 -0.0338,0.34663 -0.10129,0.50901 -0.0675,0.16077 -0.16157,0.30305 -0.28215,0.42685 -0.11897,0.12377 -0.25643,0.21829 -0.41238,0.28422 -0.15435,0.0659 -0.31833,0.0992 -0.49196,0.0992 -0.17524,0 -0.34164,-0.0333 -0.49919,-0.0992 -0.15756,-0.0675 -0.29547,-0.16301 -0.41445,-0.2868 -0.0643,-0.0643 -0.11933,-0.13086 -0.16433,-0.19999 -0.045,-0.0691 -0.0836,-0.14487 -0.11575,-0.22686 -0.0643,-0.15756 -0.0961,-0.32637 -0.0961,-0.50643 0,-0.0949 0.008,-0.18311 0.0238,-0.2651 0.0161,-0.082 0.0402,-0.16399 0.0724,-0.24598 0.0691,-0.16399 0.16272,-0.30627 0.28008,-0.42685 0.1238,-0.12698 0.26269,-0.22299 0.41703,-0.28732 0.15595,-0.0659 0.32137,-0.0987 0.49661,-0.0987 z m 11.0908,4.89996 v 4.98161 h 0.71675 v -3.3321 c 0.0676,0.096 0.14056,0.19 0.21911,0.28164 0.0655,0.0742 0.10617,0.11909 0.12144,0.13436 0.0349,0.0371 0.0751,0.0772 0.12092,0.12092 l 3.10575,2.98173 v -4.97799 h -0.71985 v 3.32176 c -0.096,-0.12219 -0.18529,-0.22783 -0.2682,-0.31729 l -0.25218,-0.2651 z m -86.281558,0.0496 v 4.98109 h 0.716753 v -3.33158 c 0.06764,0.096 0.14056,0.19 0.219108,0.28164 0.06546,0.0742 0.106166,0.11857 0.121439,0.13384 0.03491,0.0371 0.0751,0.0778 0.120923,0.12144 l 3.105754,2.98121 v -4.97799 h -0.719853 v 3.32228 c -0.096,-0.12219 -0.185289,-0.22835 -0.268201,-0.31781 l -0.252181,-0.2651 z m 30.581596,0 -2.320788,4.98109 h 0.818554 l 0.556039,-1.23352 h 1.898592 l 0.543119,1.23352 H 63.3212 Z m 21.980054,0 v 4.98109 h 0.716752 v -3.33158 c 0.06764,0.096 0.14056,0.19 0.219108,0.28164 0.06546,0.0742 0.106167,0.11857 0.12144,0.13384 0.03491,0.0371 0.0751,0.0778 0.120923,0.12144 l 3.105753,2.98121 v -4.97799 h -0.719852 v 3.32228 c -0.096,-0.12219 -0.185289,-0.22835 -0.268201,-0.31781 l -0.252181,-0.2651 z m 27.227798,0.0325 c -0.35129,0 -0.68655,0.0598 -1.00511,0.17984 -0.31855,0.12 -0.59675,0.29674 -0.83457,0.5302 -0.23564,0.23128 -0.41565,0.49873 -0.54002,0.80202 -0.12219,0.30328 -0.18294,0.63711 -0.18294,1.00149 0,0.35128 0.0607,0.68511 0.18294,1.00148 0.12218,0.31638 0.29708,0.58986 0.524,0.82114 0.2291,0.23128 0.49512,0.40474 0.7984,0.52038 0.30546,0.11346 0.65801,0.17054 1.0573,0.17054 0.70256,0 1.24678,-0.18656 1.63297,-0.55966 0.3862,-0.37311 0.5793,-0.89676 0.5793,-1.57096 l -0.01,-0.31419 -0.003,-0.13746 h -1.89808 l -5.2e-4,0.65784 h 1.15239 v 0.0687 c 0,0.35782 -0.12764,0.64021 -0.38292,0.84749 -0.2531,0.20728 -0.6033,0.31109 -1.05059,0.31109 -0.52365,0 -0.95055,-0.16927 -1.28002,-0.50746 -0.32728,-0.33819 -0.49093,-0.77676 -0.49093,-1.31568 0,-0.53238 0.16508,-0.9644 0.49455,-1.29605 0.33164,-0.33383 0.75476,-0.50074 1.26969,-0.50074 0.25091,0 0.47766,0.0467 0.68058,0.14056 0.20509,0.0916 0.38745,0.23053 0.54673,0.41599 l 0.56948,-0.42891 c -0.23564,-0.28365 -0.5031,-0.49403 -0.80202,-0.63149 -0.29674,-0.13745 -0.63241,-0.20619 -1.00769,-0.20619 z m -86.281558,0.0491 c -0.351285,0 -0.686034,0.0603 -1.00459,0.18035 -0.318555,0.12 -0.596748,0.29674 -0.834574,0.5302 -0.235643,0.23128 -0.415651,0.49821 -0.540019,0.8015 -0.122186,0.30328 -0.183451,0.63711 -0.183451,1.00149 0,0.35128 0.06126,0.68511 0.183451,1.00149 0.122186,0.31637 0.296567,0.59037 0.523483,0.82165 0.229098,0.23128 0.495117,0.40474 0.7984,0.52038 0.305465,0.11346 0.658014,0.17002 1.0573,0.17002 0.702567,0 1.246781,-0.18656 1.632976,-0.55966 0.386194,-0.3731 0.579292,-0.89676 0.579292,-1.57096 l -0.0098,-0.31419 -0.0031,-0.13746 h -1.898075 v 0.65784 h 1.151868 v 0.0687 c 0,0.35783 -0.12764,0.64073 -0.382923,0.84801 -0.253098,0.20728 -0.603293,0.31057 -1.050582,0.31057 -0.523652,0 -0.950042,-0.16875 -1.279508,-0.50694 -0.327282,-0.33819 -0.490926,-0.77676 -0.490926,-1.31568 0,-0.53238 0.164562,-0.9644 0.494026,-1.29605 0.331648,-0.33383 0.754766,-0.50074 1.26969,-0.50074 0.250918,0 0.47818,0.0467 0.681096,0.14056 0.205098,0.0916 0.386942,0.23002 0.54622,0.41548 l 0.569474,-0.4284 c -0.235643,-0.28365 -0.502583,-0.49454 -0.801502,-0.632 -0.296737,-0.13746 -0.632922,-0.20619 -1.008207,-0.20619 z m 52.56165,0 c -0.351286,0 -0.686036,0.0603 -1.00459,0.18035 -0.318556,0.12 -0.596748,0.29674 -0.834574,0.5302 -0.235643,0.23128 -0.415651,0.49821 -0.540019,0.8015 -0.122187,0.30328 -0.183451,0.63711 -0.183451,1.00149 0,0.35128 0.06126,0.68511 0.183451,1.00149 0.122186,0.31637 0.296566,0.59037 0.523482,0.82165 0.229099,0.23128 0.495118,0.40474 0.798401,0.52038 0.305464,0.11346 0.658014,0.17002 1.0573,0.17002 0.702566,0 1.246779,-0.18656 1.632975,-0.55966 0.386194,-0.3731 0.579293,-0.89676 0.579293,-1.57096 l -0.0098,-0.31419 -0.0031,-0.13746 h -1.898076 v 0.65784 h 1.151868 v 0.0687 c 0,0.35783 -0.127641,0.64073 -0.382922,0.84801 -0.253099,0.20728 -0.603295,0.31057 -1.050582,0.31057 -0.523654,0 -0.950043,-0.16875 -1.279509,-0.50694 -0.327282,-0.33819 -0.490926,-0.77676 -0.490926,-1.31568 0,-0.53238 0.164563,-0.9644 0.494027,-1.29605 0.331648,-0.33383 0.754764,-0.50074 1.26969,-0.50074 0.250916,0 0.47818,0.0467 0.681095,0.14056 0.205098,0.0916 0.386943,0.23002 0.54622,0.41548 l 0.569475,-0.4284 c -0.235644,-0.28365 -0.502583,-0.49454 -0.801502,-0.632 -0.296737,-0.13746 -0.632923,-0.20619 -1.008207,-0.20619 z m 46.797148,0.01 c -0.46337,0.008 -0.83561,0.1376 -1.11673,0.38913 -0.28801,0.25746 -0.43202,0.59928 -0.43202,1.02474 h 0.74931 c 0.0196,-0.22473 0.10054,-0.40474 0.24236,-0.54002 0.14182,-0.13527 0.32092,-0.20309 0.53692,-0.20309 0.24655,0 0.43965,0.0687 0.57929,0.20619 0.13964,0.13528 0.20929,0.32183 0.20929,0.55966 0,0.16365 -0.0515,0.34784 -0.15399,0.55294 -0.0567,0.1091 -0.12403,0.22037 -0.20257,0.33383 -0.0764,0.11346 -0.17128,0.23782 -0.28474,0.3731 l -1.79059,2.14406 h 3.21066 v -0.62219 h -1.82263 l 0.60875,-0.70693 c 0.49747,-0.56729 0.8224,-0.99931 0.97513,-1.29605 0.15492,-0.29674 0.23255,-0.59221 0.23255,-0.88676 0,-0.41238 -0.13419,-0.7364 -0.40256,-0.97204 -0.2662,-0.23782 -0.63092,-0.35657 -1.09348,-0.35657 -0.0151,0 -0.03,-2.5e-4 -0.045,0 z m -10.09965,0.0491 v 4.79144 h 2.67374 v -0.69712 h -1.89497 v -1.54822 h 1.89497 v -0.6842 h -1.89497 v -1.20096 h 1.89497 v -0.66094 z m -86.281552,0.0491 v 4.79144 h 2.673739 v -0.69712 h -1.894975 v -1.54771 h 1.894975 v -0.68419 h -1.894975 v -1.20096 h 1.894975 v -0.66146 z m 36.811707,0 v 4.79144 h 0.729671 v -2.15026 h 0.294556 0.153995 c 0.34474,0 0.600941,-0.0182 0.768946,-0.0553 0.168004,-0.0393 0.31201,-0.10146 0.432015,-0.18655 0.150549,-0.11128 0.268371,-0.26327 0.353467,-0.45527 0.08509,-0.19201 0.12764,-0.40003 0.12764,-0.62477 0,-0.22691 -0.04255,-0.43454 -0.12764,-0.62218 -0.0851,-0.18982 -0.202918,-0.34038 -0.353467,-0.45166 -0.124368,-0.0895 -0.269293,-0.15258 -0.435116,-0.18965 -0.165823,-0.0371 -0.421105,-0.0558 -0.765845,-0.0558 z m 3.494877,0 v 2.98173 c 0,0.6502 0.162724,1.1355 0.487825,1.45624 0.327283,0.32074 0.819129,0.48111 1.475879,0.48111 0.65893,0 1.152214,-0.1613 1.479497,-0.48421 0.327283,-0.32292 0.490926,-0.80731 0.490926,-1.45314 v -2.98173 h -0.779281 v 2.9099 c 0,0.43201 -0.101458,0.75694 -0.304374,0.97513 -0.200732,0.21601 -0.496209,0.32402 -0.886768,0.32402 -0.397103,0 -0.695851,-0.10801 -0.896586,-0.32402 -0.198552,-0.21819 -0.298173,-0.54312 -0.298173,-0.97513 v -2.9099 z m 12.255066,0 v 4.79144 h 2.674255 v -0.69712 h -1.894975 v -1.54771 h 1.894975 v -0.68419 h -1.894975 v -1.20096 h 1.894975 v -0.66146 z m -43.185995,0.046 -0.301273,0.61547 h 0.991671 v 4.12998 h 0.71055 v -4.74545 z m 28.214816,0.62167 h 0.199987 c 0.414558,0 0.697861,0.0524 0.850595,0.1571 0.152731,0.10255 0.229443,0.28255 0.229443,0.54001 0,0.24001 -0.072,0.40692 -0.216008,0.50075 -0.141823,0.0916 -0.429835,0.13746 -0.86403,0.13746 h -0.199987 z m -3.48816,0.60565 0.09198,0.30437 0.08837,0.23875 0.490926,1.09347 h -1.335319 l 0.490926,-1.09347 c 0.03491,-0.0807 0.06437,-0.16347 0.08837,-0.24857 0.01745,-0.048 0.03146,-0.0938 0.04237,-0.13746 0.01309,-0.0437 0.0271,-0.096 0.04237,-0.15709 z m 8.066692,6.06681 -2.320789,4.98109 h 0.818555 l 0.556038,-1.23403 h 1.898592 l 0.54312,1.23403 h 0.821655 z m 2.715596,0.18965 v 4.79144 h 0.730188 v -2.15025 h 0.294556 0.153479 c 0.344737,0 0.601455,-0.0187 0.769462,-0.0558 0.168004,-0.0393 0.31201,-0.10145 0.432015,-0.18655 0.15055,-0.11127 0.268373,-0.26274 0.353467,-0.45475 0.08509,-0.19201 0.12764,-0.40054 0.12764,-0.62528 0,-0.22692 -0.04255,-0.43403 -0.12764,-0.62167 -0.08509,-0.18982 -0.202917,-0.34037 -0.353467,-0.45165 -0.124368,-0.0895 -0.269809,-0.15259 -0.435633,-0.18966 -0.165825,-0.0371 -0.421107,-0.0558 -0.765844,-0.0558 z m 3.494877,0 v 2.98173 c 0,0.6502 0.162723,1.13551 0.487826,1.45624 0.327281,0.32074 0.819131,0.48111 1.475879,0.48111 0.658932,0 1.152214,-0.16129 1.479496,-0.48421 0.327284,-0.32292 0.490926,-0.8073 0.490926,-1.45314 v -2.98173 h -0.778764 v 2.90939 c 0,0.43201 -0.101458,0.75745 -0.304374,0.97565 -0.200734,0.216 -0.496726,0.32401 -0.887284,0.32401 -0.397104,0 -0.695854,-0.10801 -0.896586,-0.32401 -0.198552,-0.2182 -0.297657,-0.54364 -0.297657,-0.97565 v -2.90939 z m -2.715596,0.66766 h 0.199471 c 0.414559,0 0.698377,0.0524 0.851111,0.1571 0.152731,0.10255 0.228926,0.28256 0.228926,0.54002 0,0.24 -0.072,0.40692 -0.216007,0.50074 -0.141822,0.0916 -0.429833,0.13746 -0.86403,0.13746 h -0.199471 z m -3.488676,0.60565 0.09198,0.30437 0.08837,0.23875 0.490927,1.09296 H 68.41908 l 0.490926,-1.09296 c 0.03491,-0.0807 0.06437,-0.16347 0.08837,-0.24856 0.01747,-0.048 0.03148,-0.0938 0.04237,-0.13746 0.01309,-0.0437 0.0271,-0.096 0.04238,-0.1571 z m 37.518128,21.58938 -0.96222,2.55953 -0.0227,0.062 c -0.0829,0.23564 -0.16238,0.48346 -0.23874,0.7431 l -0.10801,-0.33744 c -0.0349,-0.11128 -0.084,-0.25058 -0.14727,-0.41858 l -0.90693,-2.41898 h -0.76894 l 1.84898,4.97799 1.07384,-2.71973 c 0.0348,-0.0873 0.0553,-0.13963 0.062,-0.15709 0.0175,-0.0546 0.0347,-0.10877 0.0522,-0.1633 l 0.11162,-0.36329 0.10439,0.3204 0.13126,0.35036 1.09296,2.73265 1.8557,-4.97799 h -0.77567 l -0.9002,2.43861 c -0.0306,0.0808 -0.0521,0.13967 -0.0651,0.17674 -0.024,0.0698 -0.0502,0.1502 -0.0786,0.24184 -0.0393,0.11782 -0.0692,0.22583 -0.0889,0.32401 l -0.12093,-0.38292 -0.13436,-0.3793 z m -9.623707,0.18965 v 4.79144 h 2.52026 v -0.69711 h -1.741496 v -4.09433 z m 13.292217,0 v 4.79144 h 0.77876 v -4.79144 z m 1.84536,0 v 4.79144 h 0.72967 v -2.15025 h 0.29456 0.15399 c 0.34474,0 0.60094,-0.0182 0.76895,-0.0553 0.168,-0.0393 0.31201,-0.10146 0.43201,-0.18655 0.15055,-0.11127 0.26838,-0.26326 0.35347,-0.45527 0.0851,-0.19201 0.12764,-0.40003 0.12764,-0.62477 0,-0.22691 -0.0425,-0.43454 -0.12764,-0.62218 -0.0851,-0.18982 -0.20292,-0.34037 -0.35347,-0.45165 -0.12437,-0.0895 -0.26929,-0.15259 -0.43511,-0.18966 -0.16583,-0.0371 -0.42111,-0.0558 -0.76585,-0.0558 z m 3.51451,0 v 4.79144 h 2.67374 v -0.69711 h -1.89497 v -1.54771 h 1.89497 v -0.6842 h -1.89497 v -1.20096 h 1.89497 v -0.66146 z m 3.51452,0 v 4.79144 h 0.72967 v -2.14354 h 0.0884 l 1.5937,2.14354 h 0.88056 l -1.64951,-2.17971 c 0.36656,-0.0458 0.64148,-0.17673 0.82476,-0.39274 0.18328,-0.21601 0.27492,-0.51568 0.27492,-0.89969 0,-0.10691 -0.0108,-0.21164 -0.0326,-0.31419 -0.0219,-0.10473 -0.0513,-0.20108 -0.0884,-0.28836 -0.0807,-0.18328 -0.19528,-0.33239 -0.34364,-0.44803 -0.12437,-0.0982 -0.274,-0.16692 -0.44856,-0.20619 -0.17455,-0.0415 -0.42236,-0.0625 -0.7431,-0.0625 z m -6.25027,0.66766 h 0.19948 c 0.41455,0 0.69837,0.0524 0.85111,0.1571 0.15273,0.10255 0.22892,0.28256 0.22892,0.54002 0,0.24 -0.072,0.40692 -0.216,0.50074 -0.14182,0.0916 -0.42984,0.13746 -0.86403,0.13746 h -0.19948 z m 7.02903,0 h 0.14056 c 0.39056,0 0.65893,0.0556 0.80512,0.16692 0.14619,0.1091 0.21963,0.29381 0.21963,0.55345 0,0.24437 -0.0678,0.41456 -0.20309,0.51056 -0.13528,0.096 -0.40928,0.14367 -0.82166,0.14367 h -0.14056 z m -12.10882,6.15673 -1.70946,3.67058 h 0.60255 l 0.41031,-0.90899 h 1.39837 l 0.40049,0.90899 h 0.60513 z m -3.80545,0.14005 v 3.53053 h 0.53795 v -1.5844 h 0.21704 0.11317 c 0.25402,0 0.4431,-0.0135 0.56689,-0.0408 0.1238,-0.0289 0.2299,-0.0747 0.31833,-0.13746 0.1109,-0.082 0.19772,-0.1939 0.26045,-0.33538 0.0627,-0.14148 0.094,-0.29484 0.094,-0.46044 0,-0.1672 -0.0313,-0.32011 -0.094,-0.45837 -0.0627,-0.13987 -0.14952,-0.2508 -0.26045,-0.3328 -0.0916,-0.0659 -0.19872,-0.11271 -0.32091,-0.14004 -0.12219,-0.0273 -0.31029,-0.0408 -0.56431,-0.0408 z m 5.79293,0 v 3.53053 h 0.53795 v -1.57975 h 0.0646 l 1.17461,1.57975 h 0.64906 l -1.21543,-1.6061 c 0.27009,-0.0338 0.47215,-0.13023 0.60719,-0.28939 0.13506,-0.15917 0.20309,-0.38005 0.20309,-0.66301 0,-0.0788 -0.008,-0.15594 -0.0243,-0.23151 -0.0161,-0.0771 -0.0378,-0.14806 -0.0651,-0.21239 -0.0595,-0.13505 -0.14389,-0.24501 -0.25321,-0.33021 -0.0916,-0.0724 -0.2016,-0.123 -0.33022,-0.15193 -0.12861,-0.0305 -0.31143,-0.046 -0.54777,-0.046 z m 2.71301,0 v 3.53053 h 0.57412 v -1.80402 l 1.3963,1.80402 h 0.74052 l -1.56527,-1.9606 1.39888,-1.56993 h -0.70177 l -1.26866,1.4614 v -1.4614 z m -7.93182,0.49196 h 0.14676 c 0.30547,0 0.51482,0.0386 0.62736,0.11575 0.11254,0.0756 0.16846,0.2082 0.16846,0.39791 0,0.17685 -0.0531,0.29984 -0.15916,0.36897 -0.1045,0.0675 -0.31672,0.10128 -0.63666,0.10128 h -0.14676 z m 5.79293,0 h 0.10335 c 0.28779,0 0.48554,0.041 0.59325,0.12298 0.10772,0.0804 0.16175,0.21641 0.16175,0.40773 0,0.18006 -0.0497,0.30547 -0.14935,0.37621 -0.0997,0.0707 -0.30179,0.10593 -0.60565,0.10593 h -0.10335 z m -2.55643,0.44596 0.0672,0.22428 0.0651,0.17622 0.36174,0.80563 h -0.98392 l 0.36173,-0.80563 c 0.0257,-0.0595 0.0474,-0.12072 0.0651,-0.18346 0.0129,-0.0354 0.0235,-0.0692 0.0315,-0.10128 0.01,-0.0322 0.0203,-0.0708 0.0315,-0.11576 z m -21.485512,0.46302 v 0.66353 h -0.637687 v 0.1695 h 0.637687 v 0.66869 h 0.180351 v -0.66869 h 0.638204 v -0.1695 h -0.638204 v -0.66353 z m 36.166272,2.50734 v 3.67058 h 0.52813 v -2.45515 c 0.0499,0.0707 0.10388,0.14022 0.16175,0.20774 0.0482,0.0547 0.0776,0.0874 0.0889,0.0987 0.0257,0.0273 0.0557,0.0573 0.0894,0.0894 l 2.28823,2.19676 v -3.66799 h -0.5302 v 2.44791 c -0.0708,-0.09 -0.13685,-0.16816 -0.19792,-0.23409 l -0.18552,-0.19534 z m -13.88856,0.12971 v 15.74271 h 0.74982 l -0.5302,0.5302 11.13162,11.13162 1.0604,-1.06092 -9.85107,-9.85107 h 13.93196 v -1.50017 h -13.93196 l 9.85107,-9.85108 -1.0604,-1.0604 -9.85107,9.85056 V 183.2076 Z m 12.54239,0.0103 v 3.53053 h 0.57412 v -3.53053 z m 4.88859,0 v 0.48731 h 0.93844 v 3.04322 h 0.57361 v -3.04322 h 0.93327 v -0.48731 z m 8.67544,13.91853 -0.70901,1.88567 -0.0171,0.046 c -0.0611,0.17364 -0.11943,0.35594 -0.1757,0.54726 l -0.0801,-0.24857 c -0.0257,-0.082 -0.0619,-0.18471 -0.10852,-0.30851 l -0.66766,-1.78232 h -0.56689 l 1.36271,3.668 0.79065,-2.00402 c 0.0259,-0.0643 0.0413,-0.10288 0.046,-0.11575 0.0129,-0.0402 0.0259,-0.0802 0.0388,-0.12041 l 0.0816,-0.26768 0.0775,0.23616 0.0966,0.25838 0.80512,2.01332 1.36735,-3.668 h -0.57154 l -0.66301,1.79679 c -0.0225,0.0595 -0.0384,0.10289 -0.0481,0.13023 -0.0177,0.0514 -0.0369,0.11076 -0.0579,0.17828 -0.0289,0.0868 -0.0506,0.1664 -0.0651,0.23875 l -0.0894,-0.28216 -0.0987,-0.27957 z m -4.39664,0.0599 c -0.25723,0 -0.49982,0.0468 -0.72812,0.14005 -0.22829,0.0916 -0.4323,0.22525 -0.61236,0.40049 -0.17846,0.17362 -0.31448,0.37281 -0.40773,0.59789 -0.0932,0.22508 -0.14004,0.46286 -0.14004,0.71366 0,0.2508 0.0478,0.48908 0.14262,0.71416 0.0949,0.22508 0.23037,0.42427 0.40721,0.5979 0.17686,0.17202 0.3804,0.30563 0.6103,0.40049 0.23152,0.0932 0.4741,0.13953 0.72812,0.13953 0.2492,0 0.48892,-0.0472 0.71882,-0.14211 0.23152,-0.0965 0.43747,-0.23151 0.61754,-0.40514 0.18006,-0.17364 0.31654,-0.37041 0.40979,-0.59067 0.0933,-0.22186 0.14004,-0.46014 0.14004,-0.71416 0,-0.2492 -0.0482,-0.48599 -0.14469,-0.71107 -0.0948,-0.22508 -0.23231,-0.42524 -0.41238,-0.60048 -0.18006,-0.17686 -0.38458,-0.31144 -0.61288,-0.40308 -0.22669,-0.0916 -0.46544,-0.13746 -0.71624,-0.13746 z m -4.00337,0.0796 v 3.53054 h 1.85725 V 200.2928 H 126.892 v -3.01687 z m 4.00337,0.44856 c 0.17524,0 0.34067,0.0337 0.49661,0.10128 0.15756,0.0675 0.29697,0.16353 0.41755,0.28732 0.12055,0.1238 0.21265,0.2651 0.27699,0.42427 0.0643,0.15916 0.0966,0.3294 0.0966,0.51108 0,0.17685 -0.0338,0.34664 -0.10128,0.50901 -0.0675,0.16077 -0.16158,0.30305 -0.28216,0.42685 -0.11897,0.12378 -0.25643,0.2188 -0.41238,0.28473 -0.15434,0.0659 -0.31832,0.0987 -0.49196,0.0987 -0.17524,0 -0.34163,-0.0328 -0.49919,-0.0987 -0.15755,-0.0675 -0.29599,-0.16352 -0.41496,-0.28732 -0.0643,-0.0643 -0.11882,-0.13085 -0.16382,-0.19999 -0.045,-0.0691 -0.0836,-0.14486 -0.11575,-0.22686 -0.0643,-0.15755 -0.0966,-0.32636 -0.0966,-0.50642 0,-0.0949 0.008,-0.18311 0.0243,-0.2651 0.0161,-0.082 0.0402,-0.16399 0.0724,-0.24598 0.0691,-0.16399 0.16221,-0.30627 0.27957,-0.42685 0.12379,-0.12699 0.2632,-0.22247 0.41754,-0.28681 0.15595,-0.0659 0.32137,-0.0992 0.49661,-0.0992 z m -2.5678,12.88758 c -0.25884,0 -0.50528,0.0439 -0.74,0.13229 -0.23473,0.0884 -0.43971,0.21865 -0.61495,0.39068 -0.17364,0.17041 -0.30627,0.3677 -0.39791,0.59117 -0.09,0.22348 -0.13539,0.46946 -0.13539,0.73794 0,0.25884 0.0454,0.50482 0.13539,0.73794 0.09,0.23312 0.2183,0.43471 0.3855,0.60513 0.16881,0.17042 0.36513,0.29823 0.5886,0.38344 0.22508,0.0836 0.48455,0.12558 0.77876,0.12558 0.51768,0 0.91898,-0.13746 1.20355,-0.41238 0.28456,-0.27492 0.42684,-0.66077 0.42684,-1.15755 l -0.007,-0.23151 -0.002,-0.10129 h -1.39888 l -5.2e-4,0.48473 h 0.84853 v 0.0506 c 0,0.26367 -0.0941,0.47152 -0.28216,0.62425 -0.18649,0.15273 -0.44453,0.22944 -0.77411,0.22944 -0.38585,0 -0.69981,-0.12494 -0.94258,-0.37413 -0.24115,-0.2492 -0.36173,-0.57235 -0.36173,-0.96945 0,-0.39228 0.12104,-0.71061 0.3638,-0.95498 0.24437,-0.24598 0.55644,-0.36897 0.93586,-0.36897 0.18489,0 0.35226,0.0347 0.50178,0.10387 0.15113,0.0675 0.2852,0.16978 0.40256,0.30644 l 0.41961,-0.31626 c -0.17363,-0.20901 -0.3704,-0.36381 -0.59066,-0.46509 -0.21865,-0.10129 -0.46658,-0.15193 -0.74311,-0.15193 z m -6.73034,0.0796 v 3.53054 h 0.57413 v -1.71463 h 1.73633 v 1.71463 h 0.57412 v -3.53054 h -0.57412 v 1.30225 h -1.73633 v -1.30225 z m 3.65146,0 v 3.53054 h 0.57413 v -3.53054 z m 5.25963,0 v 3.53054 h 0.57412 v -1.71463 h 1.73633 v 1.71463 h 0.57413 v -3.53054 h -0.57413 v 1.30225 h -1.73633 v -1.30225 z"
           sodipodi:insensitive="true" /></g></g></g></svg>
