<?xml version="1.0" encoding="UTF-8" standalone="no"?>
<!-- Created with Inkscape (http://www.inkscape.org/) -->

<svg
   width="210mm"
   height="297mm"
   viewBox="0 0 210 297"
   version="1.1"
   id="svg8839"
   xml:space="preserve"
   inkscape:version="1.3 (0e150ed6c4, 2023-07-21)"
   sodipodi:docname="OH_08_Marek.svg"
   inkscape:export-filename="OH_08_PCBmatch.png"
   inkscape:export-xdpi="96"
   inkscape:export-ydpi="96"
   xmlns:inkscape="http://www.inkscape.org/namespaces/inkscape"
   xmlns:sodipodi="http://sodipodi.sourceforge.net/DTD/sodipodi-0.dtd"
   xmlns="http://www.w3.org/2000/svg"
   xmlns:svg="http://www.w3.org/2000/svg"><sodipodi:namedview
     id="namedview8841"
     pagecolor="#505050"
     bordercolor="#ffffff"
     borderopacity="1"
     inkscape:showpageshadow="0"
     inkscape:pageopacity="0"
     inkscape:pagecheckerboard="1"
     inkscape:deskcolor="#505050"
     inkscape:document-units="mm"
     showgrid="false"
     showguides="true"
     inkscape:zoom="1.3683502"
     inkscape:cx="225.81939"
     inkscape:cy="633.97516"
     inkscape:current-layer="layer6"><sodipodi:guide
       position="110.98804,175.75273"
       orientation="1,0"
       id="guide10111"
       inkscape:locked="false" /><sodipodi:guide
       position="52.25078,193.2961"
       orientation="0,-1"
       id="guide10113"
       inkscape:locked="false" /><sodipodi:guide
       position="102.95447,156.03578"
       orientation="0,-1"
       id="guide10196"
       inkscape:locked="false" /><sodipodi:guide
       position="60.632044,170.25272"
       orientation="1,0"
       id="guide10274"
       inkscape:locked="false" /><sodipodi:guide
       position="84.432043,170.25273"
       orientation="1,0"
       id="guide10276"
       inkscape:locked="false" /><sodipodi:guide
       position="137.54404,170.25272"
       orientation="1,0"
       id="guide10278"
       inkscape:locked="false" /><sodipodi:guide
       position="161.34404,170.25273"
       orientation="1,0"
       id="guide10280"
       inkscape:locked="false" /><sodipodi:guide
       position="87.978514,180.87335"
       orientation="0,-1"
       id="guide10282"
       inkscape:locked="false" /><sodipodi:guide
       position="102.19043,190.86523"
       orientation="0,-1"
       id="guide10317"
       inkscape:locked="false" /><sodipodi:guide
       position="84.432041,170.25273"
       orientation="0,-1"
       id="guide10319"
       inkscape:locked="false" /><sodipodi:guide
       position="72.219725,170.25273"
       orientation="1,0"
       id="guide10321"
       inkscape:locked="false" /><inkscape:grid
       type="xygrid"
       id="grid10519"
       originx="0"
       originy="0"
       spacingy="1"
       spacingx="1"
       units="mm"
       visible="false" /><sodipodi:guide
       position="72.219723,159.88772"
       orientation="0,-1"
       id="guide10521"
       inkscape:locked="false" /></sodipodi:namedview><defs
     id="defs8836"><rect
       x="349.32579"
       y="385.50074"
       width="444.37501"
       height="212.87783"
       id="rect10003" /><rect
       x="349.32578"
       y="385.50073"
       width="444.375"
       height="212.87782"
       id="rect10003-5" /><rect
       x="349.32578"
       y="385.50073"
       width="444.375"
       height="212.87782"
       id="rect10003-51" /><rect
       x="349.32578"
       y="385.50073"
       width="444.375"
       height="212.87782"
       id="rect10003-51-6" /><rect
       x="349.32578"
       y="385.50073"
       width="444.375"
       height="212.87782"
       id="rect10003-51-1" /><rect
       x="349.32578"
       y="385.50073"
       width="444.375"
       height="212.87782"
       id="rect10003-51-3" /><rect
       x="349.32578"
       y="385.50073"
       width="444.375"
       height="212.87782"
       id="rect10003-51-3-3" /><rect
       x="349.32578"
       y="385.50073"
       width="444.375"
       height="212.87782"
       id="rect10003-51-3-3-6" /><rect
       x="349.32578"
       y="385.50073"
       width="444.375"
       height="212.87782"
       id="rect10003-51-3-3-6-2" /><rect
       x="349.32578"
       y="385.50073"
       width="444.375"
       height="212.87782"
       id="rect10003-51-3-3-7" /><rect
       x="349.32578"
       y="385.50073"
       width="444.375"
       height="212.87782"
       id="rect10003-51-6-0" /><rect
       x="349.32578"
       y="385.50073"
       width="444.375"
       height="212.87782"
       id="rect10003-51-2" /><rect
       x="349.32578"
       y="385.50073"
       width="444.375"
       height="212.87782"
       id="rect10003-51-3-0" /><rect
       x="349.32578"
       y="385.50073"
       width="444.375"
       height="212.87782"
       id="rect10003-51-3-3-6-5" /><rect
       x="349.32578"
       y="385.50073"
       width="444.375"
       height="212.87782"
       id="rect10003-51-3-3-6-5-1" /><rect
       x="349.32578"
       y="385.50073"
       width="444.375"
       height="212.87782"
       id="rect10003-51-3-3-6-5-7" /><rect
       x="349.32578"
       y="385.50073"
       width="444.375"
       height="212.87782"
       id="rect10003-5-8" /><rect
       x="349.32578"
       y="385.50073"
       width="444.375"
       height="212.87782"
       id="rect10003-51-3-3-6-5-7-3" /></defs><g
     inkscape:groupmode="layer"
     id="layer6"
     inkscape:label="Text"><g
       id="g1"
       transform="matrix(0,10,-10,0,184.01328,70.366406)"
       style="display:inline;fill:none;stroke:#009aff;stroke-width:0.05;stroke-dasharray:none;stroke-opacity:1"><path
         d="M 7.62,7.2275 A 0.075,0.075 0 0 1 7.545,7.3025 H -7.545 A 0.075,0.075 90 0 1 -7.62,7.2275 v -14.455 a 0.075,0.075 -180 0 1 0.075,-0.075 h 15.09 a 0.075,0.075 -90 0 1 0.075,0.075 z"
         transform="matrix(1,0,0,-1,7.62,7.3025)"
         fill="#000000"
         stroke-linecap="round"
         stroke-linejoin="round"
         id="path1"
         style="fill:none;stroke:#009aff;stroke-width:0.05;stroke-dasharray:none;stroke-opacity:1" /><path
         d="m -4.4478893,5.5043479 a 0.16,0.16 0 1 1 0.32,0 0.16,0.16 0 1 1 -0.32,0 z"
         transform="matrix(1,0,0,-1,7.62,7.3025)"
         fill="#ffffff"
         stroke="#000000"
         stroke-width="0.001cm"
         stroke-linecap="round"
         stroke-linejoin="round"
         id="path2"
         style="fill:none;stroke:#009aff;stroke-width:0.05;stroke-dasharray:none;stroke-opacity:1" /><path
         d="m -4.4200762,-5.500656 a 0.16,0.16 0 1 1 0.32,0 0.16,0.16 0 1 1 -0.32,0 z"
         transform="matrix(1,0,0,-1,7.62,7.3025)"
         fill="#ffffff"
         stroke="#000000"
         stroke-width="0.001cm"
         stroke-linecap="round"
         stroke-linejoin="round"
         id="path3"
         style="fill:none;stroke:#009aff;stroke-width:0.05;stroke-dasharray:none;stroke-opacity:1" /><path
         d="m 4.66,-2.0025 a 0.16,0.16 0 1 1 0.32,0 0.16,0.16 0 1 1 -0.32,0 z"
         transform="matrix(1,0,0,-1,7.62,7.3025)"
         fill="#ffffff"
         stroke="#000000"
         stroke-width="0.001cm"
         stroke-linecap="round"
         stroke-linejoin="round"
         id="path4"
         style="fill:none;stroke:#009aff;stroke-width:0.05;stroke-dasharray:none;stroke-opacity:1" /><path
         d="m 4.66,2.0025 a 0.16,0.16 0 1 1 0.32,0 0.16,0.16 0 1 1 -0.32,0 z"
         transform="matrix(1,0,0,-1,7.62,7.3025)"
         fill="#ffffff"
         stroke="#000000"
         stroke-width="0.001cm"
         stroke-linecap="round"
         stroke-linejoin="round"
         id="path5"
         style="fill:none;stroke:#009aff;stroke-width:0.05;stroke-dasharray:none;stroke-opacity:1" /><path
         d="m 1.3435324,-0.0583984 a 0.16,0.16 0 1 1 0.32,0 0.16,0.16 0 1 1 -0.32,0 z"
         transform="matrix(1,0,0,-1,7.62,7.3025)"
         fill="#ffffff"
         stroke="#000000"
         stroke-width="0.001cm"
         stroke-linecap="round"
         stroke-linejoin="round"
         id="path6"
         style="fill:none;stroke:#009aff;stroke-width:0.05;stroke-dasharray:none;stroke-opacity:1" /><path
         d="m -2.5769125,5.0355764 a 0.595,0.595 0 1 1 1.19,0 0.595,0.595 0 1 1 -1.19,0 z"
         transform="matrix(1,0,0,-1,7.62,7.3025)"
         fill="#ffffff"
         stroke="#000000"
         stroke-width="0.001cm"
         stroke-linecap="round"
         stroke-linejoin="round"
         id="path8"
         style="fill:none;stroke:#009aff;stroke-width:0.05;stroke-dasharray:none;stroke-opacity:1" /><path
         d="m -2.5769125,-5.0356236 a 0.595,0.595 0 1 1 1.19,0 0.595,0.595 0 1 1 -1.19,0 z"
         transform="matrix(1,0,0,-1,7.62,7.3025)"
         fill="#ffffff"
         stroke="#000000"
         stroke-width="0.001cm"
         stroke-linecap="round"
         stroke-linejoin="round"
         id="path9"
         style="fill:none;stroke:#009aff;stroke-width:0.05;stroke-dasharray:none;stroke-opacity:1" /><path
         d="m -2.5769125,2.6555764 a 0.595,0.595 0 1 1 1.19,0 0.595,0.595 0 1 1 -1.19,0 z"
         transform="matrix(1,0,0,-1,7.62,7.3025)"
         fill="#ffffff"
         stroke="#000000"
         stroke-width="0.001cm"
         stroke-linecap="round"
         stroke-linejoin="round"
         id="path10"
         style="fill:none;stroke:#009aff;stroke-width:0.05;stroke-dasharray:none;stroke-opacity:1" /><path
         d="m 0.9976383,1.3999764 a 0.595,0.595 0 1 1 1.19,0 0.595,0.595 0 1 1 -1.19,0 z"
         transform="matrix(1,0,0,-1,7.62,7.3025)"
         fill="#ffffff"
         stroke="#000000"
         stroke-width="0.001cm"
         stroke-linecap="round"
         stroke-linejoin="round"
         id="path11"
         style="fill:none;stroke:#009aff;stroke-width:0.05;stroke-dasharray:none;stroke-opacity:1" /><path
         d="m -2.5769125,-2.6556236 a 0.595,0.595 0 1 1 1.19,0 0.595,0.595 0 1 1 -1.19,0 z"
         transform="matrix(1,0,0,-1,7.62,7.3025)"
         fill="#ffffff"
         stroke="#000000"
         stroke-width="0.001cm"
         stroke-linecap="round"
         stroke-linejoin="round"
         id="path12"
         style="fill:none;stroke:#009aff;stroke-width:0.05;stroke-dasharray:none;stroke-opacity:1" /><path
         d="m -3.1269125,-2.36e-5 a 0.595,0.595 0 1 1 1.19,0 0.595,0.595 0 1 1 -1.19,0 z"
         transform="matrix(1,0,0,-1,7.62,7.3025)"
         fill="#ffffff"
         stroke="#000000"
         stroke-width="0.001cm"
         stroke-linecap="round"
         stroke-linejoin="round"
         id="path13"
         style="fill:none;stroke:#009aff;stroke-width:0.05;stroke-dasharray:none;stroke-opacity:1" /><path
         d="m 0.9976383,-1.4000236 a 0.595,0.595 0 1 1 1.19,0 0.595,0.595 0 1 1 -1.19,0 z"
         transform="matrix(1,0,0,-1,7.62,7.3025)"
         fill="#ffffff"
         stroke="#000000"
         stroke-width="0.001cm"
         stroke-linecap="round"
         stroke-linejoin="round"
         id="path14"
         style="fill:none;stroke:#009aff;stroke-width:0.05;stroke-dasharray:none;stroke-opacity:1" /><path
         d="m 2.2276409,2.9949765 a 0.05,0.05 -90 0 0 -0.03,0.01 0.05,0.05 -53.130102 0 0 -0.03,-0.01 h -2.43 a 0.05,0.05 -90 0 0 -0.05,0.05 l 1e-7,2.4550001 a 0.05,0.05 179.99993 0 0 0.0499999,0.05 h 2.43 a 0.05,0.05 90 0 0 0.03,-0.01 0.05,0.05 126.8699 0 0 0.03,0.01 h 2.43 a 0.05,0.05 90 0 0 0.05,-0.05 l -1e-7,-2.455 a 0.05,0.05 0 0 0 -0.05,-0.05 z"
         transform="matrix(1,0,0,-1,7.62,7.3025)"
         fill="#ffffff"
         stroke="#000000"
         stroke-width="0.001cm"
         stroke-linecap="round"
         stroke-linejoin="round"
         id="path15"
         style="fill:none;stroke:#009aff;stroke-width:0.05;stroke-dasharray:none;stroke-opacity:1" /><path
         d="m 2.2276409,-5.5500235 a 0.05,0.05 -90 0 0 -0.03,0.01 0.05,0.05 -53.130102 0 0 -0.03,-0.01 h -2.43 a 0.05,0.05 -90 0 0 -0.05,0.05 l 1e-7,2.4550001 a 0.05,0.05 179.99993 0 0 0.0499999,0.05 h 2.43 a 0.05,0.05 90 0 0 0.03,-0.01 0.05,0.05 126.8699 0 0 0.03,0.01 h 2.43 a 0.05,0.05 90 0 0 0.05,-0.05 l -1e-7,-2.455 a 0.05,0.05 0 0 0 -0.05,-0.05 z"
         transform="matrix(1,0,0,-1,7.62,7.3025)"
         fill="#ffffff"
         stroke="#000000"
         stroke-width="0.001cm"
         stroke-linecap="round"
         stroke-linejoin="round"
         id="path16"
         style="fill:none;stroke:#009aff;stroke-width:0.05;stroke-dasharray:none;stroke-opacity:1" /><path
         d="m -4.8323591,-2.8350235 h -2.43 a 0.05,0.05 -90 0 0 -0.05,0.05 l 1e-7,2.4550001 a 0.05,0.05 179.99993 0 0 0.05,0.0499999 h 2.43 a 0.05,0.05 90 0 0 0.05,-0.05 l -1e-7,-2.455 a 0.05,0.05 0 0 0 -0.05,-0.05 z"
         transform="matrix(1,0,0,-1,7.62,7.3025)"
         fill="#ffffff"
         stroke="#000000"
         stroke-width="0.001cm"
         stroke-linecap="round"
         stroke-linejoin="round"
         id="path17"
         style="fill:none;stroke:#009aff;stroke-width:0.05;stroke-dasharray:none;stroke-opacity:1" /><path
         d="m -6.51525,-6.82625 a 0.324,0.324 0 1 1 0.648,0 0.324,0.324 0 1 1 -0.648,0 z"
         transform="matrix(1,0,0,-1,7.62,7.3025)"
         fill="#ffffff"
         stroke="#000000"
         stroke-width="0.001cm"
         stroke-linecap="round"
         stroke-linejoin="round"
         id="path18"
         style="fill:none;stroke:#009aff;stroke-width:0.05;stroke-dasharray:none;stroke-opacity:1" /><path
         d="m 5.86725,6.82625 a 0.324,0.324 0 1 1 0.648,0 0.324,0.324 0 1 1 -0.648,0 z"
         transform="matrix(1,0,0,-1,7.62,7.3025)"
         fill="#ffffff"
         stroke="#000000"
         stroke-width="0.001cm"
         stroke-linecap="round"
         stroke-linejoin="round"
         id="path19"
         style="fill:none;stroke:#009aff;stroke-width:0.05;stroke-dasharray:none;stroke-opacity:1" /><path
         d="m 5.86725,-6.82625 a 0.324,0.324 0 1 1 0.648,0 0.324,0.324 0 1 1 -0.648,0 z"
         transform="matrix(1,0,0,-1,7.62,7.3025)"
         fill="#ffffff"
         stroke="#000000"
         stroke-width="0.001cm"
         stroke-linecap="round"
         stroke-linejoin="round"
         id="path20"
         style="fill:none;stroke:#009aff;stroke-width:0.05;stroke-dasharray:none;stroke-opacity:1" /><path
         d="m -6.51525,6.82625 a 0.324,0.324 0 1 1 0.648,0 0.324,0.324 0 1 1 -0.648,0 z"
         transform="matrix(1,0,0,-1,7.62,7.3025)"
         fill="#ffffff"
         stroke="#000000"
         stroke-width="0.001cm"
         stroke-linecap="round"
         stroke-linejoin="round"
         id="path21"
         style="fill:none;stroke:#009aff;stroke-width:0.05;stroke-dasharray:none;stroke-opacity:1" /><path
         d="m -4.8323591,-5.6500235 h -2.43 a 0.05,0.05 -90 0 0 -0.05,0.05 l 1e-7,2.4550001 a 0.05,0.05 179.99993 0 0 0.05,0.05 h 2.43 a 0.05,0.05 90 0 0 0.05,-0.05 l -1e-7,-2.455 a 0.05,0.05 0 0 0 -0.05,-0.05 z"
         transform="matrix(1,0,0,-1,7.62,7.3025)"
         fill="#ffffff"
         stroke="#000000"
         stroke-width="0.001cm"
         stroke-linecap="round"
         stroke-linejoin="round"
         id="path22"
         style="fill:none;stroke:#009aff;stroke-width:0.05;stroke-dasharray:none;stroke-opacity:1" /><path
         d="m -4.8323591,0.2799765 h -2.43 a 0.05,0.05 -90 0 0 -0.05,0.05 l 1e-7,2.4550001 a 0.05,0.05 179.99993 0 0 0.05,0.05 h 2.43 a 0.05,0.05 90 0 0 0.05,-0.05 l -1e-7,-2.455 a 0.05,0.05 0 0 0 -0.05,-0.0500001 z"
         transform="matrix(1,0,0,-1,7.62,7.3025)"
         fill="#ffffff"
         stroke="#000000"
         stroke-width="0.001cm"
         stroke-linecap="round"
         stroke-linejoin="round"
         id="path23"
         style="fill:none;stroke:#009aff;stroke-width:0.05;stroke-dasharray:none;stroke-opacity:1" /><path
         d="m -4.8323591,3.0949765 h -2.43 a 0.05,0.05 -90 0 0 -0.05,0.05 l 1e-7,2.4550001 a 0.05,0.05 179.99993 0 0 0.05,0.05 h 2.43 a 0.05,0.05 90 0 0 0.05,-0.05 l -1e-7,-2.455 a 0.05,0.05 0 0 0 -0.05,-0.05 z"
         transform="matrix(1,0,0,-1,7.62,7.3025)"
         fill="#ffffff"
         stroke="#000000"
         stroke-width="0.001cm"
         stroke-linecap="round"
         stroke-linejoin="round"
         id="path24"
         style="fill:none;stroke:#009aff;stroke-width:0.05;stroke-dasharray:none;stroke-opacity:1" /></g><g
       id="g2"
       transform="matrix(-10,0,0,-10,183.22045,200.7579)"
       style="display:inline;fill:none;stroke:#ff0006;stroke-width:0.05;stroke-dasharray:none;stroke-opacity:1"><path
         d="m 2.6731982,-0.6529241 v 5.5324 a 0.1588,0.1588 0 0 1 -0.1588,0.1588 h -5.0287964 a 0.1588,0.1588 90 0 1 -0.1588,-0.1588 v -5.5324 a 0.1588,0.1588 0 0 0 -0.1588,-0.1588 h -4.3912 V -4.8808237 A 0.1574522,0.1574522 -180 0 1 -7.065746,-5.0382759 H 7.065746 a 0.1574522,0.1574522 -90 0 1 0.1574522,0.1574522 v 3.9102996 a 0.1588,0.1588 0 0 1 -0.1588,0.1588 h -4.2324 a 0.1588,0.1588 -90 0 0 -0.1588,0.1588 z"
         transform="matrix(1,0,0,-1,7.2231982,5.0382759)"
         fill="#000000"
         stroke-linecap="round"
         stroke-linejoin="round"
         id="path1-0"
         style="fill:none;stroke:#ff0006;stroke-width:0.05;stroke-dasharray:none;stroke-opacity:1" /><path
         d="m -5.6643287,-4.668763 a 0.16,0.16 0 1 1 0.32,0 0.16,0.16 0 1 1 -0.32,0 z"
         transform="matrix(1,0,0,-1,7.2231982,5.0382759)"
         fill="#ffffff"
         stroke="#000000"
         stroke-width="0.001cm"
         stroke-linecap="round"
         stroke-linejoin="round"
         id="path2-1"
         style="fill:none;stroke:#ff0006;stroke-width:0.05;stroke-dasharray:none;stroke-opacity:1" /><path
         d="m 5.3406751,-4.64095 a 0.16,0.16 0 1 1 0.32,0 0.16,0.16 0 1 1 -0.32,0 z"
         transform="matrix(1,0,0,-1,7.2231982,5.0382759)"
         fill="#ffffff"
         stroke="#000000"
         stroke-width="0.001cm"
         stroke-linecap="round"
         stroke-linejoin="round"
         id="path3-3"
         style="fill:none;stroke:#ff0006;stroke-width:0.05;stroke-dasharray:none;stroke-opacity:1" /><path
         d="m 1.8425192,4.4391262 a 0.16,0.16 0 1 1 0.32,0 0.16,0.16 0 1 1 -0.32,0 z"
         transform="matrix(1,0,0,-1,7.2231982,5.0382759)"
         fill="#ffffff"
         stroke="#000000"
         stroke-width="0.001cm"
         stroke-linecap="round"
         stroke-linejoin="round"
         id="path4-2"
         style="fill:none;stroke:#ff0006;stroke-width:0.05;stroke-dasharray:none;stroke-opacity:1" /><path
         d="m -2.1624808,4.4391262 a 0.16,0.16 0 1 1 0.32,0 0.16,0.16 0 1 1 -0.32,0 z"
         transform="matrix(1,0,0,-1,7.2231982,5.0382759)"
         fill="#ffffff"
         stroke="#000000"
         stroke-width="0.001cm"
         stroke-linecap="round"
         stroke-linejoin="round"
         id="path5-8"
         style="fill:none;stroke:#ff0006;stroke-width:0.05;stroke-dasharray:none;stroke-opacity:1" /><path
         d="m -0.1015825,1.1226587 a 0.16,0.16 0 1 1 0.32,0 0.16,0.16 0 1 1 -0.32,0 z"
         transform="matrix(1,0,0,-1,7.2231982,5.0382759)"
         fill="#ffffff"
         stroke="#000000"
         stroke-width="0.001cm"
         stroke-linecap="round"
         stroke-linejoin="round"
         id="path6-2"
         style="fill:none;stroke:#ff0006;stroke-width:0.05;stroke-dasharray:none;stroke-opacity:1" /><path
         d="m 4.3156428,-2.3627863 a 0.72,0.72 0 1 1 1.44,0 0.72,0.72 0 1 1 -1.44,0 z"
         transform="matrix(1,0,0,-1,7.2231982,5.0382759)"
         fill="#ffffff"
         stroke="#000000"
         stroke-width="0.001cm"
         stroke-linecap="round"
         stroke-linejoin="round"
         id="path7-4"
         style="fill:none;stroke:#ff0006;stroke-width:0.05;stroke-dasharray:none;stroke-opacity:1" /><path
         d="m 0.6800428,1.2117645 a 0.72,0.72 0 1 1 1.44,0 0.72,0.72 0 1 1 -1.44,0 z"
         transform="matrix(1,0,0,-1,7.2231982,5.0382759)"
         fill="#ffffff"
         stroke="#000000"
         stroke-width="0.001cm"
         stroke-linecap="round"
         stroke-linejoin="round"
         id="path8-6"
         style="fill:none;stroke:#ff0006;stroke-width:0.05;stroke-dasharray:none;stroke-opacity:1" /><path
         d="m 1.9356428,-2.3627863 a 0.72,0.72 0 1 1 1.44,0 0.72,0.72 0 1 1 -1.44,0 z"
         transform="matrix(1,0,0,-1,7.2231982,5.0382759)"
         fill="#ffffff"
         stroke="#000000"
         stroke-width="0.001cm"
         stroke-linecap="round"
         stroke-linejoin="round"
         id="path9-0"
         style="fill:none;stroke:#ff0006;stroke-width:0.05;stroke-dasharray:none;stroke-opacity:1" /><path
         d="m -5.7555572,-2.3627863 a 0.72,0.72 0 1 1 1.44,0 0.72,0.72 0 1 1 -1.44,0 z"
         transform="matrix(1,0,0,-1,7.2231982,5.0382759)"
         fill="#ffffff"
         stroke="#000000"
         stroke-width="0.001cm"
         stroke-linecap="round"
         stroke-linejoin="round"
         id="path10-5"
         style="fill:none;stroke:#ff0006;stroke-width:0.05;stroke-dasharray:none;stroke-opacity:1" /><path
         d="m -2.1199572,1.2117645 a 0.72,0.72 0 1 1 1.44,0 0.72,0.72 0 1 1 -1.44,0 z"
         transform="matrix(1,0,0,-1,7.2231982,5.0382759)"
         fill="#ffffff"
         stroke="#000000"
         stroke-width="0.001cm"
         stroke-linecap="round"
         stroke-linejoin="round"
         id="path11-5"
         style="fill:none;stroke:#ff0006;stroke-width:0.05;stroke-dasharray:none;stroke-opacity:1" /><path
         d="m -0.7199572,-2.9127863 a 0.72,0.72 0 1 1 1.44,0 0.72,0.72 0 1 1 -1.44,0 z"
         transform="matrix(1,0,0,-1,7.2231982,5.0382759)"
         fill="#ffffff"
         stroke="#000000"
         stroke-width="0.001cm"
         stroke-linecap="round"
         stroke-linejoin="round"
         id="path12-5"
         style="fill:none;stroke:#ff0006;stroke-width:0.05;stroke-dasharray:none;stroke-opacity:1" /><path
         d="m -3.3755572,-2.3627863 a 0.72,0.72 0 1 1 1.44,0 0.72,0.72 0 1 1 -1.44,0 z"
         transform="matrix(1,0,0,-1,7.2231982,5.0382759)"
         fill="#ffffff"
         stroke="#000000"
         stroke-width="0.001cm"
         stroke-linecap="round"
         stroke-linejoin="round"
         id="path13-8"
         style="fill:none;stroke:#ff0006;stroke-width:0.05;stroke-dasharray:none;stroke-opacity:1" /></g><path
       id="path13815"
       style="font-size:25.3333px;font-family:'Futura Md BT';-inkscape-font-specification:'Futura Md BT, Normal';text-align:center;letter-spacing:-0.2px;text-orientation:upright;white-space:pre;display:inline;fill:#f3f3f3;stroke-width:0.499999"
       d="m 89.863249,101.15352 -0.962215,2.55953 -0.02274,0.062 c -0.08291,0.23564 -0.162896,0.48346 -0.239262,0.74311 l -0.108004,-0.33745 c -0.03491,-0.11128 -0.084,-0.25058 -0.147278,-0.41858 l -0.906404,-2.41897 h -0.768945 l 1.848982,4.97799 1.07332,-2.71973 c 0.03492,-0.0873 0.05599,-0.13963 0.06253,-0.1571 0.01745,-0.0546 0.03473,-0.10876 0.05219,-0.1633 l 0.111105,-0.36328 0.104903,0.32039 0.130741,0.35037 1.093474,2.73265 1.8557,-4.97799 h -0.775663 l -0.900203,2.43861 c -0.03055,0.0808 -0.05254,0.13967 -0.06563,0.17673 -0.024,0.0698 -0.05018,0.15021 -0.07855,0.24185 -0.03927,0.11782 -0.06873,0.22582 -0.08837,0.32401 l -0.120923,-0.38292 -0.134359,-0.37931 z m 5.513875,0 v 4.98109 h 0.716752 v -3.33158 c 0.06764,0.096 0.14056,0.18999 0.219108,0.28163 0.06546,0.0742 0.10565,0.11858 0.120923,0.13385 0.03491,0.0371 0.07562,0.0778 0.12144,0.12144 l 3.105753,2.98121 v -4.97799 h -0.719852 v 3.32228 c -0.096,-0.12219 -0.185806,-0.22836 -0.268718,-0.31781 l -0.251664,-0.2651 z m 18.578196,0 -0.96222,2.55953 -0.0233,0.062 c -0.0829,0.23564 -0.16238,0.48346 -0.23875,0.74311 l -0.108,-0.33745 c -0.0349,-0.11128 -0.084,-0.25058 -0.14728,-0.41858 l -0.9064,-2.41897 h -0.76946 l 1.84949,4.97799 1.07332,-2.71973 c 0.0348,-0.0873 0.0554,-0.13963 0.062,-0.1571 0.0175,-0.0546 0.0352,-0.10876 0.0527,-0.1633 l 0.1111,-0.36328 0.1049,0.32039 0.13074,0.35037 1.09296,2.73265 1.8557,-4.97799 h -0.77566 l -0.89969,2.43861 c -0.0306,0.0808 -0.0526,0.13967 -0.0656,0.17673 -0.024,0.0698 -0.0502,0.15021 -0.0785,0.24185 -0.0393,0.11782 -0.0687,0.22582 -0.0884,0.32401 l -0.12092,-0.38292 -0.13436,-0.37931 z m 15.76958,0 -2.32079,4.98109 h 0.81855 l 0.55604,-1.23352 h 1.89859 l 0.54312,1.23352 h 0.82166 z m -21.75526,0.0816 c -0.34911,0 -0.67875,0.0636 -0.98857,0.19017 -0.30983,0.12437 -0.58659,0.3053 -0.83096,0.54312 -0.24219,0.23565 -0.42691,0.50638 -0.55345,0.81184 -0.12656,0.30547 -0.18966,0.62804 -0.18966,0.96842 0,0.34037 0.0645,0.66347 0.19327,0.96893 0.12874,0.30547 0.31293,0.57619 0.55294,0.81184 0.24001,0.23346 0.51584,0.41438 0.82786,0.54312 0.31419,0.12654 0.64383,0.18965 0.98857,0.18965 0.33818,0 0.66312,-0.064 0.97513,-0.19276 0.31419,-0.13091 0.59382,-0.31419 0.83819,-0.54983 0.24437,-0.23565 0.42949,-0.5031 0.55604,-0.80202 0.12655,-0.3011 0.19017,-0.6242 0.19017,-0.96893 0,-0.3382 -0.0655,-0.65986 -0.19637,-0.96532 -0.12873,-0.30547 -0.31528,-0.57711 -0.55966,-0.81494 -0.24437,-0.24 -0.52164,-0.42237 -0.83147,-0.54673 -0.30765,-0.12437 -0.63166,-0.18656 -0.97203,-0.18656 z m -36.749698,0.10801 v 4.79144 h 2.52026 v -0.69712 h -1.740979 v -4.09432 z m 22.311817,0 v 4.79144 h 0.778763 v -4.79144 z m 7.175791,0 v 4.79144 h 1.05058 0.20981 c 0.28364,0 0.52911,-0.008 0.73639,-0.0258 0.20728,-0.0175 0.37746,-0.0427 0.51056,-0.0755 0.27055,-0.072 0.50947,-0.18747 0.71675,-0.34675 0.27928,-0.21818 0.48967,-0.49127 0.63149,-0.81855 0.14182,-0.32728 0.2129,-0.70223 0.2129,-1.12552 0,-0.42546 -0.072,-0.8042 -0.216,-1.13584 -0.14401,-0.33384 -0.35348,-0.60548 -0.62839,-0.81494 -0.21383,-0.16364 -0.45837,-0.27911 -0.73329,-0.34675 -0.27273,-0.0676 -0.75292,-0.1018 -1.44022,-0.1018 z m 18.87275,0 v 4.79144 h 0.77876 v -2.32699 h 2.35645 v 2.32699 h 0.77876 v -4.79144 h -0.77876 v 1.76733 h -2.35645 v -1.76733 z m 4.96094,0 v 4.79144 h 2.67373 v -0.69712 H 125.32 v -1.54771 h 1.89497 v -0.68419 H 125.32 v -1.20096 h 1.89497 v -0.66146 z m 7.39541,0 v 0.66146 h 1.27331 v 4.12998 h 0.77876 v -4.12998 h 1.26659 v -0.66146 z m 15.89464,0 v 4.79144 h 0.72967 v -2.14354 h 0.0884 l 1.59371,2.14354 h 0.88056 l -1.64951,-2.17971 c 0.36656,-0.0458 0.64148,-0.17674 0.82476,-0.39275 0.18328,-0.216 0.27491,-0.51567 0.27491,-0.89968 0,-0.10692 -0.0108,-0.21165 -0.0325,-0.3142 -0.0219,-0.10473 -0.0513,-0.20108 -0.0884,-0.28835 -0.0807,-0.18328 -0.19528,-0.33239 -0.34365,-0.44803 -0.12436,-0.0982 -0.27399,-0.16693 -0.44855,-0.20619 -0.17455,-0.0415 -0.42237,-0.0625 -0.7431,-0.0625 z m -39.86165,0.60875 c 0.23782,0 0.46273,0.0458 0.67437,0.13746 0.21383,0.0916 0.40222,0.22164 0.56586,0.38964 0.16364,0.168 0.28945,0.36018 0.37672,0.57619 0.0873,0.216 0.13074,0.44694 0.13074,0.6935 0,0.24 -0.0458,0.47054 -0.13746,0.69091 -0.0916,0.21819 -0.21928,0.41129 -0.38292,0.57929 -0.16146,0.168 -0.34801,0.29657 -0.55965,0.38603 -0.20946,0.0895 -0.43202,0.13435 -0.66766,0.13435 -0.23783,0 -0.46365,-0.0449 -0.67748,-0.13435 -0.21383,-0.0916 -0.4013,-0.22164 -0.56276,-0.38964 -0.0873,-0.0873 -0.16166,-0.17749 -0.22272,-0.27131 -0.0611,-0.0938 -0.11343,-0.19671 -0.1571,-0.30799 -0.0873,-0.21382 -0.13074,-0.44293 -0.13074,-0.68729 0,-0.12874 0.0108,-0.24839 0.0326,-0.35967 0.0218,-0.11128 0.0545,-0.22255 0.0982,-0.33383 0.0938,-0.22255 0.22054,-0.41565 0.37982,-0.57929 0.16801,-0.17237 0.3564,-0.30236 0.56586,-0.38964 0.21165,-0.0895 0.43655,-0.13436 0.67438,-0.13436 z m 40.64041,0.0589 h 0.14056 c 0.39056,0 0.65893,0.0556 0.80512,0.16691 0.14619,0.1091 0.21962,0.29381 0.21962,0.55346 0,0.24437 -0.0678,0.41456 -0.20308,0.51056 -0.13528,0.096 -0.40928,0.14366 -0.82166,0.14366 h -0.14056 z m -47.12322,0.0294 h 0.28112 0.28163 c 0.39274,0 0.68638,0.0252 0.88057,0.0755 0.19637,0.0502 0.36001,0.12965 0.49093,0.23875 0.1811,0.15491 0.3162,0.34945 0.40566,0.58291 0.0916,0.23128 0.13746,0.4973 0.13746,0.7984 0,0.30764 -0.0458,0.57694 -0.13746,0.80822 -0.0917,0.2291 -0.22675,0.42035 -0.40566,0.57309 -0.13092,0.11564 -0.2871,0.19746 -0.46819,0.24546 -0.17892,0.0458 -0.44964,0.0687 -0.81184,0.0687 h -0.65422 z m 28.24427,0.5762 0.092,0.30437 0.0884,0.23874 0.49093,1.09348 h -1.33532 l 0.49092,-1.09348 c 0.0349,-0.0807 0.0644,-0.16347 0.0884,-0.24856 0.0174,-0.048 0.0314,-0.0938 0.0424,-0.13746 0.0131,-0.0437 0.0271,-0.096 0.0424,-0.15709 z m -23.83886,4.53357 c -0.25723,0 -0.50034,0.0468 -0.72863,0.14004 -0.2283,0.0916 -0.4323,0.22525 -0.61237,0.40049 -0.17845,0.17364 -0.31448,0.37282 -0.40773,0.5979 -0.0933,0.22508 -0.13952,0.46285 -0.13952,0.71365 0,0.25081 0.0473,0.48909 0.14211,0.71417 0.0948,0.22508 0.23088,0.42426 0.40772,0.5979 0.17685,0.17202 0.37988,0.30564 0.60979,0.40049 0.23151,0.0932 0.47462,0.13953 0.72863,0.13953 0.2492,0 0.48841,-0.0473 0.71831,-0.14211 0.23151,-0.0965 0.43746,-0.23151 0.61753,-0.40515 0.18006,-0.17363 0.31655,-0.37041 0.40979,-0.59066 0.0932,-0.22187 0.14005,-0.46015 0.14005,-0.71417 0,-0.24919 -0.0482,-0.48599 -0.1447,-0.71107 -0.0948,-0.22508 -0.23231,-0.42524 -0.41237,-0.60048 -0.18007,-0.17685 -0.38408,-0.31144 -0.61237,-0.40307 -0.22669,-0.0916 -0.46543,-0.13746 -0.71624,-0.13746 z m 2.03761,0.0796 1.57509,3.66799 1.57458,-3.66799 h -0.59324 l -0.78858,1.88102 c -0.0241,0.0515 -0.0449,0.10068 -0.0625,0.14728 -0.0161,0.045 -0.033,0.0932 -0.0506,0.14469 -0.0338,0.0965 -0.0603,0.18811 -0.0796,0.27492 -0.0193,-0.082 -0.0444,-0.16978 -0.0749,-0.26303 -0.029,-0.0949 -0.0666,-0.19614 -0.11317,-0.30386 l -0.79116,-1.88102 z m 3.45353,0 v 3.53053 h 0.57413 v -1.71462 h 1.73633 v 1.71462 h 0.57412 v -3.53053 h -0.57412 v 1.30225 h -1.73633 v -1.30225 z m 3.64164,0 v 3.53053 l 0.77411,5.2e-4 h 0.15452 c 0.209,0 0.38987,-0.007 0.5426,-0.0196 0.15272,-0.0129 0.27813,-0.0312 0.3762,-0.0553 0.19936,-0.053 0.37541,-0.13843 0.52814,-0.2558 0.20579,-0.16077 0.3611,-0.36191 0.4656,-0.60306 0.1045,-0.24116 0.15658,-0.51752 0.15658,-0.82941 0,-0.31351 -0.0531,-0.59227 -0.15916,-0.83664 -0.10612,-0.24599 -0.26045,-0.44614 -0.46302,-0.60048 -0.15756,-0.12055 -0.33745,-0.20593 -0.54002,-0.2558 -0.20096,-0.0499 -0.555,-0.0749 -1.06144,-0.0749 z m -9.13278,0.44855 c 0.17525,0 0.34067,0.0338 0.49661,0.10129 0.15756,0.0675 0.29645,0.16353 0.41703,0.28732 0.12056,0.12379 0.21317,0.2651 0.27751,0.42426 0.0643,0.15916 0.0966,0.32941 0.0966,0.51108 0,0.17686 -0.0338,0.34664 -0.10128,0.50902 -0.0675,0.16077 -0.16158,0.30305 -0.28216,0.42684 -0.11897,0.12378 -0.25643,0.21881 -0.41238,0.28474 -0.15434,0.0659 -0.31832,0.0987 -0.49196,0.0987 -0.17524,0 -0.34164,-0.0328 -0.49919,-0.0987 -0.15756,-0.0675 -0.296,-0.16353 -0.41496,-0.28732 -0.0643,-0.0643 -0.11882,-0.13086 -0.16382,-0.19999 -0.045,-0.0691 -0.0836,-0.14487 -0.11575,-0.22686 -0.0643,-0.15755 -0.0966,-0.32636 -0.0966,-0.50643 0,-0.0948 0.008,-0.1831 0.0243,-0.2651 0.0161,-0.082 0.0402,-0.16398 0.0724,-0.24598 0.0691,-0.16398 0.1622,-0.30627 0.27957,-0.42685 0.12379,-0.12698 0.26269,-0.22247 0.41703,-0.2868 0.15594,-0.0659 0.32188,-0.0992 0.49712,-0.0992 z m 9.70691,0.0651 h 0.20722 0.20774 c 0.28939,0 0.50545,0.0188 0.64854,0.0558 0.14469,0.037 0.26527,0.0953 0.36173,0.1757 0.13343,0.11416 0.23327,0.25742 0.29921,0.42944 0.0675,0.17042 0.10128,0.36672 0.10128,0.58859 0,0.22669 -0.0338,0.4249 -0.10128,0.59531 -0.0675,0.16882 -0.16738,0.30966 -0.29921,0.4222 -0.0965,0.0852 -0.21124,0.14547 -0.34468,0.18087 -0.13183,0.0337 -0.33153,0.0506 -0.59841,0.0506 h -0.48214 z m -31.873511,3.40186 -0.962215,2.55954 -0.02326,0.062 c -0.08291,0.23565 -0.162379,0.48346 -0.238745,0.74311 l -0.108004,-0.33693 c -0.03491,-0.11128 -0.084,-0.25109 -0.147277,-0.4191 l -0.906405,-2.41846 h -0.769462 l 1.849499,4.97799 1.07332,-2.71973 c 0.03492,-0.0873 0.05548,-0.13963 0.06201,-0.15709 0.01745,-0.0546 0.03525,-0.10928 0.05271,-0.16382 l 0.111104,-0.36328 0.104903,0.32091 0.130741,0.34985 1.092957,2.73316 1.855701,-4.97799 h -0.775664 l -0.899686,2.4381 c -0.03055,0.0807 -0.05254,0.13966 -0.06563,0.17673 -0.024,0.0698 -0.05018,0.15072 -0.07855,0.24236 -0.03928,0.11782 -0.06873,0.22583 -0.08837,0.32401 l -0.120923,-0.38292 -0.134359,-0.37982 z m 53.111491,0 -0.96222,2.55954 -0.0227,0.062 c -0.0829,0.23565 -0.16238,0.48346 -0.23874,0.74311 l -0.10801,-0.33693 c -0.0349,-0.11128 -0.084,-0.2511 -0.14727,-0.4191 l -0.90641,-2.41846 h -0.76946 l 1.8495,4.97799 1.07332,-2.71973 c 0.0348,-0.0873 0.0553,-0.13963 0.062,-0.15709 0.0175,-0.0546 0.0352,-0.10928 0.0527,-0.16382 l 0.1111,-0.36328 0.10491,0.32091 0.13074,0.34985 1.09296,2.73316 1.8557,-4.97799 h -0.77567 l -0.89968,2.4381 c -0.0306,0.0807 -0.0526,0.13966 -0.0656,0.17673 -0.024,0.0698 -0.0502,0.15072 -0.0786,0.24236 -0.0393,0.11782 -0.0688,0.22583 -0.0884,0.32401 l -0.12144,-0.38292 -0.13384,-0.37982 z m -81.30977,0.0822 c -0.429833,0 -0.777674,0.12202 -1.043864,0.36639 -0.264008,0.24219 -0.395841,0.5573 -0.395841,0.94567 0,0.29892 0.08837,0.5542 0.2651,0.76585 0.178914,0.21164 0.530028,0.44401 1.053682,0.69711 l 0.150379,0.0724 c 0.466924,0.22255 0.700732,0.47312 0.700732,0.75241 0,0.21601 -0.06873,0.38855 -0.206189,0.51728 -0.135276,0.12873 -0.318556,0.19327 -0.549837,0.19327 -0.244371,0 -0.44545,-0.0571 -0.602547,-0.17053 -0.157093,-0.11345 -0.265098,-0.27566 -0.324012,-0.48731 l -0.621667,0.28784 c 0.08291,0.3491 0.25402,0.61747 0.513664,0.80512 0.259646,0.18764 0.593477,0.28163 1.001489,0.28163 0.486561,0 0.872758,-0.13418 1.158586,-0.40256 0.285827,-0.26836 0.428914,-0.62838 0.428914,-1.08003 0,-0.31202 -0.08929,-0.57293 -0.268201,-0.78239 -0.176732,-0.20946 -0.500746,-0.42219 -0.972033,-0.6382 l -0.09819,-0.046 c -0.541109,-0.24874 -0.811836,-0.51711 -0.811836,-0.80512 0,-0.18328 0.06126,-0.32912 0.183451,-0.43822 0.122186,-0.10909 0.289101,-0.16381 0.500745,-0.16381 0.148367,0 0.2802,0.036 0.395841,0.108 0.11564,0.0698 0.220371,0.17875 0.314193,0.32711 l 0.608748,-0.31419 c -0.09382,-0.25746 -0.259819,-0.45383 -0.497644,-0.58911 -0.237826,-0.13527 -0.532383,-0.20257 -0.883667,-0.20257 z m 100.7122,0 c -0.42983,0 -0.77767,0.12201 -1.04387,0.36639 -0.264,0.24219 -0.39635,0.5573 -0.39635,0.94567 0,0.29892 0.0884,0.5542 0.2651,0.76585 0.17891,0.21164 0.53054,0.44401 1.0542,0.69711 l 0.15037,0.0724 c 0.46693,0.22255 0.70022,0.47313 0.70022,0.75241 0,0.21601 -0.0687,0.38855 -0.20619,0.51728 -0.13527,0.12873 -0.31855,0.19327 -0.54984,0.19327 -0.24436,0 -0.44493,-0.0571 -0.60203,-0.17053 -0.15707,-0.11345 -0.26507,-0.27566 -0.32401,-0.48731 l -0.62167,0.28784 c 0.0829,0.3491 0.25402,0.61747 0.51367,0.80512 0.25964,0.18764 0.59347,0.28163 1.00149,0.28163 0.48656,0 0.87276,-0.13418 1.15858,-0.40256 0.28583,-0.26837 0.42892,-0.62839 0.42892,-1.08003 0,-0.31202 -0.0898,-0.57293 -0.26872,-0.78239 -0.17673,-0.20946 -0.50075,-0.42219 -0.97203,-0.6382 l -0.0982,-0.046 c -0.5411,-0.24874 -0.81132,-0.51711 -0.81132,-0.80512 0,-0.18328 0.0608,-0.32912 0.18294,-0.43822 0.12218,-0.10909 0.2891,-0.16381 0.50074,-0.16381 0.14837,0 0.28071,0.036 0.39636,0.108 0.11564,0.0698 0.22037,0.17875 0.31419,0.32711 l 0.60875,-0.31419 c -0.0938,-0.25746 -0.25982,-0.45383 -0.49764,-0.58911 -0.23783,-0.13528 -0.53239,-0.20257 -0.88367,-0.20257 z m -98.372291,0.108 v 4.79144 h 0.778764 v -4.79144 z m 1.845365,0 v 4.79144 h 1.050065 0.209807 c 0.283645,0 0.529109,-0.009 0.736389,-0.0264 0.20728,-0.0175 0.377469,-0.0427 0.510563,-0.0755 0.270556,-0.072 0.509474,-0.18747 0.716752,-0.34675 0.279283,-0.21819 0.489664,-0.49075 0.631486,-0.81804 0.141824,-0.32728 0.212907,-0.70274 0.212907,-1.12603 0,-0.42546 -0.072,-0.8042 -0.216007,-1.13584 -0.144004,-0.33384 -0.353467,-0.60548 -0.628386,-0.81494 -0.213824,-0.16364 -0.458371,-0.27911 -0.733288,-0.34675 -0.272738,-0.0676 -0.752928,-0.10129 -1.440223,-0.10129 z m 4.908228,0 v 4.79144 h 2.674255 v -0.69711 h -1.894975 v -1.54823 h 1.894975 v -0.6842 h -1.894975 v -1.20096 h 1.894975 v -0.66094 z m 13.053467,0 v 4.79144 h 0.77928 v -2.25206 h 1.894975 v -0.68368 h -1.894975 v -1.19476 h 1.894975 v -0.66094 z m 9.706384,0 v 4.79144 h 1.050582 0.209289 c 0.283645,0 0.52911,-0.009 0.736389,-0.0264 0.20728,-0.0175 0.37747,-0.0427 0.510564,-0.0755 0.270555,-0.072 0.509472,-0.18747 0.716752,-0.34675 0.279281,-0.21819 0.489665,-0.49075 0.631486,-0.81804 0.141824,-0.32728 0.212907,-0.70275 0.212907,-1.12603 0,-0.42547 -0.072,-0.8042 -0.216008,-1.13584 -0.144004,-0.33383 -0.353468,-0.60548 -0.628385,-0.81494 -0.213826,-0.16364 -0.458371,-0.27911 -0.733289,-0.34675 -0.272737,-0.0676 -0.75241,-0.10129 -1.439705,-0.10129 z m 43.405617,0 v 4.79144 h 0.77928 v -2.25206 h 1.89498 v -0.68368 h -1.89498 v -1.19476 h 1.89498 v -0.66094 z m 9.70639,0 v 4.79144 h 1.05058 0.20929 c 0.28364,0 0.52911,-0.009 0.73639,-0.0264 0.20728,-0.0175 0.37747,-0.0427 0.51056,-0.0755 0.27055,-0.072 0.50947,-0.18747 0.71675,-0.34675 0.27929,-0.21819 0.48967,-0.49075 0.63149,-0.81804 0.14182,-0.32728 0.21291,-0.70274 0.21291,-1.12603 0,-0.42547 -0.072,-0.8042 -0.21601,-1.13584 -0.14401,-0.33383 -0.35347,-0.60548 -0.62839,-0.81494 -0.21382,-0.16365 -0.45837,-0.27911 -0.73329,-0.34675 -0.27274,-0.0676 -0.75241,-0.10129 -1.4397,-0.10129 z m 18.08623,0 v 4.79144 h 0.77928 v -4.79144 z m 1.84537,0 v 4.79144 h 1.05058 0.20929 c 0.28364,0 0.52911,-0.009 0.73639,-0.0264 0.20728,-0.0175 0.37747,-0.0427 0.51056,-0.0755 0.27056,-0.072 0.50947,-0.18747 0.71675,-0.34675 0.27928,-0.21819 0.49019,-0.49075 0.63201,-0.81804 0.14182,-0.32728 0.21239,-0.70274 0.21239,-1.12603 0,-0.42547 -0.072,-0.8042 -0.21601,-1.13584 -0.144,-0.33383 -0.35347,-0.60548 -0.62839,-0.81494 -0.21382,-0.16365 -0.45785,-0.27911 -0.73277,-0.34675 -0.27273,-0.0676 -0.75292,-0.10129 -1.44022,-0.10129 z m 4.90874,0 v 4.79144 h 2.67374 v -0.69711 h -1.89498 v -1.54823 h 1.89498 v -0.6842 h -1.89498 v -1.20096 h 1.89498 v -0.66094 z m -104.841662,0.69712 h 0.28112 0.281636 c 0.392741,0 0.686379,0.0252 0.880567,0.0755 0.19637,0.0502 0.360012,0.12964 0.490926,0.23874 0.181096,0.15491 0.316203,0.34893 0.40566,0.58239 0.09164,0.23128 0.137459,0.49731 0.137459,0.79841 0,0.30764 -0.04582,0.57745 -0.137459,0.80873 -0.09164,0.2291 -0.226746,0.41984 -0.40566,0.57258 -0.130914,0.11564 -0.287092,0.19746 -0.468189,0.24546 -0.178915,0.0458 -0.449643,0.0687 -0.811836,0.0687 h -0.654224 z m 27.668079,0 h 0.281636 0.28112 c 0.39274,0 0.686378,0.0252 0.880566,0.0755 0.19637,0.0502 0.360013,0.12965 0.490927,0.23874 0.181096,0.15491 0.316202,0.34893 0.40566,0.58239 0.09164,0.23128 0.137459,0.49782 0.137459,0.79892 0,0.30765 -0.04582,0.57694 -0.137459,0.80822 -0.09164,0.2291 -0.226746,0.41984 -0.40566,0.57258 -0.130914,0.11564 -0.287092,0.19746 -0.468189,0.24546 -0.178914,0.0458 -0.449127,0.0687 -0.81132,0.0687 h -0.65474 z m 53.112003,0 h 0.28164 0.28112 c 0.39274,0 0.68638,0.0252 0.88056,0.0755 0.19638,0.0502 0.36002,0.12965 0.49093,0.23874 0.1811,0.15492 0.31621,0.34893 0.40566,0.58239 0.0916,0.23128 0.13746,0.49782 0.13746,0.79892 0,0.30765 -0.0458,0.57694 -0.13746,0.80822 -0.0916,0.2291 -0.22675,0.41984 -0.40566,0.57258 -0.13091,0.11564 -0.28709,0.19746 -0.46819,0.24546 -0.17891,0.0458 -0.44913,0.0687 -0.81132,0.0687 h -0.65474 z m 19.9316,0 h 0.28164 0.28163 c 0.39274,0 0.68587,0.0252 0.88005,0.0755 0.19637,0.0502 0.36002,0.12965 0.49093,0.23874 0.1811,0.15492 0.31672,0.34893 0.40618,0.58239 0.0916,0.23128 0.13746,0.49782 0.13746,0.79892 0,0.30765 -0.0458,0.57694 -0.13746,0.80822 -0.0916,0.2291 -0.22726,0.41984 -0.40618,0.57258 -0.13091,0.11564 -0.28658,0.19746 -0.46767,0.24546 -0.17892,0.0458 -0.44965,0.0687 -0.81184,0.0687 h -0.65474 z m -91.496224,5.25963 c -0.257235,0 -0.500343,0.0468 -0.728637,0.14004 -0.228297,0.0916 -0.432304,0.22524 -0.612366,0.40049 -0.178457,0.17363 -0.314479,0.37282 -0.407727,0.5979 -0.09325,0.22507 -0.139527,0.46284 -0.139527,0.71365 0,0.25081 0.04726,0.48909 0.142111,0.71417 0.09485,0.22508 0.23088,0.42427 0.407727,0.59789 0.176849,0.17203 0.379878,0.30564 0.609782,0.4005 0.23151,0.0932 0.474618,0.13952 0.728637,0.13952 0.249195,0 0.4884,-0.0472 0.718303,-0.14211 0.23151,-0.0965 0.437469,-0.23151 0.617533,-0.40514 0.180063,-0.17363 0.316546,-0.3704 0.409794,-0.59066 0.09325,-0.22186 0.140043,-0.46015 0.140043,-0.71417 0,-0.24919 -0.04823,-0.48599 -0.144694,-0.71107 -0.09485,-0.22508 -0.232312,-0.42524 -0.412378,-0.60048 -0.180062,-0.17685 -0.384069,-0.31144 -0.612365,-0.40308 -0.226688,-0.0916 -0.465434,-0.13745 -0.716236,-0.13745 z m 76.911584,0 c -0.25724,0 -0.49983,0.0468 -0.72812,0.14004 -0.22829,0.0916 -0.4323,0.22524 -0.61237,0.40049 -0.17845,0.17363 -0.31448,0.37282 -0.40772,0.5979 -0.0932,0.22507 -0.14005,0.46284 -0.14005,0.71365 0,0.25081 0.0478,0.48909 0.14263,0.71417 0.0949,0.22508 0.23036,0.42427 0.40721,0.59789 0.17685,0.17203 0.3804,0.30564 0.6103,0.4005 0.23151,0.0932 0.4741,0.13952 0.72812,0.13952 0.24919,0 0.48891,-0.0472 0.71882,-0.14211 0.23151,-0.0965 0.43747,-0.23151 0.61753,-0.40514 0.18006,-0.17363 0.31655,-0.3704 0.4098,-0.59066 0.0932,-0.22186 0.14004,-0.46015 0.14004,-0.71417 0,-0.24919 -0.0482,-0.48599 -0.14469,-0.71107 -0.0949,-0.22508 -0.23231,-0.42524 -0.41238,-0.60048 -0.18006,-0.17685 -0.38458,-0.31144 -0.61288,-0.40308 -0.22669,-0.0916 -0.46544,-0.13745 -0.71624,-0.13745 z m -74.420263,0.0796 v 3.53053 h 0.573608 v -1.65881 h 1.396298 v -0.50436 h -1.396298 v -0.88005 h 1.396298 v -0.48731 z m 2.53938,0 v 3.53053 h 0.574125 v -1.65881 h 1.396297 v -0.50436 h -1.396297 v -0.88005 h 1.396297 v -0.48731 z m 74.372203,0 v 3.53053 h 0.57413 v -1.65881 h 1.39629 v -0.50436 h -1.39629 v -0.88005 h 1.39629 v -0.48731 z m 2.5399,0 v 3.53053 h 0.57361 v -1.65881 h 1.39629 v -0.50436 h -1.39629 v -0.88005 h 1.39629 v -0.48731 z m -81.942804,0.44855 c 0.175241,0 0.340664,0.0338 0.496611,0.10128 0.157557,0.0675 0.296451,0.16353 0.417029,0.28733 0.12058,0.12379 0.213195,0.26509 0.277502,0.42426 0.06431,0.15916 0.09663,0.32941 0.09663,0.51108 0,0.17685 -0.03376,0.34663 -0.101286,0.50901 -0.06752,0.16077 -0.161573,0.30306 -0.282153,0.42685 -0.118971,0.12378 -0.256431,0.2188 -0.412378,0.28474 -0.154342,0.0659 -0.318328,0.0987 -0.49196,0.0987 -0.17524,0 -0.341636,-0.0328 -0.499194,-0.0987 -0.157556,-0.0675 -0.295991,-0.16353 -0.414962,-0.28732 -0.06431,-0.0643 -0.118801,-0.13086 -0.163814,-0.19999 -0.04502,-0.0691 -0.0836,-0.14487 -0.115755,-0.22686 -0.06431,-0.15756 -0.09664,-0.32636 -0.09664,-0.50643 0,-0.0948 0.0082,-0.18311 0.02429,-0.2651 0.01608,-0.082 0.04019,-0.16399 0.07235,-0.24598 0.06913,-0.16399 0.162207,-0.30627 0.279569,-0.42685 0.123795,-0.12699 0.262688,-0.22247 0.417029,-0.2868 0.155949,-0.0659 0.321887,-0.0992 0.497127,-0.0992 z m 76.911584,0 c 0.17524,0 0.34118,0.0338 0.49713,0.10128 0.15756,0.0675 0.29645,0.16353 0.41703,0.28733 0.12055,0.12379 0.21317,0.26509 0.2775,0.42426 0.0643,0.15916 0.0961,0.32941 0.0961,0.51108 0,0.17685 -0.0338,0.34663 -0.10129,0.50901 -0.0675,0.16077 -0.16158,0.30306 -0.28215,0.42685 -0.11897,0.12378 -0.25643,0.2188 -0.41238,0.28474 -0.15434,0.0659 -0.31833,0.0987 -0.49196,0.0987 -0.17524,0 -0.34163,-0.0328 -0.49919,-0.0987 -0.15756,-0.0675 -0.29548,-0.16353 -0.41445,-0.28732 -0.0643,-0.0643 -0.11933,-0.13086 -0.16433,-0.19999 -0.045,-0.0691 -0.0836,-0.14487 -0.11575,-0.22686 -0.0643,-0.15756 -0.0961,-0.32636 -0.0961,-0.50643 0,-0.0948 0.008,-0.18311 0.0238,-0.2651 0.0161,-0.082 0.0402,-0.16399 0.0724,-0.24598 0.0691,-0.16399 0.16272,-0.30627 0.28008,-0.42685 0.12379,-0.12699 0.26269,-0.22247 0.41703,-0.2868 0.15595,-0.0659 0.32137,-0.0992 0.49661,-0.0992 z m -73.83787,15.62178 v 3.67006 h 0.528134 v -2.45463 c 0.04984,0.0707 0.10335,0.13971 0.16123,0.20723 0.04823,0.0547 0.07815,0.0879 0.0894,0.0992 0.02573,0.0273 0.05564,0.0568 0.0894,0.0889 l 2.288232,2.19676 v -3.66799 h -0.5302 v 2.44791 c -0.07074,-0.09 -0.136828,-0.16816 -0.197921,-0.23409 l -0.185518,-0.19534 z m 32.36133,0 -0.709,1.88568 -0.0165,0.046 c -0.0611,0.17363 -0.11995,0.35594 -0.17622,0.54725 l -0.0796,-0.24856 c -0.0258,-0.082 -0.0619,-0.18472 -0.10852,-0.30851 l -0.66818,-1.78232 h -0.56689 l 1.36271,3.66851 0.79116,-2.00401 c 0.0259,-0.0643 0.0408,-0.10289 0.0455,-0.11576 0.0129,-0.0402 0.0259,-0.0807 0.0388,-0.12092 l 0.0822,-0.26768 0.077,0.23667 0.0966,0.25787 0.80512,2.01383 1.36736,-3.66799 h -0.57102 l -0.66353,1.79627 c -0.0225,0.0595 -0.0384,0.10289 -0.0481,0.13022 -0.0177,0.0514 -0.0369,0.11128 -0.0579,0.17881 -0.0289,0.0868 -0.0507,0.16639 -0.0651,0.23874 l -0.0894,-0.28215 -0.0987,-0.28009 z m 44.55025,0 v 3.67006 h 0.52865 v -2.45463 c 0.0499,0.0707 0.10337,0.13971 0.16124,0.20723 0.0482,0.0547 0.0781,0.0879 0.0894,0.0992 0.0257,0.0273 0.0557,0.0568 0.0894,0.0889 l 2.28823,2.19676 v -3.66799 h -0.5302 v 2.44791 c -0.0708,-0.09 -0.13686,-0.16816 -0.19792,-0.23409 l -0.18604,-0.19534 z m -79.4029,0.0599 c -0.257233,0 -0.500342,0.0468 -0.728638,0.14004 -0.228294,0.0916 -0.432303,0.22525 -0.612366,0.40049 -0.178456,0.17364 -0.314479,0.37282 -0.407727,0.5979 -0.09325,0.22508 -0.139526,0.46285 -0.139526,0.71365 0,0.25081 0.04726,0.48909 0.14211,0.71417 0.09485,0.22508 0.230878,0.42426 0.407727,0.5979 0.176849,0.17202 0.37988,0.30564 0.609782,0.40049 0.231512,0.0932 0.47462,0.13953 0.728638,0.13953 0.249196,0 0.4884,-0.0473 0.718302,-0.14211 0.231512,-0.0965 0.437471,-0.23151 0.617533,-0.40515 0.180066,-0.17363 0.316549,-0.37041 0.409795,-0.59066 0.09325,-0.22187 0.140043,-0.46015 0.140043,-0.71417 0,-0.24919 -0.04823,-0.48599 -0.144694,-0.71107 -0.09486,-0.22508 -0.232316,-0.42524 -0.412378,-0.60048 -0.180065,-0.17685 -0.384072,-0.31144 -0.612366,-0.40307 -0.226688,-0.0916 -0.465432,-0.13746 -0.716235,-0.13746 z m 47.67564,0 c -0.31672,0 -0.5728,0.0902 -0.76894,0.27027 -0.19454,0.17846 -0.29197,0.41094 -0.29197,0.69711 0,0.22025 0.0651,0.40836 0.19533,0.56431 0.13184,0.15595 0.39085,0.32717 0.7767,0.51366 l 0.11059,0.0527 c 0.34405,0.16399 0.51624,0.34921 0.51624,0.55501 0,0.15916 -0.0506,0.286 -0.15192,0.38085 -0.0997,0.0949 -0.23473,0.14211 -0.40515,0.14211 -0.18006,0 -0.32815,-0.0415 -0.4439,-0.12505 -0.11576,-0.0836 -0.19534,-0.20373 -0.23874,-0.35967 l -0.45786,0.21239 c 0.0611,0.25723 0.18696,0.45498 0.37827,0.59324 0.19132,0.13826 0.4373,0.20723 0.73794,0.20723 0.35852,0 0.64309,-0.0989 0.8537,-0.29663 0.21061,-0.19775 0.31626,-0.46302 0.31626,-0.79581 0,-0.22991 -0.0661,-0.42186 -0.19792,-0.5762 -0.13023,-0.15434 -0.36897,-0.31109 -0.71624,-0.47025 l -0.0723,-0.0336 c -0.39872,-0.18327 -0.5979,-0.38103 -0.5979,-0.59325 0,-0.13504 0.0448,-0.24311 0.13487,-0.32349 0.09,-0.0804 0.21303,-0.12041 0.36897,-0.12041 0.10933,0 0.20677,0.0265 0.29198,0.0796 0.0852,0.0514 0.16237,0.13201 0.23151,0.24133 l 0.44855,-0.23151 c -0.0691,-0.18971 -0.19166,-0.3344 -0.3669,-0.43408 -0.17524,-0.0997 -0.39229,-0.14986 -0.65113,-0.14986 z m 29.23646,0 c -0.25723,0 -0.50034,0.0468 -0.72864,0.14004 -0.22829,0.0916 -0.4323,0.22525 -0.61236,0.40049 -0.17846,0.17364 -0.31448,0.37282 -0.40773,0.5979 -0.0932,0.22508 -0.13953,0.46285 -0.13953,0.71365 0,0.25081 0.0473,0.48909 0.14211,0.71417 0.0949,0.22508 0.23088,0.42426 0.40773,0.5979 0.17685,0.17202 0.37988,0.30564 0.60978,0.40049 0.23152,0.0932 0.47462,0.13953 0.72864,0.13953 0.24919,0 0.4884,-0.0473 0.7183,-0.14211 0.23152,-0.0965 0.43748,-0.23151 0.61754,-0.40515 0.18006,-0.17363 0.31654,-0.37041 0.40979,-0.59066 0.0933,-0.22187 0.14004,-0.46015 0.14004,-0.71417 0,-0.24919 -0.0482,-0.48599 -0.14469,-0.71107 -0.0949,-0.22508 -0.23232,-0.42524 -0.41238,-0.60048 -0.18006,-0.17685 -0.38407,-0.31144 -0.61236,-0.40307 -0.2267,-0.0916 -0.46544,-0.13746 -0.71624,-0.13746 z m -46.54031,0.0796 v 3.53053 h 0.53795 v -1.5844 h 0.21704 0.11317 c 0.25402,0 0.44309,-0.0135 0.56689,-0.0408 0.1238,-0.029 0.22991,-0.0748 0.31833,-0.13746 0.1109,-0.082 0.19772,-0.1939 0.26045,-0.33538 0.0627,-0.14148 0.094,-0.29484 0.094,-0.46044 0,-0.1672 -0.0314,-0.3201 -0.094,-0.45837 -0.0627,-0.13986 -0.14952,-0.2508 -0.26045,-0.33279 -0.0916,-0.0659 -0.19872,-0.1122 -0.32091,-0.13953 -0.12219,-0.0273 -0.31029,-0.0413 -0.56431,-0.0413 z m 7.16029,0 v 3.53053 h 0.53795 v -1.57923 h 0.0651 l 1.17409,1.57923 h 0.64905 l -1.21543,-1.6061 c 0.2701,-0.0338 0.47267,-0.13022 0.60772,-0.28939 0.13505,-0.15916 0.20257,-0.38005 0.20257,-0.66301 0,-0.0788 -0.008,-0.15595 -0.0243,-0.23151 -0.0161,-0.0771 -0.0378,-0.14805 -0.0651,-0.21239 -0.0595,-0.13504 -0.14389,-0.245 -0.25321,-0.33021 -0.0916,-0.0724 -0.2016,-0.12299 -0.33022,-0.15193 -0.12862,-0.0305 -0.31143,-0.046 -0.54777,-0.046 z m 3.77909,0 v 0.48731 h 0.93845 v 3.04322 h 0.57361 v -3.04322 h 0.93327 v -0.48731 z m 2.83135,0 v 3.53053 h 1.97043 v -0.51366 h -1.3963 v -1.1405 h 1.3963 v -0.50384 h -1.3963 v -0.88522 h 1.3963 v -0.48731 z m 4.86224,0 v 0.48731 h 0.93793 v 3.04322 h 0.57412 v -3.04322 h 0.93328 v -0.48731 z m -49.00476,0.44855 c 0.175239,0 0.340661,0.0338 0.49661,0.10129 0.157556,0.0675 0.29645,0.16353 0.417029,0.28732 0.120581,0.12379 0.213196,0.2651 0.277502,0.42426 0.06431,0.15917 0.09664,0.32942 0.09664,0.51108 v 5.2e-4 c 0,0.17685 -0.03376,0.34612 -0.101285,0.50849 -0.06753,0.16078 -0.161577,0.30306 -0.282154,0.42685 -0.11897,0.12378 -0.256429,0.21881 -0.412378,0.28474 -0.15434,0.0659 -0.318325,0.0987 -0.491959,0.0987 -0.175241,0 -0.341639,-0.0328 -0.499195,-0.0987 -0.157556,-0.0675 -0.295991,-0.16301 -0.414961,-0.2868 -0.06431,-0.0643 -0.118801,-0.13138 -0.163815,-0.20051 -0.04502,-0.0691 -0.0836,-0.14435 -0.115755,-0.22634 -0.06431,-0.15756 -0.09663,-0.32636 -0.09663,-0.50643 0,-0.0949 0.0082,-0.18362 0.02429,-0.26562 0.01608,-0.082 0.04019,-0.16398 0.07235,-0.24598 0.06913,-0.16398 0.162206,-0.30627 0.27957,-0.42685 0.123793,-0.12698 0.262687,-0.22247 0.417028,-0.2868 0.155948,-0.0659 0.321887,-0.0992 0.497128,-0.0992 z m 76.91158,0 c 0.17524,0 0.34118,0.0338 0.49713,0.10129 0.15756,0.0675 0.29645,0.16353 0.41703,0.28732 0.12055,0.12379 0.21317,0.2651 0.2775,0.42426 0.0643,0.15917 0.0966,0.32942 0.0966,0.51108 v 5.2e-4 c 0,0.17685 -0.0338,0.34612 -0.10129,0.50849 -0.0675,0.16078 -0.16158,0.30306 -0.28215,0.42685 -0.11897,0.12378 -0.25643,0.21881 -0.41238,0.28474 -0.15434,0.0659 -0.31833,0.0987 -0.49196,0.0987 -0.17525,0 -0.34164,-0.0328 -0.49919,-0.0987 -0.15756,-0.0675 -0.29599,-0.16301 -0.41497,-0.2868 -0.0643,-0.0643 -0.11881,-0.13138 -0.16381,-0.20051 -0.045,-0.0691 -0.0836,-0.14435 -0.11575,-0.22634 -0.0643,-0.15756 -0.0966,-0.32636 -0.0966,-0.50643 0,-0.0949 0.008,-0.18362 0.0243,-0.26562 0.0161,-0.082 0.0397,-0.16398 0.0718,-0.24598 0.0691,-0.16398 0.16272,-0.30627 0.28008,-0.42685 0.1238,-0.12698 0.26269,-0.22247 0.41703,-0.2868 0.15595,-0.0659 0.32137,-0.0992 0.49661,-0.0992 z m -45.96567,0.0434 h 0.14728 c 0.30547,0 0.5143,0.0386 0.62684,0.11576 0.11254,0.0756 0.16898,0.2082 0.16898,0.3979 0,0.17686 -0.0531,0.29985 -0.15916,0.36897 -0.10451,0.0675 -0.31672,0.10129 -0.63666,0.10129 h -0.14728 z m 7.16029,0 h 0.10335 c 0.28779,0 0.48554,0.041 0.59325,0.12299 0.10771,0.0804 0.16175,0.21641 0.16175,0.40773 0,0.18006 -0.0497,0.30546 -0.14935,0.3762 -0.0997,0.0707 -0.30179,0.10594 -0.60565,0.10594 h -0.10335 z m -23.963394,4.49792 v 1.19992 h 53.112004 v -1.19992 z m 26.398904,2.39262 c -0.3491,0 -0.67874,0.0636 -0.98857,0.19016 -0.30983,0.12437 -0.58659,0.3053 -0.83096,0.54312 -0.24219,0.23565 -0.4269,0.50637 -0.55345,0.81184 -0.12655,0.30546 -0.18965,0.62804 -0.18965,0.96842 0,0.34037 0.0645,0.66346 0.19327,0.96893 0.12873,0.30546 0.31293,0.57619 0.55293,0.81184 0.24001,0.23346 0.51585,0.41438 0.82786,0.54312 0.31419,0.12654 0.64384,0.18965 0.98857,0.18965 0.33819,0 0.66312,-0.064 0.97514,-0.19275 0.31419,-0.13092 0.59381,-0.3142 0.83819,-0.54984 0.24436,-0.23564 0.42948,-0.5031 0.55604,-0.80202 0.12654,-0.3011 0.19016,-0.62419 0.19016,-0.96893 0,-0.3382 -0.0654,-0.65985 -0.19637,-0.96532 -0.12873,-0.30546 -0.31528,-0.57711 -0.55965,-0.81494 -0.24437,-0.24 -0.52165,-0.42237 -0.83148,-0.54673 -0.30764,-0.12437 -0.63165,-0.18655 -0.97203,-0.18655 z m -9.56892,0.108 v 4.79144 h 0.73018 v -2.15026 h 0.29456 0.15348 c 0.34474,0 0.60145,-0.0182 0.76946,-0.0553 0.16801,-0.0393 0.31202,-0.10146 0.43202,-0.18655 0.15055,-0.11128 0.26837,-0.26327 0.35346,-0.45527 0.0851,-0.19201 0.12764,-0.40004 0.12764,-0.62477 0,-0.22692 -0.0425,-0.43455 -0.12764,-0.62219 -0.0851,-0.18982 -0.20291,-0.34037 -0.35346,-0.45165 -0.12437,-0.0895 -0.26982,-0.15258 -0.43564,-0.18965 -0.16582,-0.0371 -0.4211,-0.0558 -0.76584,-0.0558 z m 3.51451,0 v 4.79144 h 0.73019 v -2.14354 h 0.0884 l 1.59371,2.14354 h 0.88056 l -1.64951,-2.17971 c 0.36656,-0.0458 0.64148,-0.17674 0.82476,-0.39274 0.18327,-0.21602 0.27492,-0.51569 0.27492,-0.89969 0,-0.10691 -0.0113,-0.21164 -0.0331,-0.31419 -0.0219,-0.10473 -0.0513,-0.20108 -0.0884,-0.28836 -0.0807,-0.18327 -0.19528,-0.33239 -0.34365,-0.44803 -0.12437,-0.0982 -0.27348,-0.16693 -0.44804,-0.20619 -0.17454,-0.0415 -0.42236,-0.0625 -0.7431,-0.0625 z m 9.4542,0 v 4.79144 l 1.2144,5.1e-4 c 0.45165,0 0.77658,-0.0285 0.97513,-0.0853 0.19855,-0.0567 0.36128,-0.14837 0.48783,-0.27492 0.12872,-0.12655 0.22599,-0.27618 0.29145,-0.44855 0.0676,-0.17455 0.10129,-0.35875 0.10129,-0.55294 0,-0.31855 -0.0809,-0.58365 -0.24236,-0.7953 -0.15928,-0.21381 -0.37856,-0.34146 -0.65784,-0.38292 0.22473,-0.0676 0.39635,-0.18782 0.51418,-0.36019 0.11782,-0.17237 0.17673,-0.38511 0.17673,-0.6382 0,-0.21165 -0.0416,-0.40566 -0.12454,-0.58239 -0.0807,-0.17892 -0.19528,-0.32293 -0.34365,-0.43202 -0.11346,-0.0851 -0.25419,-0.14638 -0.42219,-0.18345 -0.0829,-0.0197 -0.18764,-0.0336 -0.3142,-0.0424 -0.12654,-0.009 -0.27618,-0.0134 -0.44855,-0.0134 z m 3.80907,0 v 4.79144 h 2.67374 v -0.69712 h -1.89497 v -1.54771 h 1.89497 v -0.68419 h -1.89497 v -1.20096 h 1.89497 v -0.66146 z m -7.20886,0.60875 c 0.23783,0 0.46273,0.0458 0.67438,0.13746 0.21382,0.0916 0.40222,0.22163 0.56586,0.38964 0.16364,0.168 0.28944,0.36018 0.37672,0.57619 0.0873,0.21601 0.13074,0.44694 0.13074,0.6935 0,0.24 -0.0458,0.47054 -0.13746,0.69091 -0.0916,0.21819 -0.21928,0.41129 -0.38292,0.57929 -0.16146,0.16801 -0.34801,0.29657 -0.55966,0.38603 -0.20946,0.0895 -0.43201,0.13436 -0.66766,0.13436 -0.23783,0 -0.46366,-0.0449 -0.67748,-0.13436 -0.21382,-0.0916 -0.40129,-0.22164 -0.56275,-0.38964 -0.0873,-0.0873 -0.16166,-0.17748 -0.22273,-0.2713 -0.0611,-0.0938 -0.11343,-0.19672 -0.1571,-0.308 -0.0873,-0.21382 -0.13074,-0.44293 -0.13074,-0.68729 0,-0.12874 0.0108,-0.2484 0.0326,-0.35967 0.0218,-0.11128 0.0545,-0.22256 0.0982,-0.33383 0.0938,-0.22255 0.22055,-0.41565 0.37983,-0.57929 0.168,-0.17237 0.35639,-0.30237 0.56585,-0.38964 0.21164,-0.0895 0.43655,-0.13436 0.67438,-0.13436 z m 4.16254,0.0393 h 0.29765 c 0.39274,0 0.6602,0.0524 0.80202,0.1571 0.14401,0.10473 0.21601,0.28945 0.21601,0.55345 0,0.24001 -0.0776,0.41112 -0.23254,0.51367 -0.15274,0.10036 -0.41457,0.15037 -0.78549,0.15037 h -0.29765 z m -12.95218,0.0196 h 0.19947 c 0.41456,0 0.69838,0.0524 0.85111,0.1571 0.15273,0.10254 0.22893,0.28255 0.22893,0.54001 0,0.24001 -0.072,0.40693 -0.21601,0.50075 -0.14183,0.0916 -0.42984,0.13746 -0.86403,0.13746 h -0.19947 z m 3.51451,0 h 0.14056 c 0.39055,0 0.65893,0.0556 0.80512,0.16691 0.14619,0.1091 0.21911,0.29381 0.21911,0.55346 0,0.24436 -0.0673,0.41455 -0.20257,0.51056 -0.13528,0.096 -0.40929,0.14366 -0.82166,0.14366 h -0.14056 z m 9.43767,1.94407 h 0.2682 0.23564 c 0.0895,0 0.16289,0.002 0.21963,0.007 0.0589,0.004 0.11129,0.0109 0.15709,0.0196 0.10256,0.0196 0.18765,0.0472 0.25529,0.0822 0.11783,0.0633 0.20803,0.15164 0.2713,0.2651 0.0633,0.11346 0.0951,0.24621 0.0951,0.39894 0,0.13091 -0.0271,0.24966 -0.0816,0.35657 -0.0545,0.10694 -0.12798,0.19111 -0.21962,0.25218 -0.0786,0.0567 -0.1842,0.096 -0.3173,0.11782 -0.1331,0.0196 -0.33836,0.0295 -0.61546,0.0295 h -0.2682 z m -9.13278,8.61807 -1.70997,3.67006 h 0.60306 l 0.4098,-0.90898 h 1.39888 l 0.40049,0.90898 h 0.60513 z m 9.80354,0.06 c -0.25724,0 -0.49983,0.0468 -0.72812,0.14004 -0.2283,0.0916 -0.43282,0.22526 -0.61289,0.40049 -0.17845,0.17364 -0.31396,0.37282 -0.40721,0.5979 -0.0932,0.22508 -0.14004,0.46285 -0.14004,0.71365 0,0.2508 0.0473,0.48909 0.14211,0.71417 0.0949,0.22508 0.23088,0.42426 0.40773,0.5979 0.17685,0.17202 0.3804,0.30564 0.6103,0.40049 0.23151,0.0933 0.4741,0.13953 0.72812,0.13953 0.2492,0 0.48892,-0.0473 0.71882,-0.14211 0.23151,-0.0965 0.43695,-0.23151 0.61701,-0.40515 0.18007,-0.17363 0.31707,-0.3704 0.41031,-0.59066 0.0932,-0.22186 0.13953,-0.46015 0.13953,-0.71417 0,-0.24919 -0.0482,-0.48598 -0.14469,-0.71106 -0.0949,-0.22508 -0.23231,-0.42525 -0.41238,-0.60049 -0.18007,-0.17684 -0.38407,-0.31143 -0.61237,-0.40307 -0.22668,-0.0916 -0.46543,-0.13746 -0.71623,-0.13746 z m -7.83053,0.0796 v 2.19728 c 0,0.4791 0.1196,0.83647 0.35915,1.07281 0.24116,0.23633 0.60387,0.3545 1.08779,0.3545 0.48552,0 0.84869,-0.11863 1.08985,-0.35657 0.24116,-0.23794 0.36174,-0.59485 0.36174,-1.07074 v -2.19728 h -0.57413 v 2.14406 c 0,0.31832 -0.0748,0.55804 -0.22427,0.71882 -0.14791,0.15916 -0.36541,0.23874 -0.65319,0.23874 -0.29261,0 -0.51304,-0.0796 -0.66094,-0.23874 -0.1463,-0.16078 -0.21963,-0.4005 -0.21963,-0.71882 v -2.14406 z m 3.26543,0 v 0.48731 h 0.93793 v 3.04322 h 0.57412 v -3.04322 h 0.93328 v -0.48731 z m 4.5651,0.44855 c 0.17524,0 0.34066,0.0338 0.49661,0.10129 0.15755,0.0675 0.29696,0.16353 0.41754,0.28732 0.12056,0.12379 0.21266,0.2651 0.27699,0.42426 0.0643,0.15916 0.0966,0.32941 0.0966,0.51108 0,0.17685 -0.0337,0.34664 -0.10128,0.50902 -0.0675,0.16077 -0.16158,0.30305 -0.28215,0.42684 -0.11898,0.12378 -0.25644,0.21881 -0.41238,0.28474 -0.15434,0.0659 -0.31833,0.0987 -0.49196,0.0987 -0.17524,0 -0.34164,-0.0328 -0.4992,-0.0987 -0.15755,-0.0675 -0.29599,-0.16353 -0.41496,-0.28732 -0.0643,-0.0643 -0.11881,-0.13086 -0.16381,-0.19999 -0.045,-0.0691 -0.0836,-0.14486 -0.11576,-0.22686 -0.0643,-0.15755 -0.0966,-0.32636 -0.0966,-0.50643 0,-0.0949 0.008,-0.1831 0.0243,-0.2651 0.0161,-0.082 0.0402,-0.16398 0.0723,-0.24598 0.0691,-0.16398 0.16221,-0.30626 0.27957,-0.42684 0.12379,-0.12699 0.26321,-0.22248 0.41755,-0.28681 0.15594,-0.0659 0.32137,-0.0992 0.49661,-0.0992 z m -9.79889,0.4899 0.0677,0.22427 0.0651,0.1757 0.36174,0.80564 H 105.376 l 0.36173,-0.80564 c 0.0257,-0.0594 0.0474,-0.1202 0.0651,-0.18293 0.0128,-0.0354 0.0235,-0.0692 0.0315,-0.10129 0.01,-0.0322 0.0197,-0.0708 0.031,-0.11575 z m 5.68338,16.1401 v 3.67057 h 0.52813 v -2.45515 c 0.0498,0.0707 0.10388,0.1397 0.16175,0.20723 0.0482,0.0547 0.0776,0.0879 0.0889,0.0992 0.0257,0.0273 0.0556,0.0567 0.0894,0.0889 l 2.28875,2.19728 v -3.66799 h -0.53072 v 2.44739 c -0.0708,-0.09 -0.13685,-0.16764 -0.19792,-0.23357 l -0.18552,-0.19534 z m -2.49132,0.0605 c -0.25724,0 -0.49983,0.0463 -0.72812,0.13952 -0.2283,0.0916 -0.43283,0.22525 -0.61289,0.4005 -0.17846,0.17363 -0.31396,0.37281 -0.40721,0.59789 -0.0932,0.22507 -0.14004,0.46336 -0.14004,0.71417 0,0.25081 0.0473,0.48858 0.14211,0.71365 0.0949,0.22509 0.23087,0.42427 0.40773,0.5979 0.17684,0.17202 0.3804,0.30563 0.6103,0.40049 0.23151,0.0932 0.4741,0.14004 0.72812,0.14004 0.24919,0 0.48891,-0.0478 0.71882,-0.14262 0.2315,-0.0965 0.43695,-0.23151 0.61701,-0.40515 0.18007,-0.17363 0.31707,-0.3704 0.41031,-0.59066 0.0933,-0.22186 0.13953,-0.45963 0.13953,-0.71365 0,-0.24919 -0.0482,-0.4865 -0.1447,-0.71158 -0.0948,-0.22508 -0.23231,-0.42524 -0.41237,-0.60048 -0.18007,-0.17686 -0.38408,-0.31092 -0.61237,-0.40256 -0.22669,-0.0916 -0.46543,-0.13746 -0.71623,-0.13746 z m -0.0326,0.52813 c 0.0109,-2.6e-4 0.0216,0 0.0326,0 0.17524,0 0.34066,0.0338 0.49661,0.10129 0.15756,0.0675 0.29696,0.16301 0.41754,0.2868 0.12056,0.12379 0.21265,0.2651 0.27699,0.42426 0.0643,0.15916 0.0966,0.32993 0.0966,0.5116 0,0.17685 -0.0338,0.34612 -0.10128,0.5085 -0.0675,0.16077 -0.16158,0.30305 -0.28216,0.42684 -0.11897,0.12378 -0.25643,0.21881 -0.41237,0.28474 -0.15434,0.0659 -0.31833,0.0987 -0.49196,0.0987 -0.17525,0 -0.34165,-0.0328 -0.4992,-0.0987 -0.15755,-0.0675 -0.29599,-0.16301 -0.41496,-0.2868 -0.0643,-0.0643 -0.11881,-0.13137 -0.16381,-0.20051 -0.045,-0.0691 -0.0836,-0.14435 -0.11576,-0.22634 -0.0643,-0.15755 -0.0966,-0.32636 -0.0966,-0.50643 0,-0.0949 0.008,-0.18362 0.0243,-0.26562 0.0161,-0.082 0.0402,-0.16398 0.0724,-0.24598 0.0691,-0.16398 0.16221,-0.30626 0.27957,-0.42684 0.12379,-0.12699 0.2632,-0.22247 0.41755,-0.28681 0.1462,-0.0618 0.30089,-0.0948 0.46405,-0.0987 z m 4.54856,8.75347 -2.32027,4.98161 h 0.81804 l 0.55655,-1.23403 h 1.89808 l 0.54363,1.23403 h 0.82114 z m -10.1446,0.19017 v 4.79144 h 0.77876 v -2.32699 h 2.35645 v 2.32699 h 0.77928 v -4.79144 H 106.564 v 1.76733 h -2.35645 v -1.76733 z m 4.96094,0 v 4.79144 h 2.67425 v -0.69712 h -1.89497 v -1.54822 h 1.89497 v -0.6842 h -1.89497 v -1.20096 h 1.89497 v -0.66094 z m 7.39593,0 v 0.66094 h 1.27279 v 4.1305 h 0.77928 v -4.1305 h 1.26659 v -0.66094 z m -2.20555,1.27279 0.0915,0.30437 0.0884,0.23927 0.49093,1.09295 h -1.33532 l 0.49092,-1.09295 c 0.0349,-0.0807 0.0644,-0.16399 0.0884,-0.24908 0.0175,-0.048 0.032,-0.0939 0.0429,-0.13746 0.0131,-0.0437 0.0271,-0.096 0.0424,-0.1571 z m -2.65617,10.05003 v 0.66353 h -0.63769 v 0.16898 h 0.63769 v 0.66921 h 0.18087 v -0.66921 h 0.63768 v -0.16898 h -0.63768 v -0.66353 z"
       inkscape:label="TXT" /></g></svg>
