<?xml version="1.0" encoding="UTF-8" standalone="no"?>
<!-- Created with Inkscape (http://www.inkscape.org/) -->

<svg
   width="210mm"
   height="297mm"
   viewBox="0 0 210 297"
   version="1.1"
   id="svg1"
   xml:space="preserve"
   inkscape:version="1.3.1 (91b66b0783, 2023-11-16)"
   sodipodi:docname="OH_17_combined.svg"
   xmlns:inkscape="http://www.inkscape.org/namespaces/inkscape"
   xmlns:sodipodi="http://sodipodi.sourceforge.net/DTD/sodipodi-0.dtd"
   xmlns="http://www.w3.org/2000/svg"
   xmlns:svg="http://www.w3.org/2000/svg"><sodipodi:namedview
     id="namedview1"
     pagecolor="#505050"
     bordercolor="#ffffff"
     borderopacity="1"
     inkscape:showpageshadow="0"
     inkscape:pageopacity="0"
     inkscape:pagecheckerboard="1"
     inkscape:deskcolor="#d1d1d1"
     inkscape:document-units="mm"
     showgrid="false"
     inkscape:zoom="0.66724888"
     inkscape:cx="507.30696"
     inkscape:cy="703.6355"
     inkscape:current-layer="layer2" /><defs
     id="defs1"><rect
       x="-570.67944"
       y="-405.22446"
       width="106.56414"
       height="29.445335"
       id="rect26299" /><rect
       x="200.52631"
       y="9.1711655"
       width="46.351566"
       height="22.494143"
       id="rect26241" /><rect
       x="-570.67944"
       y="-405.22446"
       width="119.08154"
       height="29.817139"
       id="rect26299-5" /><rect
       x="-570.67944"
       y="-405.22446"
       width="106.56414"
       height="29.445335"
       id="rect26299-8" /><rect
       x="-570.67944"
       y="-405.22446"
       width="106.56414"
       height="29.445335"
       id="rect26299-8-3" /><rect
       x="-570.67944"
       y="-405.22446"
       width="69.22092"
       height="178.70575"
       id="rect26299-8-7" /><rect
       x="-570.67944"
       y="-405.22446"
       width="69.220917"
       height="178.70575"
       id="rect26299-8-7-1" /><rect
       x="-570.67944"
       y="-405.22446"
       width="106.56414"
       height="29.445335"
       id="rect26299-8-8" /><rect
       x="-570.67944"
       y="-405.22446"
       width="106.56414"
       height="29.445335"
       id="rect26299-8-8-2" /><rect
       x="-570.67944"
       y="-405.22446"
       width="106.56414"
       height="29.445335"
       id="rect26299-8-8-2-6" /><rect
       x="-570.67944"
       y="-405.22446"
       width="69.220917"
       height="178.70575"
       id="rect26299-8-7-3" /></defs><g
     inkscape:label="Layer 1"
     inkscape:groupmode="layer"
     id="layer1"><g
       id="g1"
       transform="matrix(10,0,0,10,31.706842,72.15)"><g
         inkscape:groupmode="layer"
         id="layer2"
         inkscape:label="Layer 2"
         transform="matrix(0.1,0,0,0.1,-3.1706842,-7.215)"
         style="fill:none;stroke:#2cec00;stroke-opacity:1"><path
           d="M 0.09,0.015 A 0.075,0.075 0 0 0 0.015,0.09 V 15.0962 A 0.1588,0.1588 0 0 0 0.1738,15.255 H 14.4612 A 0.1588,0.1588 0 0 0 14.62,15.0962 V 0.09 A 0.075,0.075 0 0 0 14.545,0.015 Z"
           fill="#000000"
           stroke-linecap="round"
           stroke-linejoin="round"
           id="path11073"
           style="fill:none;stroke:#2cec00;stroke-width:0.03;stroke-dasharray:none;stroke-opacity:1"
           transform="matrix(10,0,0,10,31.706841,72.149999)" /><path
           d="m 7.3756513,2.8181597 a 0.1588,0.1588 0 0 1 -0.1588,0.1588 h -4.4824 a 0.1588,0.1588 0 0 1 -0.1588,-0.1588 V 1.4373766 a 0.1588,0.1588 0 0 1 0.1588,-0.1588 h 4.4824 a 0.1588,0.1588 0 0 1 0.1588,0.1588 z"
           fill="#ffffff"
           stroke="#000000"
           stroke-width="0.001cm"
           stroke-linecap="round"
           stroke-linejoin="round"
           id="path11075"
           style="fill:none;stroke:#2cec00;stroke-width:0.03;stroke-dasharray:none;stroke-opacity:1"
           transform="matrix(10,0,0,10,31.706841,72.149999)" /><path
           d="m 2.7344513,8.3009371 a 0.1588,0.1588 0 0 1 -0.1588,-0.1588 V 6.7613537 a 0.1588,0.1588 0 0 1 0.1588,-0.1588 h 4.4824 a 0.1588,0.1588 0 0 1 0.1588,0.1588 v 1.3807834 a 0.1588,0.1588 0 0 1 -0.1588,0.1588 z"
           fill="#ffffff"
           stroke="#000000"
           stroke-width="0.001cm"
           stroke-linecap="round"
           stroke-linejoin="round"
           id="path11077"
           style="fill:none;stroke:#2cec00;stroke-width:0.03;stroke-dasharray:none;stroke-opacity:1"
           transform="matrix(10,0,0,10,31.706841,72.149999)" /><path
           d="m 10.954631,4.6557084 a 1.42875,1.42875 0 1 0 0,-2.8575 1.42875,1.42875 0 1 0 0,2.8575 z"
           fill="#ffffff"
           stroke="#000000"
           stroke-width="0.001cm"
           stroke-linecap="round"
           stroke-linejoin="round"
           id="path11079"
           style="fill:none;stroke:#2cec00;stroke-width:0.03;stroke-dasharray:none;stroke-opacity:1"
           transform="matrix(10,0,0,10,31.706841,72.149999)" /><path
           d="m 1.9686781,10.629298 a 0.16,0.16 0 1 0 0,-0.32 0.16,0.16 0 1 0 0,0.32 z"
           fill="#ffffff"
           stroke="#000000"
           stroke-width="0.001cm"
           stroke-linecap="round"
           stroke-linejoin="round"
           id="path11081"
           style="fill:none;stroke:#2cec00;stroke-width:0.03;stroke-dasharray:none;stroke-opacity:1"
           transform="matrix(10,0,0,10,31.706841,72.149999)" /><path
           d="m 4.9680225,5.6272183 a 0.475,0.475 0 1 0 0,-0.95 0.475,0.475 0 1 0 0,0.95 z"
           fill="#ffffff"
           stroke="#000000"
           stroke-width="0.001cm"
           stroke-linecap="round"
           stroke-linejoin="round"
           id="path11083"
           style="fill:none;stroke:#2cec00;stroke-width:0.03;stroke-dasharray:none;stroke-opacity:1"
           transform="matrix(10,0,0,10,31.706841,72.149999)" /><path
           d="m 10.372056,10.94375 a 0.47500015,0.47500015 0 1 0 0,-0.9500001 0.47500015,0.47500015 0 1 0 0,0.9500001 z"
           fill="#ffffff"
           stroke="#000000"
           stroke-width="0.001cm"
           stroke-linecap="round"
           stroke-linejoin="round"
           id="path11085"
           style="fill:none;stroke:#2cec00;stroke-width:0.03;stroke-dasharray:none;stroke-opacity:1"
           transform="matrix(10,0,0,10,31.706841,72.149999)" /><path
           d="m 1.9681298,4.8094261 a 0.16,0.16 0 1 0 0,-0.32 0.16,0.16 0 1 0 0,0.32 z"
           fill="#ffffff"
           stroke="#000000"
           stroke-width="0.001cm"
           stroke-linecap="round"
           stroke-linejoin="round"
           id="path11087"
           style="fill:none;stroke:#2cec00;stroke-width:0.03;stroke-dasharray:none;stroke-opacity:1"
           transform="matrix(10,0,0,10,31.706841,72.149999)" /><path
           d="m 4.9680225,10.942123 a 0.47500015,0.47500015 0 1 0 0,-0.9500003 0.47500015,0.47500015 0 1 0 0,0.9500003 z"
           fill="#ffffff"
           stroke="#000000"
           stroke-width="0.001cm"
           stroke-linecap="round"
           stroke-linejoin="round"
           id="path11089"
           style="fill:none;stroke:#2cec00;stroke-width:0.03;stroke-dasharray:none;stroke-opacity:1"
           transform="matrix(10,0,0,10,31.706841,72.149999)" /><path
           d="m 10.974111,6.9629236 a 0.595,0.595 0 1 0 0,-1.19 0.595,0.595 0 1 0 0,1.19 z"
           fill="#ffffff"
           stroke="#000000"
           stroke-width="0.001cm"
           stroke-linecap="round"
           stroke-linejoin="round"
           id="path11091"
           style="fill:none;stroke:#2cec00;stroke-width:0.03;stroke-dasharray:none;stroke-opacity:1"
           transform="matrix(10,0,0,10,31.706841,72.149999)" /><path
           d="m 12.479567,10.62875 a 0.16,0.16 0 1 0 0,-0.32 0.16,0.16 0 1 0 0,0.32 z"
           fill="#ffffff"
           stroke="#000000"
           stroke-width="0.001cm"
           stroke-linecap="round"
           stroke-linejoin="round"
           id="path11093"
           style="fill:none;stroke:#2cec00;stroke-width:0.03;stroke-dasharray:none;stroke-opacity:1"
           transform="matrix(10,0,0,10,31.706841,72.149999)" /><path
           d="m 12.980184,1.8997307 a 0.16,0.16 0 1 0 0,-0.32 0.16,0.16 0 1 0 0,0.32 z"
           fill="#ffffff"
           stroke="#000000"
           stroke-width="0.001cm"
           stroke-linecap="round"
           stroke-linejoin="round"
           id="path11095"
           style="fill:none;stroke:#2cec00;stroke-width:0.03;stroke-dasharray:none;stroke-opacity:1"
           transform="matrix(10,0,0,10,31.706841,72.149999)" /><path
           d="m 12.223996,4.6247631 a 0.16,0.16 0 1 0 0,-0.32 0.16,0.16 0 1 0 0,0.32 z"
           fill="#ffffff"
           stroke="#000000"
           stroke-width="0.001cm"
           stroke-linecap="round"
           stroke-linejoin="round"
           id="path11097"
           style="fill:none;stroke:#2cec00;stroke-width:0.03;stroke-dasharray:none;stroke-opacity:1"
           transform="matrix(10,0,0,10,31.706841,72.149999)" /><path
           d="m 0.49125,11.29275 a 0.324,0.324 0 1 0 0,-0.648 0.324,0.324 0 1 0 0,0.648 z"
           fill="#ffffff"
           stroke="#000000"
           stroke-width="0.001cm"
           stroke-linecap="round"
           stroke-linejoin="round"
           id="path11099"
           style="fill:none;stroke:#2cec00;stroke-width:0.03;stroke-dasharray:none;stroke-opacity:1"
           transform="matrix(10,0,0,10,31.706841,72.149999)" /><path
           d="m 0.49125,1.76775 a 0.324,0.324 0 1 0 0,-0.648 0.324,0.324 0 1 0 0,0.648 z"
           fill="#ffffff"
           stroke="#000000"
           stroke-width="0.001cm"
           stroke-linecap="round"
           stroke-linejoin="round"
           id="path11101"
           style="fill:none;stroke:#2cec00;stroke-width:0.03;stroke-dasharray:none;stroke-opacity:1"
           transform="matrix(10,0,0,10,31.706841,72.149999)" /><path
           d="m 14.14375,1.76775 a 0.324,0.324 0 1 0 0,-0.648 0.324,0.324 0 1 0 0,0.648 z"
           fill="#ffffff"
           stroke="#000000"
           stroke-width="0.001cm"
           stroke-linecap="round"
           stroke-linejoin="round"
           id="path11103"
           style="fill:none;stroke:#2cec00;stroke-width:0.03;stroke-dasharray:none;stroke-opacity:1"
           transform="matrix(10,0,0,10,31.706841,72.149999)" /><path
           d="m 14.14375,11.29275 a 0.324,0.324 0 1 0 0,-0.648 0.324,0.324 0 1 0 0,0.648 z"
           fill="#ffffff"
           stroke="#000000"
           stroke-width="0.001cm"
           stroke-linecap="round"
           stroke-linejoin="round"
           id="path11105"
           style="fill:none;stroke:#2cec00;stroke-width:0.03;stroke-dasharray:none;stroke-opacity:1"
           transform="matrix(10,0,0,10,31.706841,72.149999)" /></g><g
         id="layer3"
         inkscape:label="Layer 1"
         style="display:inline;fill:none;stroke:#ff0c00;stroke-width:0.05;stroke-dasharray:none;stroke-opacity:1"><path
           d="M 14.411818,1.9703824 H 14.173555 A 0.55755373,0.55755373 0 0 1 13.616001,1.4128287 V 0.21880165 A 0.15934407,0.15934407 0 0 0 13.456657,0.05945757 H 1.1911769 A 0.15934407,0.15934407 0 0 0 1.0318329,0.21880165 V 1.4128287 A 0.55755373,0.55755373 0 0 1 0.47427918,1.9703824 H 0.23601564 A 0.15934407,0.15934407 0 0 0 0.07667157,2.1297265 v 8.1238385 a 0.15934407,0.15934407 0 0 0 0.15934407,0.159344 h 0.23826354 a 0.557554,0.557554 0 0 1 0,1.115108 H 0.23601564 a 0.15934407,0.15934407 0 0 0 -0.15934407,0.159344 v 0.637075 A 0.15934407,0.15934407 0 0 0 0.23601564,12.48378 H 14.411818 a 0.15934407,0.15934407 0 0 0 0.159344,-0.159344 v -0.637075 a 0.15934407,0.15934407 0 0 0 -0.159344,-0.159344 h -0.238263 a 0.557554,0.557554 0 0 1 0,-1.115108 h 0.238263 a 0.15934407,0.15934407 0 0 0 0.159344,-0.159344 V 2.1297265 A 0.15934407,0.15934407 0 0 0 14.411818,1.9703824 Z"
           fill="rgb(0,0,0)"
           stroke-linecap="round"
           stroke-linejoin="round"
           id="path11997"
           style="fill:none;stroke:#ff0c00;stroke-width:0.05;stroke-dasharray:none;stroke-opacity:1" /><path
           d="M 12.441712,4.1491072 A 0.35119915,0.35119915 0 1 1 11.977105,4.6729839 L 11.76274,4.4827705 a 0.05017131,0.05017131 0 0 0 -0.05889,-0.00562 1.4336451,1.4336451 0 1 1 0.534412,-0.5598973 0.05017131,0.05017131 0 0 0 0.011,0.061085 z"
           fill="rgb(255,255,255)"
           stroke="rgb(0,0,0)"
           stroke-width="0.00100343cm"
           stroke-linecap="round"
           stroke-linejoin="round"
           id="path11999"
           style="fill:none;stroke:#ff0c00;stroke-width:0.05;stroke-dasharray:none;stroke-opacity:1" /><path
           d="m 12.820184,1.7389422 a 0.16054818,0.16054818 0 1 0 0.321096,0 0.16054818,0.16054818 0 1 0 -0.321096,0 z"
           fill="rgb(255,255,255)"
           stroke="rgb(0,0,0)"
           stroke-width="0.00100343cm"
           stroke-linecap="round"
           stroke-linejoin="round"
           id="path12001"
           style="fill:none;stroke:#ff0c00;stroke-width:0.05;stroke-dasharray:none;stroke-opacity:1" /><path
           d="m 1.8075816,10.46875 a 0.1605482,0.1605482 0 1 0 0.3210964,0 0.1605482,0.1605482 0 1 0 -0.3210964,0 z"
           fill="rgb(255,255,255)"
           stroke="rgb(0,0,0)"
           stroke-width="0.00100343cm"
           stroke-linecap="round"
           stroke-linejoin="round"
           id="path12003"
           style="fill:none;stroke:#ff0c00;stroke-width:0.05;stroke-dasharray:none;stroke-opacity:1" /><path
           d="m 1.8075816,4.648878 a 0.1605482,0.1605482 0 1 0 0.3210964,0 0.1605482,0.1605482 0 1 0 -0.3210964,0 z"
           fill="rgb(255,255,255)"
           stroke="rgb(0,0,0)"
           stroke-width="0.00100343cm"
           stroke-linecap="round"
           stroke-linejoin="round"
           id="path12005"
           style="fill:none;stroke:#ff0c00;stroke-width:0.05;stroke-dasharray:none;stroke-opacity:1" /><path
           d="m 10.251644,6.3679236 a 0.722467,0.722467 0 1 0 1.444934,0 0.722467,0.722467 0 1 0 -1.444934,0 z"
           fill="rgb(255,255,255)"
           stroke="rgb(0,0,0)"
           stroke-width="0.00100343cm"
           stroke-linecap="round"
           stroke-linejoin="round"
           id="path12007"
           style="fill:none;stroke:#ff0c00;stroke-width:0.05;stroke-dasharray:none;stroke-opacity:1" /><path
           d="m 4.491395,5.150591 a 0.47662745,0.47662745 0 1 0 0.9532549,0 0.47662745,0.47662745 0 1 0 -0.9532549,0 z"
           fill="rgb(255,255,255)"
           stroke="rgb(0,0,0)"
           stroke-width="0.00100343cm"
           stroke-linecap="round"
           stroke-linejoin="round"
           id="path12009"
           style="fill:none;stroke:#ff0c00;stroke-width:0.05;stroke-dasharray:none;stroke-opacity:1" /><path
           d="m 9.893801,10.46875 a 0.4766275,0.4766275 0 1 0 0.953255,0 0.4766275,0.4766275 0 1 0 -0.953255,0 z"
           fill="rgb(255,255,255)"
           stroke="rgb(0,0,0)"
           stroke-width="0.00100343cm"
           stroke-linecap="round"
           stroke-linejoin="round"
           id="path12011"
           style="fill:none;stroke:#ff0c00;stroke-width:0.05;stroke-dasharray:none;stroke-opacity:1" /><path
           d="m 4.491395,10.46875 a 0.47662745,0.47662745 0 1 0 0.9532549,0 0.47662745,0.47662745 0 1 0 -0.9532549,0 z"
           fill="rgb(255,255,255)"
           stroke="rgb(0,0,0)"
           stroke-width="0.00100343cm"
           stroke-linecap="round"
           stroke-linejoin="round"
           id="path12013"
           style="fill:none;stroke:#ff0c00;stroke-width:0.05;stroke-dasharray:none;stroke-opacity:1" /><path
           d="m 12.318471,10.46875 a 0.16054818,0.16054818 0 1 0 0.321096,0 0.16054818,0.16054818 0 1 0 -0.321096,0 z"
           fill="rgb(255,255,255)"
           stroke="rgb(0,0,0)"
           stroke-width="0.00100343cm"
           stroke-linecap="round"
           stroke-linejoin="round"
           id="path12015"
           style="fill:none;stroke:#ff0c00;stroke-width:0.05;stroke-dasharray:none;stroke-opacity:1" /><path
           d="m 2.5597499,1.4379206 a 0.15934407,0.15934407 0 0 1 0.159344,-0.159344 h 4.4977574 a 0.15934407,0.15934407 0 0 1 0.1593441,0.159344 V 2.8234345 A 0.15934407,0.15934407 0 0 1 7.2168513,2.9827786 H 2.7190939 A 0.15934407,0.15934407 0 0 1 2.5597499,2.8234345 Z"
           fill="rgb(255,255,255)"
           stroke="rgb(0,0,0)"
           stroke-width="0.00100343cm"
           stroke-linecap="round"
           stroke-linejoin="round"
           id="path12017"
           style="fill:none;stroke:#ff0c00;stroke-width:0.05;stroke-dasharray:none;stroke-opacity:1" /><path
           d="M 7.2168513,6.5967351 A 0.15934407,0.15934407 0 0 1 7.3761954,6.7560792 V 8.141593 A 0.15934407,0.15934407 0 0 1 7.2168513,8.3009371 H 2.7190939 A 0.15934407,0.15934407 0 0 1 2.5597499,8.141593 V 6.7560792 a 0.15934407,0.15934407 0 0 1 0.159344,-0.1593441 z"
           fill="rgb(255,255,255)"
           stroke="rgb(0,0,0)"
           stroke-width="0.00100343cm"
           stroke-linecap="round"
           stroke-linejoin="round"
           id="path12019"
           style="fill:none;stroke:#ff0c00;stroke-width:0.05;stroke-dasharray:none;stroke-opacity:1" /></g><g
         id="layer4"
         inkscape:label="TXXT"
         style="display:inline"><path
           id="path29146"
           style="font-size:25.3333px;font-family:'Futura Md BT';-inkscape-font-specification:'Futura Md BT, Normal';text-align:center;text-orientation:upright;white-space:pre;display:inline;fill:#ffffff;stroke-width:0.03"
           d="M 7.9808565,0.07699788 V 12.450971 h 0.088987 V 7.7425248 H 14.527072 V 7.653538 H 8.0698433 V 0.07699788 Z M 4.2816508,0.22835815 4.0496236,0.72646729 h 0.081804 l 0.055656,-0.12340333 h 0.1898076 l 0.054312,0.12340333 h 0.082166 z m 5.4109875,0 -0.113223,0.49940105 h 0.071675 l 0.051366,-0.23595459 c 0.00284,-0.0111277 0.00489,-0.0225826 0.0062,-0.0343648 0.00109,-0.006546 0.00174,-0.0114551 0.00196,-0.0147278 4.357e-4,-0.003491 6.718e-4,-0.009147 6.718e-4,-0.0170015 l 0.00982,0.0297656 c 0.00371,0.0096 0.00829,0.0199816 0.013746,0.0311092 L 9.860225,0.74708618 9.9854887,0.49180461 c 0.00545,-0.0104731 0.00994,-0.0211816 0.013436,-0.0320911 0.00347,-0.0109094 0.00627,-0.0222208 0.00847,-0.0340031 l 0.0046,0.0346749 0.0043,0.0307475 0.05302,0.23662639 h 0.0723 0.07886 l 0.05566,-0.12335165 h 0.189859 l 0.05431,0.12335165 h 0.08211 L 10.370736,0.22965007 10.140673,0.72352173 10.025796,0.22835815 9.8877169,0.5304069 9.8818269,0.5435327 C 9.8717929,0.5651335 9.8645929,0.5825715 9.8602259,0.5958809 L 9.8438449,0.5546431 9.8340249,0.5307686 Z m 0.9550317,0.001292 V 0.7277592 h 0.07162 V 0.39460124 c 0.0068,0.0096 0.01411,0.0189997 0.02196,0.0281636 0.0065,0.007418 0.01056,0.0118569 0.01209,0.0133842 0.0035,0.003709 0.0075,0.00778 0.01214,0.012144 l 0.310575,0.29812134 V 0.24861532 h -0.07198 V 0.5808431 c -0.0096,-0.0122185 -0.01858,-0.0228353 -0.02687,-0.031781 l -0.02517,-0.02651 z m 1.192279,0 -0.232079,0.49810913 h 0.08186 l 0.0556,-0.12335165 h 0.189859 l 0.05431,0.12335165 h 0.08216 z m -6.2095433,0.006873 c -0.033701,3.8311e-4 -0.065587,0.006706 -0.095601,0.0189653 -0.030983,0.0124367 -0.058658,0.030581 -0.083096,0.0543636 -0.024219,0.0235644 -0.04269,0.0505857 -0.055345,0.081132 -0.012655,0.0305464 -0.018965,0.0628557 -0.018965,0.0968933 0,0.0340374 0.00645,0.0663469 0.019327,0.0968933 0.012873,0.0305464 0.031293,0.0575677 0.055294,0.081132 0.024001,0.0233463 0.051584,0.0414904 0.082786,0.0543636 0.031419,0.0126549 0.064383,0.0189653 0.098857,0.0189653 0.033819,0 0.066312,-0.006454 0.097513,-0.019327 0.031419,-0.0130914 0.059382,-0.0314194 0.083819,-0.0549837 0.024437,-0.0235644 0.042949,-0.0502582 0.055604,-0.0801501 0.012655,-0.0301101 0.019017,-0.0624195 0.019017,-0.0968933 0,-0.0338194 -0.00655,-0.0659851 -0.019637,-0.0965316 -0.012874,-0.0305467 -0.031529,-0.0577115 -0.055967,-0.081494 -0.024437,-0.0240008 -0.052165,-0.042237 -0.083147,-0.0546737 -0.030765,-0.0124368 -0.063166,-0.0186552 -0.097203,-0.0186552 -0.00109,0 -0.00217,-1.236e-5 -0.00326,0 z M 4.5565694,0.2473234 v 0.29817302 c 0,0.0650202 0.016273,0.11355035 0.048783,0.14562419 0.032729,0.0320736 0.081913,0.0481107 0.1475879,0.0481107 0.065893,0 0.115221,-0.016129 0.1479496,-0.0484208 0.032729,-0.032292 0.049093,-0.0807303 0.049093,-0.14531413 V 0.2473234 H 4.872054 v 0.29093832 c 0,0.0432015 -0.010146,0.0757462 -0.030437,0.0975651 -0.020073,0.0216006 -0.049621,0.0324011 -0.088677,0.0324011 -0.039711,0 -0.069585,-0.0108006 -0.089659,-0.0324011 C 4.643426,0.61400792 4.633464,0.58146322 4.633464,0.53826172 V 0.2473234 Z m 0.4503601,0 v 0.0660942 h 0.1272791 v 0.41304973 h 0.077928 V 0.31341756 h 0.126659 V 0.2473234 Z m 6.1771425,0.001292 v 0.29817301 c 0,0.0650202 0.01622,0.11355035 0.04873,0.14562419 0.03273,0.0320736 0.08197,0.0481107 0.147639,0.0481107 0.06589,0 0.115172,-0.016129 0.147898,-0.0484208 0.03273,-0.032292 0.04909,-0.0807303 0.04909,-0.14531413 V 0.24861532 h -0.07788 v 0.29098999 c 0,0.0432015 -0.01014,0.0756945 -0.03044,0.0975134 -0.02007,0.0216006 -0.04962,0.0324011 -0.08868,0.0324011 -0.03971,0 -0.06964,-0.0108006 -0.08971,-0.0324011 -0.01985,-0.0218189 -0.02977,-0.0543119 -0.02977,-0.0975134 V 0.24861532 Z m 0.932759,0 v 0.4791438 h 0.251975 V 0.65804769 H 12.194708 V 0.24861532 Z M 5.6314392,0.3081983 c 7.407e-4,-8.73e-6 0.00148,0 0.00222,0 0.023783,0 0.046274,0.004582 0.067438,0.0137459 0.021383,0.009164 0.040222,0.0221635 0.056586,0.038964 0.016365,0.0168006 0.028945,0.035967 0.037672,0.0575675 0.00873,0.0216007 0.013074,0.044746 0.013074,0.0694015 0,0.0240007 -0.00458,0.0470026 -0.013746,0.0690397 -0.00916,0.0218189 -0.021928,0.0411288 -0.038292,0.0579293 -0.016145,0.0168005 -0.034801,0.0297082 -0.055966,0.038654 -0.020946,0.008946 -0.043201,0.0133842 -0.066766,0.0133842 -0.023783,0 -0.046365,-0.004438 -0.067748,-0.0133842 -0.021383,-0.009164 -0.04013,-0.0221635 -0.056276,-0.038964 -0.00873,-0.008728 -0.016166,-0.0177997 -0.022273,-0.0271818 -0.00611,-0.009382 -0.011343,-0.0196198 -0.01571,-0.0307475 -0.00873,-0.0213826 -0.013074,-0.0442926 -0.013074,-0.0687296 0,-0.0128732 0.00108,-0.0248908 0.00326,-0.0360185 0.00218,-0.0111276 0.00545,-0.0222553 0.00982,-0.033383 0.00938,-0.0222552 0.022054,-0.041565 0.037982,-0.0579293 0.016801,-0.0172369 0.03564,-0.0301848 0.056586,-0.0389124 0.020503,-0.008666 0.042255,-0.013165 0.065216,-0.0134359 z m -1.3491166,0.0664559 0.00915,0.0304374 0.00884,0.0238745 0.049093,0.10929566 H 4.2158667 L 4.2649597,0.4289661 c 0.00349,-0.008073 0.00644,-0.0163468 0.00884,-0.0248564 0.00174,-0.0048 0.00314,-0.009382 0.00424,-0.0137459 0.00131,-0.004364 0.00276,-0.0096 0.00429,-0.0157096 z m 6.0890854,0.001292 0.0092,0.0304374 0.0088,0.0238745 0.04909,0.10934733 h -0.133532 l 0.04904,-0.10934733 c 0.0035,-0.008073 0.0064,-0.0163468 0.0088,-0.0248564 0.0018,-0.0048 0.0032,-0.009382 0.0043,-0.0137459 0.0013,-0.004364 0.0028,-0.0096 0.0043,-0.0157096 z m 1.469213,0 0.0092,0.0304374 0.0088,0.0238745 0.04909,0.10934733 h -0.133532 l 0.04904,-0.10934733 c 0.0035,-0.008073 0.0064,-0.0163468 0.0088,-0.0248564 0.0018,-0.0048 0.0032,-0.009382 0.0043,-0.0137459 0.0013,-0.004364 0.0028,-0.0096 0.0043,-0.0157096 z m 1.341417,1.7838705 0.157458,0.3667993 0.157613,-0.3667993 h -0.05927 l -0.07886,0.1881022 c -0.0024,0.00515 -0.0045,0.010068 -0.0063,0.014728 -0.0016,0.0045 -0.0033,0.00932 -0.0051,0.014469 -0.0034,0.00965 -0.0061,0.01881 -0.008,0.027492 -0.0019,-0.0082 -0.0044,-0.016979 -0.0075,-0.026303 -0.0029,-0.00949 -0.0066,-0.019614 -0.01132,-0.030386 l -0.07912,-0.1881022 z m 0.157458,0.4721159 -0.170946,0.367006 h 0.06025 l 0.04103,-0.090899 h 0.139836 l 0.04005,0.090899 h 0.06051 z m 4.65e-4,0.107797 0.0068,0.022428 0.0065,0.01757 0.03617,0.080564 h -0.09839 l 0.03623,-0.080564 c 0.0025,-0.00595 0.0047,-0.01202 0.0065,-0.018293 0.0013,-0.00354 0.0023,-0.00692 0.0031,-0.010129 9.34e-4,-0.00322 0.002,-0.00708 0.0031,-0.011576 z m -0.07607,0.3993555 v 0.3530534 h 0.185725 v -0.051367 h -0.12831 V 3.1390849 Z M 5.1960136,3.438033 5.0250163,3.8050907 h 0.060306 l 0.040979,-0.09095 h 0.1398881 l 0.039998,0.09095 h 0.060565 z M 4.1811918,3.452037 v 0.3530533 h 0.057413 V 3.6391577 H 4.378234 V 3.5887732 H 4.2386043 V 3.5007166 H 4.378234 v -0.048679 z m 0.2592607,0 V 3.8050907 H 4.6261259 V 3.7537244 H 4.497865 v -0.301687 z m 0.1950785,0 V 3.500716 H 4.729375 V 3.8050901 H 4.786736 V 3.5007166 h 0.093328 v -0.048679 z m 0.7645011,0 V 3.8050907 H 5.5857056 V 3.7537244 H 5.457393 v -0.301687 z m 0.1950786,0 v 0.048679 h 0.093793 v 0.3043741 h 0.057412 V 3.5007166 h 0.093328 v -0.048679 z m -0.398632,0.093793 0.00677,0.022428 0.00651,0.017622 0.036174,0.080512 H 5.1475407 L 5.1837147,3.58588 c 0.00257,-0.00595 0.00474,-0.012072 0.00651,-0.018345 0.00129,-0.00354 0.00229,-0.00692 0.0031,-0.010129 9.667e-4,-0.00322 0.00203,-0.00708 0.00315,-0.011576 z m 7.9855593,0.072605 0.157458,0.3667993 0.157613,-0.3667993 h -0.05927 l -0.07886,0.1881022 c -0.0024,0.00515 -0.0045,0.010068 -0.0063,0.014728 -0.0016,0.0045 -0.0033,0.00932 -0.0051,0.014469 -0.0034,0.00965 -0.0061,0.018811 -0.008,0.027492 -0.0019,-0.0082 -0.0044,-0.016979 -0.0075,-0.026303 -0.0029,-0.00949 -0.0066,-0.019614 -0.01132,-0.030386 L 13.241639,3.618435 Z m 0.06656,0.4930965 V 4.4645849 H 13.44564 V 4.413219 H 13.30601 V 4.2991174 h 0.139629 V 4.2487329 H 13.30601 v -0.088522 h 0.139629 V 4.111532 Z M 9.5779683,5.210328 c -0.024827,4.022e-4 -0.048159,0.00491 -0.069918,0.013488 -0.02283,0.00884 -0.042989,0.021865 -0.060513,0.039067 -0.017363,0.017203 -0.030724,0.037316 -0.040049,0.060306 -0.00916,0.022991 -0.013746,0.047249 -0.013746,0.072812 0,0.025884 0.00458,0.050339 0.013746,0.073329 0.00932,0.022829 0.022686,0.042845 0.040049,0.060048 0.017524,0.017042 0.037638,0.029967 0.060306,0.038809 0.022829,0.00868 0.047714,0.013022 0.074724,0.013022 0.01045,0 0.020676,-7.237e-4 0.030644,-0.00217 0.010129,-0.00145 0.019631,-0.00347 0.028474,-0.00605 0.018167,-0.00547 0.034951,-0.013711 0.050384,-0.024805 V 5.483278 c -0.017525,0.015113 -0.035709,0.026303 -0.054519,0.033538 -0.00997,0.00386 -0.019757,0.00666 -0.029404,0.00842 -0.00949,0.00177 -0.019517,0.00264 -0.030127,0.00264 -0.035691,0 -0.065354,-0.012299 -0.088987,-0.036897 -0.023633,-0.024759 -0.03545,-0.056253 -0.03545,-0.094516 0,-0.03955 0.012057,-0.071624 0.036173,-0.096221 0.024276,-0.024759 0.055673,-0.037155 0.094258,-0.037155 0.010129,0 0.019872,9.205e-4 0.029197,0.00269 0.00949,0.00177 0.018747,0.00433 0.02775,0.0077 0.018167,0.00691 0.035335,0.017283 0.051573,0.031109 l 0.00315,-0.057878 C 9.6781593,5.234327 9.6599293,5.225261 9.6409583,5.219475 c -0.00965,-0.00321 -0.019293,-0.00553 -0.028939,-0.00698 -0.00965,-0.00145 -0.019775,-0.00217 -0.030386,-0.00217 -0.00123,0 -0.00245,-1.98e-5 -0.00367,0 z m 2.6937887,0.3102136 c -0.02483,2.823e-4 -0.04832,0.00497 -0.07043,0.014004 -0.02283,0.00916 -0.04323,0.022474 -0.06124,0.039998 -0.01784,0.017363 -0.03139,0.037333 -0.04072,0.059841 -0.0093,0.022507 -0.014,0.046284 -0.014,0.071365 0,0.02508 0.0047,0.048857 0.01421,0.071365 0.0095,0.022508 0.02309,0.042478 0.04077,0.059841 0.01768,0.017203 0.03804,0.030512 0.06103,0.039998 0.02315,0.00932 0.04741,0.014004 0.07281,0.014004 0.02491,0 0.04889,-0.00473 0.07188,-0.014211 0.02315,-0.00965 0.04369,-0.023151 0.0617,-0.040514 0.01801,-0.017363 0.0317,-0.037092 0.04103,-0.059118 0.0093,-0.022186 0.01395,-0.045963 0.01395,-0.071365 0,-0.024919 -0.0048,-0.04865 -0.01447,-0.071158 -0.0095,-0.022508 -0.02323,-0.042524 -0.04124,-0.060048 -0.018,-0.017685 -0.0384,-0.031092 -0.06124,-0.040256 -0.02267,-0.00916 -0.04654,-0.013746 -0.07162,-0.013746 -8.04e-4,0 -0.0016,-9.1e-6 -0.0024,0 z m 8.27e-4,0.052813 c 5.46e-4,-6.4e-6 0.0011,0 0.0017,0 0.01753,0 0.03407,0.00338 0.04966,0.010129 0.01575,0.00675 0.02969,0.016301 0.04175,0.02868 0.01209,0.012379 0.0213,0.026561 0.0277,0.042478 0.0064,0.015916 0.0096,0.032941 0.0096,0.051108 h 5.2e-5 c 0,0.017685 -0.0034,0.034663 -0.01013,0.050901 -0.0067,0.016077 -0.01615,0.030305 -0.02821,0.042685 -0.0119,0.012377 -0.02565,0.02188 -0.04124,0.028474 -0.01544,0.00659 -0.03184,0.00987 -0.0492,0.00987 -0.01753,0 -0.03417,-0.00328 -0.04992,-0.00987 -0.01575,-0.00675 -0.0296,-0.016353 -0.0415,-0.028732 -0.0064,-0.00643 -0.01185,-0.013086 -0.01638,-0.019999 -0.0045,-0.00691 -0.0084,-0.014487 -0.01158,-0.022686 -0.0064,-0.015755 -0.0096,-0.032636 -0.0096,-0.050643 0,-0.00949 8.29e-4,-0.018311 0.0024,-0.02651 0.0016,-0.0082 0.004,-0.016399 0.0072,-0.024598 0.0069,-0.016399 0.01622,-0.030627 0.02796,-0.042685 0.01238,-0.012699 0.02632,-0.022247 0.04176,-0.02868 0.01511,-0.00639 0.03109,-0.00972 0.04801,-0.00992 z M 9.4703263,5.7138631 V 6.0669165 H 9.6559998 V 6.0155501 H 9.5277389 v -0.301687 z m 2.7129607,0.3095418 v 0.3530534 h 0.0538 V 6.2180184 h 0.02165 0.01137 c 0.0254,0 0.04426,-0.00135 0.05664,-0.00408 0.01238,-0.00289 0.02299,-0.00747 0.03183,-0.013746 0.01109,-0.0082 0.01978,-0.01939 0.02604,-0.033538 0.0063,-0.014148 0.0094,-0.029484 0.0094,-0.046044 0,-0.016721 -0.0031,-0.032011 -0.0094,-0.045837 -0.0063,-0.013987 -0.01495,-0.02508 -0.02604,-0.03328 -0.0092,-0.00659 -0.01982,-0.011271 -0.03204,-0.014004 -0.01222,-0.00273 -0.03103,-0.00408 -0.05643,-0.00408 z m 0.05741,0.049196 h 0.01468 c 0.03055,0 0.05148,0.00386 0.06273,0.011575 0.01125,0.00756 0.01685,0.02082 0.01685,0.039791 0,0.017685 -0.0053,0.029984 -0.01592,0.036897 -0.01045,0.00675 -0.03167,0.010128 -0.06367,0.010128 h -0.01473 z m -2.6971482,0.110846 c -0.024832,2.822e-4 -0.048319,0.00497 -0.070435,0.014004 -0.022829,0.00916 -0.043282,0.022474 -0.061288,0.039998 -0.017846,0.017363 -0.031396,0.037333 -0.040721,0.059841 -0.00932,0.022507 -0.014004,0.046285 -0.014004,0.071365 0,0.025081 0.00473,0.048857 0.014211,0.071365 0.00949,0.022508 0.023088,0.042478 0.040773,0.059841 0.017685,0.017203 0.038039,0.030512 0.06103,0.039998 0.023151,0.00932 0.04741,0.014004 0.072812,0.014004 0.02492,0 0.048892,-0.00473 0.071882,-0.014211 0.023151,-0.00965 0.043695,-0.023151 0.061702,-0.040514 0.018007,-0.017364 0.031707,-0.037092 0.041031,-0.059118 0.00932,-0.022187 0.013953,-0.045963 0.013953,-0.071365 6e-7,-0.024919 -0.00482,-0.04865 -0.014469,-0.071159 -0.00949,-0.022508 -0.023231,-0.042524 -0.041238,-0.060048 -0.018007,-0.017685 -0.038407,-0.031092 -0.061237,-0.040256 -0.022669,-0.00916 -0.046543,-0.013746 -0.071624,-0.013746 -8.039e-4,0 -0.00158,-9.1e-6 -0.00238,0 z m 7.235e-4,0.052813 c 5.457e-4,-6.5e-6 0.00111,0 0.00165,0 0.017524,0 0.034066,0.00338 0.049661,0.010129 0.015755,0.00675 0.029697,0.016301 0.041755,0.02868 0.012055,0.01238 0.021265,0.026562 0.027698,0.042478 0.00643,0.015916 0.00966,0.032941 0.00966,0.051108 0,0.017685 -0.00338,0.034663 -0.010129,0.050901 -0.00675,0.016077 -0.016157,0.030305 -0.028215,0.042685 -0.011897,0.012377 -0.025643,0.021829 -0.041238,0.028422 -0.015434,0.00659 -0.031833,0.00992 -0.049196,0.00992 -0.017524,0 -0.034164,-0.00333 -0.049919,-0.00992 -0.015755,-0.00675 -0.029547,-0.016301 -0.041444,-0.02868 -0.00643,-0.00643 -0.011933,-0.013085 -0.016433,-0.019999 -0.0045,-0.00691 -0.00836,-0.014487 -0.011575,-0.022686 -0.00643,-0.015755 -0.00961,-0.032636 -0.00961,-0.050643 0,-0.00949 7.704e-4,-0.018311 0.00238,-0.02651 0.00161,-0.0082 0.00402,-0.016399 0.00723,-0.024598 0.00691,-0.016399 0.016221,-0.030627 0.027957,-0.042685 0.012379,-0.012699 0.026321,-0.022299 0.041755,-0.028732 0.015107,-0.00639 0.03109,-0.00967 0.048007,-0.00987 z m 2.6390117,0.2733683 v 0.3530534 h 0.196991 v -0.051366 h -0.13963 V 6.6972139 h 0.13963 v -0.050385 h -0.13963 v -0.088522 h 0.13963 V 6.5096285 Z M 9.5437069,6.6696704 c -0.030317,5.451e-4 -0.055,0.00953 -0.074001,0.026975 -0.019453,0.017845 -0.029145,0.041094 -0.029145,0.069712 0,0.022026 0.00651,0.040836 0.019534,0.056431 0.013183,0.015595 0.039032,0.032719 0.077618,0.051366 l 0.01111,0.00532 c 0.034405,0.016399 0.051625,0.03487 0.051625,0.055449 0,0.015917 -0.00506,0.0286 -0.015193,0.038086 -0.00997,0.00949 -0.023472,0.014263 -0.040514,0.014263 -0.018007,0 -0.032815,-0.0042 -0.04439,-0.012557 -0.011577,-0.00836 -0.019534,-0.020321 -0.023874,-0.035915 l -0.045837,0.021187 c 0.00611,0.025723 0.018747,0.045498 0.037879,0.059325 0.019132,0.013826 0.04373,0.020774 0.073794,0.020774 0.035852,0 0.064308,-0.00989 0.08537,-0.029662 0.021061,-0.019775 0.031574,-0.046302 0.031574,-0.079582 0,-0.022991 -0.00656,-0.042237 -0.01974,-0.057671 -0.013022,-0.015434 -0.036897,-0.031109 -0.071624,-0.047026 l -0.00723,-0.00336 c -0.039871,-0.018328 -0.059841,-0.038103 -0.059841,-0.059325 0,-0.013505 0.00454,-0.024311 0.013539,-0.032349 0.009,-0.00804 0.021302,-0.012041 0.036897,-0.012041 0.010933,0 0.020625,0.00265 0.029146,0.00796 0.00852,0.00514 0.016238,0.0132 0.023151,0.024133 l 0.044855,-0.023151 c -0.00691,-0.018971 -0.019115,-0.03344 -0.036639,-0.043408 -0.017524,-0.00997 -0.039228,-0.014934 -0.065112,-0.014934 -9.897e-4,0 -0.00197,-1.76e-5 -0.00295,0 z m 2.5726591,0.2982764 v 0.3670577 h 0.05287 V 7.0894897 c 0.005,0.00707 0.01032,0.014021 0.01612,0.020774 0.0048,0.00547 0.0078,0.00874 0.0089,0.00987 0.0025,0.00273 0.0055,0.00573 0.0089,0.00894 l 0.228823,0.2196765 V 6.9819511 h -0.05302 v 0.2447913 c -0.007,-0.009 -0.01366,-0.016816 -0.01979,-0.023409 l -0.01855,-0.019534 z M 9.4550301,7.1724821 V 7.5255355 H 9.6520207 V 7.4741691 H 9.512391 V 7.3601192 H 9.6520207 V 7.3097347 H 9.512391 V 7.221213 H 9.6520207 V 7.1724821 Z M 9.9319519,7.8571948 9.7609546,8.2242525 h 0.060306 l 0.040979,-0.090899 h 0.1398874 l 0.04005,0.090899 h 0.06051 z m 0.6875551,0 v 0.3670577 h 0.05281 V 7.9787378 c 0.005,0.00707 0.01038,0.014021 0.01618,0.020774 0.0048,0.00547 0.0078,0.00874 0.0089,0.00987 0.0025,0.00273 0.0055,0.00573 0.0089,0.00894 L 10.93512,8.2379984 V 7.8711991 h -0.05307 v 0.2447913 c -0.007,-0.009 -0.01361,-0.016816 -0.01974,-0.023409 l -0.01855,-0.019534 z m -0.483537,0.014004 v 0.3530534 h 0.185674 v -0.051366 h -0.128313 v -0.301687 z m 0.195079,0 V 7.91993 h 0.09384 v 0.3043225 h 0.05736 V 7.91993 h 0.09333 V 7.871199 Z m -0.398632,0.093793 0.00677,0.022428 0.00651,0.017622 0.036174,0.080564 H 9.883479 l 0.036174,-0.080564 c 0.00257,-0.00595 0.00474,-0.012072 0.00651,-0.018345 0.00129,-0.00354 0.00229,-0.00692 0.0031,-0.010129 9.667e-4,-0.00322 0.00203,-0.00708 0.00315,-0.011576 z m 1.148457,0.3269051 -0.101751,0.222622 -0.0043,0.00966 c -0.0074,0.015917 -0.01272,0.028744 -0.01592,0.038551 l -0.01209,-0.030386 -0.0072,-0.01757 -0.104179,-0.2228288 -0.08346,0.3679879 h 0.05281 l 0.03788,-0.1738912 c 0.0021,-0.0082 0.0037,-0.01664 0.0046,-0.025321 7.74e-4,-0.00482 0.0012,-0.00844 0.0014,-0.010852 3.21e-4,-0.00257 4.65e-4,-0.00672 4.65e-4,-0.012506 l 0.0072,0.021911 c 0.0028,0.00707 0.0062,0.014745 0.01018,0.022944 l 0.09235,0.1919262 0.09235,-0.1881022 c 0.004,-0.00772 0.0073,-0.015577 0.0099,-0.023616 0.0026,-0.00804 0.0047,-0.016382 0.0063,-0.025063 l 0.0034,0.025528 0.0031,0.022686 0.03907,0.1743563 h 0.05328 z m 0.280655,9.818e-4 -0.170946,0.3670577 h 0.06025 l 0.04103,-0.090899 h 0.139836 l 0.04005,0.090899 h 0.06051 z m 0.230477,0 v 0.3670577 h 0.05287 V 8.4144218 c 0.005,0.00707 0.01037,0.014021 0.01617,0.020774 0.0048,0.00547 0.0078,0.00874 0.0089,0.00987 0.0025,0.00273 0.0055,0.00573 0.0089,0.00894 l 0.228875,0.2196766 V 8.3068831 h -0.05307 v 0.2447913 c -0.0071,-0.009 -0.01361,-0.016816 -0.01974,-0.023409 l -0.0186,-0.019534 z m -2.7345622,0.00196 -0.1709456,0.3670061 h 0.060255 l 0.041031,-0.090899 h 0.1398364 l 0.040049,0.090899 h 0.060513 z m 0.9962183,0.00599 c -0.025724,0 -0.049983,0.00468 -0.072812,0.014004 -0.022829,0.00916 -0.043282,0.022525 -0.061288,0.040049 -0.017846,0.017363 -0.031396,0.037282 -0.040721,0.05979 -0.00932,0.022507 -0.014004,0.046285 -0.014004,0.071365 0,0.025081 0.00473,0.048909 0.014211,0.071417 0.00949,0.022508 0.023088,0.042426 0.040773,0.05979 0.017685,0.017203 0.03804,0.030564 0.06103,0.040049 0.023151,0.00932 0.04741,0.013953 0.072812,0.013953 0.024919,0 0.048891,-0.00473 0.071882,-0.014211 0.023151,-0.00965 0.043695,-0.023151 0.061702,-0.040514 0.018004,-0.017363 0.031704,-0.037041 0.041031,-0.059066 0.0093,-0.022187 0.014,-0.046015 0.014,-0.071417 h -5.2e-5 c 0,-0.024919 -0.0048,-0.048599 -0.01447,-0.071107 -0.0095,-0.022508 -0.02323,-0.042524 -0.041238,-0.060048 -0.018007,-0.017685 -0.038407,-0.031144 -0.061237,-0.040308 -0.022668,-0.00916 -0.046543,-0.013746 -0.071624,-0.013746 z m -0.7936466,0.00796 v 0.2197282 c 0,0.04791 0.012011,0.083647 0.035967,0.1072802 0.024116,0.023633 0.060335,0.03545 0.1087272,0.03545 0.048553,0 0.084921,-0.011863 0.1090372,-0.035657 0.024116,-0.023794 0.036174,-0.059486 0.036174,-0.1070735 V 8.3087952 h -0.057412 v 0.2144055 c 0,0.031833 -0.00748,0.055805 -0.022427,0.071882 -0.014791,0.015917 -0.036593,0.023874 -0.065371,0.023874 -0.029261,0 -0.051252,-0.00796 -0.066043,-0.023874 -0.01463,-0.016077 -0.021962,-0.040049 -0.021962,-0.071882 V 8.3087952 Z m 0.331866,0 v 0.048731 h 0.093793 v 0.3043226 h 0.057413 V 8.357526 h 0.093328 V 8.308795 Z m 0.460127,0.044855 c 5.457e-4,-6.4e-6 0.00111,0 0.00165,0 0.017524,0 0.034066,0.00338 0.049661,0.010129 0.015755,0.00675 0.029696,0.016353 0.041754,0.028732 0.012055,0.012379 0.021265,0.02651 0.027699,0.042426 0.00643,0.015916 0.00966,0.032941 0.00966,0.051108 0,0.017685 -0.00338,0.034663 -0.010129,0.050901 -0.00675,0.016077 -0.016157,0.030305 -0.028215,0.042685 -0.011897,0.012378 -0.025643,0.02188 -0.041238,0.028474 -0.015434,0.00659 -0.031833,0.00987 -0.049196,0.00987 -0.017524,0 -0.034164,-0.00328 -0.049919,-0.00987 -0.015755,-0.00675 -0.029547,-0.016353 -0.041445,-0.028732 -0.00643,-0.00643 -0.011933,-0.013086 -0.016433,-0.019999 -0.0045,-0.00691 -0.00836,-0.014487 -0.011575,-0.022686 -0.00643,-0.015755 -0.00961,-0.032636 -0.00961,-0.050643 0,-0.00949 7.705e-4,-0.018311 0.00238,-0.02651 0.00161,-0.0082 0.00402,-0.016399 0.00723,-0.024598 0.00691,-0.016399 0.016221,-0.030627 0.027957,-0.042685 0.012379,-0.012699 0.026321,-0.022247 0.041755,-0.02868 0.015107,-0.00639 0.031089,-0.00972 0.048007,-0.00992 z m 1.5099855,0.047026 0.0068,0.022428 0.0065,0.017622 0.03617,0.080564 h -0.09839 l 0.03622,-0.080564 c 0.0025,-0.00595 0.0047,-0.012072 0.0065,-0.018345 0.0013,-0.00354 0.0023,-0.00692 0.0031,-0.010129 9.34e-4,-0.00322 0.002,-0.00708 0.0031,-0.011576 z m -2.5040334,0.00196 0.00672,0.022427 0.00651,0.01757 0.036174,0.080564 h -0.098392 l 0.036173,-0.080564 c 0.00257,-0.00595 0.00474,-0.01202 0.00651,-0.018293 0.00129,-0.00354 0.00235,-0.00692 0.00315,-0.010129 9.667e-4,-0.00322 0.00203,-0.00708 0.00315,-0.011575 z m 1.4696264,0.080408 v 1.8329113 l -0.9164819,-1.5873449 -0.07705,0.044493 0.9994729,1.7311089 0.0385,-0.02222 h 5.2e-5 l 0.0385,0.02222 0.999474,-1.7311089 -0.07705,-0.044493 -0.91643,1.5872939 V 8.4830481 Z M 4.2062032,8.6885653 4.0367045,9.0524707 V 9.0042049 H 3.9083919 V 8.7025179 H 3.8509799 V 9.0555713 H 4.036705 4.095513 l 0.041031,-0.090899 h 0.1398364 l 0.040049,0.090899 h 0.060513 z m 0.2040186,0 v 0.367006 h 0.052813 V 8.8101082 c 0.00498,0.00707 0.010388,0.01397 0.016175,0.020722 0.00482,0.00547 0.00781,0.00874 0.00894,0.00987 0.00257,0.00273 0.00551,0.00573 0.00889,0.00894 l 0.2288733,0.219677 V 8.7025179 h -0.053072 v 0.2447913 c -0.00708,-0.009 -0.013634,-0.016816 -0.01974,-0.023409 L 4.6344975,8.904366 Z m 1.0343554,0 -0.1709973,0.367006 h 0.060306 l 0.040979,-0.090899 H 5.514753 l 0.039998,0.090899 h 0.060565 z m -0.6376355,0.013953 v 0.3530534 l 0.077411,5.17e-5 h 0.015451 c 0.0209,0 0.038987,-6.771e-4 0.05426,-0.00196 0.015274,-0.00129 0.027814,-0.00312 0.037621,-0.00553 0.019935,-0.00531 0.03754,-0.013843 0.052813,-0.02558 0.020579,-0.016077 0.036059,-0.036139 0.046509,-0.060255 0.01045,-0.024116 0.01571,-0.051803 0.01571,-0.082992 0,-0.031351 -0.00531,-0.059227 -0.015916,-0.083664 -0.010611,-0.024598 -0.026045,-0.044614 -0.046302,-0.060048 -0.015755,-0.012055 -0.033796,-0.020593 -0.054054,-0.02558 -0.020096,-0.00499 -0.055448,-0.00749 -0.1060917,-0.00749 z m 0.8416541,0 v 0.353053 H 5.8342692 V 9.0042049 H 5.7059566 v -0.301687 z m 0.1950785,0 v 0.048731 h 0.093793 v 0.3043225 h 0.057413 v -0.304323 h 0.093328 v -0.048731 z m -0.9793201,0.051366 h 0.020722 0.020722 c 0.028939,0 0.050597,0.00188 0.064906,0.00558 0.014469,0.0037 0.026528,0.00958 0.036173,0.017622 0.013343,0.011415 0.023276,0.025689 0.029869,0.042891 0.00675,0.017042 0.010129,0.036673 0.010129,0.05886 0,0.022669 -0.00338,0.042541 -0.010129,0.059583 -0.00675,0.016881 -0.016686,0.030914 -0.029869,0.042168 -0.00965,0.00852 -0.021176,0.014547 -0.03452,0.018087 -0.013183,0.00337 -0.033102,0.00506 -0.05979,0.00506 h -0.048214 z m -0.6576342,0.042478 0.00672,0.022428 0.00651,0.01757 0.036174,0.080564 H 4.157732 l 0.036174,-0.080564 c 0.00257,-0.00595 0.00474,-0.01202 0.00651,-0.018294 0.00128,-0.00354 0.00235,-0.00692 0.00315,-0.010129 9.667e-4,-0.00322 0.00203,-0.00708 0.00315,-0.011575 z m 1.2383223,0 0.00677,0.022428 0.00651,0.01757 0.036174,0.080564 h -0.098392 l 0.036173,-0.080564 c 0.00257,-0.00595 0.00474,-0.01202 0.00651,-0.018294 0.00129,-0.00354 0.00229,-0.00692 0.0031,-0.010129 9.6e-4,-0.00322 0.00203,-0.00708 0.00315,-0.011575 z" /></g></g></g></svg>
