<?xml version="1.0" encoding="UTF-8" standalone="no"?>
<!-- Created with Inkscape (http://www.inkscape.org/) -->

<svg
   width="210mm"
   height="297mm"
   viewBox="0 0 210 297"
   version="1.1"
   id="svg1"
   xml:space="preserve"
   inkscape:version="1.3.1 (91b66b0783, 2023-11-16)"
   sodipodi:docname="OH_13_combined.svg"
   xmlns:inkscape="http://www.inkscape.org/namespaces/inkscape"
   xmlns:sodipodi="http://sodipodi.sourceforge.net/DTD/sodipodi-0.dtd"
   xmlns="http://www.w3.org/2000/svg"
   xmlns:svg="http://www.w3.org/2000/svg"><sodipodi:namedview
     id="namedview1"
     pagecolor="#505050"
     bordercolor="#ffffff"
     borderopacity="1"
     inkscape:showpageshadow="0"
     inkscape:pageopacity="0"
     inkscape:pagecheckerboard="1"
     inkscape:deskcolor="#d1d1d1"
     inkscape:document-units="mm"
     showgrid="false"
     inkscape:zoom="0.66724888"
     inkscape:cx="396.40381"
     inkscape:cy="561.25984"
     inkscape:current-layer="layer1" /><defs
     id="defs1" /><g
     inkscape:label="Layer 1"
     inkscape:groupmode="layer"
     id="layer1"><g
       id="g1"
       transform="matrix(0,10,-10,0,159.5455,73.093055)"><path
         d="m -11.343204,-9.0791763 a 0.075,0.075 -180 0 1 0.075,-0.075 H 3.8217965 a 0.075,0.075 -90 0 1 0.075,0.075 v 14.455 a 0.075,0.075 0 0 1 -0.075,0.075 H -11.268204 a 0.075,0.075 90 0 1 -0.075,-0.075 z"
         transform="matrix(1,0,0,-1,11.343204,5.4508237)"
         fill="#000000"
         stroke-linecap="round"
         stroke-linejoin="round"
         id="path1" /><path
         d="m -10.955977,-3.414685 a 4.09,4.09 0 1 1 8.1799999,0 4.09,4.09 0 1 1 -8.1799999,0 z"
         transform="matrix(1,0,0,-1,11.343204,5.4508237)"
         fill="#ffffff"
         stroke="#000000"
         stroke-width="0.001cm"
         stroke-linecap="round"
         stroke-linejoin="round"
         id="path2" /><path
         d="m -3.3153682,-1.2896848 a 0.13,0.13 0 1 1 0.26,0 0.13,0.13 0 1 1 -0.26,0 z"
         transform="matrix(1,0,0,-1,11.343204,5.4508237)"
         fill="#ffffff"
         stroke="#000000"
         stroke-width="0.001cm"
         stroke-linecap="round"
         stroke-linejoin="round"
         id="path3" /><path
         d="m -10.676584,-1.2896848 a 0.13,0.13 0 1 1 0.26,0 0.13,0.13 0 1 1 -0.26,0 z"
         transform="matrix(1,0,0,-1,11.343204,5.4508237)"
         fill="#ffffff"
         stroke="#000000"
         stroke-width="0.001cm"
         stroke-linecap="round"
         stroke-linejoin="round"
         id="path4" /><path
         d="m -9.1209761,-7.0952928 a 0.13,0.13 0 1 1 0.26,0 0.13,0.13 0 1 1 -0.26,0 z"
         transform="matrix(1,0,0,-1,11.343204,5.4508237)"
         fill="#ffffff"
         stroke="#000000"
         stroke-width="0.001cm"
         stroke-linecap="round"
         stroke-linejoin="round"
         id="path5" /><path
         d="m -3.3153682,-5.5396848 a 0.13,0.13 0 1 1 0.26,0 0.13,0.13 0 1 1 -0.26,0 z"
         transform="matrix(1,0,0,-1,11.343204,5.4508237)"
         fill="#ffffff"
         stroke="#000000"
         stroke-width="0.001cm"
         stroke-linecap="round"
         stroke-linejoin="round"
         id="path6" /><path
         d="m -4.8709761,0.2659231 a 0.13,0.13 0 1 1 0.26,0 0.13,0.13 0 1 1 -0.26,0 z"
         transform="matrix(1,0,0,-1,11.343204,5.4508237)"
         fill="#ffffff"
         stroke="#000000"
         stroke-width="0.001cm"
         stroke-linecap="round"
         stroke-linejoin="round"
         id="path7" /><path
         d="m -10.676584,-5.5396848 a 0.13,0.13 0 1 1 0.26,0 0.13,0.13 0 1 1 -0.26,0 z"
         transform="matrix(1,0,0,-1,11.343204,5.4508237)"
         fill="#ffffff"
         stroke="#000000"
         stroke-width="0.001cm"
         stroke-linecap="round"
         stroke-linejoin="round"
         id="path8" /><path
         d="m -9.1209761,0.2659231 a 0.13,0.13 0 1 1 0.26,0 0.13,0.13 0 1 1 -0.26,0 z"
         transform="matrix(1,0,0,-1,11.343204,5.4508237)"
         fill="#ffffff"
         stroke="#000000"
         stroke-width="0.001cm"
         stroke-linecap="round"
         stroke-linejoin="round"
         id="path9" /><path
         d="m -4.8709761,-7.0952928 a 0.13,0.13 0 1 1 0.26,0 0.13,0.13 0 1 1 -0.26,0 z"
         transform="matrix(1,0,0,-1,11.343204,5.4508237)"
         fill="#ffffff"
         stroke="#000000"
         stroke-width="0.001cm"
         stroke-linecap="round"
         stroke-linejoin="round"
         id="path10" /><path
         d="m 0.6045965,-6.0087071 a 2.59,2.59 -89.999042 1 0 2.5899522,2.5851862 l -0.00388,-2.0899919 A 0.5,0.5 -0.1064909 0 0 2.6897358,-6.0125826 Z"
         transform="matrix(1,0,0,-1,11.343204,5.4508237)"
         fill="#ffffff"
         stroke="#000000"
         stroke-width="0.001cm"
         stroke-linecap="round"
         stroke-linejoin="round"
         id="path11" /><path
         d="m -7.8792125,2.5827901 a 0.625,0.625 0 1 1 1.25,0 0.625,0.625 0 1 1 -1.25,0 z"
         transform="matrix(1,0,0,-1,11.343204,5.4508237)"
         fill="#ffffff"
         stroke="#000000"
         stroke-width="0.001cm"
         stroke-linecap="round"
         stroke-linejoin="round"
         id="path12" /><path
         d="m -10.238454,-8.6779263 a 0.32400025,0.32400025 0 1 1 0.6480005,0 0.32400025,0.32400025 0 1 1 -0.6480005,0 z"
         transform="matrix(1,0,0,-1,11.343204,5.4508237)"
         fill="#ffffff"
         stroke="#000000"
         stroke-width="0.001cm"
         stroke-linecap="round"
         stroke-linejoin="round"
         id="path13" /><path
         d="m 2.1440465,-8.6779263 a 0.324,0.324 0 1 1 0.648,0 0.324,0.324 0 1 1 -0.648,0 z"
         transform="matrix(1,0,0,-1,11.343204,5.4508237)"
         fill="#ffffff"
         stroke="#000000"
         stroke-width="0.001cm"
         stroke-linecap="round"
         stroke-linejoin="round"
         id="path14" /><path
         d="m 2.1440465,4.9745737 a 0.324,0.324 0 1 1 0.648,0 0.324,0.324 0 1 1 -0.648,0 z"
         transform="matrix(1,0,0,-1,11.343204,5.4508237)"
         fill="#ffffff"
         stroke="#000000"
         stroke-width="0.001cm"
         stroke-linecap="round"
         stroke-linejoin="round"
         id="path15" /><path
         d="m -10.238454,4.9745737 a 0.32400025,0.32400025 0 1 1 0.6480005,0 0.32400025,0.32400025 0 1 1 -0.6480005,0 z"
         transform="matrix(1,0,0,-1,11.343204,5.4508237)"
         fill="#ffffff"
         stroke="#000000"
         stroke-width="0.001cm"
         stroke-linecap="round"
         stroke-linejoin="round"
         id="path16" /><path
         d="m -1.8048478,-5.5827031 a 0.16,0.16 0 1 1 0.32,0 0.16,0.16 0 1 1 -0.32,0 z"
         transform="matrix(1,0,0,-1,11.343204,5.4508237)"
         fill="#ffffff"
         stroke="#000000"
         stroke-width="0.001cm"
         stroke-linecap="round"
         stroke-linejoin="round"
         id="path17" /><path
         d="m 2.6939542,-1.2547112 a 0.16,0.16 0 1 1 0.32,0 0.16,0.16 0 1 1 -0.32,0 z"
         transform="matrix(1,0,0,-1,11.343204,5.4508237)"
         fill="#ffffff"
         stroke="#000000"
         stroke-width="0.001cm"
         stroke-linecap="round"
         stroke-linejoin="round"
         id="path18" /><path
         d="m -10.625855,2.5827901 a 0.16,0.16 0 1 1 0.32,0 0.16,0.16 0 1 1 -0.32,0 z"
         transform="matrix(1,0,0,-1,11.343204,5.4508237)"
         fill="#ffffff"
         stroke="#000000"
         stroke-width="0.001cm"
         stroke-linecap="round"
         stroke-linejoin="round"
         id="path19" /><path
         d="m 3.0606814,2.5827901 a 0.16,0.16 0 1 1 0.32,0 0.16,0.16 0 1 1 -0.32,0 z"
         transform="matrix(1,0,0,-1,11.343204,5.4508237)"
         fill="#ffffff"
         stroke="#000000"
         stroke-width="0.001cm"
         stroke-linecap="round"
         stroke-linejoin="round"
         id="path20" /><path
         d="m -10.823464,0.3828025 a 0.16,0.16 0 1 1 0.32,0 0.16,0.16 0 1 1 -0.32,0 z"
         transform="matrix(1,0,0,-1,11.343204,5.4508237)"
         fill="#ffffff"
         stroke="#000000"
         stroke-width="0.001cm"
         stroke-linecap="round"
         stroke-linejoin="round"
         id="path21" /><path
         d="m -3.2284888,0.3828025 a 0.16,0.16 0 1 1 0.32,0 0.16,0.16 0 1 1 -0.32,0 z"
         transform="matrix(1,0,0,-1,11.343204,5.4508237)"
         fill="#ffffff"
         stroke="#000000"
         stroke-width="0.001cm"
         stroke-linecap="round"
         stroke-linejoin="round"
         id="path22" /><path
         d="m -10.823464,-7.2121722 a 0.16,0.16 0 1 1 0.32,0 0.16,0.16 0 1 1 -0.32,0 z"
         transform="matrix(1,0,0,-1,11.343204,5.4508237)"
         fill="#ffffff"
         stroke="#000000"
         stroke-width="0.001cm"
         stroke-linecap="round"
         stroke-linejoin="round"
         id="path23" /><path
         d="m -3.2284888,-7.2121722 a 0.16,0.16 0 1 1 0.32,0 0.16,0.16 0 1 1 -0.32,0 z"
         transform="matrix(1,0,0,-1,11.343204,5.4508237)"
         fill="#ffffff"
         stroke="#000000"
         stroke-width="0.001cm"
         stroke-linecap="round"
         stroke-linejoin="round"
         id="path24" /></g><g
       id="g2"
       transform="matrix(0,10,-10,0,210,73.1)"><path
         d="m 7.3812,-1.7567336 a 0.1588,0.1588 -90 0 1 0.1588,0.1588 v 3.1958672 a 0.1588,0.1588 0 0 1 -0.1588,0.1588 H -7.3812 a 0.1588,0.1588 90 0 1 -0.1588,-0.1588 v -3.1958672 a 0.1588,0.1588 -180 0 1 0.1588,-0.1588 z"
         transform="matrix(1,0,0,-1,7.54,1.7567336)"
         fill="#000000"
         stroke-linecap="round"
         stroke-linejoin="round"
         id="path1-8" /><path
         d="m -4.251009,-0.0794 a 0.72,0.72 0 1 1 1.44,0 0.72,0.72 0 1 1 -1.44,0 z"
         transform="matrix(1,0,0,-1,7.54,1.7567336)"
         fill="#ffffff"
         stroke="#000000"
         stroke-width="0.001cm"
         stroke-linecap="round"
         stroke-linejoin="round"
         id="path2-2" /><path
         d="m 6.7838849,-0.0794 a 0.16,0.16 0 1 1 0.32,0 0.16,0.16 0 1 1 -0.32,0 z"
         transform="matrix(1,0,0,-1,7.54,1.7567336)"
         fill="#ffffff"
         stroke="#000000"
         stroke-width="0.001cm"
         stroke-linecap="round"
         stroke-linejoin="round"
         id="path3-6" /><path
         d="m -6.9026519,-0.0794 a 0.16,0.16 0 1 1 0.32,0 0.16,0.16 0 1 1 -0.32,0 z"
         transform="matrix(1,0,0,-1,7.54,1.7567336)"
         fill="#ffffff"
         stroke="#000000"
         stroke-width="0.001cm"
         stroke-linecap="round"
         stroke-linejoin="round"
         id="path4-2" /></g></g></svg>
