<?xml version="1.0" encoding="utf-8"?>
<!-- Generator: Fusion 360, Shaper Origin Export Add-In, Version 1.7.0  -->
<svg xmlns="http://www.w3.org/2000/svg" xmlns:xlink="http://www.w3.org/1999/xlink" xmlns:shaper="http://www.shapertools.com/namespaces/shaper" shaper:fusionaddin="version:1.7.0" width="14.605cm" height="3.81cm" version="1.1" x="0cm" y="0cm" viewBox="0 0 14.605 3.81" enable-background="new 0 0 14.605 3.81" xml:space="preserve"><path d="M-3.87375,1.905 A0.075,0.075 90 0,1 -3.94875,1.83 L-3.94875,-1.83 A0.075,0.075 180 0,1 -3.87375,-1.905 L10.58125,-1.905 A0.075,0.075 270 0,1 10.65625,-1.83 L10.65625,1.83 A0.075,0.075 0 0,1 10.58125,1.905 L-3.87375,1.905z" transform="matrix(1,0,0,-1,3.94875,1.905)" fill="rgb(0,0,0)" stroke-linecap="round" stroke-linejoin="round" /><path d="M7.64375,1.15 a0.16,0.16 0 1,1 0.32,0 a0.16,0.16 0 1,1 -0.32,0z" transform="matrix(1,0,0,-1,3.94875,1.905)" fill="rgb(255,255,255)" stroke="rgb(0,0,0)" stroke-width="0.0010cm" stroke-linecap="round" stroke-linejoin="round" /><path d="M2.04375,-1.15 a0.16,0.16 0 1,1 0.32,0 a0.16,0.16 0 1,1 -0.32,0z" transform="matrix(1,0,0,-1,3.94875,1.905)" fill="rgb(255,255,255)" stroke="rgb(0,0,0)" stroke-width="0.0010cm" stroke-linecap="round" stroke-linejoin="round" /><path d="M2.75875,-0 a0.595,0.595 0 1,1 1.19,0 a0.595,0.595 0 1,1 -1.19,0z" transform="matrix(1,0,0,-1,3.94875,1.905)" fill="rgb(255,255,255)" stroke="rgb(0,0,0)" stroke-width="0.0010cm" stroke-linecap="round" stroke-linejoin="round" /><path d="M-3.7965,-0.47625 a0.324,0.324 0 1,1 0.648,0 a0.324,0.324 0 1,1 -0.648,0z" transform="matrix(1,0,0,-1,3.94875,1.905)" fill="rgb(255,255,255)" stroke="rgb(0,0,0)" stroke-width="0.0010cm" stroke-linecap="round" stroke-linejoin="round" /><path d="M9.856,0.47625 a0.324,0.324 0 1,1 0.648,0 a0.324,0.324 0 1,1 -0.648,0z" transform="matrix(1,0,0,-1,3.94875,1.905)" fill="rgb(255,255,255)" stroke="rgb(0,0,0)" stroke-width="0.0010cm" stroke-linecap="round" stroke-linejoin="round" /></svg>