<?xml version="1.0" encoding="UTF-8" standalone="no"?>
<!-- Generator: Fusion 360, Shaper Origin Export Add-In, Version 1.7.0  -->

<svg
   shaper:fusionaddin="version:1.7.0"
   width="12.5912cm"
   height="3.7cm"
   version="1.1"
   x="0cm"
   y="0cm"
   viewBox="0 0 12.5912 3.7"
   enable-background="new 0 0 12.5412 3.65"
   xml:space="preserve"
   id="svg4"
   sodipodi:docname="OH_14_2.svg"
   inkscape:version="1.3 (0e150ed6c4, 2023-07-21)"
   xmlns:inkscape="http://www.inkscape.org/namespaces/inkscape"
   xmlns:sodipodi="http://sodipodi.sourceforge.net/DTD/sodipodi-0.dtd"
   xmlns="http://www.w3.org/2000/svg"
   xmlns:svg="http://www.w3.org/2000/svg"
   xmlns:shaper="http://www.shapertools.com/namespaces/shaper"><defs
     id="defs4"><rect
       x="52.442343"
       y="15.127599"
       width="153.79726"
       height="76.14225"
       id="rect4" /><rect
       x="52.442345"
       y="15.127599"
       width="153.79726"
       height="76.14225"
       id="rect4-0" /><rect
       x="52.442345"
       y="15.127599"
       width="153.79726"
       height="76.14225"
       id="rect4-1" /><rect
       x="52.442345"
       y="15.127599"
       width="153.79726"
       height="76.14225"
       id="rect4-9" /><rect
       x="52.442345"
       y="15.127599"
       width="153.79726"
       height="76.14225"
       id="rect4-3" /><rect
       x="52.442345"
       y="15.127599"
       width="153.79726"
       height="76.14225"
       id="rect4-4" /><rect
       x="52.442345"
       y="15.127599"
       width="153.79726"
       height="76.14225"
       id="rect4-4-8" /><rect
       x="52.442345"
       y="15.127599"
       width="153.79726"
       height="76.14225"
       id="rect11" /><rect
       x="52.442343"
       y="15.127599"
       width="153.79726"
       height="76.14225"
       id="rect12" /><rect
       x="52.442345"
       y="15.127599"
       width="153.79726"
       height="76.14225"
       id="rect13" /><rect
       x="52.442345"
       y="15.127599"
       width="153.79726"
       height="76.14225"
       id="rect14" /></defs><sodipodi:namedview
     id="namedview4"
     pagecolor="#505050"
     bordercolor="#ffffff"
     borderopacity="1"
     inkscape:showpageshadow="0"
     inkscape:pageopacity="0"
     inkscape:pagecheckerboard="1"
     inkscape:deskcolor="#d1d1d1"
     inkscape:document-units="cm"
     showgrid="false"
     showguides="true"
     inkscape:zoom="2.8045698"
     inkscape:cx="109.82076"
     inkscape:cy="50.09681"
     inkscape:current-layer="svg4"><sodipodi:guide
       position="6.2955999,1.8500001"
       orientation="1,0"
       id="guide4"
       inkscape:locked="false" /></sodipodi:namedview><path
     d="M 0.025,3.5162 A 0.1588,0.1588 0 0 0 0.1838,3.675 H 12.4074 A 0.1588,0.1588 0 0 0 12.5662,3.5162 V 0.1838 A 0.1588,0.1588 0 0 0 12.4074,0.025 H 0.1838 A 0.1588,0.1588 0 0 0 0.025,0.1838 Z"
     fill="rgb(0,0,0)"
     stroke-linecap="round"
     stroke-linejoin="round"
     id="path1"
     style="fill:none;stroke:#000000;stroke-width:0.05;stroke-dasharray:none;stroke-opacity:1" /><path
     d="m 1.6856,3 a 0.16,0.16 0 1 0 0.32,0 0.16,0.16 0 1 0 -0.32,0 z"
     fill="rgb(255,255,255)"
     stroke="rgb(0,0,0)"
     stroke-width="0.0010cm"
     stroke-linecap="round"
     stroke-linejoin="round"
     id="path2"
     style="fill:none;stroke:#000000;stroke-width:0.05;stroke-dasharray:none;stroke-opacity:1" /><path
     d="m 7.2856,0.7 a 0.16,0.16 0 1 0 0.32,0 0.16,0.16 0 1 0 -0.32,0 z"
     fill="rgb(255,255,255)"
     stroke="rgb(0,0,0)"
     stroke-width="0.0010cm"
     stroke-linecap="round"
     stroke-linejoin="round"
     id="path3"
     style="fill:none;stroke:#000000;stroke-width:0.05;stroke-dasharray:none;stroke-opacity:1" /><path
     d="m 5.5756,1.85 a 0.72,0.72 0 1 0 1.44,0 0.72,0.72 0 1 0 -1.44,0 z"
     fill="rgb(255,255,255)"
     stroke="rgb(0,0,0)"
     stroke-width="0.0010cm"
     stroke-linecap="round"
     stroke-linejoin="round"
     id="path4"
     style="fill:none;stroke:#000000;stroke-width:0.05;stroke-dasharray:none;stroke-opacity:1" /><g
     id="g1"
     transform="translate(-1.095014,0.27436932)"
     style="display:none"><text
       xml:space="preserve"
       transform="matrix(0.02645833,0,0,0.02645833,0.5694168,0.3642156)"
       id="text4-3"
       style="font-size:24px;font-family:'Futura Md BT';-inkscape-font-specification:'Futura Md BT, Normal';text-align:center;word-spacing:-1.97px;text-orientation:upright;white-space:pre;shape-inside:url(#rect4-3);display:inline;fill:none;stroke:#000000;stroke-width:1.88976;stroke-dasharray:none;stroke-opacity:1"><tspan
         x="68.514648"
         y="36.361328"
         id="tspan2"><tspan
           style="fill:#bfbfbf;stroke:none"
           id="tspan1">RECORDER</tspan></tspan></text><text
       xml:space="preserve"
       transform="matrix(0.02645833,0,0,0.02645833,0.52132082,-0.22100251)"
       id="text4"
       style="font-size:24px;font-family:'Futura Md BT';-inkscape-font-specification:'Futura Md BT, Normal';text-align:center;word-spacing:-1.97px;text-orientation:upright;white-space:pre;shape-inside:url(#rect4);fill:none;stroke:#000000;stroke-width:1.88976;stroke-dasharray:none;stroke-opacity:1"><tspan
         x="93.106445"
         y="36.361328"
         id="tspan4"><tspan
           dx="0 0 0 0 0 1.97"
           style="fill:#bfbfbf;stroke:none"
           id="tspan3">VOICE&#10;</tspan></tspan></text><text
       xml:space="preserve"
       transform="matrix(0.02645833,0,0,0.02645833,3.9848704,-0.51097117)"
       id="text4-5"
       style="font-size:24px;font-family:'Futura Md BT';-inkscape-font-specification:'Futura Md BT, Normal';text-align:center;word-spacing:-1.97px;text-orientation:upright;white-space:pre;shape-inside:url(#rect4-4);fill:none;stroke:#000000;stroke-width:1.88976;stroke-dasharray:none;stroke-opacity:1"><tspan
         x="103.38244"
         y="36.361328"
         id="tspan6"><tspan
           style="font-size:18.6667px;fill:#bfbfbf;stroke:none"
           id="tspan5">AUTO</tspan></tspan></text><text
       xml:space="preserve"
       transform="matrix(0.02645833,0,0,0.02645833,3.9761887,2.1331166)"
       id="text4-5-1"
       style="font-size:24px;font-family:'Futura Md BT';-inkscape-font-specification:'Futura Md BT, Normal';text-align:center;word-spacing:-1.97px;text-orientation:upright;white-space:pre;shape-inside:url(#rect4-4-8);fill:none;stroke:#000000;stroke-width:1.88976;stroke-dasharray:none;stroke-opacity:1"><tspan
         x="113.75941"
         y="36.361328"
         id="tspan8"><tspan
           style="font-size:18.6667px;fill:#bfbfbf;stroke:none"
           id="tspan7">ON</tspan></tspan></text></g><g
     id="g11"
     transform="translate(-1.095014,0.27436932)"
     style="display:inline;stroke:none;stroke-opacity:1;fill:#ffffff;fill-opacity:1"
     inkscape:highlight-color="#14ff00"><g
       id="g14"
       style="fill:#ffffff;fill-opacity:1"><path
         style="font-size:24px;font-family:'Futura Md BT';-inkscape-font-specification:'Futura Md BT, Normal';text-align:center;word-spacing:-1.97px;text-orientation:upright;white-space:pre;fill:#ffffff;stroke-width:1.88976;fill-opacity:1"
         d="m 73.272461,26.517578 h 0.503906 q 2.214844,0 2.941406,-0.515625 0.726563,-0.515625 0.726563,-1.828125 0,-1.394531 -0.785156,-1.980469 -0.785157,-0.597656 -2.882813,-0.597656 h -0.503906 z m -0.175781,2.167969 v 7.675781 h -2.613282 v -17.15625 h 3.890625 q 1.722657,0 2.660157,0.222656 0.9375,0.210938 1.605468,0.738282 0.796875,0.621093 1.230469,1.605468 0.199219,0.46875 0.316406,1.03125 0.117188,0.550782 0.117188,1.125 0,2.0625 -0.984375,3.222657 -0.984375,1.160156 -2.953125,1.40625 l 5.90625,7.804687 h -3.152344 l -5.707031,-7.675781 z m 10.828125,7.675781 v -17.15625 h 9.574218 v 2.367188 h -6.785156 v 4.300781 h 6.785156 v 2.449219 h -6.785156 v 5.542968 h 6.785156 v 2.496094 z M 110.46777,23.376953 q -1.18359,-1.007812 -2.50781,-1.511719 -0.65625,-0.246093 -1.34766,-0.375 -0.67968,-0.128906 -1.41796,-0.128906 -2.8125,0 -4.58204,1.804688 -1.757808,1.792968 -1.757808,4.675781 0,2.789062 1.722658,4.59375 1.72265,1.792969 4.32422,1.792969 0.77343,0 1.46484,-0.128907 0.70313,-0.128906 1.42969,-0.410156 1.37109,-0.527344 2.64844,-1.628906 v 3.152344 q -1.125,0.808593 -2.44922,1.207031 -0.64453,0.1875 -1.38282,0.292969 -0.72656,0.105468 -1.48828,0.105468 -1.96875,0 -3.63281,-0.632812 -1.652343,-0.644531 -2.929687,-1.886719 -1.265625,-1.253906 -1.945312,-2.917969 -0.667969,-1.675781 -0.667969,-3.5625 0,-1.863281 0.667969,-3.539062 0.679687,-1.675781 1.945312,-2.929688 1.277344,-1.253906 2.941407,-1.898437 1.66406,-0.65625 3.57422,-0.65625 0.77344,0 1.47656,0.105469 0.70313,0.105468 1.40625,0.339843 1.38281,0.421875 2.66016,1.324219 z m 18.14063,4.441406 q 0,-1.324218 -0.46875,-2.484375 -0.46875,-1.160156 -1.34766,-2.0625 -0.8789,-0.902343 -2.02734,-1.394531 -1.13672,-0.492187 -2.41406,-0.492187 -1.27735,0 -2.41407,0.480468 -1.125,0.46875 -2.02734,1.394532 -0.85547,0.878906 -1.35938,2.074218 -0.23437,0.597657 -0.35156,1.195313 -0.11719,0.597656 -0.11719,1.289062 0,1.3125 0.46875,2.460938 0.23438,0.597656 0.5625,1.101562 0.32813,0.503907 0.79688,0.972657 0.86719,0.902343 2.01562,1.394531 1.14844,0.480469 2.42579,0.480469 1.26562,0 2.39062,-0.480469 1.13672,-0.480469 2.00391,-1.382813 0.8789,-0.902343 1.37109,-2.074218 0.49219,-1.183594 0.49219,-2.472657 z m 2.90625,0 q 0,1.851563 -0.67969,3.46875 -0.67969,1.605469 -1.99219,2.871094 -1.3125,1.265625 -3,1.96875 -1.67578,0.691406 -3.49218,0.691406 -1.85157,0 -3.53907,-0.679687 -1.67578,-0.691406 -2.96484,-1.945313 -1.28906,-1.265625 -1.98047,-2.90625 -0.69141,-1.640625 -0.69141,-3.46875 0,-1.828125 0.67969,-3.46875 0.67969,-1.640625 1.98047,-2.90625 1.3125,-1.277343 2.97656,-1.945312 1.66407,-0.679688 3.53907,-0.679688 1.82812,0 3.48046,0.667969 1.66407,0.667969 2.97657,1.957031 1.3125,1.277344 2.0039,2.917969 0.70313,1.640625 0.70313,3.457031 z m 5.98828,-1.300781 h 0.50391 q 2.21484,0 2.9414,-0.515625 0.72656,-0.515625 0.72656,-1.828125 0,-1.394531 -0.78515,-1.980469 -0.78516,-0.597656 -2.88281,-0.597656 h -0.50391 z m -0.17578,2.167969 v 7.675781 h -2.61328 v -17.15625 h 3.89062 q 1.72266,0 2.66016,0.222656 0.9375,0.210938 1.60547,0.738282 0.79687,0.621093 1.23047,1.605468 0.19921,0.46875 0.3164,1.03125 0.11719,0.550782 0.11719,1.125 0,2.0625 -0.98438,3.222657 -0.98437,1.160156 -2.95312,1.40625 l 5.90625,7.804687 h -3.15234 l -5.70704,-7.675781 z m 13.61719,5.15625 h 2.34375 q 1.94531,0 2.90625,-0.246094 0.97265,-0.257812 1.67578,-0.878906 0.96093,-0.820313 1.45312,-2.050781 0.49219,-1.242188 0.49219,-2.894532 0,-1.617187 -0.49219,-2.859375 -0.48047,-1.253906 -1.45312,-2.085937 -0.70313,-0.585938 -1.75782,-0.855469 -1.04296,-0.269531 -3.15234,-0.269531 h -1.00781 -1.00781 z m -2.78907,2.519531 v -17.15625 h 3.76172 q 3.69141,0 5.15625,0.363281 1.47656,0.363282 2.625,1.242188 1.47656,1.125 2.25,2.917969 0.77344,1.78125 0.77344,4.066406 0,2.273437 -0.76172,4.03125 -0.76172,1.757812 -2.26172,2.929687 -1.11328,0.855469 -2.5664,1.242188 -0.71485,0.175781 -1.82813,0.269531 -1.11328,0.09375 -2.63672,0.09375 h -0.75 z m 17.76563,0 v -17.15625 h 9.57422 v 2.367188 h -6.78516 v 4.300781 h 6.78516 v 2.449219 h -6.78516 v 5.542968 h 6.78516 v 2.496094 z m 15.5625,-9.84375 h 0.5039 q 2.21485,0 2.94141,-0.515625 0.72656,-0.515625 0.72656,-1.828125 0,-1.394531 -0.78515,-1.980469 -0.78516,-0.597656 -2.88282,-0.597656 h -0.5039 z m -0.17578,2.167969 v 7.675781 h -2.61328 v -17.15625 h 3.89062 q 1.72266,0 2.66016,0.222656 0.9375,0.210938 1.60547,0.738282 0.79687,0.621093 1.23046,1.605468 0.19922,0.46875 0.31641,1.03125 0.11719,0.550782 0.11719,1.125 0,2.0625 -0.98438,3.222657 -0.98437,1.160156 -2.95312,1.40625 l 5.90625,7.804687 h -3.15235 l -5.70703,-7.675781 z"
         id="text6"
         transform="matrix(0.02645833,0,0,0.02645833,0.5694168,0.3642156)"
         aria-label="RECORDER" /><path
         style="font-size:24px;font-family:'Futura Md BT';-inkscape-font-specification:'Futura Md BT, Normal';text-align:center;word-spacing:-1.97px;text-orientation:upright;text-anchor:middle;white-space:pre;fill:#ffffff;stroke-width:1.88976;fill-opacity:1"
         d="M 100.52441,37.029297 92.87207,19.205078 h 2.894532 l 3.84375,9.140625 q 0.339843,0.785156 0.550778,1.476563 0.22266,0.679687 0.36328,1.277343 0.14063,-0.632812 0.38672,-1.335937 0.12891,-0.375 0.2461,-0.703125 0.1289,-0.339844 0.30468,-0.714844 l 3.83204,-9.140625 h 2.88281 z m 24.07032,-9.210938 q 0,-1.324218 -0.46875,-2.484375 -0.46875,-1.160156 -1.34766,-2.0625 -0.87891,-0.902343 -2.02734,-1.394531 -1.13672,-0.492187 -2.41407,-0.492187 -1.27734,0 -2.41406,0.480468 -1.125,0.46875 -2.02734,1.394532 -0.85547,0.878906 -1.35938,2.074218 -0.23437,0.597657 -0.35156,1.195313 -0.11719,0.597656 -0.11719,1.289062 0,1.3125 0.46875,2.460938 0.23438,0.597656 0.5625,1.101562 0.32813,0.503907 0.79688,0.972657 0.86719,0.902343 2.01562,1.394531 1.14844,0.480469 2.42578,0.480469 1.26563,0 2.39063,-0.480469 1.13672,-0.480469 2.00391,-1.382813 0.8789,-0.902343 1.37109,-2.074218 0.49219,-1.183594 0.49219,-2.472657 z m 2.90625,0 q 0,1.851563 -0.67969,3.46875 -0.67969,1.605469 -1.99219,2.871094 -1.3125,1.265625 -3,1.96875 -1.67578,0.691406 -3.49219,0.691406 -1.85156,0 -3.53906,-0.679687 -1.67578,-0.691406 -2.96484,-1.945313 -1.28906,-1.265625 -1.98047,-2.90625 -0.69141,-1.640625 -0.69141,-3.46875 0,-1.828125 0.67969,-3.46875 0.67969,-1.640625 1.98047,-2.90625 1.3125,-1.277343 2.97656,-1.945312 1.66406,-0.679688 3.53906,-0.679688 1.82813,0 3.48047,0.667969 1.66407,0.667969 2.97657,1.957031 1.3125,1.277344 2.0039,2.917969 0.70313,1.640625 0.70313,3.457031 z m 3.24609,8.542969 v -17.15625 h 2.78906 v 17.15625 z m 20.56641,-12.984375 q -1.1836,-1.007812 -2.50782,-1.511719 -0.65625,-0.246093 -1.34765,-0.375 -0.67969,-0.128906 -1.41797,-0.128906 -2.8125,0 -4.58203,1.804688 -1.75781,1.792968 -1.75781,4.675781 0,2.789062 1.72265,4.59375 1.72266,1.792969 4.32422,1.792969 0.77344,0 1.46484,-0.128907 0.70313,-0.128906 1.42969,-0.410156 1.3711,-0.527344 2.64844,-1.628906 v 3.152344 q -1.125,0.808593 -2.44922,1.207031 -0.64453,0.1875 -1.38281,0.292969 -0.72656,0.105468 -1.48828,0.105468 -1.96875,0 -3.63282,-0.632812 -1.65234,-0.644531 -2.92968,-1.886719 -1.26563,-1.253906 -1.94532,-2.917969 -0.66796,-1.675781 -0.66796,-3.5625 0,-1.863281 0.66796,-3.539062 0.67969,-1.675781 1.94532,-2.929688 1.27734,-1.253906 2.9414,-1.898437 1.66407,-0.65625 3.57422,-0.65625 0.77344,0 1.47656,0.105469 0.70313,0.105468 1.40625,0.339843 1.38282,0.421875 2.66016,1.324219 z m 3.45703,12.984375 v -17.15625 h 9.57422 v 2.367188 h -6.78516 v 4.300781 h 6.78516 v 2.449219 h -6.78516 v 5.542968 h 6.78516 v 2.496094 z"
         id="text7"
         transform="matrix(0.02645833,0,0,0.02645833,0.52132082,-0.22100251)"
         aria-label="VOICE&#10;" /><path
         style="font-size:18.6667px;font-family:'Futura Md BT';-inkscape-font-specification:'Futura Md BT, Normal';text-align:center;word-spacing:-1.97px;text-orientation:upright;white-space:pre;fill:#ffffff;stroke-width:1.88976;fill-opacity:1"
         d="m 107.7301,31.120433 h 3.71876 l -1.36719,-3.044276 -0.24609,-0.665366 -0.25521,-0.847658 q -0.0638,0.255209 -0.11849,0.437501 -0.0456,0.182292 -0.11849,0.382813 -0.10026,0.35547 -0.2461,0.69271 z m 5.99741,5.240895 -1.51302,-3.436204 h -5.28647 l -1.54948,3.436204 h -2.27865 l 6.46225,-13.872421 6.45314,13.872421 z m 3.49089,-13.343774 h 2.14193 v 8.102879 q 0,1.804691 0.82943,2.716151 0.83854,0.902345 2.4974,0.902345 1.63152,0 2.47006,-0.902345 0.84766,-0.91146 0.84766,-2.716151 v -8.102879 h 2.16927 v 8.3034 q 0,2.697922 -1.36719,4.046883 -1.36719,1.348961 -4.1198,1.348961 -2.74349,0 -4.11068,-1.339847 -1.35808,-1.339846 -1.35808,-4.055997 z m 18.25654,1.841149 v 11.502625 h -2.16927 V 24.858703 h -3.54558 v -1.841149 h 9.2422 v 1.841149 z m 16.60681,4.858082 q 0,-1.02995 -0.36459,-1.932295 -0.36458,-0.902346 -1.04818,-1.60417 -0.68359,-0.701824 -1.57682,-1.084637 -0.88412,-0.382813 -1.87761,-0.382813 -0.99349,0 -1.87761,0.373698 -0.875,0.364584 -1.57682,1.084638 -0.66537,0.683595 -1.0573,1.613284 -0.18229,0.464844 -0.27344,0.929689 -0.0911,0.464844 -0.0911,1.002606 0,1.020835 0.36458,1.914066 0.18229,0.464844 0.4375,0.856772 0.25521,0.391928 0.6198,0.756512 0.67448,0.701824 1.56771,1.084637 0.89323,0.373699 1.88672,0.373699 0.98438,0 1.85938,-0.373699 0.88411,-0.373698 1.55859,-1.075522 0.6836,-0.701825 1.06641,-1.613285 0.38282,-0.920574 0.38282,-1.92318 z m 2.26042,0 q 0,1.440107 -0.52865,2.697921 -0.52865,1.248701 -1.54948,2.233077 -1.02084,0.984377 -2.33334,1.531253 -1.30339,0.537762 -2.71615,0.537762 -1.44011,0 -2.75261,-0.528647 -1.30339,-0.537762 -2.30599,-1.513024 -1.00261,-0.984377 -1.54037,-2.260421 -0.53776,-1.276044 -0.53776,-2.697921 0,-1.421878 0.52864,-2.697922 0.52865,-1.276044 1.54037,-2.26042 1.02084,-0.993492 2.31511,-1.513024 1.29427,-0.528647 2.75261,-0.528647 1.42188,0 2.70704,0.519532 1.29427,0.519533 2.3151,1.522139 1.02084,0.993491 1.5586,2.269535 0.54688,1.276044 0.54688,2.688807 z"
         id="text9"
         transform="matrix(0.02645833,0,0,0.02645833,3.9848704,-0.51097117)"
         aria-label="AUTO" /><path
         style="font-size:18.6667px;font-family:'Futura Md BT';-inkscape-font-specification:'Futura Md BT, Normal';text-align:center;word-spacing:-1.97px;text-orientation:upright;white-space:pre;fill:#ffffff;stroke-width:1.88976;fill-opacity:1"
         d="m 126.71126,29.716785 q 0,-1.02995 -0.36459,-1.932295 -0.36458,-0.902346 -1.04817,-1.60417 -0.6836,-0.701824 -1.57683,-1.084637 -0.88412,-0.382813 -1.87761,-0.382813 -0.99349,0 -1.87761,0.373698 -0.875,0.364584 -1.57682,1.084638 -0.66537,0.683595 -1.05729,1.613284 -0.1823,0.464844 -0.27344,0.929689 -0.0911,0.464844 -0.0911,1.002606 0,1.020835 0.36459,1.914066 0.18229,0.464844 0.4375,0.856772 0.2552,0.391928 0.61979,0.756512 0.67448,0.701824 1.56771,1.084637 0.89323,0.373699 1.88672,0.373699 0.98438,0 1.85938,-0.373699 0.88412,-0.373698 1.5586,-1.075522 0.68359,-0.701825 1.06641,-1.613285 0.38281,-0.920574 0.38281,-1.92318 z m 2.26042,0 q 0,1.440107 -0.52865,2.697921 -0.52864,1.248701 -1.54948,2.233077 -1.02083,0.984377 -2.33334,1.531253 -1.30339,0.537762 -2.71615,0.537762 -1.4401,0 -2.75261,-0.528647 -1.30338,-0.537762 -2.30599,-1.513024 -1.00261,-0.984377 -1.54037,-2.260421 -0.53776,-1.276044 -0.53776,-2.697921 0,-1.421878 0.52865,-2.697922 0.52864,-1.276044 1.54036,-2.26042 1.02084,-0.993492 2.31511,-1.513024 1.29428,-0.528647 2.75261,-0.528647 1.42188,0 2.70704,0.519532 1.29427,0.519533 2.31511,1.522139 1.02083,0.993491 1.55859,2.269535 0.54688,1.276044 0.54688,2.688807 z m 2.48828,6.644543 V 22.488907 l 8.47658,8.157567 0.70183,0.738283 q 0.34635,0.373698 0.74739,0.884116 v -9.251319 h 2.00522 V 36.88086 l -8.64976,-8.3034 q -0.19141,-0.182292 -0.33724,-0.33724 -0.0638,-0.0638 -0.33724,-0.373699 -0.32813,-0.382813 -0.61068,-0.783855 v 9.278662 z"
         id="text11"
         transform="matrix(0.02645833,0,0,0.02645833,3.9761887,2.1331166)"
         aria-label="ON" /></g></g></svg>
