<?xml version="1.0" encoding="UTF-8" standalone="no"?>
<svg
   xmlns:dc="http://purl.org/dc/elements/1.1/"
   xmlns:cc="http://creativecommons.org/ns#"
   xmlns:rdf="http://www.w3.org/1999/02/22-rdf-syntax-ns#"
   xmlns:svg="http://www.w3.org/2000/svg"
   xmlns="http://www.w3.org/2000/svg"
   xmlns:sodipodi="http://sodipodi.sourceforge.net/DTD/sodipodi-0.dtd"
   xmlns:inkscape="http://www.inkscape.org/namespaces/inkscape"
   version="1.1"
   x="0px"
   y="0px"
   width="595.28px"
   height="822.05px"
   viewBox="0 0 595.28 822.05"
   enable-background="new 0 0 595.28 822.05"
   xml:space="preserve"
   id="svg195"
   sodipodi:docname="Decals-VerticalSpeed-Upgrade2b.svg"
   inkscape:version="1.0.1 (3bc2e813f5, 2020-09-07)"><metadata
   id="metadata201"><rdf:RDF><cc:Work
       rdf:about=""><dc:format>image/svg+xml</dc:format><dc:type
         rdf:resource="http://purl.org/dc/dcmitype/StillImage" /><dc:title></dc:title></cc:Work></rdf:RDF></metadata><defs
   id="defs199">
	
		
	
		
	
		
	
		
	
		
	
		
	
		
	
		
	
		
	
		
	
		
	
		
	
		
	
		
	
		
	
		
	
		
	
		
	
		
	
		
	
		
	
		
	
		
	
		
	
		
	
	
	
	
	
	
	
	
	
	
	
	
	
	
</defs><sodipodi:namedview
   pagecolor="#ffffff"
   bordercolor="#666666"
   borderopacity="1"
   objecttolerance="10"
   gridtolerance="10"
   guidetolerance="10"
   inkscape:pageopacity="0"
   inkscape:pageshadow="2"
   inkscape:window-width="1920"
   inkscape:window-height="1017"
   id="namedview197"
   showgrid="false"
   inkscape:zoom="1.0066647"
   inkscape:cx="297.64001"
   inkscape:cy="411.02499"
   inkscape:window-x="-8"
   inkscape:window-y="-8"
   inkscape:window-maximized="1"
   inkscape:current-layer="svg195" />
<g
   id="Layer_7"
   transform="matrix(1.28783,0,0,1.28783,-138.02142,-46.967843)">
	<g
   id="g31">
		<path
   d="m 320.658,54.606 c -1.682,-1.021 -4.867,-1.822 -6.83,-1.717 h -137.21 c -1.947,-0.104 -5.112,0.685 -6.783,1.691 l -21.712,11.548 c -2.706,1.239 -5.749,4.655 -6.667,7.486 l -13.126,33.518 c -0.591,1.325 -1.062,3.817 -0.995,5.267 v 116.783 c -0.067,1.449 0.404,3.941 0.995,5.268 l 13.126,33.518 c 1.103,3.387 4.809,7.089 8.197,8.188 l 29.578,11.548 c 1.322,0.587 3.809,1.055 5.253,0.989 H 305.99 c 1.445,0.065 3.93,-0.402 5.252,-0.989 l 29.58,-11.548 c 3.387,-1.1 7.094,-4.802 8.195,-8.188 l 13.127,-33.518 c 0.59,-1.326 1.061,-3.818 0.994,-5.268 V 112.4 c 0.066,-1.45 -0.404,-3.942 -0.994,-5.267 L 349.017,73.615 c -1.102,-3.387 -4.809,-7.089 -8.195,-8.188 z"
   id="path2" />
		<g
   id="CIRCLE_30_">
			<path
   fill="#ffffff"
   d="m 340.746,260.162 c 0,-3.391 -2.75,-6.14 -6.139,-6.14 -3.391,0 -6.141,2.749 -6.141,6.14 0,3.39 2.75,6.139 6.141,6.139 3.389,-10e-4 6.139,-2.75 6.139,-6.139 z"
   id="path4" />
		</g>
		<g
   id="CIRCLE_29_">
			<path
   fill="#ffffff"
   d="m 354.309,224.133 c 0,-2.198 -1.781,-3.98 -3.98,-3.98 -2.199,0 -3.98,1.782 -3.98,3.98 0,2.198 1.781,3.98 3.98,3.98 2.199,0 3.98,-1.781 3.98,-3.98 z"
   id="path7" />
		</g>
		<g
   id="CIRCLE_27_">
			<path
   fill="#ffffff"
   d="m 340.746,81.422 c 0,-3.391 -2.75,-6.139 -6.139,-6.139 -3.391,0 -6.141,2.749 -6.141,6.139 0,3.39 2.75,6.139 6.141,6.139 3.389,0 6.139,-2.749 6.139,-6.139 z"
   id="path10" />
		</g>
		<g
   id="CIRCLE_26_">
			<path
   fill="#ffffff"
   d="m 162.006,81.422 c 0,-3.391 -2.749,-6.139 -6.139,-6.139 -3.391,0 -6.14,2.749 -6.14,6.139 0,3.39 2.749,6.139 6.14,6.139 3.39,0 6.139,-2.749 6.139,-6.139 z"
   id="path13" />
		</g>
		<g
   id="CIRCLE_25_">
			<path
   fill="#ffffff"
   d="m 302.559,65.701 c 0,-2.199 -1.781,-3.981 -3.98,-3.981 -2.198,0 -3.98,1.782 -3.98,3.981 0,2.198 1.782,3.98 3.98,3.98 2.198,0 3.98,-1.782 3.98,-3.98 z"
   id="path16" />
		</g>
		<g
   id="CIRCLE_24_">
			<path
   fill="#ffffff"
   d="m 302.559,275.882 c 0,-2.198 -1.781,-3.98 -3.98,-3.98 -2.198,0 -3.98,1.782 -3.98,3.98 0,2.199 1.782,3.981 3.98,3.981 2.198,10e-4 3.98,-1.781 3.98,-3.981 z"
   id="path19" />
		</g>
		<g
   id="CIRCLE_22_">
			<path
   fill="#ffffff"
   d="m 354.309,117.45 c 0,-2.198 -1.781,-3.98 -3.98,-3.98 -2.199,0 -3.98,1.782 -3.98,3.98 0,2.199 1.781,3.981 3.98,3.981 2.199,0 3.98,-1.783 3.98,-3.981 z"
   id="path22" />
		</g>
		<g
   id="CIRCLE_5_">
			<path
   fill="#ffffff"
   d="m 195.875,65.701 c 0,-2.199 -1.781,-3.981 -3.98,-3.981 -2.198,0 -3.98,1.782 -3.98,3.981 0,2.198 1.782,3.98 3.98,3.98 2.199,0 3.98,-1.782 3.98,-3.98 z"
   id="path25" />
		</g>
		<g
   id="CIRCLE_1_">
			<path
   fill="#ffffff"
   d="m 144.126,117.45 c 0,-2.198 -1.782,-3.98 -3.981,-3.98 -2.198,0 -3.98,1.782 -3.98,3.98 0,2.199 1.782,3.981 3.98,3.981 2.199,0 3.981,-1.783 3.981,-3.981 z"
   id="path28" />
		</g>
	</g>
</g>
<line
   fill="none"
   stroke="#ffffff"
   stroke-width="4.95905"
   stroke-miterlimit="10"
   x1="91.701691"
   y1="172.37794"
   x2="57.693974"
   y2="172.37794"
   id="line34" /><line
   fill="none"
   stroke="#ffffff"
   stroke-width="2.47946"
   stroke-miterlimit="10"
   x1="85.549728"
   y1="159.78168"
   x2="58.786045"
   y2="156.12682"
   id="line36" /><line
   fill="none"
   stroke="#ffffff"
   stroke-width="2.47946"
   stroke-miterlimit="10"
   x1="88.276062"
   y1="146.75142"
   x2="62.30312"
   y2="139.31676"
   id="line38" /><line
   fill="none"
   stroke="#ffffff"
   stroke-width="2.47946"
   stroke-miterlimit="10"
   x1="92.747406"
   y1="134.47066"
   x2="68.072586"
   y2="123.47389"
   id="line40" /><line
   fill="none"
   stroke="#ffffff"
   stroke-width="2.47946"
   stroke-miterlimit="10"
   x1="75.888428"
   y1="108.80164"
   x2="98.805359"
   y2="123.09783"
   id="line42" /><line
   fill="none"
   stroke="#ffffff"
   stroke-width="4.95905"
   stroke-miterlimit="10"
   x1="111.43768"
   y1="117.52024"
   x2="85.225189"
   y2="95.85379"
   id="line44" /><line
   fill="none"
   stroke="#ffffff"
   stroke-width="2.47946"
   stroke-miterlimit="10"
   x1="115.36169"
   y1="103.32578"
   x2="97.245789"
   y2="83.291016"
   id="line46" /><line
   fill="none"
   stroke="#ffffff"
   stroke-width="2.47946"
   stroke-miterlimit="10"
   x1="125.60638"
   y1="95.279419"
   x2="110.4628"
   y2="72.909813"
   id="line48" /><line
   fill="none"
   stroke="#ffffff"
   stroke-width="2.47946"
   stroke-miterlimit="10"
   x1="137.10028"
   y1="88.627777"
   x2="125.29216"
   y2="64.328995"
   id="line50" /><line
   fill="none"
   stroke="#ffffff"
   stroke-width="2.47946"
   stroke-miterlimit="10"
   x1="149.42737"
   y1="83.686378"
   x2="141.19557"
   y2="57.952957"
   id="line52" /><line
   fill="none"
   stroke="#ffffff"
   stroke-width="4.95905"
   stroke-miterlimit="10"
   x1="156.61604"
   y1="54.133247"
   x2="162.61346"
   y2="87.612968"
   id="line54" /><line
   fill="none"
   stroke="#ffffff"
   stroke-width="4.95905"
   stroke-miterlimit="10"
   x1="248.82854"
   y1="75.518959"
   x2="228.72035"
   y2="102.94072"
   id="line56" /><line
   fill="none"
   stroke="#ffffff"
   stroke-width="4.95905"
   stroke-miterlimit="10"
   x1="296.69977"
   y1="155.2601"
   x2="263.03204"
   y2="160.1075"
   id="line58" /><line
   fill="none"
   stroke="#ffffff"
   stroke-width="4.95905"
   stroke-miterlimit="10"
   x1="296.48987"
   y1="190.89178"
   x2="262.88394"
   y2="185.64902"
   id="line60" /><line
   fill="none"
   stroke="#ffffff"
   stroke-width="4.95905"
   stroke-miterlimit="10"
   x1="249.4287"
   y1="268.79904"
   x2="229.14922"
   y2="241.49963"
   id="line62" /><line
   fill="none"
   stroke="#ffffff"
   stroke-width="4.95905"
   stroke-miterlimit="10"
   x1="159.49821"
   y1="291.10043"
   x2="164.68045"
   y2="257.48547"
   id="line64" /><line
   fill="none"
   stroke="#ffffff"
   stroke-width="2.47946"
   stroke-miterlimit="10"
   x1="151.70427"
   y1="261.7662"
   x2="144.13182"
   y2="287.70053"
   id="line66" /><line
   fill="none"
   stroke="#ffffff"
   stroke-width="2.47946"
   stroke-miterlimit="10"
   x1="138.87747"
   y1="256.97034"
   x2="127.58449"
   y2="281.51251"
   id="line68" /><line
   fill="none"
   stroke="#ffffff"
   stroke-width="2.47946"
   stroke-miterlimit="10"
   x1="127.18527"
   y1="250.52477"
   x2="112.50014"
   y2="273.19571"
   id="line70" /><line
   fill="none"
   stroke="#ffffff"
   stroke-width="2.47946"
   stroke-miterlimit="10"
   x1="116.48856"
   y1="242.4346"
   x2="98.70105"
   y2="262.75916"
   id="line72" /><line
   fill="none"
   stroke="#ffffff"
   stroke-width="4.95905"
   stroke-miterlimit="10"
   x1="112.4731"
   y1="228.46292"
   x2="86.670151"
   y2="250.6149"
   id="line74" /><line
   fill="none"
   stroke="#ffffff"
   stroke-width="2.47946"
   stroke-miterlimit="10"
   x1="99.670776"
   y1="223.01929"
   x2="77.003677"
   y2="237.71083"
   id="line76" /><line
   fill="none"
   stroke="#ffffff"
   stroke-width="2.47946"
   stroke-miterlimit="10"
   x1="93.278"
   y1="211.45198"
   x2="68.756424"
   y2="222.78746"
   id="line78" /><line
   fill="none"
   stroke="#ffffff"
   stroke-width="2.47946"
   stroke-miterlimit="10"
   x1="88.464081"
   y1="198.65097"
   x2="62.545231"
   y2="206.27362"
   id="line80" /><line
   fill="none"
   stroke="#ffffff"
   stroke-width="2.47946"
   stroke-miterlimit="10"
   x1="58.997257"
   y1="190.13454"
   x2="85.715851"
   y2="186.14098"
   id="line82" /><g
   id="g88"
   transform="matrix(1.28783,0,0,1.28783,-138.02142,-46.967843)">
		<path
   fill="#ffffff"
   d="m 229.314,123.583 v -14.91 h 3.01 v 14.91 z"
   id="path84" />
		<path
   fill="#ffffff"
   d="m 239.392,108.612 c 1.444,0 2.573,0.515 3.387,1.546 0.97,1.221 1.454,3.245 1.454,6.072 0,2.821 -0.487,4.848 -1.464,6.082 -0.808,1.017 -1.933,1.526 -3.377,1.526 -1.451,0 -2.621,-0.558 -3.509,-1.673 -0.889,-1.115 -1.332,-3.104 -1.332,-5.965 0,-2.807 0.488,-4.828 1.464,-6.062 0.808,-1.018 1.933,-1.526 3.377,-1.526 z m 0,2.369 c -0.346,0 -0.654,0.11 -0.926,0.331 -0.271,0.221 -0.481,0.615 -0.63,1.185 -0.197,0.739 -0.295,1.983 -0.295,3.732 0,1.75 0.088,2.951 0.264,3.605 0.177,0.655 0.398,1.09 0.667,1.307 0.268,0.217 0.574,0.325 0.92,0.325 0.346,0 0.654,-0.11 0.926,-0.33 0.271,-0.221 0.481,-0.616 0.631,-1.185 0.196,-0.732 0.295,-1.973 0.295,-3.723 0,-1.749 -0.089,-2.951 -0.265,-3.605 -0.177,-0.654 -0.398,-1.091 -0.666,-1.312 -0.269,-0.219 -0.575,-0.33 -0.921,-0.33 z"
   id="path86" />
	</g><g
   id="g94"
   transform="matrix(1.28783,0,0,1.28783,-138.02142,-46.967843)">
		<path
   fill="#ffffff"
   d="m 267.69,128.563 v -14.91 h 3.011 v 14.91 z"
   id="path90" />
		<path
   fill="#ffffff"
   d="m 272.979,124.729 2.848,-0.295 c 0.081,0.645 0.322,1.154 0.722,1.531 0.4,0.376 0.861,0.564 1.384,0.564 0.597,0 1.102,-0.242 1.516,-0.727 0.413,-0.485 0.62,-1.215 0.62,-2.192 0,-0.916 -0.205,-1.602 -0.615,-2.06 -0.41,-0.458 -0.944,-0.687 -1.603,-0.687 -0.82,0 -1.556,0.363 -2.207,1.088 l -2.318,-0.336 1.465,-7.76 h 7.557 v 2.675 h -5.391 l -0.447,2.532 c 0.637,-0.318 1.288,-0.478 1.952,-0.478 1.269,0 2.343,0.461 3.225,1.383 0.881,0.922 1.322,2.119 1.322,3.59 0,1.227 -0.356,2.322 -1.068,3.285 -0.97,1.315 -2.315,1.973 -4.038,1.973 -1.376,0 -2.498,-0.37 -3.366,-1.109 -0.87,-0.736 -1.389,-1.729 -1.558,-2.977 z"
   id="path92" />
	</g><g
   id="g100"
   transform="matrix(1.28783,0,0,1.28783,-138.02142,-46.967843)">
		<path
   fill="#ffffff"
   d="m 267.69,223.994 v -14.91 h 3.011 v 14.91 z"
   id="path96" />
		<path
   fill="#ffffff"
   d="m 272.979,220.16 2.848,-0.295 c 0.081,0.645 0.322,1.154 0.722,1.531 0.4,0.376 0.861,0.564 1.384,0.564 0.597,0 1.102,-0.242 1.516,-0.727 0.413,-0.485 0.62,-1.215 0.62,-2.192 0,-0.916 -0.205,-1.602 -0.615,-2.06 -0.41,-0.458 -0.944,-0.687 -1.603,-0.687 -0.82,0 -1.556,0.363 -2.207,1.088 l -2.318,-0.336 1.465,-7.76 h 7.557 v 2.675 h -5.391 l -0.447,2.532 c 0.637,-0.318 1.288,-0.478 1.952,-0.478 1.269,0 2.343,0.461 3.225,1.383 0.881,0.922 1.322,2.119 1.322,3.59 0,1.227 -0.356,2.322 -1.068,3.285 -0.97,1.315 -2.315,1.973 -4.038,1.973 -1.376,0 -2.498,-0.37 -3.366,-1.109 -0.87,-0.736 -1.389,-1.73 -1.558,-2.977 z"
   id="path98" />
	</g><g
   id="g104"
   transform="matrix(1.28783,0,0,1.28783,-138.02142,-46.967843)">
		<path
   fill="#ffffff"
   d="m 197.677,134.351 2.848,-0.295 c 0.081,0.645 0.322,1.154 0.722,1.531 0.4,0.376 0.861,0.564 1.383,0.564 0.597,0 1.102,-0.242 1.516,-0.727 0.414,-0.485 0.621,-1.215 0.621,-2.192 0,-0.916 -0.206,-1.602 -0.616,-2.06 -0.41,-0.458 -0.944,-0.687 -1.602,-0.687 -0.821,0 -1.556,0.363 -2.207,1.088 l -2.319,-0.336 1.464,-7.76 h 7.557 v 2.675 h -5.39 l -0.448,2.532 c 0.637,-0.318 1.288,-0.478 1.953,-0.478 1.268,0 2.342,0.461 3.224,1.383 0.881,0.922 1.322,2.119 1.322,3.59 0,1.227 -0.356,2.322 -1.068,3.285 -0.97,1.315 -2.315,1.973 -4.038,1.973 -1.376,0 -2.499,-0.37 -3.367,-1.109 -0.867,-0.736 -1.386,-1.729 -1.555,-2.977 z"
   id="path102" />
	</g><g
   id="g108"
   transform="matrix(1.28783,0,0,1.28783,-138.02142,-46.967843)">
		<path
   fill="#ffffff"
   d="m 197.677,215.292 2.848,-0.295 c 0.081,0.645 0.322,1.154 0.722,1.531 0.4,0.376 0.861,0.564 1.383,0.564 0.597,0 1.102,-0.242 1.516,-0.727 0.414,-0.485 0.621,-1.215 0.621,-2.192 0,-0.916 -0.206,-1.602 -0.616,-2.06 -0.41,-0.458 -0.944,-0.687 -1.602,-0.687 -0.821,0 -1.556,0.363 -2.207,1.088 l -2.319,-0.336 1.464,-7.76 h 7.557 v 2.675 h -5.39 l -0.448,2.532 c 0.637,-0.318 1.288,-0.478 1.953,-0.478 1.268,0 2.342,0.461 3.224,1.383 0.881,0.922 1.322,2.119 1.322,3.59 0,1.227 -0.356,2.322 -1.068,3.285 -0.97,1.315 -2.315,1.973 -4.038,1.973 -1.376,0 -2.499,-0.37 -3.367,-1.109 -0.867,-0.736 -1.386,-1.73 -1.555,-2.977 z"
   id="path106" />
	</g><g
   id="g112"
   transform="matrix(1.28783,0,0,1.28783,-138.02142,-46.967843)">
		<path
   fill="#ffffff"
   d="m 188.317,163.628 c 1.444,0 2.573,0.515 3.387,1.546 0.97,1.221 1.455,3.245 1.455,6.072 0,2.821 -0.488,4.848 -1.464,6.082 -0.807,1.017 -1.933,1.526 -3.377,1.526 -1.451,0 -2.621,-0.558 -3.509,-1.673 -0.888,-1.115 -1.333,-3.104 -1.333,-5.965 0,-2.807 0.488,-4.828 1.465,-6.062 0.806,-1.017 1.932,-1.526 3.376,-1.526 z m 0,2.37 c -0.346,0 -0.654,0.11 -0.925,0.331 -0.271,0.221 -0.481,0.615 -0.631,1.185 -0.197,0.739 -0.295,1.983 -0.295,3.732 0,1.75 0.088,2.951 0.265,3.605 0.176,0.655 0.398,1.09 0.666,1.307 0.268,0.217 0.575,0.325 0.92,0.325 0.345,0 0.654,-0.11 0.926,-0.33 0.271,-0.221 0.481,-0.616 0.63,-1.185 0.197,-0.732 0.295,-1.973 0.295,-3.723 0,-1.749 -0.088,-2.951 -0.264,-3.605 -0.177,-0.654 -0.398,-1.091 -0.667,-1.312 -0.267,-0.22 -0.574,-0.33 -0.92,-0.33 z"
   id="path110" />
	</g><g
   id="g118"
   transform="matrix(1.28783,0,0,1.28783,-138.02142,-46.967843)">
		<path
   fill="#ffffff"
   d="m 301.361,175.945 v 2.654 h -10.019 c 0.108,-1.003 0.434,-1.955 0.977,-2.853 0.542,-0.898 1.613,-2.09 3.214,-3.575 1.288,-1.2 2.078,-2.014 2.37,-2.441 0.392,-0.59 0.589,-1.173 0.589,-1.75 0,-0.637 -0.172,-1.127 -0.513,-1.47 -0.343,-0.342 -0.815,-0.514 -1.419,-0.514 -0.597,0 -1.071,0.18 -1.424,0.539 -0.353,0.359 -0.557,0.956 -0.61,1.79 l -2.848,-0.285 c 0.169,-1.573 0.701,-2.702 1.597,-3.387 0.895,-0.685 2.014,-1.027 3.356,-1.027 1.47,0 2.626,0.396 3.468,1.19 0.84,0.793 1.262,1.78 1.262,2.959 0,0.671 -0.121,1.311 -0.361,1.917 -0.242,0.607 -0.623,1.243 -1.145,1.907 -0.346,0.441 -0.971,1.075 -1.872,1.902 -0.902,0.828 -1.474,1.377 -1.714,1.648 -0.24,0.271 -0.436,0.536 -0.585,0.793 h 5.677 z"
   id="path114" />
		<path
   fill="#ffffff"
   d="m 308.123,163.628 c 1.445,0 2.574,0.515 3.387,1.546 0.971,1.221 1.455,3.245 1.455,6.072 0,2.821 -0.488,4.848 -1.465,6.082 -0.807,1.017 -1.932,1.526 -3.377,1.526 -1.451,0 -2.621,-0.558 -3.508,-1.673 -0.889,-1.115 -1.332,-3.104 -1.332,-5.965 0,-2.807 0.488,-4.828 1.463,-6.062 0.809,-1.017 1.934,-1.526 3.377,-1.526 z m 0,2.37 c -0.346,0 -0.654,0.11 -0.926,0.331 -0.27,0.221 -0.48,0.615 -0.629,1.185 -0.197,0.739 -0.295,1.983 -0.295,3.732 0,1.75 0.088,2.951 0.264,3.605 0.176,0.655 0.398,1.09 0.666,1.307 0.268,0.217 0.574,0.325 0.92,0.325 0.346,0 0.654,-0.11 0.926,-0.33 0.271,-0.221 0.482,-0.616 0.631,-1.185 0.197,-0.732 0.295,-1.973 0.295,-3.723 0,-1.749 -0.088,-2.951 -0.264,-3.605 -0.178,-0.654 -0.398,-1.091 -0.666,-1.312 -0.27,-0.22 -0.576,-0.33 -0.922,-0.33 z"
   id="path116" />
	</g><g
   id="g146"
   transform="matrix(1.28783,0,0,1.28783,-138.02142,-46.967843)">
		<path
   fill="#ffffff"
   d="m 252.385,195.924 v -6.483 h 1.309 v 6.483 z"
   id="path120" />
		<path
   fill="#ffffff"
   d="m 256.767,189.415 c 0.628,0 1.118,0.224 1.473,0.672 0.421,0.53 0.632,1.411 0.632,2.64 0,1.227 -0.212,2.108 -0.637,2.645 -0.351,0.442 -0.84,0.663 -1.468,0.663 -0.631,0 -1.14,-0.242 -1.525,-0.727 -0.387,-0.485 -0.58,-1.35 -0.58,-2.594 0,-1.22 0.213,-2.099 0.637,-2.635 0.351,-0.443 0.84,-0.664 1.468,-0.664 z m 0,1.03 c -0.15,0 -0.285,0.048 -0.402,0.144 -0.118,0.096 -0.21,0.267 -0.274,0.515 -0.086,0.321 -0.128,0.862 -0.128,1.623 0,0.761 0.038,1.283 0.114,1.568 0.077,0.284 0.174,0.474 0.29,0.568 0.116,0.095 0.25,0.142 0.4,0.142 0.15,0 0.284,-0.048 0.402,-0.144 0.118,-0.096 0.209,-0.268 0.274,-0.515 0.085,-0.318 0.128,-0.858 0.128,-1.619 0,-0.76 -0.038,-1.283 -0.115,-1.567 -0.076,-0.285 -0.173,-0.475 -0.289,-0.57 -0.117,-0.097 -0.25,-0.145 -0.4,-0.145 z"
   id="path122" />
		<path
   fill="#ffffff"
   d="m 261.804,189.415 c 0.628,0 1.118,0.224 1.473,0.672 0.421,0.53 0.632,1.411 0.632,2.64 0,1.227 -0.212,2.108 -0.637,2.645 -0.351,0.442 -0.84,0.663 -1.468,0.663 -0.631,0 -1.14,-0.242 -1.525,-0.727 -0.387,-0.485 -0.58,-1.35 -0.58,-2.594 0,-1.22 0.213,-2.099 0.637,-2.635 0.351,-0.443 0.84,-0.664 1.468,-0.664 z m 0,1.03 c -0.15,0 -0.285,0.048 -0.402,0.144 -0.118,0.096 -0.21,0.267 -0.274,0.515 -0.086,0.321 -0.128,0.862 -0.128,1.623 0,0.761 0.038,1.283 0.114,1.568 0.077,0.284 0.174,0.474 0.29,0.568 0.116,0.095 0.25,0.142 0.4,0.142 0.15,0 0.284,-0.048 0.402,-0.144 0.118,-0.096 0.209,-0.268 0.274,-0.515 0.085,-0.318 0.128,-0.858 0.128,-1.619 0,-0.76 -0.038,-1.283 -0.115,-1.567 -0.076,-0.285 -0.173,-0.475 -0.289,-0.57 -0.117,-0.097 -0.249,-0.145 -0.4,-0.145 z"
   id="path124" />
		<path
   fill="#ffffff"
   d="m 267.54,195.924 v -6.483 h 4.444 v 1.097 h -3.136 v 1.535 h 2.706 v 1.097 h -2.706 v 2.755 h -1.308 z"
   id="path126" />
		<path
   fill="#ffffff"
   d="m 273.063,195.924 v -6.483 h 4.807 v 1.097 h -3.498 v 1.438 h 3.255 v 1.092 h -3.255 v 1.764 h 3.622 v 1.092 z"
   id="path128" />
		<path
   fill="#ffffff"
   d="m 279.103,195.924 v -6.483 h 4.807 v 1.097 h -3.498 v 1.438 h 3.255 v 1.092 h -3.255 v 1.764 h 3.622 v 1.092 z"
   id="path130" />
		<path
   fill="#ffffff"
   d="m 286.602,195.924 v -5.386 h -1.924 v -1.097 h 5.152 v 1.097 h -1.92 v 5.386 z"
   id="path132" />
		<path
   fill="#ffffff"
   d="m 252.425,204.075 v -6.483 h 2.101 c 0.796,0 1.314,0.033 1.556,0.098 0.372,0.097 0.683,0.309 0.934,0.634 0.25,0.326 0.376,0.747 0.376,1.263 0,0.398 -0.072,0.732 -0.217,1.004 -0.145,0.271 -0.328,0.484 -0.551,0.639 -0.223,0.155 -0.448,0.257 -0.679,0.308 -0.313,0.062 -0.765,0.093 -1.357,0.093 h -0.854 v 2.445 h -1.309 z m 1.309,-5.387 v 1.84 h 0.717 c 0.516,0 0.86,-0.034 1.034,-0.102 0.174,-0.068 0.311,-0.174 0.409,-0.318 0.099,-0.145 0.148,-0.313 0.148,-0.504 0,-0.236 -0.069,-0.43 -0.208,-0.583 -0.139,-0.153 -0.314,-0.249 -0.526,-0.288 -0.156,-0.029 -0.47,-0.044 -0.941,-0.044 h -0.633 z"
   id="path134" />
		<path
   fill="#ffffff"
   d="m 258.465,204.075 v -6.483 h 4.807 v 1.097 h -3.498 v 1.438 h 3.255 v 1.092 h -3.255 v 1.764 h 3.622 v 1.092 z"
   id="path136" />
		<path
   fill="#ffffff"
   d="m 264.509,204.075 v -6.483 h 2.755 c 0.693,0 1.196,0.059 1.511,0.175 0.313,0.117 0.564,0.324 0.754,0.622 0.188,0.297 0.282,0.638 0.282,1.021 0,0.486 -0.143,0.888 -0.429,1.205 -0.286,0.317 -0.713,0.517 -1.282,0.6 0.283,0.165 0.517,0.346 0.701,0.544 0.184,0.197 0.433,0.548 0.745,1.052 l 0.791,1.265 h -1.565 l -0.946,-1.411 c -0.336,-0.504 -0.565,-0.822 -0.689,-0.953 -0.124,-0.131 -0.255,-0.221 -0.394,-0.27 -0.139,-0.049 -0.358,-0.073 -0.659,-0.073 h -0.265 v 2.706 z m 1.31,-3.742 h 0.968 c 0.628,0 1.021,-0.026 1.177,-0.08 0.156,-0.053 0.278,-0.144 0.367,-0.274 0.088,-0.13 0.132,-0.292 0.132,-0.486 0,-0.218 -0.058,-0.395 -0.174,-0.529 -0.117,-0.134 -0.281,-0.219 -0.493,-0.254 -0.106,-0.015 -0.425,-0.022 -0.955,-0.022 h -1.021 v 1.645 z"
   id="path138" />
		<path
   fill="#ffffff"
   d="m 273.544,204.075 v -6.483 h 1.959 l 1.176,4.422 1.163,-4.422 h 1.963 v 6.483 h -1.216 v -5.103 l -1.286,5.103 h -1.261 l -1.282,-5.103 v 5.103 z"
   id="path140" />
		<path
   fill="#ffffff"
   d="m 281.066,204.075 v -6.483 h 1.309 v 6.483 z"
   id="path142" />
		<path
   fill="#ffffff"
   d="m 283.635,204.075 v -6.483 h 1.273 l 2.653,4.33 v -4.33 h 1.217 v 6.483 h -1.313 l -2.613,-4.228 v 4.228 z"
   id="path144" />
	</g><g
   id="g152"
   transform="matrix(1.28783,0,0,1.28783,-138.02142,-46.967843)">
		<path
   fill="#ffffff"
   d="m 212.153,196.166 h 2.393 c 0.54,0 0.951,0.042 1.233,0.124 0.38,0.112 0.706,0.311 0.978,0.597 0.271,0.286 0.478,0.636 0.619,1.05 0.142,0.414 0.212,0.925 0.212,1.532 0,0.533 -0.066,0.993 -0.199,1.379 -0.162,0.472 -0.394,0.854 -0.694,1.146 -0.227,0.221 -0.534,0.394 -0.92,0.517 -0.289,0.091 -0.675,0.137 -1.158,0.137 h -2.463 v -6.482 z m 1.309,1.096 v 4.294 h 0.977 c 0.366,0 0.629,-0.021 0.792,-0.062 0.212,-0.053 0.388,-0.143 0.528,-0.27 0.14,-0.127 0.254,-0.335 0.343,-0.626 0.088,-0.29 0.132,-0.686 0.132,-1.187 0,-0.501 -0.044,-0.886 -0.132,-1.154 -0.089,-0.268 -0.212,-0.478 -0.372,-0.628 -0.16,-0.15 -0.361,-0.252 -0.606,-0.305 -0.183,-0.041 -0.541,-0.062 -1.075,-0.062 z"
   id="path148" />
		<path
   fill="#ffffff"
   d="m 218.711,202.648 v -6.483 h 1.273 l 2.653,4.33 v -4.33 h 1.216 v 6.483 h -1.313 l -2.613,-4.228 v 4.228 z"
   id="path150" />
	</g><g
   id="g158"
   transform="matrix(1.28783,0,0,1.28783,-138.02142,-46.967843)">
		<path
   fill="#ffffff"
   d="m 212.149,141.828 h 1.309 v 3.511 c 0,0.557 0.016,0.918 0.049,1.083 0.056,0.265 0.189,0.479 0.4,0.639 0.211,0.16 0.499,0.241 0.865,0.241 0.371,0 0.651,-0.076 0.84,-0.228 0.189,-0.152 0.302,-0.338 0.341,-0.56 0.038,-0.221 0.057,-0.588 0.057,-1.101 v -3.586 h 1.309 v 3.405 c 0,0.778 -0.035,1.328 -0.106,1.649 -0.071,0.321 -0.201,0.592 -0.392,0.813 -0.19,0.221 -0.444,0.397 -0.763,0.528 -0.318,0.131 -0.734,0.197 -1.247,0.197 -0.619,0 -1.088,-0.071 -1.408,-0.214 -0.32,-0.143 -0.573,-0.329 -0.758,-0.557 -0.186,-0.229 -0.308,-0.468 -0.367,-0.719 -0.085,-0.371 -0.128,-0.919 -0.128,-1.645 v -3.456 z"
   id="path154" />
		<path
   fill="#ffffff"
   d="m 218.698,148.311 v -6.483 h 2.101 c 0.796,0 1.315,0.033 1.557,0.098 0.372,0.097 0.683,0.309 0.933,0.634 0.25,0.325 0.376,0.747 0.376,1.263 0,0.398 -0.072,0.732 -0.217,1.004 -0.145,0.271 -0.328,0.484 -0.551,0.639 -0.223,0.155 -0.449,0.257 -0.679,0.308 -0.313,0.062 -0.765,0.093 -1.357,0.093 h -0.854 v 2.445 h -1.309 z m 1.309,-5.387 v 1.84 h 0.716 c 0.516,0 0.861,-0.034 1.035,-0.102 0.174,-0.068 0.311,-0.174 0.409,-0.318 0.099,-0.145 0.148,-0.313 0.148,-0.504 0,-0.236 -0.069,-0.43 -0.208,-0.583 -0.139,-0.153 -0.314,-0.249 -0.526,-0.288 -0.156,-0.029 -0.47,-0.044 -0.942,-0.044 h -0.632 z"
   id="path156" />
	</g><g
   id="g186"
   transform="matrix(1.28783,0,0,1.28783,-138.02142,-46.967843)">
		<path
   fill="#ffffff"
   d="m 253.426,144.649 -2.317,-6.483 h 1.42 l 1.641,4.798 1.588,-4.798 h 1.388 l -2.321,6.483 z"
   id="path160" />
		<path
   fill="#ffffff"
   d="m 257.813,144.649 v -6.483 h 4.807 v 1.097 h -3.498 v 1.438 h 3.255 v 1.092 h -3.255 v 1.764 h 3.622 v 1.092 z"
   id="path162" />
		<path
   fill="#ffffff"
   d="m 263.857,144.649 v -6.483 h 2.755 c 0.693,0 1.196,0.059 1.511,0.175 0.313,0.117 0.564,0.324 0.754,0.622 0.188,0.297 0.282,0.638 0.282,1.021 0,0.486 -0.143,0.888 -0.429,1.205 -0.286,0.317 -0.713,0.517 -1.282,0.6 0.283,0.165 0.517,0.346 0.701,0.544 0.184,0.197 0.433,0.548 0.745,1.052 l 0.791,1.265 h -1.565 l -0.946,-1.411 c -0.336,-0.504 -0.565,-0.822 -0.689,-0.953 -0.124,-0.131 -0.255,-0.221 -0.394,-0.27 -0.139,-0.049 -0.358,-0.073 -0.659,-0.073 h -0.265 v 2.706 z m 1.31,-3.741 h 0.968 c 0.628,0 1.021,-0.026 1.177,-0.08 0.156,-0.053 0.278,-0.144 0.367,-0.274 0.088,-0.13 0.132,-0.292 0.132,-0.486 0,-0.218 -0.058,-0.395 -0.174,-0.529 -0.117,-0.134 -0.281,-0.219 -0.493,-0.254 -0.106,-0.015 -0.425,-0.022 -0.955,-0.022 h -1.021 v 1.645 z"
   id="path164" />
		<path
   fill="#ffffff"
   d="m 271.852,144.649 v -5.386 h -1.924 v -1.097 h 5.152 v 1.097 h -1.92 v 5.386 z"
   id="path166" />
		<path
   fill="#ffffff"
   d="m 275.885,144.649 v -6.483 h 1.309 v 6.483 z"
   id="path168" />
		<path
   fill="#ffffff"
   d="m 282.588,142.266 1.27,0.402 c -0.195,0.708 -0.519,1.233 -0.971,1.576 -0.453,0.344 -1.027,0.515 -1.723,0.515 -0.86,0 -1.568,-0.294 -2.122,-0.882 -0.555,-0.588 -0.832,-1.392 -0.832,-2.413 0,-1.079 0.279,-1.917 0.836,-2.514 0.558,-0.597 1.29,-0.896 2.198,-0.896 0.793,0 1.437,0.234 1.932,0.703 0.295,0.277 0.517,0.675 0.664,1.194 l -1.296,0.31 c -0.077,-0.336 -0.236,-0.601 -0.479,-0.796 -0.244,-0.194 -0.539,-0.292 -0.887,-0.292 -0.48,0 -0.871,0.173 -1.17,0.518 -0.3,0.345 -0.449,0.903 -0.449,1.676 0,0.82 0.147,1.403 0.442,1.751 0.295,0.348 0.678,0.521 1.149,0.521 0.349,0 0.647,-0.11 0.898,-0.332 0.251,-0.219 0.431,-0.566 0.54,-1.041 z"
   id="path170" />
		<path
   fill="#ffffff"
   d="m 290.827,144.649 h -1.424 l -0.566,-1.473 h -2.591 l -0.535,1.473 h -1.389 l 2.525,-6.483 h 1.384 z m -2.41,-2.565 -0.894,-2.405 -0.875,2.405 z"
   id="path172" />
		<path
   fill="#ffffff"
   d="m 291.556,144.649 v -6.43 h 1.309 v 5.337 h 3.255 v 1.092 h -4.564 z"
   id="path174" />
		<path
   fill="#ffffff"
   d="m 251.441,150.691 1.273,-0.124 c 0.077,0.427 0.232,0.741 0.467,0.942 0.234,0.2 0.551,0.3 0.948,0.3 0.422,0 0.739,-0.089 0.953,-0.268 0.214,-0.178 0.32,-0.387 0.32,-0.625 0,-0.153 -0.045,-0.284 -0.135,-0.391 -0.09,-0.108 -0.247,-0.202 -0.471,-0.281 -0.153,-0.053 -0.503,-0.147 -1.048,-0.283 -0.702,-0.174 -1.194,-0.388 -1.478,-0.641 -0.397,-0.357 -0.597,-0.792 -0.597,-1.305 0,-0.33 0.094,-0.639 0.281,-0.926 0.187,-0.288 0.456,-0.506 0.809,-0.657 0.353,-0.151 0.777,-0.226 1.276,-0.226 0.813,0 1.426,0.178 1.837,0.535 0.411,0.356 0.627,0.833 0.647,1.428 l -1.309,0.058 c -0.056,-0.333 -0.176,-0.573 -0.36,-0.719 -0.184,-0.146 -0.461,-0.219 -0.829,-0.219 -0.38,0 -0.678,0.078 -0.894,0.234 -0.139,0.1 -0.207,0.234 -0.207,0.402 0,0.153 0.064,0.285 0.194,0.394 0.165,0.139 0.565,0.283 1.202,0.433 0.637,0.15 1.108,0.306 1.413,0.467 0.306,0.161 0.544,0.38 0.717,0.659 0.172,0.279 0.259,0.623 0.259,1.033 0,0.372 -0.104,0.719 -0.31,1.043 -0.207,0.324 -0.499,0.565 -0.876,0.723 -0.377,0.158 -0.848,0.236 -1.41,0.236 -0.82,0 -1.449,-0.189 -1.889,-0.568 -0.44,-0.379 -0.697,-0.929 -0.783,-1.654 z"
   id="path176" />
		<path
   fill="#ffffff"
   d="m 257.813,152.8 v -6.483 h 2.101 c 0.796,0 1.314,0.033 1.556,0.098 0.372,0.097 0.683,0.309 0.934,0.634 0.25,0.326 0.376,0.747 0.376,1.263 0,0.398 -0.072,0.732 -0.217,1.004 -0.145,0.271 -0.328,0.484 -0.551,0.639 -0.223,0.155 -0.448,0.257 -0.679,0.308 -0.313,0.062 -0.765,0.093 -1.357,0.093 h -0.854 v 2.445 h -1.309 z m 1.309,-5.386 v 1.84 h 0.717 c 0.516,0 0.86,-0.034 1.034,-0.102 0.174,-0.068 0.311,-0.174 0.409,-0.318 0.099,-0.145 0.148,-0.313 0.148,-0.504 0,-0.236 -0.069,-0.43 -0.208,-0.583 -0.139,-0.153 -0.314,-0.249 -0.526,-0.288 -0.156,-0.029 -0.47,-0.044 -0.941,-0.044 h -0.633 z"
   id="path178" />
		<path
   fill="#ffffff"
   d="m 263.853,152.8 v -6.483 h 4.807 v 1.097 h -3.498 v 1.438 h 3.255 v 1.092 h -3.255 v 1.764 h 3.622 v 1.092 z"
   id="path180" />
		<path
   fill="#ffffff"
   d="m 269.893,152.8 v -6.483 h 4.807 v 1.097 h -3.498 v 1.438 h 3.255 v 1.092 h -3.255 v 1.764 h 3.622 v 1.092 z"
   id="path182" />
		<path
   fill="#ffffff"
   d="m 275.928,146.317 h 2.393 c 0.539,0 0.95,0.042 1.233,0.124 0.381,0.112 0.706,0.311 0.978,0.597 0.271,0.286 0.478,0.636 0.619,1.05 0.142,0.414 0.212,0.925 0.212,1.532 0,0.533 -0.066,0.993 -0.199,1.379 -0.162,0.472 -0.394,0.854 -0.693,1.146 -0.228,0.221 -0.534,0.394 -0.92,0.517 -0.289,0.091 -0.676,0.137 -1.159,0.137 h -2.463 v -6.482 z m 1.309,1.097 v 4.294 h 0.978 c 0.365,0 0.63,-0.021 0.792,-0.062 0.212,-0.053 0.388,-0.143 0.528,-0.27 0.14,-0.127 0.254,-0.335 0.343,-0.626 0.088,-0.29 0.133,-0.686 0.133,-1.187 0,-0.501 -0.045,-0.886 -0.133,-1.154 -0.089,-0.268 -0.213,-0.478 -0.372,-0.628 -0.159,-0.15 -0.36,-0.252 -0.605,-0.305 -0.183,-0.041 -0.541,-0.062 -1.074,-0.062 z"
   id="path184" />
	</g><path
   fill="#be2026"
   d="m 120.09319,190.16416 c 0.67096,0.17257 1.38185,0.26529 2.12106,0.26529 1.73471,0 3.32518,-0.51256 4.56149,-1.3651 v 0 c 0.9955,10.26787 3.0483,19.55184 5.86607,27.15003 h -0.001 c -5.86993,-6.28847 -10.33999,-15.39214 -12.5602,-26.01931 z"
   id="path188"
   style="stroke-width:1.28783" /><path
   fill="#6bcaf3"
   d="m 119.84078,159.92205 c 0.74308,-0.21636 1.54153,-0.33484 2.37347,-0.33484 1.68834,0 3.24147,0.48551 4.46233,1.29813 l 0.001,0.003 c 0.95557,-10.67482 3.05087,-20.32582 5.96136,-28.17515 v 0 c -6.08628,6.52286 -10.66838,16.07341 -12.79845,27.20928 z"
   id="path190"
   style="stroke-width:1.28783" />
</svg>
