<?xml version="1.0" encoding="UTF-8" standalone="no"?>
<!-- Created with Inkscape (http://www.inkscape.org/) -->

<svg
   width="210mm"
   height="297mm"
   viewBox="0 0 210 297"
   version="1.1"
   id="svg1"
   xml:space="preserve"
   inkscape:version="1.3.1 (91b66b0783, 2023-11-16)"
   sodipodi:docname="OH_16_combined.svg"
   xmlns:inkscape="http://www.inkscape.org/namespaces/inkscape"
   xmlns:sodipodi="http://sodipodi.sourceforge.net/DTD/sodipodi-0.dtd"
   xmlns="http://www.w3.org/2000/svg"
   xmlns:svg="http://www.w3.org/2000/svg"><sodipodi:namedview
     id="namedview1"
     pagecolor="#505050"
     bordercolor="#ffffff"
     borderopacity="1"
     inkscape:showpageshadow="0"
     inkscape:pageopacity="0"
     inkscape:pagecheckerboard="1"
     inkscape:deskcolor="#d1d1d1"
     inkscape:document-units="mm"
     showgrid="false"
     inkscape:zoom="0.66724888"
     inkscape:cx="538.77947"
     inkscape:cy="529.78733"
     inkscape:current-layer="layer1" /><defs
     id="defs1" /><g
     inkscape:label="Layer 1"
     inkscape:groupmode="layer"
     id="layer1"><g
       id="g1"
       transform="matrix(10,0,0,10,32.656842,54.044)"
       style="display:inline;fill:none;stroke:#ff0c00;stroke-width:0.05;stroke-dasharray:none;stroke-opacity:1"><path
         d="m -6.8274938,-10.390247 a 0.55565,0.55565 90 0 0 0.3530434,-0.126572 0.1588,0.1588 -129.44743 0 1 0.1008967,-0.03617 H 6.2884112 a 0.1588,0.1588 -90 0 1 0.1192683,0.05396 0.55565,0.55565 138.68231 0 0 0.4173267,0.188791 h 0.23745 a 0.1588,0.1588 -90 0 1 0.1588,0.1588 v 8.9686005 a 0.1588,0.1588 0 0 1 -0.1588,0.1588 h -0.23745 a 0.55565,0.55565 -90 0 0 0,1.1113 h 0.23745 a 0.1588,0.1588 -90 0 1 0.1588,0.1588 v 8.0961 a 0.1588,0.1588 0 0 1 -0.1588,0.1588 h -14.1274 a 0.1588,0.1588 90 0 1 -0.1588,-0.1588 v -8.0961 a 0.1588,0.1588 -180 0 1 0.1588,-0.1588 h 0.23745 a 0.55565,0.55565 90 0 0 0,-1.1113 h -0.23745 a 0.1588,0.1588 90 0 1 -0.1588,-0.1588 v -9.0486005 a 0.1588,0.1588 -180 0 1 0.1588,-0.1588 z"
         transform="matrix(1,0,0,-1,7.2237438,8.5009535)"
         fill="#000000"
         stroke-linecap="round"
         stroke-linejoin="round"
         id="path1"
         style="fill:none;stroke:#ff0c00;stroke-width:0.05;stroke-dasharray:none;stroke-opacity:1" /><path
         d="m -3.7066374,3.7345993 2.0630247,1.7448763 a 2.54,2.54 130.28589 1 0 -0.00398,-3.871783 l -2.0592401,1.7453102 a 0.2500001,0.2500001 -130.28296 0 0 1.954e-4,0.3815965 z"
         transform="matrix(1,0,0,-1,7.2237438,8.5009535)"
         fill="#ffffff"
         stroke="#000000"
         stroke-width="0.001cm"
         stroke-linecap="round"
         stroke-linejoin="round"
         id="path2"
         style="fill:none;stroke:#ff0c00;stroke-width:0.05;stroke-dasharray:none;stroke-opacity:1" /><path
         d="m -4.5704438,6.5316035 a 0.72,0.72 0 1 1 1.44,0 0.72,0.72 0 1 1 -1.44,0 z"
         transform="matrix(1,0,0,-1,7.2237438,8.5009535)"
         fill="#ffffff"
         stroke="#000000"
         stroke-width="0.001cm"
         stroke-linecap="round"
         stroke-linejoin="round"
         id="path3"
         style="fill:none;stroke:#ff0c00;stroke-width:0.05;stroke-dasharray:none;stroke-opacity:1" /><path
         d="m -1.8312787,-2.506412 v -3.675 a 0.05,0.05 0 0 0 -0.05,-0.05 h -2.455 a 0.05,0.05 -90 0 0 -0.05,0.05 v 3.675 a 0.05,0.05 -180 0 0 0.05,0.05 h 2.455 a 0.05,0.05 89.999932 0 0 0.05,-0.05 z"
         transform="matrix(1,0,0,-1,7.2237438,8.5009535)"
         fill="#ffffff"
         stroke="#000000"
         stroke-width="0.001cm"
         stroke-linecap="round"
         stroke-linejoin="round"
         id="path4"
         style="fill:none;stroke:#ff0c00;stroke-width:0.05;stroke-dasharray:none;stroke-opacity:1" /><path
         d="m 4.3837213,-2.506412 v -3.675 a 0.05,0.05 0 0 0 -0.05,-0.05 h -2.455 a 0.05,0.05 -90 0 0 -0.05,0.05 v 3.675 a 0.05,0.05 -180 0 0 0.05,0.05 h 2.455 a 0.05,0.05 89.999932 0 0 0.05,-0.05 z"
         transform="matrix(1,0,0,-1,7.2237438,8.5009535)"
         fill="#ffffff"
         stroke="#000000"
         stroke-width="0.001cm"
         stroke-linecap="round"
         stroke-linejoin="round"
         id="path5"
         style="fill:none;stroke:#ff0c00;stroke-width:0.05;stroke-dasharray:none;stroke-opacity:1" /><path
         d="m 5.8612562,-9.902635 a 0.16,0.16 0 1 1 0.32,0 0.16,0.16 0 1 1 -0.32,0 z"
         transform="matrix(1,0,0,-1,7.2237438,8.5009535)"
         fill="#ffffff"
         stroke="#000000"
         stroke-width="0.001cm"
         stroke-linecap="round"
         stroke-linejoin="round"
         id="path6"
         style="fill:none;stroke:#ff0c00;stroke-width:0.05;stroke-dasharray:none;stroke-opacity:1" /><path
         d="m -6.1837438,6.8509535 a 0.16,0.16 0 1 1 0.32,0 0.16,0.16 0 1 1 -0.32,0 z"
         transform="matrix(1,0,0,-1,7.2237438,8.5009535)"
         fill="#ffffff"
         stroke="#000000"
         stroke-width="0.001cm"
         stroke-linecap="round"
         stroke-linejoin="round"
         id="path7"
         style="fill:none;stroke:#ff0c00;stroke-width:0.05;stroke-dasharray:none;stroke-opacity:1" /><path
         d="m 5.8612562,6.8509535 a 0.16,0.16 0 1 1 0.32,0 0.16,0.16 0 1 1 -0.32,0 z"
         transform="matrix(1,0,0,-1,7.2237438,8.5009535)"
         fill="#ffffff"
         stroke="#000000"
         stroke-width="0.001cm"
         stroke-linecap="round"
         stroke-linejoin="round"
         id="path8"
         style="fill:none;stroke:#ff0c00;stroke-width:0.05;stroke-dasharray:none;stroke-opacity:1" /><path
         d="m -6.1837438,-9.902635 a 0.16,0.16 0 1 1 0.32,0 0.16,0.16 0 1 1 -0.32,0 z"
         transform="matrix(1,0,0,-1,7.2237438,8.5009535)"
         fill="#ffffff"
         stroke="#000000"
         stroke-width="0.001cm"
         stroke-linecap="round"
         stroke-linejoin="round"
         id="path9"
         style="fill:none;stroke:#ff0c00;stroke-width:0.05;stroke-dasharray:none;stroke-opacity:1" /><path
         d="m -5.3720874,-0.4683965 a 0.72,0.72 0 1 1 1.44,0 0.72,0.72 0 1 1 -1.44,0 z"
         transform="matrix(1,0,0,-1,7.2237438,8.5009535)"
         fill="#ffffff"
         stroke="#000000"
         stroke-width="0.001cm"
         stroke-linecap="round"
         stroke-linejoin="round"
         id="path10"
         style="fill:none;stroke:#ff0c00;stroke-width:0.05;stroke-dasharray:none;stroke-opacity:1" /><path
         d="m -0.7220874,-5.5218941 a 0.72,0.72 0 1 1 1.44,0 0.72,0.72 0 1 1 -1.44,0 z"
         transform="matrix(1,0,0,-1,7.2237438,8.5009535)"
         fill="#ffffff"
         stroke="#000000"
         stroke-width="0.001cm"
         stroke-linecap="round"
         stroke-linejoin="round"
         id="path11"
         style="fill:none;stroke:#ff0c00;stroke-width:0.05;stroke-dasharray:none;stroke-opacity:1" /><path
         d="m -5.5520874,-8.3308947 a 0.72,0.72 0 1 1 1.44,0 0.72,0.72 0 1 1 -1.44,0 z"
         transform="matrix(1,0,0,-1,7.2237438,8.5009535)"
         fill="#ffffff"
         stroke="#000000"
         stroke-width="0.001cm"
         stroke-linecap="round"
         stroke-linejoin="round"
         id="path12"
         style="fill:none;stroke:#ff0c00;stroke-width:0.05;stroke-dasharray:none;stroke-opacity:1" /><path
         d="m -0.7220874,-1.7218941 a 0.72,0.72 0 1 1 1.44,0 0.72,0.72 0 1 1 -1.44,0 z"
         transform="matrix(1,0,0,-1,7.2237438,8.5009535)"
         fill="#ffffff"
         stroke="#000000"
         stroke-width="0.001cm"
         stroke-linecap="round"
         stroke-linejoin="round"
         id="path13"
         style="fill:none;stroke:#ff0c00;stroke-width:0.05;stroke-dasharray:none;stroke-opacity:1" /><path
         d="m 3.9279126,3.0316035 a 0.72,0.72 0 1 1 1.44,0 0.72,0.72 0 1 1 -1.44,0 z"
         transform="matrix(1,0,0,-1,7.2237438,8.5009535)"
         fill="#ffffff"
         stroke="#000000"
         stroke-width="0.001cm"
         stroke-linecap="round"
         stroke-linejoin="round"
         id="path14"
         style="fill:none;stroke:#ff0c00;stroke-width:0.05;stroke-dasharray:none;stroke-opacity:1" /><path
         d="m 4.1079126,-8.3346465 a 0.72,0.72 0 1 1 1.44,0 0.72,0.72 0 1 1 -1.44,0 z"
         transform="matrix(1,0,0,-1,7.2237438,8.5009535)"
         fill="#ffffff"
         stroke="#000000"
         stroke-width="0.001cm"
         stroke-linecap="round"
         stroke-linejoin="round"
         id="path15"
         style="fill:none;stroke:#ff0c00;stroke-width:0.05;stroke-dasharray:none;stroke-opacity:1" /><path
         d="m -1.9520874,-8.3308947 a 0.72,0.72 0 1 1 1.44,0 0.72,0.72 0 1 1 -1.44,0 z"
         transform="matrix(1,0,0,-1,7.2237438,8.5009535)"
         fill="#ffffff"
         stroke="#000000"
         stroke-width="0.001cm"
         stroke-linecap="round"
         stroke-linejoin="round"
         id="path16"
         style="fill:none;stroke:#ff0c00;stroke-width:0.05;stroke-dasharray:none;stroke-opacity:1" /><path
         d="m 3.9279126,-0.4683965 a 0.72,0.72 0 1 1 1.44,0 0.72,0.72 0 1 1 -1.44,0 z"
         transform="matrix(1,0,0,-1,7.2237438,8.5009535)"
         fill="#ffffff"
         stroke="#000000"
         stroke-width="0.001cm"
         stroke-linecap="round"
         stroke-linejoin="round"
         id="path17"
         style="fill:none;stroke:#ff0c00;stroke-width:0.05;stroke-dasharray:none;stroke-opacity:1" /><path
         d="m 3.1279126,6.5316035 a 0.72,0.72 0 1 1 1.44,0 0.72,0.72 0 1 1 -1.44,0 z"
         transform="matrix(1,0,0,-1,7.2237438,8.5009535)"
         fill="#ffffff"
         stroke="#000000"
         stroke-width="0.001cm"
         stroke-linecap="round"
         stroke-linejoin="round"
         id="path18"
         style="fill:none;stroke:#ff0c00;stroke-width:0.05;stroke-dasharray:none;stroke-opacity:1" /></g><g
       id="g2"
       transform="matrix(0,-10,10,0,31.856842,262.8)"
       style="display:inline;fill:none;stroke:#03ff00;stroke-opacity:1;stroke-width:0.05;stroke-dasharray:none"><path
         d="m -11.355,7.3025 a 0.075,0.075 90 0 1 -0.075,-0.075 v -14.455 a 0.075,0.075 -180 0 1 0.075,-0.075 h 22.71 a 0.075,0.075 -90 0 1 0.075,0.075 v 14.455 a 0.075,0.075 0 0 1 -0.075,0.075 z"
         transform="matrix(1,0,0,-1,11.43,7.3025)"
         fill="#000000"
         stroke-linecap="round"
         stroke-linejoin="round"
         id="path1-0"
         style="fill:none;stroke:#03ff00;stroke-width:0.05;stroke-dasharray:none;stroke-opacity:1" /><path
         d="m 4.3336717,3.1619986 a 0.154,0.154 0 1 1 0.308,0 0.154,0.154 0 1 1 -0.308,0 z"
         transform="matrix(1,0,0,-1,11.43,7.3025)"
         fill="#ffffff"
         stroke="#000000"
         stroke-width="0.001cm"
         stroke-linecap="round"
         stroke-linejoin="round"
         id="path2-2"
         style="fill:none;stroke:#03ff00;stroke-opacity:1;stroke-width:0.05;stroke-dasharray:none" /><path
         d="m 6.88125,3.8492 a 0.595,0.595 0 1 1 1.19,0 0.595,0.595 0 1 1 -1.19,0 z"
         transform="matrix(1,0,0,-1,11.43,7.3025)"
         fill="#ffffff"
         stroke="#000000"
         stroke-width="0.001cm"
         stroke-linecap="round"
         stroke-linejoin="round"
         id="path3-9"
         style="fill:none;stroke:#03ff00;stroke-opacity:1;stroke-width:0.05;stroke-dasharray:none" /><path
         d="m -1.5617655,1.8300349 h -3.675 a 0.05,0.05 -90 0 0 -0.05,0.05 v 2.455 a 0.05,0.05 -180 0 0 0.05,0.05 h 3.675 a 0.05,0.05 90 0 0 0.05,-0.05 v -2.455 a 0.05,0.05 0 0 0 -0.05,-0.05 z"
         transform="matrix(1,0,0,-1,11.43,7.3025)"
         fill="#ffffff"
         stroke="#000000"
         stroke-width="0.001cm"
         stroke-linecap="round"
         stroke-linejoin="round"
         id="path4-0"
         style="fill:none;stroke:#03ff00;stroke-opacity:1;stroke-width:0.05;stroke-dasharray:none" /><path
         d="m -1.5617655,-4.3849651 h -3.675 a 0.05,0.05 -90 0 0 -0.05,0.05 v 2.455 a 0.05,0.05 -180 0 0 0.05,0.05 h 3.675 a 0.05,0.05 90 0 0 0.05,-0.05 v -2.455 a 0.05,0.05 0 0 0 -0.05,-0.05 z"
         transform="matrix(1,0,0,-1,11.43,7.3025)"
         fill="#ffffff"
         stroke="#000000"
         stroke-width="0.001cm"
         stroke-linecap="round"
         stroke-linejoin="round"
         id="path5-7"
         style="fill:none;stroke:#03ff00;stroke-opacity:1;stroke-width:0.05;stroke-dasharray:none" /><path
         d="m -11.1725,-5.48 v 2.5050001 a 0.05,0.05 179.99985 0 0 0.05,0.05 h 1.185 a 0.05,0.05 90 0 0 0.05,-0.05 V -5.48 Z"
         transform="matrix(1,0,0,-1,11.43,7.3025)"
         fill="#ffffff"
         stroke="#000000"
         stroke-width="0.001cm"
         stroke-linecap="round"
         stroke-linejoin="round"
         id="path6-3"
         style="fill:none;stroke:#03ff00;stroke-opacity:1;stroke-width:0.05;stroke-dasharray:none" /><path
         d="m -9.8875,-2.6358 h -1.285 v 2.5050001 a 0.05,0.05 179.99985 0 0 0.05,0.0499999 h 1.185 a 0.05,0.05 90 0 0 0.05,-0.05 z"
         transform="matrix(1,0,0,-1,11.43,7.3025)"
         fill="#ffffff"
         stroke="#000000"
         stroke-width="0.001cm"
         stroke-linecap="round"
         stroke-linejoin="round"
         id="path7-3"
         style="fill:none;stroke:#03ff00;stroke-opacity:1;stroke-width:0.05;stroke-dasharray:none" /><path
         d="m -11.1725,0.0808 v 5.02 a 0.05,0.05 -180 0 0 0.05,0.05 h 1.185 a 0.05,0.05 90 0 0 0.05,-0.05 v -5.02 z"
         transform="matrix(1,0,0,-1,11.43,7.3025)"
         fill="#ffffff"
         stroke="#000000"
         stroke-width="0.001cm"
         stroke-linecap="round"
         stroke-linejoin="round"
         id="path8-4"
         style="fill:none;stroke:#03ff00;stroke-opacity:1;stroke-width:0.05;stroke-dasharray:none" /><path
         d="m 3.38125,-4.6491564 a 0.595,0.595 0 1 1 1.19,0 0.595,0.595 0 1 1 -1.19,0 z"
         transform="matrix(1,0,0,-1,11.43,7.3025)"
         fill="#ffffff"
         stroke="#000000"
         stroke-width="0.001cm"
         stroke-linecap="round"
         stroke-linejoin="round"
         id="path9-3"
         style="fill:none;stroke:#03ff00;stroke-opacity:1;stroke-width:0.05;stroke-dasharray:none" /><path
         d="m -0.11875,-4.6491564 a 0.595,0.595 0 1 1 1.19,0 0.595,0.595 0 1 1 -1.19,0 z"
         transform="matrix(1,0,0,-1,11.43,7.3025)"
         fill="#ffffff"
         stroke="#000000"
         stroke-width="0.001cm"
         stroke-linecap="round"
         stroke-linejoin="round"
         id="path10-8"
         style="fill:none;stroke:#03ff00;stroke-opacity:1;stroke-width:0.05;stroke-dasharray:none" /><path
         d="m 1.94654,0 a 2.54,2.54 0 1 1 5.08,0 2.54,2.54 0 1 1 -5.08,0 z"
         transform="matrix(1,0,0,-1,11.43,7.3025)"
         fill="#ffffff"
         stroke="#000000"
         stroke-width="0.001cm"
         stroke-linecap="round"
         stroke-linejoin="round"
         id="path11-3"
         style="fill:none;stroke:#03ff00;stroke-opacity:1;stroke-width:0.05;stroke-dasharray:none" /><path
         d="m 9.6775,-2.571625 h 1.185 a 0.05,0.05 90 0 0 0.05,-0.05 v -2.455 a 0.05,0.05 0 0 0 -0.05,-0.05 h -1.185 a 0.05,0.05 -90 0 0 -0.05,0.05 v 2.4550001 a 0.05,0.05 179.99985 0 0 0.05,0.05 z"
         transform="matrix(1,0,0,-1,11.43,7.3025)"
         fill="#ffffff"
         stroke="#000000"
         stroke-width="0.001cm"
         stroke-linecap="round"
         stroke-linejoin="round"
         id="path12-3"
         style="fill:none;stroke:#03ff00;stroke-opacity:1;stroke-width:0.05;stroke-dasharray:none" /><path
         d="m 9.6775,0.125 a 0.05,0.05 -90 0 0 -0.05,0.05 v 4.97 a 0.05,0.05 -180 0 0 0.05,0.05 h 1.185 a 0.05,0.05 90 0 0 0.05,-0.05 v -4.97 a 0.05,0.05 0 0 0 -0.05,-0.05 z"
         transform="matrix(1,0,0,-1,11.43,7.3025)"
         fill="#ffffff"
         stroke="#000000"
         stroke-width="0.001cm"
         stroke-linecap="round"
         stroke-linejoin="round"
         id="path13-4"
         style="fill:none;stroke:#03ff00;stroke-opacity:1;stroke-width:0.05;stroke-dasharray:none" /><path
         d="m -9.1179885,-6.0225 a 0.16,0.16 0 1 1 0.32,0 0.16,0.16 0 1 1 -0.32,0 z"
         transform="matrix(1,0,0,-1,11.43,7.3025)"
         fill="#ffffff"
         stroke="#000000"
         stroke-width="0.001cm"
         stroke-linecap="round"
         stroke-linejoin="round"
         id="path14-7"
         style="fill:none;stroke:#03ff00;stroke-opacity:1;stroke-width:0.05;stroke-dasharray:none" /><path
         d="m 7.6356,6.0225 a 0.16,0.16 0 1 1 0.32,0 0.16,0.16 0 1 1 -0.32,0 z"
         transform="matrix(1,0,0,-1,11.43,7.3025)"
         fill="#ffffff"
         stroke="#000000"
         stroke-width="0.001cm"
         stroke-linecap="round"
         stroke-linejoin="round"
         id="path15-8"
         style="fill:none;stroke:#03ff00;stroke-opacity:1;stroke-width:0.05;stroke-dasharray:none" /><path
         d="m 7.6356,-6.0225 a 0.16,0.16 0 1 1 0.32,0 0.16,0.16 0 1 1 -0.32,0 z"
         transform="matrix(1,0,0,-1,11.43,7.3025)"
         fill="#ffffff"
         stroke="#000000"
         stroke-width="0.001cm"
         stroke-linecap="round"
         stroke-linejoin="round"
         id="path16-0"
         style="fill:none;stroke:#03ff00;stroke-opacity:1;stroke-width:0.05;stroke-dasharray:none" /><path
         d="m -11.11,6.0225 a 0.16,0.16 0 1 1 0.32,0 0.16,0.16 0 1 1 -0.32,0 z"
         transform="matrix(1,0,0,-1,11.43,7.3025)"
         fill="#ffffff"
         stroke="#000000"
         stroke-width="0.001cm"
         stroke-linecap="round"
         stroke-linejoin="round"
         id="path17-2"
         style="fill:none;stroke:#03ff00;stroke-opacity:1;stroke-width:0.05;stroke-dasharray:none" /><path
         d="m -11.11,-6.0225 a 0.16,0.16 0 1 1 0.32,0 0.16,0.16 0 1 1 -0.32,0 z"
         transform="matrix(1,0,0,-1,11.43,7.3025)"
         fill="#ffffff"
         stroke="#000000"
         stroke-width="0.001cm"
         stroke-linecap="round"
         stroke-linejoin="round"
         id="path18-7"
         style="fill:none;stroke:#03ff00;stroke-opacity:1;stroke-width:0.05;stroke-dasharray:none" /><path
         d="m 10.79,6.0225 a 0.16,0.16 0 1 1 0.32,0 0.16,0.16 0 1 1 -0.32,0 z"
         transform="matrix(1,0,0,-1,11.43,7.3025)"
         fill="#ffffff"
         stroke="#000000"
         stroke-width="0.001cm"
         stroke-linecap="round"
         stroke-linejoin="round"
         id="path19"
         style="fill:none;stroke:#03ff00;stroke-opacity:1;stroke-width:0.05;stroke-dasharray:none" /><path
         d="m 10.79,-6.0225 a 0.16,0.16 0 1 1 0.32,0 0.16,0.16 0 1 1 -0.32,0 z"
         transform="matrix(1,0,0,-1,11.43,7.3025)"
         fill="#ffffff"
         stroke="#000000"
         stroke-width="0.001cm"
         stroke-linecap="round"
         stroke-linejoin="round"
         id="path20"
         style="fill:none;stroke:#03ff00;stroke-opacity:1;stroke-width:0.05;stroke-dasharray:none" /><path
         d="m -9.1179885,6.0225 a 0.16,0.16 0 1 1 0.32,0 0.16,0.16 0 1 1 -0.32,0 z"
         transform="matrix(1,0,0,-1,11.43,7.3025)"
         fill="#ffffff"
         stroke="#000000"
         stroke-width="0.001cm"
         stroke-linecap="round"
         stroke-linejoin="round"
         id="path21"
         style="fill:none;stroke:#03ff00;stroke-opacity:1;stroke-width:0.05;stroke-dasharray:none" /><path
         d="m -7.9812482,4.8308436 a 0.595,0.595 0 1 1 1.19,0 0.595,0.595 0 1 1 -1.19,0 z"
         transform="matrix(1,0,0,-1,11.43,7.3025)"
         fill="#ffffff"
         stroke="#000000"
         stroke-width="0.001cm"
         stroke-linecap="round"
         stroke-linejoin="round"
         id="path22"
         style="fill:none;stroke:#03ff00;stroke-opacity:1;stroke-width:0.05;stroke-dasharray:none" /><path
         d="m -7.9812482,1.2308436 a 0.595,0.595 0 1 1 1.19,0 0.595,0.595 0 1 1 -1.19,0 z"
         transform="matrix(1,0,0,-1,11.43,7.3025)"
         fill="#ffffff"
         stroke="#000000"
         stroke-width="0.001cm"
         stroke-linecap="round"
         stroke-linejoin="round"
         id="path23"
         style="fill:none;stroke:#03ff00;stroke-opacity:1;stroke-width:0.05;stroke-dasharray:none" /><path
         d="m -1.3722476,8.436e-4 a 0.595,0.595 0 1 1 1.19,0 0.595,0.595 0 1 1 -1.19,0 z"
         transform="matrix(1,0,0,-1,11.43,7.3025)"
         fill="#ffffff"
         stroke="#000000"
         stroke-width="0.001cm"
         stroke-linecap="round"
         stroke-linejoin="round"
         id="path24"
         style="fill:none;stroke:#03ff00;stroke-opacity:1;stroke-width:0.05;stroke-dasharray:none" /><path
         d="m -5.1722476,8.436e-4 a 0.595,0.595 0 1 1 1.19,0 0.595,0.595 0 1 1 -1.19,0 z"
         transform="matrix(1,0,0,-1,11.43,7.3025)"
         fill="#ffffff"
         stroke="#000000"
         stroke-width="0.001cm"
         stroke-linecap="round"
         stroke-linejoin="round"
         id="path25"
         style="fill:none;stroke:#03ff00;stroke-opacity:1;stroke-width:0.05;stroke-dasharray:none" /><path
         d="m -7.985,-4.8291564 a 0.595,0.595 0 1 1 1.19,0 0.595,0.595 0 1 1 -1.19,0 z"
         transform="matrix(1,0,0,-1,11.43,7.3025)"
         fill="#ffffff"
         stroke="#000000"
         stroke-width="0.001cm"
         stroke-linecap="round"
         stroke-linejoin="round"
         id="path26"
         style="fill:none;stroke:#03ff00;stroke-opacity:1;stroke-width:0.05;stroke-dasharray:none" /><path
         d="m -0.11875,4.6508436 a 0.595,0.595 0 1 1 1.19,0 0.595,0.595 0 1 1 -1.19,0 z"
         transform="matrix(1,0,0,-1,11.43,7.3025)"
         fill="#ffffff"
         stroke="#000000"
         stroke-width="0.001cm"
         stroke-linecap="round"
         stroke-linejoin="round"
         id="path27"
         style="fill:none;stroke:#03ff00;stroke-opacity:1;stroke-width:0.05;stroke-dasharray:none" /><path
         d="m 6.88125,-3.8491564 a 0.595,0.595 0 1 1 1.19,0 0.595,0.595 0 1 1 -1.19,0 z"
         transform="matrix(1,0,0,-1,11.43,7.3025)"
         fill="#ffffff"
         stroke="#000000"
         stroke-width="0.001cm"
         stroke-linecap="round"
         stroke-linejoin="round"
         id="path28"
         style="fill:none;stroke:#03ff00;stroke-opacity:1;stroke-width:0.05;stroke-dasharray:none" /><path
         d="m -10.32525,6.82625 a 0.324,0.324 0 1 1 0.648,0 0.324,0.324 0 1 1 -0.648,0 z"
         transform="matrix(1,0,0,-1,11.43,7.3025)"
         fill="#ffffff"
         stroke="#000000"
         stroke-width="0.001cm"
         stroke-linecap="round"
         stroke-linejoin="round"
         id="path29"
         style="fill:none;stroke:#03ff00;stroke-opacity:1;stroke-width:0.05;stroke-dasharray:none" /><path
         d="m 0.15225,6.82625 a 0.324,0.324 0 1 1 0.648,0 0.324,0.324 0 1 1 -0.648,0 z"
         transform="matrix(1,0,0,-1,11.43,7.3025)"
         fill="#ffffff"
         stroke="#000000"
         stroke-width="0.001cm"
         stroke-linecap="round"
         stroke-linejoin="round"
         id="path30"
         style="fill:none;stroke:#03ff00;stroke-opacity:1;stroke-width:0.05;stroke-dasharray:none" /><path
         d="m 9.67725,-6.82625 a 0.324,0.324 0 1 1 0.648,0 0.324,0.324 0 1 1 -0.648,0 z"
         transform="matrix(1,0,0,-1,11.43,7.3025)"
         fill="#ffffff"
         stroke="#000000"
         stroke-width="0.001cm"
         stroke-linecap="round"
         stroke-linejoin="round"
         id="path31"
         style="fill:none;stroke:#03ff00;stroke-opacity:1;stroke-width:0.05;stroke-dasharray:none" /><path
         d="m 0.15225,-6.82625 a 0.324,0.324 0 1 1 0.648,0 0.324,0.324 0 1 1 -0.648,0 z"
         transform="matrix(1,0,0,-1,11.43,7.3025)"
         fill="#ffffff"
         stroke="#000000"
         stroke-width="0.001cm"
         stroke-linecap="round"
         stroke-linejoin="round"
         id="path32"
         style="fill:none;stroke:#03ff00;stroke-opacity:1;stroke-width:0.05;stroke-dasharray:none" /><path
         d="m -10.24525,-6.82625 a 0.324,0.324 0 1 1 0.648,0 0.324,0.324 0 1 1 -0.648,0 z"
         transform="matrix(1,0,0,-1,11.43,7.3025)"
         fill="#ffffff"
         stroke="#000000"
         stroke-width="0.001cm"
         stroke-linecap="round"
         stroke-linejoin="round"
         id="path33"
         style="fill:none;stroke:#03ff00;stroke-opacity:1;stroke-width:0.05;stroke-dasharray:none" /><path
         d="m 9.67725,6.82625 a 0.324,0.324 0 1 1 0.648,0 0.324,0.324 0 1 1 -0.648,0 z"
         transform="matrix(1,0,0,-1,11.43,7.3025)"
         fill="#ffffff"
         stroke="#000000"
         stroke-width="0.001cm"
         stroke-linecap="round"
         stroke-linejoin="round"
         id="path34"
         style="fill:none;stroke:#03ff00;stroke-opacity:1;stroke-width:0.05;stroke-dasharray:none" /></g></g></svg>
