<?xml version="1.0" encoding="UTF-8" standalone="no"?>
<!-- Created with Inkscape (http://www.inkscape.org/) -->

<svg
   width="210mm"
   height="297mm"
   viewBox="0 0 210 297"
   version="1.1"
   id="svg38657"
   xml:space="preserve"
   inkscape:version="1.3 (0e150ed6c4, 2023-07-21)"
   sodipodi:docname="OH_06_Combined.svg"
   inkscape:export-filename="OH_06_Marek.svg"
   inkscape:export-xdpi="96"
   inkscape:export-ydpi="96"
   xmlns:inkscape="http://www.inkscape.org/namespaces/inkscape"
   xmlns:sodipodi="http://sodipodi.sourceforge.net/DTD/sodipodi-0.dtd"
   xmlns="http://www.w3.org/2000/svg"
   xmlns:svg="http://www.w3.org/2000/svg"><sodipodi:namedview
     id="namedview38659"
     pagecolor="#505050"
     bordercolor="#ffffff"
     borderopacity="1"
     inkscape:showpageshadow="0"
     inkscape:pageopacity="0"
     inkscape:pagecheckerboard="1"
     inkscape:deskcolor="#505050"
     inkscape:document-units="mm"
     showgrid="false"
     showguides="true"
     inkscape:zoom="1.9351394"
     inkscape:cx="339.25204"
     inkscape:cy="464.82439"
     inkscape:current-layer="layer1"><sodipodi:guide
       position="106.73437,114.28828"
       orientation="1,0"
       id="guide41450"
       inkscape:locked="false" /><sodipodi:guide
       position="65.734373,146.48829"
       orientation="1,0"
       id="guide45326"
       inkscape:locked="false" /><sodipodi:guide
       position="80.05291,175.36183"
       orientation="0,-1"
       id="guide45361"
       inkscape:locked="false" /><sodipodi:guide
       position="147.73432,173.91928"
       orientation="1,0"
       id="guide45363"
       inkscape:locked="false" /><sodipodi:guide
       position="147.73432,173.91928"
       orientation="1,0"
       id="guide45365"
       inkscape:locked="false" /><sodipodi:guide
       position="102.24422,159.401"
       orientation="0,-1"
       id="guide45483"
       inkscape:locked="false" /><sodipodi:guide
       position="148.88296,201.16444"
       orientation="0,-1"
       id="guide45567"
       inkscape:locked="false" /><sodipodi:guide
       position="101.45048,185.7258"
       orientation="0,-1"
       id="guide8644"
       inkscape:locked="false" /><sodipodi:guide
       position="73.900251,175.36183"
       orientation="0,-1"
       id="guide8646"
       inkscape:locked="false" /><sodipodi:guide
       position="85.617892,159.43487"
       orientation="1,0"
       id="guide8648"
       inkscape:locked="false" /><sodipodi:guide
       position="129.02155,159.401"
       orientation="1,0"
       id="guide8650"
       inkscape:locked="false" /></sodipodi:namedview><defs
     id="defs38654"><rect
       x="329.594"
       y="556.875"
       width="46.771654"
       height="32.886319"
       id="rect45413" /><rect
       x="329.594"
       y="431.17618"
       width="240.80093"
       height="60.291585"
       id="rect44461" /><rect
       x="329.59399"
       y="431.17618"
       width="240.80093"
       height="60.291584"
       id="rect44461-5" /><rect
       x="329.59399"
       y="431.17618"
       width="240.80093"
       height="60.291584"
       id="rect44461-5-2" /><rect
       x="329.59399"
       y="431.17618"
       width="240.80093"
       height="60.291584"
       id="rect44461-5-2-4" /><rect
       x="329.59399"
       y="431.17618"
       width="240.80093"
       height="60.291584"
       id="rect44461-5-2-4-0" /><rect
       x="329.59399"
       y="431.17618"
       width="240.80093"
       height="60.291584"
       id="rect44461-5-2-4-0-0" /><rect
       x="329.59399"
       y="431.17618"
       width="240.80093"
       height="60.291584"
       id="rect44461-5-2-4-0-0-7" /><rect
       x="329.59399"
       y="431.17618"
       width="240.80093"
       height="60.291584"
       id="rect44461-5-2-4-0-6" /><rect
       x="329.59399"
       y="431.17618"
       width="240.80093"
       height="60.291584"
       id="rect44461-5-2-40" /></defs><g
     inkscape:label="Layer 1"
     inkscape:groupmode="layer"
     id="layer1"
     style="display:inline"><path
       id="path8652"
       style="font-size:18.6667px;font-family:'Futura Md BT';-inkscape-font-specification:'Futura Md BT, Normal';text-align:center;letter-spacing:-0.2px;white-space:pre;display:inline;fill:#e3e3e3;stroke-width:0.499999"
       d="m 147.63182,92.330798 c -0.35692,0 -0.64246,0.096 -0.85628,0.287321 -0.21222,0.18971 -0.31833,0.440972 -0.31833,0.754476 h 0.55242 c 0.0145,-0.165594 0.0738,-0.298229 0.17829,-0.397908 0.10449,-0.09968 0.23667,-0.149345 0.39584,-0.149345 0.18166,0 0.32395,0.05064 0.42684,0.151929 0.1029,0.09968 0.154,0.237137 0.154,0.412377 0,0.12058 -0.0376,0.256603 -0.11317,0.407727 -0.0418,0.08039 -0.0915,0.162379 -0.14935,0.24598 -0.0563,0.0836 -0.1262,0.175242 -0.2098,0.274919 l -1.3193,1.579232 h 2.36574 v -0.457853 h -1.34307 l 0.44856,-0.520899 c 0.36655,-0.418006 0.60575,-0.736333 0.7183,-0.95498 0.11414,-0.21865 0.17156,-0.436666 0.17156,-0.653707 0,-0.303858 -0.0989,-0.542602 -0.29662,-0.716236 -0.19614,-0.17524 -0.4648,-0.263033 -0.80563,-0.263033 z m -82.566541,0.07028 -0.222209,0.453203 h 0.730705 v 3.043225 h 0.523482 v -3.496428 z m 28.606006,15.202692 -1.709456,3.67057 h 0.602547 l 0.410311,-0.9095 h 1.398364 l 0.400492,0.9095 h 0.605131 z m 1.987476,0 v 3.67057 h 0.528133 v -2.45514 c 0.04984,0.0707 0.103867,0.13969 0.161747,0.20722 0.04823,0.0547 0.07763,0.0879 0.08888,0.0992 0.02573,0.0273 0.05564,0.0567 0.0894,0.0889 l 2.288749,2.19728 v -3.66799 h -0.530717 v 2.4474 c -0.07074,-0.09 -0.136828,-0.16765 -0.197921,-0.23358 l -0.185518,-0.19534 z m 23.328289,0 -0.709,1.88567 -0.017,0.046 c -0.0611,0.17364 -0.11995,0.35594 -0.17622,0.54726 l -0.0796,-0.24805 c -0.0258,-0.082 -0.0619,-0.18523 -0.10852,-0.30903 l -0.66766,-1.7818 h -0.56689 l 1.36271,3.66799 0.79065,-2.00401 c 0.0259,-0.0643 0.0413,-0.10289 0.046,-0.11575 0.0129,-0.0402 0.0254,-0.0807 0.0382,-0.12093 l 0.0822,-0.26768 0.0775,0.23668 0.0961,0.25786 0.80563,2.01383 1.36736,-3.66799 h -0.57154 l -0.66301,1.79627 c -0.0225,0.0595 -0.0389,0.1029 -0.0486,0.13023 -0.0177,0.0514 -0.037,0.11127 -0.0579,0.1788 -0.0289,0.0868 -0.0507,0.1664 -0.0651,0.23874 l -0.0889,-0.28215 -0.0992,-0.28009 z m -30.705617,0.0605 c -0.316718,0 -0.573322,0.0897 -0.769462,0.26975 -0.194534,0.17845 -0.291972,0.41094 -0.291972,0.69712 0,0.22025 0.06511,0.40835 0.195337,0.5643 0.131833,0.15595 0.390847,0.32717 0.776697,0.51367 l 0.111104,0.0532 c 0.344052,0.164 0.515731,0.3487 0.515731,0.55449 0,0.15916 -0.05064,0.286 -0.151929,0.38086 -0.09968,0.0948 -0.234726,0.14262 -0.405143,0.14262 -0.180064,0 -0.327629,-0.042 -0.443384,-0.12557 -0.115758,-0.0836 -0.195338,-0.20321 -0.238745,-0.35915 l -0.45837,0.21187 v 5.2e-4 c 0.06109,0.25723 0.18747,0.45498 0.378788,0.59324 0.191319,0.13826 0.437298,0.20723 0.73794,0.20723 0.35852,0 0.643085,-0.0989 0.853695,-0.29663 0.210609,-0.19775 0.315743,-0.46302 0.315743,-0.79581 0,-0.22991 -0.06609,-0.42186 -0.197921,-0.5762 -0.130225,-0.15434 -0.368971,-0.31109 -0.716236,-0.47025 l -0.07235,-0.0341 c -0.398712,-0.18328 -0.597896,-0.38102 -0.597896,-0.59324 0,-0.13505 0.04484,-0.24259 0.134876,-0.32298 0.09003,-0.0804 0.21302,-0.12092 0.368969,-0.12092 0.109324,0 0.206762,0.0265 0.291972,0.0796 0.08521,0.0514 0.162379,0.132 0.231511,0.24133 l 0.448551,-0.23151 c -0.06913,-0.18972 -0.191144,-0.33441 -0.366386,-0.43409 -0.17524,-0.0997 -0.392281,-0.14934 -0.651123,-0.14934 z m 26.308987,0 c -0.25723,0 -0.49983,0.0463 -0.72812,0.13953 -0.2283,0.0916 -0.43282,0.22525 -0.61288,0.40049 -0.17846,0.17363 -0.31397,0.37281 -0.40721,0.59789 -0.0932,0.22508 -0.14005,0.46337 -0.14005,0.71417 0,0.25081 0.0473,0.48857 0.14211,0.71365 0.0949,0.22508 0.23089,0.42427 0.40773,0.5979 0.17685,0.17203 0.38039,0.30564 0.6103,0.40049 0.23151,0.0932 0.4741,0.14005 0.72812,0.14005 0.24919,0 0.48891,-0.0478 0.71882,-0.14263 0.23151,-0.0965 0.43695,-0.2315 0.61702,-0.40514 0.18006,-0.17364 0.31706,-0.37041 0.41031,-0.59067 0.0932,-0.22186 0.13952,-0.45963 0.13952,-0.71365 0,-0.24919 -0.0482,-0.4865 -0.14469,-0.71158 -0.0949,-0.22508 -0.23232,-0.42524 -0.41238,-0.60048 -0.18006,-0.17685 -0.38407,-0.31092 -0.61236,-0.40256 -0.2267,-0.0916 -0.46544,-0.13746 -0.71624,-0.13746 z m -24.980386,0.0796 v 0.48679 h 0.938444 v 3.04374 h 0.573609 v -3.04374 h 0.933276 v -0.48679 z m 9.9627,0 v 3.53053 h 0.774116 0.15451 c 0.209,0 0.38987,-0.006 0.5426,-0.0191 0.15273,-0.0129 0.27813,-0.0317 0.37621,-0.0558 0.19935,-0.053 0.3754,-0.13843 0.52813,-0.25579 0.20579,-0.16078 0.3611,-0.36139 0.4656,-0.60255 0.1045,-0.24115 0.15658,-0.51803 0.15658,-0.82992 0,-0.3135 -0.053,-0.59227 -0.15916,-0.83665 -0.10611,-0.24598 -0.26045,-0.44613 -0.46302,-0.60048 -0.15755,-0.12054 -0.33745,-0.20593 -0.54002,-0.25579 -0.20096,-0.0499 -0.555,-0.0744 -1.06143,-0.0744 z m 3.603396,0 v 3.53053 h 0.89452 c 0.3328,0 0.57252,-0.0207 0.71882,-0.0625 0.1463,-0.0418 0.2659,-0.10933 0.35915,-0.20258 0.0948,-0.0932 0.16619,-0.20319 0.21446,-0.33021 0.0498,-0.12861 0.0749,-0.26464 0.0749,-0.40772 0,-0.23473 -0.0598,-0.43006 -0.1788,-0.58602 -0.11737,-0.15756 -0.27894,-0.25162 -0.48473,-0.28215 0.1656,-0.0498 0.29197,-0.13809 0.37879,-0.2651 0.0868,-0.12701 0.13023,-0.28375 0.13023,-0.47025 0,-0.15595 -0.0304,-0.29921 -0.0915,-0.42944 -0.0595,-0.13183 -0.14389,-0.23794 -0.25322,-0.31832 -0.0836,-0.0627 -0.18729,-0.10754 -0.31109,-0.13488 -0.0611,-0.0143 -0.13826,-0.0249 -0.23151,-0.0315 -0.0932,-0.007 -0.2032,-0.01 -0.33021,-0.01 z m 2.36316,0 1.18908,1.91461 v 1.61592 h 0.56896 v -1.61592 l 1.21543,-1.91461 h -0.57413 l -0.75964,1.18391 c -0.0289,0.0434 -0.0554,0.0892 -0.0796,0.13746 -0.0177,0.0338 -0.0326,0.0666 -0.0455,0.0987 -0.0114,0.0305 -0.0196,0.0508 -0.0243,0.0605 l -0.0822,-0.16175 -0.0651,-0.1204 -0.74,-1.19838 z m 4.74132,0 v 3.53053 h 0.53795 v -1.58439 h 0.21704 0.11317 c 0.25402,0 0.4431,-0.014 0.56689,-0.0413 0.12379,-0.029 0.2299,-0.0748 0.31833,-0.13745 0.11096,-0.082 0.19778,-0.19339 0.26045,-0.33487 0.0627,-0.14147 0.0941,-0.29535 0.0941,-0.46095 0,-0.1672 -0.0313,-0.31959 -0.0941,-0.45786 -0.0627,-0.13986 -0.14953,-0.2508 -0.26045,-0.33279 -0.0917,-0.0659 -0.19873,-0.11271 -0.32091,-0.14004 -0.12219,-0.0273 -0.31029,-0.0408 -0.56431,-0.0408 z m 11.38587,0 v 3.53053 h 1.9699 v -0.51366 h -1.3963 v -1.14101 h 1.3963 v -0.50385 h -1.3963 v -0.88522 h 1.3963 v -0.48679 z m 2.57555,0 v 3.53053 h 0.53743 v -1.57974 h 0.0651 l 1.1746,1.57974 h 0.64854 l -1.21543,-1.6061 c 0.2701,-0.0338 0.47267,-0.13023 0.60772,-0.28939 0.13504,-0.15916 0.20257,-0.38056 0.20257,-0.66352 0,-0.0788 -0.008,-0.15595 -0.0238,-0.23151 -0.0161,-0.0771 -0.0378,-0.14754 -0.0651,-0.21188 -0.0595,-0.13504 -0.14388,-0.24552 -0.25321,-0.33072 -0.0916,-0.0724 -0.20212,-0.123 -0.33073,-0.15193 -0.12862,-0.0305 -0.31092,-0.0455 -0.54725,-0.0455 z m -9.68416,0.44855 c 0.0109,-2.6e-4 0.0216,0 0.0326,0 0.17524,0 0.34067,0.0338 0.49661,0.10129 0.15756,0.0675 0.29697,0.163 0.41755,0.2868 0.12055,0.1238 0.21265,0.26511 0.27698,0.42427 0.0643,0.15916 0.0966,0.32993 0.0966,0.51159 0,0.17686 -0.0338,0.34612 -0.10129,0.5085 -0.0675,0.16077 -0.16157,0.30305 -0.28215,0.42685 -0.11897,0.12377 -0.25643,0.2188 -0.41238,0.28473 -0.15434,0.0659 -0.31833,0.0987 -0.49196,0.0987 -0.17524,0 -0.34164,-0.0328 -0.49919,-0.0987 -0.15756,-0.0675 -0.296,-0.16301 -0.41496,-0.2868 -0.0643,-0.0643 -0.11882,-0.13137 -0.16382,-0.20051 -0.045,-0.0691 -0.0836,-0.14435 -0.11575,-0.22634 -0.0643,-0.15756 -0.0966,-0.32636 -0.0966,-0.50643 0,-0.0949 0.008,-0.18362 0.0243,-0.26561 0.0161,-0.082 0.0402,-0.16399 0.0724,-0.24598 0.0691,-0.16399 0.16221,-0.30627 0.27957,-0.42685 0.1238,-0.12698 0.2632,-0.22247 0.41754,-0.28681 0.1462,-0.0618 0.3009,-0.0948 0.46406,-0.0987 z m -10.82002,0.0289 h 0.21963 c 0.28939,0 0.48616,0.0386 0.59066,0.11576 0.10611,0.0772 0.15916,0.21267 0.15916,0.40721 0,0.17685 -0.0569,0.30323 -0.17105,0.37879 -0.11254,0.074 -0.30546,0.1111 -0.57877,0.1111 h -0.21963 z m 7.11688,0.0145 h 0.14728 c 0.30547,0 0.5143,0.0386 0.62684,0.11576 0.11254,0.0756 0.16898,0.20819 0.16898,0.3979 0,0.17685 -0.0531,0.29985 -0.15917,0.36897 -0.1045,0.0675 -0.31671,0.10129 -0.63665,0.10129 h -0.14728 z m 13.96091,0 h 0.10387 c 0.28778,0 0.48552,0.041 0.59324,0.12299 0.10772,0.0804 0.16175,0.21589 0.16175,0.40721 0,0.18006 -0.0502,0.30547 -0.14986,0.37621 -0.0997,0.0707 -0.30127,0.10645 -0.60513,0.10645 h -0.10387 z m -24.66878,0.0217 h 0.20722 0.20774 c 0.28939,0 0.50545,0.0183 0.64854,0.0553 0.14469,0.037 0.26527,0.0958 0.36173,0.17622 0.13342,0.11415 0.23328,0.25689 0.29921,0.42891 0.0675,0.17042 0.10129,0.36673 0.10129,0.58859 0,0.22669 -0.0338,0.42541 -0.10129,0.59583 -0.0675,0.16881 -0.16737,0.30914 -0.29921,0.42168 -0.0965,0.0852 -0.21124,0.14547 -0.34468,0.18087 -0.13183,0.0337 -0.33153,0.0506 -0.59841,0.0506 h -0.48214 z m -6.470407,0.42427 0.06718,0.22427 0.06511,0.17622 0.361735,0.80512 H 93.18656 l 0.361735,-0.80512 c 0.02572,-0.0594 0.04743,-0.12072 0.06511,-0.18345 0.01285,-0.0354 0.02348,-0.0692 0.03152,-0.10129 0.0096,-0.0322 0.02027,-0.0707 0.03152,-0.11575 z m 10.061397,0.98598 h 0.19792 0.17364 c 0.0659,0 0.11943,0.002 0.16123,0.005 0.0434,0.003 0.082,0.008 0.11575,0.0145 0.0755,0.0145 0.13824,0.0347 0.18811,0.0605 0.0868,0.0466 0.1539,0.11174 0.2005,0.19534 0.0466,0.0836 0.0698,0.1815 0.0698,0.29404 0,0.0965 -0.0203,0.18426 -0.0605,0.26303 -0.0402,0.0788 -0.0937,0.14052 -0.16123,0.18552 -0.0579,0.0418 -0.13602,0.0708 -0.23409,0.0868 -0.0981,0.0145 -0.24902,0.0217 -0.45321,0.0217 h -0.19792 z M 65.654907,118.03 v 3.67007 h 0.528133 v -2.45464 c 0.04984,0.0707 0.103351,0.1397 0.161231,0.20723 0.04823,0.0547 0.07815,0.0874 0.0894,0.0987 0.02573,0.0273 0.05564,0.0573 0.0894,0.0894 l 2.288233,2.19676 v -3.66799 h -0.5302 v 2.44791 c -0.07074,-0.09 -0.136828,-0.16816 -0.197921,-0.23409 l -0.185519,-0.19534 z m 3.913973,0 v 3.67007 h 0.528133 v -2.45464 c 0.04984,0.0707 0.103868,0.1397 0.161748,0.20723 0.04823,0.0547 0.07763,0.0874 0.08888,0.0987 0.02573,0.0273 0.05564,0.0573 0.0894,0.0894 l 2.288749,2.19676 v -3.66799 h -0.530717 v 2.44791 c -0.07074,-0.09 -0.136827,-0.16816 -0.19792,-0.23409 l -0.185519,-0.19534 z m 78.05932,0 v 3.67007 h 0.52813 v -2.45464 c 0.0498,0.0707 0.10388,0.1397 0.16175,0.20723 0.0482,0.0547 0.0776,0.0874 0.0889,0.0987 0.0257,0.0273 0.0557,0.0573 0.0894,0.0894 l 2.28875,2.19676 v -3.66799 h -0.53072 v 2.44791 c -0.0708,-0.09 -0.13685,-0.16816 -0.19792,-0.23409 l -0.18551,-0.19534 z m 3.91397,0 v 3.67007 h 0.52813 v -2.45464 c 0.0499,0.0707 0.10388,0.1397 0.16175,0.20723 0.0482,0.0547 0.0781,0.0874 0.0894,0.0987 0.0257,0.0273 0.0551,0.0573 0.0889,0.0894 l 2.28874,2.19676 v -3.66799 h -0.53071 v 2.44791 c -0.0708,-0.09 -0.13634,-0.16816 -0.19741,-0.23409 l -0.18603,-0.19534 z m -91.880695,0.0553 c -0.262057,0 -0.507062,0.0448 -0.735356,0.13487 -0.228295,0.0884 -0.429891,0.21865 -0.605131,0.39068 -0.173634,0.17202 -0.307244,0.37316 -0.400492,0.60306 -0.09164,0.22991 -0.13746,0.4725 -0.13746,0.72812 0,0.25884 0.04582,0.50339 0.13746,0.73329 0.09325,0.2283 0.226858,0.42846 0.400492,0.60048 0.17524,0.17041 0.375859,0.29967 0.602547,0.38809 0.228295,0.0868 0.477663,0.13023 0.747758,0.13023 0.104501,0 0.206762,-0.007 0.306441,-0.0217 0.101286,-0.0145 0.195797,-0.0342 0.284221,-0.0599 0.181671,-0.0547 0.350021,-0.13763 0.504362,-0.24857 v -0.64854 c -0.175241,0.15112 -0.357083,0.26251 -0.545187,0.33487 -0.09968,0.0386 -0.197575,0.0671 -0.294039,0.0847 -0.09485,0.0177 -0.195681,0.0264 -0.30179,0.0264 -0.356914,0 -0.653536,-0.12299 -0.889868,-0.36897 -0.236334,-0.24758 -0.3545,-0.56252 -0.3545,-0.94516 0,-0.3955 0.120578,-0.71623 0.361735,-0.96221 0.242765,-0.24759 0.557244,-0.37156 0.943095,-0.37156 0.101285,0 0.198723,0.009 0.291971,0.0264 0.09486,0.0177 0.186953,0.0438 0.276986,0.0775 0.181672,0.0691 0.35387,0.17283 0.516248,0.31109 l 0.03152,-0.57877 c -0.17524,-0.12381 -0.35806,-0.21499 -0.54777,-0.27285 -0.09646,-0.0321 -0.192924,-0.0553 -0.289388,-0.0698 -0.09646,-0.0145 -0.197747,-0.0217 -0.303857,-0.0217 z m 18.121374,0 c -0.262057,0 -0.50706,0.0448 -0.735356,0.13487 -0.228294,0.0884 -0.430407,0.21865 -0.605647,0.39068 -0.173633,0.17202 -0.306728,0.37316 -0.399976,0.60306 -0.09164,0.22991 -0.137459,0.4725 -0.137459,0.72812 0,0.25884 0.04582,0.50339 0.137459,0.73329 0.09325,0.2283 0.226343,0.42846 0.399976,0.60048 0.17524,0.17041 0.376376,0.29967 0.603064,0.38809 0.228294,0.0868 0.477663,0.13023 0.747758,0.13023 0.104502,0 0.206245,-0.007 0.305924,-0.0217 0.101286,-0.0145 0.196314,-0.0342 0.284737,-0.0599 0.181672,-0.0547 0.349506,-0.13763 0.503845,-0.24857 v -0.64854 c -0.17524,0.15112 -0.356567,0.26251 -0.544669,0.33487 -0.09968,0.0386 -0.198095,0.0671 -0.294556,0.0847 -0.09486,0.0177 -0.195163,0.0264 -0.301273,0.0264 -0.356913,0 -0.653536,-0.12299 -0.889869,-0.36897 -0.236334,-0.24758 -0.3545,-0.56252 -0.3545,-0.94516 0,-0.3955 0.120578,-0.71623 0.361735,-0.96221 0.242764,-0.24759 0.557243,-0.37156 0.943095,-0.37156 0.101287,0 0.198207,0.009 0.291455,0.0264 0.09486,0.0177 0.187472,0.0438 0.277503,0.0775 0.181671,0.0691 0.353867,0.17283 0.516247,0.31109 l 0.03101,-0.57877 c -0.175241,-0.12381 -0.357542,-0.21499 -0.547253,-0.27285 -0.09646,-0.0321 -0.192925,-0.0553 -0.289388,-0.0698 -0.09646,-0.0145 -0.197748,-0.0217 -0.303858,-0.0217 z m 63.852431,0 c -0.26206,0 -0.50758,0.0448 -0.73587,0.13487 -0.22829,0.0884 -0.42989,0.21865 -0.60513,0.39068 -0.17363,0.17202 -0.30725,0.37316 -0.40049,0.60306 -0.0916,0.22991 -0.13746,0.4725 -0.13746,0.72812 0,0.25884 0.0458,0.50339 0.13746,0.73329 0.0932,0.2283 0.22686,0.42846 0.40049,0.60048 0.17524,0.17041 0.37638,0.29967 0.60306,0.38809 0.2283,0.0868 0.47714,0.13023 0.74724,0.13023 0.1045,0 0.20677,-0.007 0.30645,-0.0217 0.10128,-0.0145 0.19631,-0.0342 0.28473,-0.0599 0.18168,-0.0547 0.34951,-0.13763 0.50385,-0.24857 v -0.64854 c -0.17524,0.15112 -0.35708,0.26251 -0.54519,0.33487 -0.0997,0.0386 -0.19757,0.0671 -0.29404,0.0847 -0.0949,0.0177 -0.19516,0.0264 -0.30127,0.0264 -0.35691,0 -0.65354,-0.12299 -0.88987,-0.36897 -0.23633,-0.24758 -0.3545,-0.56252 -0.3545,-0.94516 0,-0.3955 0.12058,-0.71623 0.36174,-0.96221 0.24276,-0.24759 0.55672,-0.37156 0.94257,-0.37156 0.10128,0 0.19872,0.009 0.29198,0.0264 0.0949,0.0177 0.18746,0.0438 0.2775,0.0775 0.18167,0.0691 0.35336,0.17283 0.51573,0.31109 l 0.0315,-0.57877 c -0.17524,-0.12381 -0.35755,-0.21499 -0.54725,-0.27285 -0.0965,-0.0321 -0.19293,-0.0553 -0.28939,-0.0698 -0.0965,-0.0145 -0.19775,-0.0217 -0.30386,-0.0217 z m 18.12138,0 c -0.26206,0 -0.50758,0.0448 -0.73588,0.13487 -0.2283,0.0884 -0.42989,0.21865 -0.60513,0.39068 -0.17363,0.17202 -0.30724,0.37316 -0.40049,0.60306 -0.0916,0.22991 -0.13746,0.4725 -0.13746,0.72812 0,0.25884 0.0458,0.50339 0.13746,0.73329 0.0932,0.2283 0.22686,0.42846 0.40049,0.60048 0.17524,0.17041 0.37637,0.29967 0.60307,0.38809 0.22829,0.0868 0.47715,0.13023 0.74724,0.13023 0.1045,0 0.20676,-0.007 0.30644,-0.0217 0.10129,-0.0145 0.19631,-0.0342 0.28474,-0.0599 0.18166,-0.0547 0.3495,-0.13763 0.50384,-0.24857 v -0.64854 c -0.17524,0.15112 -0.35708,0.26251 -0.54518,0.33487 -0.0997,0.0386 -0.19758,0.0671 -0.29404,0.0847 -0.0949,0.0177 -0.19516,0.0264 -0.30128,0.0264 -0.35691,0 -0.65353,-0.12299 -0.88986,-0.36897 -0.23634,-0.24758 -0.35451,-0.56252 -0.35451,-0.94516 0,-0.3955 0.12058,-0.71623 0.36174,-0.96221 0.24276,-0.24759 0.55673,-0.37156 0.94258,-0.37156 0.10128,0 0.19872,0.009 0.29197,0.0264 0.0949,0.0177 0.18747,0.0438 0.2775,0.0775 0.18168,0.0691 0.35335,0.17283 0.51573,0.31109 l 0.0315,-0.57877 c -0.17524,-0.12381 -0.35754,-0.21499 -0.54726,-0.27285 -0.0965,-0.0321 -0.19292,-0.0553 -0.28939,-0.0698 -0.0965,-0.0145 -0.19774,-0.0217 -0.30385,-0.0217 z m -103.519783,0.005 c -0.316718,0 -0.572804,0.0902 -0.768945,0.27027 -0.194534,0.17845 -0.291972,0.41094 -0.291972,0.69711 0,0.22026 0.06511,0.40836 0.195337,0.56431 0.131833,0.15595 0.390847,0.32717 0.776697,0.51366 l 0.110588,0.0527 c 0.344051,0.16399 0.516247,0.34922 0.516247,0.55501 0,0.15916 -0.05064,0.286 -0.151929,0.38085 -0.09968,0.0949 -0.234726,0.14211 -0.405143,0.14211 -0.180064,0 -0.328145,-0.0414 -0.4439,-0.12505 -0.115758,-0.0836 -0.195339,-0.20372 -0.238746,-0.35967 l -0.457853,0.21239 c 0.06109,0.25723 0.186953,0.45498 0.378272,0.59324 0.191318,0.13827 0.437298,0.20723 0.737939,0.20723 0.358521,0 0.643085,-0.0989 0.853695,-0.29663 0.21061,-0.19774 0.31626,-0.46301 0.31626,-0.79581 0,-0.2299 -0.06609,-0.42186 -0.197921,-0.5762 -0.130225,-0.15434 -0.36897,-0.31108 -0.716235,-0.47025 l -0.07235,-0.0336 c -0.398713,-0.18328 -0.597897,-0.38103 -0.597897,-0.59325 0,-0.13504 0.04484,-0.2431 0.134876,-0.32349 0.09003,-0.0804 0.21302,-0.12041 0.368969,-0.12041 0.109324,0 0.206762,0.0265 0.291972,0.0796 0.08521,0.0515 0.162379,0.13201 0.231511,0.24133 l 0.448551,-0.23151 c -0.06913,-0.1897 -0.191661,-0.3344 -0.366903,-0.43408 -0.17524,-0.0997 -0.392281,-0.14986 -0.651123,-0.14986 z m 6.926709,0 c -0.257232,0 -0.500341,0.0468 -0.728637,0.14004 -0.228295,0.0916 -0.432304,0.22526 -0.612366,0.4005 -0.178458,0.17363 -0.314481,0.37281 -0.407727,0.59789 -0.09325,0.22508 -0.139526,0.46285 -0.139526,0.71365 0,0.2508 0.04725,0.48909 0.14211,0.71417 0.09485,0.22508 0.230878,0.42426 0.407727,0.5979 0.176849,0.17202 0.37988,0.30564 0.609782,0.40049 0.231511,0.0932 0.47462,0.13953 0.728637,0.13953 0.249198,0 0.488402,-0.0473 0.718303,-0.14211 0.231512,-0.0965 0.437471,-0.23151 0.617533,-0.40515 0.180065,-0.17363 0.316548,-0.3704 0.409794,-0.59066 0.09325,-0.22186 0.140043,-0.46015 0.140043,-0.71417 0,-0.2492 -0.04823,-0.48599 -0.144694,-0.71106 -0.09485,-0.22509 -0.232315,-0.42525 -0.412378,-0.60048 -0.180065,-0.17685 -0.384071,-0.31144 -0.612365,-0.40308 -0.226688,-0.0916 -0.465432,-0.13746 -0.716236,-0.13746 z m 75.047104,0 c -0.31672,0 -0.57333,0.0902 -0.76947,0.27027 -0.19453,0.17845 -0.29145,0.41094 -0.29145,0.69711 0,0.22026 0.0651,0.40836 0.19533,0.56431 0.13184,0.15595 0.39034,0.32717 0.77618,0.51366 l 0.11111,0.0527 c 0.34405,0.16399 0.51625,0.34922 0.51625,0.55501 0,0.15916 -0.0506,0.286 -0.15193,0.38085 -0.0997,0.0949 -0.23473,0.14211 -0.40515,0.14211 -0.18006,0 -0.32814,-0.0414 -0.4439,-0.12505 -0.11576,-0.0836 -0.19534,-0.20372 -0.23874,-0.35967 l -0.45837,0.21239 c 0.0611,0.25723 0.18747,0.45498 0.37879,0.59324 0.19132,0.13827 0.4373,0.20723 0.73794,0.20723 0.35852,0 0.64308,-0.0989 0.85369,-0.29663 0.21061,-0.19774 0.31574,-0.46301 0.31574,-0.79581 0,-0.2299 -0.0656,-0.42186 -0.1974,-0.5762 -0.13023,-0.15434 -0.36897,-0.31108 -0.71623,-0.47025 l -0.0724,-0.0336 c -0.39871,-0.18328 -0.59841,-0.38103 -0.59841,-0.59325 0,-0.13504 0.0454,-0.2431 0.13539,-0.32349 0.09,-0.0804 0.21302,-0.12041 0.36897,-0.12041 0.10932,0 0.20625,0.0265 0.29145,0.0796 0.0852,0.0515 0.16238,0.13201 0.23151,0.24133 l 0.44855,-0.23151 c -0.0691,-0.1897 -0.19114,-0.3344 -0.36638,-0.43408 -0.17524,-0.0997 -0.39229,-0.14986 -0.65112,-0.14986 z m 6.92619,0 c -0.25724,0 -0.49982,0.0468 -0.72812,0.14004 -0.2283,0.0916 -0.43283,0.22526 -0.61289,0.4005 -0.17846,0.17363 -0.31396,0.37281 -0.40721,0.59789 -0.0932,0.22508 -0.14004,0.46285 -0.14004,0.71365 0,0.2508 0.0473,0.48909 0.14211,0.71417 0.0949,0.22508 0.23087,0.42426 0.40773,0.5979 0.17684,0.17202 0.3804,0.30564 0.6103,0.40049 0.23151,0.0932 0.4741,0.13953 0.72812,0.13953 0.24919,0 0.48891,-0.0473 0.71882,-0.14211 0.2315,-0.0965 0.43695,-0.23151 0.61701,-0.40515 0.18007,-0.17363 0.31707,-0.3704 0.41031,-0.59066 0.0933,-0.22186 0.13953,-0.46015 0.13953,-0.71417 0,-0.2492 -0.0482,-0.48599 -0.14469,-0.71106 -0.0949,-0.22509 -0.23232,-0.42525 -0.41238,-0.60048 -0.18007,-0.17685 -0.38407,-0.31144 -0.61237,-0.40308 -0.22669,-0.0916 -0.46543,-0.13746 -0.71623,-0.13746 z m -94.815404,0.0796 v 3.53054 l 0.774113,5.1e-4 h 0.153996 c 0.209003,0 0.389871,-0.007 0.542602,-0.0196 0.152734,-0.0129 0.278135,-0.0312 0.376205,-0.0553 0.199356,-0.053 0.3754,-0.13844 0.528133,-0.2558 0.205787,-0.16077 0.361103,-0.36191 0.465605,-0.60306 0.1045,-0.24116 0.156579,-0.51751 0.156579,-0.82941 0,-0.3135 -0.05306,-0.59227 -0.159163,-0.83664 -0.106109,-0.24598 -0.260449,-0.44614 -0.463021,-0.60048 -0.157556,-0.12055 -0.337447,-0.20593 -0.540019,-0.2558 -0.200965,-0.0499 -0.554487,-0.0749 -1.060917,-0.0749 z m 3.6127,0 v 3.53054 h 0.573608 v -3.53054 z m 19.548677,0 v 3.53054 h 1.970423 v -0.51367 h -1.396298 v -1.1405 h 1.396298 v -0.50384 h -1.396298 v -0.88522 h 1.396298 v -0.48731 z m 5.696293,0 v 0.48731 h 0.938444 v 3.04323 h 0.573609 v -3.04323 h 0.933276 v -0.48731 z m 53.115624,0 v 3.53054 l 0.77411,5.1e-4 h 0.15451 c 0.209,0 0.38987,-0.007 0.54261,-0.0196 0.15273,-0.0129 0.27813,-0.0312 0.3762,-0.0553 0.19935,-0.053 0.3754,-0.13844 0.52813,-0.2558 0.20579,-0.16077 0.36059,-0.36191 0.46509,-0.60306 0.1045,-0.24116 0.1571,-0.51751 0.1571,-0.82941 0,-0.3135 -0.0531,-0.59227 -0.15917,-0.83664 -0.1061,-0.24598 -0.26044,-0.44614 -0.46302,-0.60048 -0.15755,-0.12055 -0.33796,-0.20593 -0.54053,-0.2558 -0.20097,-0.0499 -0.55449,-0.0749 -1.06092,-0.0749 z m 3.6127,0 v 3.53054 h 0.57412 v -3.53054 z m 19.54919,0 v 3.53054 h 1.96991 v -0.51367 h -1.3963 v -1.1405 h 1.3963 v -0.50384 h -1.3963 v -0.88522 h 1.3963 v -0.48731 z m 5.69629,0 v 0.48731 h 0.93793 v 3.04323 h 0.57413 v -3.04323 h 0.93327 v -0.48731 z m -97.989364,0.44855 c 0.175241,0 0.340662,0.0338 0.496611,0.10129 0.157555,0.0675 0.296449,0.16353 0.417029,0.28732 0.12058,0.12379 0.213196,0.2651 0.277502,0.42426 0.06431,0.15916 0.09664,0.32941 0.09664,0.51108 0,0.17685 -0.03376,0.34664 -0.101286,0.50902 -0.06753,0.16077 -0.161576,0.30305 -0.282153,0.42684 -0.118971,0.12378 -0.256429,0.21881 -0.412378,0.28474 -0.15434,0.0659 -0.318326,0.0987 -0.49196,0.0987 -0.17524,0 -0.341638,-0.0328 -0.499194,-0.0987 -0.157555,-0.0675 -0.295991,-0.16352 -0.414962,-0.28732 -0.0643,-0.0643 -0.118794,-0.13086 -0.163814,-0.19999 -0.04502,-0.0691 -0.0836,-0.14486 -0.115755,-0.22686 -0.06431,-0.15756 -0.09663,-0.32637 -0.09663,-0.50643 0,-0.0949 0.0082,-0.18311 0.02429,-0.2651 0.01608,-0.082 0.04019,-0.16399 0.07235,-0.24598 0.06913,-0.16399 0.162205,-0.30627 0.279569,-0.42684 0.123794,-0.12699 0.262687,-0.22248 0.417029,-0.28681 0.155947,-0.0659 0.321887,-0.0992 0.497127,-0.0992 z m 81.973294,0 c 0.17524,0 0.34066,0.0338 0.49661,0.10129 0.15756,0.0675 0.29696,0.16353 0.41754,0.28732 0.12056,0.12379 0.21266,0.2651 0.27699,0.42426 0.0643,0.15916 0.0966,0.32941 0.0966,0.51108 0,0.17685 -0.0338,0.34664 -0.10128,0.50902 -0.0675,0.16077 -0.16158,0.30305 -0.28215,0.42684 -0.11898,0.12378 -0.25644,0.21881 -0.41238,0.28474 -0.15434,0.0659 -0.31833,0.0987 -0.49196,0.0987 -0.17525,0 -0.34164,-0.0328 -0.4992,-0.0987 -0.15755,-0.0675 -0.29599,-0.16352 -0.41496,-0.28732 -0.0643,-0.0643 -0.11881,-0.13086 -0.16381,-0.19999 -0.045,-0.0691 -0.0836,-0.14486 -0.11576,-0.22686 -0.0643,-0.15756 -0.0966,-0.32637 -0.0966,-0.50643 0,-0.0949 0.008,-0.18311 0.0243,-0.2651 0.0161,-0.082 0.0402,-0.16399 0.0724,-0.24598 0.0691,-0.16399 0.16221,-0.30627 0.27957,-0.42684 0.12379,-0.12699 0.2632,-0.22248 0.41755,-0.28681 0.15594,-0.0659 0.32137,-0.0992 0.49661,-0.0992 z m -94.241795,0.0651 h 0.207739 0.207222 c 0.289389,0 0.505453,0.0188 0.64854,0.0558 0.144693,0.037 0.265271,0.0953 0.361735,0.1757 0.133443,0.11414 0.233293,0.2574 0.299206,0.42943 0.06752,0.17041 0.101286,0.36672 0.101286,0.58859 0,0.22669 -0.03376,0.42489 -0.101286,0.59531 -0.06752,0.16881 -0.167373,0.30965 -0.299206,0.4222 -0.09646,0.0852 -0.211242,0.14553 -0.344682,0.18087 -0.131831,0.0338 -0.331015,0.0506 -0.597896,0.0506 h -0.482658 z m 81.973805,0 h 0.20722 0.20723 c 0.28938,0 0.50597,0.0188 0.64905,0.0558 0.1447,0.037 0.26528,0.0953 0.36174,0.1757 0.13342,0.11414 0.23275,0.2574 0.29869,0.42943 0.0675,0.17041 0.10128,0.36672 0.10128,0.58859 0,0.22669 -0.0338,0.42489 -0.10128,0.59531 -0.0675,0.16881 -0.16686,0.30965 -0.29869,0.4222 -0.0965,0.0852 -0.21176,0.14553 -0.3452,0.18087 -0.13183,0.0338 -0.33102,0.0506 -0.5979,0.0506 h -0.48214 z m -47.031752,15.27349 -1.709973,3.67058 h 0.603064 l 0.409794,-0.90899 h 1.398881 l 0.400492,0.90899 h 0.605131 z m 18.384412,0.032 c -0.25724,0 -0.50035,0.0468 -0.72864,0.14004 -0.2283,0.0916 -0.4323,0.22526 -0.61237,0.4005 -0.17845,0.17363 -0.31448,0.37281 -0.40773,0.59789 -0.0932,0.22508 -0.13952,0.46285 -0.13952,0.71365 0,0.25081 0.0472,0.48909 0.14211,0.71417 0.0949,0.22508 0.23088,0.42427 0.40773,0.5979 0.17685,0.17203 0.37988,0.30564 0.60978,0.40049 0.23151,0.0933 0.47462,0.13953 0.72864,0.13953 0.24919,0 0.4884,-0.0473 0.7183,-0.14211 0.23151,-0.0965 0.43746,-0.23151 0.61753,-0.40515 0.18006,-0.17363 0.31655,-0.3704 0.4098,-0.59066 0.0932,-0.22186 0.14004,-0.46015 0.14004,-0.71417 0,-0.24919 -0.0482,-0.48598 -0.1447,-0.71106 -0.0948,-0.22508 -0.23231,-0.42524 -0.41237,-0.60048 -0.18006,-0.17686 -0.38407,-0.31144 -0.61237,-0.40308 -0.22669,-0.0916 -0.46543,-0.13746 -0.71623,-0.13746 z m 19.69905,0.002 -1.70945,3.67006 h 0.60254 l 0.41031,-0.90899 h 1.39837 l 0.40049,0.90899 h 0.60513 z m 9.80354,0.0599 c -0.25724,0 -0.49982,0.0468 -0.72812,0.14005 -0.2283,0.0916 -0.43282,0.22525 -0.61289,0.40049 -0.17845,0.17363 -0.31396,0.37281 -0.40721,0.59789 -0.0932,0.22508 -0.14004,0.46285 -0.14004,0.71366 0,0.2508 0.0473,0.48908 0.14211,0.71416 0.0949,0.22508 0.23087,0.42427 0.40773,0.5979 0.17684,0.17203 0.3804,0.30564 0.6103,0.40049 0.23151,0.0932 0.4741,0.13953 0.72812,0.13953 0.24919,0 0.48891,-0.0473 0.71882,-0.14211 0.2315,-0.0965 0.43695,-0.23151 0.61701,-0.40514 0.18006,-0.17364 0.31706,-0.37041 0.41031,-0.59067 0.0932,-0.22186 0.13953,-0.46015 0.13953,-0.71416 0,-0.2492 -0.0482,-0.48599 -0.14469,-0.71107 -0.0949,-0.22508 -0.23232,-0.42524 -0.41238,-0.60048 -0.18007,-0.17685 -0.38407,-0.31144 -0.61237,-0.40308 -0.22669,-0.0916 -0.46543,-0.13746 -0.71623,-0.13746 z m -27.01179,0.0176 v 3.53054 h 0.57412 v -1.65882 h 1.3963 v -0.50436 h -1.3963 v -0.88005 h 1.3963 v -0.48731 z m 2.5399,0 v 3.53054 h 0.5736 v -1.65882 h 1.3963 v -0.50436 h -1.3963 v -0.88005 h 1.3963 v -0.48731 z m -27.437606,0.0284 v 3.53054 l 0.894519,5.2e-4 c 0.332796,0 0.572517,-0.0213 0.71882,-0.0631 0.146301,-0.0418 0.265903,-0.10932 0.359151,-0.20257 0.09485,-0.0932 0.16674,-0.20321 0.214974,-0.33021 0.04984,-0.12862 0.07441,-0.26464 0.07441,-0.40773 0,-0.23473 -0.05931,-0.43007 -0.178284,-0.58601 -0.117364,-0.15757 -0.278938,-0.25162 -0.484725,-0.28216 0.165595,-0.0498 0.291972,-0.13808 0.378788,-0.2651 0.08682,-0.127 0.130225,-0.28376 0.130225,-0.47025 0,-0.15595 -0.03089,-0.29921 -0.09198,-0.42943 -0.05949,-0.13184 -0.143891,-0.23794 -0.253215,-0.31833 -0.0836,-0.0627 -0.187297,-0.10754 -0.311092,-0.13487 -0.06109,-0.0143 -0.138262,-0.0249 -0.23151,-0.0315 -0.09325,-0.007 -0.203202,-0.01 -0.330212,-0.01 z m 5.638416,0 v 0.48731 h 0.937927 v 3.04323 h 0.574125 v -3.04323 h 0.933277 v -0.48731 z m 38.44055,0.0336 v 2.19729 c 0,0.4791 0.1196,0.83647 0.35915,1.0728 0.24115,0.23633 0.60387,0.3545 1.08779,0.3545 0.48553,0 0.8487,-0.11863 1.08985,-0.35657 0.24116,-0.23794 0.36174,-0.59485 0.36174,-1.07073 v -2.19729 h -0.57361 v 2.14406 c 0,0.31833 -0.0748,0.55805 -0.22428,0.71882 -0.1479,0.15916 -0.36592,0.23874 -0.6537,0.23874 -0.2926,0 -0.51303,-0.0796 -0.66094,-0.23874 -0.1463,-0.16077 -0.21911,-0.40049 -0.21911,-0.71882 v -2.14406 z m 3.26543,0 v 0.48731 h 0.93793 v 3.04323 h 0.57412 v -3.04323 h 0.93328 v -0.48731 z m -24.93801,0.38654 c 0.17524,0 0.34118,0.0338 0.49713,0.10129 0.15755,0.0675 0.29644,0.16353 0.41702,0.28732 0.12056,0.12379 0.21317,0.2651 0.27751,0.42426 0.0643,0.15916 0.0966,0.32941 0.0966,0.51108 h -5.1e-4 c 0,0.17686 -0.0338,0.34664 -0.10129,0.50902 -0.0675,0.16077 -0.16157,0.30305 -0.28215,0.42684 -0.11898,0.12378 -0.25644,0.21881 -0.41238,0.28474 -0.15434,0.0659 -0.31833,0.0987 -0.49196,0.0987 -0.17524,0 -0.34164,-0.0328 -0.4992,-0.0987 -0.15755,-0.0675 -0.29547,-0.16353 -0.41444,-0.28732 -0.0643,-0.0643 -0.11933,-0.13085 -0.16433,-0.19999 -0.045,-0.0691 -0.0836,-0.14486 -0.11576,-0.22686 -0.0643,-0.15755 -0.0961,-0.32636 -0.0961,-0.50643 0,-0.0949 0.008,-0.1831 0.0238,-0.2651 0.0161,-0.082 0.0402,-0.16398 0.0723,-0.24598 0.0691,-0.16398 0.16273,-0.30626 0.28009,-0.42684 0.12379,-0.12698 0.26269,-0.22247 0.41703,-0.28681 0.15594,-0.0659 0.32136,-0.0992 0.49661,-0.0992 z m -21.844663,0.0574 h 0.219625 c 0.289388,0 0.48616,0.0386 0.590662,0.11576 0.10611,0.0772 0.159163,0.21319 0.159163,0.40773 0,0.17684 -0.0569,0.30271 -0.171049,0.37827 -0.11254,0.074 -0.305464,0.1111 -0.578776,0.1111 h -0.219625 z m 51.347773,0.005 c 0.17524,0 0.34066,0.0337 0.49661,0.10128 0.15756,0.0675 0.29697,0.16352 0.41754,0.28732 0.12056,0.1238 0.21266,0.26511 0.27699,0.42427 0.0643,0.15916 0.0966,0.3294 0.0966,0.51108 v 5.1e-4 c 0,0.17685 -0.0338,0.34612 -0.10128,0.5085 -0.0675,0.16077 -0.16158,0.30305 -0.28216,0.42685 -0.11897,0.12377 -0.25643,0.2188 -0.41237,0.28473 -0.15434,0.0659 -0.31833,0.0987 -0.49196,0.0987 -0.17525,0 -0.34164,-0.0328 -0.4992,-0.0987 -0.15755,-0.0675 -0.29547,-0.16352 -0.41444,-0.28732 -0.0643,-0.0643 -0.11933,-0.13085 -0.16433,-0.19999 -0.045,-0.0691 -0.0836,-0.14435 -0.11576,-0.22634 -0.0643,-0.15756 -0.0966,-0.32637 -0.0966,-0.50643 0,-0.0949 0.008,-0.18362 0.0243,-0.26561 0.0161,-0.082 0.0402,-0.16399 0.0724,-0.24598 0.0691,-0.16399 0.16221,-0.30627 0.27957,-0.42685 0.12379,-0.12698 0.26321,-0.22247 0.41755,-0.28681 0.15595,-0.0659 0.32137,-0.0992 0.49661,-0.0992 z m -47.882351,0.45578 0.0677,0.22428 0.06511,0.17621 0.361735,0.80564 h -0.983919 l 0.361735,-0.80564 c 0.02572,-0.0595 0.04743,-0.12078 0.06511,-0.18345 0.01285,-0.0354 0.02348,-0.0692 0.03152,-0.10128 0.0096,-0.0322 0.01975,-0.0708 0.03101,-0.11576 z m 38.083981,0.0341 0.0672,0.22427 0.0651,0.1757 0.36174,0.80564 h -0.98392 l 0.36173,-0.80564 c 0.0257,-0.0595 0.0474,-0.12026 0.0651,-0.18293 0.0129,-0.0354 0.0235,-0.0692 0.0315,-0.10129 0.01,-0.0322 0.0203,-0.0707 0.0315,-0.11575 z m -41.549403,0.95239 h 0.197921 0.173633 c 0.06592,0 0.119947,0.001 0.161747,0.005 0.04341,0.003 0.082,0.008 0.115755,0.0145 0.07556,0.0145 0.138262,0.0347 0.188102,0.0605 0.08681,0.0466 0.153362,0.11173 0.199988,0.19533 0.04663,0.0836 0.06976,0.1815 0.06976,0.29404 0,0.0965 -0.01975,0.18426 -0.05994,0.26304 -0.04019,0.0788 -0.09422,0.14051 -0.161748,0.18551 -0.05788,0.0418 -0.136023,0.0708 -0.234094,0.0868 -0.09807,0.0145 -0.249022,0.0217 -0.453202,0.0217 h -0.197921 z m 11.312488,26.11211 v 0.663 h -0.637687 v 0.1695 h 0.637687 v 0.6687 h 0.180867 v -0.6687 h 0.637688 v -0.1695 h -0.637688 v -0.663 z" /><g
       id="g1"
       transform="matrix(10,0,0,10,33.70937,77.93672)"><g
         id="g2"><path
           d="m 7.3025,5.16375 a 0.075,0.075 0 0 1 -0.075,0.075 h -14.455 a 0.075,0.075 90 0 1 -0.075,-0.075 v -10.3275 a 0.075,0.075 -180 0 1 0.075,-0.075 h 14.455 a 0.075,0.075 -90 0 1 0.075,0.075 z"
           transform="matrix(1,0,0,-1,7.3025,5.23875)"
           fill="#000000"
           stroke-linecap="round"
           stroke-linejoin="round"
           id="path1"
           style="fill:none;stroke:#0e5fd8;stroke-width:0.05;stroke-dasharray:none;stroke-opacity:1" /><path
           d="m 3.4749919,-2.4734716 a 0.625,0.625 0 1 1 1.25,0 0.625,0.625 0 1 1 -1.25,0 z"
           transform="matrix(1,0,0,-1,7.3025,5.23875)"
           fill="#ffffff"
           stroke="#000000"
           stroke-width="0.001cm"
           stroke-linecap="round"
           stroke-linejoin="round"
           id="path2"
           style="fill:none;stroke:#0e5fd8;stroke-width:0.05;stroke-dasharray:none;stroke-opacity:1" /><path
           d="m -4.7250081,-2.4734716 a 0.625,0.625 0 1 1 1.25,0 0.625,0.625 0 1 1 -1.25,0 z"
           transform="matrix(1,0,0,-1,7.3025,5.23875)"
           fill="#ffffff"
           stroke="#000000"
           stroke-width="0.001cm"
           stroke-linecap="round"
           stroke-linejoin="round"
           id="path3"
           style="fill:none;stroke:#0e5fd8;stroke-width:0.05;stroke-dasharray:none;stroke-opacity:1" /><path
           d="m 0.1295897,0.7790653 a 0.625,0.625 0 1 1 1.25,0 0.625,0.625 0 1 1 -1.25,0 z"
           transform="matrix(1,0,0,-1,7.3025,5.23875)"
           fill="#ffffff"
           stroke="#000000"
           stroke-width="0.001cm"
           stroke-linecap="round"
           stroke-linejoin="round"
           id="path4"
           style="fill:none;stroke:#0e5fd8;stroke-width:0.05;stroke-dasharray:none;stroke-opacity:1" /><path
           d="M 5.3854092,-4.1959972 A 0.16,0.16 -137.04298 0 0 5.6195985,-3.9779253 0.16,0.16 42.956973 0 0 5.3854092,-4.1959972 Z"
           transform="matrix(1,0,0,-1,7.3025,5.23875)"
           fill="#ffffff"
           stroke="#000000"
           stroke-width="0.001cm"
           stroke-linecap="round"
           stroke-linejoin="round"
           id="path5"
           style="fill:none;stroke:#0e5fd8;stroke-width:0.05;stroke-dasharray:none;stroke-opacity:1" /><path
           d="m -5.6475472,-4.1544945 a 0.16,0.16 -155.03545 0 0 0.2900983,0.1350665 0.16,0.16 24.964521 0 0 -0.2900983,-0.1350665 z"
           transform="matrix(1,0,0,-1,7.3025,5.23875)"
           fill="#ffffff"
           stroke="#000000"
           stroke-width="0.001cm"
           stroke-linecap="round"
           stroke-linejoin="round"
           id="path6"
           style="fill:none;stroke:#0e5fd8;stroke-width:0.05;stroke-dasharray:none;stroke-opacity:1" /><path
           d="m 5.5011817,1.5521762 a 0.16,0.16 0 1 1 0.32,0 0.16,0.16 0 1 1 -0.32,0 z"
           transform="matrix(1,0,0,-1,7.3025,5.23875)"
           fill="#ffffff"
           stroke="#000000"
           stroke-width="0.001cm"
           stroke-linecap="round"
           stroke-linejoin="round"
           id="path7"
           style="fill:none;stroke:#0e5fd8;stroke-width:0.05;stroke-dasharray:none;stroke-opacity:1" /><path
           d="m -5.8088259,1.5521762 a 0.16,0.16 0 1 1 0.32,0 0.16,0.16 0 1 1 -0.32,0 z"
           transform="matrix(1,0,0,-1,7.3025,5.23875)"
           fill="#ffffff"
           stroke="#000000"
           stroke-width="0.001cm"
           stroke-linecap="round"
           stroke-linejoin="round"
           id="path8"
           style="fill:none;stroke:#0e5fd8;stroke-width:0.05;stroke-dasharray:none;stroke-opacity:1" /><path
           d="m 2.8225,2.06875 v 1.185 a 0.05,0.05 -180 0 0 0.05,0.05 h 2.455 a 0.05,0.05 90 0 0 0.05,-0.05 v -1.185 a 0.05,0.05 0 0 0 -0.05,-0.05 H 2.8724999 a 0.05,0.05 -90.00015 0 0 -0.05,0.05 z"
           transform="matrix(1,0,0,-1,7.3025,5.23875)"
           fill="#ffffff"
           stroke="#000000"
           stroke-width="0.001cm"
           stroke-linecap="round"
           stroke-linejoin="round"
           id="path9"
           style="fill:none;stroke:#0e5fd8;stroke-width:0.05;stroke-dasharray:none;stroke-opacity:1" /><path
           d="m -5.3775,2.06875 v 1.185 a 0.05,0.05 -180 0 0 0.05,0.05 h 2.455 a 0.05,0.05 90 0 0 0.05,-0.05 v -1.185 a 0.05,0.05 0 0 0 -0.05,-0.05 h -2.4550001 a 0.05,0.05 -90.00015 0 0 -0.05,0.05 z"
           transform="matrix(1,0,0,-1,7.3025,5.23875)"
           fill="#ffffff"
           stroke="#000000"
           stroke-width="0.001cm"
           stroke-linecap="round"
           stroke-linejoin="round"
           id="path10"
           style="fill:none;stroke:#0e5fd8;stroke-width:0.05;stroke-dasharray:none;stroke-opacity:1" /><path
           d="m -1.2775,3.36875 v 1.185 a 0.05,0.05 -180 0 0 0.05,0.05 h 2.455 a 0.05,0.05 90 0 0 0.05,-0.05 v -1.185 a 0.05,0.05 0 0 0 -0.05,-0.05 h -2.4550001 a 0.05,0.05 -90.00015 0 0 -0.05,0.05 z"
           transform="matrix(1,0,0,-1,7.3025,5.23875)"
           fill="#ffffff"
           stroke="#000000"
           stroke-width="0.001cm"
           stroke-linecap="round"
           stroke-linejoin="round"
           id="path11"
           style="fill:none;stroke:#0e5fd8;stroke-width:0.05;stroke-dasharray:none;stroke-opacity:1" /><path
           d="m -7.15025,3.81 a 0.324,0.324 0 1 1 0.648,0 0.324,0.324 0 1 1 -0.648,0 z"
           transform="matrix(1,0,0,-1,7.3025,5.23875)"
           fill="#ffffff"
           stroke="#000000"
           stroke-width="0.001cm"
           stroke-linecap="round"
           stroke-linejoin="round"
           id="path12"
           style="fill:none;stroke:#0e5fd8;stroke-width:0.05;stroke-dasharray:none;stroke-opacity:1" /><path
           d="m 6.50225,-3.81 a 0.324,0.324 0 1 1 0.648,0 0.324,0.324 0 1 1 -0.648,0 z"
           transform="matrix(1,0,0,-1,7.3025,5.23875)"
           fill="#ffffff"
           stroke="#000000"
           stroke-width="0.001cm"
           stroke-linecap="round"
           stroke-linejoin="round"
           id="path13"
           style="fill:none;stroke:#0e5fd8;stroke-width:0.05;stroke-dasharray:none;stroke-opacity:1" /><path
           d="m 6.50225,3.81 a 0.324,0.324 0 1 1 0.648,0 0.324,0.324 0 1 1 -0.648,0 z"
           transform="matrix(1,0,0,-1,7.3025,5.23875)"
           fill="#ffffff"
           stroke="#000000"
           stroke-width="0.001cm"
           stroke-linecap="round"
           stroke-linejoin="round"
           id="path14"
           style="fill:none;stroke:#0e5fd8;stroke-width:0.05;stroke-dasharray:none;stroke-opacity:1" /><path
           d="m -7.15025,-3.81 a 0.324,0.324 0 1 1 0.648,0 0.324,0.324 0 1 1 -0.648,0 z"
           transform="matrix(1,0,0,-1,7.3025,5.23875)"
           fill="#ffffff"
           stroke="#000000"
           stroke-width="0.001cm"
           stroke-linecap="round"
           stroke-linejoin="round"
           id="path15"
           style="fill:none;stroke:#0e5fd8;stroke-width:0.05;stroke-dasharray:none;stroke-opacity:1" /></g></g><g
       id="g4"
       transform="rotate(180,-22.236332,80.920897)"><g
         id="g3"
         transform="matrix(10,0,0,10,-223.43203,-20.069926)"
         style="fill:none;stroke:#ffae00;stroke-width:0.05;stroke-dasharray:none;stroke-opacity:1"><path
           d="m -6.1912,-1.3458589 v -1.1898912 a 0.1588,0.1588 -180 0 1 0.1588,-0.1588 H 6.0324 a 0.1588,0.1588 -90 0 1 0.1588,0.1588 v 1.18995 a 0.63505,0.63505 -180 0 0 0.63505,0.63505 H 7.0637 a 0.1588,0.1588 -90 0 1 0.1588,0.1588 v 6.0323 a 0.1588,0.1588 0 0 1 -0.1588,0.1588 H 6.82625 a 0.63505,0.63505 -90 0 0 -0.63505,0.63505 v 1.18995 a 0.1588,0.1588 0 0 1 -0.1588,0.1588 H -6.0324 a 0.1588,0.1588 90 0 1 -0.1588,-0.1588 v -1.18995 a 0.63505,0.63505 0 0 0 -0.63505,-0.63505 H -7.0637 a 0.1588,0.1588 90 0 1 -0.1588,-0.1588 v -6.0323 a 0.1588,0.1588 -180 0 1 0.1588,-0.1588 h 0.23745 a 0.63505,0.63505 90 0 0 0.63505,-0.63505"
           transform="matrix(1,0,0,-1,7.2225,7.6229499)"
           fill="#000000"
           stroke-linecap="round"
           stroke-linejoin="round"
           id="path1-5"
           style="fill:none;stroke:#ffae00;stroke-width:0.05;stroke-dasharray:none;stroke-opacity:1" /><path
           d="M -5.3854092,6.6601971 A 0.16,0.16 42.957015 0 0 -5.6195985,6.4421252 0.16,0.16 -137.04303 0 0 -5.3854092,6.6601971 Z"
           transform="matrix(1,0,0,-1,7.2225,7.6229499)"
           fill="#ffffff"
           stroke="#000000"
           stroke-width="0.001cm"
           stroke-linecap="round"
           stroke-linejoin="round"
           id="path2-1"
           style="fill:none;stroke:#ffae00;stroke-width:0.05;stroke-dasharray:none;stroke-opacity:1" /><path
           d="M 5.6475472,6.6186944 A 0.16,0.16 24.964551 0 0 5.3574489,6.4836279 0.16,0.16 -155.03548 0 0 5.6475472,6.6186944 Z"
           transform="matrix(1,0,0,-1,7.2225,7.6229499)"
           fill="#ffffff"
           stroke="#000000"
           stroke-width="0.001cm"
           stroke-linecap="round"
           stroke-linejoin="round"
           id="path3-2"
           style="fill:none;stroke:#ffae00;stroke-width:0.05;stroke-dasharray:none;stroke-opacity:1" /><path
           d="m -5.8211817,0.9120238 a 0.16,0.16 0 1 1 0.32,0 0.16,0.16 0 1 1 -0.32,0 z"
           transform="matrix(1,0,0,-1,7.2225,7.6229499)"
           fill="#ffffff"
           stroke="#000000"
           stroke-width="0.001cm"
           stroke-linecap="round"
           stroke-linejoin="round"
           id="path4-5"
           style="fill:none;stroke:#ffae00;stroke-width:0.05;stroke-dasharray:none;stroke-opacity:1" /><path
           d="m 5.4888259,0.9120238 a 0.16,0.16 0 1 1 0.32,0 0.16,0.16 0 1 1 -0.32,0 z"
           transform="matrix(1,0,0,-1,7.2225,7.6229499)"
           fill="#ffffff"
           stroke="#000000"
           stroke-width="0.001cm"
           stroke-linecap="round"
           stroke-linejoin="round"
           id="path5-5"
           style="fill:none;stroke:#ffae00;stroke-width:0.05;stroke-dasharray:none;stroke-opacity:1" /><path
           d="m 5.3775,0.3954499 v -1.185 a 0.05,0.05 0 0 0 -0.05,-0.05 h -2.455 a 0.05,0.05 -90 0 0 -0.05,0.05 v 1.185 a 0.05,0.05 -180 0 0 0.05,0.05 h 2.455 a 0.05,0.05 90 0 0 0.05,-0.05 z"
           transform="matrix(1,0,0,-1,7.2225,7.6229499)"
           fill="#ffffff"
           stroke="#000000"
           stroke-width="0.001cm"
           stroke-linecap="round"
           stroke-linejoin="round"
           id="path6-7"
           style="fill:none;stroke:#ffae00;stroke-width:0.05;stroke-dasharray:none;stroke-opacity:1" /><path
           d="m 1.2775,-0.9045501 v -1.185 a 0.05,0.05 0 0 0 -0.05,-0.05 h -2.455 a 0.05,0.05 -90 0 0 -0.05,0.05 v 1.185 a 0.05,0.05 -180 0 0 0.05,0.05 h 2.455 a 0.05,0.05 90 0 0 0.05,-0.05 z"
           transform="matrix(1,0,0,-1,7.2225,7.6229499)"
           fill="#ffffff"
           stroke="#000000"
           stroke-width="0.001cm"
           stroke-linecap="round"
           stroke-linejoin="round"
           id="path7-3"
           style="fill:none;stroke:#ffae00;stroke-width:0.05;stroke-dasharray:none;stroke-opacity:1" /><path
           d="m -2.8225,0.3954499 v -1.185 a 0.05,0.05 0 0 0 -0.05,-0.05 h -2.455 a 0.05,0.05 -90 0 0 -0.05,0.05 v 1.185 a 0.05,0.05 -180 0 0 0.05,0.05 h 2.455 a 0.05,0.05 90 0 0 0.05,-0.05 z"
           transform="matrix(1,0,0,-1,7.2225,7.6229499)"
           fill="#ffffff"
           stroke="#000000"
           stroke-width="0.001cm"
           stroke-linecap="round"
           stroke-linejoin="round"
           id="path8-8"
           style="fill:none;stroke:#ffae00;stroke-width:0.05;stroke-dasharray:none;stroke-opacity:1" /><path
           d="m -4.8499945,6.3298501 h 1.5 a 0.25,0.25 90 0 0 0.25,-0.25 v -4.09 a 0.25,0.25 0 0 0 -0.25,-0.25 h -1.5 a 0.25,0.25 -90 0 0 -0.25,0.25 v 4.09 a 0.25,0.25 -180 0 0 0.25,0.25 z"
           transform="matrix(1,0,0,-1,7.2225,7.6229499)"
           fill="#ffffff"
           stroke="#000000"
           stroke-width="0.001cm"
           stroke-linecap="round"
           stroke-linejoin="round"
           id="path9-0"
           style="fill:none;stroke:#ffae00;stroke-width:0.05;stroke-dasharray:none;stroke-opacity:1" /><path
           d="m -2.0499945,2.6945501 h 4.09 a 0.25,0.25 90 0 0 0.25,-0.25 v -1.5 a 0.25,0.25 0 0 0 -0.25,-0.25 h -4.09 a 0.25,0.25 -90 0 0 -0.25,0.25 v 1.5 a 0.25,0.25 -180 0 0 0.25,0.25 z"
           transform="matrix(1,0,0,-1,7.2225,7.6229499)"
           fill="#ffffff"
           stroke="#000000"
           stroke-width="0.001cm"
           stroke-linecap="round"
           stroke-linejoin="round"
           id="path10-8"
           style="fill:none;stroke:#ffae00;stroke-width:0.05;stroke-dasharray:none;stroke-opacity:1" /><path
           d="m 3.3500055,6.3298501 h 1.5 a 0.25,0.25 90 0 0 0.25,-0.25 v -4.09 a 0.25,0.25 0 0 0 -0.25,-0.25 h -1.5 a 0.25,0.25 -90 0 0 -0.25,0.25 v 4.09 a 0.25,0.25 -180 0 0 0.25,0.25 z"
           transform="matrix(1,0,0,-1,7.2225,7.6229499)"
           fill="#ffffff"
           stroke="#000000"
           stroke-width="0.001cm"
           stroke-linecap="round"
           stroke-linejoin="round"
           id="path11-2"
           style="fill:none;stroke:#ffae00;stroke-width:0.05;stroke-dasharray:none;stroke-opacity:1" /></g></g></g></svg>
