<?xml version="1.0" encoding="UTF-8" standalone="no"?>
<!-- Created with Inkscape (http://www.inkscape.org/) -->

<svg
   width="146.25mm"
   height="57.349998mm"
   viewBox="0 0 146.25 57.349998"
   version="1.1"
   id="svg1"
   inkscape:version="1.3-dev (19893189, 2022-06-07)"
   sodipodi:docname="kd2-switch-panel.svg"
   xml:space="preserve"
   xmlns:inkscape="http://www.inkscape.org/namespaces/inkscape"
   xmlns:sodipodi="http://sodipodi.sourceforge.net/DTD/sodipodi-0.dtd"
   xmlns="http://www.w3.org/2000/svg"
   xmlns:svg="http://www.w3.org/2000/svg"><sodipodi:namedview
     id="namedview1"
     pagecolor="#ffffff"
     bordercolor="#666666"
     borderopacity="1.0"
     inkscape:showpageshadow="2"
     inkscape:pageopacity="0.0"
     inkscape:pagecheckerboard="0"
     inkscape:deskcolor="#d1d1d1"
     inkscape:document-units="mm"
     showgrid="false"
     inkscape:zoom="2.7435744"
     inkscape:cx="244.02473"
     inkscape:cy="134.86057"
     inkscape:window-width="3840"
     inkscape:window-height="1129"
     inkscape:window-x="-8"
     inkscape:window-y="-8"
     inkscape:window-maximized="1"
     inkscape:current-layer="layer1"
     inkscape:pageshadow="2"
     inkscape:snap-bbox="true"
     inkscape:bbox-paths="true"
     inkscape:bbox-nodes="true"
     inkscape:snap-bbox-edge-midpoints="true"
     inkscape:snap-bbox-midpoints="true" /><defs
     id="defs1" /><g
     inkscape:groupmode="layer"
     id="layer2"
     inkscape:label="bottom"
     transform="translate(0.10000021,0.10000001)"><path
       id="rect1-2"
       style="fill:none;stroke:#ff0000;stroke-width:0.3;stroke-dasharray:none"
       d="M 0.74999979,0.05 H 145.3 c 0.3878,0 0.7,0.31220002 0.7,0.70000004 V 56.399999 c 0,0.3878 -0.3122,0.7 -0.7,0.7 H 0.74999979 c -0.3878,0 -0.69999999,-0.3122 -0.69999999,-0.7 V 0.75000004 C 0.0499998,0.36220002 0.36219979,0.05 0.74999979,0.05 Z" /><path
       id="circle13"
       style="fill:none;stroke:#ff0000;stroke-width:0.3;stroke-dasharray:none"
       d="m 8.0120001,14.2875 a 3.25,3.25 0 0 1 -3.25,3.25 3.25,3.25 0 0 1 -3.25,-3.25 3.25,3.25 0 0 1 3.25,-3.25 3.25,3.25 0 0 1 3.25,3.25 z" /><path
       id="circle14"
       style="fill:none;stroke:#ff0000;stroke-width:0.3;stroke-dasharray:none"
       d="m 144.53799,14.288891 a 3.25,3.25 0 0 1 -3.25,3.25 3.25,3.25 0 0 1 -3.25,-3.25 3.25,3.25 0 0 1 3.25,-3.25 3.25,3.25 0 0 1 3.25,3.25 z" /><path
       id="circle15"
       style="fill:none;stroke:#ff0000;stroke-width:0.3;stroke-dasharray:none"
       d="m 8.011919,42.862503 a 3.25,3.25 0 0 1 -3.25,3.25 3.25,3.25 0 0 1 -3.25,-3.25 3.25,3.25 0 0 1 3.25,-3.25 3.25,3.25 0 0 1 3.25,3.25 z" /><path
       id="circle16"
       style="fill:none;stroke:#ff0000;stroke-width:0.3;stroke-dasharray:none"
       d="m 144.53792,42.863892 a 3.25,3.25 0 0 1 -3.25,3.25 3.25,3.25 0 0 1 -3.25,-3.25 3.25,3.25 0 0 1 3.25,-3.25 3.25,3.25 0 0 1 3.25,3.25 z" /><rect
       style="font-variation-settings:normal;display:inline;vector-effect:none;fill:none;fill-opacity:1;stroke:#0000ff;stroke-width:0.3;stroke-linecap:butt;stroke-linejoin:miter;stroke-miterlimit:4;stroke-dasharray:none;stroke-dashoffset:0;stroke-opacity:1;-inkscape-stroke:none;stop-color:#000000"
       id="rect1-6"
       width="19.7714"
       height="19.7714"
       x="20.276796"
       y="4.4031906"
       rx="0"
       ry="0" /><rect
       style="font-variation-settings:normal;display:inline;vector-effect:none;fill:none;fill-opacity:1;stroke:#0000ff;stroke-width:0.3;stroke-linecap:butt;stroke-linejoin:miter;stroke-miterlimit:4;stroke-dasharray:none;stroke-dashoffset:0;stroke-opacity:1;-inkscape-stroke:none;stop-color:#000000"
       id="rect2-6"
       width="19.7714"
       height="19.7714"
       x="48.851795"
       y="4.4031906"
       rx="0"
       ry="0" /><rect
       style="font-variation-settings:normal;display:inline;vector-effect:none;fill:none;fill-opacity:1;stroke:#0000ff;stroke-width:0.3;stroke-linecap:butt;stroke-linejoin:miter;stroke-miterlimit:4;stroke-dasharray:none;stroke-dashoffset:0;stroke-opacity:1;-inkscape-stroke:none;stop-color:#000000"
       id="rect3-9"
       width="19.7714"
       height="19.7714"
       x="77.426796"
       y="4.4031906"
       rx="0"
       ry="0" /><rect
       style="font-variation-settings:normal;display:inline;vector-effect:none;fill:none;fill-opacity:1;stroke:#0000ff;stroke-width:0.3;stroke-linecap:butt;stroke-linejoin:miter;stroke-miterlimit:4;stroke-dasharray:none;stroke-dashoffset:0;stroke-opacity:1;-inkscape-stroke:none;stop-color:#000000"
       id="rect4-3"
       width="19.7714"
       height="19.7714"
       x="106.0018"
       y="4.4031906"
       rx="0"
       ry="0" /><rect
       style="font-variation-settings:normal;display:inline;vector-effect:none;fill:none;fill-opacity:1;stroke:#0000ff;stroke-width:0.3;stroke-linecap:butt;stroke-linejoin:miter;stroke-miterlimit:4;stroke-dasharray:none;stroke-dashoffset:0;stroke-opacity:1;-inkscape-stroke:none;stop-color:#000000"
       id="rect5-9"
       width="19.7714"
       height="19.7714"
       x="20.276796"
       y="32.978195"
       rx="0"
       ry="0" /><rect
       style="font-variation-settings:normal;display:inline;vector-effect:none;fill:none;fill-opacity:1;stroke:#0000ff;stroke-width:0.3;stroke-linecap:butt;stroke-linejoin:miter;stroke-miterlimit:4;stroke-dasharray:none;stroke-dashoffset:0;stroke-opacity:1;-inkscape-stroke:none;stop-color:#000000"
       id="rect6-1"
       width="19.7714"
       height="19.7714"
       x="48.851795"
       y="32.978195"
       rx="0"
       ry="0" /><rect
       style="font-variation-settings:normal;display:inline;vector-effect:none;fill:none;fill-opacity:1;stroke:#0000ff;stroke-width:0.3;stroke-linecap:butt;stroke-linejoin:miter;stroke-miterlimit:4;stroke-dasharray:none;stroke-dashoffset:0;stroke-opacity:1;-inkscape-stroke:none;stop-color:#000000"
       id="rect7-7"
       width="19.7714"
       height="19.7714"
       x="77.426796"
       y="32.978195"
       rx="0"
       ry="0" /><rect
       style="font-variation-settings:normal;display:inline;vector-effect:none;fill:none;fill-opacity:1;stroke:#0000ff;stroke-width:0.3;stroke-linecap:butt;stroke-linejoin:miter;stroke-miterlimit:4;stroke-dasharray:none;stroke-dashoffset:0;stroke-opacity:1;-inkscape-stroke:none;stop-color:#000000"
       id="rect8-9"
       width="19.7714"
       height="19.7714"
       x="106.0018"
       y="32.978195"
       rx="0"
       ry="0" /><rect
       style="font-variation-settings:normal;display:inline;opacity:1;vector-effect:none;fill:none;fill-opacity:1;stroke:#ff0000;stroke-width:0.3;stroke-linecap:butt;stroke-linejoin:miter;stroke-miterlimit:4;stroke-dasharray:none;stroke-dashoffset:0;stroke-opacity:1;-inkscape-stroke:none;stop-color:#000000;stop-opacity:1"
       id="rect1"
       width="17.200001"
       height="17.200001"
       x="21.562496"
       y="5.6888905"
       rx="0"
       ry="0" /><rect
       style="font-variation-settings:normal;display:inline;opacity:1;vector-effect:none;fill:none;fill-opacity:1;stroke:#ff0000;stroke-width:0.3;stroke-linecap:butt;stroke-linejoin:miter;stroke-miterlimit:4;stroke-dasharray:none;stroke-dashoffset:0;stroke-opacity:1;-inkscape-stroke:none;stop-color:#000000;stop-opacity:1"
       id="rect2"
       width="17.200001"
       height="17.200001"
       x="50.137493"
       y="5.6888905"
       rx="0"
       ry="0" /><rect
       style="font-variation-settings:normal;display:inline;opacity:1;vector-effect:none;fill:none;fill-opacity:1;stroke:#ff0000;stroke-width:0.3;stroke-linecap:butt;stroke-linejoin:miter;stroke-miterlimit:4;stroke-dasharray:none;stroke-dashoffset:0;stroke-opacity:1;-inkscape-stroke:none;stop-color:#000000;stop-opacity:1"
       id="rect3"
       width="17.200001"
       height="17.200001"
       x="78.712494"
       y="5.6888905"
       rx="0"
       ry="0" /><rect
       style="font-variation-settings:normal;display:inline;opacity:1;vector-effect:none;fill:none;fill-opacity:1;stroke:#ff0000;stroke-width:0.3;stroke-linecap:butt;stroke-linejoin:miter;stroke-miterlimit:4;stroke-dasharray:none;stroke-dashoffset:0;stroke-opacity:1;-inkscape-stroke:none;stop-color:#000000;stop-opacity:1"
       id="rect4"
       width="17.200001"
       height="17.200001"
       x="107.2875"
       y="5.6888905"
       rx="0"
       ry="0" /><rect
       style="font-variation-settings:normal;display:inline;opacity:1;vector-effect:none;fill:none;fill-opacity:1;stroke:#ff0000;stroke-width:0.3;stroke-linecap:butt;stroke-linejoin:miter;stroke-miterlimit:4;stroke-dasharray:none;stroke-dashoffset:0;stroke-opacity:1;-inkscape-stroke:none;stop-color:#000000;stop-opacity:1"
       id="rect5"
       width="17.200001"
       height="17.200001"
       x="21.562496"
       y="34.263893"
       rx="0"
       ry="0" /><rect
       style="font-variation-settings:normal;display:inline;opacity:1;vector-effect:none;fill:none;fill-opacity:1;stroke:#ff0000;stroke-width:0.3;stroke-linecap:butt;stroke-linejoin:miter;stroke-miterlimit:4;stroke-dasharray:none;stroke-dashoffset:0;stroke-opacity:1;-inkscape-stroke:none;stop-color:#000000;stop-opacity:1"
       id="rect6"
       width="17.200001"
       height="17.200001"
       x="50.137493"
       y="34.263893"
       rx="0"
       ry="0" /><rect
       style="font-variation-settings:normal;display:inline;opacity:1;vector-effect:none;fill:none;fill-opacity:1;stroke:#ff0000;stroke-width:0.3;stroke-linecap:butt;stroke-linejoin:miter;stroke-miterlimit:4;stroke-dasharray:none;stroke-dashoffset:0;stroke-opacity:1;-inkscape-stroke:none;stop-color:#000000;stop-opacity:1"
       id="rect7"
       width="17.200001"
       height="17.200001"
       x="78.712494"
       y="34.263893"
       rx="0"
       ry="0" /><rect
       style="font-variation-settings:normal;display:inline;opacity:1;vector-effect:none;fill:none;fill-opacity:1;stroke:#ff0000;stroke-width:0.3;stroke-linecap:butt;stroke-linejoin:miter;stroke-miterlimit:4;stroke-dasharray:none;stroke-dashoffset:0;stroke-opacity:1;-inkscape-stroke:none;stop-color:#000000;stop-opacity:1"
       id="rect8"
       width="17.200001"
       height="17.200001"
       x="107.2875"
       y="34.263893"
       rx="0"
       ry="0" /></g><g
     inkscape:label="top"
     inkscape:groupmode="layer"
     id="layer1"
     style="display:inline"
     transform="translate(0.10000021,0.10000001)"><path
       id="path14"
       style="fill:none;stroke:#0000ff;stroke-width:0.3;stroke-miterlimit:4;stroke-dasharray:none"
       d="m 2.4871866,0.85007729 c -0.9068664,0 -1.63710931,0.66225171 -1.63710931,1.48466391 V 6.5114339 A 1.4767088,1.4767088 0 0 0 2.3267861,7.9881427 h 2.385071 v 0.00156 c 0.016706,-7.673e-4 0.033415,-0.00146 0.050126,-0.00206 3.4792898,6.96e-5 6.2997969,2.8205703 6.2998739,6.2998603 -7e-5,3.479295 -2.8205785,6.299804 -6.2998739,6.299874 -0.016711,-6.09e-4 -0.03342,-0.0013 -0.050126,-0.0021 v 0.0026 H 2.3064177 a 1.4563404,1.4563404 0 0 0 -1.45634041,1.45634 v 13.042205 a 1.4767088,1.4767088 0 0 0 1.47670881,1.476709 h 2.385071 v 0.0016 c 0.016706,-7.94e-4 0.033415,-0.0016 0.050126,-0.0021 3.4792946,6.9e-5 6.2998029,2.820578 6.2998739,6.299872 -6.9e-5,3.479295 -2.8205782,6.299806 -6.2998739,6.299875 -0.016711,-5.29e-4 -0.03342,-0.0013 -0.050126,-0.0021 v 0.0026 H 2.3369703 A 1.486893,1.486893 0 0 0 0.85007729,50.64977 v 4.165476 c 0,0.822412 0.73024291,1.484664 1.63710931,1.484664 H 143.56281 c 0.90687,0 1.63711,-0.662252 1.63711,-1.484664 V 50.629415 A 1.4665246,1.4665246 0 0 0 143.7334,49.16289 h -2.39526 v -0.0016 c -0.0169,7.93e-4 -0.0338,0.0016 -0.0506,0.0021 -3.4793,-6.9e-5 -6.2998,-2.820577 -6.29988,-6.299872 7e-5,-3.479297 2.82058,-6.299806 6.29988,-6.299874 0.0169,1.08e-4 0.0338,2.64e-4 0.0506,5.29e-4 v -0.0011 h 2.39526 a 1.4665246,1.4665246 0 0 0 1.46652,-1.466524 V 22.054415 A 1.4665246,1.4665246 0 0 0 143.7334,20.58789 h -2.39526 v -0.0016 c -0.0169,7.68e-4 -0.0338,0.0015 -0.0506,0.0021 -3.4793,-8.2e-5 -6.29981,-2.820591 -6.29988,-6.299887 7e-5,-3.479295 2.82058,-6.2998042 6.29988,-6.2998735 0.0169,1.084e-4 0.0338,2.91e-4 0.0506,5.291e-4 v -0.00103 h 2.39526 A 1.4665246,1.4665246 0 0 0 145.19992,6.521604 V 2.334713 c 0,-0.8224122 -0.73024,-1.48466391 -1.63711,-1.48466391 z" /></g></svg>
