<?xml version="1.0" encoding="UTF-8" standalone="no"?>
<svg
   xmlns:dc="http://purl.org/dc/elements/1.1/"
   xmlns:cc="http://creativecommons.org/ns#"
   xmlns:rdf="http://www.w3.org/1999/02/22-rdf-syntax-ns#"
   xmlns:svg="http://www.w3.org/2000/svg"
   xmlns="http://www.w3.org/2000/svg"
   xmlns:sodipodi="http://sodipodi.sourceforge.net/DTD/sodipodi-0.dtd"
   xmlns:inkscape="http://www.inkscape.org/namespaces/inkscape"
   height="166.40001mm"
   viewBox="0 0 252.52999 166.40002"
   width="252.53mm"
   version="1.1"
   id="svg23"
   sodipodi:docname="MCDU Stand.svg"
   inkscape:version="1.0.2-2 (e86c870879, 2021-01-15)">
  <defs
     id="defs27" />
  <sodipodi:namedview
     pagecolor="#ffffff"
     bordercolor="#666666"
     borderopacity="1"
     objecttolerance="10"
     gridtolerance="10"
     guidetolerance="10"
     inkscape:pageopacity="0"
     inkscape:pageshadow="2"
     inkscape:window-width="1920"
     inkscape:window-height="1017"
     id="namedview25"
     showgrid="false"
     inkscape:zoom="0.6267951"
     inkscape:cx="292.10261"
     inkscape:cy="351.06623"
     inkscape:window-x="-8"
     inkscape:window-y="-8"
     inkscape:window-maximized="1"
     inkscape:current-layer="layer4" />
  <!--
Console - Console with slanted panel

Created with Boxes.py (https://festi.info/boxes.py)
Creation date: 2022-04-13 10:39:05
Command line (remove spaces between dashes): boxes Console - -FingerJoint_angle=90.0 - -FingerJoint_style=rectangular - -FingerJoint_surroundingspaces=0.5 - -FingerJoint_edge_width=1.0 - -FingerJoint_extra_length=0.0 - -FingerJoint_finger=2.0 - -FingerJoint_play=0.0 - -FingerJoint_space=2.0 - -FingerJoint_width=1.0 - -Stackable_angle=60 - -Stackable_height=2.0 - -Stackable_holedistance=1.0 - -Stackable_width=4.0 - -x=160 - -y=108.66 - -h=246.13 - -outside=0 - -front_height=30 - -angle=70 - -thickness=3.0 - -format=svg - -tabs=0.0 - -debug=0 - -labels=0 - -reference=0 - -inner_corners=corner - -burn=0.1
Url: http://festi.info/Console?FingerJoint_angle=90.0&FingerJoint_style=rectangular&FingerJoint_surroundingspaces=0.5&FingerJoint_edge_width=1.0&FingerJoint_extra_length=0.0&FingerJoint_finger=2.0&FingerJoint_play=0.0&FingerJoint_space=2.0&FingerJoint_width=1.0&Stackable_angle=60&Stackable_height=2.0&Stackable_holedistance=1.0&Stackable_width=4.0&x=160&y=108.66&h=246.13&outside=0&front_height=30&angle=70&thickness=3.0&format=svg&tabs=0.0&debug=0&labels=0&reference=0&inner_corners=corner&burn=0.1&render=1
SettingsUrl: http://festi.info/Console?FingerJoint_angle=90.0&FingerJoint_style=rectangular&FingerJoint_surroundingspaces=0.5&FingerJoint_edge_width=1.0&FingerJoint_extra_length=0.0&FingerJoint_finger=2.0&FingerJoint_play=0.0&FingerJoint_space=2.0&FingerJoint_width=1.0&Stackable_angle=60&Stackable_height=2.0&Stackable_holedistance=1.0&Stackable_width=4.0&x=160&y=108.66&h=246.13&outside=0&front_height=30&angle=70&thickness=3.0&format=svg&tabs=0.0&debug=0&labels=0&reference=0&inner_corners=corner&burn=0.1
-->
  <title
     id="title2">Console</title>
  <metadata
     id="metadata4">
    <rdf:RDF>
      <cc:Work>
        <dc:title>Box - Console</dc:title>
        <dc:date>2022-04-13 10:39:05</dc:date>
        <dc:source>http://festi.info/Console?FingerJoint_angle=90.0&amp;FingerJoint_style=rectangular&amp;FingerJoint_surroundingspaces=0.5&amp;FingerJoint_edge_width=1.0&amp;FingerJoint_extra_length=0.0&amp;FingerJoint_finger=2.0&amp;FingerJoint_play=0.0&amp;FingerJoint_space=2.0&amp;FingerJoint_width=1.0&amp;Stackable_angle=60&amp;Stackable_height=2.0&amp;Stackable_holedistance=1.0&amp;Stackable_width=4.0&amp;x=160&amp;y=108.66&amp;h=246.13&amp;outside=0&amp;front_height=30&amp;angle=70&amp;thickness=3.0&amp;format=svg&amp;tabs=0.0&amp;debug=0&amp;labels=0&amp;reference=0&amp;inner_corners=corner&amp;burn=0.1&amp;render=1</dc:source>
        <dc:description>Console with slanted panel

Created with Boxes.py (https://festi.info/boxes.py)
Command line: boxes Console --FingerJoint_angle=90.0 --FingerJoint_style=rectangular --FingerJoint_surroundingspaces=0.5 --FingerJoint_edge_width=1.0 --FingerJoint_extra_length=0.0 --FingerJoint_finger=2.0 --FingerJoint_play=0.0 --FingerJoint_space=2.0 --FingerJoint_width=1.0 --Stackable_angle=60 --Stackable_height=2.0 --Stackable_holedistance=1.0 --Stackable_width=4.0 --x=160 --y=108.66 --h=246.13 --outside=0 --front_height=30 --angle=70 --thickness=3.0 --format=svg --tabs=0.0 --debug=0 --labels=0 --reference=0 --inner_corners=corner --burn=0.1
Url: http://festi.info/Console?FingerJoint_angle=90.0&amp;FingerJoint_style=rectangular&amp;FingerJoint_surroundingspaces=0.5&amp;FingerJoint_edge_width=1.0&amp;FingerJoint_extra_length=0.0&amp;FingerJoint_finger=2.0&amp;FingerJoint_play=0.0&amp;FingerJoint_space=2.0&amp;FingerJoint_width=1.0&amp;Stackable_angle=60&amp;Stackable_height=2.0&amp;Stackable_holedistance=1.0&amp;Stackable_width=4.0&amp;x=160&amp;y=108.66&amp;h=246.13&amp;outside=0&amp;front_height=30&amp;angle=70&amp;thickness=3.0&amp;format=svg&amp;tabs=0.0&amp;debug=0&amp;labels=0&amp;reference=0&amp;inner_corners=corner&amp;burn=0.1&amp;render=1
SettingsUrl: http://festi.info/Console?FingerJoint_angle=90.0&amp;FingerJoint_style=rectangular&amp;FingerJoint_surroundingspaces=0.5&amp;FingerJoint_edge_width=1.0&amp;FingerJoint_extra_length=0.0&amp;FingerJoint_finger=2.0&amp;FingerJoint_play=0.0&amp;FingerJoint_space=2.0&amp;FingerJoint_width=1.0&amp;Stackable_angle=60&amp;Stackable_height=2.0&amp;Stackable_holedistance=1.0&amp;Stackable_width=4.0&amp;x=160&amp;y=108.66&amp;h=246.13&amp;outside=0&amp;front_height=30&amp;angle=70&amp;thickness=3.0&amp;format=svg&amp;tabs=0.0&amp;debug=0&amp;labels=0&amp;reference=0&amp;inner_corners=corner&amp;burn=0.1
</dc:description>
        <dc:format>image/svg+xml</dc:format>
        <dc:type
           rdf:resource="http://purl.org/dc/dcmitype/StillImage" />
      </cc:Work>
    </rdf:RDF>
  </metadata>
  <g
     inkscape:groupmode="layer"
     id="layer1"
     inkscape:label="Sides"
     transform="translate(-349.79675,-100.25697)"
     style="display:inline">
    <g
       id="g873"
       transform="rotate(-90,92.27292,136.165)">
      <g
         id="p-0"
         style="fill:none;stroke:#ff0000;stroke-linecap:round;stroke-linejoin:round">
        <path
           d="m 13.1,259.33 h 3.23 v 2.9 c 0,0.055 0.045,0.1 0.1,0.1 h 6 c 0.055,0 0.1,-0.045 0.1,-0.1 v -2.9 h 5.8 v 2.9 c 0,0.055 0.045,0.1 0.1,0.1 h 6 c 0.055,0 0.1,-0.045 0.1,-0.1 v -2.9 h 5.8 v 2.9 c 0,0.055 0.045,0.1 0.1,0.1 h 6 c 0.055,0 0.1,-0.045 0.1,-0.1 v -2.9 h 5.8 v 2.9 c 0,0.055 0.045,0.1 0.1,0.1 h 6 c 0.055,0 0.1,-0.045 0.1,-0.1 v -2.9 h 5.8 v 2.9 c 0,0.055 0.045,0.1 0.1,0.1 h 6 c 0.055,0 0.1,-0.045 0.1,-0.1 v -2.9 h 5.8 v 2.9 c 0,0.055 0.045,0.1 0.1,0.1 h 6 c 0.055,0 0.1,-0.045 0.1,-0.1 v -2.9 h 5.8 v 2.9 c 0,0.055 0.045,0.1 0.1,0.1 h 6 c 0.055,0 0.1,-0.045 0.1,-0.1 v -2.9 h 5.8 v 2.9 c 0,0.055 0.045,0.1 0.1,0.1 h 6 c 0.055,0 0.1,-0.045 0.1,-0.1 v -2.9 h 5.8 v 2.9 c 0,0.055 0.045,0.1 0.1,0.1 h 6 c 0.055,0 0.1,-0.045 0.1,-0.1 v -2.9 h 3.23 c 0.055,0 0.1,-0.045 0.1,-0.1 v -5.9 h 2.9 c 0.055,0 0.1,-0.045 0.1,-0.1 v -6 c 0,-0.055 -0.045,-0.1 -0.1,-0.1 h -2.9 v -5.8 h 2.9 c 0.055,0 0.1,-0.045 0.1,-0.1 v -6 c 0,-0.055 -0.045,-0.1 -0.1,-0.1 h -2.9 v -5.9 c 0,-0.012 -0.002,-0.023 -0.006,-0.034 l -1.334,-3.665 2.725,-0.992 c 0.052,-0.019 0.079,-0.076 0.06,-0.128 l -2.052,-5.639 c -0.019,-0.051 -0.077,-0.078 -0.128,-0.059 l -2.726,0.992 -1.983,-5.451 2.725,-0.992 c 0.052,-0.018 0.078,-0.076 0.06,-0.128 l -2.053,-5.638 c -0.018,-0.052 -0.076,-0.079 -0.128,-0.06 l -2.725,0.992 -1.984,-5.45 2.726,-0.992 c 0.051,-0.019 0.078,-0.076 0.059,-0.128 l -2.052,-5.638 c -0.019,-0.052 -0.076,-0.079 -0.128,-0.06 l -2.725,0.992 -1.984,-5.45 2.725,-0.992 c 0.052,-0.019 0.079,-0.076 0.06,-0.128 l -2.052,-5.638 c -0.019,-0.052 -0.076,-0.079 -0.128,-0.06 l -2.725,0.992 -1.984,-5.451 2.725,-0.991 c 0.052,-0.019 0.079,-0.077 0.06,-0.129 l -2.052,-5.638 c -0.019,-0.052 -0.077,-0.078 -0.128,-0.06 l -2.726,0.992 -1.983,-5.45 2.725,-0.992 c 0.052,-0.019 0.079,-0.076 0.06,-0.128 l -2.052,-5.638 c -0.019,-0.052 -0.077,-0.079 -0.129,-0.06 l -2.725,0.992 -1.983,-5.45 2.725,-0.992 c 0.052,-0.019 0.078,-0.076 0.059,-0.128 l -2.052,-5.638 c -0.019,-0.052 -0.076,-0.079 -0.128,-0.06 l -2.725,0.992 -1.984,-5.451 2.725,-0.991 c 0.052,-0.019 0.079,-0.077 0.06,-0.129 l -2.052,-5.638 c -0.019,-0.052 -0.076,-0.078 -0.128,-0.059 l -2.725,0.991 -1.984,-5.45 2.725,-0.992 c 0.052,-0.019 0.079,-0.076 0.06,-0.128 l -2.052,-5.638 c -0.019,-0.052 -0.076,-0.079 -0.128,-0.06 l -2.725,0.992 -1.984,-5.45 2.725,-0.992 c 0.052,-0.019 0.079,-0.076 0.06,-0.128 l -2.052,-5.638 c -0.019,-0.052 -0.077,-0.079 -0.129,-0.06 l -2.725,0.992 -1.983,-5.45 2.725,-0.992 c 0.052,-0.019 0.078,-0.077 0.059,-0.128 l -2.052,-5.639 c -0.019,-0.052 -0.076,-0.078 -0.128,-0.059 l -2.725,0.991 -1.984,-5.45 2.725,-0.992 c 0.052,-0.019 0.079,-0.076 0.06,-0.128 l -2.052,-5.638 c -0.019,-0.052 -0.076,-0.079 -0.128,-0.06 l -2.725,0.992 -1.984,-5.45 2.725,-0.992 c 0.052,-0.019 0.079,-0.076 0.06,-0.128 l -2.052,-5.638 c -0.019,-0.052 -0.076,-0.079 -0.128,-0.06 l -2.725,0.992 -1.984,-5.45 2.725,-0.992 c 0.052,-0.019 0.079,-0.077 0.06,-0.128 L 67.898,72.18 c -0.019,-0.051 -0.077,-0.078 -0.129,-0.059 l -2.725,0.992 -1.983,-5.451 2.725,-0.992 c 0.052,-0.018 0.078,-0.076 0.059,-0.128 l -2.052,-5.638 c -0.019,-0.052 -0.076,-0.079 -0.128,-0.06 l -2.725,0.992 -1.984,-5.45 2.725,-0.992 c 0.052,-0.019 0.079,-0.076 0.06,-0.128 l -2.052,-5.638 c -0.019,-0.052 -0.076,-0.079 -0.128,-0.06 l -2.725,0.992 -1.984,-5.45 2.725,-0.992 c 0.052,-0.019 0.079,-0.076 0.06,-0.128 L 55.585,38.351 C 55.566,38.3 55.509,38.273 55.457,38.292 l -2.725,0.992 -1.984,-5.451 2.725,-0.992 c 0.052,-0.018 0.079,-0.076 0.06,-0.128 l -2.052,-5.638 c -0.019,-0.052 -0.077,-0.078 -0.129,-0.06 l -2.725,0.992 -1.983,-5.45 2.725,-0.992 c 0.052,-0.019 0.078,-0.076 0.059,-0.128 L 47.376,15.799 C 47.357,15.747 47.3,15.72 47.248,15.739 l -2.725,0.992 -1.334,-3.665 C 43.175,13.026 43.137,13 43.095,13 h -5.897 v -2.9 c 0,-0.055 -0.045,-0.1 -0.1,-0.1 h -6 c -0.056,0 -0.1,0.045 -0.1,0.1 V 13 h -5.8 v -2.9 c 0,-0.055 -0.045,-0.1 -0.1,-0.1 h -6 c -0.056,0 -0.1,0.045 -0.1,0.1 V 13 H 13.1 C 13.045,13 13,13.045 13,13.1 v 5.965 h -2.9 c -0.055,0 -0.1,0.045 -0.1,0.1 v 6 c 0,0.055 0.045,0.1 0.1,0.1 H 13 v 5.8 h -2.9 c -0.055,0 -0.1,0.045 -0.1,0.1 v 6 c 0,0.055 0.045,0.1 0.1,0.1 H 13 v 5.8 h -2.9 c -0.055,0 -0.1,0.045 -0.1,0.1 v 6 c 0,0.055 0.045,0.1 0.1,0.1 H 13 v 5.8 h -2.9 c -0.055,0 -0.1,0.045 -0.1,0.1 v 6 c 0,0.055 0.045,0.1 0.1,0.1 H 13 v 5.8 h -2.9 c -0.055,0 -0.1,0.045 -0.1,0.1 v 6 c 0,0.055 0.045,0.1 0.1,0.1 H 13 v 5.8 h -2.9 c -0.055,0 -0.1,0.045 -0.1,0.1 v 6 c 0,0.055 0.045,0.1 0.1,0.1 H 13 v 5.8 h -2.9 c -0.055,0 -0.1,0.045 -0.1,0.1 v 6 c 0,0.055 0.045,0.1 0.1,0.1 H 13 v 5.8 h -2.9 c -0.055,0 -0.1,0.045 -0.1,0.1 v 6 c 0,0.055 0.045,0.1 0.1,0.1 H 13 v 5.8 h -2.9 c -0.055,0 -0.1,0.045 -0.1,0.1 v 6 c 0,0.055 0.045,0.1 0.1,0.1 H 13 v 5.8 h -2.9 c -0.055,0 -0.1,0.045 -0.1,0.1 v 6 c 0,0.055 0.045,0.1 0.1,0.1 H 13 v 5.8 h -2.9 c -0.055,0 -0.1,0.045 -0.1,0.1 v 6 c 0,0.055 0.045,0.1 0.1,0.1 H 13 v 5.8 h -2.9 c -0.055,0 -0.1,0.045 -0.1,0.1 v 6 c 0,0.055 0.045,0.1 0.1,0.1 H 13 v 5.8 h -2.9 c -0.055,0 -0.1,0.045 -0.1,0.1 v 6 c 0,0.055 0.045,0.1 0.1,0.1 H 13 v 5.8 h -2.9 c -0.055,0 -0.1,0.045 -0.1,0.1 v 6 c 0,0.055 0.045,0.1 0.1,0.1 H 13 v 5.8 h -2.9 c -0.055,0 -0.1,0.045 -0.1,0.1 v 6 c 0,0.055 0.045,0.1 0.1,0.1 H 13 v 5.8 h -2.9 c -0.055,0 -0.1,0.045 -0.1,0.1 v 6 c 0,0.055 0.045,0.1 0.1,0.1 H 13 v 5.8 h -2.9 c -0.055,0 -0.1,0.045 -0.1,0.1 v 6 c 0,0.055 0.045,0.1 0.1,0.1 H 13 v 5.8 h -2.9 c -0.055,0 -0.1,0.045 -0.1,0.1 v 6 c 0,0.055 0.045,0.1 0.1,0.1 H 13 v 5.8 h -2.9 c -0.055,0 -0.1,0.045 -0.1,0.1 v 6 c 0,0.055 0.045,0.1 0.1,0.1 H 13 v 5.8 h -2.9 c -0.055,0 -0.1,0.045 -0.1,0.1 v 6 c 0,0.055 0.045,0.1 0.1,0.1 H 13 v 5.965 c 0,0.055 0.045,0.1 0.1,0.1 z"
           stroke="rgb(0,0,0)"
           stroke-width="0.2"
           id="path6"
           style="stroke:#ff0000" />
      </g>
      <g
         id="p-1"
         style="fill:none;stroke:#ff0000;stroke-linecap:round;stroke-linejoin:round"
         transform="rotate(180,150.45292,136.165)">
        <path
           d="m 129.46,259.33 h 3.23 v 2.9 c 0,0.055 0.045,0.1 0.1,0.1 h 6 c 0.055,0 0.1,-0.045 0.1,-0.1 v -2.9 h 5.8 v 2.9 c 0,0.055 0.045,0.1 0.1,0.1 h 6 c 0.055,0 0.1,-0.045 0.1,-0.1 v -2.9 h 5.8 v 2.9 c 0,0.055 0.045,0.1 0.1,0.1 h 6 c 0.055,0 0.1,-0.045 0.1,-0.1 v -2.9 h 5.8 v 2.9 c 0,0.055 0.045,0.1 0.1,0.1 h 6 c 0.055,0 0.1,-0.045 0.1,-0.1 v -2.9 h 5.8 v 2.9 c 0,0.055 0.045,0.1 0.1,0.1 h 6 c 0.055,0 0.1,-0.045 0.1,-0.1 v -2.9 h 5.8 v 2.9 c 0,0.055 0.045,0.1 0.1,0.1 h 6 c 0.055,0 0.1,-0.045 0.1,-0.1 v -2.9 h 5.8 v 2.9 c 0,0.055 0.045,0.1 0.1,0.1 h 6 c 0.055,0 0.1,-0.045 0.1,-0.1 v -2.9 h 5.8 v 2.9 c 0,0.055 0.045,0.1 0.1,0.1 h 6 c 0.055,0 0.1,-0.045 0.1,-0.1 v -2.9 h 5.8 v 2.9 c 0,0.055 0.045,0.1 0.1,0.1 h 6 c 0.055,0 0.1,-0.045 0.1,-0.1 v -2.9 h 3.23 c 0.055,0 0.1,-0.045 0.1,-0.1 v -5.9 h 2.9 c 0.055,0 0.1,-0.045 0.1,-0.1 v -6 c 0,-0.055 -0.045,-0.1 -0.1,-0.1 h -2.9 v -5.8 h 2.9 c 0.055,0 0.1,-0.045 0.1,-0.1 v -6 c 0,-0.055 -0.045,-0.1 -0.1,-0.1 h -2.9 v -5.9 c 0,-0.012 -0.002,-0.023 -0.006,-0.034 l -1.334,-3.665 2.725,-0.992 c 0.052,-0.019 0.079,-0.076 0.06,-0.128 l -2.052,-5.639 c -0.019,-0.051 -0.077,-0.078 -0.128,-0.059 l -2.726,0.992 -1.983,-5.451 2.725,-0.992 c 0.052,-0.018 0.078,-0.076 0.06,-0.128 l -2.053,-5.638 c -0.018,-0.052 -0.076,-0.079 -0.128,-0.06 l -2.725,0.992 -1.984,-5.45 2.726,-0.992 c 0.051,-0.019 0.078,-0.076 0.059,-0.128 l -2.052,-5.638 c -0.019,-0.052 -0.076,-0.079 -0.128,-0.06 l -2.725,0.992 -1.984,-5.45 2.725,-0.992 c 0.052,-0.019 0.079,-0.076 0.06,-0.128 l -2.052,-5.638 c -0.019,-0.052 -0.076,-0.079 -0.128,-0.06 l -2.725,0.992 -1.984,-5.451 2.725,-0.991 c 0.052,-0.019 0.079,-0.077 0.06,-0.129 l -2.052,-5.638 c -0.019,-0.052 -0.077,-0.078 -0.128,-0.06 l -2.726,0.992 -1.983,-5.45 2.725,-0.992 c 0.052,-0.019 0.079,-0.076 0.06,-0.128 l -2.052,-5.638 c -0.019,-0.052 -0.077,-0.079 -0.129,-0.06 l -2.725,0.992 -1.983,-5.45 2.725,-0.992 c 0.052,-0.019 0.078,-0.076 0.059,-0.128 l -2.052,-5.638 c -0.019,-0.052 -0.076,-0.079 -0.128,-0.06 l -2.725,0.992 -1.984,-5.451 2.725,-0.991 c 0.052,-0.019 0.079,-0.077 0.06,-0.129 l -2.052,-5.638 c -0.019,-0.052 -0.076,-0.078 -0.128,-0.059 l -2.725,0.991 -1.984,-5.45 2.725,-0.992 c 0.052,-0.019 0.079,-0.076 0.06,-0.128 l -2.052,-5.638 c -0.019,-0.052 -0.076,-0.079 -0.128,-0.06 l -2.725,0.992 -1.984,-5.45 2.725,-0.992 c 0.052,-0.019 0.079,-0.076 0.06,-0.128 l -2.052,-5.638 c -0.019,-0.052 -0.077,-0.079 -0.129,-0.06 l -2.725,0.992 -1.983,-5.45 2.725,-0.992 c 0.052,-0.019 0.078,-0.077 0.059,-0.128 l -2.052,-5.639 c -0.019,-0.052 -0.076,-0.078 -0.128,-0.059 l -2.725,0.991 -1.984,-5.45 2.725,-0.992 c 0.052,-0.019 0.079,-0.076 0.06,-0.128 l -2.052,-5.638 c -0.019,-0.052 -0.076,-0.079 -0.128,-0.06 l -2.725,0.992 -1.984,-5.45 2.725,-0.992 c 0.052,-0.019 0.079,-0.076 0.06,-0.128 l -2.052,-5.638 c -0.019,-0.052 -0.076,-0.079 -0.128,-0.06 l -2.725,0.992 -1.984,-5.45 2.725,-0.992 c 0.052,-0.019 0.079,-0.077 0.06,-0.128 l -2.052,-5.639 c -0.019,-0.051 -0.077,-0.078 -0.129,-0.059 l -2.725,0.992 -1.983,-5.451 2.725,-0.992 c 0.052,-0.018 0.078,-0.076 0.059,-0.128 l -2.052,-5.638 c -0.019,-0.052 -0.076,-0.079 -0.128,-0.06 l -2.725,0.992 -1.984,-5.45 2.725,-0.992 c 0.052,-0.019 0.079,-0.076 0.06,-0.128 l -2.052,-5.638 c -0.019,-0.052 -0.076,-0.079 -0.128,-0.06 l -2.725,0.992 -1.984,-5.45 2.725,-0.992 c 0.052,-0.019 0.079,-0.076 0.06,-0.128 l -2.052,-5.639 c -0.019,-0.051 -0.076,-0.078 -0.128,-0.059 l -2.725,0.992 -1.984,-5.451 2.725,-0.992 c 0.052,-0.018 0.079,-0.076 0.06,-0.128 l -2.052,-5.638 c -0.019,-0.052 -0.077,-0.078 -0.129,-0.06 l -2.725,0.992 -1.983,-5.45 2.725,-0.992 c 0.052,-0.019 0.078,-0.076 0.059,-0.128 l -2.052,-5.638 c -0.019,-0.052 -0.076,-0.079 -0.128,-0.06 l -2.725,0.992 -1.334,-3.665 C 159.535,13.026 159.497,13 159.455,13 h -5.897 v -2.9 c 0,-0.055 -0.045,-0.1 -0.1,-0.1 h -6 c -0.056,0 -0.1,0.045 -0.1,0.1 V 13 h -5.8 v -2.9 c 0,-0.055 -0.045,-0.1 -0.1,-0.1 h -6 c -0.056,0 -0.1,0.045 -0.1,0.1 V 13 h -5.898 c -0.055,0 -0.1,0.045 -0.1,0.1 v 5.965 h -2.9 c -0.055,0 -0.1,0.045 -0.1,0.1 v 6 c 0,0.055 0.045,0.1 0.1,0.1 h 2.9 v 5.8 h -2.9 c -0.055,0 -0.1,0.045 -0.1,0.1 v 6 c 0,0.055 0.045,0.1 0.1,0.1 h 2.9 v 5.8 h -2.9 c -0.055,0 -0.1,0.045 -0.1,0.1 v 6 c 0,0.055 0.045,0.1 0.1,0.1 h 2.9 v 5.8 h -2.9 c -0.055,0 -0.1,0.045 -0.1,0.1 v 6 c 0,0.055 0.045,0.1 0.1,0.1 h 2.9 v 5.8 h -2.9 c -0.055,0 -0.1,0.045 -0.1,0.1 v 6 c 0,0.055 0.045,0.1 0.1,0.1 h 2.9 v 5.8 h -2.9 c -0.055,0 -0.1,0.045 -0.1,0.1 v 6 c 0,0.055 0.045,0.1 0.1,0.1 h 2.9 v 5.8 h -2.9 c -0.055,0 -0.1,0.045 -0.1,0.1 v 6 c 0,0.055 0.045,0.1 0.1,0.1 h 2.9 v 5.8 h -2.9 c -0.055,0 -0.1,0.045 -0.1,0.1 v 6 c 0,0.055 0.045,0.1 0.1,0.1 h 2.9 v 5.8 h -2.9 c -0.055,0 -0.1,0.045 -0.1,0.1 v 6 c 0,0.055 0.045,0.1 0.1,0.1 h 2.9 v 5.8 h -2.9 c -0.055,0 -0.1,0.045 -0.1,0.1 v 6 c 0,0.055 0.045,0.1 0.1,0.1 h 2.9 v 5.8 h -2.9 c -0.055,0 -0.1,0.045 -0.1,0.1 v 6 c 0,0.055 0.045,0.1 0.1,0.1 h 2.9 v 5.8 h -2.9 c -0.055,0 -0.1,0.045 -0.1,0.1 v 6 c 0,0.055 0.045,0.1 0.1,0.1 h 2.9 v 5.8 h -2.9 c -0.055,0 -0.1,0.045 -0.1,0.1 v 6 c 0,0.055 0.045,0.1 0.1,0.1 h 2.9 v 5.8 h -2.9 c -0.055,0 -0.1,0.045 -0.1,0.1 v 6 c 0,0.055 0.045,0.1 0.1,0.1 h 2.9 v 5.8 h -2.9 c -0.055,0 -0.1,0.045 -0.1,0.1 v 6 c 0,0.055 0.045,0.1 0.1,0.1 h 2.9 v 5.8 h -2.9 c -0.055,0 -0.1,0.045 -0.1,0.1 v 6 c 0,0.055 0.045,0.1 0.1,0.1 h 2.9 v 5.8 h -2.9 c -0.055,0 -0.1,0.045 -0.1,0.1 v 6 c 0,0.055 0.045,0.1 0.1,0.1 h 2.9 v 5.8 h -2.9 c -0.055,0 -0.1,0.045 -0.1,0.1 v 6 c 0,0.055 0.045,0.1 0.1,0.1 h 2.9 v 5.8 h -2.9 c -0.055,0 -0.1,0.045 -0.1,0.1 v 6 c 0,0.055 0.045,0.1 0.1,0.1 h 2.9 v 5.8 h -2.9 c -0.055,0 -0.1,0.045 -0.1,0.1 v 6 c 0,0.055 0.045,0.1 0.1,0.1 h 2.9 v 5.965 c 0,0.055 0.045,0.1 0.1,0.1 z"
           stroke="rgb(0,0,0)"
           stroke-width="0.2"
           id="path9"
           style="stroke:#ff0000" />
      </g>
    </g>
  </g>
  <g
     inkscape:groupmode="layer"
     id="layer3"
     inkscape:label="Bottom"
     style="display:inline"
     transform="translate(-349.79675,-100.25697)">
    <path
       d="m 598.53743,232.72152 v -3.33 c 0,-0.055 -0.045,-0.1 -0.1,-0.1 h -2.9 v -5.8 h 2.9 c 0.055,0 0.1,-0.045 0.1,-0.1 v -6 c 0,-0.055 -0.045,-0.1 -0.1,-0.1 h -2.9 v -5.8 h 2.9 c 0.055,0 0.1,-0.045 0.1,-0.1 v -6 c 0,-0.055 -0.045,-0.1 -0.1,-0.1 h -2.9 v -5.8 h 2.9 c 0.055,0 0.1,-0.045 0.1,-0.1 v -6 c 0,-0.055 -0.045,-0.1 -0.1,-0.1 h -2.9 v -5.8 h 2.9 c 0.055,0 0.1,-0.045 0.1,-0.1 v -6 c 0,-0.055 -0.045,-0.1 -0.1,-0.1 h -2.9 v -5.8 h 2.9 c 0.055,0 0.1,-0.045 0.1,-0.1 v -6 c 0,-0.055 -0.045,-0.1 -0.1,-0.1 h -2.9 v -5.8 h 2.9 c 0.055,0 0.1,-0.045 0.1,-0.1 v -6 c 0,-0.055 -0.045,-0.1 -0.1,-0.1 h -2.9 v -5.8 h 2.9 c 0.055,0 0.1,-0.045 0.1,-0.1 v -6 c 0,-0.055 -0.045,-0.1 -0.1,-0.1 h -2.9 v -5.8 h 2.9 c 0.055,0 0.1,-0.045 0.1,-0.1 v -6 c 0,-0.055 -0.045,-0.1 -0.1,-0.1 h -2.9 v -5.8 h 2.9 c 0.055,0 0.1,-0.045 0.1,-0.1 v -3.33 -3 c 0,-0.055 -0.045,-0.1 -0.1,-0.1 h -3 -5 c -0.055,0 -0.1,0.045 -0.1,0.1 v 2.9 h -5.8 v -2.9 c 0,-0.055 -0.045,-0.1 -0.1,-0.1 h -6 c -0.055,0 -0.1,0.045 -0.1,0.1 v 2.9 h -5.8 v -2.9 c 0,-0.055 -0.045,-0.1 -0.1,-0.1 h -6 c -0.055,0 -0.1,0.045 -0.1,0.1 v 2.9 h -5.8 v -2.9 c 0,-0.055 -0.045,-0.1 -0.1,-0.1 h -6 c -0.055,0 -0.1,0.045 -0.1,0.1 v 2.9 h -5.8 v -2.9 c 0,-0.055 -0.045,-0.1 -0.1,-0.1 h -6 c -0.055,0 -0.1,0.045 -0.1,0.1 v 2.9 h -5.8 v -2.9 c 0,-0.055 -0.045,-0.1 -0.1,-0.1 h -6 c -0.055,0 -0.1,0.045 -0.1,0.1 v 2.9 h -5.8 v -2.9 c 0,-0.055 -0.045,-0.1 -0.1,-0.1 h -6 c -0.055,0 -0.1,0.045 -0.1,0.1 v 2.9 h -5.8 v -2.9 c 0,-0.055 -0.045,-0.1 -0.1,-0.1 h -6 c -0.055,0 -0.1,0.045 -0.1,0.1 v 2.9 h -5.8 v -2.9 c 0,-0.055 -0.045,-0.1 -0.1,-0.1 h -6 c -0.055,0 -0.1,0.045 -0.1,0.1 v 2.9 h -5.8 v -2.9 c 0,-0.055 -0.045,-0.1 -0.1,-0.1 h -6 c -0.055,0 -0.1,0.045 -0.1,0.1 v 2.9 h -5.8 v -2.9 c 0,-0.055 -0.045,-0.1 -0.1,-0.1 h -6 c -0.055,0 -0.1,0.045 -0.1,0.1 v 2.9 h -5.8 v -2.9 c 0,-0.055 -0.045,-0.1 -0.1,-0.1 h -6 c -0.055,0 -0.1,0.045 -0.1,0.1 v 2.9 h -5.8 v -2.9 c 0,-0.055 -0.045,-0.1 -0.1,-0.1 h -6 c -0.055,0 -0.1,0.045 -0.1,0.1 v 2.9 h -5.8 v -2.9 c 0,-0.055 -0.045,-0.1 -0.1,-0.1 h -5 -3 c -0.055,0 -0.1,0.045 -0.1,0.1 v 3 3.33 c 0,0.055 0.045,0.1 0.1,0.1 h 2.9 v 5.8 h -2.9 c -0.055,0 -0.1,0.045 -0.1,0.1 v 6 c 0,0.055 0.045,0.1 0.1,0.1 h 2.9 v 5.8 h -2.9 c -0.055,0 -0.1,0.045 -0.1,0.1 v 6 c 0,0.055 0.045,0.1 0.1,0.1 h 2.9 v 5.8 h -2.9 c -0.055,0 -0.1,0.045 -0.1,0.1 v 6 c 0,0.055 0.045,0.1 0.1,0.1 h 2.9 v 5.8 h -2.9 c -0.055,0 -0.1,0.045 -0.1,0.1 v 6 c 0,0.055 0.045,0.1 0.1,0.1 h 2.9 v 5.8 h -2.9 c -0.055,0 -0.1,0.045 -0.1,0.1 v 6 c 0,0.055 0.045,0.1 0.1,0.1 h 2.9 v 5.8 h -2.9 c -0.055,0 -0.1,0.045 -0.1,0.1 v 6 c 0,0.055 0.045,0.1 0.1,0.1 h 2.9 v 5.8 h -2.9 c -0.055,0 -0.1,0.045 -0.1,0.1 v 6 c 0,0.055 0.045,0.1 0.1,0.1 h 2.9 v 5.8 h -2.9 c -0.055,0 -0.1,0.045 -0.1,0.1 v 6 c 0,0.055 0.045,0.1 0.1,0.1 h 2.9 v 5.8 h -2.9 c -0.055,0 -0.1,0.045 -0.1,0.1 v 3.33 3 c 0,0.055 0.045,0.1 0.1,0.1 h 3 5 c 0.055,0 0.1,-0.045 0.1,-0.1 v -2.9 h 5.8 v 2.9 c 0,0.055 0.045,0.1 0.1,0.1 h 6 c 0.055,0 0.1,-0.045 0.1,-0.1 v -2.9 h 5.8 v 2.9 c 0,0.055 0.045,0.1 0.1,0.1 h 6 c 0.055,0 0.1,-0.045 0.1,-0.1 v -2.9 h 5.8 v 2.9 c 0,0.055 0.045,0.1 0.1,0.1 h 6 c 0.055,0 0.1,-0.045 0.1,-0.1 v -2.9 h 5.8 v 2.9 c 0,0.055 0.045,0.1 0.1,0.1 h 6 c 0.055,0 0.1,-0.045 0.1,-0.1 v -2.9 h 5.8 v 2.9 c 0,0.055 0.045,0.1 0.1,0.1 h 6 c 0.055,0 0.1,-0.045 0.1,-0.1 v -2.9 h 5.8 v 2.9 c 0,0.055 0.045,0.1 0.1,0.1 h 6 c 0.055,0 0.1,-0.045 0.1,-0.1 v -2.9 h 5.8 v 2.9 c 0,0.055 0.045,0.1 0.1,0.1 h 6 c 0.055,0 0.1,-0.045 0.1,-0.1 v -2.9 h 5.8 v 2.9 c 0,0.055 0.045,0.1 0.1,0.1 h 6 c 0.055,0 0.1,-0.045 0.1,-0.1 v -2.9 h 5.8 v 2.9 c 0,0.055 0.045,0.1 0.1,0.1 h 6 c 0.055,0 0.1,-0.045 0.1,-0.1 v -2.9 h 5.8 v 2.9 c 0,0.055 0.045,0.1 0.1,0.1 h 6 c 0.055,0 0.1,-0.045 0.1,-0.1 v -2.9 h 5.8 v 2.9 c 0,0.055 0.045,0.1 0.1,0.1 h 6 c 0.055,0 0.1,-0.045 0.1,-0.1 v -2.9 h 5.8 v 2.9 c 0,0.055 0.045,0.1 0.1,0.1 h 6 c 0.055,0 0.1,-0.045 0.1,-0.1 v -2.9 h 5.8 v 2.9 c 0,0.055 0.045,0.1 0.1,0.1 h 5 3 c 0.055,0 0.1,-0.045 0.1,-0.1 z"
       stroke="rgb(0,0,0)"
       stroke-width="0.2"
       id="path12"
       style="fill:none;stroke:#ff0000;stroke-linecap:round;stroke-linejoin:round" />
  </g>
  <g
     inkscape:groupmode="layer"
     id="layer5"
     inkscape:label="Top"
     style="display:inline"
     transform="translate(51.133235,-3.376967)">
    <path
       d="m 60.66449,96.964499 v -6 c 0,-0.055 -0.045,-0.1 -0.1,-0.1 h -2.9 v -5.8 h 2.9 c 0.055,0 0.1,-0.045 0.1,-0.1 v -6 c 0,-0.055 -0.045,-0.1 -0.1,-0.1 h -2.9 v -5.8 h 2.9 c 0.055,0 0.1,-0.045 0.1,-0.1 v -6 0.497 c 0,-0.055 -0.045,-0.1 -0.1,-0.1 h -3 -4.9 v -0.926 c 0,-0.055 -0.045,-0.1 -0.1,-0.1 h -6 c -0.055,0 -0.1,0.045 -0.1,0.1 v 0.926 h -5.8 v -0.926 c 0,-0.055 -0.045,-0.1 -0.1,-0.1 h -6 c -0.055,0 -0.1,0.045 -0.1,0.1 v 0.926 h -5.8 v -0.926 c 0,-0.055 -0.045,-0.1 -0.1,-0.1 h -6 c -0.055,0 -0.1,0.045 -0.1,0.1 v 0.926 h -5.8 v -0.926 c 0,-0.055 -0.045,-0.1 -0.1,-0.1 h -6 c -0.055,0 -0.1,0.045 -0.1,0.1 v 0.926 h -5.8 v -0.926 c 0,-0.055 -0.045,-0.1 -0.1,-0.1 h -6 c -0.055,0 -0.1,0.045 -0.1,0.1 v 0.926 h -5.8 v -0.926 c 0,-0.055 -0.045,-0.1 -0.1,-0.1 h -6 c -0.055,0 -0.1,0.045 -0.1,0.1 v 0.926 h -5.8 v -0.926 c 0,-0.055 -0.045,-0.1 -0.1,-0.1 h -6 c -0.055,0 -0.1,0.045 -0.1,0.1 v 0.926 h -5.8 v -0.926 c 0,-0.055 -0.045,-0.1 -0.1,-0.1 h -6 c -0.055,0 -0.1,0.045 -0.1,0.1 v 0.926 h -5.8 v -0.926 c 0,-0.055 -0.045,-0.1 -0.1,-0.1 h -6 c -0.055,0 -0.1,0.045 -0.1,0.1 v 0.926 h -5.8 v -0.926 c 0,-0.055 -0.045,-0.1 -0.1,-0.1 h -6 c -0.055,0 -0.1,0.045 -0.1,0.1 v 0.926 h -5.8 v -0.926 c 0,-0.055 -0.045,-0.1 -0.1,-0.1 h -6 c -0.055,0 -0.1,0.045 -0.1,0.1 v 0.926 h -5.8 v -0.926 c 0,-0.055 -0.045,-0.1 -0.1,-0.1 h -6 c -0.055,0 -0.1,0.045 -0.1,0.1 v 0.926 h -5.8 v -0.926 c 0,-0.055 -0.045,-0.1 -0.1,-0.1 h -6 c -0.055,0 -0.1,0.045 -0.1,0.1 v 0.926 h -4.9 -3 c -0.055,0 -0.1,0.045 -0.1,0.1 v -0.497 6 c 0,0.055 0.045,0.1 0.1,0.1 h 2.9 v 5.8 h -2.9 c -0.055,0 -0.1,0.045 -0.1,0.1 v 6 c 0,0.055 0.045,0.1 0.1,0.1 h 2.9 v 5.8 h -2.9 c -0.055,0 -0.1,0.045 -0.1,0.1 v 6 c 0,0.055 0.045,0.1 0.1,0.1 h 3 4.9 v 2.9 c 0,0.055 0.045,0.100001 0.1,0.100001 h 6 c 0.055,0 0.1,-0.045 0.1,-0.100001 v -2.9 h 5.8 v 2.9 c 0,0.055 0.045,0.100001 0.1,0.100001 h 6 c 0.055,0 0.1,-0.045 0.1,-0.100001 v -2.9 h 5.8 v 2.9 c 0,0.055 0.045,0.100001 0.1,0.100001 h 6 c 0.055,0 0.1,-0.045 0.1,-0.100001 v -2.9 h 5.8 v 2.9 c 0,0.055 0.045,0.100001 0.1,0.100001 h 6 c 0.055,0 0.1,-0.045 0.1,-0.100001 v -2.9 h 5.8 v 2.9 c 0,0.055 0.045,0.100001 0.1,0.100001 h 6 c 0.055,0 0.1,-0.045 0.1,-0.100001 v -2.9 h 5.8 v 2.9 c 0,0.055 0.045,0.100001 0.1,0.100001 h 6 c 0.055,0 0.1,-0.045 0.1,-0.100001 v -2.9 h 5.8 v 2.9 c 0,0.055 0.045,0.100001 0.1,0.100001 h 6 c 0.055,0 0.1,-0.045 0.1,-0.100001 v -2.9 h 5.8 v 2.9 c 0,0.055 0.045,0.100001 0.1,0.100001 h 6 c 0.055,0 0.1,-0.045 0.1,-0.100001 v -2.9 h 5.8 v 2.9 c 0,0.055 0.045,0.100001 0.1,0.100001 h 6 c 0.055,0 0.1,-0.045 0.1,-0.100001 v -2.9 h 5.8 v 2.9 c 0,0.055 0.045,0.100001 0.1,0.100001 h 6 c 0.055,0 0.1,-0.045 0.1,-0.100001 v -2.9 h 5.8 v 2.9 c 0,0.055 0.045,0.100001 0.1,0.100001 h 6 c 0.055,0 0.1,-0.045 0.1,-0.100001 v -2.9 h 5.8 v 2.9 c 0,0.055 0.045,0.100001 0.1,0.100001 h 6 c 0.055,0 0.1,-0.045 0.1,-0.100001 v -2.9 h 5.8 v 2.9 c 0,0.055 0.045,0.100001 0.1,0.100001 h 6 c 0.055,0 0.1,-0.045 0.1,-0.100001 v -2.9 h 4.9 3 c 0.055,0 0.1,-0.045 0.1,-0.1 z"
       stroke="rgb(0,0,0)"
       stroke-width="0.2"
       id="path14"
       style="display:inline;fill:none;stroke:#ff0000;stroke-linecap:round;stroke-linejoin:round" />
  </g>
  <g
     inkscape:groupmode="layer"
     id="layer6"
     inkscape:label="Top 1"
     style="display:inline"
     transform="translate(11.733225,-3.799088)">
    <path
       d="m 183.90784,99.913862 v -5.998 c 0,-0.055 -0.045,-0.1 -0.1,-0.1 h -2.9 v -5.8 h 2.9 c 0.055,0 0.1,-0.045 0.1,-0.1 v -6 c 0,-0.055 -0.045,-0.1 -0.1,-0.1 h -2.9 v -5.8 h 2.9 c 0.055,0 0.1,-0.045 0.1,-0.1 v -5.997 c 0,-0.056 -0.045,-0.1 -0.1,-0.1 h -3 -4.9 v -2.9 c 0,-0.056 -0.045,-0.1 -0.1,-0.1 h -6 c -0.055,0 -0.1,0.044 -0.1,0.1 v 2.9 h -5.8 v -2.9 c 0,-0.056 -0.045,-0.1 -0.1,-0.1 h -6 c -0.055,0 -0.1,0.044 -0.1,0.1 v 2.9 h -5.8 v -2.9 c 0,-0.056 -0.045,-0.1 -0.1,-0.1 h -6 c -0.055,0 -0.1,0.044 -0.1,0.1 v 2.9 h -5.8 v -2.9 c 0,-0.056 -0.045,-0.1 -0.1,-0.1 h -6 c -0.055,0 -0.1,0.044 -0.1,0.1 v 2.9 h -5.8 v -2.9 c 0,-0.056 -0.045,-0.1 -0.1,-0.1 h -6 c -0.055,0 -0.1,0.044 -0.1,0.1 v 2.9 h -5.79999 v -2.9 c 0,-0.056 -0.045,-0.1 -0.1,-0.1 h -6 c -0.055,0 -0.1,0.044 -0.1,0.1 v 2.9 h -5.8 v -2.9 c 0,-0.056 -0.045,-0.1 -0.1,-0.1 h -6.000004 c -0.055,0 -0.1,0.044 -0.1,0.1 v 2.9 h -5.8 v -2.9 c 0,-0.056 -0.045,-0.1 -0.1,-0.1 h -6 c -0.055,0 -0.1,0.044 -0.1,0.1 v 2.9 h -5.8 v -2.9 c 0,-0.056 -0.045,-0.1 -0.1,-0.1 h -6 c -0.055,0 -0.1,0.044 -0.1,0.1 v 2.9 h -5.8 v -2.9 c 0,-0.056 -0.045,-0.1 -0.1,-0.1 h -6 c -0.055,0 -0.1,0.044 -0.1,0.1 v 2.9 h -5.8 v -2.9 c 0,-0.056 -0.045,-0.1 -0.1,-0.1 h -6 c -0.055,0 -0.1,0.044 -0.1,0.1 v 2.9 h -5.8 v -2.9 c 0,-0.056 -0.045,-0.1 -0.1,-0.1 h -6 c -0.055,0 -0.1,0.044 -0.1,0.1 v 2.9 h -5.8 v -2.9 c 0,-0.056 -0.045,-0.1 -0.1,-0.1 h -6.000001 c -0.055,0 -0.1,0.044 -0.1,0.1 v 2.9 h -4.9 -3 c -0.055,0 -0.1,0.044 -0.1,0.1 v 5.997 c 0,0.055 0.045,0.1 0.1,0.1 h 2.9 v 5.8 h -2.9 c -0.055,0 -0.1,0.045 -0.1,0.1 v 6 c 0,0.055 0.045,0.1 0.1,0.1 h 2.9 v 5.8 h -2.9 c -0.055,0 -0.1,0.045 -0.1,0.1 v 5.998 -0.719 c 0,0.055 0.045,0.1 0.1,0.1 h 3 4.9 v 2.718998 c 0,0.056 0.045,0.1 0.1,0.1 h 6.000001 c 0.055,0 0.1,-0.044 0.1,-0.1 v -2.718998 h 5.8 v 2.718998 c 0,0.056 0.045,0.1 0.1,0.1 h 6 c 0.055,0 0.1,-0.044 0.1,-0.1 v -2.718998 h 5.8 v 2.718998 c 0,0.056 0.045,0.1 0.1,0.1 h 6 c 0.055,0 0.1,-0.044 0.1,-0.1 v -2.718998 h 5.8 v 2.718998 c 0,0.056 0.045,0.1 0.1,0.1 h 6 c 0.055,0 0.1,-0.044 0.1,-0.1 v -2.718998 h 5.8 v 2.718998 c 0,0.056 0.045,0.1 0.1,0.1 h 6 c 0.055,0 0.1,-0.044 0.1,-0.1 v -2.718998 h 5.8 v 2.718998 c 0,0.056 0.045,0.1 0.1,0.1 h 6 c 0.055,0 0.1,-0.044 0.1,-0.1 v -2.718998 h 5.8 v 2.718998 c 0,0.056 0.045,0.1 0.1,0.1 h 6.000004 c 0.055,0 0.1,-0.044 0.1,-0.1 v -2.718998 h 5.8 v 2.718998 c 0,0.056 0.045,0.1 0.1,0.1 h 6 c 0.055,0 0.1,-0.044 0.1,-0.1 v -2.718998 h 5.79999 v 2.718998 c 0,0.056 0.045,0.1 0.1,0.1 h 6 c 0.055,0 0.1,-0.044 0.1,-0.1 v -2.718998 h 5.8 v 2.718998 c 0,0.056 0.045,0.1 0.1,0.1 h 6 c 0.055,0 0.1,-0.044 0.1,-0.1 v -2.718998 h 5.8 v 2.718998 c 0,0.056 0.045,0.1 0.1,0.1 h 6 c 0.055,0 0.1,-0.044 0.1,-0.1 v -2.718998 h 5.8 v 2.718998 c 0,0.056 0.045,0.1 0.1,0.1 h 6 c 0.055,0 0.1,-0.044 0.1,-0.1 v -2.718998 h 5.8 v 2.718998 c 0,0.056 0.045,0.1 0.1,0.1 h 6 c 0.055,0 0.1,-0.044 0.1,-0.1 v -2.718998 h 4.9 3 c 0.055,0 0.1,-0.045 0.1,-0.1 z"
       stroke="rgb(0,0,0)"
       stroke-width="0.2"
       id="path18"
       style="display:inline;fill:none;stroke:#ff0000;stroke-linecap:round;stroke-linejoin:round" />
  </g>
  <g
     inkscape:groupmode="layer"
     id="layer2"
     inkscape:label="Front"
     style="display:inline"
     transform="translate(-349.79675,-100.25697)">
    <path
       d="m 633.231,96.98 h -4 c -0.056,0 -0.1,0.045 -0.1,0.1 v 2.9 h -5.8 v -2.9 c 0,-0.055 -0.045,-0.1 -0.1,-0.1 h -6 c -0.056,0 -0.1,0.045 -0.1,0.1 v 2.9 h -5.8 v -2.9 c 0,-0.055 -0.045,-0.1 -0.1,-0.1 h -6 c -0.056,0 -0.1,0.045 -0.1,0.1 v 2.9 h -5.8 v -2.9 c 0,-0.055 -0.045,-0.1 -0.1,-0.1 h -6 c -0.056,0 -0.1,0.045 -0.1,0.1 v 2.9 h -5.8 v -2.9 c 0,-0.055 -0.045,-0.1 -0.1,-0.1 h -6 c -0.056,0 -0.1,0.045 -0.1,0.1 v 2.9 h -5.8 v -2.9 c 0,-0.055 -0.045,-0.1 -0.1,-0.1 h -6 c -0.056,0 -0.1,0.045 -0.1,0.1 v 2.9 h -5.8 v -2.9 c 0,-0.055 -0.045,-0.1 -0.1,-0.1 h -6 c -0.056,0 -0.1,0.045 -0.1,0.1 v 2.9 h -5.8 v -2.9 c 0,-0.055 -0.045,-0.1 -0.1,-0.1 h -6 c -0.056,0 -0.1,0.045 -0.1,0.1 v 2.9 h -5.8 v -2.9 c 0,-0.055 -0.045,-0.1 -0.1,-0.1 h -6 c -0.056,0 -0.1,0.045 -0.1,0.1 v 2.9 h -5.8 v -2.9 c 0,-0.055 -0.045,-0.1 -0.1,-0.1 h -6 c -0.056,0 -0.1,0.045 -0.1,0.1 v 2.9 h -5.8 v -2.9 c 0,-0.055 -0.045,-0.1 -0.1,-0.1 h -6 c -0.056,0 -0.1,0.045 -0.1,0.1 v 2.9 h -5.8 v -2.9 c 0,-0.055 -0.045,-0.1 -0.1,-0.1 h -6 c -0.056,0 -0.1,0.045 -0.1,0.1 v 2.9 h -5.8 v -2.9 c 0,-0.055 -0.045,-0.1 -0.1,-0.1 h -6 c -0.056,0 -0.1,0.045 -0.1,0.1 v 2.9 h -5.8 v -2.9 c 0,-0.055 -0.045,-0.1 -0.1,-0.1 h -6 c -0.056,0 -0.1,0.045 -0.1,0.1 v 2.9 h -5.8 v -2.9 c 0,-0.055 -0.045,-0.1 -0.1,-0.1 h -6 c -0.056,0 -0.1,0.045 -0.1,0.1 v 2.9 h -5.8 v -2.9 c 0,-0.055 -0.045,-0.1 -0.1,-0.1 h -6 c -0.056,0 -0.1,0.045 -0.1,0.1 v 2.9 h -5.8 v -2.9 c 0,-0.055 -0.045,-0.1 -0.1,-0.1 h -6 c -0.056,0 -0.1,0.045 -0.1,0.1 v 2.9 h -5.8 v -2.9 c 0,-0.055 -0.045,-0.1 -0.1,-0.1 h -6 c -0.056,0 -0.1,0.045 -0.1,0.1 v 2.9 h -5.8 v -2.9 c 0,-0.055 -0.045,-0.1 -0.1,-0.1 h -6 c -0.056,0 -0.1,0.045 -0.1,0.1 v 2.9 h -5.8 v -2.9 c 0,-0.055 -0.045,-0.1 -0.1,-0.1 h -4.001 -2.1 c -0.056,0 -0.1,0.045 -0.1,0.1 v 3 5 c 0,0.055 0.044,0.1 0.1,0.1 h 2.719 v 5.8 h -2.719 c -0.056,0 -0.1,0.045 -0.1,0.1 v 6 c 0,0.055 0.044,0.1 0.1,0.1 h 2.719 v 5.8 h -2.719 c -0.056,0 -0.1,0.045 -0.1,0.1 v 6 c 0,0.055 0.044,0.1 0.1,0.1 h 2.719 v 5.8 h -2.719 c -0.056,0 -0.1,0.045 -0.1,0.1 v 6 c 0,0.055 0.044,0.1 0.1,0.1 h 2.719 v 5.8 h -2.719 c -0.056,0 -0.1,0.045 -0.1,0.1 v 6 c 0,0.055 0.044,0.1 0.1,0.1 h 2.719 v 5.8 h -2.719 c -0.056,0 -0.1,0.045 -0.1,0.1 v 6 c 0,0.055 0.044,0.1 0.1,0.1 h 2.719 v 5.8 h -2.719 c -0.056,0 -0.1,0.045 -0.1,0.1 v 6 c 0,0.055 0.044,0.1 0.1,0.1 h 2.719 v 5.8 h -2.719 c -0.056,0 -0.1,0.045 -0.1,0.1 v 6 c 0,0.055 0.044,0.1 0.1,0.1 h 2.719 v 5.8 h -2.719 c -0.056,0 -0.1,0.045 -0.1,0.1 v 6 c 0,0.055 0.044,0.1 0.1,0.1 h 2.719 v 5.8 h -2.719 c -0.056,0 -0.1,0.045 -0.1,0.1 v 6 c 0,0.055 0.044,0.1 0.1,0.1 h 2.719 v 5.8 h -2.719 c -0.056,0 -0.1,0.045 -0.1,0.1 v 6 c 0,0.055 0.044,0.1 0.1,0.1 h 2.719 v 5.8 h -2.719 c -0.056,0 -0.1,0.045 -0.1,0.1 v 6 c 0,0.055 0.044,0.1 0.1,0.1 h 2.719 v 5.8 h -2.719 c -0.056,0 -0.1,0.045 -0.1,0.1 v 6 c 0,0.055 0.044,0.1 0.1,0.1 h 2.719 v 5.8 h -2.719 c -0.056,0 -0.1,0.045 -0.1,0.1 v 5 3 c 0,0.055 0.044,0.1 0.1,0.1 h 2.1 4.001 c 0.055,0 0.1,-0.045 0.1,-0.1 v -2.9 h 5.8 v 2.9 c 0,0.055 0.044,0.1 0.1,0.1 h 6 c 0.055,0 0.1,-0.045 0.1,-0.1 v -2.9 h 5.8 v 2.9 c 0,0.055 0.044,0.1 0.1,0.1 h 6 c 0.055,0 0.1,-0.045 0.1,-0.1 v -2.9 h 5.8 v 2.9 c 0,0.055 0.044,0.1 0.1,0.1 h 6 c 0.055,0 0.1,-0.045 0.1,-0.1 v -2.9 h 5.8 v 2.9 c 0,0.055 0.044,0.1 0.1,0.1 h 6 c 0.055,0 0.1,-0.045 0.1,-0.1 v -2.9 h 5.8 v 2.9 c 0,0.055 0.044,0.1 0.1,0.1 h 6 c 0.055,0 0.1,-0.045 0.1,-0.1 v -2.9 h 5.8 v 2.9 c 0,0.055 0.044,0.1 0.1,0.1 h 6 c 0.055,0 0.1,-0.045 0.1,-0.1 v -2.9 h 5.8 v 2.9 c 0,0.055 0.044,0.1 0.1,0.1 h 6 c 0.055,0 0.1,-0.045 0.1,-0.1 v -2.9 h 5.8 v 2.9 c 0,0.055 0.044,0.1 0.1,0.1 h 6 c 0.055,0 0.1,-0.045 0.1,-0.1 v -2.9 h 5.8 v 2.9 c 0,0.055 0.044,0.1 0.1,0.1 h 6 c 0.055,0 0.1,-0.045 0.1,-0.1 v -2.9 h 5.8 v 2.9 c 0,0.055 0.044,0.1 0.1,0.1 h 6 c 0.055,0 0.1,-0.045 0.1,-0.1 v -2.9 h 5.8 v 2.9 c 0,0.055 0.044,0.1 0.1,0.1 h 6 c 0.055,0 0.1,-0.045 0.1,-0.1 v -2.9 h 5.8 v 2.9 c 0,0.055 0.044,0.1 0.1,0.1 h 6 c 0.055,0 0.1,-0.045 0.1,-0.1 v -2.9 h 5.8 v 2.9 c 0,0.055 0.044,0.1 0.1,0.1 h 6 c 0.055,0 0.1,-0.045 0.1,-0.1 v -2.9 h 5.8 v 2.9 c 0,0.055 0.044,0.1 0.1,0.1 h 6 c 0.055,0 0.1,-0.045 0.1,-0.1 v -2.9 h 5.8 v 2.9 c 0,0.055 0.044,0.1 0.1,0.1 h 6 c 0.055,0 0.1,-0.045 0.1,-0.1 v -2.9 h 5.8 v 2.9 c 0,0.055 0.044,0.1 0.1,0.1 h 6 c 0.055,0 0.1,-0.045 0.1,-0.1 v -2.9 h 5.8 v 2.9 c 0,0.055 0.044,0.1 0.1,0.1 h 6 c 0.055,0 0.1,-0.045 0.1,-0.1 v -2.9 h 5.8 v 2.9 c 0,0.055 0.044,0.1 0.1,0.1 h 6 c 0.055,0 0.1,-0.045 0.1,-0.1 v -2.9 h 5.8 v 2.9 c 0,0.055 0.044,0.1 0.1,0.1 h 4 0.529 c 0.055,0 0.1,-0.045 0.1,-0.1 v -3 -5 c 0,-0.055 -0.045,-0.1 -0.1,-0.1 h -0.926 v -5.8 h 0.926 c 0.055,0 0.1,-0.045 0.1,-0.1 v -6 c 0,-0.055 -0.045,-0.1 -0.1,-0.1 h -0.926 v -5.8 h 0.926 c 0.055,0 0.1,-0.045 0.1,-0.1 v -6 c 0,-0.055 -0.045,-0.1 -0.1,-0.1 h -0.926 v -5.8 h 0.926 c 0.055,0 0.1,-0.045 0.1,-0.1 v -6 c 0,-0.055 -0.045,-0.1 -0.1,-0.1 h -0.926 v -5.8 h 0.926 c 0.055,0 0.1,-0.045 0.1,-0.1 v -6 c 0,-0.055 -0.045,-0.1 -0.1,-0.1 h -0.926 v -5.8 h 0.926 c 0.055,0 0.1,-0.045 0.1,-0.1 v -6 c 0,-0.055 -0.045,-0.1 -0.1,-0.1 h -0.926 v -5.8 h 0.926 c 0.055,0 0.1,-0.045 0.1,-0.1 v -6 c 0,-0.055 -0.045,-0.1 -0.1,-0.1 h -0.926 v -5.8 h 0.926 c 0.055,0 0.1,-0.045 0.1,-0.1 v -6 c 0,-0.055 -0.045,-0.1 -0.1,-0.1 h -0.926 v -5.8 h 0.926 c 0.055,0 0.1,-0.045 0.1,-0.1 v -6 c 0,-0.055 -0.045,-0.1 -0.1,-0.1 h -0.926 v -5.8 h 0.926 c 0.055,0 0.1,-0.045 0.1,-0.1 v -6 c 0,-0.055 -0.045,-0.1 -0.1,-0.1 h -0.926 v -5.8 h 0.926 c 0.055,0 0.1,-0.045 0.1,-0.1 v -6 c 0,-0.055 -0.045,-0.1 -0.1,-0.1 h -0.926 v -5.8 h 0.926 c 0.055,0 0.1,-0.045 0.1,-0.1 v -6 c 0,-0.055 -0.045,-0.1 -0.1,-0.1 h -0.926 v -5.8 h 0.926 c 0.055,0 0.1,-0.045 0.1,-0.1 v -6 c 0,-0.055 -0.045,-0.1 -0.1,-0.1 h -0.926 v -5.8 h 0.926 c 0.055,0 0.1,-0.045 0.1,-0.1 v -5 -3 c 0,-0.055 -0.045,-0.1 -0.1,-0.1 z"
       stroke="rgb(0,0,0)"
       stroke-width="0.2"
       id="path16"
       style="fill:none;stroke:#ff0000;stroke-linecap:round;stroke-linejoin:round" />
    <g
       id="g920"
       transform="translate(80.56421,-18.392499)">
      <path
         d="m 540.29803,128.26927 a 2.4870009,2.4870009 0 1 0 0,4.974 2.4870009,2.4870009 0 1 0 0,-4.974 z"
         style="display:inline;fill:none;stroke:#ff0000;stroke-width:0.313343;stroke-linecap:round;stroke-linejoin:round;shape-rendering:crispEdges"
         id="path53511" />
      <path
         d="m 540.31812,264.56055 a 2.4889972,2.490305 0 1 0 0,4.98061 2.4889972,2.490305 0 1 0 0,-4.98061 z"
         style="display:inline;fill:none;stroke:#ff0000;stroke-width:0.313677;stroke-linecap:round;stroke-linejoin:round;shape-rendering:crispEdges"
         id="path53513" />
      <path
         d="m 445.04529,128.29247 a 2.4869393,2.4891 0 1 0 0,4.9782 2.4869393,2.4891 0 1 0 0,-4.9782 z"
         style="display:inline;fill:none;stroke:#ff0000;stroke-width:0.31347;stroke-linecap:round;stroke-linejoin:round;shape-rendering:crispEdges"
         id="path53515" />
      <path
         d="m 445.03638,264.56671 a 2.489035,2.489035 0 1 0 0,4.97807 2.489035,2.489035 0 1 0 0,-4.97807 z"
         style="display:inline;fill:none;stroke:#ff0000;stroke-width:0.313597;stroke-linecap:round;stroke-linejoin:round;shape-rendering:crispEdges"
         id="path53517" />
      <path
         d="m 340.27697,128.30737 a 2.4869371,2.4891 0 1 0 0,4.9782 2.4869371,2.4891 0 1 0 0,-4.9782 z"
         style="display:inline;fill:none;stroke:#ff0000;stroke-width:0.31347;stroke-linecap:round;stroke-linejoin:round;shape-rendering:crispEdges"
         id="path53519" />
      <path
         d="m 340.2784,264.57181 a 2.4883311,2.4890558 0 1 0 0,4.97811 2.4883311,2.4890558 0 1 0 0,-4.97811 z"
         style="display:inline;fill:none;stroke:#ff0000;stroke-width:0.313555;stroke-linecap:round;stroke-linejoin:round;shape-rendering:crispEdges"
         id="path53521" />
      <path
         id="path15991"
         style="display:inline;fill:none;fill-opacity:0.99992;stroke:#ff0000;stroke-width:0.499999;stroke-linecap:round;stroke-linejoin:round;stroke-miterlimit:4;stroke-dasharray:none;shape-rendering:crispEdges;stop-color:#000000"
         d="m 327.13693,126.32561 c -0.63788,0.008 -1.20815,0.28711 -1.60114,0.72812 -0.57043,0.64012 -0.55095,2.16217 -0.55095,3.03892 V 267.9106 c 0,0.87675 -0.0195,2.3988 0.55095,3.03892 0.0557,0.0625 0.11488,0.12168 0.17734,0.17734 0.64013,0.57043 2.16217,0.55095 3.03892,0.55095 h 5.21777 c 0.87676,0 1.5875,-0.71075 1.5875,-1.5875 v -1.25626 c 0,-0.87675 -0.028,-2.33273 0.31863,-3.13135 0.38857,-0.8952 1.10565,-1.61228 2.00085,-2.00085 0.79862,-0.34666 2.25459,-0.31863 3.13134,-0.31863 0.64245,0 1.90847,-0.028 2.70709,0.31863 0.8952,0.38857 1.61228,1.10566 2.00086,2.00085 0.34665,0.79863 0.31862,2.2546 0.31862,3.13135 v 1.25626 c 0,0.87675 0.71075,1.5875 1.5875,1.5875 h 90.62547 c 0.87676,0 1.5875,-0.71075 1.5875,-1.5875 v -2.31459 c 0,-0.87675 -0.028,-2.33273 0.31863,-3.13135 0.38857,-0.8952 1.10566,-1.61228 2.00085,-2.00086 0.79863,-0.34665 2.2546,-0.31862 3.13136,-0.31862 h 16.66461 c 0.87675,0 2.33273,-0.028 3.13135,0.31862 0.8952,0.38858 1.61228,1.10566 2.00086,2.00086 0.34665,0.79862 0.31862,2.2546 0.31862,3.13135 v 2.31459 c 0,0.87675 0.71075,1.5875 1.5875,1.5875 h 64.91439 c 0.87675,0 1.5875,-0.71075 1.5875,-1.5875 v -1.53841 c 0,-0.87675 -0.028,-2.33273 0.31862,-3.13135 0.38858,-0.8952 1.10566,-1.61229 2.00087,-2.00086 0.79862,-0.34666 2.25459,-0.31862 3.13135,-0.31862 h 6.24766 c 0.87675,0 1.58078,-0.71078 1.5875,-1.5875 v -69.0392 -23.38203 -32.60266 c 0,-0.87675 -0.71075,-1.5875 -1.5875,-1.5875 h -6.24766 c -0.87676,0 -2.33273,0.028 -3.13136,-0.31862 -0.8952,-0.38858 -1.61228,-1.10566 -2.00086,-2.00086 -0.34666,-0.79862 -0.31862,-2.2546 -0.31862,-3.13135 v -1.53841 c 0,-0.87675 -0.71075,-1.5875 -1.5875,-1.5875 h -17.27595 -8.41861 -39.21983 c -0.87675,0 -1.5875,0.71075 -1.5875,1.5875 v 1.25677 c 0,0.87676 0.0281,2.33274 -0.31865,3.13135 -0.38859,0.89506 -1.10565,1.61195 -2.00081,2.00042 -0.79865,0.34659 -2.25462,0.31855 -3.13137,0.31855 h -16.66461 c -0.87676,0 -2.33272,0.028 -3.13138,-0.31855 -0.89516,-0.38847 -1.61223,-1.10537 -2.00081,-2.00043 -0.3467,-0.7986 -0.31865,-2.25458 -0.31865,-3.13134 v -1.25677 c 0,-0.87675 -0.71074,-1.5875 -1.5875,-1.5875 h -90.62547 c -0.87675,0 -1.5875,0.71075 -1.5875,1.5875 v 1.25677 c 0,0.87676 0.028,2.33275 -0.31866,3.13135 -0.38858,0.89506 -1.10564,1.61195 -2.0008,2.00042 -0.79865,0.34659 -2.25462,0.31855 -3.13137,0.31855 -0.64245,0 -1.90845,0.028 -2.7071,-0.31855 -0.89516,-0.38847 -1.61222,-1.10537 -2.0008,-2.00043 -0.34671,-0.7986 -0.31866,-2.25458 -0.31866,-3.13134 v -1.25677 c 0,-0.87675 -0.71074,-1.5875 -1.5875,-1.5875 h -6.77764 c -0.0153,0 -0.04,-2e-5 -0.0553,1.7e-4 z"
         sodipodi:nodetypes="csssssssssssssssssssssssssssssssssssssccssssssssccsssssssssssssssssssssssscc" />
    </g>
  </g>
  <g
     inkscape:groupmode="layer"
     id="layer4"
     inkscape:label="Back"
     style="display:inline"
     transform="translate(-383.78883,-46.464886)">
    <path
       d="m 633.11883,46.564886 h -6.065 c -0.055,0 -0.1,0.045 -0.1,0.1 v 2.9 h -5.8 v -2.9 c 0,-0.055 -0.045,-0.1 -0.1,-0.1 h -6 c -0.055,0 -0.1,0.045 -0.1,0.1 v 2.9 h -5.8 v -2.9 c 0,-0.055 -0.045,-0.1 -0.1,-0.1 h -6 c -0.055,0 -0.1,0.045 -0.1,0.1 v 2.9 h -5.8 v -2.9 c 0,-0.055 -0.045,-0.1 -0.1,-0.1 h -6 c -0.055,0 -0.1,0.045 -0.1,0.1 v 2.9 h -5.8 v -2.9 c 0,-0.055 -0.045,-0.1 -0.1,-0.1 h -6 c -0.055,0 -0.1,0.045 -0.1,0.1 v 2.9 h -5.8 v -2.9 c 0,-0.055 -0.045,-0.1 -0.1,-0.1 h -6 c -0.055,0 -0.1,0.045 -0.1,0.1 v 2.9 h -5.8 v -2.9 c 0,-0.055 -0.045,-0.1 -0.1,-0.1 h -6 c -0.055,0 -0.1,0.045 -0.1,0.1 v 2.9 h -5.8 v -2.9 c 0,-0.055 -0.045,-0.1 -0.1,-0.1 h -6 c -0.055,0 -0.1,0.045 -0.1,0.1 v 2.9 h -5.8 v -2.9 c 0,-0.055 -0.045,-0.1 -0.1,-0.1 h -6 c -0.055,0 -0.1,0.045 -0.1,0.1 v 2.9 h -5.8 v -2.9 c 0,-0.055 -0.045,-0.1 -0.1,-0.1 h -6 c -0.055,0 -0.1,0.045 -0.1,0.1 v 2.9 h -5.8 v -2.9 c 0,-0.055 -0.045,-0.1 -0.1,-0.1 h -6 c -0.055,0 -0.1,0.045 -0.1,0.1 v 2.9 h -5.8 v -2.9 c 0,-0.055 -0.045,-0.1 -0.1,-0.1 h -6 c -0.055,0 -0.1,0.045 -0.1,0.1 v 2.9 h -5.8 v -2.9 c 0,-0.055 -0.045,-0.1 -0.1,-0.1 h -6 c -0.055,0 -0.1,0.045 -0.1,0.1 v 2.9 h -5.8 v -2.9 c 0,-0.055 -0.045,-0.1 -0.1,-0.1 h -6 c -0.055,0 -0.1,0.045 -0.1,0.1 v 2.9 h -5.8 v -2.9 c 0,-0.055 -0.045,-0.1 -0.1,-0.1 h -6 c -0.055,0 -0.1,0.045 -0.1,0.1 v 2.9 h -5.8 v -2.9 c 0,-0.055 -0.045,-0.1 -0.1,-0.1 h -6 c -0.055,0 -0.1,0.045 -0.1,0.1 v 2.9 h -5.8 v -2.9 c 0,-0.055 -0.045,-0.1 -0.1,-0.1 h -6 c -0.055,0 -0.1,0.045 -0.1,0.1 v 2.9 h -5.8 v -2.9 c 0,-0.055 -0.045,-0.1 -0.1,-0.1 h -6 c -0.055,0 -0.1,0.045 -0.1,0.1 v 2.9 h -5.8 v -2.9 c 0,-0.055 -0.045,-0.1 -0.1,-0.1 h -6 c -0.055,0 -0.1,0.045 -0.1,0.1 v 2.9 h -5.8 v -2.9 c 0,-0.055 -0.045,-0.1 -0.1,-0.1 h -6 c -0.055,0 -0.1,0.045 -0.1,0.1 v 2.9 h -5.8 v -2.9 c 0,-0.055 -0.045,-0.1 -0.1,-0.1 h -6.065 c -0.055,0 -0.1,0.045 -0.1,0.1 v 3 4.9 h -2.9 c -0.055,0 -0.1,0.045 -0.1,0.1 v 6 c 0,0.055 0.045,0.1 0.1,0.1 h 2.9 v 5.8 h -2.9 c -0.055,0 -0.1,0.045 -0.1,0.1 v 6 c 0,0.055 0.045,0.1 0.1,0.1 h 2.9 v 5.8 h -2.9 c -0.055,0 -0.1,0.045 -0.1,0.1 v 6 c 0,0.055 0.045,0.1 0.1,0.1 h 2.9 v 5.8 h -2.9 c -0.055,0 -0.1,0.045 -0.1,0.1 v 6 c 0,0.055 0.045,0.1 0.1,0.1 h 2.9 v 5.800004 h -2.9 c -0.055,0 -0.1,0.045 -0.1,0.1 v 6 c 0,0.055 0.045,0.1 0.1,0.1 h 2.9 v 5.8 h -2.9 c -0.055,0 -0.1,0.045 -0.1,0.1 v 6 c 0,0.055 0.045,0.1 0.1,0.1 h 2.9 v 5.8 h -2.9 c -0.055,0 -0.1,0.045 -0.1,0.1 v 6 c 0,0.055 0.045,0.1 0.1,0.1 h 2.9 v 5.8 h -2.9 c -0.055,0 -0.1,0.045 -0.1,0.1 v 6 c 0,0.055 0.045,0.1 0.1,0.1 h 2.9 v 5.8 h -2.9 c -0.055,0 -0.1,0.045 -0.1,0.1 v 6 c 0,0.055 0.045,0.1 0.1,0.1 h 2.9 v 5.8 h -2.9 c -0.055,0 -0.1,0.045 -0.1,0.1 v 6 c 0,0.055 0.045,0.1 0.1,0.1 h 2.9 v 5.8 h -2.9 c -0.055,0 -0.1,0.045 -0.1,0.1 v 6 c 0,0.055 0.045,0.1 0.1,0.1 h 2.9 v 5.8 h -2.9 c -0.055,0 -0.1,0.045 -0.1,0.1 v 6 c 0,0.055 0.045,0.1 0.1,0.1 h 2.9 v 5.8 h -2.9 c -0.055,0 -0.1,0.045 -0.1,0.1 v 6 c 0,0.055 0.045,0.1 0.1,0.1 h 2.9 v 4.9 3 c 0,0.055 0.045,0.1 0.1,0.1 h 6.065 c 0.055,0 0.1,-0.045 0.1,-0.1 v -2.9 h 5.8 v 2.9 c 0,0.055 0.045,0.1 0.1,0.1 h 6 c 0.055,0 0.1,-0.045 0.1,-0.1 v -2.9 h 5.8 v 2.9 c 0,0.055 0.045,0.1 0.1,0.1 h 6 c 0.055,0 0.1,-0.045 0.1,-0.1 v -2.9 h 5.8 v 2.9 c 0,0.055 0.045,0.1 0.1,0.1 h 6 c 0.055,0 0.1,-0.045 0.1,-0.1 v -2.9 h 5.8 v 2.9 c 0,0.055 0.045,0.1 0.1,0.1 h 6 c 0.055,0 0.1,-0.045 0.1,-0.1 v -2.9 h 5.8 v 2.9 c 0,0.055 0.045,0.1 0.1,0.1 h 6 c 0.055,0 0.1,-0.045 0.1,-0.1 v -2.9 h 5.8 v 2.9 c 0,0.055 0.045,0.1 0.1,0.1 h 6 c 0.055,0 0.1,-0.045 0.1,-0.1 v -2.9 h 5.8 v 2.9 c 0,0.055 0.045,0.1 0.1,0.1 h 6 c 0.055,0 0.1,-0.045 0.1,-0.1 v -2.9 h 5.8 v 2.9 c 0,0.055 0.045,0.1 0.1,0.1 h 6 c 0.055,0 0.1,-0.045 0.1,-0.1 v -2.9 h 5.8 v 2.9 c 0,0.055 0.045,0.1 0.1,0.1 h 6 c 0.055,0 0.1,-0.045 0.1,-0.1 v -2.9 h 5.8 v 2.9 c 0,0.055 0.045,0.1 0.1,0.1 h 6 c 0.055,0 0.1,-0.045 0.1,-0.1 v -2.9 h 5.8 v 2.9 c 0,0.055 0.045,0.1 0.1,0.1 h 6 c 0.055,0 0.1,-0.045 0.1,-0.1 v -2.9 h 5.8 v 2.9 c 0,0.055 0.045,0.1 0.1,0.1 h 6 c 0.055,0 0.1,-0.045 0.1,-0.1 v -2.9 h 5.8 v 2.9 c 0,0.055 0.045,0.1 0.1,0.1 h 6 c 0.055,0 0.1,-0.045 0.1,-0.1 v -2.9 h 5.8 v 2.9 c 0,0.055 0.045,0.1 0.1,0.1 h 6 c 0.055,0 0.1,-0.045 0.1,-0.1 v -2.9 h 5.8 v 2.9 c 0,0.055 0.045,0.1 0.1,0.1 h 6 c 0.055,0 0.1,-0.045 0.1,-0.1 v -2.9 h 5.8 v 2.9 c 0,0.055 0.045,0.1 0.1,0.1 h 6 c 0.055,0 0.1,-0.045 0.1,-0.1 v -2.9 h 5.8 v 2.9 c 0,0.055 0.045,0.1 0.1,0.1 h 6 c 0.055,0 0.1,-0.045 0.1,-0.1 v -2.9 h 5.8 v 2.9 c 0,0.055 0.045,0.1 0.1,0.1 h 6 c 0.055,0 0.1,-0.045 0.1,-0.1 v -2.9 h 5.8 v 2.9 c 0,0.055 0.045,0.1 0.1,0.1 h 6 c 0.055,0 0.1,-0.045 0.1,-0.1 v -2.9 h 5.8 v 2.9 c 0,0.055 0.045,0.1 0.1,0.1 h 6.065 3 c 0.055,0 0.1,-0.045 0.1,-0.1 v -3 -5 c 0,-0.055 -0.045,-0.1 -0.1,-0.1 h -2.9 v -5.8 h 2.9 c 0.055,0 0.1,-0.045 0.1,-0.1 v -6 c 0,-0.055 -0.045,-0.1 -0.1,-0.1 h -2.9 v -5.8 h 2.9 c 0.055,0 0.1,-0.045 0.1,-0.1 v -6 c 0,-0.055 -0.045,-0.1 -0.1,-0.1 h -2.9 v -5.8 h 2.9 c 0.055,0 0.1,-0.045 0.1,-0.1 v -6 c 0,-0.055 -0.045,-0.1 -0.1,-0.1 h -2.9 v -5.8 h 2.9 c 0.055,0 0.1,-0.045 0.1,-0.1 v -6 c 0,-0.055 -0.045,-0.1 -0.1,-0.1 h -2.9 v -5.8 h 2.9 c 0.055,0 0.1,-0.045 0.1,-0.1 v -6 c 0,-0.055 -0.045,-0.1 -0.1,-0.1 h -2.9 v -5.8 h 2.9 c 0.055,0 0.1,-0.045 0.1,-0.1 v -6 c 0,-0.055 -0.045,-0.1 -0.1,-0.1 h -2.9 v -5.8 h 2.9 c 0.055,0 0.1,-0.045 0.1,-0.1 v -6 c 0,-0.055 -0.045,-0.1 -0.1,-0.1 h -2.9 v -5.8 h 2.9 c 0.055,0 0.1,-0.045 0.1,-0.1 v -6 c 0,-0.055 -0.045,-0.1 -0.1,-0.1 h -2.9 v -5.8 h 2.9 c 0.055,0 0.1,-0.045 0.1,-0.1 v -6.000004 c 0,-0.055 -0.045,-0.1 -0.1,-0.1 h -2.9 v -5.8 h 2.9 c 0.055,0 0.1,-0.045 0.1,-0.1 v -6 c 0,-0.055 -0.045,-0.1 -0.1,-0.1 h -2.9 v -5.8 h 2.9 c 0.055,0 0.1,-0.045 0.1,-0.1 v -6 c 0,-0.055 -0.045,-0.1 -0.1,-0.1 h -2.9 v -5.8 h 2.9 c 0.055,0 0.1,-0.045 0.1,-0.1 v -6 c 0,-0.055 -0.045,-0.1 -0.1,-0.1 h -2.9 v -5.8 h 2.9 c 0.055,0 0.1,-0.045 0.1,-0.1 v -5 -3 c 0,-0.055 -0.045,-0.1 -0.1,-0.1 z"
       stroke="rgb(0,0,0)"
       stroke-width="0.2"
       id="path20"
       style="display:inline;fill:none;stroke:#ff0000;stroke-linecap:round;stroke-linejoin:round" />
    <g
       id="g935"
       transform="translate(3.3272217,2.8302246)">
      <circle
         style="fill:none;fill-rule:evenodd;stroke:#ff0000;stroke-width:0.080822;stop-color:#000000"
         id="path929"
         cx="423.82596"
         cy="126.83466"
         r="17.459589" />
      <circle
         style="fill:none;fill-rule:evenodd;stroke:#ff0000;stroke-width:0.080822;stop-color:#000000"
         id="circle931"
         cx="589.62726"
         cy="126.83466"
         r="17.459589" />
    </g>
  </g>
</svg>
